<?xml version="1.0" encoding="iso-8859-1"?>
<!-- Generator: Adobe Illustrator 14.0.0, SVG Export Plug-In . SVG Version: 6.00 Build 43363)  -->
<!DOCTYPE svg PUBLIC "-//W3C//DTD SVG 1.1//EN" "http://www.w3.org/Graphics/SVG/1.1/DTD/svg11.dtd">
<svg version="1.1" id="Layer_1" xmlns="http://www.w3.org/2000/svg" xmlns:xlink="http://www.w3.org/1999/xlink" x="0px" y="0px"
	 width="250px" height="125px" viewBox="0 0 250 125" style="enable-background:new 0 0 250 125;" xml:space="preserve">
<g>
	<path style="fill:none;stroke:#231F20;stroke-width:2.8326;stroke-miterlimit:10;" d="M120.542,46.963"/>
	<path style="fill:#006098;" d="M124.997,75.937c50.822,0,92.02-15.562,92.02-34.75c0-19.188-41.198-34.747-92.02-34.747
		c-50.818,0-92.017,15.558-92.017,34.747C32.979,60.375,74.179,75.937,124.997,75.937z"/>
	<path style="fill:#231F20;" d="M124.997,41.187"/>
	<ellipse style="fill:#FFFFFF;" cx="124.997" cy="41.189" rx="89.143" ry="31.871"/>
	<path style="fill:#FFFFFF;" d="M124.997,41.187"/>
	<path style="fill:#006098;" d="M124.997,71.14c48.176,0,87.227-13.409,87.227-29.953c0-16.54-39.051-29.953-87.227-29.953
		c-48.169,0-87.227,13.413-87.227,29.953C37.77,57.73,76.827,71.14,124.997,71.14z"/>
	<path style="fill:#231F20;" d="M124.997,41.187"/>
	<path style="fill:#FFFFFF;" d="M118.078,29.742c-1.232-0.206-2.416,1.249-2.001,3.336
		C117.829,33.078,119.081,29.909,118.078,29.742z M117.661,23.401c-2.669,2.251-8.086,6.422-9.67,10.593
		c2.833,0.165,5.334-0.335,6.001-0.585c-0.083-5.423,3.494-6.374,5.673-4.92c1.752,1.17,0.332,5.67-2.754,6.504
		c0.732,0.664,0.64,0.664,1.167,0.917c1.002,0.485,0.503,2.251-0.917,1.584c-1.694-0.797-2.083-1.42-2.251-1.92
		c-2.419,0.336-5.42,0.835-8.838,1.17c-2.921,4.835-3.544,6.114-6.839,11.093c-18.097,27.352-35.273,1.998-21.933-6.754
		c6.053-3.976,7.408,0.082,4.421,1.417c-9.341,4.167-1.002,24.933,18.682-4.838c-1.341-0.191-4.971,0.945-5.341,1.584
		c-0.859,1.509-2.765,0.318-1.082-1.584c1.249-1.417,4.753-2.419,9.17-3.168c2.668-4.502,7.339-10.008,12.177-12.636
		c-7.671-1.79-19.917-3.556-24.601,2.713c-5.919,7.917,3.421,8.589,7.506,2.331c1.041-1.591,3.087-1.167,1.667,1.837
		c-7.233,15.322-23.434,6.422-13.676-5.255c2.806-3.356,9.591-8.335,29.189-5.249c13.833,2.176,24.18,3.585,33.521,1.081
		c2.402-0.643,3.788,1.205,1.667,3.25c-7.675,7.425-22.015,2.836-32.772-0.25C117.829,22.317,117.746,22.819,117.661,23.401z"/>
	<path style="fill:#FFFFFF;" d="M105.487,55.048c1.42,3.962,8.17,10.634,17.847-3.213c6.015-8.605,11.257-12.129,9.255-6.333
		l-8.129,13.844h5.877c0-0.082,0,0,6.506-10.925c0,0,0,7.883,9.005,2.751c-0.958,9.05,7.419,10.511,12.424,4.588
		c2.642,8.041,11.34,1.4,16.962-5.922l0.133-0.192c0.28-0.274,0.514-0.506,0.232-0.787l-0.243-0.168l-0.944-0.688l-0.294-0.209
		c-0.462-0.277-0.462-0.185-0.88,0.322l-0.163,0.253c-9.324,10.672-10.624,7.141-8.671,3.802c1.211-2.07,10.501-17.03,13.498-21.854
		l0.202-0.312c0.599-0.972,0.69-1.16,0.182-1.16l-0.233-0.021h-4.54l-0.227,0.021c-0.509-0.044-0.653,0.14-0.835,0.51l-0.517,0.875
		l-7.407,11.976c-0.999-5.002-8.171-4.797-14.217,1.252c-10.217,10.217-11.425,4.461-10.176,1.211
		c0.438-1.136,1.047-1.211,1.211-0.671c0.466,1.513,3.063,3.097,5.085,1.129c3.973-5.218-3.709-10.22-8.503-3.004
		c-1.416-9.505-10.966-0.711-13.132,2.751c0,0,0.165-5.922-1.922-5.546c-3.583,1.044-3.097,2.21-2.522,4.315
		c0,0,0.523,1.191,0.191,3.319c-2.169,11.085-14.638,10.34-9.009,0.499c4.212-6.275,6.422-4.379,7.212-6.131
		c0.041-0.999-0.205-2.002-1.125-2.083c-4.564-0.415-9.163,3.698-11.007,7.38c-1.42,2.833-1.666,4.25-5.96,8.674
		c-0.595,0.609-0.479,1.208,0.271,2.187c0.629,0.821,0.811,0.773,1.522,0.147C103.105,57.049,104.487,55.968,105.487,55.048
		 M161.529,46.545c0,0-0.172,0.376-0.335,0.752c-5.383,10.375-12.264,8.964-8.843,1.875c4.004-8.301,10.717-8.8,8.298-2.792
		L161.529,46.545z"/>
	<polyline style="fill:#FFFFFF;" points="191.797,106.584 224.288,106.584 240,89.603 178.265,89.603 	"/>
	<polyline style="fill:none;stroke:#006098;stroke-width:3.9714;" points="191.797,106.584 224.288,106.584 240,89.603 
		178.265,89.603 	"/>
	<polyline style="fill:#FFFFFF;" points="58.2,106.584 25.708,106.584 10,89.603 71.732,89.603 	"/>
	<polyline style="fill:none;stroke:#006098;stroke-width:3.9714;" points="58.2,106.584 25.708,106.584 10,89.603 71.732,89.603 	
		"/>
	<path style="fill:#FFFFFF;" d="M125.25,85.968v-0.006c-0.109,0-0.217,0.003-0.327,0.003c-0.11,0-0.218-0.003-0.327-0.003v0.006
		c-29.8,0.062-56.469,4.283-75.908,10.092l0.068,0.081l18.453,22.419c16.619-3.462,36.356-5.437,57.714-5.456
		c21.358,0.02,41.094,1.994,57.713,5.456l18.449-22.419l0.071-0.081C181.72,90.251,155.05,86.029,125.25,85.968z"/>
	<path style="fill:none;stroke:#006098;stroke-width:5.957;" d="M125.25,113.102c-21.484,0-41.337,1.979-58.041,5.458L48.756,96.141
		l-0.068-0.081c19.582-5.852,46.496-10.098,76.562-10.098"/>
	<path style="fill:none;stroke:#006098;stroke-width:5.957;" d="M124.596,113.102c21.484,0,41.336,1.979,58.041,5.458l18.449-22.419
		l0.071-0.081c-19.581-5.852-46.496-10.098-76.561-10.098"/>
	<path style="fill:#006098;" d="M78.47,101.622l-0.188,0.035c-0.099-0.291-0.174-0.356-0.345-0.329l-5.167,0.91l0.246,1.393
		l3.473-0.608c0.174-0.031,0.222-0.12,0.219-0.411l0.188-0.034l0.462,2.632l-0.185,0.03c-0.11-0.336-0.185-0.404-0.359-0.373
		l-3.473,0.612l0.462,2.61c0.024,0.145,0.089,0.243,0.486,0.206l0.034,0.188l-3.284,0.578l-0.034-0.189
		c0.387-0.099,0.414-0.218,0.39-0.355l-1.286-7.291c-0.024-0.144-0.089-0.242-0.486-0.205l-0.035-0.188l8.01-1.41
		c0.171-0.029,0.222-0.119,0.206-0.488l0.188-0.031L78.47,101.622z"/>
	<path style="fill:#006098;" d="M84.225,102.693c0.184,1.482,1.505,2.166,2.874,1.995c1.372-0.172,2.48-1.16,2.295-2.642
		c-0.185-1.481-1.502-2.166-2.874-1.991C85.148,100.223,84.04,101.212,84.225,102.693z M91.729,101.756
		c0.346,2.758-1.708,4.521-4.387,4.855c-2.683,0.335-5.105-0.865-5.45-3.627c-0.342-2.758,1.71-4.517,4.39-4.852
		C88.96,97.797,91.383,98.998,91.729,101.756z"/>
	<path style="fill:#006098;" d="M98.195,100.524l2.662-0.212c0.934-0.072,1.187-0.507,1.149-0.965
		c-0.034-0.463-0.353-0.85-1.287-0.777l-2.662,0.209L98.195,100.524z M98.537,104.863c0.014,0.141,0.068,0.249,0.469,0.249
		l0.013,0.191l-3.264,0.257l-0.014-0.191c0.394-0.062,0.431-0.178,0.421-0.321l-0.582-7.377c-0.01-0.144-0.068-0.25-0.465-0.25
		l-0.017-0.191l5.796-0.459c2.344-0.185,3.408,0.562,3.548,2.368c0.116,1.458-0.77,2.306-2.056,2.774l2.073,2.481
		c0.161,0.194,0.309,0.263,0.482,0.25l0.017,0.19l-3.295,0.258l-0.014-0.189c0.219-0.033,0.339-0.122,0.325-0.314
		c-0.014-0.141-1.861-2.192-2.094-2.511l-1.554,0.122L98.537,104.863z"/>
	<path style="fill:#006098;" d="M111.423,102.652l2.015-0.075c1.684-0.062,2.33-1.036,2.279-2.389
		c-0.048-1.348-0.767-2.278-2.45-2.213l-2.016,0.071L111.423,102.652z M108.819,96.74c-0.003-0.144-0.055-0.253-0.455-0.271
		l-0.007-0.188l5.27-0.194c2.922-0.109,4.355,1.648,4.441,4.017c0.079,2.173-1.355,4.229-4.308,4.339l-5.095,0.188l-0.007-0.191
		c0.394-0.048,0.438-0.161,0.435-0.301L108.819,96.74z"/>
	<path style="fill:#006098;" d="M136.733,98.389l-0.192-0.007c-0.041-0.301-0.103-0.382-0.277-0.386l-5.241-0.113l-0.028,1.413
		l3.524,0.075c0.175,0.007,0.24-0.071,0.295-0.359l0.191,0.003l-0.059,2.673l-0.191-0.007c-0.04-0.349-0.103-0.431-0.277-0.435
		l-3.523-0.075l-0.059,2.651c-0.003,0.145,0.045,0.257,0.438,0.295l-0.003,0.191l-3.336-0.071l0.004-0.189
		c0.399-0.023,0.448-0.133,0.45-0.276l0.161-7.401c0.004-0.144-0.041-0.257-0.438-0.298l0.004-0.188l8.13,0.175
		c0.174,0.003,0.242-0.076,0.297-0.438l0.188,0.003L136.733,98.389z"/>
	<path style="fill:#006098;" d="M140.223,104.6l0.011-0.188c0.396-0.011,0.451-0.12,0.458-0.26l0.39-7.395
		c0.008-0.144-0.033-0.257-0.431-0.308l0.011-0.191l3.267,0.174l-0.01,0.188c-0.397,0.01-0.448,0.12-0.459,0.264l-0.389,7.391
		c-0.008,0.144,0.033,0.257,0.43,0.308l-0.01,0.192L140.223,104.6z"/>
	<path style="fill:#006098;" d="M154.341,102.529l-0.192-0.017c-0.027-0.209-0.126-0.377-0.441-0.404l-2.946-0.249l-0.122,1.471
		l5.08,0.435c0.172,0.014,0.244-0.059,0.325-0.452l0.188,0.018l-0.236,2.751l-0.188-0.014c-0.023-0.274-0.078-0.359-0.252-0.373
		l-7.901-0.674l0.018-0.188c0.396,0,0.454-0.106,0.465-0.247l0.63-7.376c0.014-0.145-0.024-0.257-0.418-0.325l0.018-0.188
		l7.896,0.674c0.175,0.013,0.243-0.059,0.322-0.418l0.191,0.014l-0.235,2.755l-0.189-0.018c-0.017-0.366-0.074-0.451-0.249-0.466
		l-5.081-0.434l-0.11,1.313l2.943,0.25c0.318,0.027,0.441-0.12,0.507-0.322l0.188,0.018L154.341,102.529z"/>
	<path style="fill:#006098;" d="M162.723,104.568l5.424,0.698c0.171,0.024,0.246-0.048,0.339-0.403l0.191,0.023l-0.359,2.771
		l-0.188-0.023c-0.008-0.336-0.06-0.422-0.233-0.445l-8.226-1.061l0.027-0.188c0.397,0.018,0.459-0.085,0.476-0.226l0.948-7.343
		c0.017-0.144-0.017-0.261-0.403-0.343l0.023-0.188l3.243,0.417l-0.023,0.189c-0.397-0.019-0.458,0.085-0.479,0.228L162.723,104.568
		z"/>
	<path style="fill:#006098;" d="M174.729,106.409l1.985,0.355c1.659,0.302,2.5-0.517,2.736-1.844
		c0.243-1.328-0.26-2.388-1.916-2.686l-1.987-0.359L174.729,106.409z M173.45,100.076c0.027-0.141,0-0.257-0.387-0.359l0.034-0.188
		l5.19,0.938c2.877,0.517,3.897,2.541,3.48,4.872c-0.391,2.141-2.228,3.843-5.137,3.318l-5.016-0.907l0.03-0.188
		c0.397,0.041,0.465-0.063,0.489-0.201L173.45,100.076z"/>
	<path style="fill:none;stroke:#CA7F56;stroke-width:3.4371;" d="M201.559,97.585"/>
</g>
</svg>
