<?xml version="1.0" encoding="utf-8"?>
<!-- Generator: Adobe Illustrator 26.5.0, SVG Export Plug-In . SVG Version: 6.00 Build 0)  -->
<svg version="1.1" id="Layer_1" xmlns="http://www.w3.org/2000/svg" xmlns:xlink="http://www.w3.org/1999/xlink" x="0px" y="0px"
	 viewBox="0 0 512 512" style="enable-background:new 0 0 512 512;" xml:space="preserve">
<style type="text/css">
	.st0{fill:#CCCCCC;}
	.st1{fill:#999999;}
	.st2{fill:#3B3B3C;}
	.st3{fill:url(#XMLID_00000053546269761697482020000010507244342328140968_);}
	.st4{fill:url(#XMLID_00000176023037459459344450000006470951629179725992_);}
	.st5{fill:#141414;}
	.st6{fill:#FFFFFF;}
	.st7{fill:#0F3063;}
	.st8{fill:#CF142B;}
	.st9{fill:url(#XMLID_00000103223820970824232830000005890176981293002656_);}
	.st10{fill:#EDEDED;}
	.st11{fill:#A6A6A6;}
	.st12{fill:url(#XMLID_00000166676366845691415260000006078303881133090436_);}
	.st13{fill:url(#XMLID_00000109721364317208676420000003777022986167538334_);}
	.st14{fill:url(#XMLID_00000095318519193488962980000006430623212014407827_);}
	.st15{fill:url(#XMLID_00000034778972622284046310000010751376914248663741_);}
</style>
<g id="XMLID_1_">
	<polygon id="XMLID_3_" class="st0" points="365.69,140.27 366.68,141.82 366.68,141.82 384.35,130.31 378.04,123.72 365.41,139.99 
			"/>
	<path id="XMLID_4_" class="st1" d="M155.7,329.36L155.7,329.36c-0.84-0.7-2.1-1.96-2.95-2.67l-23.15,15.15l4.91,4.35l5.75,5.33
		L155.7,329.36z"/>
	<path id="XMLID_5_" class="st2" d="M496.43,346.06H283.49v5.33h209.99c0,0,15.99,30.72,2.95,71.68c0,0,5.05-9.26,7.43-23.43
		C509.76,368.08,496.43,346.06,496.43,346.06z"/>
	
		<radialGradient id="XMLID_00000022519953225282134460000003981067834951129225_" cx="-2915.5171" cy="1630.8964" r="1.3796" gradientTransform="matrix(0.0541 0 0 -0.0541 535.6979 211.8849)" gradientUnits="userSpaceOnUse">
		<stop  offset="0" style="stop-color:#E0E0E0"/>
		<stop  offset="0.3006" style="stop-color:#E0E0E0"/>
		<stop  offset="0.3509" style="stop-color:#D7D7D7"/>
		<stop  offset="0.6497" style="stop-color:#A4A4A4"/>
		<stop  offset="0.8753" style="stop-color:#848484"/>
		<stop  offset="1" style="stop-color:#787878"/>
	</radialGradient>
	<path id="XMLID_6_" style="fill:url(#XMLID_00000022519953225282134460000003981067834951129225_);" d="M377.9,123.58l0.14,0.14
		L377.9,123.58z"/>
	
		<radialGradient id="XMLID_00000065037150715748458580000002406720931990262428_" cx="5.2831" cy="506.1087" r="1.3803" gradientTransform="matrix(244.0031 0 0 -244.0031 -972.5254 123740.2891)" gradientUnits="userSpaceOnUse">
		<stop  offset="0" style="stop-color:#E8E8E8"/>
		<stop  offset="0.0491" style="stop-color:#E8E8E8"/>
		<stop  offset="0.0547" style="stop-color:#D3D3D3"/>
		<stop  offset="0.0662" style="stop-color:#AFAFAF"/>
		<stop  offset="0.0792" style="stop-color:#8F8F8F"/>
		<stop  offset="0.0936" style="stop-color:#737373"/>
		<stop  offset="0.1098" style="stop-color:#5D5D5D"/>
		<stop  offset="0.1287" style="stop-color:#4D4D4D"/>
		<stop  offset="0.1521" style="stop-color:#414141"/>
		<stop  offset="0.1849" style="stop-color:#3A3A3A"/>
		<stop  offset="0.2761" style="stop-color:#383838"/>
		<stop  offset="0.3159" style="stop-color:#3A3A3A"/>
		<stop  offset="0.3361" style="stop-color:#424242"/>
		<stop  offset="0.3519" style="stop-color:#4F4F4F"/>
		<stop  offset="0.3653" style="stop-color:#626262"/>
		<stop  offset="0.3774" style="stop-color:#7B7B7B"/>
		<stop  offset="0.3884" style="stop-color:#999999"/>
		<stop  offset="0.3985" style="stop-color:#BDBDBD"/>
		<stop  offset="0.4079" style="stop-color:#E5E5E5"/>
		<stop  offset="0.411" style="stop-color:#F5F5F5"/>
		<stop  offset="0.5031" style="stop-color:#F2F2F2"/>
		<stop  offset="0.7423" style="stop-color:#DBDBDB"/>
		<stop  offset="0.7544" style="stop-color:#D9D9D9"/>
		<stop  offset="0.7588" style="stop-color:#D3D3D3"/>
		<stop  offset="0.7619" style="stop-color:#C7C7C7"/>
		<stop  offset="0.7644" style="stop-color:#B6B6B6"/>
		<stop  offset="0.7666" style="stop-color:#A0A0A0"/>
		<stop  offset="0.7685" style="stop-color:#858585"/>
		<stop  offset="0.7702" style="stop-color:#646464"/>
		<stop  offset="0.7718" style="stop-color:#404040"/>
		<stop  offset="0.773" style="stop-color:#1C1C1C"/>
		<stop  offset="0.7931" style="stop-color:#3B3B3B"/>
		<stop  offset="0.8345" style="stop-color:#767676"/>
		<stop  offset="0.8745" style="stop-color:#A7A7A7"/>
		<stop  offset="0.912" style="stop-color:#CDCDCD"/>
		<stop  offset="0.9465" style="stop-color:#E9E9E9"/>
		<stop  offset="0.9769" style="stop-color:#F9F9F9"/>
		<stop  offset="1" style="stop-color:#FFFFFF"/>
	</radialGradient>
	<path id="XMLID_9_" style="fill:url(#XMLID_00000065037150715748458580000002406720931990262428_);" d="M500.78,339.32H308.46
		c8.98-5.89,17.67-12.48,25.81-19.78c97.91-86.27,79.4-216.86,79.4-216.86l-10.8-12.2c0,0-29.04-8.42-66.91-8.42
		c-42.92,0-105.35,10.1-159.77,58.07c-77.29,68.03-81.5,162.3-79.68,199.19H11.08c0,0-11.08,21.46-11.08,45.31
		c0,23.85,11.08,45.31,11.08,45.31h489.7c0,0,11.22-21.46,11.22-45.31C512,360.92,500.78,339.32,500.78,339.32z M496.43,423.21
		H15.57c0,0-8.84-16.13-8.84-38.58c0-22.3,8.84-38.58,8.84-38.58h88.09c-2.52-31-3.37-130.17,77.01-200.87
		c96.37-84.87,218.55-48.68,218.55-48.68l8.14,9.26c0,0,18.8,124-77.57,208.73c-15.01,13.19-30.58,23.57-46.15,31.56h212.94
		c0,0,13.33,21.88,7.43,53.58C501.48,413.95,496.43,423.21,496.43,423.21z"/>
	<path id="XMLID_10_" class="st5" d="M18.94,351.53h84.87l-0.14-5.47H15.57c0,0-8.84,16.13-8.84,38.58c0,22.3,8.84,38.58,8.84,38.58
		S1.54,377.9,18.94,351.53z"/>
	<path id="XMLID_11_" class="st6" d="M316.46,163.84c-5.61,3.93-16.27,9.4-29.88,6.03c-23.71-5.89-30.58-26.23-30.58-26.23
		s-6.73,20.48-30.58,26.23c-13.75,3.37-24.41-2.1-29.88-6.03h-4.35V274.1c0,2.81,0.7,8.28,5.19,13.75
		c5.61,6.73,15.01,11.22,28.2,13.05c10.38,1.54,18.1,4.77,23.57,9.96c4.07,3.93,7.72,10.52,7.72,10.52s3.93-6.73,7.86-10.52
		c5.47-5.19,13.19-8.56,23.57-9.96c13.05-1.82,22.58-6.31,28.2-13.05c4.49-5.47,5.19-10.94,5.19-13.75V163.84L316.46,163.84
		L316.46,163.84z"/>
	<path id="XMLID_12_" class="st7" d="M316.88,168.19c0,0-12.91,10.1-31.28,5.47c-21.32-5.33-29.6-21.32-29.6-21.32
		s-8.28,15.99-29.6,21.32c-18.24,4.63-31.28-5.47-31.28-5.47V274.1c0,3.65,1.54,18.94,30.02,23c11.22,1.68,19.64,5.19,25.67,11.08
		c2.24,2.1,3.79,4.21,5.05,6.17c1.26-1.96,2.95-4.07,5.05-6.17c6.03-5.75,14.45-9.4,25.67-11.08c28.48-4.07,30.02-19.36,30.02-23
		L316.88,168.19L316.88,168.19z"/>
	<path id="XMLID_13_" class="st6" d="M256,303.55c0,0,8.28-10.24,29.74-13.47c24.69-3.79,23.85-15.43,23.85-15.99v-55.55H202.13
		v55.55c0,0.56-0.7,12.2,23.85,15.99C247.72,293.45,256,303.55,256,303.55z"/>
	<polygon id="XMLID_14_" class="st8" points="230.89,259.23 230.89,232.85 227.66,230.89 227.66,224.02 242.67,224.02 
		242.67,230.89 239.59,232.85 239.59,286.58 231.45,284.2 219.81,249.83 219.81,272.55 223.6,275.36 223.6,282.37 207.32,278.16 
		207.32,272.27 211.11,270.87 211.11,232.85 207.32,230.89 207.32,224.02 219.53,224.02 	"/>
	<polygon id="XMLID_15_" class="st8" points="258.67,283.35 262.03,287.14 262.03,294.01 245.9,287.98 245.9,282.23 249.41,280.83 
		249.41,232.85 245.9,231.03 245.9,224.02 273.81,224.02 273.81,238.04 267.64,238.04 265.82,232.29 258.67,232.29 258.67,248.43 
		264,248.43 266.1,245.34 270.45,245.34 270.45,259.65 266.1,259.65 264.14,256.7 258.67,256.7 	"/>
	<polygon id="XMLID_16_" class="st8" points="276.48,285.74 276.48,278.86 280.41,275.64 280.41,232.85 277.04,231.03 
		277.04,224.02 293.03,224.02 293.03,231.03 289.95,232.85 289.95,272.97 296.82,271.15 298.08,260.63 304.68,260.63 304.68,278.16 
			"/>
	<polygon id="XMLID_17_" class="st6" points="205.08,207.32 200.17,203.54 206.2,203.54 208.17,197.93 210.13,203.54 216.02,203.54 
		211.11,207.32 212.94,212.94 208.17,209.57 203.26,212.94 	"/>
	<polygon id="XMLID_18_" class="st6" points="226.12,207.32 221.35,203.54 227.24,203.54 229.21,197.93 231.17,203.54 
		237.06,203.54 232.29,207.32 233.98,212.94 229.21,209.57 224.44,212.94 	"/>
	<polygon id="XMLID_19_" class="st6" points="205.08,188.25 200.17,184.6 206.2,184.6 208.17,178.99 210.13,184.6 216.02,184.6 
		211.11,188.25 212.94,194 208.17,190.63 203.26,194 	"/>
	<polygon id="XMLID_20_" class="st6" points="226.12,188.25 221.35,184.6 227.24,184.6 229.21,178.99 231.17,184.6 237.06,184.6 
		232.29,188.25 233.98,194 229.21,190.63 224.44,194 	"/>
	<polygon id="XMLID_21_" class="st6" points="308.74,212.94 303.83,209.57 299.06,212.94 300.89,207.32 295.98,203.54 
		301.87,203.54 303.83,197.93 305.8,203.54 311.83,203.54 306.92,207.32 	"/>
	<polygon id="XMLID_22_" class="st6" points="287.7,212.94 282.79,209.57 278.02,212.94 279.71,207.32 274.94,203.54 280.83,203.54 
		282.79,197.93 284.76,203.54 290.65,203.54 285.88,207.32 	"/>
	<polygon id="XMLID_23_" class="st6" points="308.74,194 303.83,190.63 299.06,194 300.89,188.25 295.98,184.6 301.87,184.6 
		303.83,178.99 305.8,184.6 311.83,184.6 306.92,188.25 	"/>
	<polygon id="XMLID_24_" class="st6" points="287.7,194 282.79,190.63 278.02,194 279.71,188.25 274.94,184.6 280.83,184.6 
		282.79,178.99 284.76,184.6 290.65,184.6 285.88,188.25 	"/>
	<path id="XMLID_29_" class="st6" d="M269.33,172.96c0,0-2.52,1.26-6.03,4.77c0.84,0.42,1.68,1.12,2.24,1.54
		c-0.56,0.42-1.12,0.98-1.54,1.4c-2.24-1.82-4.63-2.81-6.45-3.23c0.56-0.42,1.26-0.84,1.82-1.26c0.98,0.28,1.96,0.7,1.96,0.7
		c3.93-3.09,7.43-4.35,7.43-4.35s-0.42-0.28-1.4-0.14c-15.57,0.14-30.02,11.78-27.21,31.7c0.28,2.1,1.12,5.89,2.1,7.57
		c0.42-3.37,1.54-10.66,5.33-18.52c-1.26-0.42-2.38-0.7-2.38-0.7c0.42-0.84,0.84-1.82,0.84-1.82c2.81,0.56,5.19,1.68,7.29,3.37
		c-0.56,0.84-0.84,1.4-1.12,1.82c-0.7-0.56-1.4-1.12-2.24-1.54c-4.21,7.29-6.03,14.17-6.87,17.67c0,0.28,0.56,0.28,0.84,0.28
		c17.11-2.24,25.11-10.94,27.49-20.34c1.68-6.17,1.12-12.62-1.12-17.96C270.17,173.52,269.89,172.96,269.33,172.96z M254.74,191.75
		c-2.24-1.82-4.77-2.95-7.43-3.51c0,0,0.7-1.26,1.26-1.96c3.09,0.56,5.61,2.1,7.43,3.51C255.58,190.63,255.02,191.19,254.74,191.75z
		 M257.54,187.83c-2.1-1.68-4.63-2.95-7.43-3.65c0.42-0.56,0.98-1.12,1.4-1.68c2.1,0.42,4.91,1.54,7.43,3.51
		C258.38,186.7,257.96,187.27,257.54,187.83z M260.63,184.04c-2.1-1.82-4.63-2.95-7.15-3.51c0.56-0.56,1.26-1.12,1.82-1.54
		c3.23,0.84,5.33,2.24,6.87,3.37C261.61,183.06,261.05,183.62,260.63,184.04z"/>
	
		<linearGradient id="XMLID_00000114775678636733483770000014266385328183681707_" gradientUnits="userSpaceOnUse" x1="4.7572" y1="506.1784" x2="6.1379" y2="506.1784" gradientTransform="matrix(182.9561 0 0 -182.9561 -744.7813 92834.1172)">
		<stop  offset="0" style="stop-color:#333333"/>
		<stop  offset="0.3006" style="stop-color:#333333"/>
		<stop  offset="0.5678" style="stop-color:#555657"/>
		<stop  offset="0.8457" style="stop-color:#737477"/>
		<stop  offset="1" style="stop-color:#7E8083"/>
	</linearGradient>
	<path id="XMLID_30_" style="fill:url(#XMLID_00000114775678636733483770000014266385328183681707_);" d="M138.87,226.12
		c-20.76,54.99-11.64,104.78-9.12,115.73l23.15-15.15c-0.98-0.98-1.54-1.82-2.52-2.95c-36.61-41.66-2.24-131.72,39.28-168.47
		c33.24-29.32,100.58-50.36,145.04-36.33c11.08,3.51,20.76,9.26,28.2,17.53c0.98,1.12,2.67,3.37,2.67,3.37l12.62-16.41h-0.14l0,0
		h0.14c0,0-15.01-8.28-43.2-12.06c-16.97-2.38-35.07-2.38-52.04-0.28c-36.75,4.49-73.64,20.2-99.17,44.19
		C160.89,176.6,147.99,201.85,138.87,226.12z"/>
	<path id="XMLID_31_" class="st10" d="M384.35,130.31l-17.67,11.64c25.95,38.01,3.79,108.29-28.9,148.83
		c18.66-19.08,30.58-42.64,38.29-64.53c5.47-15.85,8.7-30.86,9.82-43.06C388.7,156.97,385.75,137.19,384.35,130.31z"/>
	<path id="XMLID_32_" class="st11" d="M337.78,290.79c-0.7,0.98-1.4,1.82-2.24,2.67l0.14-0.14c-4.21,4.49-8.84,8.7-13.47,12.76
		c-25.39,22.3-70,39.42-109.41,39.98c-1.26,0-2.38,0-3.65,0c-20.76-0.28-39.98-5.19-53.58-16.69l-15.29,22.02
		c52.6,6.73,95.53,0,127.23-10.94c36.05-12.48,59.2-32.4,71.4-45.45c23-24.41,34.23-57.93,37.17-68.87
		C368.5,248.14,356.44,271.71,337.78,290.79z"/>
	
		<radialGradient id="XMLID_00000158720407626686551760000004079445145944571786_" cx="5.1284" cy="506.1067" r="1.3803" gradientTransform="matrix(222.3637 0 0 -222.3637 -892.218 112798.2422)" gradientUnits="userSpaceOnUse">
		<stop  offset="0" style="stop-color:#E0E0E0"/>
		<stop  offset="0.3006" style="stop-color:#E0E0E0"/>
		<stop  offset="0.465" style="stop-color:#CFCFCF"/>
		<stop  offset="0.8091" style="stop-color:#AFAFAF"/>
		<stop  offset="1" style="stop-color:#A3A3A3"/>
	</radialGradient>
	<path id="XMLID_33_" style="fill:url(#XMLID_00000158720407626686551760000004079445145944571786_);" d="M72.66,375.37H49.94v9.82
		h22.72c1.4,0,2.67-1.26,2.67-2.67v-4.49C75.33,376.64,74.06,375.37,72.66,375.37z"/>
	
		<radialGradient id="XMLID_00000044861799101221665340000001604409537507882655_" cx="5.1283" cy="506.1066" r="1.3802" gradientTransform="matrix(222.3635 0 0 -222.3635 -892.2297 112798.1328)" gradientUnits="userSpaceOnUse">
		<stop  offset="0" style="stop-color:#E0E0E0"/>
		<stop  offset="0.3006" style="stop-color:#E0E0E0"/>
		<stop  offset="0.465" style="stop-color:#CFCFCF"/>
		<stop  offset="0.8091" style="stop-color:#AFAFAF"/>
		<stop  offset="1" style="stop-color:#A3A3A3"/>
	</radialGradient>
	<path id="XMLID_34_" style="fill:url(#XMLID_00000044861799101221665340000001604409537507882655_);" d="M170.01,375.23
		c-0.14,0.14-0.28,0.56-0.56,1.26l-5.61,13.89h12.2l-5.61-13.89C170.29,375.51,170.15,375.37,170.01,375.23z"/>
	
		<radialGradient id="XMLID_00000013182059180355669690000009988762922144940718_" cx="5.1285" cy="506.1064" r="1.3803" gradientTransform="matrix(222.3638 0 0 -222.3638 -892.2727 112798.2422)" gradientUnits="userSpaceOnUse">
		<stop  offset="0" style="stop-color:#E0E0E0"/>
		<stop  offset="0.3006" style="stop-color:#E0E0E0"/>
		<stop  offset="0.465" style="stop-color:#CFCFCF"/>
		<stop  offset="0.8091" style="stop-color:#AFAFAF"/>
		<stop  offset="1" style="stop-color:#A3A3A3"/>
	</radialGradient>
	<path id="XMLID_45_" style="fill:url(#XMLID_00000013182059180355669690000009988762922144940718_);" d="M493.48,351.53H283.49
		v-5.33c15.57-8,31.28-18.38,46.15-31.56c96.37-84.87,77.57-208.73,77.57-208.73l-8.14-9.26c0,0-122.18-36.19-218.55,48.68
		c-80.38,70.7-79.4,169.87-77.01,200.87l0.14,5.47H18.94c-17.39,26.23-3.37,71.54-3.37,71.54h480.86
		C509.48,382.25,493.48,351.53,493.48,351.53z M86.27,378.04v4.35v3.37c0,7.43-6.03,13.61-13.61,13.61H49.94v12.76v3.37H39v-3.37
		v-47.69v-3.37h33.67c7.43,0,13.61,6.03,13.61,13.61V378.04z M135.5,404.69v7.43v3.37h-27.91c-6.45,0-11.5-5.05-11.5-11.5v-3.37
		v-36.19v-3.37h10.94v3.37v36.33c0,0.28,0.28,0.56,0.56,0.56h27.91V404.69z M140.27,351.53c-1.26-1.12-5.75-5.33-5.75-5.33
		l-4.91-4.35c-2.52-10.94-11.5-60.74,9.12-115.73c9.12-24.27,22.02-49.52,44.75-70.7c25.53-23.99,62.42-39.7,99.17-44.19
		c16.97-2.1,35.21-1.96,52.04,0.28c28.34,3.93,43.2,12.06,43.2,12.06l6.31,6.59c1.4,7.01,4.35,26.65,1.68,52.88
		c-1.26,12.2-4.35,27.21-9.82,43.06c-2.95,10.94-14.17,44.47-37.17,68.87c-12.2,13.05-35.35,32.96-71.4,45.45
		C235.8,351.53,192.88,358.26,140.27,351.53C140.27,351.39,140.55,351.67,140.27,351.53z M198.07,414.23l0.56,1.26h-12.48
		l-4.35-11.08h-23.29l-4.35,11.08h-12.62l0.56-1.26c0.28-0.7,0.56-1.4,0.84-2.1h-1.4l0.56-1.26c10.38-26.37,14.31-36.19,15.71-39.84
		c0.7-1.68,0.84-1.96,0.84-2.1c1.26-2.95,3.51-7.72,9.54-7.72h3.79c6.03,0,8.28,4.77,9.4,7.43c0.14,0.42,0.28,0.84,0.84,2.24
		c1.4,3.51,5.19,13.05,15.85,40.12l0.56,1.26h-1.4C197.51,412.83,197.79,413.53,198.07,414.23z M231.31,392.77
		c-2.24,2.95-4.21,4.49-6.03,5.33v13.89v3.37h-11.22v-3.37V398.1c-1.82-0.98-4.07-2.67-6.03-5.47l-19.92-28.34h3.23l-2.38-3.37
		h13.19l15.99,22.72c0.98,1.54,0.98,1.54,1.68,1.54s0.7,0,1.68-1.4l0.42-0.56l15.57-22.02h13.19l-2.38,3.37h3.23L231.31,392.77z
		 M305.38,382.25v12.06v3.37c0,9.82-7.86,17.81-17.53,17.81h-19.08c-9.68,0-17.53-8.14-17.53-18.1v-3.37v-11.78v-3.37
		c0-9.82,7.86-17.81,17.53-17.81h19.08c9.68,0,17.53,8,17.53,17.81V382.25z M361.35,364.43v7.43v3.37h-32.82
		c-1.4,0-2.67,1.26-2.67,2.67v3.23h33.39v3.37v7.43v3.37h-33.39v16.69v3.37h-10.94v-3.37v-33.95v-3.37
		c0-7.43,6.03-13.61,13.47-13.61h32.82v3.37H361.35z M416.89,364.43v7.43v3.37h-32.82c-1.4,0-2.67,1.26-2.67,2.67v3.23h33.39v3.37
		v7.43v3.37H381.4v16.69v3.37h-10.94v-3.37v-33.95v-3.37c0-7.43,6.03-13.61,13.47-13.61h32.82L416.89,364.43L416.89,364.43z
		 M473.14,398.38c0,0.28,0,0.42,0,0.7c0,0.28,0,0.56,0,0.7v1.96c0,7.72-6.03,13.75-13.75,13.75h-32.96v-3.37v-7.43v-3.37h32.96
		c1.4,0,2.38-0.84,2.81-2.1c-0.28-0.56-0.84-1.12-2.52-1.54l-23.71-4.63c-6.87-1.4-11.5-6.59-11.5-12.91v-1.96c0-0.28,0-0.42,0-0.7
		c0-0.28,0-0.42,0-0.7v-1.96c0-7.57,6.17-13.61,13.75-13.61h33.1v3.37v7.43v3.37h-33.1c-1.26,0-2.38,0.84-2.67,2.1
		c0.42,0.84,1.54,1.4,2.67,1.54l23.57,4.63c6.87,1.4,11.5,6.59,11.5,12.91v1.82H473.14z"/>
	
		<radialGradient id="XMLID_00000117650537852012242630000007114793088598242199_" cx="5.1286" cy="506.1063" r="1.3803" gradientTransform="matrix(222.3634 0 0 -222.3634 -892.2963 112798.0156)" gradientUnits="userSpaceOnUse">
		<stop  offset="0" style="stop-color:#E0E0E0"/>
		<stop  offset="0.3006" style="stop-color:#E0E0E0"/>
		<stop  offset="0.465" style="stop-color:#CFCFCF"/>
		<stop  offset="0.8091" style="stop-color:#AFAFAF"/>
		<stop  offset="1" style="stop-color:#A3A3A3"/>
	</radialGradient>
	<path id="XMLID_46_" style="fill:url(#XMLID_00000117650537852012242630000007114793088598242199_);" d="M287.84,375.37h-19.08
		c-3.65,0-6.73,3.09-6.73,6.73v12.2c0,3.79,3.09,6.87,6.73,6.87h19.08c3.65,0,6.73-2.95,6.73-6.59v-12.62
		C294.58,378.46,291.49,375.37,287.84,375.37z"/>
	<rect id="XMLID_47_" x="39" y="412.12" class="st6" width="10.94" height="3.37"/>
	<path id="XMLID_48_" class="st6" d="M72.66,371.87H49.94v3.37h22.72c1.4,0,2.67,1.26,2.67,2.67v-3.37
		C75.33,373.13,74.06,371.87,72.66,371.87z"/>
	<path id="XMLID_49_" class="st6" d="M72.66,395.99H49.94v3.37h22.72c7.43,0,13.61-6.03,13.61-13.61v-3.37
		C86.27,389.96,80.1,395.99,72.66,395.99z"/>
	<path id="XMLID_50_" class="st6" d="M96.23,400.62v3.37c0,6.45,5.05,11.5,11.5,11.5h27.91v-3.37h-27.91
		C101.14,412.12,96.23,407.08,96.23,400.62z"/>
	<path id="XMLID_51_" class="st6" d="M182.5,401.04h-24.83l-4.35,11.08h-10.38c-0.28,0.7-0.56,1.4-0.84,2.1l-0.56,1.26h12.62
		l4.35-11.08h23.29l4.35,11.08h12.48l-0.56-1.26c-0.28-0.7-0.56-1.4-0.84-2.1H186.7L182.5,401.04z"/>
	<path id="XMLID_52_" class="st6" d="M170.71,371.87h-1.54c-0.14,0.14-0.28,0.56-0.56,1.26l-6.87,17.25h2.1l5.61-13.89
		c0.28-0.56,0.42-1.12,0.56-1.26l0,0c0,0,0.14,0.28,0.56,1.26l5.61,13.89h2.1l-6.87-17.25
		C170.99,372.15,170.71,372.01,170.71,371.87z"/>
	<rect id="XMLID_53_" x="214.2" y="412.12" class="st6" width="11.22" height="3.37"/>
	<path id="XMLID_54_" class="st6" d="M225.28,394.73v3.37c1.82-0.98,3.79-2.38,6.03-5.33l19.92-28.34H248l-17.53,24.97
		C229.07,391.93,227.1,393.89,225.28,394.73z"/>
	<path id="XMLID_55_" class="st6" d="M208.87,389.4l-17.39-24.97h-3.23l19.92,28.34c1.96,2.81,4.21,4.49,6.03,5.47v-3.37
		C212.37,393.89,210.41,391.93,208.87,389.4z"/>
	<path id="XMLID_56_" class="st6" d="M287.84,412.12h-19.08c-9.68,0-17.53-8.14-17.53-17.96v3.37c0,9.96,7.86,18.1,17.53,18.1h19.08
		c9.68,0,17.53-8,17.53-17.81v-3.37C305.38,404.13,297.52,412.12,287.84,412.12z"/>
	<path id="XMLID_57_" class="st6" d="M287.84,371.87h-19.08c-3.65,0-6.73,3.09-6.73,6.73v3.37c0-3.65,3.09-6.73,6.73-6.73h19.08
		c3.65,0,6.73,3.09,6.73,6.73v-3.37C294.58,374.95,291.49,371.87,287.84,371.87z"/>
	<path id="XMLID_58_" class="st6" d="M326,374.53v3.37c0-1.4,1.26-2.67,2.67-2.67h32.82v-3.37h-32.82
		C327.26,371.87,326,373.13,326,374.53z"/>
	<rect id="XMLID_59_" x="326" y="392.07" class="st6" width="33.39" height="3.37"/>
	<rect id="XMLID_60_" x="315.06" y="412.12" class="st6" width="10.94" height="3.37"/>
	<rect id="XMLID_61_" x="370.6" y="412.12" class="st6" width="10.94" height="3.37"/>
	<path id="XMLID_62_" class="st6" d="M381.55,374.53v3.37c0-1.4,1.26-2.67,2.67-2.67h32.82v-3.37h-32.82
		C382.81,371.87,381.55,373.13,381.55,374.53z"/>
	<rect id="XMLID_63_" x="381.55" y="392.07" class="st6" width="33.39" height="3.37"/>
	<path id="XMLID_64_" class="st6" d="M462.2,396.41c0-0.42,0-1.68-2.67-2.1l-23.71-4.63c-6.59-1.26-11.22-6.17-11.5-12.2
		c0,0.28,0,0.42,0,0.7v1.96c0,6.31,4.63,11.5,11.5,12.91l23.71,4.63c1.68,0.28,2.38,0.98,2.52,1.54c0.14-0.28,0.14-0.56,0.14-0.84
		V396.41L462.2,396.41z"/>
	<path id="XMLID_65_" class="st6" d="M459.26,412.12h-32.96v3.37h32.96c7.72,0,13.75-6.03,13.75-13.75v-1.96c0-0.28,0-0.56,0-0.7
		C472.72,406.51,466.83,412.12,459.26,412.12z"/>
	<path id="XMLID_66_" class="st6" d="M435.13,374.81v1.96c0,0.28,0,0.42,0.14,0.7c0.42-1.12,1.4-2.1,2.67-2.1h33.1v-3.37h-33.1
		C436.53,371.87,435.13,373.27,435.13,374.81z"/>
	<path id="XMLID_69_" d="M72.66,361.07H39v3.37v47.69h10.94v-12.76v-3.37h22.72c7.43,0,13.61-6.03,13.61-13.47v-4.49v-3.37
		C86.27,367.24,80.1,361.07,72.66,361.07z M75.33,378.04v4.49c0,1.4-1.26,2.67-2.67,2.67H49.94v-9.82v-3.37h22.72
		c1.4,0,2.67,1.26,2.67,2.67C75.33,374.67,75.33,378.04,75.33,378.04z"/>
	<path id="XMLID_70_" d="M107.17,400.76v-36.33v-3.37H96.23v3.37v36.19c0,6.45,5.05,11.5,11.5,11.5h27.91v-7.43v-3.37h-27.91
		C107.31,401.32,107.17,401.04,107.17,400.76z"/>
	<path id="XMLID_73_" d="M198.07,410.86c-10.66-27.07-14.45-36.61-15.85-40.12c-0.56-1.4-0.7-1.82-0.84-2.24
		c-1.12-2.52-3.37-7.43-9.4-7.43h-3.79c-6.03,0-8.28,4.77-9.54,7.72c0,0.14-0.14,0.56-0.84,2.1c-1.4,3.65-5.33,13.47-15.71,39.84
		l-0.56,1.26h1.4h10.38l4.35-11.08h24.83l4.35,11.08h10.52h1.4L198.07,410.86z M176.89,390.38h-13.75h-1.4l6.87-17.25
		c0.28-0.7,0.42-1.12,0.56-1.26h1.54c0,0,0.14,0.28,0.56,1.26l6.87,17.25H176.89z"/>
	<path id="XMLID_74_" d="M237.2,361.07l-15.57,22.02l-0.42,0.56c-0.98,1.4-0.98,1.4-1.68,1.4s-0.7,0-1.68-1.54l-15.85-22.58h-13.19
		l2.38,3.37l17.53,24.97c1.54,2.52,3.37,4.49,5.19,5.47v3.37v13.89h11.22V398.1v-3.37c1.82-0.98,3.65-2.81,5.19-5.33l17.53-24.97
		l2.38-3.37H237.2L237.2,361.07z"/>
	<path id="XMLID_77_" d="M287.84,361.07h-19.08c-9.68,0-17.53,8-17.53,17.81v3.37v11.78c0,9.96,7.86,17.96,17.53,17.96h19.08
		c9.68,0,17.53-8,17.53-17.81v-11.92v-3.37C305.38,369.06,297.52,361.07,287.84,361.07z M294.58,382.11v12.62
		c0,3.51-3.09,6.59-6.73,6.59h-19.08c-3.65,0-6.73-3.23-6.73-6.87v-12.2v-3.37c0-3.65,3.09-6.73,6.73-6.73h19.08
		c3.65,0,6.73,3.09,6.73,6.73V382.11z"/>
	<path id="XMLID_78_" d="M315.06,374.67v3.37v34.09H326v-16.69v-3.37h33.39v-7.43v-3.37H326v-3.23v-3.37c0-1.4,1.26-2.67,2.67-2.67
		h32.82v-7.43v-3.37h-32.82C321.09,361.07,315.06,367.24,315.06,374.67z"/>
	<path id="XMLID_79_" d="M370.6,374.67v3.37v34.09h10.94v-16.69v-3.37h33.39v-7.43v-3.37h-33.39v-3.23v-3.37
		c0-1.4,1.26-2.67,2.67-2.67h32.82v-7.43v-3.37h-32.82C376.78,361.07,370.6,367.24,370.6,374.67z"/>
	<path id="XMLID_80_" d="M473.14,396.41c0-6.31-4.63-11.5-11.5-12.91l-23.57-4.63c-0.98-0.14-2.24-0.56-2.67-1.54
		c-0.14-0.14-0.14-0.42-0.14-0.7v-1.96c0-1.54,1.26-2.81,2.81-2.81h33.1v-7.43v-3.37h-33.1c-7.57,0-13.75,6.17-13.75,13.61v1.96
		c0,0.28,0,0.56,0,0.7c0.28,6.03,4.91,10.94,11.5,12.2l23.71,4.63c2.67,0.56,2.67,1.68,2.67,2.1v1.96c0,0.28,0,0.56-0.14,0.84
		c-0.42,1.12-1.4,2.1-2.81,2.1h-32.96v3.37v7.43h32.96c7.43,0,13.47-5.61,13.75-13.05c0-0.28,0-0.42,0-0.7L473.14,396.41
		L473.14,396.41z"/>
</g>
</svg>
