<?xml version="1.0" encoding="utf-8"?>
<!-- Generator: Adobe Illustrator 24.1.0, SVG Export Plug-In . SVG Version: 6.00 Build 0)  -->
<svg version="1.1" id="Layer_1" xmlns="http://www.w3.org/2000/svg" xmlns:xlink="http://www.w3.org/1999/xlink" x="0px" y="0px"
	 viewBox="0 0 205 100" style="enable-background:new 0 0 205 100;" xml:space="preserve">
<g>
	<path d="M203.9,63.9c-0.3-0.4-1.1,0.3-1.8,0.8c-1.9,1.8-5.5,4.8-8.5,6.7c-5.1,3.3-9.8,4.8-12.8,4.7c-2,0-3.2-1-3.2-3.1
		c0-0.9,0.4-1.8,0.8-2.7c3.2-0.8,8.8-2.3,12.8-4.2c4.1-2,8.5-4.7,8.8-8.3c0.1-1.8-1.5-3.8-5.2-3.8h-0.1c-4.4,0-9.2,1.6-13.9,4.1
		c-2.6,1.3-5.3,3.3-6.6,4.1c-0.9,0.7-1.8,1.3-2.5,1.9c-0.3,0.2-0.4,0.4-0.7,0.6c-1.4,1.3-5.5,4.8-8.5,6.7c-5.1,3.3-9.8,4.8-12.8,4.7
		c-2,0-3.2-1-3.2-3.1c0-0.9,0.4-1.8,0.8-2.7c3.2-0.8,8.8-2.3,12.8-4.2c4.1-2,8.5-4.7,8.8-8.3c0.1-1.8-1.5-3.8-5.2-3.8h-0.1
		c-4.4,0-9.2,1.6-13.9,4.1c-2.6,1.3-5.2,3.1-6.6,4.1c-0.9,0.7-1.7,1.3-2.6,2c-0.2,0.2-0.4,0.3-0.6,0.5c-1.7,1.5-4.2,3.8-6.6,5.6
		c-2,1.6-4.5,3.2-6,4c-1.2,0.5-2.6,0.9-3.2,0.4c-0.6-0.5-0.5-1.4,0.4-3c0.7-1.3,2.1-3.1,4.2-5.6c2.2-2.7,4.9-5.8,5.1-8.2
		c0.3-2.5-1.4-3.9-4.9-3.9c-5.2,0-11.3,4-15.9,7.5c-4.6,3.5-8.2,6.6-11.8,9.5l-0.3-0.2c4.3-6.2,9.1-13.1,11.6-16.1
		c6.6-5.8,19-14.2,27.4-20.7c13.2-10.3,25.6-21.1,26.5-28.6c0.4-2.6-0.9-4.8-4.2-4.8c-3.9,0-8.9,2.9-12.7,5.5
		c-7.7,5.4-22.4,19.5-32.2,31c-5.8,6.8-11.4,14-16,20c-2.9,2.5-5.6,4.9-8,7c-0.5,0.4-1,1-1.4,1.3c-1.7,1.4-4.7,4.1-7.4,5.6
		c-2.7,1.3-5.7,2.3-7.8,2.4c7.7-12.5,16.8-26.3,25.1-37.9c3.1-4.4,7.9-10.2,11-12.7c1.1-0.8,2.8-1.5,4.3-1.5c0.9,0,2.3,0.4,3,0.8
		c0.8,0.7,1.2,1.1,1.4,0.9c0.4-0.3-0.1-1.2-0.9-1.9c-0.8-0.5-2.4-1.5-6.2-1.5c-5.3,0-11.9,2.4-17,5.1c-6.7,3.7-13.8,9.7-20.9,16.2
		c-1.5,1.5-3.6,3.4-5.6,5.4c-2.4-5-7.5-10.2-15-10.2c-9.8,0-16.1,6.6-16.2,14.7c-0.1,6.9,4.7,12.8,8,15.5
		c-7.4,5.1-17,10.5-27.5,11.4c-8.6,0.7-12.8-1.6-12.8-4.4c0-1.5,1.1-2.4,2.3-3.4c1.9-1.3,3.1-2.5,3.2-4.4c0.1-2.7-2-4.7-5.4-4.5
		c-3.5,0.1-7.4,3.4-7.4,8.6v0.1c0,7.4,9.1,10.6,19.6,9.8c12.7-0.9,24.2-8.5,29.2-12.1c2,1.6,5.5,3.5,8.1,4.5
		c2.4,0.8,6.6,2.1,9.2,2.3c-0.4,0.5-0.7,1.2-1.1,2c-0.5,0.8-0.8,2.5,3.1,1.9c3.8-0.5,5.6-1.3,7.5-3.5c2.7-0.1,6-1.2,8.8-2.7
		c3.4-1.8,6-4.1,7.9-5.9c0.1-0.1,3.8-3.5,5.9-5.4V61c-1.4,1.8-2.9,3.7-4.2,5.7c-2.4,3.3-4.4,6.6-5.6,9c-1,1.9,0,2.2,2.9,2.2
		c1.5-0.1,3.6-0.5,4.6-1.3c5.8-4.6,9.2-7.5,15.1-12.2c4.1-3.4,7.9-5.7,10.3-6.9c0.9-0.4,2.7-1.1,3.4-0.7c0.6,0.3,0.6,1.1,0,1.8
		c-1.7,1.9-3.6,4.2-5.6,6.6c-2,2.6-4.9,6-5.3,8.6c-0.3,2.2,1,4.4,5.4,4.4c5,0,9.7-3.3,12.5-5.5c2.5-1.8,5.3-4.3,7.1-5.9
		c0,0,0.1-0.1,0.1-0.1c0,0,0.1-0.1,0.1-0.1c0.3-0.3,0.6-0.6,0.9-0.8c0,0,0,0,0.1,0h0.1c-1.8,2.2-3,4.6-3.1,7.1
		c0,3.4,2.5,5.8,9.2,5.7c4.8-0.2,10.9-2.1,16.6-5.9c3.4-2.3,6.6-5.1,8.4-7h0.1c-1.8,2.2-3,4.6-3.1,7.1c0,3.4,2.5,5.8,9.2,5.7
		c4.8-0.2,10.9-2.1,16.6-5.9c3.5-2.3,6.7-5.1,8.5-7C203.3,65.2,204.4,64.3,203.9,63.9z M179.3,68.8c1.5-2.6,4.5-6.5,6.7-8.7
		c3.3-3.3,5.5-4.5,6.8-4.5c1.2,0,1.7,0.6,1.5,1.8c-0.2,1.8-2.3,4.9-5.8,7.4c-3.2,2.2-6.8,3.6-9.3,4.2L179.3,68.8L179.3,68.8z
		 M148.1,68.8c1.5-2.6,4.5-6.5,6.7-8.7c3.3-3.3,5.5-4.5,6.8-4.5c1.2,0,1.7,0.6,1.5,1.8c-0.2,1.8-2.3,4.9-5.8,7.4
		c-3.2,2.2-6.8,3.6-9.3,4.2L148.1,68.8L148.1,68.8z M114.6,51.3c7.3-9.6,9.8-12.8,19.7-24.5c7-8.4,12.8-14.8,17.4-19.3
		c2.8-2.7,6.7-5.4,8.9-5.4c1.6,0,2.4,0.9,2.2,2.6c-0.5,5.7-12,16.6-25,27.9c-6.1,5.3-13.6,10.5-23.2,18.8V51.3z M46,51.2
		c0.3-6.3,4-12.4,11-12.4h0.1c5.5,0,10,3.7,12.7,8.7c-3.1,2.9-6.3,5.8-9.7,8.8c-3.5,3.1-7.1,6-9.8,8.3C48.3,62,45.8,56.8,46,51.2z
		 M70.8,67.1c-0.5,0.9-2.6,4-3.7,5.9c-2.4-0.4-6.6-1.6-8.8-2.6c-2.6-1.2-5.7-3.1-7-4.6v-0.1c3-2.5,6.2-5.1,9.6-8.3
		c3.1-2.7,6.2-5.5,9.4-8.5c0.7,2,1.3,4.8,1.5,7.6C72.2,60.6,71.7,65.2,70.8,67.1z M73,64.2h-0.1c0.6-2.4,0.8-5.4,0.7-8.3
		c-0.2-3-0.9-6.1-1.8-8.1c2.2-2.3,5.6-5.5,8.4-8.2c5.2-4.7,11.7-10.2,18.1-13.7c4.7-2.6,10.9-4.8,15.5-4.9v0.1
		c-7,2.6-15.6,8.5-24.4,19.7C84.5,46.8,76.9,57.9,73,64.2z"/>
	<rect x="27.9" y="95.5" width="147.1" height="1.5"/>
</g>
</svg>
