<svg version="1.2" xmlns="http://www.w3.org/2000/svg" viewBox="0 0 1524 676" width="1524" height="676">
	<title>alta-svg</title>
	<style>
		.s0 { fill: #09347a } 
		.s1 { fill: #c4112f } 
	</style>
	<g id="Layer">
		<path id="Layer" class="s0" d="m1152.1 547.8c0.8 0.8 0.8 2.3 0.8 3.8 0 1.6 0 2.3-0.8 3.9q-0.2 0.5-0.5 0.9-0.3 0.5-0.7 0.9-0.4 0.4-0.8 0.7-0.5 0.3-1 0.5c-1.5 0.8-3.1 0.8-4.6 0.8h-10.6v-16.1h10.6c1.5 0 3.1 0 4.6 0.8 1.5 0.8 2.3 2.3 3 3.8zm-784.1 3.1c0.8 2.3 0.8 6.8 0.8 13.7 0 3.8-0.8 7.6-0.8 11.5l-3.8-3.9-9.9 10 5.4 5.3h-1.6c-3 0-6.1-1.5-7.6-3.8-0.7-0.8-0.7-1.5-1.5-3.1 0-0.7-0.8-3-0.8-5.3v-21.4c0-2.3 0-3.8 0.8-5.3 0-1.5 0.8-2.3 1.5-3.1 0.8-0.7 1.5-1.5 3.1-2.3 1.5-0.7 3-0.7 4.5-0.7 1.6 0 3.1 0 4.6 0.7q0.4 0.3 0.8 0.5 0.5 0.3 0.8 0.5 0.4 0.3 0.8 0.7 0.3 0.3 0.7 0.6c0.7 1.6 1.5 3.8 2.2 5.4zm868 0c0.7 2.3 0.7 6.8 0.7 13.7 0 6.9 0 11.5-0.7 13.7-0.8 2.3-1.6 3.9-2.3 5.4q-0.7 0.9-1.5 1.6-0.9 0.7-1.9 1.2-1 0.5-2 0.8-1.1 0.2-2.2 0.2c-3.1 0-6.1-1.5-7.7-3.8-0.7-0.8-0.7-1.5-1.5-3.1 0-0.7-0.7-3-0.7-5.3v-21.4c0-2.3 0-3.8 0.7-5.3 0-1.5 0.8-2.3 1.5-3.1 0.8-0.7 1.6-1.5 3.1-2.3 1.5-0.7 3-0.7 4.6-0.7 1.5 0 3 0 4.5 0.7 1.6 0.8 2.3 1.6 3.1 2.3 0.7 1.6 1.5 3.8 2.3 5.4zm-652.3-3.1c0.8 0.8 0.8 2.3 0.8 3.8 0 1.6 0 2.3-0.8 3.9q-0.2 0.5-0.5 0.9-0.4 0.5-0.7 0.9-0.4 0.4-0.9 0.7-0.5 0.3-1 0.5c-1.5 0.8-3 0.8-4.5 0.8h-10.7v-16.1h10.7c1.5 0 3 0 4.5 0.8 1.6 0.8 2.3 2.3 3.1 3.8z"/>
		<path id="Layer" fill-rule="evenodd" class="s0" d="m1524 454v222h-1524l190.5-222zm-1218.4 71.7h-53.4v79.3h53.4v-17.5h-34.3v-13.7h28.9v-17.6h-28.9v-13h34.3c0 0 0-17.5 0-17.5zm85.3 74l-6.1-6.1c1.5-2.3 2.3-4.6 3.1-7.6 0.7-3.1 1.5-5.4 1.5-8.4v-13c0-4.6-0.8-8.4-0.8-11.4-0.7-3.1-0.7-6.1-2.3-9.2-1.5-3.1-3-6.1-5.3-8.4-3-3-6.1-5.3-9.9-6.9-3.1-1.5-7.6-2.2-12.2-2.2-4.6 0-8.4 0.7-12.2 2.2-3.8 1.6-6.8 3.9-9.9 6.9-3.8 3.8-6.1 7.6-6.9 12.2-0.7 4.6-1.5 9.9-1.5 16.8v4.6q0 2.1 0.1 4.2 0.1 2.1 0.3 4.2 0.2 2.1 0.5 4.2 0.3 2.1 0.6 4.2c1.6 3.8 3.1 7.6 6.9 11.4 1.5 1.5 3.8 3.1 6.1 4.6 1.5 1.5 4.6 2.3 6.9 3 2.2 0.8 5.3 0.8 8.3 0.8 6.1 0 11.5-1.5 15.3-3.8l6.1 6.1zm81.5-74h-19.8v51.1q0 0.8-0.1 1.6-0.1 0.8-0.3 1.5-0.2 0.8-0.5 1.6-0.3 0.7-0.6 1.4-0.3 0.6-0.8 1.2-0.4 0.5-0.8 1-0.5 0.5-1.1 0.9-0.5 0.4-1.1 0.7c-1.6 0.8-3.1 1.5-5.4 1.5-3 0-6.1-0.7-7.6-3-2.3-2.3-3-4.6-3-8.4v-51.1h-19.1v51.1c0 6.1 1.5 10.7 3.8 15.3 2.3 4.5 6.1 7.6 10.7 9.9q1.8 0.9 3.6 1.6 1.9 0.7 3.8 1.2 1.9 0.5 3.9 0.7 1.9 0.3 3.9 0.3 5.7 0 11.5-2.3c3.8-1.5 6.8-3.8 9.9-6.1q4.5-3.4 6.8-9.2 2.3-5.7 2.3-11.4zm45.7 0h-19v79.4h19c0 0 0-79.4 0-79.4zm86.1 25.2c0-3.8-0.7-8.4-3-12.2q-3.4-5.7-9.2-9.2c-3.8-2.3-9.1-3.8-14.4-3.8h-31.3v79.4h19.1v-28.3h12.2c5.3 0 10.6-1.5 14.4-3.8q1.4-0.8 2.7-1.8 1.3-1 2.5-2.2 1.1-1.1 2.1-2.4 1.1-1.3 1.9-2.7c2.3-3.9 3-8.4 3-13zm96.8-25.2h-19l-17.6 35.1-17.5-35.1h-19v79.4h19v-38.2l11.4 19.9h12.2l11.5-19.9v38.2h19c0 0 0-79.4 0-79.4zm81.5 0h-53.3v79.4h53.3v-17.6h-34.2v-13.7h28.9v-17.6h-28.9v-12.9h34.2c0 0 0-17.6 0-17.6zm87.7 0h-19.1v39.7l-25.1-39.7h-16.8v79.4h19.1v-39.7l25.1 39.7h16.8c0 0 0-79.4 0-79.4zm79.2 0h-57.9v17.6h19.8v61.8h19.1v-61.8h15.2c0 0 3.8-17.6 3.8-17.6zm141 44.3v-10.7h-30.5v16h10.7v0.8c0 1.5 0 3-0.8 4.5-0.7 1.6-1.5 3.1-2.3 3.9q-0.3 0.3-0.6 0.6-0.4 0.4-0.8 0.6-0.4 0.3-0.8 0.6-0.4 0.2-0.8 0.4c-0.8 0.8-2.3 0.8-4.6 0.8-3 0-6.1-0.8-7.6-3-0.8-0.8-0.8-1.6-1.5-3.1 0-0.8-0.8-3.1-0.8-5.3v-21.4c0-2.3 0-3.8 0.8-5.3 0-1.6 0.7-2.3 1.5-3.1q0.7-0.9 1.5-1.6 0.9-0.7 1.8-1.2 1-0.5 2.1-0.8 1.1-0.2 2.2-0.2 0.8 0 1.6 0.1 0.8 0.1 1.5 0.3 0.8 0.2 1.6 0.5 0.7 0.3 1.4 0.6c1.5 0.8 3.1 2.3 5.3 4.6l13-13c-3.8-3.8-6.9-6.1-10.7-7.6q-5.7-2.3-13.7-2.3c-4.6 0-8.4 0.8-12.2 2.3-3.8 1.5-6.8 3.8-9.9 6.9-3.8 3.8-6.1 7.6-6.8 12.2-0.8 4.6-1.6 9.9-1.6 16.8v4.5q0 2.1 0.1 4.2 0.1 2.2 0.3 4.3 0.2 2.1 0.5 4.2 0.3 2 0.7 4.1c1.5 3.8 3 7.7 6.8 11.5 6.1 6.1 13 9.1 22.1 9.1q3.1 0 6.1-0.5 3-0.6 5.9-1.8 2.8-1.2 5.4-2.9 2.6-1.7 4.7-3.9c3.1-3.1 5.3-6.9 6.1-10.7 0.8-3.8 1.5-9.2 1.5-16 0 0 0.8 0 0.8 0zm64 34.3h22.1l-16.8-32.8c3.8-1.5 6.9-3.8 9.2-7.6 2.3-3.9 3.8-8.4 3.8-13 0-3.8-0.8-8.4-3.1-12.2q-3.4-5.7-9.1-9.2c-3.8-2.3-9.1-3.8-14.5-3.8h-31.2v79.3h19v-29.7h6.9l13.7 29.8zm102.1-38.9v-0.8c0-4.6-0.8-8.4-0.8-11.5-0.7-3-0.7-6.1-2.2-9.1-1.6-3.1-3.1-6.1-5.4-8.4-3-3.1-6.1-5.4-9.9-6.9-3-1.5-7.6-2.3-12.2-2.3-4.5 0-8.4 0.8-12.2 2.3-3.8 1.5-6.8 3.8-9.9 6.9-3.8 3.8-6.1 7.6-6.8 12.2-0.8 4.6-1.6 9.9-1.6 16.8v4.6q0.1 2.1 0.2 4.2 0.1 2.1 0.2 4.2 0.2 2.1 0.5 4.2 0.3 2.1 0.7 4.1c1.5 3.9 3 7.7 6.8 11.5 1.6 1.5 3.8 3 6.1 4.6 1.5 1.5 4.6 2.3 6.9 3 2.3 0.8 5.3 0.8 8.4 0.8 4.5 0 8.3-0.8 12.2-2.3 3.8-1.5 6.8-3.8 9.9-6.9q0.7-1 1.4-2 0.8-1 1.4-2 0.7-1.1 1.3-2.2 0.6-1.1 1.2-2.2 2.3-4.5 2.3-9.1c0.7-3.1 0.7-6.9 0.7-11.5v-2.3c0 0.1 0.8 0.1 0.8 0.1zm82.3 11.4v-51.1h-19v51.1q-0.1 0.8-0.2 1.6-0.1 0.8-0.3 1.5-0.2 0.8-0.4 1.5-0.3 0.8-0.7 1.5-0.3 0.6-0.7 1.2-0.4 0.5-0.9 1-0.5 0.5-1 0.9-0.6 0.4-1.2 0.7c-1.5 0.8-3 1.5-5.3 1.5-3.1 0-6.1-0.7-7.6-3-2.3-2.3-3.1-4.6-3.1-8.4v-51.1h-19v51.1c0 6.1 1.5 10.7 3.8 15.3 2.3 4.5 6.1 7.6 10.6 9.9q1.8 0.9 3.7 1.6 1.8 0.7 3.7 1.2 2 0.4 3.9 0.7 2 0.2 4 0.3 5.7 0 11.4-2.3c3.8-1.5 6.9-3.8 9.9-6.1q4.6-3.4 6.9-9.2 2.3-5.7 2.3-11.4zm86.1-26c0-3.8-0.8-8.4-3.1-12.2q-3.4-5.7-9.1-9.1c-3.8-2.3-9.2-3.8-14.5-3.8h-31.2v79.3h19v-28.2h12.2c5.3 0 10.7-1.5 14.5-3.8q1.4-0.9 2.7-1.9 1.3-1 2.4-2.1 1.2-1.2 2.2-2.5 1-1.3 1.8-2.7c2.3-3.8 3.1-8.4 3.1-13z"/>
		<path id="Layer" class="s0" d="m1404.4 547.8c0.7 0.8 0.7 2.3 0.7 3.8 0 1.6 0 2.3-0.7 3.9q-0.3 0.5-0.6 0.9-0.3 0.5-0.7 0.9-0.4 0.4-0.8 0.7-0.5 0.3-1 0.5c-1.5 0.8-3 0.8-4.6 0.8h-10.6v-16.1h10.6c1.6 0 3.1 0 4.6 0.8 1.5 0.8 2.3 2.3 3.1 3.8z"/>
	</g>
	<g id="Layer">
		<path id="Layer" class="s1" d="m1258.1 71.7h-154.7v310.5h-74.7v-310.5h-163.1v-71.7h454.9z"/>
		<path id="Layer" class="s1" d="m1011.9 309.8l-65.5 72.4h-243.1v-382.2h74.7v309.8zm-413.8 72.4v-72.4h-141.7l55.6-64.9h86.1v-157.9l-252.9 295.2h-93.8l327.7-382.2h93l0.7 382.2zm851.9 0v-72.4h-142.5l55.7-64.9h86.8v-157.9l-253 295.2h-93.7l326.9-382.2h93.7v382.2z"/>
	</g>
</svg>