<?xml version="1.0" encoding="UTF-8"?>
<svg version="1.1" viewBox="0 0 165.42 43.33427" xml:space="preserve" xmlns="http://www.w3.org/2000/svg" xmlns:cc="http://creativecommons.org/ns#" xmlns:dc="http://purl.org/dc/elements/1.1/" xmlns:rdf="http://www.w3.org/1999/02/22-rdf-syntax-ns#"><metadata><rdf:RDF><cc:Work rdf:about=""><dc:format>image/svg+xml</dc:format><dc:type rdf:resource="http://purl.org/dc/dcmitype/StillImage"/><dc:title/></cc:Work></rdf:RDF></metadata><defs><clipPath id="a"><path d="M 0,32.501 H 124.065 V 0 H 0 Z"/></clipPath></defs><g transform="matrix(1.333333 0 0 -1.333333 0 43.33427)"><g clip-path="url(#a)"><g transform="translate(53.9404 .9448)"><path d="m0 0c13.214 5.896 23.636 9.954 42.729 14.185 0.461 0.134 0.567 0.271 0.591 0.637-0.014 0.346-0.146 0.505-0.598 0.636-12.985 3.005-21.665 6.013-32.729 11.014-0.233 0.105-0.346 0.379-0.25 0.62 0.097 0.241 0.364 0.365 0.611 0.281 11.683-4.023 22.124-6.806 34.77-8.562 1.61-0.224 3.008-0.323 4.247-0.323 3.416 3e-3 5.61 0.754 7.848 1.877 2.545 1.28 5.773 3.771 8.75 6.614 0.177 0.17 0.461 0.18 0.647 0.022 0.191-0.161 0.229-0.438 0.09-0.644-2.569-3.803-5.577-6.733-8.477-9.524-2e-3 -4e-3 -9e-3 -8e-3 -0.013-0.013-0.954-0.938-1.126-1.609-1.139-2.235v-0.059c0.013-0.925 0.694-1.664 1.514-2.405 3.308-3.022 6.736-6.394 10.259-11.014 0.156-0.203 0.127-0.493-0.069-0.66-0.193-0.169-0.486-0.156-0.661 0.027-4.396 4.46-8.226 6.698-12.386 8.029-2.465 0.788-5.651 1.172-8.877 1.17-1.983 0-3.989-0.144-5.851-0.423-13.238-1.976-26.727-5.839-40.584-10.194h69.703v32.472h-70.125z"/></g><g transform="translate(15.1835,32.4893)"><path d="m0 0c-0.238 0-0.434-0.197-0.434-0.434v-22.441c0-0.239 0.196-0.431 0.434-0.431h6.63c0.236 0 0.432 0.192 0.432 0.431v1.387c0 0.238-0.196 0.433-0.432 0.433h-2.498c-0.236 0-0.43 0.193-0.43 0.432v20.189c0 0.237-0.191 0.434-0.431 0.434z"/></g><g transform="translate(21.8027,32.4893)"><path d="m0 0c-0.239 0-0.435-0.197-0.435-0.434v-1.172c0-0.237 0.196-0.431 0.435-0.431h2.185c0.239 0 0.428-0.193 0.428-0.433v-20.405c0-0.239 0.198-0.431 0.435-0.431h3.161c0.238 0 0.432 0.192 0.432 0.431v20.405c0 0.24 0.191 0.433 0.427 0.433h2.208c0.238 0 0.431 0.194 0.431 0.431v1.172c0 0.237-0.193 0.434-0.431 0.434z"/></g><g transform="translate(33.7187,32.4893)"><path d="m0 0c-0.239 0-0.435-0.197-0.435-0.434v-22.441c0-0.239 0.196-0.431 0.435-0.431h7.007c0.236 0 0.431 0.192 0.431 0.431v1.385c0 0.24-0.195 0.435-0.431 0.435h-2.862c-0.241 0-0.431 0.192-0.431 0.43v7.512c0 0.239 0.19 0.434 0.431 0.434h2.485c0.237 0 0.431 0.193 0.431 0.431v1.172c0 0.239-0.194 0.432-0.431 0.432h-2.505c-0.239 0-0.433 0.194-0.433 0.433v7.741c0 0.24 0.194 0.433 0.433 0.433h2.882c0.236 0 0.431 0.194 0.431 0.431v1.172c0 0.237-0.195 0.434-0.431 0.434z"/></g><g transform="translate(45.3398,9.1802)"><path d="m0 0c1.015 0 5.926 3e-3 5.926 3e-3 0.238 0 0.43 0.192 0.43 0.431v1.433c0 0.237-0.192 0.432-0.43 0.432h-2.989c-0.239 0-0.432 0.191-0.432 0.43v18.11c0 0.241 0.193 0.433 0.432 0.433h2.989c0.238 0 0.43 0.194 0.43 0.431v1.173c0 0.237-0.192 0.434-0.43 0.434 0 0-4.911-6e-3 -5.924-6e-3 -0.961 0-1.742-0.783-1.742-1.745 0-0.656 2e-3 -19.12 2e-3 -19.814 0-0.964 0.779-1.745 1.738-1.745"/></g><g transform="translate(5.0283,15.8037)"><path d="m0 0h1.842c0.125 0 0.241 0.055 0.32 0.147 0.083 0.092 0.118 0.216 0.107 0.339l-1.028 9.745c0.011 0.085-0.07 0.31-0.285 0.313-0.213 4e-3 -0.253-0.194-0.285-0.298l-1.106-9.74c-0.016-0.125 0.022-0.255 0.105-0.35 0.08-0.097 0.205-0.156 0.33-0.156m-1.235-6.244c-0.028-0.217-0.208-0.389-0.427-0.389h-2.909c-0.13 0-0.25 0.045-0.331 0.141-0.085 0.096-0.12 0.223-0.102 0.349l3.608 22.481c0.038 0.201 0.22 0.352 0.423 0.352l4.552 7e-3c0.211-1e-3 0.39-0.155 0.425-0.364l3.256-22.476c0.016-0.126-0.019-0.253-0.099-0.349-0.088-0.096-0.203-0.141-0.328-0.141h-3.337c-0.217 0-0.396 0.172-0.422 0.389l-0.401 3.819c-0.029 0.217-0.213 0.383-0.43 0.383h-2.6c-0.212 0-0.391-0.166-0.427-0.372z"/></g><g transform="translate(0 .1323)"><path d="m0 0v5.966h0.742v-5.303h2.774v-0.663z"/></g><g transform="translate(9.4404,5.3393)"><path d="m0 0-1.26-3.222h2.531zm2.015-5.207-0.532 1.333h-2.967l-0.529-1.333h-0.848l2.405 5.967h0.922l2.396-5.967z"/></g><g transform="translate(19.9902 .1323)"><path d="m0 0-3.479 4.76v-4.76h-0.743v5.966h0.763l3.435-4.659v4.659h0.739v-5.966z"/></g><g transform="translate(24.4296 .9731)"><path d="m0 0 0.448 0.572c0.388-0.447 1.03-0.858 1.87-0.858 1.066 0 1.405 0.571 1.405 1.039 0 1.538-3.535 0.679-3.535 2.808 0 0.983 0.879 1.663 2.057 1.663 0.905 0 1.611-0.314 2.113-0.84l-0.451-0.548c-0.443 0.503-1.069 0.718-1.723 0.718-0.706 0-1.225-0.386-1.225-0.95 0-1.34 3.534-0.573 3.534-2.798 0-0.861-0.593-1.753-2.2-1.753-1.028 0-1.8 0.392-2.293 0.947"/></g><path d="m32.719 6.099h0.742v-5.967h-0.742z"/><g transform="translate(41.7636 .1323)"><path d="m0 0-3.48 4.76v-4.76h-0.743v5.966h0.762l3.436-4.659v4.659h0.741v-5.966z"/></g><g transform="translate(46.3222,3.1128)"><path d="m0 0c0 1.858 1.367 3.085 3.067 3.085 1.063 0 1.799-0.466 2.317-1.109l-0.591-0.377c-0.375 0.484-1.01 0.825-1.726 0.825-1.305 0-2.297-0.993-2.297-2.424 0-1.415 0.992-2.427 2.297-2.427 0.716 0 1.306 0.342 1.611 0.646v1.207h-2.06v0.662h2.791v-2.147c-0.554-0.627-1.366-1.039-2.342-1.039-1.7 0-3.067 1.244-3.067 3.098"/></g></g></g></svg>
