<svg xmlns="http://www.w3.org/2000/svg" width="324" height="115" viewBox="0 0 324 115" fill="none"><path d="M37.2153 58.8855L36.6655 58.7343C36.4306 59.0968 36.2079 59.3283 35.9176 59.6245L34.7919 59.6369L34.7965 58.3886L35.3386 58.438C35.3877 58.583 35.4231 58.7466 35.4538 58.9163H35.9959L36.0266 57.432H35.4476C35.4169 57.5771 35.3801 57.7221 35.3371 57.844L34.7949 57.8502L34.8011 56.7408L35.827 56.7285C36.0789 56.9645 36.3154 57.2561 36.5503 57.5894L37.1002 57.432L36.8222 56.0928H33.0349V56.693C33.1977 56.7177 33.3974 56.7717 33.5356 56.8087L33.5479 59.589C33.4035 59.6615 33.2469 59.7048 33.0349 59.7418V60.2201H36.9235L37.2138 58.887L37.2153 58.8855Z" fill="#005A9C"></path><path d="M39.5176 59.7388C39.318 59.7033 39.1076 59.6416 38.9617 59.5567L38.9141 56.9091L40.7708 60.2171H42.1085L42.1746 56.8072C42.2959 56.764 42.4817 56.7162 42.6092 56.6915V56.0913H40.9382V56.6915C41.1732 56.7162 41.3299 56.7517 41.4681 56.8134L41.4927 58.9642L39.9 56.0928H37.7407V56.693C37.9204 56.7177 38.1385 56.7656 38.2967 56.8088L38.2537 59.5891C38.1093 59.6616 37.9527 59.7048 37.7407 59.7419V60.2202H39.513V59.7419L39.5176 59.7388Z" fill="#005A9C"></path><path d="M45.2643 60.2898C45.7343 60.2898 46.1812 60.1879 46.5237 59.9997L47.2363 59.9935V58.878C47.3208 58.824 47.4237 58.7808 47.5742 58.7561V58.1868H45.464L45.421 58.7561C45.6498 58.7808 45.8372 58.8348 45.9938 58.878L46.0292 59.5631C45.8126 59.6063 45.5408 59.6294 45.1722 59.6294C44.6777 59.6294 44.5272 59.4844 44.5272 57.9939C44.5272 56.8537 44.7207 56.7519 45.1184 56.7519C45.3841 56.7519 45.8418 56.8182 46.1136 56.9154C46.2872 57.1453 46.4699 57.3767 46.6143 57.619L47.1641 57.4616L46.8861 56.093H46.3916L46.3363 56.2627C46.1305 56.1362 45.7389 56.0205 45.335 56.0205C44.2139 56.0205 43.1572 56.8737 43.1572 58.2439C43.1572 59.4797 44.2123 60.2913 45.2628 60.2913L45.2643 60.2898Z" fill="#005A9C"></path><path d="M50.5783 59.7388C50.3663 59.7034 50.1621 59.6602 50.0423 59.5861L50.053 56.8058C50.1636 56.7626 50.4155 56.7147 50.5783 56.69V56.0898H48.25V56.69C48.4128 56.7147 48.6662 56.7626 48.7737 56.8058L48.786 59.5861C48.6647 59.6586 48.4665 59.7018 48.25 59.7388V60.2172H50.5783V59.7388Z" fill="#005A9C"></path><path d="M53.2137 59.7388C53.014 59.7033 52.8036 59.6416 52.6577 59.5567L52.6101 56.9091L54.4669 60.2171H55.8046L55.8706 56.8072C55.9919 56.764 56.1778 56.7162 56.3052 56.6915V56.0913H54.6343V56.6915C54.8693 56.7162 55.0259 56.7517 55.1641 56.8134L55.1887 58.9642L53.5961 56.0928H51.4368V56.693C51.6165 56.7177 51.8345 56.7656 51.9927 56.8088L51.9497 59.5891C51.8054 59.6616 51.6487 59.7048 51.4368 59.7419V60.2202H53.2091V59.7419L53.2137 59.7388Z" fill="#005A9C"></path><path d="M61.1907 58.8855L60.6409 58.7343C60.4059 59.0968 60.1832 59.3283 59.8929 59.6245L58.7672 59.6369L58.7718 58.3886L59.3139 58.438C59.3631 58.583 59.3984 58.7466 59.4291 58.9163H59.9713L60.002 57.432H59.423C59.3923 57.5771 59.3554 57.7221 59.3124 57.844L58.7703 57.8502L58.7764 56.7408L59.8023 56.7285C60.0542 56.9645 60.2907 57.2561 60.5257 57.5894L61.0755 57.432L60.7975 56.0928H57.0103V56.693C57.173 56.7177 57.3727 56.7717 57.5109 56.8087L57.5232 59.589C57.3773 59.6615 57.2222 59.7048 57.0103 59.7418V60.2201H60.8989L61.1892 58.887L61.1907 58.8855Z" fill="#005A9C"></path><path d="M66.1558 58.8855L65.606 58.7343C65.371 59.0968 65.1483 59.3283 64.858 59.6245L63.7323 59.6369L63.7369 58.3886L64.279 58.438C64.3282 58.583 64.3635 58.7466 64.3942 58.9163H64.9364L64.9671 57.432H64.3881C64.3574 57.5771 64.3205 57.7221 64.2775 57.844L63.7354 57.8502L63.7415 56.7408L64.7674 56.7285C65.0193 56.9645 65.2558 57.2561 65.4908 57.5894L66.0406 57.432L65.7626 56.0928H61.9753V56.693C62.1381 56.7177 62.3378 56.7717 62.476 56.8087L62.4883 59.589C62.3424 59.6615 62.1873 59.7048 61.9753 59.7418V60.2201H65.864L66.1542 58.887L66.1558 58.8855Z" fill="#005A9C"></path><path d="M69.0847 59.7388C68.8789 59.7033 68.7038 59.6416 68.584 59.5567L68.5886 58.6124H68.9142L69.9278 60.2171H71.4421V59.7388C71.3024 59.7141 71.1165 59.6601 70.9891 59.586L70.2596 58.4535C70.8155 58.2483 71.1457 57.841 71.1457 57.2963C71.1457 56.5928 70.4162 56.0913 69.2644 56.0913H66.8286V56.6915C66.9914 56.7162 67.1911 56.764 67.3293 56.8072L67.3416 59.5876C67.1972 59.6601 67.0406 59.7033 66.8286 59.7403V60.2186H69.0847V59.7403V59.7388ZM68.5948 56.7995L69.3181 56.7872C69.7589 56.781 69.7958 56.8844 69.8081 57.4167C69.8203 57.9505 69.7528 58.0045 69.1738 58.0045H68.5886L68.5948 56.7995Z" fill="#005A9C"></path><path d="M76.2813 58.8855L75.7314 58.7343C75.4965 59.0968 75.2738 59.3283 74.9835 59.6245L73.8578 59.6369L73.8624 58.3886L74.4045 58.438C74.4537 58.583 74.489 58.7466 74.5197 58.9163H75.0618L75.0926 57.432H74.5136C74.4828 57.5771 74.446 57.7221 74.403 57.844L73.8608 57.8502L73.867 56.7408L74.8929 56.7285C75.1448 56.9645 75.3813 57.2561 75.6163 57.5894L76.1661 57.432L75.8881 56.0928H72.1008V56.693C72.2636 56.7177 72.4633 56.7717 72.6015 56.8087L72.6138 59.589C72.4679 59.6615 72.3128 59.7048 72.1008 59.7418V60.2201H75.9895L76.2797 58.887L76.2813 58.8855Z" fill="#005A9C"></path><path d="M81.6091 58.1942C81.6091 56.9476 80.7644 56.0928 79.2993 56.0928H76.9541V56.693C77.1169 56.7177 77.3165 56.7717 77.4548 56.8087L77.4671 59.589C77.3227 59.6615 77.166 59.7048 76.9541 59.7418V60.2201H79.2931C80.7475 60.2201 81.6091 59.3838 81.6091 58.1958V58.1942ZM78.7095 59.5937L78.7203 56.8318L79.2455 56.8133C80.1547 56.7825 80.2269 56.8488 80.2468 58.401C80.2576 59.5335 80.1747 59.5937 79.2394 59.5937H78.7095Z" fill="#005A9C"></path><path d="M36.6227 64.9849C36.3769 64.954 36.0759 64.8877 35.9239 64.8321L35.9285 63.9542H36.5382C37.6225 63.9542 38.3704 63.4512 38.3704 62.6458C38.3704 61.8404 37.6225 61.3374 36.5382 61.3374H34.1685V61.9376C34.3313 61.9623 34.5309 62.0163 34.6691 62.0533L34.6814 64.8337C34.5355 64.9062 34.3804 64.9494 34.1685 64.9864V65.4647H36.6227V64.9864V64.9849ZM35.9362 62.041L36.4368 62.0286C37.0158 62.0163 37.0465 62.0471 37.065 62.78C37.0773 63.2954 37.0158 63.3555 36.4506 63.3555H35.9316L35.9377 62.041H35.9362Z" fill="#005A9C"></path><path d="M43.0652 62.5424C43.0652 61.8389 42.3357 61.3374 41.1838 61.3374H38.748V61.9376C38.9108 61.9623 39.1105 62.0101 39.2487 62.0533L39.261 64.8337C39.1151 64.9062 38.96 64.9494 38.748 64.9864V65.4647H41.0041V64.9864C40.7983 64.9509 40.6233 64.8892 40.5035 64.8043L40.5081 63.8601H40.8337L41.8473 65.4647H43.36V64.9864C43.2218 64.9617 43.036 64.9077 42.9085 64.8337L42.179 63.7012C42.735 63.4959 43.0652 63.0886 43.0652 62.544V62.5424ZM41.0932 63.2506H40.5081L40.5142 62.0456L41.2391 62.0333C41.6783 62.0271 41.7152 62.1305 41.7275 62.6628C41.7398 63.1966 41.6722 63.2506 41.0932 63.2506Z" fill="#005A9C"></path><path d="M43.6733 63.488C43.6733 64.7594 44.753 65.5355 45.9832 65.5355C47.2133 65.5355 48.2515 64.7594 48.2515 63.4386C48.2515 62.0515 47.2318 61.2646 45.9663 61.2646C44.7008 61.2646 43.6749 62.0515 43.6749 63.488H43.6733ZM46.8939 63.7611C46.9108 64.8334 46.7434 64.8813 46.0799 64.8936C45.1277 64.9121 45.0786 64.8026 45.0433 63.1486C45.0248 62.0762 45.1938 62.0407 45.8634 62.0284C46.7971 62.0099 46.8586 62.0886 46.8939 63.7611Z" fill="#005A9C"></path><path d="M52.1172 62.01C52.3844 62.331 52.5871 62.6519 52.8359 63.016L53.3857 62.8586L53.0725 61.3389H49.0272L48.7139 62.8586L49.2744 63.016C49.4971 62.6534 49.7213 62.3371 49.9809 62.0162L50.4155 62.01L50.4263 64.832C50.2527 64.9046 50.0469 64.9478 49.812 64.9848V65.4631H52.2907V64.9848C52.0619 64.9493 51.8454 64.9061 51.6764 64.832L51.6887 62.0162L52.1218 62.01H52.1172Z" fill="#005A9C"></path><path d="M53.8988 65.4632H57.7874L58.0776 64.1301L57.5278 63.9789C57.2929 64.3415 57.0702 64.5729 56.7799 64.8691L55.6542 64.8815L55.6588 63.6333L56.2009 63.6826C56.2501 63.8277 56.2854 63.9912 56.3161 64.1609H56.8582L56.8889 62.6767H56.3099C56.2792 62.8217 56.2424 62.9667 56.1994 63.0886L55.6572 63.0948L55.6634 61.9854L56.6893 61.9731C56.9412 62.2092 57.1777 62.5008 57.4126 62.834L57.9625 62.6767L57.6845 61.3374H53.8972V61.9376C54.06 61.9623 54.2597 62.0163 54.3979 62.0533L54.4102 64.8337C54.2643 64.9062 54.1092 64.9494 53.8972 64.9864V65.4647L53.8988 65.4632Z" fill="#005A9C"></path><path d="M58.5813 63.488C58.5813 64.6699 59.6072 65.5355 60.7591 65.5355C61.4655 65.5355 62.1812 65.1837 62.6097 64.7547L62.41 64.2271C62.0599 64.4569 61.2889 64.8689 60.7452 64.8689C60.2016 64.8689 59.962 64.73 59.962 63.2396C59.962 62.0824 60.1601 61.9975 60.5456 61.9975C60.8236 61.9975 61.2152 62.0762 61.3903 62.1426C61.5961 62.4095 61.831 62.7428 62.0184 63.0143L62.5682 62.8569L62.2549 61.3372H61.7604L61.7005 61.5069C61.5008 61.3804 61.1031 61.2646 60.7038 61.2646C59.6364 61.2646 58.5813 62.0701 58.5813 63.488Z" fill="#005A9C"></path><path d="M64.1748 65.4631H66.6536V64.9848C66.4247 64.9493 66.2082 64.9061 66.0392 64.832L66.0515 62.0162L66.4846 62.01C66.7518 62.331 66.9546 62.6519 67.2034 63.016L67.7532 62.8586L67.4399 61.3389H63.3946L63.0813 62.8586L63.6419 63.016C63.8646 62.6534 64.0888 62.3371 64.3483 62.0162L64.783 62.01L64.7937 64.832C64.6202 64.9046 64.4144 64.9478 64.1794 64.9848V65.4631H64.1748Z" fill="#005A9C"></path><path d="M68.1201 65.4632H70.4484V64.9849C70.2364 64.9495 70.0306 64.9063 69.9124 64.8322L69.9231 62.0519C70.0306 62.0087 70.2856 61.9608 70.4484 61.9361V61.3359H68.1201V61.9361C68.2829 61.9608 68.5363 62.0087 68.6438 62.0519L68.6561 64.8322C68.5348 64.9047 68.3367 64.9479 68.1201 64.9849V65.4632Z" fill="#005A9C"></path><path d="M75.469 62.0888C75.601 62.0225 75.7531 61.9731 75.8975 61.9376V61.3374H74.1129V61.9376C74.2926 61.9561 74.4922 61.9731 74.6627 62.0348C74.3847 62.8942 74.096 63.7613 73.7934 64.6022C73.4985 63.9002 73.1253 62.9544 72.7752 62.0348C72.9426 61.9746 73.1422 61.9561 73.325 61.9376V61.3374H71.0198V61.9376C71.1411 61.9808 71.2916 62.0286 71.4421 62.0888C71.8599 63.2043 72.3283 64.36 72.8182 65.4632H74.1083C74.5859 64.3723 75.0558 63.2275 75.472 62.0888H75.469Z" fill="#005A9C"></path><path d="M79.2133 64.8691L78.0875 64.8815L78.0921 63.6333L78.6343 63.6826C78.6834 63.8277 78.7187 63.9912 78.7494 64.1609H79.2916L79.3223 62.6767H78.7433C78.7126 62.8217 78.6757 62.9667 78.6327 63.0886L78.0906 63.0948L78.0967 61.9854L79.1226 61.9731C79.3745 62.2092 79.611 62.5008 79.846 62.834L80.3958 62.6767L80.1178 61.3374H76.3306V61.9376C76.4934 61.9623 76.693 62.0163 76.8312 62.0533L76.8435 64.8337C76.6976 64.9062 76.5425 64.9494 76.3306 64.9864V65.4647H80.2192L80.5095 64.1316L79.9596 63.9804C79.7247 64.343 79.502 64.5744 79.2117 64.8707L79.2133 64.8691Z" fill="#005A9C"></path><path d="M38.7589 70.229C38.5132 70.1981 38.2121 70.1318 38.0601 70.0763L38.0647 69.1983H38.6744C39.7602 69.1983 40.5066 68.6953 40.5066 67.8899C40.5066 67.0845 39.7602 66.5815 38.6744 66.5815H36.3047V67.1817C36.4675 67.2064 36.6671 67.2604 36.8054 67.2975L36.8176 70.0778C36.6733 70.1503 36.5166 70.1935 36.3047 70.2305V70.7089H38.7589V70.2305V70.229ZM38.0724 67.2851L38.5731 67.2728C39.1521 67.2604 39.1812 67.2913 39.2012 68.0242C39.2135 68.5395 39.152 68.5997 38.5869 68.5997H38.0678L38.0739 67.2851H38.0724Z" fill="#005A9C"></path><path d="M41.9319 69.4359H43.4216L43.6674 70.1194C43.5 70.1626 43.2711 70.1749 43.0822 70.1857V70.7072H45.3874V70.2289C45.2538 70.1934 45.1402 70.1502 45.0127 70.0901C44.5735 68.9205 44.0897 67.7155 43.5906 66.583H42.3005C41.7875 67.7279 41.3237 68.9205 40.8953 70.0777C40.7678 70.1379 40.6434 70.1811 40.5098 70.2166V70.7072H42.3082V70.1857C42.1147 70.1734 41.8674 70.161 41.7169 70.1194C41.7891 69.8957 41.8551 69.6658 41.9334 69.4359H41.9319ZM42.6199 67.4301C42.8135 67.8852 42.9993 68.345 43.1805 68.8048H42.1377C42.2944 68.345 42.4572 67.8837 42.6215 67.4301H42.6199Z" fill="#005A9C"></path><path d="M47.5451 67.2422C47.8231 67.2422 48.2147 67.3209 48.3898 67.3872C48.5956 67.6541 48.8306 67.9874 49.0179 68.2589L49.5677 68.1016L49.2544 66.5818H48.7599L48.7 66.7515C48.5004 66.625 48.1026 66.5093 47.7033 66.5093C46.6359 66.5093 45.5808 67.3147 45.5808 68.7326C45.5808 69.9145 46.6067 70.7801 47.7586 70.7801C48.465 70.7801 49.1807 70.4283 49.6092 69.9994L49.4095 69.4717C49.0594 69.7016 48.2884 70.1135 47.7447 70.1135C47.2011 70.1135 46.9615 69.9747 46.9615 68.4842C46.9615 67.327 47.1596 67.2422 47.5451 67.2422Z" fill="#005A9C"></path><path d="M52.5149 68.9993L53.5224 70.7073H55.0536V70.229C54.8739 70.1935 54.728 70.1441 54.6251 70.0763L53.4671 68.1615C53.7865 67.8714 54.106 67.5798 54.4147 67.2897C54.5345 67.2543 54.7264 67.2049 54.8723 67.1817V66.5815H53.0017V67.1509C53.1584 67.1694 53.3089 67.2003 53.4533 67.2543C52.9956 67.714 52.5134 68.1569 52.0234 68.5935L52.0296 67.2728C52.1371 67.2188 52.2953 67.1756 52.4704 67.1509V66.5815H50.2634V67.1817C50.397 67.2064 50.6489 67.2604 50.7641 67.2975L50.7764 70.0778C50.6305 70.1503 50.4754 70.1935 50.2634 70.2305V70.7089H52.4704V70.2599C52.3076 70.2244 52.1325 70.1627 52.0188 70.0778V69.4236C52.1862 69.2847 52.3506 69.1459 52.5134 68.9993H52.5149Z" fill="#005A9C"></path><path d="M57.1453 69.4359H58.635L58.8807 70.1194C58.7133 70.1626 58.4845 70.1749 58.2956 70.1857V70.7072H60.6008V70.2289C60.4672 70.1934 60.3536 70.1502 60.2261 70.0901C59.7869 68.9205 59.3031 67.7155 58.804 66.583H57.5139C57.0009 67.7279 56.5371 68.9205 56.1086 70.0777C55.9812 70.1379 55.8568 70.1811 55.7231 70.2166V70.7072H57.5216V70.1857C57.3281 70.1734 57.0808 70.161 56.9303 70.1194C57.0025 69.8957 57.0685 69.6658 57.1468 69.4359H57.1453ZM57.8333 67.4301C58.0268 67.8852 58.2127 68.345 58.3939 68.8048H57.3511C57.5077 68.345 57.6705 67.8837 57.8349 67.4301H57.8333Z" fill="#005A9C"></path><path d="M64.8073 70.4838V69.3682C64.8918 69.3142 64.9947 69.271 65.1452 69.2463V68.677H63.035L62.992 69.2463C63.2209 69.271 63.4082 69.325 63.5649 69.3682L63.6002 70.0533C63.3837 70.0965 63.1118 70.1196 62.7432 70.1196C62.2487 70.1196 62.0982 69.9746 62.0982 68.4841C62.0982 67.3439 62.2917 67.2421 62.6895 67.2421C62.9552 67.2421 63.4128 67.3084 63.6847 67.4056C63.8582 67.6355 64.041 67.867 64.1853 68.1092L64.7352 67.9518L64.4572 66.5833H63.9627L63.9074 66.753C63.7016 66.6265 63.3099 66.5107 62.906 66.5107C61.7849 66.5107 60.7283 67.364 60.7283 68.7341C60.7283 69.97 61.7834 70.7815 62.8338 70.7815C63.3038 70.7815 63.7507 70.6797 64.0932 70.4915L64.8058 70.4853L64.8073 70.4838Z" fill="#005A9C"></path><path d="M67.9313 67.1817V66.5815H65.603V67.1817C65.7658 67.2064 66.0192 67.2543 66.1267 67.2975L66.139 70.0778C66.0177 70.1503 65.8196 70.1935 65.603 70.2305V70.7089H67.9313V70.2305C67.7194 70.1951 67.5151 70.1519 67.3953 70.0778L67.406 67.2975C67.5166 67.2543 67.7685 67.2064 67.9313 67.1817Z" fill="#005A9C"></path><path d="M73.0624 70.7073L73.1284 67.2975C73.2497 67.2543 73.4356 67.2064 73.563 67.1817V66.5815H71.8921V67.1817C72.1271 67.2064 72.2837 67.2419 72.422 67.3036L72.4465 69.4545L70.8539 66.5831H68.6946V67.1833C68.8743 67.208 69.0923 67.2558 69.2505 67.299L69.2075 70.0793C69.0632 70.1519 68.9065 70.1951 68.6946 70.2321V70.7104H70.4669V70.2321C70.2672 70.1966 70.0568 70.1349 69.9109 70.05L69.8633 67.4024L71.7201 70.7104H73.0578L73.0624 70.7073Z" fill="#005A9C"></path><path d="M76.223 69.2478C76.4518 69.2725 76.6392 69.3265 76.7958 69.3697L76.8312 70.0548C76.6146 70.098 76.3428 70.1211 75.9742 70.1211C75.4797 70.1211 75.3292 69.9761 75.3292 68.4856C75.3292 67.3454 75.5227 67.2436 75.9204 67.2436C76.1861 67.2436 76.6438 67.3099 76.9156 67.4071C77.0892 67.637 77.2719 67.8684 77.4163 68.1107L77.9661 67.9533L77.6881 66.5847H77.1936L77.1383 66.7544C76.9325 66.6279 76.5409 66.5122 76.137 66.5122C75.0159 66.5122 73.9592 67.3654 73.9592 68.7356C73.9592 69.9714 75.0143 70.783 76.0648 70.783C76.5348 70.783 76.9817 70.6812 77.3242 70.4929L78.0368 70.4868V69.3712C78.1212 69.3172 78.2241 69.274 78.3746 69.2494V68.68H76.2645L76.2215 69.2494L76.223 69.2478Z" fill="#005A9C"></path><path d="M40.3377 71.8276H37.968V72.4278C38.1308 72.4525 38.3305 72.5065 38.4687 72.5436L38.481 75.3239C38.3366 75.3964 38.18 75.4396 37.968 75.4766V75.9549H40.4222V75.4766C40.1765 75.4458 39.8755 75.3794 39.7234 75.3239L39.728 74.446H40.3377C41.4236 74.446 42.1699 73.943 42.1699 73.1376C42.1699 72.3322 41.4236 71.8292 40.3377 71.8292V71.8276ZM40.2471 73.8442H39.728L39.7342 72.5297L40.2349 72.5173C40.8138 72.505 40.843 72.5358 40.863 73.2687C40.8753 73.7841 40.8138 73.8442 40.2487 73.8442H40.2471Z" fill="#005A9C"></path><path d="M46.0677 74.1898C46.6236 73.9846 46.9538 73.5773 46.9538 73.0327C46.9538 72.3291 46.2243 71.8276 45.0725 71.8276H42.6367V72.4278C42.7995 72.4525 42.9992 72.5004 43.1374 72.5436L43.1497 75.3239C43.0053 75.3964 42.8487 75.4396 42.6367 75.4766V75.9549H44.8928V75.4766C44.687 75.4412 44.5119 75.3794 44.3921 75.2946L44.3967 74.3503H44.7223L45.7359 75.9549H47.2502V75.4766C47.1105 75.452 46.9247 75.398 46.7972 75.3239L46.0677 74.1914V74.1898ZM44.9819 73.7409H44.3967L44.4029 72.5358L45.1262 72.5235C45.567 72.5173 45.6039 72.6207 45.6162 73.153C45.6284 73.6869 45.5609 73.7409 44.9819 73.7409Z" fill="#005A9C"></path><path d="M49.944 71.7549C48.6954 71.7549 47.6526 72.5418 47.6526 73.9782C47.6526 75.2496 48.7323 76.0257 49.9624 76.0257C51.1926 76.0257 52.2308 75.2496 52.2308 73.9289C52.2308 72.5418 51.211 71.7549 49.9455 71.7549H49.944ZM50.0592 75.3823C49.107 75.4008 49.0578 75.2913 49.0225 73.6372C49.0041 72.5649 49.173 72.5294 49.8426 72.5171C50.7764 72.4986 50.8378 72.5773 50.8731 74.2498C50.89 75.3221 50.7226 75.3699 50.0592 75.3823Z" fill="#005A9C"></path><path d="M55.0998 71.8276H52.7546V72.4278C52.9174 72.4525 53.1171 72.5065 53.2553 72.5436L53.2676 75.3239C53.1232 75.3964 52.9666 75.4396 52.7546 75.4766V75.9549H55.0937C56.5481 75.9549 57.4096 75.1187 57.4096 73.9306C57.4096 72.684 56.5649 71.8292 55.0998 71.8292V71.8276ZM55.0399 75.3285H54.51L54.5208 72.5667L55.046 72.5482C55.9552 72.5173 56.0274 72.5837 56.0474 74.1358C56.0581 75.2683 55.9752 75.3285 55.0399 75.3285Z" fill="#005A9C"></path><path d="M60.7807 72.4279C61.0264 72.4634 61.2092 72.5251 61.3597 72.6084L61.3766 74.4877C61.3827 75.2453 61.2752 75.3595 60.4597 75.3595C59.6442 75.3595 59.5505 75.2931 59.5551 74.4877L59.5674 72.6084C59.7179 72.5236 59.893 72.4634 60.1464 72.4279V71.8277H57.8857V72.4279C58.0071 72.4526 58.1929 72.5004 58.2897 72.5436L58.3019 74.2208C58.3081 75.5354 59.0806 76.026 60.237 76.026C61.3935 76.026 62.1307 75.5354 62.1368 74.2331L62.1476 72.5421C62.2443 72.4989 62.4317 72.4511 62.553 72.4264V71.8262H60.7807V72.4264V72.4279Z" fill="#005A9C"></path><path d="M65.193 75.3591C64.6693 75.3591 64.4097 75.2203 64.4097 73.7298C64.4097 72.5726 64.6079 72.4878 64.9933 72.4878C65.2713 72.4878 65.6629 72.5665 65.8396 72.6328C66.0438 72.8997 66.2788 73.233 66.4662 73.5046L67.016 73.3472L66.7027 71.8274H66.2081L66.1483 71.9971C65.9486 71.8706 65.5508 71.7549 65.1515 71.7549C64.0841 71.7549 63.0291 72.5603 63.0291 73.9782C63.0291 75.1601 64.055 76.0257 65.2068 76.0257C65.9133 76.0257 66.629 75.6739 67.0574 75.245L66.8578 74.7173C66.5076 74.9472 65.7367 75.3591 65.193 75.3591Z" fill="#005A9C"></path><path d="M67.9298 71.8276L67.6165 73.3474L68.177 73.5048C68.3997 73.1422 68.6239 72.8259 68.8835 72.505L69.3181 72.4988L69.3289 75.3208C69.1553 75.3933 68.9495 75.4365 68.7146 75.4736V75.9519H71.1933V75.4736C70.9645 75.4381 70.7479 75.3949 70.579 75.3208L70.5913 72.505L71.0244 72.4988C71.2916 72.8197 71.4943 73.1407 71.7431 73.5048L72.2929 73.3474L71.9796 71.8276H67.9344H67.9298Z" fill="#005A9C"></path><path d="M75.2831 73.4074C74.8776 73.3102 74.5766 73.2315 74.4138 73.1714C74.1911 73.0865 74.162 73.0387 74.1743 72.8319C74.185 72.5341 74.2633 72.4801 74.4876 72.4801C74.7271 72.4801 75.1802 72.5588 75.3676 72.6128C75.5611 72.8011 75.7469 73.0433 75.8913 73.2979L76.4411 73.1405L76.1877 71.8259H75.687L75.6333 71.971C75.3798 71.8383 75.0297 71.7534 74.6196 71.7534C73.8179 71.7534 72.9379 72.2317 72.9379 73.1467C72.9379 73.8549 73.3956 74.2252 74.4031 74.4798C74.7763 74.577 75.0297 74.6433 75.2109 74.7035C75.452 74.7822 75.4705 74.8423 75.4566 75.0676C75.4336 75.3284 75.3676 75.4009 75.1848 75.4009C74.8408 75.4009 74.2034 75.2558 73.9193 75.171C73.7089 74.9349 73.5338 74.7467 73.3649 74.4983L72.8228 74.6433L73.1176 75.9517H73.6183L73.6736 75.8067C74.0053 75.9455 74.4691 76.0304 74.9099 76.0304C75.7607 76.0304 76.6883 75.5706 76.6883 74.6665C76.6883 73.9629 76.1815 73.625 75.2831 73.4059V73.4074Z" fill="#005A9C"></path><path d="M60.4273 79.6996H81.8347L85.8631 53.4313L102.843 42.7389L102.723 41.2978L86.3408 30.485L76.2368 38.1734L75.0404 31.3861H61.1307L61.2014 28.0842C61.2014 28.0842 66.337 27.1014 67.0097 26.978C67.6824 26.8545 67.9266 26.3022 67.9266 25.8115V24.0912C67.9266 23.5388 67.988 23.2318 66.7655 23.1083C65.543 22.9849 62.2411 22.8013 60.9572 22.6177C59.6732 22.4341 59.1849 21.9419 59.1849 21.2352V17.2128C59.1849 16.9984 59.2002 16.3688 59.5673 16.23C61.08 15.6606 61.7496 13.9449 61.7496 12.2076C61.7496 9.66486 59.6978 7.60352 57.1668 7.60352H57.1637H57.1607C54.6297 7.60352 52.5779 9.66486 52.5779 12.2076C52.5779 13.9465 53.2475 15.6606 54.7602 16.23C55.1273 16.3688 55.1426 16.9984 55.1426 17.2128V21.2352C55.1426 21.9419 54.6543 22.4325 53.3703 22.6177C52.0864 22.8013 48.786 22.9864 47.562 23.1083C46.3395 23.2318 46.4009 23.5388 46.4009 24.0912V25.8115C46.4009 26.3022 46.6451 26.8561 47.3178 26.978C47.9905 27.1014 53.1261 28.0842 53.1261 28.0842L53.1968 31.3861H39.2871L38.0907 38.1734L27.9867 30.485L11.6044 41.2978L11.4846 42.7389L28.4644 53.4313L32.8076 79.6996H54.063C54.0768 81.8365 54.1029 85.9777 54.1029 86.4066C54.1029 88.3723 53.0017 91.9349 47.7447 91.688C37.9556 91.1403 29.3474 84.0984 26.5415 81.5572L29.008 79.2151L23.9553 77.9977L18.9025 76.7803L18.9117 76.8344L18.6875 76.7803L19.612 81.9167L20.5366 87.0531L20.7194 86.8788L20.7501 87.0531L23.4131 84.5243L24.267 85.3004C25.6124 86.6519 32.459 93.899 39.3055 96.7241C46.1521 99.5492 56.3006 103.235 57.1576 105.199C57.1576 105.198 57.1591 105.196 57.1607 105.195C57.1622 105.196 57.1637 105.198 57.1637 105.199C58.0192 103.234 68.1677 99.5492 75.0158 96.7241C81.8624 93.899 88.7105 86.6519 90.0543 85.3004L90.9082 84.5243L93.5713 87.0531L94.4958 81.9167L95.4204 76.7803L90.3676 77.9977L85.3149 79.2151L87.7813 81.5572C84.9754 84.0984 76.3658 91.1418 66.5782 91.688C61.3211 91.9334 60.22 88.3708 60.22 86.4066C60.22 85.9777 60.2461 81.8365 60.2599 79.6996H60.4227H60.4273ZM86.4298 31.636L101.528 41.6589L85.4454 52.2911L76.5654 39.0251L86.4314 31.6376L86.4298 31.636ZM67.2923 42.9796L66.6995 46.8832H57.7535L57.7827 42.9796H67.2923ZM57.7827 42.3192V39.7965H66.8085L66.2434 42.3192H57.7827ZM57.7827 47.5451H68.8619L68.2967 52.5904H57.7827V47.5451ZM68.3121 42.9796H78.4222L77.7157 46.8832H69.2689L68.3121 42.9796ZM81.6075 47.5451L80.7919 52.5904H70.4637L69.3871 47.5451H81.6075ZM76.3504 39.7965L75.9112 42.3192H68.3121L67.687 39.7965H76.3504ZM54.7403 12.2091C54.7403 10.8668 55.8245 9.77749 57.1607 9.77749H57.1637C57.1637 9.77749 57.1668 9.77749 57.1684 9.77749C58.5045 9.77749 59.5888 10.8652 59.5888 12.2091C59.5888 13.553 58.5045 14.6408 57.1684 14.6408C57.1684 14.6408 57.1653 14.6408 57.1637 14.6408H57.1607C55.8245 14.6408 54.7403 13.553 54.7403 12.2091ZM40.4205 32.318H74.1466L75.3399 38.7381H39.304L40.4205 32.318ZM47.8015 46.8832L47.2087 42.9796H56.7199L56.7475 46.8832H47.8015ZM56.7184 47.5436V52.5889H46.2028L45.6376 47.5436H56.7184ZM47.6925 39.795H56.7184V42.3177H48.2577L47.6925 39.795ZM46.8125 39.795L46.1874 42.3177H38.5883L38.1491 39.795H46.8125ZM46.1874 42.978L45.2306 46.8816H36.7838L36.0773 42.978H46.1874ZM45.1108 47.5436L44.0342 52.5889H33.7076L32.8921 47.5436H45.1124H45.1108ZM12.7993 41.6573L27.8977 31.6345L37.7636 39.022L28.8836 52.288L12.8008 41.6558L12.7993 41.6573ZM34.0024 78.4961L29.779 53.5501H84.785L80.7582 78.4961H34.004H34.0024Z" fill="#005A9C"></path><path d="M119.28 33.3457H124.416L125.539 36.2788H128.362L123.217 23.3677H120.472L115.467 36.2788H118.221L119.282 33.3457H119.28ZM121.814 26.3795L123.584 31.1702H120.077L121.814 26.3795Z" fill="#005A9C"></path><path d="M132.186 32.0416C132.186 30.9971 132.249 30.2812 132.376 29.8924C132.502 29.5051 132.734 29.1934 133.073 28.9589C133.413 28.7244 133.795 28.6071 134.222 28.6071C134.555 28.6071 134.84 28.6889 135.078 28.854C135.314 29.0175 135.486 29.249 135.591 29.5452C135.695 29.8414 135.747 30.4941 135.747 31.5047V36.277H138.211V30.4648C138.211 29.7427 138.166 29.1872 138.075 28.8C137.985 28.4127 137.825 28.0655 137.592 27.76C137.361 27.4545 137.02 27.203 136.57 27.0071C136.122 26.8111 135.624 26.7124 135.082 26.7124C133.847 26.7124 132.825 27.2401 132.014 28.2985V26.9238H129.725V36.277H132.189V32.0401L132.186 32.0416Z" fill="#005A9C"></path><path d="M144.593 36.4884C145.79 36.4884 146.747 36.2045 147.459 35.6336C148.173 35.0643 148.654 34.2219 148.906 33.1063L146.487 32.6913C146.364 33.3424 146.154 33.8022 145.856 34.0691C145.558 34.3376 145.174 34.4703 144.706 34.4703C144.08 34.4703 143.583 34.2404 143.213 33.7837C142.841 33.3254 142.655 32.5416 142.655 31.4323C142.655 30.434 142.836 29.7227 143.202 29.2969C143.567 28.871 144.057 28.6581 144.67 28.6581C145.131 28.6581 145.507 28.7815 145.796 29.0284C146.086 29.2753 146.272 29.6425 146.353 30.1285L148.782 29.6888C148.49 28.6843 148.007 27.9376 147.339 27.4469C146.67 26.9563 145.767 26.7109 144.635 26.7109C143.25 26.7109 142.15 27.1414 141.339 28.0008C140.527 28.8618 140.12 30.0637 140.12 31.6082C140.12 33.1526 140.525 34.3299 141.334 35.1924C142.144 36.0564 143.23 36.4869 144.592 36.4869L144.593 36.4884Z" fill="#005A9C"></path><path d="M153.076 31.593C153.076 30.8061 153.151 30.2121 153.3 29.8094C153.449 29.4082 153.682 29.1058 154.005 28.9068C154.327 28.7077 154.691 28.6074 155.101 28.6074C155.458 28.6074 155.754 28.6861 155.991 28.8404C156.227 28.9947 156.391 29.2061 156.487 29.4699C156.579 29.7338 156.626 30.3571 156.626 31.3369V36.2773H159.09V30.7907C159.09 29.9513 159.047 29.3326 158.962 28.933C158.878 28.5349 158.721 28.1708 158.491 27.8406C158.259 27.512 157.916 27.2419 157.46 27.0306C157.004 26.8192 156.493 26.7143 155.926 26.7143C154.822 26.7143 153.873 27.1802 153.077 28.1152V23.3677H150.614V36.2788H153.077V31.593H153.076Z" fill="#005A9C"></path><path d="M163.329 35.9081C164.103 36.2954 164.917 36.4883 165.769 36.4883C167.148 36.4883 168.292 36.0238 169.202 35.0919C170.109 34.1615 170.565 32.9889 170.565 31.5741C170.565 30.1592 170.115 29.0097 169.215 28.0917C168.315 27.1737 167.162 26.7139 165.754 26.7139C164.843 26.7139 164.015 26.916 163.276 27.3218C162.538 27.7276 161.966 28.3139 161.564 29.0822C161.162 29.8506 160.959 30.6468 160.959 31.4691C160.959 32.543 161.162 33.4549 161.564 34.2032C161.966 34.9515 162.556 35.5193 163.33 35.9081H163.329ZM164.14 29.4695C164.577 28.9758 165.118 28.7289 165.76 28.7289C166.402 28.7289 166.942 28.9758 167.377 29.4695C167.813 29.9633 168.031 30.6668 168.031 31.5833C168.031 32.4998 167.813 33.2389 167.377 33.7326C166.942 34.2263 166.403 34.4732 165.76 34.4732C165.116 34.4732 164.577 34.2263 164.14 33.7326C163.7 33.2389 163.482 32.5291 163.482 31.6018C163.482 30.6745 163.7 29.9633 164.14 29.4695Z" fill="#005A9C"></path><path d="M174.853 33.3889C174.853 31.7982 174.921 30.7536 175.059 30.2537C175.196 29.7538 175.385 29.4098 175.624 29.2184C175.864 29.0271 176.156 28.933 176.501 28.933C176.847 28.933 177.243 29.0688 177.659 29.3388L178.421 27.1818C177.9 26.8701 177.36 26.7158 176.799 26.7158C176.403 26.7158 176.047 26.8161 175.733 27.0151C175.42 27.2142 175.068 27.6292 174.678 28.2572V26.9272H172.39V36.2804H174.855V33.392L174.853 33.3889Z" fill="#005A9C"></path><path d="M191.819 36.1893C192.509 36.1122 193.089 35.9101 193.561 35.5783C194.032 35.2466 194.402 34.8023 194.673 34.2484C194.946 33.6929 195.081 33.122 195.081 32.5357C195.081 31.7905 194.871 31.1425 194.45 30.5885C194.029 30.0362 193.427 29.6474 192.644 29.4175C193.2 29.166 193.639 28.7864 193.963 28.2819C194.287 27.7773 194.45 27.2219 194.45 26.6171C194.45 26.0585 194.318 25.5555 194.055 25.1065C193.793 24.6576 193.464 24.2981 193.071 24.028C192.676 23.758 192.228 23.5806 191.73 23.4957C191.229 23.4109 190.472 23.3677 189.456 23.3677H184.318V36.2788H188.694C190.348 36.2665 191.391 36.2372 191.822 36.1909L191.819 36.1893ZM186.911 25.5154H188.4C189.623 25.5154 190.362 25.5309 190.618 25.5602C191.051 25.6126 191.375 25.7638 191.595 26.0138C191.815 26.2637 191.925 26.5878 191.925 26.9874C191.925 27.387 191.798 27.7403 191.543 27.9964C191.289 28.251 190.941 28.4069 190.497 28.4593C190.251 28.4886 189.623 28.5041 188.611 28.5041H186.911V25.5185V25.5154ZM186.911 30.6503H189.007C190.187 30.6503 190.955 30.712 191.308 30.8354C191.661 30.9588 191.931 31.1548 192.117 31.4263C192.306 31.6964 192.398 32.025 192.398 32.4123C192.398 32.8705 192.277 33.2362 192.034 33.5077C191.793 33.7808 191.478 33.9537 191.093 34.0231C190.841 34.0755 190.247 34.1033 189.313 34.1033H186.911V30.6503Z" fill="#005A9C"></path><path d="M199.922 30.7826C199.07 30.9477 198.415 31.139 197.964 31.3597C197.511 31.5803 197.158 31.8966 196.907 32.3101C196.657 32.7252 196.531 33.1958 196.531 33.7234C196.531 34.5211 196.807 35.183 197.359 35.7045C197.91 36.226 198.666 36.4883 199.624 36.4883C200.168 36.4883 200.679 36.3865 201.158 36.1798C201.639 35.9746 202.089 35.666 202.508 35.2556C202.525 35.3018 202.556 35.399 202.596 35.5456C202.688 35.8681 202.768 36.1119 202.832 36.277H205.268C205.052 35.8311 204.904 35.4129 204.826 35.021C204.748 34.6307 204.706 34.0243 204.706 33.2035L204.732 30.3151C204.732 29.2397 204.622 28.5022 204.405 28.0995C204.185 27.6983 203.808 27.3666 203.269 27.1043C202.731 26.8435 201.912 26.7124 200.813 26.7124C199.603 26.7124 198.692 26.93 198.079 27.3635C197.466 27.7971 197.033 28.4682 196.781 29.3709L199.017 29.7766C199.169 29.3431 199.368 29.0376 199.613 28.8648C199.858 28.692 200.2 28.6056 200.639 28.6056C201.287 28.6056 201.728 28.7059 201.962 28.9095C202.195 29.1132 202.313 29.4511 202.313 29.9263V30.1732C201.869 30.3614 201.071 30.5635 199.919 30.7811L199.922 30.7826ZM202.316 32.2793C202.316 32.8733 202.284 33.2744 202.221 33.4858C202.127 33.8083 201.931 34.0829 201.633 34.3051C201.229 34.5983 200.807 34.7448 200.363 34.7448C199.965 34.7448 199.638 34.6183 199.381 34.3668C199.125 34.1153 198.996 33.8145 198.996 33.4688C198.996 33.1232 199.157 32.8255 199.478 32.5971C199.69 32.4567 200.137 32.3132 200.819 32.1666C201.502 32.02 202.003 31.8935 202.319 31.7871V32.2808L202.316 32.2793Z" fill="#005A9C"></path><path d="M208.616 37.5946C208.341 37.9325 207.917 38.1007 207.346 38.1007C207.037 38.1007 206.689 38.0621 206.303 37.9865L206.523 39.9244C206.977 40.0231 207.444 40.0741 207.916 40.0741C208.387 40.0741 208.804 40.0231 209.174 39.9244C209.545 39.8241 209.857 39.6852 210.112 39.5063C210.367 39.3273 210.593 39.0928 210.786 38.8058C210.983 38.5188 211.19 38.1007 211.404 37.556L211.992 35.9267L215.278 26.9253H212.727L210.553 33.566L208.327 26.9253H205.706L209.247 36.3047C209.101 36.8278 208.89 37.2567 208.615 37.5946H208.616Z" fill="#005A9C"></path><path d="M126.617 46.5516C126.617 45.5255 126.37 44.6862 125.872 44.0381C125.375 43.3901 124.759 42.9674 124.023 42.7745C123.542 42.6449 122.515 42.5801 120.938 42.5801H116.774V55.4912H119.368V50.6218H121.059C122.234 50.6218 123.131 50.5601 123.751 50.4366C124.206 50.3363 124.654 50.1327 125.095 49.8241C125.537 49.5155 125.901 49.0927 126.187 48.5512C126.474 48.0112 126.617 47.3446 126.617 46.5516ZM123.648 47.5915C123.453 47.8785 123.183 48.0914 122.837 48.2256C122.493 48.3599 121.81 48.4277 120.787 48.4277H119.368V44.7649H120.621C121.557 44.7649 122.177 44.7942 122.489 44.8528C122.91 44.9299 123.258 45.1213 123.532 45.4252C123.805 45.7292 123.945 46.118 123.945 46.587C123.945 46.9697 123.847 47.303 123.65 47.5915H123.648Z" fill="#005A9C"></path><path d="M136.082 54.2354C136.004 53.845 135.962 53.2387 135.962 52.4178L135.988 49.5295C135.988 48.4541 135.878 47.7165 135.661 47.3138C135.442 46.9127 135.064 46.581 134.525 46.3187C133.987 46.0579 133.169 45.9268 132.069 45.9268C130.859 45.9268 129.948 46.1443 129.335 46.5779C128.723 47.0114 128.289 47.6826 128.038 48.5852L130.274 48.991C130.426 48.5574 130.624 48.2519 130.87 48.0791C131.114 47.9063 131.456 47.8199 131.896 47.8199C132.544 47.8199 132.984 47.9202 133.218 48.1239C133.451 48.3275 133.57 48.6654 133.57 49.1407V49.3875C133.126 49.5758 132.327 49.7779 131.175 49.9954C130.323 50.1605 129.669 50.3518 129.217 50.5725C128.764 50.7931 128.411 51.1094 128.16 51.5229C127.91 51.938 127.784 52.4086 127.784 52.9362C127.784 53.7339 128.061 54.3958 128.612 54.9173C129.163 55.4389 129.919 55.7012 130.877 55.7012C131.421 55.7012 131.932 55.5993 132.412 55.3926C132.892 55.1874 133.342 54.8788 133.761 54.4684C133.778 54.5146 133.809 54.6119 133.849 54.7584C133.941 55.0809 134.021 55.3247 134.086 55.4898H136.521C136.305 55.0439 136.157 54.6257 136.079 54.2338L136.082 54.2354ZM133.571 51.4921C133.571 52.0861 133.539 52.4872 133.476 52.6986C133.382 53.0211 133.186 53.2957 132.888 53.5179C132.484 53.8111 132.061 53.9577 131.618 53.9577C131.22 53.9577 130.893 53.8311 130.636 53.5796C130.38 53.3281 130.251 53.0273 130.251 52.6817C130.251 52.336 130.412 52.0383 130.733 51.8099C130.945 51.6695 131.392 51.526 132.074 51.3794C132.757 51.2329 133.258 51.1063 133.574 50.9999V51.4936L133.571 51.4921Z" fill="#005A9C"></path><path d="M146.589 52.3202L144.17 51.9052C144.047 52.5563 143.836 53.0161 143.538 53.283C143.24 53.5515 142.857 53.6842 142.388 53.6842C141.763 53.6842 141.265 53.4543 140.895 52.9976C140.524 52.5393 140.338 51.7555 140.338 50.6461C140.338 49.6479 140.519 48.9366 140.885 48.5107C141.25 48.0849 141.74 47.872 142.353 47.872C142.814 47.872 143.19 47.9954 143.479 48.2423C143.769 48.4891 143.955 48.8564 144.036 49.3424L146.464 48.9026C146.172 47.8982 145.69 47.1514 145.022 46.6608C144.352 46.1701 143.449 45.9248 142.317 45.9248C140.932 45.9248 139.833 46.3553 139.022 47.2147C138.209 48.0756 137.802 49.2776 137.802 50.822C137.802 52.3665 138.208 53.5437 139.017 54.4062C139.826 55.2703 140.912 55.7008 142.274 55.7008C143.471 55.7008 144.428 55.4169 145.14 54.846C145.854 54.2766 146.335 53.4342 146.587 52.3187L146.589 52.3202Z" fill="#005A9C"></path><path d="M156.869 55.4912L153.458 49.5541L156.642 46.1381H153.607L150.724 49.4322V42.5801H148.261V55.4912H150.724V52.4964L151.873 51.2899L154.214 55.4912H156.869Z" fill="#005A9C"></path><path d="M163.582 54.76C163.674 55.0824 163.754 55.3262 163.819 55.4913H166.254C166.038 55.0454 165.89 54.6273 165.812 54.2354C165.734 53.845 165.692 53.2387 165.692 52.4178L165.718 49.5295C165.718 48.4541 165.608 47.7165 165.391 47.3138C165.172 46.9127 164.794 46.581 164.255 46.3187C163.717 46.0579 162.899 45.9268 161.799 45.9268C160.589 45.9268 159.678 46.1443 159.065 46.5779C158.453 47.0114 158.019 47.6826 157.768 48.5852L160.004 48.991C160.156 48.5574 160.354 48.2519 160.6 48.0791C160.844 47.9063 161.186 47.8199 161.625 47.8199C162.274 47.8199 162.714 47.9202 162.948 48.1239C163.181 48.3275 163.3 48.6654 163.3 49.1407V49.3875C162.856 49.5758 162.057 49.7779 160.905 49.9954C160.053 50.1605 159.399 50.3518 158.947 50.5725C158.494 50.7931 158.141 51.1094 157.89 51.5229C157.64 51.938 157.514 52.4086 157.514 52.9362C157.514 53.7339 157.791 54.3958 158.342 54.9173C158.893 55.4389 159.649 55.7012 160.607 55.7012C161.151 55.7012 161.662 55.5993 162.142 55.3926C162.622 55.1874 163.072 54.8788 163.491 54.4684C163.508 54.5146 163.539 54.6119 163.579 54.7584L163.582 54.76ZM163.301 51.4936C163.301 52.0876 163.269 52.4888 163.206 52.7002C163.112 53.0226 162.916 53.2973 162.618 53.5195C162.214 53.8126 161.791 53.9592 161.347 53.9592C160.95 53.9592 160.623 53.8327 160.366 53.5812C160.11 53.3297 159.981 53.0288 159.981 52.6832C159.981 52.3376 160.142 52.0398 160.463 51.8115C160.675 51.671 161.122 51.5276 161.804 51.381C162.487 51.2344 162.988 51.1079 163.304 51.0014V51.4952L163.301 51.4936Z" fill="#005A9C"></path><path d="M167.526 50.7619C167.526 52.0132 167.813 53.0578 168.386 53.8972C169.117 54.9602 170.108 55.491 171.358 55.491C172.48 55.491 173.41 54.9864 174.145 53.9758V55.3413C174.145 55.8937 174.107 56.2717 174.032 56.4769C173.919 56.7639 173.757 56.9722 173.54 57.1018C173.219 57.2962 172.735 57.3919 172.093 57.3919C171.59 57.3919 171.223 57.3039 170.989 57.128C170.82 57.0046 170.711 56.7778 170.665 56.4491L167.851 56.1051C167.845 56.2223 167.844 56.3226 167.844 56.4044C167.844 57.2376 168.174 57.9273 168.834 58.4704C169.495 59.0135 170.613 59.285 172.192 59.285C173.027 59.285 173.718 59.1971 174.265 59.0212C174.81 58.8453 175.246 58.6015 175.575 58.2898C175.904 57.9782 176.157 57.5492 176.337 57.003C176.518 56.4569 176.61 55.6314 176.61 54.5282V46.1347H174.303V47.4462C173.555 46.431 172.606 45.9233 171.454 45.9233C170.303 45.9233 169.404 46.3368 168.653 47.1654C167.904 47.9924 167.527 49.1912 167.527 50.7589L167.526 50.7619ZM170.625 48.5108C171.008 48.0495 171.494 47.8196 172.084 47.8196C172.674 47.8196 173.194 48.0541 173.592 48.5247C173.99 48.9937 174.188 49.7143 174.188 50.6817C174.188 51.6491 173.981 52.3095 173.568 52.7816C173.151 53.2538 172.643 53.4914 172.041 53.4914C171.481 53.4914 171.009 53.2615 170.627 52.8001C170.244 52.3388 170.052 51.6121 170.052 50.62C170.052 49.6279 170.244 48.9721 170.627 48.5108H170.625Z" fill="#005A9C"></path><path d="M181.453 42.5801H178.988V44.8698H181.453V42.5801Z" fill="#005A9C"></path><path d="M181.453 46.1377H178.988V55.4909H181.453V46.1377Z" fill="#005A9C"></path><path d="M186.33 51.2541C186.33 50.2095 186.393 49.4936 186.521 49.1048C186.647 48.7175 186.879 48.4058 187.218 48.1713C187.557 47.9368 187.94 47.8195 188.367 47.8195C188.7 47.8195 188.984 47.9013 189.222 48.0664C189.459 48.2299 189.631 48.4614 189.735 48.7576C189.84 49.0538 189.892 49.7065 189.892 50.7171V55.4894H192.355V49.6772C192.355 48.9551 192.311 48.3996 192.22 48.0124C192.129 47.6251 191.97 47.2779 191.736 46.9724C191.506 46.667 191.165 46.4155 190.715 46.2195C190.266 46.0236 189.769 45.9248 189.227 45.9248C187.992 45.9248 186.969 46.4525 186.158 47.5109V46.1362H183.87V55.4894H186.333V51.2525L186.33 51.2541Z" fill="#005A9C"></path><path d="M195.118 53.8957C195.849 54.9588 196.84 55.4895 198.09 55.4895C199.212 55.4895 200.142 54.985 200.877 53.9744V55.3399C200.877 55.8922 200.839 56.2702 200.764 56.4754C200.651 56.7624 200.489 56.9707 200.272 57.1003C199.951 57.2947 199.467 57.3904 198.825 57.3904C198.322 57.3904 197.955 57.3025 197.721 57.1266C197.552 57.0031 197.443 56.7763 197.397 56.4477L194.584 56.1036C194.577 56.2209 194.576 56.3212 194.576 56.4029C194.576 57.2361 194.906 57.9258 195.566 58.4689C196.227 59.012 197.345 59.2836 198.924 59.2836C199.759 59.2836 200.45 59.1956 200.997 59.0197C201.542 58.8438 201.978 58.6 202.307 58.2884C202.636 57.9767 202.889 57.5478 203.069 57.0016C203.25 56.4554 203.342 55.6299 203.342 54.5267V46.1333H201.035V47.4447C200.288 46.4295 199.338 45.9219 198.187 45.9219C197.035 45.9219 196.136 46.3354 195.385 47.1639C194.636 47.9909 194.26 49.1898 194.26 50.7574C194.26 52.0087 194.547 53.0533 195.12 53.8926L195.118 53.8957ZM197.359 48.5109C197.741 48.0496 198.228 47.8197 198.818 47.8197C199.408 47.8197 199.928 48.0542 200.326 48.5248C200.724 48.9938 200.922 49.7144 200.922 50.6818C200.922 51.6492 200.714 52.3096 200.301 52.7817C199.885 53.2538 199.377 53.4914 198.775 53.4914C198.214 53.4914 197.743 53.2615 197.36 52.8002C196.978 52.3389 196.786 51.6122 196.786 50.6201C196.786 49.628 196.978 48.9722 197.36 48.5109H197.359Z" fill="#005A9C"></path><path d="M210.15 49.1498C210.15 51.1818 210.7 52.7818 211.8 53.9544C212.898 55.1255 214.3 55.7103 216.008 55.7103C217.387 55.7103 218.524 55.3677 219.422 54.6842C220.319 54.0007 220.961 52.9531 221.346 51.5444L218.831 50.7436C218.614 51.6894 218.258 52.3822 217.76 52.8219C217.264 53.2616 216.671 53.4823 215.982 53.4823C215.046 53.4823 214.288 53.1351 213.703 52.4424C213.119 51.7496 212.826 50.5878 212.826 48.9554C212.826 47.4186 213.122 46.3046 213.717 45.618C214.309 44.9314 215.082 44.5874 216.036 44.5874C216.724 44.5874 217.31 44.7818 217.793 45.169C218.275 45.5563 218.591 46.084 218.743 46.7536L221.313 46.138C221.019 45.1042 220.582 44.3127 219.996 43.7603C219.015 42.8269 217.737 42.3594 216.166 42.3594C214.366 42.3594 212.915 42.9534 211.809 44.143C210.703 45.3326 210.152 47.0005 210.152 49.1498H210.15Z" fill="#005A9C"></path><path d="M225.209 55.121C225.983 55.5083 226.797 55.7012 227.649 55.7012C229.028 55.7012 230.173 55.2367 231.082 54.3048C231.989 53.3744 232.446 52.2018 232.446 50.787C232.446 49.3721 231.996 48.2226 231.096 47.3046C230.196 46.3865 229.042 45.9268 227.634 45.9268C226.723 45.9268 225.895 46.1289 225.157 46.5347C224.418 46.9405 223.847 47.5268 223.444 48.2951C223.042 49.0635 222.839 49.8597 222.839 50.682C222.839 51.7559 223.042 52.6678 223.444 53.4161C223.847 54.1644 224.436 54.7322 225.21 55.121H225.209ZM226.02 48.6824C226.457 48.1887 226.998 47.9418 227.64 47.9418C228.282 47.9418 228.823 48.1887 229.257 48.6824C229.693 49.1761 229.911 49.8797 229.911 50.7962C229.911 51.7127 229.693 52.4518 229.257 52.9455C228.823 53.4392 228.284 53.6861 227.64 53.6861C226.997 53.6861 226.457 53.4392 226.02 52.9455C225.581 52.4518 225.362 51.742 225.362 50.8147C225.362 49.8874 225.581 49.1761 226.02 48.6824Z" fill="#005A9C"></path><path d="M236.732 52.6014C236.732 51.0106 236.8 49.966 236.938 49.4661C237.074 48.9662 237.263 48.6222 237.503 48.4308C237.743 48.2395 238.034 48.1454 238.38 48.1454C238.725 48.1454 239.122 48.2812 239.538 48.5512L240.3 46.3942C239.779 46.0825 239.238 45.9282 238.678 45.9282C238.282 45.9282 237.925 46.0285 237.612 46.2275C237.299 46.4266 236.947 46.8416 236.557 47.4696V46.1396H234.269V55.4928H236.733V52.6044L236.732 52.6014Z" fill="#005A9C"></path><path d="M243.904 54.3371C244.365 54.8355 244.806 55.1888 245.223 55.394C245.641 55.5992 246.106 55.7026 246.621 55.7026C247.702 55.7026 248.622 55.2706 249.382 54.4035C250.142 53.5379 250.523 52.3236 250.523 50.7622C250.523 49.2008 250.147 48.0559 249.393 47.2042C248.639 46.3525 247.722 45.9282 246.639 45.9282C246.02 45.9282 245.457 46.0748 244.948 46.368C244.44 46.6611 244.038 47.0438 243.738 47.5128V46.1381H241.442V59.0492H243.906V54.3371H243.904ZM244.474 48.582C244.87 48.1161 245.371 47.8816 245.974 47.8816C246.578 47.8816 247.039 48.1192 247.429 48.5944C247.82 49.0696 248.017 49.7979 248.017 50.7792C248.017 51.8299 247.826 52.5859 247.446 53.0473C247.066 53.5086 246.59 53.7385 246.017 53.7385C245.444 53.7385 244.915 53.487 244.5 52.9855C244.084 52.4841 243.876 51.708 243.876 50.6557C243.876 49.7408 244.076 49.0495 244.472 48.582H244.474Z" fill="#005A9C"></path><path d="M254.311 55.121C255.085 55.5083 255.899 55.7012 256.751 55.7012C258.13 55.7012 259.274 55.2367 260.184 54.3048C261.091 53.3744 261.547 52.2018 261.547 50.787C261.547 49.3721 261.097 48.2226 260.197 47.3046C259.297 46.3865 258.144 45.9268 256.736 45.9268C255.825 45.9268 254.997 46.1289 254.258 46.5347C253.52 46.9405 252.948 47.5268 252.546 48.2951C252.144 49.0635 251.941 49.8597 251.941 50.682C251.941 51.7559 252.144 52.6678 252.546 53.4161C252.95 54.1644 253.538 54.7322 254.312 55.121H254.311ZM255.122 48.6824C255.559 48.1887 256.1 47.9418 256.742 47.9418C257.384 47.9418 257.924 48.1887 258.359 48.6824C258.795 49.1761 259.013 49.8797 259.013 50.7962C259.013 51.7127 258.795 52.4518 258.359 52.9455C257.924 53.4392 257.385 53.6861 256.742 53.6861C256.098 53.6861 255.559 53.4392 255.122 52.9455C254.682 52.4518 254.464 51.742 254.464 50.8147C254.464 49.8874 254.682 49.1761 255.122 48.6824Z" fill="#005A9C"></path><path d="M266.715 46.2259C266.403 46.425 266.05 46.84 265.66 47.468V46.138H263.372V55.4912H265.837V52.6028C265.837 51.0121 265.904 49.9675 266.043 49.4676C266.179 48.9677 266.368 48.6236 266.608 48.4323C266.847 48.241 267.139 48.1469 267.485 48.1469C267.83 48.1469 268.226 48.2826 268.643 48.5527L269.404 46.3957C268.884 46.084 268.343 45.9297 267.783 45.9297C267.386 45.9297 267.03 46.03 266.717 46.229L266.715 46.2259Z" fill="#005A9C"></path><path d="M277.993 52.4178L278.019 49.5295C278.019 48.4541 277.908 47.7165 277.692 47.3138C277.472 46.9127 277.094 46.581 276.555 46.3187C276.018 46.0579 275.199 45.9268 274.099 45.9268C272.889 45.9268 271.978 46.1443 271.366 46.5779C270.753 47.0114 270.32 47.6826 270.068 48.5852L272.304 48.991C272.456 48.5574 272.654 48.2519 272.9 48.0791C273.144 47.9063 273.487 47.8199 273.926 47.8199C274.574 47.8199 275.015 47.9202 275.248 48.1239C275.482 48.3275 275.6 48.6654 275.6 49.1407V49.3875C275.156 49.5758 274.357 49.7779 273.205 49.9954C272.353 50.1605 271.699 50.3518 271.247 50.5725C270.794 50.7931 270.441 51.1094 270.191 51.5229C269.94 51.938 269.814 52.4086 269.814 52.9362C269.814 53.7339 270.091 54.3958 270.642 54.9173C271.194 55.4389 271.949 55.7012 272.908 55.7012C273.451 55.7012 273.963 55.5993 274.442 55.3926C274.923 55.1874 275.372 54.8788 275.792 54.4684C275.809 54.5146 275.839 54.6119 275.879 54.7584C275.971 55.0809 276.051 55.3247 276.116 55.4898H278.552C278.335 55.0439 278.188 54.6257 278.109 54.2338C278.031 53.8435 277.989 53.2371 277.989 52.4163L277.993 52.4178ZM275.6 51.4921C275.6 52.0861 275.568 52.4872 275.505 52.6986C275.411 53.0211 275.214 53.2957 274.916 53.5179C274.512 53.8111 274.09 53.9577 273.646 53.9577C273.249 53.9577 272.921 53.8311 272.665 53.5796C272.408 53.3281 272.279 53.0273 272.279 52.6817C272.279 52.336 272.441 52.0383 272.762 51.8099C272.974 51.6695 273.421 51.526 274.102 51.3794C274.786 51.2329 275.286 51.1063 275.603 50.9999V51.4936L275.6 51.4921Z" fill="#005A9C"></path><path d="M283.689 53.6503C283.524 53.6503 283.386 53.6087 283.271 53.5269C283.157 53.4451 283.084 53.3402 283.053 53.2137C283.021 53.0872 283.004 52.6428 283.004 51.8791V48.1097H284.687V46.1363H283.004V42.8345L280.531 44.2786V46.1363H279.401V48.1097H280.531V52.1877C280.531 53.0625 280.557 53.6442 280.61 53.9312C280.674 54.3369 280.789 54.6579 280.957 54.8955C281.123 55.1331 281.385 55.326 281.741 55.4756C282.098 55.6253 282.499 55.7009 282.942 55.7009C283.667 55.7009 284.315 55.5774 284.888 55.3306L284.678 53.4096C284.245 53.5686 283.916 53.6473 283.687 53.6473L283.689 53.6503Z" fill="#005A9C"></path><path d="M288.97 42.5801H286.505V44.8698H288.97V42.5801Z" fill="#005A9C"></path><path d="M288.97 46.1377H286.505V55.4909H288.97V46.1377Z" fill="#005A9C"></path><path d="M295.688 45.9268C294.777 45.9268 293.949 46.1289 293.211 46.5347C292.472 46.9405 291.901 47.5268 291.498 48.2951C291.094 49.0635 290.893 49.8597 290.893 50.682C290.893 51.7559 291.096 52.6678 291.498 53.4161C291.901 54.1644 292.49 54.7322 293.264 55.121C294.038 55.5083 294.852 55.7012 295.705 55.7012C297.084 55.7012 298.228 55.2367 299.137 54.3048C300.045 53.3744 300.501 52.2018 300.501 50.787C300.501 49.3721 300.051 48.2226 299.151 47.3046C298.251 46.3865 297.098 45.9268 295.689 45.9268H295.688ZM297.313 52.9455C296.878 53.4392 296.339 53.6861 295.695 53.6861C295.052 53.6861 294.513 53.4392 294.075 52.9455C293.636 52.4518 293.418 51.742 293.418 50.8147C293.418 49.8874 293.636 49.1761 294.075 48.6824C294.513 48.1887 295.054 47.9418 295.695 47.9418C296.337 47.9418 296.878 48.1887 297.313 48.6824C297.749 49.1761 297.967 49.8797 297.967 50.7962C297.967 51.7127 297.749 52.4518 297.313 52.9455Z" fill="#005A9C"></path><path d="M310.719 48.0143C310.628 47.6271 310.468 47.2799 310.235 46.9744C310.005 46.6689 309.664 46.4174 309.214 46.2215C308.765 46.0255 308.268 45.9268 307.725 45.9268C306.491 45.9268 305.468 46.4544 304.657 47.5129V46.1381H302.369V55.4913H304.832V51.2545C304.832 50.2099 304.895 49.494 305.022 49.1052C305.148 48.7179 305.38 48.4062 305.72 48.1717C306.059 47.9372 306.442 47.8199 306.869 47.8199C307.202 47.8199 307.486 47.9017 307.724 48.0668C307.96 48.2303 308.132 48.4618 308.237 48.758C308.341 49.0543 308.394 49.7069 308.394 50.7175V55.4898H310.857V49.6776C310.857 48.9555 310.812 48.4001 310.722 48.0128L310.719 48.0143Z" fill="#005A9C"></path><path d="M124.579 68.8264V67.5288H116.671V78.5159H124.834V77.2199H118.119V73.4798H124.169V72.19H118.119V68.8264H124.579Z" fill="#005A9C"></path><path d="M126.554 70.558V78.5163H127.896V74.1699C127.896 73.1501 128.104 72.4588 128.52 72.0932C128.936 71.729 129.427 71.547 130 71.547C130.358 71.547 130.67 71.6287 130.937 71.7908C131.203 71.9528 131.387 72.1703 131.493 72.4434C131.598 72.715 131.65 73.1269 131.65 73.6762V78.5179H132.992V73.6237C132.992 72.9989 132.968 72.5622 132.917 72.3123C132.838 71.9281 132.699 71.5948 132.499 71.3155C132.299 71.0363 132 70.8095 131.601 70.6367C131.201 70.4654 130.762 70.3774 130.284 70.3774C129.185 70.3774 128.343 70.8141 127.761 71.6889V70.558H126.552H126.554Z" fill="#005A9C"></path><path d="M140.35 71.5157C139.745 70.7566 138.972 70.3755 138.037 70.3755C137.335 70.3755 136.726 70.5498 136.206 70.9001C135.687 71.2503 135.29 71.7456 135.016 72.3875C134.743 73.0293 134.606 73.7298 134.606 74.4905C134.606 75.5952 134.904 76.541 135.5 77.331C136.097 78.1209 136.941 78.5159 138.031 78.5159C138.905 78.5159 139.637 78.1688 140.224 77.4745C140.229 78.3539 140.196 78.931 140.127 79.2056C140.008 79.6561 139.779 80.0049 139.441 80.2548C139.103 80.5048 138.624 80.6297 138.002 80.6297C137.424 80.6297 136.97 80.5048 136.635 80.2548C136.388 80.0697 136.236 79.775 136.18 79.3707L134.875 79.1763C134.855 80.0357 135.136 80.6791 135.718 81.1065C136.3 81.5339 137.063 81.7468 138.008 81.7468C138.804 81.7468 139.475 81.5971 140.02 81.2963C140.564 80.997 140.963 80.5881 141.213 80.0712C141.464 79.5543 141.589 78.6764 141.589 77.4374V70.5576H140.35V71.5172V71.5157ZM139.71 76.6829C139.29 77.1597 138.773 77.3989 138.157 77.3989C137.541 77.3989 137.017 77.1597 136.606 76.6799C136.194 76.2 135.988 75.4378 135.988 74.3933C135.988 73.4336 136.197 72.7115 136.615 72.2239C137.033 71.7363 137.541 71.4926 138.137 71.4926C138.733 71.4926 139.261 71.7394 139.693 72.2347C140.123 72.73 140.338 73.4644 140.338 74.438C140.338 75.4116 140.129 76.2062 139.711 76.6829H139.71Z" fill="#005A9C"></path><path d="M145.011 70.5576H143.669V78.516H145.011V70.5576Z" fill="#005A9C"></path><path d="M145.011 67.5288H143.669V69.081H145.011V67.5288Z" fill="#005A9C"></path><path d="M153.538 78.5159V73.6218C153.538 72.9969 153.513 72.5603 153.463 72.3103C153.384 71.9261 153.245 71.5929 153.045 71.3136C152.845 71.0343 152.546 70.8075 152.147 70.6347C151.747 70.4634 151.308 70.3755 150.83 70.3755C149.731 70.3755 148.889 70.8121 148.307 71.687V70.556H147.098V78.5144H148.441V74.168C148.441 73.1481 148.648 72.4569 149.064 72.0912C149.48 71.7271 149.972 71.545 150.545 71.545C150.903 71.545 151.214 71.6268 151.482 71.7888C151.747 71.9508 151.932 72.1684 152.038 72.4415C152.142 72.713 152.194 73.125 152.194 73.6743V78.5159H153.536H153.538Z" fill="#005A9C"></path><path d="M162.518 74.5217C162.518 73.2072 162.181 72.1888 161.51 71.4637C160.839 70.74 159.974 70.3774 158.913 70.3774C157.852 70.3774 156.929 70.7477 156.242 71.4868C155.556 72.2259 155.213 73.2658 155.213 74.6035C155.213 75.9412 155.553 76.904 156.232 77.6199C156.909 78.3374 157.829 78.6953 158.988 78.6953C159.908 78.6953 160.664 78.4701 161.255 78.0211C161.848 77.5721 162.253 76.9395 162.473 76.1248L161.085 75.952C160.88 76.5213 160.604 76.9364 160.257 77.1956C159.908 77.4564 159.487 77.586 158.998 77.586C158.336 77.586 157.783 77.353 157.34 76.8886C156.898 76.4241 156.652 75.7545 156.602 74.8797H162.51C162.516 74.7192 162.518 74.6004 162.518 74.5202V74.5217ZM156.677 73.7719C156.722 73.0776 156.953 72.5221 157.374 72.1071C157.795 71.692 158.314 71.4853 158.93 71.4853C159.61 71.4853 160.166 71.746 160.593 72.2644C160.873 72.5992 161.042 73.1007 161.102 73.7719H156.677Z" fill="#005A9C"></path><path d="M168.85 77.1971C168.501 77.4579 168.08 77.5875 167.59 77.5875C166.928 77.5875 166.376 77.3545 165.933 76.8901C165.491 76.4257 165.245 75.7561 165.195 74.8812H171.103C171.109 74.7208 171.11 74.602 171.11 74.5217C171.11 73.2072 170.774 72.1888 170.103 71.4637C169.432 70.74 168.567 70.3774 167.506 70.3774C166.445 70.3774 165.522 70.7477 164.835 71.4868C164.149 72.2259 163.806 73.2658 163.806 74.6035C163.806 75.9412 164.146 76.904 164.824 77.6199C165.502 78.3374 166.422 78.6953 167.581 78.6953C168.501 78.6953 169.257 78.4701 169.848 78.0211C170.441 77.5721 170.846 76.9395 171.066 76.1248L169.677 75.952C169.473 76.5213 169.197 76.9364 168.85 77.1956V77.1971ZM165.967 72.1086C166.388 71.6936 166.907 71.4868 167.523 71.4868C168.203 71.4868 168.759 71.7476 169.186 72.266C169.466 72.6008 169.635 73.1022 169.694 73.7734H165.27C165.314 73.0791 165.546 72.5236 165.967 72.1086Z" fill="#005A9C"></path><path d="M172.817 70.5576V78.516H174.159V74.3486C174.159 73.7792 174.234 73.2547 174.383 72.7748C174.482 72.4601 174.651 72.2132 174.884 72.0358C175.117 71.8583 175.382 71.7688 175.675 71.7688C176.002 71.7688 176.331 71.866 176.658 72.0604L177.12 70.8091C176.653 70.5191 176.192 70.374 175.741 70.374C175.428 70.374 175.14 70.4651 174.878 70.644C174.617 70.823 174.333 71.1964 174.024 71.7611V70.5545H172.814L172.817 70.5576Z" fill="#005A9C"></path><path d="M183.574 78.0207C184.166 77.5717 184.572 76.9391 184.791 76.1244L183.403 75.9516C183.199 76.5209 182.922 76.936 182.575 77.1952C182.227 77.456 181.806 77.5856 181.316 77.5856C180.654 77.5856 180.101 77.3526 179.659 76.8882C179.217 76.4237 178.971 75.7541 178.92 74.8793H184.828C184.834 74.7188 184.836 74.6 184.836 74.5198C184.836 73.2052 184.5 72.1869 183.828 71.4617C183.157 70.7381 182.293 70.3755 181.231 70.3755C180.17 70.3755 179.247 70.7458 178.561 71.4848C177.874 72.2239 177.532 73.2638 177.532 74.6015C177.532 75.9393 177.871 76.902 178.55 77.618C179.227 78.3354 180.147 78.6934 181.307 78.6934C182.227 78.6934 182.982 78.4681 183.574 78.0191V78.0207ZM179.691 72.1066C180.112 71.6916 180.631 71.4848 181.247 71.4848C181.927 71.4848 182.483 71.7456 182.91 72.264C183.19 72.5988 183.359 73.1003 183.418 73.7715H178.994C179.038 73.0771 179.27 72.5217 179.691 72.1066Z" fill="#005A9C"></path><path d="M192.974 78.5159V67.5288H191.638V71.471C191.404 71.147 191.102 70.8816 190.729 70.681C190.355 70.4789 189.93 70.377 189.454 70.377C188.803 70.377 188.213 70.5498 187.686 70.8955C187.159 71.2395 186.763 71.7348 186.501 72.3828C186.236 73.0309 186.106 73.7514 186.106 74.5445C186.106 75.3375 186.252 76.0797 186.542 76.7061C186.834 77.3341 187.244 77.8216 187.774 78.1719C188.302 78.5206 188.883 78.6965 189.515 78.6965C190.489 78.6965 191.228 78.3015 191.73 77.513V78.5175H192.977L192.974 78.5159ZM191.134 76.8635C190.724 77.3464 190.226 77.5871 189.64 77.5871C189.053 77.5871 188.552 77.3356 188.126 76.8295C187.697 76.325 187.484 75.5628 187.484 74.5429C187.484 73.5231 187.683 72.7176 188.083 72.227C188.483 71.7363 188.981 71.491 189.578 71.491C190.176 71.491 190.704 71.7456 191.122 72.2563C191.541 72.7655 191.75 73.5647 191.75 74.654C191.75 75.643 191.544 76.379 191.134 76.8619V76.8635Z" fill="#005A9C"></path><path d="M207.517 69.2075C207.295 68.7523 207.004 68.399 206.64 68.1475C206.277 67.896 205.827 67.7248 205.29 67.6337C204.907 67.5643 204.353 67.5288 203.626 67.5288H199.501V78.5159H200.949V74.0492H203.754C205.3 74.0492 206.369 73.7252 206.962 73.0787C207.553 72.4322 207.85 71.6407 207.85 70.7072C207.85 70.1626 207.738 69.6627 207.517 69.209V69.2075ZM205.767 72.2285C205.374 72.5772 204.711 72.7531 203.775 72.7531H200.948V68.8264H203.745C204.402 68.8264 204.85 68.8588 205.095 68.9236C205.472 69.0285 205.776 69.2445 206.007 69.5716C206.239 69.8987 206.355 70.2922 206.355 70.752C206.355 71.3861 206.157 71.8783 205.766 72.2285H205.767Z" fill="#005A9C"></path><path d="M209.478 70.5576V78.516H210.82V74.3486C210.82 73.7792 210.895 73.2547 211.044 72.7748C211.142 72.4601 211.311 72.2132 211.545 72.0358C211.778 71.8583 212.042 71.7688 212.336 71.7688C212.663 71.7688 212.992 71.866 213.319 72.0604L213.781 70.8091C213.314 70.5191 212.853 70.374 212.402 70.374C212.089 70.374 211.801 70.4651 211.539 70.644C211.278 70.823 210.994 71.1964 210.685 71.7611V70.5545H209.475L209.478 70.5576Z" fill="#005A9C"></path><path d="M219.806 78.2093C220.391 77.8853 220.837 77.4286 221.141 76.8407C221.446 76.2544 221.6 75.449 221.6 74.4245C221.6 73.1609 221.254 72.1703 220.563 71.4529C219.872 70.7354 218.981 70.3774 217.892 70.3774C216.913 70.3774 216.082 70.6737 215.4 71.2631C214.584 71.9728 214.176 73.0637 214.176 74.5387C214.176 75.8826 214.518 76.9117 215.202 77.6261C215.885 78.3404 216.784 78.6984 217.892 78.6984C218.582 78.6984 219.221 78.5364 219.804 78.2108L219.806 78.2093ZM215.558 74.5372C215.558 73.5173 215.779 72.7566 216.221 72.2505C216.664 71.746 217.223 71.493 217.894 71.493C218.565 71.493 219.109 71.746 219.554 72.2536C219.998 72.7597 220.221 73.5065 220.221 74.4909C220.221 75.5354 219.999 76.3115 219.557 76.8222C219.115 77.3314 218.559 77.586 217.894 77.586C217.229 77.586 216.664 77.3329 216.221 76.8253C215.779 76.3192 215.558 75.5555 215.558 74.5356V74.5372Z" fill="#005A9C"></path><path d="M226.264 78.5006L226.07 77.3095C225.826 77.3434 225.63 77.362 225.481 77.362C225.281 77.362 225.129 77.3296 225.023 77.2648C224.915 77.2 224.837 77.112 224.791 77.0025C224.743 76.8914 224.72 76.646 224.72 76.2603V71.6069H226.07V70.5577H224.72V67.7773L223.386 68.5874V70.5592H222.401V71.6084H223.386V76.1878C223.386 76.9978 223.441 77.5286 223.55 77.7801C223.658 78.0316 223.848 78.2368 224.117 78.3911C224.386 78.5469 224.763 78.6241 225.252 78.6241C225.55 78.6241 225.889 78.584 226.265 78.5037L226.264 78.5006Z" fill="#005A9C"></path><path d="M232.774 75.9536C232.57 76.5229 232.293 76.9379 231.946 77.1971C231.598 77.4579 231.177 77.5875 230.687 77.5875C230.025 77.5875 229.472 77.3545 229.03 76.8901C228.588 76.4257 228.342 75.7561 228.291 74.8812H234.199C234.206 74.7208 234.207 74.602 234.207 74.5217C234.207 73.2072 233.871 72.1888 233.2 71.4637C232.528 70.74 231.664 70.3774 230.603 70.3774C229.541 70.3774 228.618 70.7477 227.932 71.4868C227.245 72.2259 226.903 73.2658 226.903 74.6035C226.903 75.9412 227.242 76.904 227.921 77.6199C228.598 78.3374 229.518 78.6953 230.678 78.6953C231.598 78.6953 232.353 78.4701 232.945 78.0211C233.537 77.5721 233.943 76.9395 234.163 76.1248L232.774 75.952V75.9536ZM229.062 72.1086C229.483 71.6936 230.002 71.4868 230.618 71.4868C231.298 71.4868 231.854 71.7476 232.281 72.266C232.561 72.6008 232.73 73.1022 232.79 73.7734H228.365C228.409 73.0791 228.641 72.5236 229.062 72.1086Z" fill="#005A9C"></path><path d="M237.265 70.8604C236.684 71.1828 236.253 71.6658 235.969 72.3107C235.686 72.9557 235.543 73.7071 235.543 74.5665C235.543 75.8965 235.873 76.9148 236.534 77.6276C237.193 78.3389 238.063 78.6953 239.148 78.6953C240.014 78.6953 240.743 78.4361 241.338 77.9192C241.932 77.4024 242.301 76.6864 242.445 75.7715L241.124 75.5987C241.031 76.2729 240.808 76.7728 240.453 77.0969C240.1 77.4224 239.661 77.5844 239.134 77.5844C238.477 77.5844 237.945 77.3422 237.537 76.8577C237.128 76.3732 236.925 75.5956 236.925 74.5264C236.925 73.4571 237.137 72.7011 237.56 72.2151C237.984 71.7275 238.532 71.4853 239.209 71.4853C239.658 71.4853 240.038 71.6195 240.355 71.891C240.671 72.1611 240.891 72.5622 241.015 73.0976L242.321 72.8955C242.167 72.0916 241.815 71.4698 241.27 71.0332C240.723 70.5965 240.019 70.3774 239.158 70.3774C238.478 70.3774 237.847 70.5394 237.268 70.8619L237.265 70.8604Z" fill="#005A9C"></path><path d="M246.933 78.5006L246.739 77.3095C246.495 77.3434 246.298 77.362 246.149 77.362C245.95 77.362 245.798 77.3296 245.692 77.2648C245.584 77.2 245.506 77.112 245.46 77.0025C245.412 76.8914 245.389 76.646 245.389 76.2603V71.6069H246.739V70.5577H245.389V67.7773L244.055 68.5874V70.5592H243.07V71.6084H244.055V76.1878C244.055 76.9978 244.11 77.5286 244.219 77.7801C244.326 78.0316 244.517 78.2368 244.786 78.3911C245.054 78.5469 245.432 78.6241 245.921 78.6241C246.218 78.6241 246.558 78.584 246.934 78.5037L246.933 78.5006Z" fill="#005A9C"></path><path d="M249.53 70.5576H248.188V78.516H249.53V70.5576Z" fill="#005A9C"></path><path d="M249.53 67.5288H248.188V69.081H249.53V67.5288Z" fill="#005A9C"></path><path d="M254.97 75.4133C254.756 76.0027 254.59 76.5072 254.47 76.9269C254.315 76.3714 254.148 75.8376 253.962 75.3222L252.262 70.5562H250.846L253.859 78.5145H255.112L258.11 70.5562H256.731L254.97 75.4133Z" fill="#005A9C"></path><path d="M262.389 70.377C261.295 70.377 260.405 70.7473 259.718 71.4864C259.032 72.2255 258.689 73.2654 258.689 74.6031C258.689 75.9408 259.029 76.9036 259.707 77.6195C260.385 78.337 261.305 78.6949 262.464 78.6949C263.384 78.6949 264.14 78.4696 264.731 78.0207C265.324 77.5717 265.729 76.9391 265.949 76.1244L264.561 75.9516C264.356 76.5209 264.08 76.936 263.733 77.1952C263.384 77.456 262.963 77.5856 262.473 77.5856C261.811 77.5856 261.259 77.3526 260.816 76.8882C260.374 76.4237 260.128 75.7541 260.078 74.8793H265.986C265.992 74.7188 265.993 74.6 265.993 74.5198C265.993 73.2052 265.657 72.1869 264.986 71.4617C264.315 70.7381 263.45 70.3755 262.389 70.3755V70.377ZM260.151 73.773C260.196 73.0787 260.428 72.5232 260.849 72.1082C261.269 71.6931 261.788 71.4864 262.404 71.4864C263.085 71.4864 263.641 71.7471 264.068 72.2656C264.347 72.6004 264.516 73.1018 264.576 73.773H260.151Z" fill="#005A9C"></path><path d="M123.78 85.5303C123.418 85.2788 122.968 85.1076 122.43 85.0165C122.048 84.9471 121.494 84.9116 120.767 84.9116H116.642V95.8987H118.09V91.432H120.895C122.441 91.432 123.51 91.108 124.103 90.4615C124.694 89.815 124.991 89.0235 124.991 88.09C124.991 87.5454 124.879 87.0455 124.657 86.5919C124.436 86.1382 124.144 85.7834 123.78 85.5319V85.5303ZM122.908 89.6113C122.515 89.96 121.852 90.1359 120.916 90.1359H118.089V86.2092H120.885C121.543 86.2092 121.991 86.2416 122.235 86.3064C122.613 86.4113 122.917 86.6273 123.148 86.9544C123.38 87.2815 123.496 87.675 123.496 88.1348C123.496 88.7689 123.298 89.2611 122.907 89.6113H122.908Z" fill="#005A9C"></path><path d="M132.971 92.5644V90.7654C132.971 90.1652 132.948 89.7517 132.903 89.5218C132.823 89.1515 132.683 88.846 132.484 88.6037C132.286 88.3615 131.974 88.1609 131.552 88.0005C131.129 87.84 130.579 87.7598 129.902 87.7598C129.225 87.7598 128.621 87.8539 128.104 88.0406C127.586 88.2273 127.191 88.4957 126.918 88.8429C126.645 89.1901 126.448 89.6452 126.328 90.2099L127.641 90.3905C127.786 89.8257 128.008 89.4323 128.309 89.2101C128.61 88.9879 129.076 88.8753 129.707 88.8753C130.384 88.8753 130.894 89.028 131.237 89.3335C131.49 89.5588 131.618 89.9445 131.618 90.4954C131.618 90.5447 131.614 90.662 131.61 90.8472C131.098 91.0261 130.3 91.182 129.216 91.3116C128.683 91.3764 128.285 91.4443 128.022 91.5137C127.664 91.614 127.342 91.7606 127.056 91.9565C126.771 92.1525 126.539 92.4101 126.364 92.7326C126.187 93.0551 126.098 93.4099 126.098 93.8003C126.098 94.4653 126.331 95.0099 126.8 95.4373C127.268 95.8647 127.936 96.0777 128.806 96.0777C129.332 96.0777 129.827 95.9897 130.286 95.8154C130.745 95.641 131.224 95.3417 131.722 94.9158C131.763 95.2908 131.853 95.6179 131.992 95.8971H133.394C133.226 95.5916 133.112 95.2738 133.054 94.9405C132.997 94.6088 132.969 93.8157 132.969 92.5613L132.971 92.5644ZM131.611 92.3993C131.611 92.9934 131.539 93.4439 131.395 93.7478C131.206 94.1428 130.91 94.4545 130.507 94.6813C130.106 94.9081 129.644 95.0223 129.128 95.0223C128.612 95.0223 128.208 94.902 127.938 94.6628C127.666 94.4221 127.531 94.1228 127.531 93.7633C127.531 93.5287 127.594 93.3143 127.718 93.123C127.843 92.9316 128.019 92.7851 128.246 92.6848C128.475 92.5845 128.865 92.495 129.418 92.4148C130.392 92.2744 131.123 92.1046 131.611 91.9056V92.4009V92.3993Z" fill="#005A9C"></path><path d="M139.548 94.4821C139.195 94.8077 138.756 94.9697 138.229 94.9697C137.572 94.9697 137.041 94.7274 136.632 94.243C136.223 93.7585 136.021 92.9809 136.021 91.9116C136.021 90.8424 136.233 90.0863 136.655 89.6003C137.079 89.1127 137.627 88.8705 138.304 88.8705C138.753 88.8705 139.134 89.0047 139.45 89.2763C139.767 89.5463 139.986 89.9475 140.111 90.4829L141.416 90.2807C141.262 89.4769 140.911 88.8551 140.366 88.4184C139.819 87.9818 139.114 87.7627 138.254 87.7627C137.573 87.7627 136.942 87.9247 136.363 88.2472C135.783 88.5696 135.351 89.0526 135.067 89.6975C134.784 90.3425 134.642 91.0939 134.642 91.9533C134.642 93.2833 134.972 94.3016 135.632 95.0144C136.291 95.7257 137.162 96.0821 138.246 96.0821C139.112 96.0821 139.842 95.8229 140.436 95.306C141.031 94.7892 141.399 94.0732 141.543 93.1583L140.223 92.9855C140.129 93.6597 139.906 94.1596 139.552 94.4837L139.548 94.4821Z" fill="#005A9C"></path><path d="M149.155 87.9404H147.418L144.24 91.1774V84.9116H142.898V95.8987H144.24V92.7435L145.188 91.8301L147.806 95.8987H149.462L146.128 90.8935L149.155 87.9404Z" fill="#005A9C"></path><path d="M156.977 92.5644V90.7654C156.977 90.1652 156.954 89.7517 156.909 89.5218C156.829 89.1515 156.689 88.846 156.49 88.6037C156.292 88.3615 155.98 88.1609 155.558 88.0005C155.135 87.84 154.585 87.7598 153.908 87.7598C153.231 87.7598 152.627 87.8539 152.11 88.0406C151.592 88.2273 151.197 88.4957 150.924 88.8429C150.651 89.1901 150.454 89.6452 150.334 90.2099L151.647 90.3905C151.792 89.8257 152.015 89.4323 152.316 89.2101C152.617 88.9879 153.082 88.8753 153.713 88.8753C154.39 88.8753 154.9 89.028 155.243 89.3335C155.496 89.5588 155.624 89.9445 155.624 90.4954C155.624 90.5447 155.621 90.662 155.616 90.8472C155.105 91.0261 154.306 91.182 153.222 91.3116C152.689 91.3764 152.291 91.4443 152.028 91.5137C151.671 91.614 151.348 91.7606 151.062 91.9565C150.777 92.1525 150.545 92.4101 150.37 92.7326C150.193 93.0551 150.104 93.4099 150.104 93.8003C150.104 94.4653 150.337 95.0099 150.806 95.4373C151.274 95.8647 151.942 96.0777 152.812 96.0777C153.338 96.0777 153.833 95.9897 154.292 95.8154C154.751 95.641 155.23 95.3417 155.728 94.9158C155.77 95.2908 155.859 95.6179 155.998 95.8971H157.401C157.232 95.5916 157.118 95.2738 157.06 94.9405C157.003 94.6088 156.975 93.8157 156.975 92.5613L156.977 92.5644ZM155.618 92.3993C155.618 92.9934 155.545 93.4439 155.401 93.7478C155.212 94.1428 154.916 94.4545 154.513 94.6813C154.112 94.9081 153.65 95.0223 153.134 95.0223C152.618 95.0223 152.214 94.902 151.944 94.6628C151.672 94.4221 151.537 94.1228 151.537 93.7633C151.537 93.5287 151.6 93.3143 151.724 93.123C151.849 92.9316 152.025 92.7851 152.253 92.6848C152.481 92.5845 152.872 92.495 153.424 92.4148C154.398 92.2744 155.129 92.1046 155.618 91.9056V92.4009V92.3993Z" fill="#005A9C"></path><path d="M164.336 88.8985C163.731 88.1394 162.959 87.7583 162.023 87.7583C161.321 87.7583 160.712 87.9326 160.193 88.2829C159.673 88.6331 159.276 89.1284 159.002 89.7703C158.729 90.4121 158.592 91.1126 158.592 91.8733C158.592 92.978 158.89 93.9238 159.486 94.7138C160.084 95.5038 160.927 95.8987 162.017 95.8987C162.891 95.8987 163.624 95.5516 164.21 94.8573C164.215 95.7367 164.183 96.3138 164.113 96.5884C163.994 97.039 163.765 97.3877 163.427 97.6376C163.089 97.8876 162.61 98.0125 161.988 98.0125C161.41 98.0125 160.956 97.8876 160.621 97.6376C160.374 97.4525 160.222 97.1578 160.166 96.7535L158.861 96.5591C158.841 97.4185 159.122 98.0619 159.704 98.4893C160.286 98.9167 161.05 99.1296 161.994 99.1296C162.79 99.1296 163.461 98.98 164.006 98.6791C164.55 98.3798 164.949 97.9709 165.199 97.454C165.45 96.9371 165.576 96.0592 165.576 94.8202V87.9404H164.336V88.9001V88.8985ZM163.696 94.0657C163.276 94.5425 162.759 94.7817 162.143 94.7817C161.527 94.7817 161.003 94.5425 160.592 94.0627C160.18 93.5828 159.974 92.8206 159.974 91.7761C159.974 90.8164 160.183 90.0943 160.601 89.6067C161.019 89.1192 161.527 88.8754 162.123 88.8754C162.719 88.8754 163.247 89.1222 163.679 89.6175C164.109 90.1128 164.324 90.8472 164.324 91.8208C164.324 92.7944 164.115 93.589 163.697 94.0657H163.696Z" fill="#005A9C"></path><path d="M169.005 84.9116H167.663V86.4638H169.005V84.9116Z" fill="#005A9C"></path><path d="M169.005 87.9404H167.663V95.8988H169.005V87.9404Z" fill="#005A9C"></path><path d="M177.045 88.6964C176.845 88.4171 176.546 88.1903 176.146 88.0175C175.747 87.8462 175.308 87.7583 174.83 87.7583C173.731 87.7583 172.889 88.1949 172.307 89.0698V87.9388H171.098V95.8972H172.44V91.5508C172.44 90.5309 172.648 89.8397 173.064 89.474C173.48 89.1099 173.972 88.9278 174.544 88.9278C174.902 88.9278 175.214 89.0096 175.481 89.1716C175.747 89.3336 175.931 89.5512 176.037 89.8243C176.142 90.0958 176.194 90.5078 176.194 91.0571V95.8987H177.536V91.0046C177.536 90.3797 177.512 89.9431 177.461 89.6931C177.383 89.3089 177.243 88.9757 177.043 88.6964H177.045Z" fill="#005A9C"></path><path d="M184.894 88.8985C184.289 88.1394 183.517 87.7583 182.581 87.7583C181.879 87.7583 181.27 87.9326 180.751 88.2829C180.232 88.6331 179.834 89.1284 179.56 89.7703C179.287 90.4121 179.15 91.1126 179.15 91.8733C179.15 92.978 179.448 93.9238 180.044 94.7138C180.642 95.5038 181.485 95.8987 182.575 95.8987C183.449 95.8987 184.182 95.5516 184.768 94.8573C184.773 95.7367 184.741 96.3138 184.672 96.5884C184.552 97.039 184.323 97.3877 183.985 97.6376C183.647 97.8876 183.168 98.0125 182.546 98.0125C181.969 98.0125 181.514 97.8876 181.179 97.6376C180.932 97.4525 180.78 97.1578 180.725 96.7535L179.419 96.5591C179.399 97.4185 179.68 98.0619 180.262 98.4893C180.844 98.9167 181.608 99.1296 182.552 99.1296C183.348 99.1296 184.019 98.98 184.564 98.6791C185.108 98.3798 185.507 97.9709 185.757 97.454C186.008 96.9371 186.134 96.0592 186.134 94.8202V87.9404H184.894V88.9001V88.8985ZM184.254 94.0657C183.835 94.5425 183.317 94.7817 182.701 94.7817C182.085 94.7817 181.562 94.5425 181.15 94.0627C180.738 93.5828 180.533 92.8206 180.533 91.7761C180.533 90.8164 180.741 90.0943 181.159 89.6067C181.577 89.1192 182.085 88.8754 182.681 88.8754C183.277 88.8754 183.805 89.1222 184.237 89.6175C184.667 90.1128 184.882 90.8472 184.882 91.8208C184.882 92.7944 184.673 93.589 184.255 94.0657H184.254Z" fill="#005A9C"></path><path d="M199.718 85.5303C199.355 85.2788 198.905 85.1076 198.368 85.0165C197.985 84.9471 197.431 84.9116 196.705 84.9116H192.579V95.8987H194.028V91.432H196.832C198.379 91.432 199.447 91.108 200.04 90.4615C200.632 89.815 200.928 89.0235 200.928 88.09C200.928 87.5454 200.816 87.0455 200.595 86.5919C200.374 86.1382 200.082 85.7834 199.718 85.5319V85.5303ZM198.845 89.6113C198.452 89.96 197.789 90.1359 196.853 90.1359H194.026V86.2092H196.823C197.48 86.2092 197.929 86.2416 198.173 86.3064C198.551 86.4113 198.855 86.6273 199.085 86.9544C199.317 87.2815 199.434 87.675 199.434 88.1348C199.434 88.7689 199.235 89.2611 198.844 89.6113H198.845Z" fill="#005A9C"></path><path d="M204.619 88.0299C204.357 88.2089 204.073 88.5823 203.765 89.147V87.9404H202.554V95.8988H203.897V91.7314C203.897 91.1621 203.972 90.6375 204.121 90.1576C204.219 89.8429 204.388 89.596 204.622 89.4186C204.855 89.2411 205.119 89.1516 205.413 89.1516C205.74 89.1516 206.068 89.2488 206.395 89.4432L206.858 88.1919C206.391 87.9019 205.93 87.7568 205.479 87.7568C205.165 87.7568 204.878 87.8479 204.615 88.0268L204.619 88.0299Z" fill="#005A9C"></path><path d="M210.972 87.7598C209.992 87.7598 209.161 88.056 208.479 88.6454C207.664 89.3552 207.255 90.446 207.255 91.921C207.255 93.2649 207.598 94.294 208.281 95.0084C208.965 95.7228 209.863 96.0807 210.972 96.0807C211.662 96.0807 212.3 95.9187 212.884 95.5932C213.469 95.2692 213.915 94.8125 214.219 94.2246C214.524 93.6383 214.678 92.8329 214.678 91.8084C214.678 90.5447 214.332 89.5542 213.641 88.8367C212.95 88.1193 212.059 87.7613 210.97 87.7613L210.972 87.7598ZM212.635 94.2061C212.193 94.7153 211.637 94.9698 210.972 94.9698C210.307 94.9698 209.742 94.7168 209.3 94.2092C208.857 93.7031 208.636 92.9394 208.636 91.9195C208.636 90.8996 208.857 90.139 209.3 89.6329C209.742 89.1283 210.301 88.8753 210.972 88.8753C211.643 88.8753 212.187 89.1283 212.632 89.636C213.076 90.142 213.299 90.8888 213.299 91.8732C213.299 92.9178 213.078 93.6938 212.635 94.2045V94.2061Z" fill="#005A9C"></path><path d="M221.449 88.8537C221.216 88.5297 220.913 88.2643 220.54 88.0637C220.167 87.8616 219.741 87.7598 219.265 87.7598C218.614 87.7598 218.024 87.9326 217.498 88.2782C216.971 88.6223 216.575 89.1175 216.312 89.7656C216.048 90.4136 215.917 91.1341 215.917 91.9272C215.917 92.7203 216.063 93.4624 216.353 94.0888C216.645 94.7168 217.055 95.2044 217.585 95.5546C218.113 95.9033 218.694 96.0792 219.327 96.0792C220.3 96.0792 221.039 95.6842 221.541 94.8958V95.9002H222.788V84.9131H221.452V88.8552L221.449 88.8537ZM220.945 94.2462C220.535 94.7291 220.038 94.9698 219.451 94.9698C218.864 94.9698 218.364 94.7183 217.937 94.2123C217.508 93.7077 217.295 92.9455 217.295 91.9257C217.295 90.9058 217.494 90.1004 217.894 89.6097C218.295 89.1191 218.792 88.8738 219.39 88.8738C219.987 88.8738 220.515 89.1283 220.933 89.639C221.352 90.1482 221.561 90.9474 221.561 92.0367C221.561 93.0258 221.355 93.7617 220.945 94.2447V94.2462Z" fill="#005A9C"></path><path d="M229.961 92.2036C229.961 92.884 229.889 93.4009 229.741 93.7589C229.595 94.1153 229.345 94.3976 228.992 94.6059C228.638 94.8142 228.261 94.9176 227.857 94.9176C227.453 94.9176 227.116 94.8173 226.843 94.6136C226.568 94.4115 226.39 94.1322 226.306 93.7774C226.25 93.5336 226.224 93.0584 226.224 92.3533V87.939H224.882V92.8701C224.882 93.4441 224.908 93.8638 224.963 94.1292C225.043 94.5241 225.181 94.8574 225.378 95.1305C225.574 95.4036 225.875 95.6289 226.281 95.8094C226.686 95.9884 227.123 96.0794 227.589 96.0794C228.648 96.0794 229.488 95.6304 230.104 94.7309V95.9004H231.303V87.942H229.961V92.2067V92.2036Z" fill="#005A9C"></path><path d="M237.948 94.4821C237.595 94.8077 237.156 94.9697 236.629 94.9697C235.972 94.9697 235.44 94.7274 235.032 94.243C234.623 93.7585 234.421 92.9809 234.421 91.9116C234.421 90.8424 234.633 90.0863 235.055 89.6003C235.479 89.1127 236.027 88.8705 236.704 88.8705C237.153 88.8705 237.534 89.0047 237.85 89.2763C238.166 89.5463 238.386 89.9475 238.51 90.4829L239.816 90.2807C239.662 89.4769 239.311 88.8551 238.765 88.4184C238.219 87.9818 237.514 87.7627 236.654 87.7627C235.973 87.7627 235.342 87.9247 234.763 88.2472C234.183 88.5696 233.751 89.0526 233.467 89.6975C233.184 90.3425 233.042 91.0939 233.042 91.9533C233.042 93.2833 233.372 94.3016 234.032 95.0144C234.691 95.7257 235.562 96.0821 236.646 96.0821C237.512 96.0821 238.242 95.8229 238.836 95.306C239.43 94.7892 239.799 94.0732 239.943 93.1583L238.623 92.9855C238.529 93.6597 238.306 94.1596 237.951 94.4837L237.948 94.4821Z" fill="#005A9C"></path><path d="M243.646 94.7448C243.446 94.7448 243.294 94.7124 243.188 94.6476C243.081 94.5828 243.002 94.4948 242.956 94.3853C242.909 94.2742 242.886 94.0289 242.886 93.6431V88.9897H244.236V87.9405H242.886V85.1602L241.551 85.9702V87.942H240.567V88.9912H241.551V93.5706C241.551 94.3806 241.606 94.9114 241.715 95.1629C241.823 95.4144 242.013 95.6196 242.282 95.7739C242.551 95.9297 242.929 96.0069 243.417 96.0069C243.715 96.0069 244.054 95.9668 244.431 95.8865L244.237 94.6954C243.993 94.7293 243.796 94.7479 243.647 94.7479L243.646 94.7448Z" fill="#005A9C"></path><path d="M250.543 91.6987C250.167 91.5367 249.505 91.3268 248.556 91.0723C247.899 90.8933 247.504 90.7776 247.369 90.7282C247.135 90.6325 246.963 90.5137 246.854 90.3687C246.747 90.2298 246.692 90.0709 246.692 89.8966C246.692 89.6219 246.824 89.3812 247.086 89.1776C247.349 88.9739 247.79 88.8705 248.406 88.8705C248.928 88.8705 249.333 88.9862 249.619 89.2146C249.905 89.4445 250.078 89.7639 250.138 90.1743L251.451 89.9953C251.367 89.48 251.211 89.0695 250.989 88.7625C250.765 88.4555 250.417 88.2117 249.948 88.0327C249.479 87.8537 248.932 87.7627 248.312 87.7627C247.897 87.7627 247.512 87.8167 247.151 87.9247C246.79 88.0327 246.506 88.1639 246.297 88.3181C246.017 88.5187 245.798 88.7687 245.637 89.0711C245.475 89.3735 245.394 89.7021 245.394 90.057C245.394 90.4458 245.492 90.8022 245.689 91.1247C245.885 91.4472 246.174 91.6987 246.555 91.8823C246.934 92.0644 247.618 92.2804 248.602 92.5303C249.333 92.7155 249.791 92.8682 249.975 92.987C250.239 93.1614 250.37 93.4021 250.37 93.706C250.37 94.047 250.221 94.3417 249.923 94.5947C249.625 94.8478 249.167 94.9743 248.55 94.9743C247.933 94.9743 247.461 94.8324 247.12 94.5469C246.779 94.2615 246.573 93.8526 246.497 93.3172L245.17 93.527C245.319 94.3726 245.663 95.0082 246.202 95.4387C246.741 95.8692 247.526 96.0837 248.556 96.0837C249.177 96.0837 249.734 95.9757 250.227 95.7581C250.72 95.5406 251.096 95.2335 251.356 94.8354C251.618 94.4389 251.747 94.0146 251.747 93.5656C251.747 93.1166 251.642 92.7201 251.427 92.4115C251.213 92.1014 250.918 91.8653 250.543 91.7033V91.6987Z" fill="#005A9C"></path></svg>