<svg width="176" height="47" viewBox="0 0 176 47" fill="none" xmlns="http://www.w3.org/2000/svg">
<g clip-path="url(#clip0_976_60)">
<path d="M60.0176 10.756H64.2199L73.0947 31.6205H68.334L66.4435 26.9774H57.6862L55.7957 31.6205H51.1526L60.0274 10.756H60.0176ZM64.8174 22.9515L62.0649 16.2317L59.3123 22.9515H64.8174Z" fill="#AE132A"/>
<path d="M77.6006 15.1053H71.302V10.903H88.4638V15.1053H82.1653V31.6206H77.6006V15.1053Z" fill="#AE132A"/>
<path d="M90.0703 10.9029H94.9583L99.2488 24.9301L103.892 10.8441H107.8L112.453 24.9301L116.744 10.9029H121.504L114.432 31.7675H110.465L105.792 18.2104L101.11 31.7675H97.1525L90.0703 10.9029Z" fill="#AE132A"/>
<path d="M123.865 10.903H139.489V14.9583H128.391V19.1606H138.157V23.216H128.391V27.5652H139.636V31.6206H123.865V10.903Z" fill="#AE132A"/>
<path d="M143.231 10.903H147.786V27.4771H158.11V31.6206H143.231V10.903Z" fill="#AE132A"/>
<path d="M160.442 10.903V31.6206H175.331V27.4771H165.006V10.903H160.442Z" fill="#AE132A"/>
<path d="M45.765 20.2283C44.1683 8.98296 34.3826 0.5 23.0001 0.5C19.4345 0.5 16.0159 1.29344 12.9009 2.82155C13.4788 2.72359 14.0959 2.67462 14.7424 2.67462C15.5163 2.67462 16.2901 2.75298 17.0346 2.91951C21.1585 3.8109 23.3038 7.67036 23.4409 7.92504L36.5768 30.6704C37.5955 30.641 40.8868 30.3569 43.081 27.957C46.0491 24.6951 45.7944 20.4634 45.7748 20.2381" fill="#1C2B39"/>
<path d="M16.819 3.88924C16.1431 3.74231 15.4378 3.66394 14.7423 3.66394C11.4608 3.66394 8.97274 5.29001 8.78663 5.40755C3.20315 9.80576 0 16.3982 0 23.5C0 31.2972 3.85946 38.3599 10.1286 42.5719C9.34497 41.612 8.6201 40.4071 8.15971 38.9574C6.86669 34.9314 9.14906 31.1405 9.296 30.9152L22.4221 8.16011C21.9127 7.33728 19.983 4.57493 16.819 3.88924Z" fill="#AE132A"/>
<path d="M43.8058 28.6231C41.1708 31.5225 37.1546 31.6695 36.3808 31.6695C36.3122 31.6695 36.2828 31.6695 36.273 31.6695H10.0111C9.5507 32.5217 8.12055 35.5681 9.1099 38.6537C10.4813 42.9344 14.4191 44.8347 14.4583 44.8543L14.4975 44.8739C17.201 45.9514 20.0614 46.5 23 46.5C35.1269 46.5 45.0988 37.057 45.9413 25.1456C45.5005 26.2917 44.8246 27.5064 43.8058 28.6231Z" fill="#79858D"/>
</g>
<defs>
<clipPath id="clip0_976_60">
<rect width="175.331" height="46" fill="white" transform="translate(0 0.5)"/>
</clipPath>
</defs>
</svg>
