<?xml version="1.0" encoding="UTF-8"?>
<svg width="576px" height="265px" viewBox="0 0 576 265" version="1.1" xmlns="http://www.w3.org/2000/svg" xmlns:xlink="http://www.w3.org/1999/xlink">
    <!-- Generator: Sketch 52 (66869) - http://www.bohemiancoding.com/sketch -->
    <title>balsam-hill-logo</title>
    <desc>Created with Sketch.</desc>
    <g id="Page-1" stroke="none" stroke-width="1" fill="none" fill-rule="evenodd">
        <g id="BH-logo_CMYK" fill="#611923">
            <g id="balsam-hill-logo">
                <path d="M240.162,243.266 L248.21,225.902 L256.124,243.266 L240.162,243.266 Z M274.634,257.001 L255.844,219.099 C255.377,218.213 255.152,217.425 255.152,216.726 C255.152,215.718 255.863,215.009 257.289,214.601 L257.289,213.376 L239.804,213.376 L239.804,214.601 C241.2,215.082 241.897,215.876 241.897,216.98 C241.897,217.704 241.6,218.656 241.023,219.863 L222.907,257.649 C222.258,259.04 221.675,259.98 221.171,260.46 C220.668,260.939 219.934,261.279 218.968,261.467 L218.968,262.687 L235.343,262.687 L235.343,261.467 C233.711,261.061 232.897,260.326 232.897,259.264 C232.897,258.712 233.128,257.947 233.583,256.988 L236.945,250.057 L259.249,250.057 L262.678,256.988 C263.158,257.977 263.4,258.724 263.4,259.228 C263.4,260.454 262.605,261.2 261.015,261.467 L261.015,262.687 L279.15,262.687 L279.15,261.467 C278.143,261.279 277.329,260.884 276.728,260.296 C276.128,259.714 275.43,258.609 274.634,257.001 Z M163.381,254.033 C162.999,254.373 162.428,254.543 161.688,254.543 L131.318,254.543 L131.318,217.23 C131.318,216.489 131.482,215.919 131.821,215.517 C132.155,215.13 132.762,214.82 133.624,214.601 L133.624,213.376 L118.275,213.376 L118.275,214.601 C119.137,214.844 119.744,215.154 120.078,215.536 C120.418,215.925 120.582,216.489 120.582,217.23 L120.582,258.834 C120.582,259.58 120.418,260.144 120.078,260.533 C119.744,260.915 119.137,261.225 118.275,261.467 L118.275,262.687 L161.688,262.687 C162.434,262.687 163.004,262.857 163.387,263.198 C163.77,263.531 164.086,264.132 164.328,265 L165.548,265 L165.548,252.23 L164.328,252.23 C164.086,253.097 163.77,253.699 163.381,254.033 Z M212.031,229.265 L217.924,217.63 L216.911,217.084 C216.237,217.642 215.642,217.922 215.138,217.922 C214.823,217.922 213.973,217.642 212.572,217.084 C208.499,215.361 205.107,214.171 202.375,213.527 C199.656,212.884 196.713,212.562 193.557,212.562 C186.001,212.562 180.345,214.359 176.563,217.939 C173.687,220.665 172.248,224.1 172.248,228.269 C172.248,230.795 172.813,233.033 173.953,234.981 C175.21,237.148 176.94,238.774 179.142,239.855 C180.684,240.627 182.232,241.191 183.779,241.537 C185.328,241.883 187.979,242.247 191.723,242.634 L197.313,243.206 C201.058,243.612 203.553,244.054 204.785,244.529 C206.551,245.226 207.437,246.38 207.437,248.001 C207.437,249.074 207.054,250.106 206.309,251.095 C205.562,252.084 204.56,252.88 203.304,253.475 C201.033,254.549 198.285,255.083 195.081,255.083 C192.13,255.083 189.017,254.579 185.728,253.565 C182.45,252.558 180.016,251.35 178.445,249.948 C177.413,249.038 176.891,248.037 176.891,246.95 L176.891,246.483 L175.841,245.972 L170.482,258.092 L171.532,258.639 C172.211,258.111 172.697,257.843 173.019,257.843 C173.28,257.843 174.087,258.154 175.446,258.784 C181.813,261.928 188.276,263.507 194.825,263.507 C198.467,263.507 201.883,263.057 205.076,262.172 C209.343,260.994 212.493,259.185 214.52,256.734 C216.765,254.045 217.894,250.979 217.894,247.521 C217.894,245.336 217.415,243.285 216.456,241.366 C215.497,239.449 214.197,237.895 212.553,236.723 C210.926,235.594 209.07,234.715 206.969,234.095 C204.876,233.47 202.133,232.972 198.74,232.614 L193.035,232.039 C189.199,231.655 186.711,231.298 185.545,230.964 C183.288,230.291 182.159,229.034 182.159,227.188 C182.159,226.073 182.608,225.028 183.506,224.075 C184.393,223.116 185.558,222.4 187.002,221.915 C188.975,221.297 191.257,220.986 193.848,220.986 C199.632,220.986 204.663,222.479 208.96,225.466 C210.356,226.406 211.054,227.286 211.054,228.106 L211.018,228.682 L212.031,229.265 Z M327.412,214.601 C328.607,214.723 329.214,215.275 329.214,216.259 C329.214,216.761 328.917,217.563 328.31,218.674 L314.691,243.654 L301.248,218.237 C300.908,217.611 300.744,217.065 300.744,216.58 C300.744,215.549 301.314,214.887 302.444,214.601 L302.444,213.376 L283.392,213.376 L283.392,214.601 C284.254,214.844 284.855,215.154 285.188,215.536 C285.522,215.925 285.699,216.476 285.699,217.193 L285.699,258.834 C285.699,259.58 285.522,260.144 285.188,260.533 C284.855,260.915 284.254,261.225 283.392,261.467 L283.392,262.687 L297.927,262.687 L297.927,261.467 C297.06,261.231 296.46,260.915 296.12,260.533 C295.774,260.156 295.616,259.592 295.616,258.851 L295.616,228.791 L313.75,262.687 L332.97,228.791 L332.97,258.851 C332.97,259.592 332.801,260.156 332.456,260.551 C332.103,260.946 331.503,261.249 330.665,261.467 L330.665,262.687 L346.013,262.687 L346.013,261.467 C345.152,261.225 344.544,260.915 344.211,260.533 C343.878,260.144 343.708,259.58 343.708,258.834 L343.708,217.193 C343.708,216.476 343.878,215.925 344.211,215.536 C344.544,215.154 345.152,214.844 346.013,214.601 L346.013,213.376 L327.412,213.376 L327.412,214.601 Z M506.256,254.033 C505.875,254.373 505.31,254.543 504.558,254.543 L474.194,254.543 L474.194,217.23 C474.194,216.489 474.358,215.919 474.697,215.517 C475.031,215.13 475.632,214.82 476.5,214.601 L476.5,213.376 L461.151,213.376 L461.151,214.601 C462.013,214.844 462.62,215.154 462.954,215.536 C463.287,215.925 463.458,216.489 463.458,217.23 L463.458,258.834 C463.458,259.58 463.287,260.144 462.954,260.533 C462.62,260.915 462.013,261.225 461.151,261.467 L461.151,262.687 L504.57,262.687 C505.31,262.687 505.875,262.857 506.263,263.198 C506.646,263.531 506.961,264.132 507.198,265 L508.429,265 L508.429,252.23 L507.198,252.23 C506.961,253.097 506.646,253.699 506.256,254.033 Z M75.051,243.266 L83.092,225.902 L91.006,243.266 L75.051,243.266 Z M109.524,257.001 L90.727,219.099 C90.272,218.213 90.042,217.425 90.042,216.726 C90.042,215.718 90.752,215.009 92.179,214.601 L92.179,213.376 L74.687,213.376 L74.687,214.601 C76.089,215.082 76.787,215.876 76.787,216.98 C76.787,217.704 76.495,218.656 75.919,219.863 L57.796,257.649 C57.141,259.04 56.564,259.98 56.061,260.46 C55.557,260.939 54.823,261.279 53.858,261.467 L53.858,262.687 L70.226,262.687 L70.226,261.467 C68.599,261.061 67.787,260.326 67.787,259.264 C67.787,258.712 68.017,257.947 68.472,256.988 L71.834,250.057 L94.138,250.057 L97.567,256.988 C98.047,257.977 98.29,258.724 98.29,259.228 C98.29,260.454 97.495,261.2 95.904,261.467 L95.904,262.687 L114.039,262.687 L114.039,261.467 C113.025,261.279 112.218,260.884 111.617,260.296 C111.011,259.714 110.313,258.609 109.524,257.001 Z M559.568,252.23 C559.326,253.097 559.009,253.699 558.622,254.033 C558.24,254.373 557.669,254.543 556.921,254.543 L526.546,254.543 L526.546,217.23 C526.546,216.489 526.721,215.919 527.062,215.517 C527.389,215.13 527.996,214.82 528.865,214.601 L528.865,213.376 L513.515,213.376 L513.515,214.601 C514.382,214.844 514.984,215.154 515.318,215.536 C515.659,215.925 515.822,216.489 515.822,217.23 L515.822,258.834 C515.822,259.58 515.659,260.144 515.318,260.533 C514.984,260.915 514.382,261.225 513.515,261.467 L513.515,262.687 L556.921,262.687 C557.675,262.687 558.24,262.857 558.622,263.198 C559.009,263.531 559.326,264.132 559.568,265 L560.782,265 L560.782,252.23 L559.568,252.23 Z M412.665,214.601 C413.532,214.82 414.133,215.13 414.467,215.523 C414.807,215.919 414.971,216.476 414.971,217.199 L414.971,233.076 L386.447,233.076 L386.447,217.199 C386.447,216.476 386.616,215.919 386.956,215.523 C387.284,215.13 387.89,214.82 388.758,214.601 L388.758,213.376 L373.404,213.376 L373.404,214.601 C374.271,214.844 374.873,215.154 375.207,215.536 C375.546,215.925 375.715,216.476 375.715,217.193 L375.715,258.87 C375.715,259.592 375.546,260.144 375.207,260.533 C374.873,260.915 374.271,261.225 373.404,261.467 L373.404,262.687 L388.758,262.687 L388.758,261.467 C387.909,261.249 387.32,260.946 386.968,260.551 C386.623,260.156 386.447,259.597 386.447,258.883 L386.447,241.226 L414.971,241.226 L414.971,258.883 C414.971,259.597 414.801,260.156 414.449,260.551 C414.103,260.946 413.508,261.249 412.665,261.467 L412.665,262.687 L428.014,262.687 L428.014,261.467 C427.152,261.225 426.545,260.915 426.217,260.533 C425.878,260.144 425.702,259.592 425.702,258.87 L425.702,217.193 C425.702,216.476 425.878,215.925 426.217,215.536 C426.545,215.154 427.152,214.844 428.014,214.601 L428.014,213.376 L412.665,213.376 L412.665,214.601 Z M436.899,214.601 C437.773,214.844 438.374,215.154 438.708,215.536 C439.042,215.925 439.211,216.476 439.211,217.193 L439.211,258.834 C439.211,259.58 439.042,260.144 438.708,260.533 C438.374,260.915 437.773,261.225 436.899,261.467 L436.899,262.687 L452.253,262.687 L452.253,261.467 C451.417,261.249 450.809,260.946 450.458,260.545 C450.118,260.156 449.941,259.58 449.941,258.834 L449.941,217.193 C449.941,216.476 450.111,215.919 450.445,215.517 C450.785,215.13 451.385,214.82 452.253,214.601 L452.253,213.376 L436.899,213.376 L436.899,214.601 Z M374.226,179.437 C375.44,178.052 375.214,175.122 374.486,172.324 C372.593,175.152 369.656,175.874 361.147,176.506 C352.644,177.148 345.476,175.03 342.727,173.143 C339.978,171.273 339.954,172.743 339.559,175.328 C338.861,179.838 331.53,182.435 329.745,177.61 C325.904,167.262 336.463,156.447 338.321,155.191 C340.184,153.917 353.129,152.593 358.094,153.946 C358.938,152.763 360.133,149.256 359.788,145.273 C359.696,146.366 358.896,148.782 356.122,148.933 C350.198,149.256 345.331,140.303 344.42,139.192 C343.515,138.07 342.376,140.656 337.599,138.555 C332.822,136.468 329.594,128.116 328.488,127.546 C327.396,126.982 324.392,131.011 321.668,127.291 C318.936,123.564 324.241,112.731 325.91,111.633 C327.59,110.546 330.455,118.163 332.076,121.501 C333.697,124.845 338.637,128.226 342.697,129.014 C341.586,128.626 342.017,124.02 342.394,122.915 C343.486,125.331 344.766,126.271 347.164,125.743 C349.155,125.312 350.914,123.097 351.424,117.125 C350.951,117.586 350.126,117.744 348.17,117.908 C346.242,118.066 343.018,116.925 340.117,112.737 C337.216,108.543 334.917,99.931 333.72,99.458 C332.524,98.978 322.292,105.418 320.192,103.634 C318.092,101.849 322.73,92.029 322.365,91.38 C322.006,90.724 317.285,91.878 313.116,92.928 C308.947,93.99 305.535,93.674 305.092,92.473 C304.637,91.259 309.104,88.545 311.247,87.363 C313.377,86.197 316.764,81.342 319.16,81.281 C321.564,81.22 328.501,88.127 331.894,89.832 C335.298,91.538 340.288,90.755 342.394,90.069 C341.689,89.346 341.168,88.844 340.956,88.552 C339.869,87.065 342.654,86.361 343.607,82.677 C343.82,81.894 343.656,80.686 343.261,79.242 C342.946,80.431 341.502,81.457 339.559,81.803 C336.184,82.398 329.636,77.615 327.821,75.752 C325.995,73.883 321.54,67.741 320.169,66.606 C318.795,65.489 312.612,65.592 309.565,65.009 C306.531,64.415 304.613,62.545 304.583,60.682 C303.211,62.436 302.385,64.239 302.628,65.944 C303.314,70.569 307.216,68.573 307.38,70.241 C307.411,70.508 307.053,71.03 306.47,71.728 C308.466,72.657 313.82,72.906 312.315,74.921 C310.816,76.935 313.741,79.369 309.091,81.894 C304.437,84.431 298.313,86.628 297.73,81.7 C296.146,84.043 295.351,86.227 296.468,87.66 C298.647,90.452 302.549,88.467 302.538,89.571 C302.525,90.682 293.676,95.428 299.096,99.143 C301.851,101.012 307.235,98.493 307.235,98.493 C307.235,98.493 305.869,99.737 304.103,101.661 C305.717,101.795 307.369,102.559 307.162,104.774 C306.943,106.984 307.969,114.018 305.535,117.125 C303.096,120.232 300.109,122.97 298.083,122.387 C296.068,121.811 294.714,120.821 294.314,118.812 C293.755,121.592 293.907,124.105 295.09,126.047 C295.995,127.54 298.751,128.869 298.751,128.869 C298.398,129.1 298.058,129.379 297.73,129.688 C301.876,129.452 308.164,128.79 310.366,130.107 C312.57,131.425 313.444,135.126 312.874,136.789 C312.302,138.44 306.737,140.594 303.776,141.104 C300.813,141.633 296.584,140.279 296.584,140.279 C297.39,141.693 298.185,143.265 298.847,144.789 C298.824,146.076 298.356,145.844 296.323,146.191 C294.29,146.53 279.584,140.637 277.739,140.43 C275.899,140.23 270.844,146.257 267.336,146.026 C263.834,145.808 262.851,135.636 257.699,133.73 C255.817,133.032 255.793,123.547 256.181,121.519 C256.576,119.499 266.632,111.863 271.84,106.419 C270.001,104.701 268.769,103.361 268.775,102.832 C268.793,100.988 268.12,96.187 269.94,97.679 C271.773,99.185 276.519,103.664 279.493,102.232 C280.682,101.649 280.586,99.561 279.796,97.024 C279.753,98.013 279.347,98.347 278.066,97.959 C276.773,97.583 266.881,91.18 264.848,91.344 C262.809,91.508 258.118,97.91 256.8,100.477 C255.477,103.057 255.617,107.117 253.025,107.815 C250.427,108.531 246.082,101.085 245.19,99.052 C244.279,97.006 243.436,90.907 243.654,88.497 C243.861,86.112 246.623,86.142 249.754,87.283 C252.886,88.43 259.756,84.813 262.53,84.661 C265.303,84.516 271.736,86.439 276.008,89.159 C275.256,88.018 274.486,87.01 273.77,86.276 C270.122,82.543 273.46,81.839 275.621,85.56 C277.794,89.28 280.779,87.095 281.563,83.047 C278.364,87.811 275.863,80.941 274.595,79.078 C273.327,77.221 268.72,76.061 266.517,75.115 C264.308,74.162 261.977,68.967 260.873,68.766 C259.762,68.573 255.647,72.954 250.659,73.075 C245.681,73.202 241.876,66.697 240.584,67.055 C239.285,67.401 235.139,73.816 231.461,72.669 C227.784,71.51 228.402,65.61 228.056,64.5 C227.699,63.383 218.765,69.003 215.263,68.778 C211.749,68.554 210.468,68.166 209.583,66.132 C208.902,68.275 208.842,70.344 209.673,72.226 C211.846,77.051 219.299,76.978 221.447,76.426 C220.495,77.221 219.269,78.326 217.861,79.673 C218.607,82.295 222.43,86.597 224.828,87.544 C227.213,88.491 230.715,89.28 229.756,91.841 C228.81,94.421 221.526,101.169 216.125,104.428 C210.735,107.682 204.232,111.669 201.085,111.445 C197.948,111.232 195.563,110.467 195.038,107.323 C193.469,110.322 192.826,112.749 193.666,114.134 C197.286,120.087 207.313,115.772 207.313,115.772 C206.852,116.372 206.336,117.107 205.789,117.951 C211.95,114.533 234.047,103.536 237.537,105.976 C241.008,108.422 239.321,110.607 241.13,113.029 C242.957,115.462 247.399,114.952 247.369,117.544 C247.333,120.123 239.879,126.32 235.813,125.895 C231.765,125.482 229.035,121.761 226.625,122.648 C224.209,123.547 215.767,134.519 208.39,133.882 C201.006,133.238 200.303,132.505 200.348,128.244 C198.98,131.496 198.136,134.453 198.585,135.982 C199.647,139.683 206.675,138.295 206.675,138.295 C205.926,138.78 205.107,139.399 204.253,140.115 C207.771,139.223 214.82,136.728 218.504,137.882 C222.176,139.029 227.547,138.167 229.592,137.638 C231.626,137.111 237.938,134.234 238.659,135.344 C239.388,136.468 233.975,141.208 231.917,143.211 C229.865,145.214 228.519,149.443 227.038,150.166 C225.55,150.887 212.836,148.703 209.691,149.225 C206.532,149.741 200.418,152.435 198.579,151.489 C196.747,150.548 196.461,148.976 197.092,147.555 C194.27,151.106 192.279,154.584 192.802,156.223 C193.512,158.45 195.35,158.839 195.35,158.839 C191.235,163.226 186.349,170.551 186.295,175.352 C186.234,180.153 188.795,182.769 191.005,182.794 C193.227,182.824 197.687,179.916 201.735,181.445 C205.78,182.968 213.928,181.221 217.223,182.732 C220.537,184.256 242.605,191.896 248.892,191.242 C255.173,190.574 260.788,184.365 262.269,184.384 C263.737,184.402 272.179,189.67 279.202,189.009 C286.224,188.358 289.628,181.756 291.844,181.41 C293.821,181.101 305.474,183.843 308.764,182.606 L308.625,182.672 C309.346,183.607 310.076,186.058 312.284,186.641 C314.487,187.217 320.035,186.174 320.969,186.186 C321.886,186.198 324.963,191.588 327.73,191.617 C330.503,191.648 338.497,187.133 341.482,184.771 C357.5,188.656 371.98,181.986 374.226,179.437 Z M38.599,253.129 C37.106,254.069 34.672,254.543 31.28,254.543 L13.037,254.543 L13.037,241.093 L31.28,241.093 C34.691,241.093 37.131,241.56 38.599,242.502 C40.311,243.612 41.161,245.384 41.161,247.811 C41.161,250.27 40.311,252.042 38.599,253.129 Z M13.037,221.527 L31.906,221.527 C34.764,221.527 36.791,221.969 37.993,222.838 C39.194,223.711 39.801,225.18 39.801,227.231 C39.801,229.24 39.158,230.727 37.889,231.679 C36.761,232.523 34.764,232.936 31.906,232.936 L13.037,232.936 L13.037,221.527 Z M43.85,236.814 C48.304,234.702 50.531,231.237 50.531,226.43 C50.531,222.128 49.081,218.832 46.168,216.55 C44.699,215.396 42.994,214.583 41.046,214.098 C39.098,213.618 36.524,213.376 33.326,213.376 L0,213.376 L0,214.601 C0.862,214.844 1.462,215.154 1.802,215.536 C2.136,215.925 2.306,216.489 2.306,217.23 L2.306,258.834 C2.306,259.58 2.136,260.144 1.802,260.533 C1.462,260.915 0.862,261.225 0,261.467 L0,262.687 L33.659,262.687 C36.833,262.687 39.498,262.408 41.646,261.838 C43.801,261.273 45.695,260.35 47.327,259.07 C50.55,256.515 52.164,252.982 52.164,248.467 C52.164,242.799 49.391,238.915 43.85,236.814 Z M273.253,130.034 C279.723,128.644 288.942,130.223 293.864,136.007 C291.874,133.372 291.048,127.139 289.21,122.939 C286.084,122.988 275.312,127.291 273.253,130.034 Z M241.633,24.407 C239.982,23.648 231.613,13.58 231.474,9.696 C230.338,11.522 229.883,18.908 232.426,22.629 C231.559,22.938 230.672,23.424 229.805,24.061 C231.656,23.151 238.32,23.994 241.633,24.407 Z M255.173,16.165 C253.481,13.543 251.909,11.704 252.139,11.049 C252.522,9.944 254.427,4.804 252.607,2.558 C252.042,1.866 251.404,1.392 250.761,1.041 C250.173,7.565 241.803,10.387 242.332,12.038 C242.872,13.707 249.462,10.83 255.173,16.165 Z M250.258,0.798 L250.761,1.041 L250.786,0.877 L250.258,0.798 Z M226.23,46.705 C228.803,45.582 232.834,50.705 234.824,53.691 C236.827,56.665 242.343,58.388 245.081,61.01 C247.818,63.625 256.315,64.099 258.185,61.538 C260.059,58.971 264.132,58.649 266.359,58.121 C264.137,57.727 261.565,56.586 262.323,55.123 C263.082,53.648 267.488,55.548 269.752,51.518 C270.535,50.122 269.831,47.7 268.411,45.006 C269.551,47.385 259.24,50.286 254.427,51.336 C249.621,52.386 247.272,47.742 245.086,45.133 C242.908,42.523 236.068,42.256 235.182,39.288 C234.302,36.321 228.257,31.636 225.204,29.96 C224.458,31.666 224.051,33.541 224.154,35.459 C224.446,41.37 227.001,44.362 227.723,45.479 C227.261,45.855 226.752,46.261 226.23,46.705 Z M323.161,39.963 C324.368,39.519 322.383,27.581 323.111,25.511 C320.277,27.065 320.12,34.173 318.123,36.758 C317.546,37.516 316.726,38.366 315.84,39.288 C318.111,38.627 321.958,40.406 323.161,39.963 Z M245.111,27.029 C244.158,29.978 249.323,30.403 250.604,31.715 C251.878,33.019 255.253,35.744 260.405,34.19 C259.416,33.159 258.512,32.333 257.802,31.799 C254.111,29.044 259.835,31.107 258.761,24.583 C255.44,28.267 246.082,24.091 245.111,27.029 Z M316.861,50.219 C316.976,50.541 315.247,51.694 312.958,53.339 C319.81,53.168 318.074,57.168 321.849,57.399 C325.636,57.623 325.036,60.488 327.792,62.545 C330.535,64.609 333.666,65.38 337.046,65.574 C336.616,64.858 336.275,64.354 336.076,64.124 C334.801,62.631 339.438,61.199 339.663,58.255 C339.189,59.262 338.073,59.711 334.656,59.584 C331.238,59.444 327.075,52.379 325.338,51.063 C323.597,49.752 323.433,48.647 322.068,46.693 C320.702,44.738 315.464,42.912 312.169,43.361 C311.107,44.793 310.469,46.189 310.797,47.391 C311.683,50.541 316.497,49.303 316.861,50.219 Z" id="Fill-1"></path>
                <path d="M570.025,219.087 C569.766,219.278 569.398,219.371 568.93,219.371 L568.162,219.371 L568.162,217.191 L568.638,217.191 C569.148,217.191 569.514,217.242 569.799,217.333 C570.208,217.491 570.4,217.784 570.4,218.194 C570.4,218.611 570.292,218.912 570.025,219.087 Z M572.312,222.959 C572.312,222.884 572.294,222.809 572.294,222.742 L572.294,222.057 C572.294,221.274 572.07,220.715 571.61,220.372 C571.36,220.179 571.001,220.038 570.508,219.947 C571.034,219.896 571.476,219.72 571.827,219.437 C572.186,219.144 572.378,218.686 572.378,218.059 C572.378,217.226 572.037,216.624 571.36,216.257 C570.967,216.04 570.466,215.914 569.874,215.874 C569.766,215.874 569.247,215.864 568.313,215.864 C567.362,215.847 566.652,215.847 566.193,215.847 L566.193,223.393 L568.162,223.393 L568.162,220.698 L568.581,220.698 L569.015,220.731 C569.315,220.747 569.531,220.79 569.682,220.848 C569.957,220.957 570.149,221.132 570.241,221.408 C570.3,221.566 570.349,221.882 570.376,222.342 C570.4,222.809 570.441,223.161 570.501,223.393 L572.403,223.393 L572.353,223.184 C572.337,223.109 572.32,223.035 572.312,222.959 Z" id="Fill-3"></path>
                <path d="M573.137,223.635 C572.037,224.729 570.726,225.289 569.181,225.289 C567.637,225.289 566.309,224.738 565.216,223.635 C564.114,222.543 563.564,221.198 563.564,219.629 C563.564,218.102 564.114,216.816 565.191,215.697 C566.285,214.57 567.628,214.003 569.181,214.003 C570.726,214.003 572.044,214.57 573.155,215.697 C574.231,216.816 574.775,218.117 574.775,219.629 C574.775,221.189 574.231,222.516 573.137,223.635 Z M574.006,214.796 C572.67,213.444 571.051,212.776 569.172,212.776 C567.37,212.776 565.808,213.403 564.482,214.645 C563.062,215.965 562.345,217.609 562.345,219.614 C562.345,221.532 563.004,223.152 564.306,224.462 C565.633,225.772 567.246,226.431 569.172,226.431 C571.026,226.431 572.628,225.789 573.947,224.511 C575.317,223.176 576.002,221.549 576.002,219.614 C576.002,217.726 575.325,216.114 574.006,214.796 Z" id="Fill-4"></path>
            </g>
        </g>
    </g>
</svg>