<svg xmlns="http://www.w3.org/2000/svg" xmlns:xlink="http://www.w3.org/1999/xlink" width="232" height="52" viewBox="0 0 232 52">
    <defs>
        <path id="a" d="M0 .399h39.287V52H0z"/>
    </defs>
    <g fill="none" fill-rule="evenodd">
        <g>
            <mask id="b" fill="#fff">
                <use xlink:href="#a"/>
            </mask>
            <path fill="#1A1919" d="M20.26 5.16c-.153 1.694 1.741.193 2.478.85 1.56.257 3.058 1.625 3.574 3.187.177 1.415-.387 2.675-1.299 3.715.547 1.477 1.391 3.107 1.695 4.82.544.436 1.26.695 1.63 1.24.65-.52 1.302-1.129 1.302-2.02-.39-.866.5-2.126-.522-2.8-.196-.457-.196-1.176 0-1.63.395-.412.742-.804 1.305-.909.669-.133 1.218.147 1.627.518.912-.848 2.17-1.78 3.583-1.301.762.306.845 1.259 1.823 1.174.415.15.498.671.654 1.04-.024.675.89 1.062.652 1.952.018.087-.042.221.067.262.19.107.407.432.454.716.086 1.522-1.263 2.37-2.348 2.931-.756.586-1.086 1.654-1.89 2.28 0 .46-.17.957-.644 1.107-.634.33-.9 1.148-1.246 1.763-1.43 1.15-2.256 3.646-4.558 3.319-.149-.064-.277-.194-.456-.194-.28 1.848-.803 3.496-1.433 5.274.15.616.544.954.848 1.495 1.062-.429 2.304-.301 3.32.137.935.414 1.045 1.667 1.825 2.145.474.829 1.675.96 2.018 1.956.373 1.153.433 2.346.197 3.581-1.107 2.07-1.845 4.344-3.714 5.868.156.91.09 1.69-.456 2.344-.566 1.022-1.759 1.887-2.994 2.02-1.216 0-2.523-.615-3.192-1.694.104-1.434-1.866-1.306-1.892-2.67-1.451-.675-2.257-2.13-2.67-3.65-.09-1.41-.174-3.125.392-4.433l-.262-.258c-1.54.44-2.996 1.13-4.758 1.043a14.919 14.919 0 0 1-2.54 3.19c1.112 1.606-.368 2.892.393 4.691.177.851-.237 1.604-.717 2.283-1.496 1.148-3.584 1.579-5.408 1.43-1.582-.302-3.126-1.43-3.647-2.992-.453-.265-1.043-.565-1.174-1.177-.085-.759-.017-1.343-.453-1.953-.498-1.211.694-2.21 0-3.254-.175-2.064 1.083-3.782 2.54-4.95v-.33C.867 31.282-.912 23.944.515 16.82c.395-1.218.502-2.561 1.178-3.65-.088-.541-.5-.93-.652-1.434-.975-1.628-1.458-4.102-.59-5.86 2.607-1.869 5.756-2.67 8.734-3.779.605-.282 1.28-.365 1.893-.652 2.21-.194 5.009-2.256 6.903 0 1.124 1.152 1.734 2.326 2.278 3.713" mask="url(#b)"/>
        </g>
        <path fill="#DC3C41" d="M19.411 6.788c-5.363.525-10.398 2.476-15.175 4.758l-1.372.976c-.886-1.67-2.016-3.475-1.756-5.603 1.126-1.715 3.452-1.955 5.21-2.864.802-.223 1.608-.392 2.346-.783 2.28-.414 4.362-1.302 6.644-1.695 2.76.195 3.516 3.17 4.103 5.21"/>
        <path fill="#DC3C41" d="M24.627 8.614c.37.606.453 1.192.386 1.89-.323.672-.603 1.28-1.237 1.755-.501-1.235-1.541-2.257-2.41-3.191.478-.432 1.348.022 1.826-.13.11-.254-.198-.194-.264-.39-1.538-.518-3.3.283-4.36 1.435-1.46 1.912-3.737 3.865-6.388 3.778-2.236-.025-3.494-2.128-5.47-2.802.738-.282 1.5-.564 2.212-.915 3.734-1.539 7.777-2.3 11.928-2.864 1.582-.174 2.842.304 3.777 1.434"/>
        <path fill="#FFFFFE" d="M20.85 9.264c3.794 4.304 5.705 10.097 6.185 15.963 0 2.254-.674 4.732-1.43 6.901-.178.346-.439.087-.66-.067l-.188-.257c.189-.214.865-.064.647-.522-.135-.257-.364-.131-.458-.39.323-.152.894-.132.915-.582l-.651-.33c.15-.436.866-.196.852-.778-.419-.266-1.09-.325-1.502-.198 0 .39.437.284.65.39-.213.301-.8.15-.782.655.173.167.329.344.585.324-.089.367-.886.02-.651.652l.328.32c-.262.029-.457.199-.656.332-.018.194.2.323.328.384-.194 0-.39.046-.653-.06-.105-.042.35-.065.196-.324-.35-.049-.523-.436-.911-.395.28-.131.87-.238.91-.652-.432-.127-.841-.454-1.298-.32-.108.238.175.338.322.386-.042.173-.626.348-.648.65.243.31.626.282.912.458-.54.411-1.348.503-1.955.912-.176-.092-.387-.062-.587-.062.216-.309.823-.347.85-.85-.35-.243-.786-.3-1.176-.458-.174.066-.174.33 0 .394.11.15.263.236.456.196-.193.28-.783.305-.783.78.153.354.504.197.717.39-.195.63-1.39.33-.913 1.109-.044.414-.109.935-.65 1.108.084.37.738.37.523.908-.35.049-.695.113-.913.462l.517.647c-.257.173-.778.134-.778.52.174.31.5.283.719.46-.63.17-1.348.436-2.087.516-.049-.346-.433-.127-.586-.39.24-.17.804-.147.913-.52-.196-.32-.543-.255-.59-.65.374-.216 1.025-.068 1.18-.523l-.723-.647c.35-.37 1.133-.222 1.11-.91a2.274 2.274 0 0 1-.587-.46c.281-.325.955-.135.975-.65-.28-.152-.365-.372-.649-.523.393-.109.888-.24 1.044-.65 0-.327-.441-.44-.651-.653.173-.37.843-.239.843-.783-.41-.103-.822-.608-1.236-.326-.107.373.325.241.458.456-.174.352-.936.089-.65.718l.65.588c-.332.174-.697.193-.98.455-.067.327.24.606.459.718-.218.325-1.063.111-.916.716l.653.582c-.37.284-.867.218-1.173.657 0 .323.373.323.52.586-.088.347-1.305.04-.909.847l.389.32c-.24.284-.955.066-.98.59l.784.584-1.172.203.26-1.895c.105 0 .173-.133.256-.194-.021-.284-.406-.455-.256-.851.235-.219.781.025.781-.455-.175-.234-.348-.478-.525-.712.29-.242.675-.22.915-.52.11-.33-.151-.595-.39-.724-.085-.038-.062-.125-.062-.195.26-.217.67-.062.845-.455.131-.475-.503-.414-.586-.778.265-.304 1.003-.304.975-.848-.171-.262-.389-.235-.585-.454.26-.22.613-.414.65-.717l-1.04-.724-.259.33.649.524c-.175.28-.695.193-.649.587l.581.517c-.28.329-1.234.352-.78 1.047l.458.322c-.216.328-.932.13-.912.72l.588.582c-.22.306-.721.306-.979.655.065.302.52.543.391.843-.5-.108-.366-.798-.65-1.175l-.326-.386c1.777-5.713.822-12.073-1.695-17.131-.783-.893-.956-2.128-2.02-2.608-.195.262.408.741-.132.978-.086.175.132.175.2.258.193 0 .109-.28.324-.258.242.304.453.758 0 .977v.13c.197.15.433 0 .585-.13.394.28.477.78.063 1.042-.019.087.09.13.135.193.13-.085.306-.106.454-.126.129.259.284.497.323.78-.194.066-.39.087-.519.261-.02.133.02.242.13.324.24.088.374-.132.52-.257.283.233.133.736.454.91-.124.127-.517.219-.517.521.088.147.237.127.393.127l.196-.192c.102.39.67 1.086-.072 1.24 0 .105.136.172.203.259.086-.087.237-.024.322-.132.154.263.239.545.264.847-.197-.044-.349.04-.462.196-.038.15.065.28.198.327l.329-.129c.043.3.474.735.127 1.106-.192.109-.345-.244-.456.064.022.238.194.39.456.324.523.02.083.782.393 1.045-.219-.02-.412 0-.52.197.062.109.062.237.191.321l.33-.064c.041.346.192.654.129 1.04-.213-.016-.415 0-.523.198.064.13.108.35.323.263h.2v.91c-.176 0-.44-.04-.459.195.044.214.283.261.459.328-.066.479.215 1.28-.523 1.041-.217.28.323.46.323.653.07.325-.149.517-.062.847-.178.04-.436-.113-.523.126-.083.243.222.13.197.328h.197c-.132.368 0 .61-.132.976h-.52c-.02.517.603.517.258 1.175-.843-.259-1.41-.608-2.411-.46.526-1.195.176-2.427-.192-3.586 1.15-4.034.368-8.357-2.088-11.524-.322-.697-1.124-.826-1.755-1.106-.738-.175-1.195.28-1.76.52-1.004 1.02-1.305 2.582-1.24 3.974-1.361.824-2.43 1.824-3.515 3.059-.475-.675.975-.328.194-.914l-.194.07c0-.37-.37-1.044.324-.977.087-.047.087-.152 0-.197-.714.13-.258-.698-.387-1.041.17-.132.474.018.587-.26 0-.109-.13-.18-.2-.26h-.324c.066-.328-.24-1.261.524-1.11.062-.174-.13-.216-.2-.325h-.194l.13-.977c.151-.088.371.171.52-.064.067-.173-.09-.285-.194-.392h-.192v-.783c.237-.13.516.28.58-.13-.02-.173-.234-.24-.388-.26-.045-.261.02-.648.194-.913.15-.02.366.09.456-.13.067-.238-.214-.219-.326-.323l.196-.848c.214-.023.394.39.584.063.22-.498-.604-.278-.32-.713.06-.197.13-.393.19-.59.066.175.35.175.526.263l.193-.193c-.04-.218-.437-.307-.327-.592.261-.042.499-.478.717 0 .135.044.2-.064.262-.13-.33-.454.15-.56.391-.783.241 0 .045.243.193.33h.328c.22-.239-.13-.39-.062-.656l.715-.32c-.023.32-.023.646.26.842.108 0 .173-.128.255-.196.112-.256-.256-.496.135-.646l.518.196c.218.194-.434.563.068.78.215-.045.257-.283.324-.454.327-.22.517.215.783.32.084.284-.434.478-.064.717.24.11.37-.192.458-.325.386.261 1.019.48.584 1.11.04.106.173.044.26.064.15-.106.175-.257.257-.394l.85.46c-.15.152-.39.369-.39.652l.196.13.583-.653c3.585 1.022 6.738-1.607 8.73-4.234.393-.282.783-.541 1.309-.522M35.565 12.196c.027.393-.52.282-.715.588-.39.5-1.543.952-1.104 1.692.865-.568 1.67-2.19 2.93-1.306.087.068.198.24.198.398-1.025.193-1.894.802-2.473 1.626.015.107-.068.346.126.327.371-.177.871-.695 1.235-.978.372-.302.933-.37 1.372-.326.148.216.322.435.257.714-.78.197-1.758.892-2.023 1.76.416.478.504-.327.787-.387.456-.395.885-.872 1.568-.783.188.258.409.518.318.91-.781 1.042-2.147 1.368-2.733 2.606-.244.43-.498.958-1.042 1.042-.5-1.281-1.498-2.606-2.994-2.737-.72.218-.547-.697-.656-.978.542-1.322-1.016-2.19-.389-3.388.349-.13.827-.325 1.172-.064.955.672.062 2.52 1.563 2.737.503.563.609 1.303.91 1.954.151 0 .306.02.394-.13-.333-1.09-.634-2.172-1.696-2.735-.347-.613.023-1.371.46-1.893.756-.623 1.538-1.259 2.535-.649"/>
        <path fill="#1A1919" d="M22.802 13.499c.907 1.194 1.496 2.865 1.232 4.365-.215.563-.76 1-1.366 1.173-.76-.024-1.519 0-2.018-.65-1.002-1.239-1.72-2.758-1.305-4.431.24-.59.741-.958 1.305-1.172.85-.07 1.562.282 2.152.715"/>
        <path fill="#FFFFFE" d="M23.127 15.06c.24.72.565 1.393.52 2.216-.11-.953-.676-1.932-1.563-2.345-.481-.216-1.133-.193-1.694 0l-.589.59c-.109-.545-.127-1.045.073-1.565.187-.436.645-.476.976-.718 1.124 0 1.844.954 2.277 1.822"/>
        <path fill="#1A1919" d="M17.715 14.8c1.089 1.391 1.845 3.478 1.046 5.082-.437.608-1.212.933-2.022.98-1.843-.329-2.278-2.325-2.734-3.843-.085-.828-.198-1.89.52-2.412.845-.564 1.762-.587 2.671-.261l.52.455"/>
        <path fill="#FFFFFE" d="M17.982 15.78c.433.891.78 1.823.716 2.934-.397-.783-.671-2.128-1.887-2.478-.677-.024-1.31-.024-1.827.39-.153.173-.375.326-.459.522-.148-.457-.281-1.084-.129-1.627l.651-.783c1.103-.564 2.386.088 2.935 1.041M21.62 17.084c-.057.192.182.627-.19.582-.193.026-.326-.193-.39-.324.09-.346-.19-.651.132-.846.238.046.301.392.449.588M5.734 21.186c-.11.043-.201.086-.328.067-.218-1.37.238-2.48 1.108-3.389-.368.934-.912 2.13-.78 3.322M16.48 18.517c-.067.347.149.562-.193.781-.33.046-.484-.325-.523-.584-.111-.262-.111-.721.193-.85.24.086.413.414.523.653M33.35 19.23c.22.608.65 1.045.459 1.762l-.392.321c-.52-1.318-1.669-2.408-3.057-2.861-.025-.264.256-.48.453-.588 1.172-.198 1.845.673 2.537 1.365"/>
        <path fill="#0060A0" d="M32.701 20.924c1 1.063-.52 1.914-.78 2.868-.914 1.106-1.915 2.588-3.453 2.347-1.586-.61-.74-2.562-1.239-3.65l-.65-3.324c.78.502 1.017 1.346 1.823 1.565.695-.627 1.281-2.171 2.54-1.565a3.816 3.816 0 0 1 1.76 1.759"/>
        <path fill="#1A1919" d="M25.925 20.14v.263h-.32c0-.106-.135-.177-.201-.262-1.128 1.218-.587 3.3-.587 4.822.393 1.63-.28 3.217-1.435 4.041-1.102.366-2.363.955-3.448.257-1.236-.54-2.02-1.56-2.413-2.862-.258-1.35-.413-2.782-1.371-3.777-.083.281-.083.606-.259.845-.54-.218-.088-.783-.127-1.175.127-.28.237-.562.523-.78l.26.067c.041.193-.048.347-.198.452.651.458 1.522.436 2.349.523 2.275-.286 4.604-1.041 6.12-2.607-.154-.085-.39-.065-.456-.262l.066-.194c.569.067 1.279.044 1.497.65"/>
        <path fill="#FFFFFE" d="M23.382 23.274c-1.761.69-3.754 1.432-5.796.842-.037-.476-.343-.823-.52-1.235 2.52.171 5.19-.35 7.232-1.824-.264.694.392 2.039-.916 2.217"/>
        <path fill="#0060A0" d="M8.73 22.363c.365.777.215 1.881-.332 2.466l-.908.786c-.37-.305-.956-.523-1.37-.324-.039.56.674.413.978.715.434.393.915.694 1.111 1.236-.872.35-1.804 1.09-2.475 1.762-.153.198-.153.366-.459.257-1.278-1.407-4.32-1.234-3.777-3.903 1.43-1.932 3.171-3.671 5.73-3.977.652.092 1.17.349 1.502.982"/>
        <path fill="#FFFFFE" d="M9.253 28.027c-.09.85-1.176.737-1.763 1.109-.392.497-1.066.513-1.106 1.174-.087-.026-.135.083-.196.125-.346-.455-.217-.956.13-1.367.826-.633 1.608-1.388 2.737-1.237l.198.196M5.406 29.915c-.022.696.565 1.216.263 1.956-.457-.175-.65.257-.98.389a2.339 2.339 0 0 0 0 1.955c.215.329.5.67.98.65.498.131.995-.716 1.493-.197.614.197 1.091-.886 1.568-.124.891.342 1.086-.873 1.757-.724-.934.546-.78 1.848-.979 2.74-1.278-.132-2.714.133-3.839.78.042-.174.692-.415.259-.713-.303-.153-.194.264-.46.264-.193-.198-.479-.463-.516-.785.171-.094.476-.065.517-.33 0-.108-.13-.174-.194-.258l-.522.258c-.214-.234-.366-.52-.39-.843.13-.09.283-.11.39-.265 0-.101-.13-.168-.193-.257l-.391.133-.456-.849c.194-.024.24-.194.394-.259.04-.218-.2-.266-.33-.33l-.197.13a1.975 1.975 0 0 1-.39-1.042c.217.066.39-.087.458-.258-.041-.375-.394-.11-.589-.132-.108-.214-.32-.522-.32-.845.212-.044.32-.135.451-.329-.13-.32-.393-.127-.581-.062-.135-.24-.2-.502-.2-.784.109-.135.33 0 .388-.194.047-.152-.059-.282-.188-.329l-.332.133-.326-.845c.153-.084.433 0 .457-.261 1.085.46 1.979 1.15 2.998 1.627"/>
        <path fill="#FFFFFE" d="M10.943 29.59c.408 1.04.908 2.584.067 3.58h-.458c-.13-1.194.11-2.387-.845-3.12l-.135.126c.287 1.236.962 2.824-.32 3.712-.18.11-.413.086-.522-.132.11-.908.391-1.996 0-2.864-.13-.045-.222-.196-.39-.132-.179.35.044.868.058 1.301-.168.723.202 1.827-.84 2.025l-.46-.063c.392-.788.31-1.87.329-2.741l-.2-.131-.325.393c-.018.824.175 2.127-.782 2.67-.409.215-.624-.173-.845-.458.131-.32-.215-.282-.194-.586.091-.215-.021-.454.194-.65h.258c-.081.104-.064.264-.064.393.112.107.265.305.395.124.385-1.078.477-2.254 1.363-3.057.674-.586 1.525-.735 2.281-1.103.614-.046 1.09.278 1.435.713"/>
        <path fill="#DC3C41" d="M25.537 33.235c.539.613.886 1.414.91 2.283-1.544 1.495-2.253 3.734-1.82 5.993-.049.61 1.016 1.476-.2 1.632-.976.91-1.52 2.164-1.364 3.511-1.872-1.17-2.09-3.605-1.826-5.6.263-.562.263-1.237.583-1.759-1.449-1.301-1.973-3.168-1.43-5.017.434-.63 1.11-1.108 1.89-1.365.129-.393.648-.088.912-.26.842.063 1.821-.133 2.345.582M14.46 34.802c.783 1.278.716 2.602.324 4.1-.668 1.566-1.646 3.194-3.064 4.172-1.212-1.17-3.274-1.412-4.88-.978-.976.263-1.798 1.215-2.28 2.083-.695.025-1.02-.607-1.433-1.036-.389-1.265.046-2.675.915-3.652 1.146-1.148 2.602-2.385 4.429-2.348.601-.037 1.185.153 1.622-.252-.106-1.026-.062-2.29 1.045-2.868 1.126-.398 2.586-.241 3.323.78"/>
        <path fill="#FFFFFE" d="M30.49 35.195c.256.367.756.736.653 1.303-1.527.255-2.695 1.447-3.196 2.86-.41 1.998-.13 4.325-1.5 5.863-.607.89-1.407 1.912-1.82 2.998-.7-.394-1.002-1.172-1.047-1.954.067-1.431.83-2.582 2.024-3.19-.35-1.493-1.067-3.409-.134-4.888.39-1.627 1.806-3.17 3.517-3.385.613-.153 1.02.215 1.502.393"/>
        <path fill="#1A1919" d="M29.38 35.776c.02.455-.262.74-.65.917-.393.035-.913-.026-.913-.462-.09-.412.301-.713.585-.908.431-.025.894-.044.978.453"/>
        <path fill="#FFFFFE" d="M28.922 36.166c-.192.16-.454.262-.715.132-.195-.367.284-.63.583-.715.328.02.197.43.132.583"/>
        <path fill="#1A1919" d="M27.488 36.693c-.02.978-.352 2.171-1.3 2.664-.278.068-.496-.062-.584-.256 0-1.023.386-2.127 1.168-2.603.286-.024.546 0 .716.195"/>
        <path fill="#FFFFFE" d="M20.196 37.736c.018.168 0 .368-.199.386-.258-.044-.586-.15-.652-.386.215-.092.589-.047.589-.396-.06-.366-.349-.346-.589-.587.133-.043.24-.153.394-.126.15.367.169.801.457 1.109M27.103 36.824c.017.783-.281 1.693-.915 2.144h-.198c.086-.825.322-1.886 1.113-2.144M32.117 37.276c-1.174.108-2.566.628-3.064 1.825-.65 1.452-.803 3.126-1.369 4.624.587-2.143.111-5.647 2.868-6.582.438-.345 1.216-.218 1.565.133"/>
        <path fill="#FFFFFE" d="M33.35 38.256c.896 1.04.5 2.345.333 3.58-.7 2.019-1.999 3.78-3.518 5.277-.963-.301-2.091-.911-2.998-1.497 1.73-1.978 1.213-5 2.797-7.099.85-.781 2.457-1.069 3.386-.261M11.85 44.119c.48.868.574 2.21.133 3.125-.995 1.52-2.928 2.452-4.493 2.214-1.193.067-2.171-.5-2.93-1.302-.607-.52-.041-1.891-1.236-1.827-.656-.629-.586-1.714-.396-2.538.523.501.956 1.109 1.76 1.043.565-1.174 1.588-2.212 2.998-2.475 1.69-.132 3.452.236 4.165 1.76"/>
        <path fill="#1A1919" d="M9.121 43.27c.09.52-.346.67-.723.849-.562.06-.99.48-1.627.389-.257-.2-.322-.568-.193-.848.69-.517 1.868-1.539 2.543-.39M10.811 43.336c.177.368-.02.783-.324.973-.394.11-.671-.172-.915-.257-.214-.214-.106-.563-.127-.849.306-.561 1.154-.369 1.366.133"/>
        <path fill="#FFFFFE" d="M8.793 43.466c-.347.259-.934.325-1.234.653-.29-.151-.612.3-.719-.132.41-.48 1.37-1.327 1.953-.52M10.552 43.6c-.13.104 0 .321-.196.387-.234-.047-.497-.132-.581-.388-.068-.263.127-.353.318-.396.179.108.33.197.459.396M26.84 47.244c-.652.804-.956 1.845-1.171 2.736-.48-.475-.723-1.108-.589-1.76l1.499-2.41c.06.479.393 1.022.261 1.434M28.597 46.85c.456.565 1.826.366 1.498 1.442-.865-.548-1.803-.914-2.736-1.312l-.256-.84c.562.062.97.672 1.494.71M3.713 47.378l-.065.319c-.197-.084-.414-.217-.52-.453l.062-.458c.261.114.546.245.523.592M30.03 48.809c-.323.887-.933 1.497-1.76 2.015-.823.028-1.167.264-1.888-.19-.32-.462-.215-.98-.07-1.5.267-.588.484-1.309.988-1.702.95.355 1.862.81 2.73 1.377M8.276 50.238c-1.156-.149-2.478-.1-3.195-1.043.822.699 2.514.828 3.908.65 1.239-.277 2.385-1.122 3.19-2.082-.411 1.612-2.363 2.239-3.903 2.475"/>
        <path fill="#FFFFFE" d="M11.138 50.112c-1.693.863-3.69 1.239-5.404.126 1.28.737 3.732.481 5.21-.393l1.236-.973c-.216.586-.516.951-1.042 1.24M3.115 7.507l1.713-.572.096.572-.55.184.272 1.609-.61.207L3.763 7.9l-.55.18-.097-.573M5.478 9.02l-.374-2.182.617-.206.368 2.187-.61.201M6.848 7.252l.238-.082c.188-.065.283-.154.258-.302-.026-.16-.146-.197-.293-.148l-.28.095.077.437zm.078.476l.125.76-.607.209-.368-2.18.88-.302c.624-.206.855-.081.929.345.044.252-.015.493-.22.639.21.017.34.033.412.476.051.28.062.381.132.355l.005.068-.614.206c-.026-.04-.068-.174-.098-.37-.046-.281-.104-.365-.39-.266l-.186.06zM8.5 8.006l-.368-2.184 1.518-.514.09.51-.915.304.058.313.767-.258.09.508-.778.261.06.341.949-.314.086.506-1.558.527M10.327 7.387L9.96 5.204l.738-.251.56 1.254.092-1.475.745-.244.366 2.179-.544.187-.111-.67-.054-.338-.038-.408-.001.002-.105 1.514-.426.143-.577-1.284-.002.002.077.31.076.336.12.743-.55.183M13.366 4.754l-.06.843.39-.13-.33-.713zm-.716 1.851l.296-2.41.625-.208 1.038 1.958-.61.205-.118-.265-.61.206-.021.309-.6.205zM15.888 4.465l-.107-.485-.118-.698.589-.197.367 2.18-.578.196-.865-.964.11.489.118.69-.583.198-.374-2.182.576-.192.865.965"/>
        <path fill="#1A1919" d="M33.076 50.412c.147 0 .274-.018.274-.19 0-.137-.12-.166-.243-.166h-.236v.356h.205zm-.205.635h-.17v-1.133h.43c.266 0 .401.093.401.318 0 .205-.127.294-.298.317l.325.498h-.19l-.301-.493h-.197v.493zm.207.25c.446 0 .801-.349.801-.821a.794.794 0 0 0-.8-.815.79.79 0 0 0-.803.815c0 .472.349.821.802.821zm-1.001-.821a.987.987 0 0 1 1.001-.984.99.99 0 0 1 .998.984.987.987 0 0 1-.998.988.984.984 0 0 1-1.001-.988z"/>
        <path fill="#DC3C41" d="M209.332 39.074l3.97-22.522h18.365l-.925 5.252h-10.978l-.573 3.223h9.296l-.936 5.257h-9.285l-.622 3.536h11.416l-.923 5.254h-18.805zm-13.914-12.798h2.905c2.28 0 3.603-.562 3.878-2.128.284-1.591-.835-2.344-2.558-2.344h-3.44l-.785 4.472zm-.876 4.942l-1.378 7.856h-7.384l3.968-22.522h10.636c7.505 0 9.62 2.03 8.85 6.41-.454 2.598-2.006 4.788-4.76 5.503 2.228.88 3.567 1.447 2.77 5.977-.516 2.942-.791 3.938.085 3.938l-.122.694h-7.48c-.095-.506-.027-1.944.325-3.94.519-2.94.189-3.916-3.257-3.916h-2.253zm-19.21 7.856l3.963-22.522h7.389l-3.975 22.522h-7.378zm-18.784-22.522h20.648l-1.039 5.907h-6.635L166.6 39.074h-7.384l2.928-16.615h-6.634l1.038-5.907zm-34.262 22.522l3.965-22.522h18.369l-.93 5.252h-10.978l-.57 3.223h9.29l-.925 5.257h-9.294l-.62 3.53h11.417l-.928 5.26h-18.796zm-19.622 0l3.965-22.522h7.391l-3.048 17.261h10.138l-.927 5.261h-17.52zm-18.993 0l3.97-22.522h7.38L91.98 33.813h10.136l-.926 5.261H83.671zm-20.71 0l3.964-22.522h18.363l-.924 5.252H73.385l-.566 3.223h9.29l-.93 5.257h-9.293l-.617 3.53h11.414l-.923 5.26h-18.8zM51.42 21.804l-.659 3.754h3.063c1.472 0 2.652-.656 2.88-1.967.315-1.757-1.124-1.787-2.685-1.787h-2.6zm-1.384 7.854l-.733 4.155h3.223c1.814 0 3.255-.369 3.554-2.058.346-1.972-1.351-2.097-3.696-2.097h-2.348zm-9.037 9.416l3.965-22.522h10.76c5.072 0 8.9 1.187 8.11 5.657-.41 2.317-2.206 4.008-3.81 4.91 2.332.626 3.272 2.721 2.845 5.164-.883 5.036-5.04 6.791-10.892 6.791H40.999z"/>
    </g>
</svg>
