<svg width="383" height="44" viewBox="0 0 383 44" fill="none" xmlns="http://www.w3.org/2000/svg">
    <path fill-rule="evenodd" clip-rule="evenodd" d="M337.919 2.25v1.892h3.881v6.892h2.362V4.142h3.897V2.25h-10.14zm-8.634 4.605c0 .143.015.446.046.92a12.753 12.753 0 0 0-.604-.536l-6-4.989h-1.613v8.784h2.165V6.301c0-.22-.011-.486-.034-.79.106.1.216.198.331.294l6.262 5.23h1.613V2.25h-2.166v4.605zm-19.111 2.207h-5.204V2.25h-2.362v6.604c0 .847.164 1.41.506 1.722.335.309.92.458 1.789.458h5.337c.868 0 1.453-.15 1.79-.458.339-.312.505-.875.505-1.722V2.25h-2.361v6.812zm-24.428 0h6.087v-4.92h-6.087v4.92zm6.153-6.812h-6.222c-.868 0-1.453.15-1.788.459-.341.313-.507.877-.507 1.723v4.422c0 .847.166 1.41.507 1.722.335.309.92.458 1.788.458h6.222c.868 0 1.453-.15 1.79-.458.339-.312.505-.875.505-1.722V4.432c0-.846-.166-1.41-.505-1.723-.337-.31-.922-.459-1.79-.459zm-18.831 0h-5.044c-.867 0-1.451.15-1.787.459-.342.313-.508.877-.508 1.723v4.422c0 .847.166 1.41.508 1.722.334.309.92.458 1.787.458h5.044c.867 0 1.453-.15 1.787-.456.342-.314.507-.877.507-1.724V7.7l-2.36-.488v1.85h-4.909v-4.92h4.909v1.627l2.36-.371v-.966c0-.846-.165-1.41-.507-1.723-.334-.31-.92-.459-1.787-.459zm-17.822 3.267h-5.088V4.11h5.154V5.12l2.134-.5v-.336c0-.763-.182-1.3-.538-1.598-.352-.293-.926-.437-1.757-.437h-4.798c-.868 0-1.451.15-1.788.459-.341.313-.507.877-.507 1.723v.926c0 .847.166 1.411.507 1.723.335.31.92.459 1.788.459h5.074v1.522h-5.58V8.026l-2.132.439v.389c0 .847.169 1.411.515 1.724.342.307.929.456 1.795.456h5.225c.866 0 1.452-.15 1.794-.456.347-.314.517-.877.517-1.724V7.7c0-.847-.17-1.412-.517-1.724-.342-.31-.931-.459-1.798-.459zm-17.75 5.517h2.362V2.25h-2.362v8.784zM226.35 8.527c-.533.355-1.437.535-2.69.535h-2.34v-4.92h3.29c1.739 0 2.585.791 2.585 2.42 0 .946-.277 1.587-.845 1.965zm1.96-5.138c-.863-.755-2.114-1.139-3.718-1.139h-5.634v8.784h5.127c1.363 0 2.408-.145 3.106-.437a3.786 3.786 0 0 0 1.833-1.63c.397-.711.598-1.508.598-2.373 0-1.365-.442-2.442-1.312-3.205z" fill="#2C2C2C"/>
    <path fill-rule="evenodd" clip-rule="evenodd" d="M167.644 20.738c-1.687-1.985-3.929-3.284-6.727-3.898l-5.92-1.373c-1.073-.269-1.609-.918-1.609-1.948 0-1.3 1.071-1.95 3.219-1.95 2.681 0 5.48 1.073 8.393 3.216l4.484-10.734C164.807 1.564 160.208.32 155.687.32c-5.213 0-9.37 1.398-12.475 4.191-3.104 2.794-4.657 6.372-4.657 10.733 0 6.048 2.128 9.51 6.382 10.39l7.932 1.838c1.112.343 1.668.995 1.668 1.95 0 1.417-1.092 2.124-3.277 2.124-2.607 0-6.016-1.416-10.233-4.247l-4.714 11.439c5.366 3.051 10.731 4.575 16.097 4.575 5.364 0 9.657-1.451 12.877-4.354 3.22-2.902 4.829-6.588 4.829-11.058 0-1.376-.211-2.685-.632-3.925-.422-1.242-1.035-2.32-1.84-3.237zm-63.105 10.321c-.787.555-1.927.832-3.421.832h-2.472v-6.543h2.472c3.065 0 4.599 1.09 4.599 3.27 0 1.074-.394 1.886-1.178 2.441zm-5.893-20.29h1.954c2.453 0 3.679.955 3.679 2.87 0 1.913-1.226 2.869-3.679 2.869h-1.954v-5.74zm12.762 9.93c2.069-.46 3.652-1.445 4.744-2.957 1.09-1.511 1.638-3.359 1.638-5.54 0-3.48-1.169-6.218-3.507-8.208-2.338-1.988-5.615-2.984-9.832-2.984h-19.6v41.04h19.543c10.195 0 15.294-3.863 15.294-11.594 0-5.357-2.761-8.61-8.28-9.758zM64.1 27.523c-1.232 1.645-2.998 2.468-5.304 2.468s-4.094-.823-5.363-2.468c-1.077-1.416-1.614-3.177-1.614-5.281 0-2.794.826-4.88 2.48-6.257 1.23-1.033 2.728-1.551 4.497-1.551 2.191 0 3.882.737 5.073 2.21 1.19 1.475 1.787 3.34 1.787 5.598 0 2.104-.518 3.865-1.556 5.28zM58.796.717c-6.036 0-11.09 1.777-15.164 5.33-4.536 3.937-6.803 9.326-6.803 16.166 0 6.534 2.285 11.827 6.86 15.878 4.228 3.745 9.264 5.618 15.107 5.618 5.918 0 10.992-1.91 15.22-5.732 4.498-4.089 6.746-9.343 6.746-15.764 0-5.886-1.807-10.815-5.42-14.79C71.307 2.954 65.79.718 58.796.718zM20.383 31.06c-.786.555-1.927.832-3.42.832H14.49v-6.543h2.472c3.065 0 4.599 1.09 4.599 3.27 0 1.074-.394 1.886-1.178 2.441zM14.49 10.77h1.954c2.452 0 3.68.955 3.68 2.87 0 1.913-1.228 2.869-3.68 2.869H14.49v-5.74zm12.762 9.93c2.068-.46 3.65-1.445 4.743-2.957 1.092-1.511 1.638-3.359 1.638-5.54 0-3.48-1.17-6.218-3.508-8.208-2.337-1.988-5.614-2.984-9.83-2.984H.693v41.04H20.24c10.193 0 15.29-3.863 15.29-11.594 0-5.357-2.76-8.61-8.277-9.758zm344.853 13.424v-2.586h6.282v-7.358h-6.282v-2.833h9.387l-1.201-7.396h-15.404v27.835h15.481l1.942-7.662h-10.205zm-21.225-7.976c-.68.59-1.667.884-2.961.884h-.704v-6.978h.894c1.218 0 2.155.302 2.808.903.655.602.981 1.475.981 2.615 0 1.128-.34 1.987-1.018 2.576zm7.131.894c.786-1.211 1.18-2.64 1.18-4.287 0-2.864-.968-5.05-2.904-6.55-1.936-1.502-4.738-2.254-8.406-2.254h-7.884v27.835h7.218V29.863l5.769 11.922h7.921l-6.131-12.226a6.115 6.115 0 0 0 3.237-2.518zm-31.765 3.754c0 1.548-.164 2.637-.495 3.27-.329.636-.883.951-1.656.951-.776 0-1.324-.31-1.647-.931-.324-.622-.486-1.717-.486-3.29V13.95h-7.255v16.845c0 2.562.188 4.5.563 5.818.373 1.319 1.004 2.447 1.894 3.385.748.798 1.732 1.42 2.952 1.863 1.218.443 2.544.665 3.979.665s2.76-.222 3.98-.665c1.219-.444 2.209-1.065 2.969-1.863.878-.925 1.5-2.038 1.866-3.338.369-1.298.554-3.254.554-5.865V13.95h-7.218v16.845zM292.807 13.95l-.743 7.035h5.656v20.8h7.255v-20.8h5.654l-.78-7.035h-17.042zM280.65 41.785h7.217V13.951h-7.217v27.834zm-13.946-15.647L256.326 13.95h-3.16v27.835h7.217V29.712l10.245 12.073h3.273V13.95h-7.197v12.188zm-27.665.01c-.68.588-1.665.883-2.96.883h-.704v-6.978h.893c1.219 0 2.155.302 2.809.903.654.602.98 1.475.98 2.615 0 1.128-.339 1.987-1.018 2.576zm7.131.893c.788-1.211 1.18-2.64 1.18-4.287 0-2.864-.968-5.05-2.904-6.55-1.934-1.502-4.738-2.254-8.405-2.254h-7.884v27.835h7.218V29.863l5.769 11.922h7.92l-6.131-12.226a6.11 6.11 0 0 0 3.237-2.518zm-31.722 3.754c0 1.548-.166 2.637-.496 3.27-.33.636-.882.951-1.657.951-.773 0-1.322-.31-1.645-.931-.324-.622-.487-1.717-.487-3.29V13.95h-7.254v16.845c0 2.562.187 4.5.561 5.818.375 1.319 1.006 2.447 1.895 3.385.749.798 1.733 1.42 2.952 1.863 1.218.443 2.545.665 3.978.665 1.435 0 2.762-.222 3.981-.665 1.218-.444 2.208-1.065 2.97-1.863.876-.925 1.497-2.038 1.866-3.338.368-1.298.552-3.254.552-5.865V13.95h-7.216v16.845zm-15.602-9.449-1.124-7.396h-15.291v27.835h7.218V31.537h5.77v-7.358h-5.77v-2.833h9.197zM120.788 0c-.058.01-.055.08-.051.152.771 7.193 1.504 14.42 2.268 21.616h10.986c.668-5.448 1.338-10.914 2.016-16.338.226-1.81.435-3.629.706-5.43h-15.925z" fill="#D4281C"/>
</svg>
