<?xml version="1.0" encoding="UTF-8"?>
<svg id="Layer_2" data-name="Layer 2" xmlns="http://www.w3.org/2000/svg" viewBox="0 0 117.84 80.8">
  <defs>
    <style>
      .cls-1, .cls-2 {
        stroke-width: 0px;
      }

      .cls-2 {
        fill: #f78f22;
      }
    </style>
  </defs>
  <g id="Layer_8" data-name="Layer 8">
    <path class="cls-2" d="m6.27,62.93c4.38,0,7,2.35,7,5.94s-2.63,5.94-7,5.94h-1.04v5.01c0,.2-.16.36-.35.36,0,0-.02,0-.03,0H.36c-.19-.02-.33-.17-.36-.36v-16.53c.01-.19.16-.34.36-.36h5.91Zm.22,7.41c.82-.03,1.45-.71,1.42-1.53h0c-.03-.78-.65-1.4-1.42-1.42h-1.29v2.95h1.29Z"/>
    <path class="cls-2" d="m28.29,75.68c.18-.03.35.09.38.27,0,.01,0,.02,0,.03v3.83c-.03.2-.19.34-.38.36h-11.63c-.16,0-.33-.19-.38-.38v-16.53c-.02-.17.11-.31.27-.33h0s11.44,0,11.44,0c.2-.02.38.13.41.33v3.78c0,.21-.17.38-.38.38h-6.54v1.97h5.28c.17-.02.31.11.33.27,0,0,0,0,0,0v.05l-.33,3.5c-.06.19-.24.33-.44.33h-4.84v2.13h6.81Z"/>
    <path class="cls-2" d="m46.02,62.93c.2-.02.37.13.38.33,0,0,0,.02,0,.03h0v16.53c0,.2-.16.36-.35.36,0,0-.02,0-.03,0h-4.32c-.22-.02-.41-.14-.52-.33l-4.35-7.77v7.74c0,.2-.16.36-.35.36,0,0-.02,0-.03,0h-4.41c-.2,0-.36-.16-.36-.36v-16.53c0-.2.16-.36.36-.36h4.32c.24,0,.45.13.57.33l4.32,7.77v-7.72c0-.19.14-.36.33-.38h4.43Z"/>
    <path class="cls-2" d="m64.54,69.58c.19.01.34.16.36.36v7.96c0,.23-.11.44-.3.57-1.48,1.29-3.78,2.02-6.18,2.02-5.39.03-9-3.58-9-8.97s3.61-9,9-9c1.85.01,3.66.51,5.25,1.45.17.07.26.26.22.44l-1.26,3.69c-.09.17-.28.25-.47.19-1.12-.57-2.36-.87-3.61-.88-2.3,0-3.86,1.64-3.86,4.1s1.56,4.13,3.86,4.13c.93,0,1.56-.16,1.83-.47v-1.45h-2.3c-.18.02-.34-.1-.38-.27l-.33-3.45c-.05-.19.07-.38.26-.43.01,0,.03,0,.04,0h6.87Z"/>
    <path class="cls-2" d="m81.29,62.93c.23-.02.42.16.44.38,0,0,0,.02,0,.03h0v10.42c0,4.41-2.38,6.73-6.89,6.73s-6.87-2.3-6.92-6.73v-10.42c.01-.23.21-.41.44-.41h4.3c.23,0,.42.18.44.41h0v10.89c0,1.15.63,1.81,1.72,1.81s1.78-.66,1.78-1.81v-10.89c0-.23.18-.41.41-.41h4.3Z"/>
    <path class="cls-2" d="m89.52,62.93c.2,0,.36.16.36.36h0v16.53c0,.2-.16.36-.36.36h-4.43c-.19-.01-.34-.16-.36-.36v-16.53c0-.2.16-.36.36-.36h4.43Z"/>
    <path class="cls-2" d="m107.25,62.93c.2-.02.37.13.38.33,0,0,0,.02,0,.03h0v16.53c-.01.2-.18.36-.38.36h-4.32c-.22-.02-.41-.14-.52-.33l-4.35-7.77v7.74c0,.2-.16.36-.35.36,0,0-.02,0-.03,0h-4.43c-.19-.01-.34-.16-.36-.36v-16.53c0-.2.16-.36.36-.36h4.32c.24-.02.47.11.57.33l4.32,7.77v-7.72c.02-.19.17-.35.36-.38h4.43Z"/>
    <path class="cls-1" d="m23.75,45.8c.02,1.57-.3,3.13-.93,4.57-.57,1.4-1.43,2.65-2.52,3.69-1.08,1.05-2.34,1.89-3.72,2.49-1.44.61-3,.93-4.57.93H0V.85h12.01c1.57-.01,3.13.3,4.57.93,2.8,1.2,5.04,3.43,6.24,6.24.63,1.44.94,3,.93,4.57v8.65c0,.99-.15,1.97-.47,2.9-.28.82-.66,1.61-1.12,2.35-.41.64-.91,1.22-1.48,1.72-.46.4-.98.73-1.53.98.55.28,1.06.62,1.53,1.01.57.49,1.06,1.05,1.48,1.67.47.74.84,1.53,1.12,2.35.31.93.47,1.9.47,2.87v8.7Zm-7.55-33.22c-.06-2.29-1.9-4.13-4.19-4.19h-4.46v17.37h4.46c1.1,0,2.16-.44,2.93-1.23.82-.74,1.28-1.8,1.26-2.9v-9.06Zm-8.65,19.97v17.37h4.46c1.1,0,2.16-.44,2.93-1.23.81-.74,1.27-1.8,1.26-2.9v-9.06c-.06-2.29-1.9-4.13-4.19-4.19h-4.46Z"/>
    <path class="cls-1" d="m28.62,12.42c-.03-3.3,1.27-6.48,3.61-8.81C34.58,1.3,37.74,0,41.04,0c1.64,0,3.26.33,4.76.98,1.48.59,2.82,1.49,3.94,2.63,2.34,2.33,3.64,5.51,3.61,8.81v33.46c.02,1.67-.3,3.33-.96,4.87-.62,1.47-1.52,2.81-2.65,3.94-1.12,1.14-2.46,2.04-3.94,2.65-1.51.63-3.13.96-4.76.96-1.67.01-3.33-.32-4.87-.96-2.97-1.26-5.34-3.62-6.59-6.59-.64-1.54-.97-3.2-.96-4.87V12.42Zm7.55,33.46c0,2.69,2.18,4.87,4.87,4.87h0c1.26.01,2.47-.51,3.34-1.42.93-.9,1.45-2.15,1.42-3.45V12.42c.02-1.3-.49-2.55-1.42-3.45-.87-.91-2.08-1.42-3.34-1.42-1.29-.01-2.54.5-3.45,1.42-.93.9-1.45,2.15-1.42,3.45v33.46Z"/>
    <path class="cls-1" d="m59.32.85h7.55v49.08h12.07v7.55h-19.62V.85Z"/>
    <path class="cls-2" d="m93.55,8.4h13.46c.32,0,.57-.26.57-.57h0c0-.1-.03-.19-.08-.27-2.11-4.1-6.1-6.65-12.31-6.65h-1.75v7.5h.11Z"/>
    <path class="cls-1" d="m106.71,15.54c-.59-1.4-1.44-2.67-2.52-3.75-1.08-1.06-2.34-1.91-3.72-2.52-1.31-.56-2.71-.87-4.13-.9h-2.9V.9h-3.23c-.97,0-1.93.19-2.82.57-.85.36-1.62.88-2.27,1.53-.66.66-1.18,1.44-1.53,2.3-.39.88-.58,1.83-.57,2.79v4.1h.05v45.28h12.83c1.57,0,3.12-.32,4.57-.93,1.38-.6,2.64-1.44,3.72-2.49,1.09-1.04,1.95-2.3,2.52-3.69.63-1.44.95-3,.93-4.57v-25.69c.01-1.57-.3-3.13-.93-4.57Zm-18.69-10.89c0-.97.78-1.75,1.75-1.75s1.75.78,1.75,1.75-.78,1.75-1.75,1.75-1.75-.78-1.75-1.75Zm12.07,41.15c.01,1.1-.45,2.16-1.26,2.9-.77.79-1.82,1.24-2.93,1.23h-5.31V15.92h5.31c1.11,0,2.17.45,2.93,1.26.81.76,1.27,1.82,1.26,2.93v25.69Z"/>
    <path class="cls-1" d="m113.68,72.48c.71,0,1.4.18,2.05.54s1.17.87,1.55,1.53.56,1.36.56,2.09-.18,1.42-.55,2.07-.88,1.17-1.54,1.54-1.35.55-2.07.55-1.42-.18-2.07-.55-1.17-.88-1.54-1.54-.55-1.35-.55-2.07.19-1.43.56-2.09.89-1.18,1.55-1.53,1.34-.54,2.05-.54Zm0,.81c-.57,0-1.12.14-1.65.43s-.94.7-1.24,1.23-.45,1.1-.45,1.68.15,1.14.44,1.67.71.94,1.24,1.24,1.08.45,1.66.45,1.14-.15,1.67-.45.94-.71,1.24-1.24.45-1.08.45-1.67-.15-1.15-.45-1.68-.72-.95-1.24-1.23-1.08-.43-1.65-.43Zm-1.89,5.57v-4.42h.9c.84,0,1.31,0,1.41.01.3.03.53.08.69.18s.3.23.41.42.17.4.17.63c0,.32-.1.59-.31.82s-.5.37-.88.42c.13.05.24.11.31.17s.17.17.3.34c.03.04.14.22.33.54l.52.89h-1.11l-.37-.72c-.25-.48-.46-.79-.62-.91s-.37-.19-.62-.19h-.23v1.81h-.9Zm.9-2.51h.36c.52,0,.84-.02.96-.06s.22-.11.3-.21.11-.21.11-.34-.04-.23-.11-.33-.17-.16-.3-.21-.45-.06-.96-.06h-.36v1.21Z"/>
  </g>
</svg>