<svg fill="none" height="129" viewBox="0 0 477 129" width="477" xmlns="http://www.w3.org/2000/svg"><g fill="#041a55"><path d="m43.6629 11.002c.8485.6349 1.9184.971 2.9513.971.2952 0 .5903-.0373.8485-.0747 2.8038-.4855 4.6483-3.17438 4.2056-5.97532-.2213-1.34445-.9591-2.57686-2.0659-3.36113-2.2503-1.755252-5.4599-1.3071-7.1938.97099-1.7338 2.2781-1.2911 5.52719.9592 7.28246.1107.0747.1845.112.2951.1867z"/><path d="m81.3643 11.4122c.7009.3735 1.5126.5602 2.2873.5602.5533 0 1.1067-.112 1.6232-.2987 2.7299-.9337 4.1687-3.92135 3.2464-6.6476-.4427-1.3071-1.365-2.39013-2.5824-2.98766-2.5455-1.307108-5.6812-.22408-6.9355 2.35279-1.2543 2.57686-.1845 5.71387 2.361 7.02097z"/><path d="m115.228 23.811c-2.73-.859-5.644.6722-6.493 3.4358-.848 2.7636.664 5.7139 3.394 6.5729.517.1494 1.033.2241 1.55.2241.848 0 1.66-.2241 2.398-.5976 2.545-1.3444 3.504-4.4815 2.213-7.0584-.664-1.2324-1.734-2.166-3.062-2.5768z"/><path d="m129.284 61.271c-1.697-2.3155-4.943-2.801-7.267-1.0457-2.325 1.7552-2.767 5.0043-1.033 7.3571 1.697 2.3155 4.943 2.801 7.267 1.0457 1.107-.8216 1.808-2.054 2.029-3.4358.185-1.3818-.184-2.8009-.996-3.9213z"/><path d="m113.642 94.7637h-.073c-2.952.1494-5.239 2.6515-5.091 5.6393.11 2.801 2.361 5.079 5.164 5.154h.111c2.951-.15 5.239-2.652 5.091-5.6396-.111-2.8009-2.361-5.079-5.165-5.1537z"/><path d="m86.6756 117.959c-2.3242-1.681-5.5706-1.121-7.2307 1.232s-1.1067 5.639 1.2174 7.32c2.3242 1.68 5.5706 1.12 7.2307-1.233.8116-1.12 1.1067-2.539.8854-3.921-.2214-1.382-.9961-2.577-2.1028-3.398z"/><path d="m44.9511 117.36c-2.6562.934-4.095 3.847-3.1727 6.536.7009 2.091 2.6193 3.473 4.7959 3.473.5533 0 1.0698-.112 1.6232-.262 2.693-.784 4.2794-3.622 3.5046-6.348-.7747-2.727-3.5784-4.333-6.2715-3.548-.1475.037-.332.112-.4795.149z"/><path d="m18.1691 95.1782c-2.73-.859-5.6444.6722-6.4929 3.4358-.8485 2.764.6641 5.714 3.394 6.573.5165.149 1.033.224 1.5495.224 2.8775 0 5.2016-2.39 5.1647-5.266 0-2.2779-1.4756-4.2946-3.6153-4.9668z"/><path d="m2.08517 60.1841c-2.287253 1.7179-2.766839 5.0043-1.06984 7.3198 1.69699 2.3154 4.94342 2.8009 7.23068 1.083 2.28729-1.7179 2.76679-5.0043 1.06984-7.3198-1.69699-2.3154-4.94342-2.8009-7.23068-1.083z"/><path d="m16.6203 34.0467h.0738c2.8406-.1121 5.0541-2.5769 4.9434-5.4525-.1106-2.7263-2.2872-4.9297-5.0172-5.0044h-.0369c-2.8775.1121-5.0909 2.5769-4.9434 5.4899.1107 2.6889 2.2873 4.8923 4.9803 4.967z"/><path d="m33.2966 28.8178c.8854.6349 1.9183.971 2.9882.971.2951 0 .5902-.0373.8854-.0747 2.8037-.4854 4.722-3.2117 4.2425-6.05-.4796-2.8383-3.1727-4.7802-5.9764-4.2947-1.365.224-2.5455 1.0083-3.3571 2.1287-1.6601 2.3528-1.1068 5.6392 1.2174 7.3197z"/><path d="m62.7334 19.4403c.7009.3735 1.4756.5602 2.2873.5602.5533 0 1.1067-.112 1.6232-.2988 2.7299-.8963 4.1687-3.8839 3.2833-6.6102-.8854-2.7636-3.8367-4.22008-6.5298-3.32378-2.7299.89628-4.1687 3.88398-3.2833 6.61018v.0374c.4427 1.3071 1.4019 2.3901 2.6193 3.025z"/><path d="m91.9153 29.3014c.5165.1493 1.033.224 1.5495.224 2.8775 0 5.1648-2.3528 5.2017-5.2284 0-2.913-2.3242-5.2284-5.1648-5.2658-2.8776 0-5.1648 2.3528-5.2017 5.2285-.0369 2.3154 1.4388 4.3694 3.6153 5.0417z"/><path d="m110.584 54.1341c.258.0373.516.0747.775.0747 2.877 0 5.164-2.3528 5.164-5.2284 0-2.913-2.324-5.2284-5.164-5.2284-2.878 0-5.165 2.3527-5.165 5.2284 0 2.5395 1.881 4.7429 4.39 5.1537z"/><path d="m111.431 85.0958c2.878-.1121 5.091-2.5769 4.943-5.4899-.11-2.7262-2.287-4.9296-5.017-5.0043h-.074c-2.877.112-5.091 2.5768-4.943 5.4898.111 2.7263 2.287 4.9297 5.017 5.0044z"/><path d="m96.4542 100.41c-2.3242-1.6807-5.5706-1.1205-7.2307 1.232-1.6601 2.353-1.1068 5.639 1.2174 7.32 2.3241 1.681 5.5706 1.12 7.2307-1.232 1.6601-2.39 1.1067-5.677-1.2174-7.32z"/><path d="m63.5095 109.035c-2.7299.934-4.2056 3.959-3.2464 6.723.7009 2.128 2.6931 3.547 4.9065 3.585.5534 0 1.1068-.112 1.6601-.262 2.6931-1.083 4.0212-4.145 2.9513-6.871-.996-2.54-3.6891-3.884-6.3084-3.137z"/><path d="m41.3006 102.46c-.6271-1.232-1.7339-2.166-3.0251-2.5768-2.7299-.8589-5.6443.6718-6.4928 3.4358s.664 5.714 3.394 6.573c.4796.149 1.0329.224 1.5494.224 2.2504 0 4.2794-1.494 4.9434-3.697.4058-1.27.2583-2.726-.3689-3.959z"/><path d="m19.7189 74.7486c-2.7668-.4854-5.423 1.3818-5.9394 4.1828-.4796 2.8009 1.3649 5.4898 4.1318 6.0127.1106 0 .1844.0373.2951.0373.2582.0374.5165.0374.7378.0747 1.1068 0 2.1766-.3735 3.0251-1.0457 2.2504-1.7179 2.7299-4.967 1.033-7.2451-.7379-1.083-1.9553-1.8299-3.2834-2.0167z"/><path d="m18.9065 43.6758h-.0738c-2.8775.112-5.091 2.5768-4.9434 5.4898.1107 2.7263 2.2872 4.9297 5.0172 5.0044h.0738c2.8775-.1121 5.091-2.5769 4.9434-5.4899-.1476-2.7262-2.3241-4.8923-5.0172-5.0043z"/><path d="m49.601 25.4901c-1.6601 2.3528-1.0698 5.6392 1.2543 7.3197 2.3241 1.6806 5.5706 1.0831 7.2307-1.2697s1.0698-5.6392-1.2543-7.3198c-1.1068-.7843-2.5086-1.1204-3.8367-.8963-1.4019.2614-2.6193 1.0083-3.394 2.1661z"/><path d="m71.2566 30.0466c.7379 2.2034 2.7669 3.6972 5.091 3.6972.5903 0 1.1437-.112 1.697-.2988 2.8038-.9336 4.3163-3.996 3.394-6.8343-1.1436-2.7636-4.2794-4.108-7.0093-2.9503-2.5086 1.0457-3.8367 3.772-3.1727 6.3862z"/><path d="m99.5521 44.0186c.8489-2.7636-.6641-5.7139-3.394-6.5729-2.73-.8589-5.6444.6723-6.4929 3.4359-.8484 2.7635.6641 5.7139 3.394 6.5728.5165.1494 1.033.2614 1.5495.2614 2.2503-.0373 4.2424-1.5311 4.9434-3.6972z"/><path d="m98.8491 60.2993c-2.2873 1.7179-2.7669 4.967-1.0699 7.2451.8117 1.1204 2.0291 1.83 3.3938 2.0541.258.0373.517.0747.775.0747 1.107 0 2.177-.3735 3.025-1.0084 2.324-1.6432 2.914-4.8549 1.291-7.2077s-4.796-2.9504-7.1198-1.3071c-.1107 0-.1844.0746-.2951.1493z"/><path d="m90.9561 82.8168c-2.0659 2.1287-2.029 5.5646.0738 7.6559.996 1.0084 2.361 1.5312 3.726 1.5312h.0738c2.9513-.2241 5.1647-2.8009 4.9434-5.7886-.1845-2.6889-2.3242-4.8176-4.9803-5.0044h-.0738c-1.4019 0-2.7668.5976-3.7629 1.6059z"/><path d="m80.59 103.394c1.6601-2.353 1.1068-5.6395-1.2174-7.3201-2.3241-1.6806-5.5706-1.1204-7.2307 1.2324s-1.1067 5.6397 1.2543 7.3197c.8854.635 1.9184.971 2.9882.971.2952 0 .5903-.037.8854-.075 1.3281-.224 2.5455-.971 3.3202-2.128z"/><path d="m58.7517 98.5022c-.9223-2.7636-3.8367-4.2201-6.5666-3.2864-2.73.9336-4.1687 3.884-3.2464 6.6472.7009 2.129 2.693 3.586 4.9065 3.586.5534 0 1.1067-.075 1.6232-.262 2.6931-.971 4.1687-3.921 3.2833-6.6848z"/><path d="m37.1682 81.5446c-1.2912-.4109-2.7299-.2988-3.9473.3734-2.5455 1.3445-3.5047 4.5189-2.1766 7.0957.6271 1.2324 1.7339 2.1287 3.0251 2.5769.5164.1494 1.0329.2241 1.5494.2241 2.8406 0 5.1648-2.3155 5.2017-5.1911 0-2.3528-1.4757-4.3695-3.6523-5.079z"/><path d="m33.5524 65.154c.4058-2.8756-1.5494-5.5271-4.39-5.9379-2.8406-.4109-5.4599 1.5685-5.8657 4.4441-.1845 1.3818.1476 2.7636.9592 3.884 1.697 2.3154 4.9434 2.8009 7.2306 1.083 1.1437-.8216 1.8815-2.0914 2.0659-3.4732z"/><path d="m35.7285 36.8438h-.0737c-2.8776 0-5.1648 2.3901-5.1648 5.2657s2.361 5.2284 5.2016 5.2284h.0738c2.8407-.112 5.0541-2.5768 4.9434-5.4525-.0737-2.7636-2.2503-4.9296-4.9803-5.0416z"/></g><path d="m181.378 64.1812c0-14.9383 11.251-26.3288 25.971-26.3288 9.186-.0747 17.745 4.7429 22.504 12.735l-8.596 5.4898c-2.582-5.3405-7.968-8.6642-13.834-8.5149-9.297 0-16.122 7.3572-16.122 16.6189 0 9.0377 6.752 16.5443 15.974 16.5443 6.235.112 11.953-3.6226 14.388-9.4859l8.964 4.855c-4.353 8.9256-13.391 14.5275-23.241 14.4155-15.31-.0374-26.008-11.8013-26.008-26.3289z" fill="#000"/><path d="m248.742 38.5605v51.2012h33.239v-9.5979h-23.389v-41.6033z" fill="#000"/><path d="m301.241 38.5605v51.2012h34.087v-9.3738h-24.274v-11.6519h19.773v-9.3365h-19.773v-11.5025h24.274v-9.3365z" fill="#000"/><path d="m372.478 38.5605-19.147 51.2386h10.072l3.32-9.3365h21.175l3.321 9.3365h10.071l-19.147-51.2386zm4.87 12.5482 7.304 20.3909h-14.646z" fill="#000"/><path d="m429.398 47.6729v16.9177h9.997c6.456 0 9.444-4.0707 9.444-8.6269 0-5.0043-3.209-8.2908-9.444-8.2908zm-9.813-9.1124h20.548c11.658 0 18.593 7.5813 18.593 17.3285.148 6.3488-3.32 12.2121-8.89 15.1624l9.997 18.7477h-10.957l-8.116-16.1335h-11.362v16.1335h-9.776v-51.2386z" fill="#000"/><path d="m465.516 43.305c0-2.5769 2.029-4.6683 4.575-4.6683 2.545 0 4.611 2.054 4.611 4.6309s-2.029 4.6682-4.537 4.6682c-2.472.0747-4.538-1.9046-4.649-4.4068 0-.0747 0-.1494 0-.224zm8.264 0c-.074-2.0167-1.734-3.6226-3.726-3.5479s-3.578 1.7552-3.505 3.7719c.074 1.9794 1.66 3.5479 3.616 3.5479 1.992 0 3.578-1.6432 3.578-3.6599 0-.0374 0-.0747 0-.112zm-2.619.4108 1.143 1.9793h-1.07l-1.069-1.8673h-.738v1.8673h-.922v-4.855h1.807c.812 0 1.734.2988 1.734 1.4565.037.6349-.332 1.2324-.922 1.4565zm-.923-2.0541h-.774v1.3818h.811c.591 0 .812-.2987.812-.7095s-.332-.6723-.922-.6723z" fill="#000"/></svg>