<?xml version="1.0" encoding="UTF-8"?> <svg xmlns="http://www.w3.org/2000/svg" xmlns:xlink="http://www.w3.org/1999/xlink" id="logo" width="311.32" height="87.558" viewBox="0 0 311.32 87.558"><defs><clipPath id="clip-path"><rect id="Rectangle_11" data-name="Rectangle 11" width="311.32" height="87.558" fill="none"></rect></clipPath></defs><g id="Group_24" data-name="Group 24" clip-path="url(#clip-path)"><path id="Path_24" data-name="Path 24" d="M39.37,22.6,37.694,35.726H36.508a12.075,12.075,0,0,0-3.189-7.093,8.43,8.43,0,0,0-6.172-2.514q-6.91,0-12.041,7.809T9.974,52.655q0,7.355,3.433,11.833a10.782,10.782,0,0,0,8.956,4.479q7.318,0,13-8.014l1.063.652a27.7,27.7,0,0,1-7.645,8.851,18.113,18.113,0,0,1-10.59,2.881q-8.5,0-13.348-5.457T0,52.816Q0,39.939,7.809,31.6t17.907-8.343a25.255,25.255,0,0,1,5.457.553,19.757,19.757,0,0,0,3.946.551A3.2,3.2,0,0,0,38.1,22.6Z" transform="translate(0 -7.859)" fill="#0091d9"></path><path id="Path_25" data-name="Path 25" d="M81.04,53.883q-4.661,0-7.768,6.032a28.247,28.247,0,0,0-3.11,13.14,9.263,9.263,0,0,0,1.474,5.4,4.378,4.378,0,0,0,3.718,2.129q5.029,0,8.075-6.095a29.553,29.553,0,0,0,3.048-13.41,8.48,8.48,0,0,0-1.471-5.249,4.713,4.713,0,0,0-3.965-1.945M74.007,83.277a11.819,11.819,0,0,1-8.524-3.229,10.735,10.735,0,0,1-3.373-8.1q0-7.44,6.275-14.1a20.056,20.056,0,0,1,15.148-6.66,10.62,10.62,0,0,1,7.727,3.227A10.429,10.429,0,0,1,94.53,62.1q0,7.767-6.5,14.472t-14.024,6.7" transform="translate(-21.594 -17.797)" fill="#0091d9"></path><path id="Path_26" data-name="Path 26" d="M119.249,72.565,122.026,59.4a5.53,5.53,0,0,0,.124-1.146q0-3.516-5.07-3.639l.247-1.429,13.016-2h.9l-2.516,11.406.163.16a34.887,34.887,0,0,1,5.236-8.321q2.866-3.249,4.906-3.245,2.25,0,5.522,2.695L139.546,61.9q-2.05-3.231-4.181-3.23-3.321,0-5.986,6.414t-2.664,10.712q0,3.758,4.841,4.787l-.328,1.432H112.584l.326-1.432A6.95,6.95,0,0,0,116.836,79q1.349-1.241,2.413-6.44" transform="translate(-39.143 -17.797)" fill="#0091d9"></path><path id="Path_27" data-name="Path 27" d="M168.008,72.565,170.79,59.4a5.848,5.848,0,0,0,.121-1.146q0-3.516-5.069-3.639l.246-1.429,13.014-2h.9l-2.514,11.406.161.16a34.928,34.928,0,0,1,5.235-8.321q2.862-3.249,4.907-3.245,2.247,0,5.522,2.695L188.308,61.9q-2.05-3.231-4.183-3.23-3.317,0-5.983,6.414t-2.667,10.712q0,3.758,4.84,4.787l-.326,1.432H161.345l.327-1.432A6.941,6.941,0,0,0,165.6,79q1.347-1.241,2.411-6.44" transform="translate(-56.096 -17.797)" fill="#0091d9"></path><path id="Path_28" data-name="Path 28" d="M227.456,29.167a4.489,4.489,0,0,1-3.289-1.367,4.534,4.534,0,0,1-1.371-3.333,4.682,4.682,0,0,1,4.66-4.661,4.683,4.683,0,0,1,3.333,7.995,4.541,4.541,0,0,1-3.333,1.367m-11.036,34.9,2.863-13.819a14.753,14.753,0,0,0,.366-2.9q0-3.678-5.316-3.719l.328-1.431,13.678-1.919h.9l-4.944,23.466a11.157,11.157,0,0,0-.246,2.132q0,3.3,4.556,3.8l-.245,1.432H210.041l.37-1.432a6.558,6.558,0,0,0,6.009-5.6" transform="translate(-73.027 -6.886)" fill="#0091d9"></path><path id="Path_29" data-name="Path 29" d="M328.522,72.972l3.924-18.518h-4.09a12.109,12.109,0,0,0-10.73,5.744,20.775,20.775,0,0,0-3.78,11.506,7.346,7.346,0,0,0,1.777,4.992,5.486,5.486,0,0,0,4.271,2.041,6.7,6.7,0,0,0,2.9-.655,14.442,14.442,0,0,0,3.514-2.716,13.706,13.706,0,0,0,2.209-2.394m12.086-21.789L336.3,73.545a14.851,14.851,0,0,0-.288,2.619q0,3.8,4.736,3.92l-.244,1.187L326.437,83.2l1.224-5.973-.162-.161q-5.358,6.21-11.9,6.213a9.263,9.263,0,0,1-6.949-2.923,9.994,9.994,0,0,1-2.822-7.215q0-8.22,7.608-15.086t22.869-6.868Z" transform="translate(-106.331 -17.795)" fill="#0091d9"></path><path id="Path_30" data-name="Path 30" d="M371.852,73.629l2.66-12.716a13.876,13.876,0,0,0,.366-2.778q0-3.473-5.48-3.517l.33-1.429,13.811-2h.858l-1.153,5.267.163.166q4.863-5.438,10.71-5.433a9.463,9.463,0,0,1,6.562,2.405,8.051,8.051,0,0,1,2.68,6.261,12.756,12.756,0,0,1-.247,2.331l-2.552,12.792a7.786,7.786,0,0,0-.163,1.556,3.775,3.775,0,0,0,3.263,4.048l-.245,1.432H387.676l.245-1.432a5.232,5.232,0,0,0,3.455-2.106,15.569,15.569,0,0,0,1.654-4.847l2-9.525a15.671,15.671,0,0,0,.369-3.191q0-5.187-4.98-5.191a8.08,8.08,0,0,0-5.45,2.271c-1.7,1.515-2.579,2.43-2.631,2.761l-3.028,14.555a7.484,7.484,0,0,0-.162,1.477q0,2.977,3.905,3.8l-.245,1.432H366.373l.286-1.432a5.711,5.711,0,0,0,3.536-2.145,15.873,15.873,0,0,0,1.657-4.808" transform="translate(-127.38 -17.797)" fill="#0091d9"></path><path id="Path_31" data-name="Path 31" d="M66.059,21.88s121.235-36.571,120.118-1.1c0,0,21.425-47.482-120.118,1.1" transform="translate(-22.967 0)" fill="#ffa600"></path><path id="Path_32" data-name="Path 32" d="M223.191,25.669s-7.838,26.542,131.862-5.232c0,0-145.951,40.076-131.862,5.232" transform="translate(-77.266 -7.106)" fill="#0091d9"></path><path id="Path_33" data-name="Path 33" d="M299.689,121.325l1.132-5.975c.174-.941.3-1.759.384-2.456h1.271l-.226,1.585h.052a3.6,3.6,0,0,1,2.962-1.777,1.835,1.835,0,0,1,1.968,1.881,3.616,3.616,0,0,1,3.1-1.881,2,2,0,0,1,2.038,2.212,8.628,8.628,0,0,1-.139,1.429l-.941,4.982h-1.411l.906-4.86a5.618,5.618,0,0,0,.121-1.1c0-.888-.331-1.463-1.271-1.463-1.045,0-2.282,1.219-2.63,3.1l-.819,4.32h-1.394l.941-4.947a5.456,5.456,0,0,0,.1-1.027c0-.714-.192-1.446-1.254-1.446s-2.369,1.393-2.7,3.187l-.784,4.233Z" transform="translate(-104.195 -39.184)" fill="#0091d9"></path><path id="Path_34" data-name="Path 34" d="M330.074,116.222c0,2.6-1.846,5.3-4.668,5.3a3.218,3.218,0,0,1-3.292-3.467c0-2.769,1.933-5.347,4.668-5.347a3.216,3.216,0,0,1,3.292,3.518M323.612,118c0,1.376.748,2.369,1.986,2.369,1.707,0,3-2.194,3-4.163a2.085,2.085,0,0,0-1.969-2.351c-1.812,0-3.031,2.211-3.013,4.145" transform="translate(-111.992 -39.185)" fill="#0091d9"></path><path id="Path_35" data-name="Path 35" d="M338.439,113l.731,4.808c.123.958.227,1.6.262,2.072h.052a19,19,0,0,1,.888-1.968L342.95,113h1.585l-4.686,8.431h-1.429L336.958,113Z" transform="translate(-117.153 -39.287)" fill="#0091d9"></path><path id="Path_36" data-name="Path 36" d="M349.159,119.654l1.62-8.431h1.445l-1.62,8.431Zm1.881-10.782A.959.959,0,0,1,352,107.9a.837.837,0,0,1,.852.906.952.952,0,0,1-.975.975.833.833,0,0,1-.835-.906" transform="translate(-121.395 -37.513)" fill="#0091d9"></path><path id="Path_37" data-name="Path 37" d="M355.939,121.325l1.132-5.975c.192-.941.3-1.759.4-2.456h1.288l-.209,1.654h.035A3.686,3.686,0,0,1,361.7,112.7a2.075,2.075,0,0,1,2.143,2.352,8.188,8.188,0,0,1-.157,1.359l-.941,4.912H361.3l.924-4.86a5.583,5.583,0,0,0,.121-1.08c0-.854-.331-1.481-1.324-1.481-1.027,0-2.491,1.237-2.874,3.327l-.767,4.093Z" transform="translate(-123.752 -39.184)" fill="#0091d9"></path><path id="Path_38" data-name="Path 38" d="M370.773,123.241a4.464,4.464,0,0,0,2.23.558c1.411,0,2.526-.732,3.031-3.014l.279-1.254h-.052a3.363,3.363,0,0,1-2.926,1.794,2.656,2.656,0,0,1-2.561-2.926,5.5,5.5,0,0,1,5.348-5.7,6.859,6.859,0,0,1,2.7.592l-1.289,6.967c-.348,1.777-.819,3.014-1.707,3.763a4.441,4.441,0,0,1-2.944.941,5,5,0,0,1-2.526-.592Zm6.462-9.093a3.53,3.53,0,0,0-1.394-.279c-2.107,0-3.553,2.2-3.57,4.285,0,.924.33,2.02,1.62,2.02,1.237,0,2.491-1.568,2.8-3.222Z" transform="translate(-128.765 -39.184)" fill="#0091d9"></path><path id="Path_39" data-name="Path 39" d="M390.939,119.862a3.835,3.835,0,0,0,1.811.523,1.454,1.454,0,0,0,1.6-1.376c0-.661-.3-1.063-1.167-1.55a2.517,2.517,0,0,1-1.515-2.143,2.776,2.776,0,0,1,3.049-2.613,3.5,3.5,0,0,1,1.759.418l-.4,1.1a3,3,0,0,0-1.462-.384,1.354,1.354,0,0,0-1.5,1.271c0,.61.4.993,1.15,1.411a2.653,2.653,0,0,1,1.585,2.213c0,1.776-1.446,2.769-3.223,2.769a3.7,3.7,0,0,1-2.09-.575Z" transform="translate(-135.782 -39.184)" fill="#0091d9"></path><path id="Path_40" data-name="Path 40" d="M402.884,113l.836,4.546c.191.958.3,1.585.383,2.212h.035c.226-.54.47-1.132.905-2.055l2.143-4.7h1.532l-3.153,6.41a15.717,15.717,0,0,1-2.909,4.424,5.285,5.285,0,0,1-2.456,1.464l-.349-1.237a5.624,5.624,0,0,0,1.551-.819,6.532,6.532,0,0,0,1.62-1.934.6.6,0,0,0,.052-.384L401.386,113Z" transform="translate(-139.02 -39.287)" fill="#0091d9"></path><path id="Path_41" data-name="Path 41" d="M414,119.862a3.835,3.835,0,0,0,1.811.523,1.454,1.454,0,0,0,1.6-1.376c0-.661-.3-1.063-1.167-1.55a2.517,2.517,0,0,1-1.515-2.143,2.776,2.776,0,0,1,3.049-2.613,3.5,3.5,0,0,1,1.759.418l-.4,1.1a3,3,0,0,0-1.462-.384,1.354,1.354,0,0,0-1.5,1.271c0,.61.4.993,1.149,1.411a2.653,2.653,0,0,1,1.585,2.213c0,1.776-1.446,2.769-3.222,2.769a3.7,3.7,0,0,1-2.09-.575Z" transform="translate(-143.801 -39.184)" fill="#0091d9"></path><path id="Path_42" data-name="Path 42" d="M428.775,109.526l-.435,2.265h2.02l-.226,1.132h-2.021l-.783,4.093a7.362,7.362,0,0,0-.157,1.359.71.71,0,0,0,.8.8,3.944,3.944,0,0,0,.68-.052l-.07,1.132a3.365,3.365,0,0,1-1.115.157,1.567,1.567,0,0,1-1.777-1.637,7.85,7.85,0,0,1,.175-1.585l.836-4.267h-1.219l.227-1.132h1.2l.366-1.9Z" transform="translate(-147.931 -38.08)" fill="#0091d9"></path><path id="Path_43" data-name="Path 43" d="M439.778,120.838a5.8,5.8,0,0,1-2.787.662c-2.23,0-3.206-1.515-3.206-3.379,0-2.543,1.881-5.417,4.6-5.417a2.191,2.191,0,0,1,2.474,2.159c0,2.213-2.491,2.8-5.609,2.753a3.491,3.491,0,0,0,.174,1.6,1.918,1.918,0,0,0,1.881,1.132,4.7,4.7,0,0,0,2.264-.592Zm-1.6-7c-1.376,0-2.4,1.342-2.752,2.665,2.264.017,4.041-.279,4.041-1.586,0-.7-.522-1.08-1.289-1.08" transform="translate(-150.818 -39.185)" fill="#0091d9"></path><path id="Path_44" data-name="Path 44" d="M446.414,121.325l1.131-5.975c.174-.941.3-1.759.384-2.456H449.2l-.226,1.585h.052a3.6,3.6,0,0,1,2.962-1.777,1.834,1.834,0,0,1,1.968,1.881,3.618,3.618,0,0,1,3.1-1.881,2,2,0,0,1,2.039,2.212,8.629,8.629,0,0,1-.14,1.429l-.94,4.982H456.6l.906-4.86a5.567,5.567,0,0,0,.121-1.1c0-.888-.331-1.463-1.271-1.463-1.044,0-2.281,1.219-2.63,3.1l-.819,4.32h-1.394l.941-4.947a5.5,5.5,0,0,0,.1-1.027c0-.714-.192-1.446-1.255-1.446s-2.37,1.393-2.7,3.187l-.784,4.233Z" transform="translate(-155.209 -39.184)" fill="#0091d9"></path><path id="Path_45" data-name="Path 45" d="M468.544,119.862a3.836,3.836,0,0,0,1.812.523,1.454,1.454,0,0,0,1.6-1.376c0-.661-.3-1.063-1.167-1.55a2.517,2.517,0,0,1-1.515-2.143,2.776,2.776,0,0,1,3.049-2.613,3.5,3.5,0,0,1,1.759.418l-.4,1.1a3,3,0,0,0-1.463-.384,1.354,1.354,0,0,0-1.5,1.271c0,.61.4.993,1.15,1.411a2.653,2.653,0,0,1,1.584,2.213c0,1.776-1.446,2.769-3.222,2.769a3.7,3.7,0,0,1-2.09-.575Z" transform="translate(-162.764 -39.184)" fill="#0091d9"></path><path id="Path_46" data-name="Path 46" d="M254.787,57.4Q246.9,64.163,246.9,73.033a9.915,9.915,0,0,0,1.921,5.91,6.974,6.974,0,0,0,5.289,2.951,28.783,28.783,0,0,0,6.952-.92,36.155,36.155,0,0,0,5.281-2.847l-4.6,21.688a3.271,3.271,0,0,1-2.1,2.014,9.074,9.074,0,0,1-3.7.808,8.15,8.15,0,0,1-6.032-2.82,8.937,8.937,0,0,1-2.677-6.288,8.782,8.782,0,0,1,2.377-5.9,14.727,14.727,0,0,1,3.172-2.607c-2.085.44-4.132.751-5.9.968q-7.411,4.556-7.416,9.984a7.748,7.748,0,0,0,4,6.829,18.8,18.8,0,0,0,10.213,2.534q7.513,0,11.681-2.617a10.654,10.654,0,0,0,5.063-7.156l9.379-44.4q-17.126-.531-25.01,6.236m12.189,17.755q-4,3.317-6.684,3.318a4.8,4.8,0,0,1-3.977-2.184,8.92,8.92,0,0,1-1.608-5.42A17.389,17.389,0,0,1,258.616,59.4,11.789,11.789,0,0,1,268,54.68l3.271.244Z" transform="translate(-83.255 -17.775)" fill="#0091d9"></path></g></svg> 