<?xml version="1.0" encoding="UTF-8"?>
<!-- Created with Inkscape by Vulphere (http://www.inkscape.org/) -->
<svg width="151.7282" height="16.4751" version="1.1" viewBox="0 0 151.7282 16.4751" xmlns="http://www.w3.org/2000/svg">
 <title>Crain Communications logo</title>
 <desc>American business to business publisher</desc>
 <defs>
  <linearGradient id="linearGradient14649" x1="73.50151" x2="100.226" y1="45.22674" y2="47.35449" gradientTransform="matrix(3.779528 0 0 3.779528 -238.4897 -436.7207)" gradientUnits="userSpaceOnUse">
   <stop stop-color="#243b60" offset="0"/>
   <stop stop-color="#56779a" offset=".7056074"/>
   <stop stop-color="#6085a9" offset="1"/>
  </linearGradient>
 </defs>
 <g transform="translate(-7.574629 291.6744)">
  <g transform="matrix(.09974575 0 0 .09974575 6.819092 -262.5812)">
   <path d="m232.5545-178.1288c-10.95026-2.75312-19.56274-9.9457-24.43529-20.40675-2.20168-4.72687-2.58571-6.95081-2.60111-15.06319-0.0166-8.75324 0.24538-10.05297 3.2625-16.18482 6.40579-13.01877 17.69263-19.9749 32.71943-20.16514 12.34157-0.15624 18.44449 2.12682 26.07041 9.75274 5.27656 5.27656 6.55203 7.27136 8.33007 13.028 1.15474 3.7386 2.09952 6.97505 2.09952 7.19211 0 0.21707-4.00986 0.39467-8.91079 0.39467h-8.9108l-2.17503-4.49302c-3.05004-6.30055-7.0244-8.84986-14.54324-9.32862-11.79508-0.75106-19.51014 6.24319-20.28349 18.38839-0.77913 12.23599 6.08249 20.39037 17.87555 21.24341 7.81628 0.56538 13.74094-2.68567 16.94096-9.29603l2.18525-4.51413h8.9108c4.90093 0 8.91079 0.1776 8.91079 0.39466 0 0.21707-0.94225 3.44532-2.09389 7.17389-5.15812 16.70006-24.7112 26.57041-43.35164 21.88383zm369.3162 0.50233c-11.42294-1.86148-21.59902-9.62878-26.49111-20.2204-2.4976-5.40742-2.87952-7.42802-2.87952-15.23431 0-7.58784 0.40502-9.86336 2.5813-14.50235 3.29381-7.02115 10.3556-14.08295 17.67927-17.67927 5.10963-2.50911 6.78189-2.81238 15.23943-2.76366 8.41918 0.0485 10.16612 0.38567 15.35496 2.96366 6.37435 3.16698 11.82836 8.70942 14.7426 14.98162 2.81915 6.06752 2.52883 7.5-1.52001 7.5-3.05233 0-3.5529-0.39527-4.62872-3.65504-2.82147-8.54916-13.71287-15.34496-24.59282-15.34496-12.98043 0-24.89584 10.17351-27.25606 23.27154-2.38611 13.24169 3.88075 26.01627 15.39277 31.37715 6.09096 2.83642 17.46617 3.22837 23.2894 0.80248 4.83128-2.01265 10.54369-7.62967 12.76191-12.54881 1.53727-3.40907 2.18295-3.90236 5.10784-3.90236 4.03324 0 4.27544 1.45299 1.27526 7.65053-2.86751 5.92348-11.77394 13.82644-17.66559 15.67524-6.31913 1.98294-12.73266 2.55101-18.39091 1.62894zm81 0.0123c-11.06278-1.83214-20.78523-9.04034-26.20777-19.43037-2.88723-5.53216-4.14669-6.58163-4.1522-15.28774-5e-3 -8.13326 1.36071-10.54049 3.57064-15.25123 3.30398-7.04284 10.38059-14.10601 17.68071-17.64715 4.95228-2.40226 6.97324-2.78798 14.75902-2.81695 8.20962-0.0305 9.6204 0.26152 15.68482 3.24702 12.87162 6.33668 20.01955 17.78948 20.11364 32.22718 0.0532 8.15732-2.48277 15.40656-7.85212 22.44614-6.83752 8.96445-21.66911 14.48847-33.59674 12.5131zm16.54956-9.02301c11.10741-4.15584 18.32924-16.0189 17.32999-28.46744-1.20788-15.04766-12.65055-25.68459-27.75018-25.79613-16.15539-0.11934-28.49343 12.19652-28.37055 28.31957 0.15375 20.17532 19.54517 33.14467 38.79074 25.94398zm231.9062 9.05305c-8.55465-1.77639-15.9167-7.7201-19.70368-15.90764-1.9503-4.21661-2.14817-6.59974-2.4361-29.33939l-0.31338-24.75002h6.99592l0.31542 23.75c0.34288 25.81787 0.5822 27.02128 6.67958 33.58928 4.14676 4.46681 7.98329 6.01023 15.13584 6.08907 8.44627 0.0931 14.66106-3.29418 18.72342-10.20493l2.77658-4.72342 0.31438-24.25 0.31439-24.25h6.99604l-0.31241 25.25c-0.2943 23.7869-0.44001 25.48853-2.5146 29.36647-1.21121 2.26406-3.36937 5.50357-4.79591 7.19891-5.39483 6.4114-18.44757 10.20168-28.17549 8.18165zm182.3241-0.0464c-11.3506-1.90363-21.3514-9.75554-26.4612-20.7755-2.1785-4.69814-2.6367-7.13848-2.6604-14.17515-0.025-7.47904 0.3462-9.29165 3.0941-15.09081 3.6946-7.79734 9.3693-13.57464 17.1934-17.5043 5.0502-2.53644 6.7424-2.85586 15.1836-2.86599 8.4513-0.0101 10.1071 0.29857 15 2.79656 3.025 1.54438 6.7827 4.01319 8.3505 5.48625 3.6609 3.43982 8.628 12.02185 8.6401 14.92829 0.01 1.89688-0.5277 2.25-3.413 2.25-2.9965 0-3.5603-0.41758-4.5296-3.35451-1.8747-5.68037-7.5036-11.2981-13.6097-13.58268-14.5241-5.43417-29.7821 0.79647-36.2171 14.78927-2.1467 4.66792-2.4045 6.39365-2.0171 13.5 0.4812 8.82673 1.8413 12.35214 7.0573 18.29288 4.9306 5.6156 11.7137 8.33798 20.7386 8.32331 11.5832-0.0188 19.5434-4.72831 23.6237-13.97646 1.5612-3.53841 2.1511-3.99181 5.1937-3.99181 3.3237 0 3.4124 0.10086 2.7967 3.17941-0.3497 1.74868-2.0401 5.36776-3.7564 8.0424-6.6923 10.42907-20.6002 16.0109-34.2072 13.72884zm230.5757-0.0906c-7.089-1.14321-14.5296-5.06656-19.7022-10.38881-16.9711-17.46192-11.8359-45.80794 10.2702-56.6907 6.0621-2.98437 7.4782-3.27781 15.6848-3.24995 7.9651 0.027 9.7131 0.37726 14.9343 2.9922 7.5058 3.75921 13.6724 9.91485 17.2683 17.23775 2.4588 5.00704 2.8184 6.89056 2.8184 14.76046 0 8.18087-0.3067 9.64399-3.293 15.71007-7.129 14.48106-22.0583 22.19671-37.9808 19.62898zm17.2073-8.26785c5.041-2.10628 12.0561-8.99266 14.6568-14.38784 3.4771-7.21344 3.3089-17.87326-0.4012-25.42864-5.0756-10.33582-14.1295-15.79715-26.1172-15.75379-14.4119 0.0521-26.1661 11.05385-27.3324 25.58253-1.2309 15.33538 7.1757 27.79699 21.2605 31.51567 4.04 1.06665 13.6919 0.24431 17.9335-1.52793zm133.9102 8.42253c-11.2279-2.37308-20.3437-11.57956-20.3437-20.54597 0-2.32125 0.34-2.56237 3.2185-2.28212 2.6993 0.26282 3.3751 0.86292 4.1898 3.72078 1.3635 4.78323 7.2854 10.64858 12.0917 11.97638 10.1785 2.81194 21.9468 0.0205 25.0273-5.93655 1.9159-3.70491 1.8767-8.92544-0.088-11.73046-2.3359-3.33501-6.021-4.86974-18.4051-7.66529-17.9101-4.04297-23.3199-8.43302-23.3199-18.92409 0-11.23373 7.9784-18.44316 21.4793-19.40915 14.9418-1.06908 25.6309 5.33333 29.2699 17.53174 0.615 2.06129 0.3511 2.24696-3.1461 2.21376-3.4896-0.0331-3.9892-0.398-5.8174-4.24856-3.4169-7.19657-11.3377-10.61188-21.1861-9.13502-6.1479 0.92193-10.5302 4.17085-12.2386 9.07346-3.0609 8.78358 1.9587 13.10525 19.0757 16.42338 11.2217 2.17532 16.4512 4.47306 20.1294 8.84443 7.178 8.53053 2.4639 23.25868-9.0201 28.1813-5.1578 2.21091-15.1715 3.12627-20.9166 1.91201zm-1207.344-36.01473v-35h18.88517c21.06838 0 26.21238 0.98317 32.57224 6.2255 5.53341 4.56111 7.90175 10.00388 7.95187 18.2745 0.0509 8.40068-2.23671 13.48451-8.46775 18.81805l-4.12745 3.53295 7.57763 10.00601c4.1677 5.50331 7.93435 10.22647 8.37034 10.49593 0.43598 0.26945 3.38868-5.66223 6.56156-13.18151 3.17287-7.51929 9.69997-22.89643 14.50465-34.17143l8.73579-20.5h16.88351l4.88476 11.5c4.6183 10.87266 23.2666 55.06678 24.36838 57.75 0.38911 0.94761-1.7545 1.25-8.86102 1.25h-9.3743l-2.38319-6-2.3832-6h-29.4527l-2.12315 4.93538c-1.16773 2.71446-2.12314 5.41446-2.12314 6 0 0.71642-6.37625 1.06462-19.49534 1.06462h-19.49533l-7.25467-9.94613-7.25466-9.94612-11.5-0.1078v20h-17zm107.8636 2.75c-1.15897-2.8875-3.0649-7.8371-4.23541-10.99911-1.1705-3.16201-2.37363-5.74951-2.67363-5.75-0.44348-7.2e-4 -2.79034 5.6443-8.78788 21.138-0.18334 0.47361 3.7476 0.86111 8.7354 0.86111h9.06875zm-72.0788-4.82482c3.6184-1.26138 6.21521-4.79432 6.21521-8.45574 0-6.71171-4.94146-9.46944-16.96788-9.46944h-8.03212v19h7.85078c4.31792 0 9.23823-0.48367 10.93401-1.07482zm110.2152 2.07482v-35h18v70h-18zm29 0v-35h13.63866l8.95325 10.25c4.92428 5.6375 12.31808 14.22699 16.43067 19.08776l7.47742 8.83776 0.27159-19.08776 0.2716-19.08776h17.95681v70h-13.75873l-16.37063-18.71079-16.37064-18.71079-0.27207 18.71079-0.27206 18.71079h-17.95587zm277 0.43358v-34.56643l2.75 0.31643c2.42102 0.27857 4.30518 2.91451 15.75 22.03423 7.15 11.9448 13.49173 22.20153 14.09274 22.79274 0.78592 0.77311 4.93421-5.39501 14.7742-21.96781 11.97469-20.16814 13.99032-23.04274 16.15726-23.04274h2.4758v69h-6.96624l-0.26688-25.74587-0.26688-25.74586-11.00758 18.39166c-6.05417 10.11541-11.7305 18.84767-12.61408 19.40501-0.88357 0.55735-2.25568 0.76424-3.04914 0.45976-0.79345-0.30448-6.59212-9.16314-12.88592-19.68593l-11.44328-19.13233-0.2666 26.02678-0.26661 26.02678h-6.96679zm85 0v-34.56643l2.75 0.31643c2.42062 0.27852 4.30709 2.91601 15.75 22.0202 7.15 11.93707 13.48808 22.19015 14.08461 22.78461 0.77855 0.77583 4.94522-5.41926 14.7656-21.95378 11.99377-20.19387 13.98737-23.03461 16.16538-23.03461h2.48441v69h-6.96624l-0.26688-25.7256-0.26688-25.72561-11.11243 18.43754c-6.11183 10.14064-11.78817 18.86378-12.61407 19.38475-0.82591 0.52097-2.15229 0.69754-2.94752 0.39238-0.79522-0.30515-6.59389-9.18542-12.88592-19.73393l-11.44006-19.17909-0.2666 26.07478-0.26661 26.07478h-6.96679zm160 0.0664v-34.5l2.75 0.0132c2.39618 0.0115 5.6449 3.63102 25.25004 28.1322l22.5 28.11905 0.2656-28.1322 0.2655-28.13221h6.9689v69l-3.25-0.034c-3.0126-0.0315-4.4344-1.51071-19.4639-20.25-8.9176-11.11879-18.9301-23.54128-22.25-27.60552l-6.03614-7.38955v55.27905h-7zm77.00004 0v-34.5h7v69h-7zm98.584 26.75c1.9435-4.2625 8.9823-19.81018 15.6418-34.55041l12.1083-26.8004 3.5243 0.3004 3.5243 0.30041 15.3087 33.8412c8.4197 18.61266 15.3086 34.02516 15.3086 34.25s-1.6989 0.4088-3.7753 0.4088h-3.7753l-4.3504-10-4.3505-10h-35.8352l-9.2162 20h-7.6466zm45.4339-19c0.023-0.9664-14.2551-33.35871-14.5511-33.01169-0.4006 0.46967-14.4668 32.86792-14.4668 33.32103 0 0.77839 28.9993 0.46924 29.0179-0.30934zm41.9821-4.25v-31h-25v-7h58v7h-25v62h-8zm44-3.5v-34.5h7v69h-7zm109.2369 0.25 0.2631-34.25h2.9761c2.6954 0 5.0533 2.59375 25 27.5l22.0239 27.5 1-55h7l0.2631 34.25 0.2632 34.25h-3.3003c-3.634 0-1.7606 2.08336-33.1919-36.91108l-14.0341-17.41107-0.2661 27.16107-0.266 27.16108h-7.9942z" fill="#243b60"/>
   <path d="m78.43721-127.0862c-27.45919-4.30016-50.39827-20.9497-62.88821-45.64524-1.444388-2.8559-3.829508-9.1559-5.300262-14-2.331813-7.6801-2.674102-10.53549-2.674102-22.30747s.342274-14.62737 2.674102-22.30747c4.464734-14.7051 10.93976-25.68879 21.21386-35.98541 38.36302-38.44706 101.602-30.25881 130.1172 16.84771 4.844 8.00216 4.89581 8.79945.7022 10.79925-1.99722.9524-3.7333 1.59985-3.85803 1.43878-.12472-.16108-1.66409-3.02542-3.42085-6.36521-8.9921-17.09512-25.60955-30.05882-46.10479-35.96753-8.999523-2.59453-27.94891-2.60295-37-.0162-26.27189 7.50766-45.83136 26.92996-52.9348 52.56359-2.873345 10.36882-2.873345 27.61664 0 37.98546 2.476656 8.93731 8.467423 20.7739 13.74468 27.15681 9.420892 11.3947 24.63581 21.25994 39.19012 25.41058 9.062487 2.58446 28.01202 2.5723 37-.0238 20.76522-5.99773 38.10432-19.84965 46.98606-37.53637 1.24286-2.475 2.37374-4.63179 2.51305-4.79286.13946-.16109 1.88734.48638 3.88456 1.43878 4.19135 1.9987 4.14085 2.78773-.6909 10.79925-14.89954 24.70469-39.57621 39.56614-68.05453 40.98546-5.026034.2505-11.82073.0355-15.09932-.47807zm-3.337206-24.97487c-10.3257-2.70516-18.65598-7.45521-26.26706-14.97784-5.453083-5.38971-12.93465-16.00131-12.93465-18.34605 0-.84577 5.609113-3.65395 7.298464-3.65395.768782 0 2.251907 1.9125 3.295827 4.25 2.581043 5.77934 13.68784 16.64808 20.40571 19.96834 20.31865 10.04235 42.86548 6.68577 58.56274-8.71834 11.45451-11.24059 17.1288-27.819 14.632-42.75-5.74523-34.357-41.7178-52.5256-73.19474-36.96834-6.717872 3.32026-17.82466 14.189-20.40571 19.96834-1.04392 2.3375-2.527045 4.25-3.295827 4.25-1.820035 0-7.301216-2.8392-7.28908-3.77568.03175-2.45812 7.280652-12.70439 12.89294-18.22432 23.16524-22.78404 59.43458-22.58267 82.70974.45922 18.49041 18.30511 22.68395 45.11463 10.76075 68.79435-4.53483 9.00633-15.23166 19.92212-24.05886 24.55138-13.22211 6.93409-29.11216 8.84069-43.11224 5.17289z" fill="url(#linearGradient14649)" stroke-width=".999999"/>
  </g>
 </g>
</svg>