<?xml version="1.0" encoding="utf-8"?>
<!-- Generator: Adobe Illustrator 23.0.4, SVG Export Plug-In . SVG Version: 6.00 Build 0)  -->
<svg version="1.1" id="Layer_1" xmlns="http://www.w3.org/2000/svg" xmlns:xlink="http://www.w3.org/1999/xlink" x="0px" y="0px"
	 viewBox="0 0 369 104" style="enable-background:new 0 0 369 104;" xml:space="preserve">
<style type="text/css">
	.st0{fill:#3CB4E5;}
	.st1{fill:#006098;}
</style>
<g>
	<g>
		<g>
			<path class="st0" d="M242.4,32.9h6.2l11.7,52.3h-7.5L250.7,74h-10.2l-2.2,11.2h-7.5L242.4,32.9z M245.6,48h-0.1l-3.7,18.9h7.5
				L245.6,48z"/>
			<path class="st0" d="M274,57.8l-9.8-24.9h7.9l5.7,15.5l5.7-15.5h7.9l-10,24.9l10.8,27.4h-7.9l-6.5-17.6l-6.5,17.6h-7.9L274,57.8z
				"/>
			<path class="st0" d="M296.8,32.9h7.5v44.8h14.8v7.5h-22.3V32.9z"/>
			<path class="st0" d="M324.3,32.9h22.3V40h-14.8v15.4h12.9v7.1h-12.9v15.4h14.8v7.5h-22.3V32.9z"/>
		</g>
		<g>
			<path class="st1" d="M3.6,32.9h11.1c8.4,0,13.1,5.1,13.1,13.5v24.5c0,9.7-5,14.3-13.8,14.3H3.6V32.9z M11.1,78.2h3.5
				c4.2,0,5.8-2.1,5.8-6.5V46.4c0-4.1-1.4-6.5-5.8-6.5h-3.5V78.2z"/>
			<path class="st1" d="M34.2,32.9h22.3V40H41.7v15.4h12.9v7.1H41.7v15.4h14.8v7.5H34.2V32.9z"/>
			<path class="st1" d="M68.7,40h-8.7v-7.1h24.8V40h-8.7v45.2h-7.5V40z"/>
			<path class="st1" d="M89.4,32.9h12c8.9,0,13.2,5.2,13.2,15.4c0,6-1.7,10.4-6.5,13.1l8.1,23.9h-7.9l-7-22.3h-4.5v22.3h-7.5V32.9z
				 M96.9,56.3h4.3c5.2,0,6-2.9,6-8.2c0-5.3-0.9-8.2-6.4-8.2h-3.9V56.3z"/>
			<path class="st1" d="M120.2,45.3c0-8.5,6.5-12.8,12.6-12.8c6.1,0,12.6,4.3,12.6,12.8v27.6c0,8.5-6.5,12.8-12.6,12.8
				c-6.1,0-12.6-4.3-12.6-12.8V45.3z M127.7,72.9c0,3.6,2.3,5.3,5.1,5.3c2.7,0,5.1-1.7,5.1-5.3V45.3c0-3.6-2.4-5.3-5.1-5.3
				c-2.7,0-5.1,1.7-5.1,5.3V72.9z"/>
			<path class="st1" d="M151.6,32.9h7.5v52.3h-7.5V32.9z"/>
			<path class="st1" d="M172.4,40h-8.7v-7.1h24.8V40h-8.7v45.2h-7.5V40z"/>
		</g>
		<rect x="199.1" y="2" class="st0" width="6.1" height="64.6"/>
		<rect x="212.5" y="32.5" class="st1" width="6.1" height="69.5"/>
	</g>
	<g>
		<path class="st0" d="M353.5,34.5h-1.8V33h5.3v1.6h-1.8v9h-1.8V34.5z"/>
		<path class="st0" d="M365.4,33v10.6h-1.6v-8.2h0l-1.6,8.2h-0.9l-1.6-8.2h0v8.2H358V33h2.4l1.3,6.2h0L363,33H365.4z"/>
	</g>
</g>
</svg>
