<?xml version="1.0" encoding="utf-8"?>
<!-- Generator: Adobe Illustrator 22.1.0, SVG Export Plug-In . SVG Version: 6.00 Build 0)  -->
<svg version="1.1" id="Layer_1" xmlns="http://www.w3.org/2000/svg" xmlns:xlink="http://www.w3.org/1999/xlink" x="0px" y="0px"
	 viewBox="0 0 331 129.1" style="enable-background:new 0 0 331 129.1;" xml:space="preserve">
<style type="text/css">
	.st0{fill:#4E4351;}
</style>
<title>ddlogo</title>
<g>
	<path class="st0" d="M209.2,42.1L170.2,3v11.1l-4.7-4.7l-4.7,4.7V3l-39,39.1l39,39.1V70l4.7,4.7l4.7-4.7v11.1L209.2,42.1z
		 M171.5,6.2l34.3,35.8l-34.3,35.8v-9.1l26.6-26.7l-26.6-26.7V6.2z M171.5,65.8V18.3l21.5,23.7L171.5,65.8z M159.5,77.9l-34.3-35.8
		l34.3-35.8v9.2l-26.6,26.7l26.6,26.7V77.9z M159.5,18.3v47.5l-21.5-23.7L159.5,18.3z M165.5,72.4l-4.7-5.2V16.9l4.7-5.2l4.7,5.2
		v50.3L165.5,72.4z"/>
	<path class="st0" d="M43.4,103.1h-7.2l1.6,1.6c0.1,0.1,0.2,0.3,0.3,0.5c0.1,0.3,0.1,0.5,0.1,0.8c0,0.3,0,0.8,0,1.3V121
		c0.1,0.8-0.1,1.7-0.4,2.4l-1.7,1.7h7.2l-1.6-1.6c-0.1-0.1-0.2-0.3-0.2-0.4c-0.1-0.3-0.1-0.5-0.1-0.8c0-0.3,0-0.8,0-1.3v-13.8
		c-0.1-0.8,0-1.7,0.4-2.5L43.4,103.1z"/>
	<path class="st0" d="M65.3,121l-7.7-18.4H57l-7.8,18.1c-0.4,1.1-0.9,2-1.6,2.9l-1.5,1.5h5.4l-1.1-1.1l-0.1-0.1l-0.1-0.1
		c-0.2-0.2-0.3-0.4-0.3-0.7c0.1-0.7,0.2-1.3,0.6-1.9l1.5-3.5h8.5L62,121c0.3,0.7,0.6,1.5,0.7,2.3c0,0.2,0,0.3-0.1,0.5l-1.5,1.5h7.4
		l-1.5-1.5C66.2,122.9,65.7,122,65.3,121z M52.6,116.6l3.9-8.9l3.7,8.9H52.6z"/>
	<path class="st0" d="M94.6,121.3v-14.5c-0.1-0.8,0-1.6,0.3-2.4l1.4-1.4h-4.9l-7.9,17.3l-8-17.3h-5l1.5,1.5c0.2,0.3,0.3,0.6,0.3,1
		c0,0.4,0.1,0.8,0.1,1.3v14.5c0.1,0.8,0,1.6-0.3,2.3l-1.4,1.4h4.9l-1.4-1.4c-0.3-0.8-0.4-1.6-0.3-2.4v-14.8l8.5,18.6H83l8.5-18.6
		v14.8c0,0.7,0,1.5-0.3,2.2l-1.8,1.8h7.2l-1.6-1.6C94.7,123,94.6,122.2,94.6,121.3z"/>
	<path class="st0" d="M117.7,106.1c-0.9-1.1-2.1-1.9-3.3-2.6c-1.3-0.7-2.8-1-4.3-1c-3,0-5.8,1.2-7.9,3.3c-1,1-1.8,2.3-2.3,3.6
		c-0.6,1.4-0.8,3-0.8,4.5c0,1.6,0.3,3.2,0.8,4.7c0.5,1.4,1.3,2.6,2.3,3.7c1,1,2.1,1.9,3.4,2.4c1.3,0.6,2.8,0.9,4.2,0.9
		c1.5,0,2.9-0.3,4.2-0.9c1.3-0.6,2.5-1.4,3.5-2.5c1-1.1,1.8-2.3,2.3-3.7c0.6-1.5,0.9-3,0.9-4.6c0-1.4-0.3-2.9-0.8-4.2
		C119.3,108.4,118.6,107.2,117.7,106.1z M116.3,119c-0.3,1.1-0.8,2.2-1.5,3.1c-0.6,0.8-1.4,1.4-2.3,1.8c-0.9,0.4-1.9,0.6-2.8,0.6
		c-1.1,0-2.1-0.2-3-0.8c-0.9-0.5-1.7-1.3-2.2-2.2c-0.6-1-1.1-2.2-1.3-3.3c-0.3-1.4-0.5-2.8-0.5-4.3c0-1.4,0.1-2.8,0.5-4.2
		c0.3-1.1,0.7-2.2,1.3-3.2c0.6-0.9,1.3-1.6,2.2-2c0.9-0.5,2-0.7,3-0.7c1.1,0,2.1,0.2,3.1,0.7c0.9,0.5,1.7,1.2,2.2,2.1
		c0.6,1,1.1,2.2,1.4,3.3c0.3,1.5,0.5,3,0.5,4.5C116.9,116,116.7,117.5,116.3,119z"/>
	<path class="st0" d="M164.1,105.7c-0.7-0.6-1.5-1.2-2.4-1.5c-1-0.4-2.1-0.7-3.2-0.8c-1.4-0.2-2.9-0.3-4.3-0.3h-7.6l1.5,1.5
		c0.3,0.8,0.4,1.6,0.3,2.4v14.3c0.1,0.8,0,1.6-0.4,2.4l-1.5,1.5h8.5c1.8,0,3.6-0.2,5.4-0.8c1.4-0.5,2.8-1.3,3.9-2.3
		c1-1,1.8-2.2,2.3-3.5c0.5-1.4,0.8-3,0.8-4.5c0-2.1-0.5-4.2-1.6-6.1C165.4,107.1,164.8,106.3,164.1,105.7z M163.1,118.2
		c-0.4,1.1-1,2.2-1.8,3.1c-0.8,0.9-1.7,1.5-2.8,2c-1.1,0.5-2.3,0.7-3.5,0.6c-1.2,0-2.3-0.2-3.5-0.5v-18.2l0.7-0.7
		c0.9-0.2,1.8-0.3,2.6-0.3c1.2,0,2.4,0.2,3.6,0.7c1.1,0.5,2,1.1,2.8,2c0.8,0.9,1.4,2,1.8,3.1C164,112.7,164,115.6,163.1,118.2
		L163.1,118.2z"/>
	<path class="st0" d="M240.1,123.2c-0.1-0.3-0.1-0.5-0.1-0.8c0-0.3,0-0.8,0-1.3V107c-0.1-0.8,0-1.6,0.4-2.3l1.6-1.6h-7.2l1.9,1.9
		l0,0.1c0.1,0.2,0.1,0.4,0.1,0.6c0,0.3,0,0.8,0,1.3v14.1c0.1,0.8,0,1.6-0.3,2.4l-1.7,1.7h7.2l-1.7-1.8
		C240.2,123.4,240.1,123.3,240.1,123.2z"/>
	<path class="st0" d="M256.9,114.4c1.6-0.2,3-1,4.1-2.1c0.9-1,1.4-2.2,1.3-3.6c0-1.2-0.4-2.4-1.2-3.3c-0.4-0.4-0.8-0.8-1.3-1.2
		c-0.5-0.3-1-0.6-1.6-0.7c-0.7-0.2-1.4-0.3-2.2-0.4c-0.8-0.1-1.9-0.1-3-0.1h-7l1.8,1.8c0.2,0.7,0.3,1.4,0.3,2.1v14.1
		c0.1,0.8,0,1.6-0.3,2.3l-1.8,1.8h7.2l-1.6-1.6c-0.4-0.8-0.5-1.7-0.4-2.5v-6.3h0.5h1h0.8l7.5,10.3h3.9c-0.4-0.5-3.1-3.7-3.6-4.4
		L256.9,114.4z M252.3,113.8h-0.9v-9.2c0.8-0.2,1.7-0.3,2.5-0.3c0.7,0,1.3,0.1,1.9,0.3c0.6,0.2,1.1,0.6,1.5,1c0.4,0.4,0.8,0.9,1,1.5
		c0.2,0.6,0.3,1.2,0.3,1.9c0,0.7-0.1,1.3-0.4,1.9c-0.3,0.6-0.7,1.1-1.2,1.5c-0.6,0.5-1.3,0.8-2,1
		C254.2,113.7,253.3,113.8,252.3,113.8z"/>
	<path class="st0" d="M281.1,123.3c-0.3,0.2-0.5,0.3-0.8,0.4c-0.4,0.1-0.7,0.2-1.1,0.2c-0.4,0-1,0-1.6,0h-2.9c-0.3,0-0.5,0-0.8,0
		c-0.2,0-0.3-0.1-0.5-0.1c-0.1,0-0.2-0.1-0.2-0.2l-0.1-0.1c-0.1-0.1-0.1-0.2-0.1-0.3c-0.1-0.6-0.2-1.2-0.1-1.8v-7.3h4.8
		c0.6,0,1.1,0,1.7,0.2c0.4,0.1,0.7,0.3,1,0.6c0.2,0.3,1.4,1.4,1.4,1.4v-5.4l-1.3,1.3c-0.3,0.3-0.6,0.5-1,0.6
		c-0.6,0.1-1.1,0.2-1.7,0.2h-4.8v-8.7h6.1c0.6,0,1.2,0,1.8,0.1c0.4,0,0.8,0.2,1.2,0.5l1.6,1.6v-3.4h-16l1.8,1.8
		c0.1,0.2,0.2,0.5,0.2,0.7c0.1,0.6,0.1,1.1,0.1,1.7V121c0,0.7,0,1.4-0.2,2.1c-0.1,0.1-0.1,0.3-0.2,0.4l-1.7,1.6h16.8v-5.5
		c0,0-1.9,2.4-2.5,3C281.7,122.9,281.4,123.1,281.1,123.3z"/>
	<path class="st0" d="M304.3,121.9c-0.5,0.5-1.1,1-1.7,1.4c-0.6,0.3-1.2,0.6-1.8,0.7c-0.7,0.1-1.3,0.2-2,0.2c-1.2,0-2.3-0.2-3.4-0.7
		c-1-0.4-1.9-1.1-2.6-1.9c-0.7-0.9-1.3-1.9-1.6-3.1c-0.4-1.3-0.6-2.7-0.6-4.1c0-1.6,0.2-3.2,0.6-4.8c0.3-1.2,0.9-2.4,1.6-3.4
		c0.6-0.9,1.5-1.5,2.4-2c0.9-0.4,2-0.7,3-0.7c0.8,0,1.7,0.1,2.5,0.3c0.8,0.2,1.5,0.6,2.1,1.1l3,3v-5.6c0,0-0.6,0.7-1.1,1.1
		c-0.2,0.3-0.5,0.4-0.9,0.4c-0.1,0-0.3,0-0.4-0.1c-0.1-0.1-0.3-0.2-0.6-0.3c-0.7-0.4-1.5-0.7-2.3-0.9c-0.8-0.2-1.6-0.3-2.4-0.3
		c-1.5,0-3,0.3-4.5,0.9c-1.3,0.6-2.5,1.4-3.5,2.5c-1,1.1-1.8,2.4-2.4,3.8c-0.6,1.5-0.9,3.1-0.8,4.7c0,1.5,0.2,3.1,0.8,4.5
		c0.5,1.3,1.3,2.5,2.2,3.6c1,1,2.1,1.8,3.4,2.3c1.4,0.6,2.8,0.8,4.3,0.8c1.8,0.1,3.7-0.4,5.3-1.4c1.6-1.1,3-2.6,3.9-4.3l-0.5-0.3
		C305.6,120.4,304.9,121.2,304.3,121.9z"/>
	<path class="st0" d="M308.5,103.1v5.2c0,0,1.3-1.7,1.8-2.3c0.4-0.5,0.9-0.9,1.5-1.2c0.7-0.2,1.4-0.3,2.2-0.2h2.4v16.9
		c0.1,0.8,0,1.6-0.3,2.3l-1.7,1.7h7.2l-1.7-1.7c-0.3-0.8-0.4-1.6-0.3-2.4v-16.8h2.8c0.6,0,1.1,0.1,1.6,0.2c0.4,0.1,0.8,0.3,1.2,0.7
		c0.3,0.3,0.8,0.8,1.2,1.2s1.7,1.8,1.7,1.8v-5.2H308.5z"/>
	<path class="st0" d="M139.8,104.4c0.4,0.8,0.6,1.7,0.5,2.5v12.8l-13.5-16.6h-4.5l1.4,1.4l1.1,1.1l0.3,0.3v15.5
		c0.1,0.8,0,1.6-0.3,2.3l-1.4,1.4h4.9l-1.3-1.3c-0.4-0.8-0.6-1.7-0.5-2.5v-13.5l14.6,17.8h0.6v-18.6c0-0.6,0-1.2,0.1-1.7
		c0.1-0.3,0.1-0.5,0.3-0.8l1.3-1.3h-4.8L139.8,104.4z"/>
	<path class="st0" d="M27.7,97.7c-1-0.9-2.1-1.6-3.3-2.1c-1.4-0.6-3-1-4.5-1.2c-2-0.3-4.1-0.4-6.1-0.3H3.5L5,96.2
		c0.4,0.5,0.6,1.3,0.6,3.2v19.5c0.1,1.1-0.1,2.3-0.5,3.4L3,125h12c2.6,0,5.1-0.3,7.5-1.2c2-0.7,3.9-1.8,5.5-3.3
		c1.5-1.4,2.6-3.1,3.3-5c0.7-2,1.1-4.1,1.1-6.3c0.1-3-0.7-5.9-2.2-8.5C29.5,99.6,28.6,98.6,27.7,97.7z M26.2,115.3
		c-0.6,1.6-1.4,3.1-2.6,4.3c-1.1,1.2-2.4,2.1-3.9,2.8c-1.5,0.7-3.2,1-4.9,1c-1.6,0-3.3-0.3-4.8-0.6V96.4c1.5-0.4,3.1-0.6,4.7-0.7
		c1.7,0,3.4,0.3,5,1c1.5,0.6,2.8,1.6,3.9,2.8c1.1,1.3,2,2.7,2.6,4.3C27.4,107.5,27.4,111.5,26.2,115.3z"/>
	<path class="st0" d="M226.5,97.7c-1-0.9-2.1-1.6-3.3-2.1c-1.4-0.6-3-1-4.5-1.2c-2-0.3-4-0.4-6.1-0.4h-10.3l1.5,2.2
		c0.4,0.5,0.6,1.3,0.6,3.2v19.5c0.1,1.1-0.1,2.3-0.5,3.4l-2.1,2.7h12c2.6,0,5.1-0.3,7.5-1.2c2-0.7,3.9-1.8,5.4-3.3
		c1.5-1.4,2.6-3.1,3.3-5c0.7-2,1.1-4.1,1.1-6.3c0.1-3-0.7-5.9-2.2-8.5C228.2,99.6,227.4,98.6,226.5,97.7z M225,115.3L225,115.3
		c-0.6,1.6-1.4,3.1-2.6,4.3c-1.1,1.2-2.4,2.1-3.9,2.8c-1.5,0.7-3.2,1-4.9,1c-1.6,0-3.3-0.3-4.9-0.6V96.4c1.5-0.4,3.1-0.6,4.7-0.7
		c1.7,0,3.4,0.3,5,1c1.5,0.6,2.8,1.6,3.9,2.8c1.1,1.3,2,2.7,2.6,4.3C226.2,107.5,226.2,111.6,225,115.3z"/>
	<path class="st0" d="M180.6,112.9l-3.5-1.7c-0.7-0.3-1.3-0.7-1.9-1.1c-0.4-0.3-0.8-0.6-1.2-1c-0.3-0.3-0.5-0.7-0.6-1.1
		c-0.1-0.4-0.2-0.8-0.2-1.2c0-0.3,0.1-0.7,0.3-1c0.2-0.4,0.5-0.7,0.8-0.9c0.4-0.3,0.7-0.5,1.2-0.6c0.5-0.2,1-0.3,1.6-0.3
		c0.7,0,1.3,0.1,2,0.2c0.6,0.2,1.3,0.5,1.8,0.9l2.4,2.5v-5.1l-0.9,0.9c-0.1,0.1-0.3,0.1-0.5,0.1c-0.3,0-0.6-0.1-0.8-0.1l-1.3-0.3
		c-0.5-0.1-1-0.2-1.4-0.3c-0.4-0.1-0.8-0.1-1.1-0.2c-0.9,0-1.8,0.2-2.7,0.5c-0.8,0.3-1.5,0.8-2.1,1.3c-1.2,1.2-1.9,2.8-1.9,4.5
		c0,0.6,0.1,1.1,0.2,1.7c0.1,0.5,0.3,1,0.6,1.5c0.3,0.5,0.7,1,1.2,1.3c0.7,0.5,1.4,0.9,2.1,1.3l3.1,1.6c0.8,0.4,1.5,0.8,2,1.2
		c0.5,0.3,0.9,0.7,1.3,1.1c0.3,0.3,0.5,0.7,0.6,1.1c0.1,0.4,0.2,0.9,0.2,1.3c0,0.4-0.1,0.9-0.3,1.3c-0.2,0.4-0.4,0.7-0.8,1
		c-0.3,0.3-0.7,0.6-1.2,0.7c-0.5,0.2-1,0.3-1.5,0.3c-0.8,0-1.5-0.1-2.2-0.4c-0.7-0.3-1.4-0.7-2-1.2c-0.6-0.6-3.3-3.3-3.3-3.3v6.8
		l0.7-0.7c0.3-0.4,0.7-0.6,1.2-0.6c0.4,0,0.9,0.1,1.3,0.2c1.4,0.4,2.9,0.7,4.4,0.7c0.9,0,1.8-0.2,2.7-0.5c0.9-0.3,1.6-0.8,2.3-1.3
		c0.7-0.6,1.3-1.3,1.7-2.1c0.4-0.8,0.6-1.8,0.6-2.7c0-1.3-0.4-2.5-1.2-3.5C183.3,114.4,182,113.5,180.6,112.9z"/>
</g>
</svg>
