<svg xmlns="http://www.w3.org/2000/svg" xmlns:xlink="http://www.w3.org/1999/xlink" width="600" height="150" xmlns:v="https://vecta.io/nano"><path d="M593.7 117.6c0-1.7 1.4-3.1 3.2-3.1a3.12 3.12 0 0 1 3.1 3.1c0 1.7-1.4 3.2-3.1 3.2-1.8 0-3.2-1.4-3.2-3.2m5.9 0c0-1.5-1.2-2.8-2.8-2.8-1.5 0-2.8 1.2-2.8 2.8 0 1.5 1.2 2.8 2.8 2.8a2.73 2.73 0 0 0 2.8-2.8m-1.2 1.8h-.5l-1-1.6h-.8v1.6h-.4v-3.5h1.5c.3 0 .6 0 .9.2s.4.5.4.8c0 .7-.5 1-1.1 1l1 1.5zm-1.6-2c.5 0 1.3.1 1.3-.6 0-.5-.5-.6-.9-.6h-1v1.2h.6zm-430.2-80l-.2-26c-.2-4.2-1.2-6.1-5.3-7-1-.2-3.1-.4-4.8-.4-1.4 0-2.1-.2-2.1-1.1 0-.8.9-1.1 2.7-1.1 6.5 0 14.2.4 17.7.4 3.8 0 11.5-.4 18.9-.4 15.3 0 35.8 0 49.2 14 6.1 6.4 11.9 16.6 11.9 31.2 0 15.5-6.5 27.2-13.4 34.2-5.6 5.8-18.4 14.5-41.1 14.5-4.4 0-9.5-.4-14.1-.7-4.7-.4-8.9-.7-12-.7-1.3 0-4 0-7 .1-2.8 0-6 .3-8.5.3-1.6 0-2.5-.4-2.5-1.2 0-.6.5-1 2-1 1.9 0 3.3-.2 4.4-.5 2.5-.5 3.1-3.2 3.6-6.7.6-5.2.6-14.9.6-26.1V37.4zM182 50.9l.2 24.8c.1 3.1.4 8 1.3 9.3 1.6 2.3 6.4 4.9 16.1 4.9 12.5 0 20.9-2.4 28.2-8.8 7.9-6.7 10.3-17.9 10.3-30.5 0-15.6-6.5-25.7-11.8-30.7C215 9.1 201 7.6 191.4 7.6c-2.5 0-7 .4-8 .9-1.1.5-1.5 1.1-1.5 2.5-.1 4.2-.1 14.8-.1 24.5v15.4zm77.1 42.2c-2-.9-2.3-1.5-2.3-4.2 0-6.8.5-14.1.6-16.1.1-1.8.5-3.2 1.5-3.2 1.1 0 1.2 1.1 1.2 2.1 0 1.6.5 4.2 1.1 6.3 2.7 9.1 9.9 12.4 17.5 12.4 11 0 16.4-7.5 16.4-14 0-6-1.8-11.7-12-19.7l-5.6-4.4c-13.5-10.5-18.2-19.1-18.2-29.1C259.3 9.7 270.6 0 287.6 0c8 0 13.1 1.2 16.3 2.1 1.1.2 1.7.6 1.7 1.5 0 1.6-.5 5.2-.5 14.7 0 2.7-.4 3.7-1.3 3.7s-1.2-.8-1.2-2.2c0-1.1-.6-4.9-3.2-8.1-1.8-2.3-5.4-6-13.4-6-9.1 0-14.6 5.3-14.6 12.6 0 5.6 2.8 9.9 13 17.7l3.4 2.6c14.8 11.2 20.1 19.6 20.1 31.3 0 7.1-2.7 15.6-11.5 21.4-6.1 3.9-13 5-19.5 5-7 0-12.5-.8-17.8-3.2m62.4-79.3c-1.5-4.5-2.8-7.5-4.5-8.7-1.4-.9-3.8-1.1-4.9-1.1-1.2 0-2-.1-2-1.1 0-.8 1-1.1 2.7-1.1 6.4 0 13.1.4 14.2.4s6.5-.4 13.6-.4c1.7 0 2.6.4 2.6 1.1 0 1-1 1.1-2.2 1.1-1 0-2.2 0-3.1.5-1.1.5-1.3 1.3-1.3 2.7 0 1.6 1.2 5.8 2.7 11.3 2.1 8.1 13.5 45.3 15.7 52.1h.4l23.8-63.9c1.2-3.4 2.1-4.4 3.1-4.4 1.4 0 2 1.8 3.6 5.8l25.5 61.7h.4c2.2-8.2 12-40.6 16.3-55 .8-2.8 1.2-5.4 1.2-7.1 0-2-1.1-3.7-5.9-3.7-1.2 0-2.1-.4-2.1-1.1 0-.8 1-1.1 2.8-1.1 6.5 0 11.7.4 12.8.4.9 0 6.1-.4 10.2-.4 1.4 0 2.2.2 2.2 1 0 .9-.6 1.2-1.7 1.2-1.2 0-3 .1-4.3.6-3 1.1-4.3 6-6.9 13-5.7 15.5-18.5 54.5-24.6 72.9-1.4 4.3-2 5.8-3.6 5.8-1.2 0-2-1.5-3.8-6l-25.5-61.5h-.2c-2.3 6.3-18.7 49.7-23.9 61-2.4 5-3 6.5-4.4 6.5-1.2 0-1.7-1.3-2.8-4.5l-26.1-78zM0 115.2h6.9c10.2 0 18.7 5.4 18.7 16.5 0 11.4-8.3 16.9-18.9 16.9H0v-33.4zm4.2 29.6h1.5c8.5 0 15.9-3.2 15.9-12.9 0-9.8-7.4-12.9-15.9-12.9H4.2v25.8zm25.4-29.6h18v3.8H33.8v9.4h13.4v3.8H33.8v12.6h13.8v3.8h-18z"/><use xlink:href="#B"/><path d="M75 115.2h4.2v33.4H75zm40.7 16.6v1.3c0 9.2-6.5 16.2-15.8 16.2-9.4 0-16.9-8.1-16.9-17.3 0-9.6 7.7-17.5 17.3-17.5 5.2 0 10.3 2.3 13.6 6.5l-2.9 2.7c-2.4-3.3-6.4-5.4-10.5-5.4-7.5 0-13.3 6.1-13.3 13.6 0 7 5.8 13.7 13 13.7 5.2 0 10.8-4.5 10.9-9.9h-8.6v-3.8h13.2zm4.4-18.2l25 26.3v-24.7h4.2V150l-25.1-26.3v24.9h-4.1zm34 1.6h18v3.8h-13.8v9.4h13.4v3.8h-13.4v12.6h13.8v3.8h-18zm43.2 33.4h-5.1l-9.8-14.1h-1.7v14.1h-4.2v-33.4h5.1c3 0 6.2 0 8.8 1.6 2.8 1.6 4.4 4.8 4.4 8 0 4.8-3.2 8.8-8 9.4l10.5 14.4zM180.7 131h1.3c4.3 0 8.9-.8 8.9-6.1 0-5.2-5-6-9.1-6h-1.1V131zm45.4-9.5c-1.2-2.1-2.8-3.1-5.4-3.1-2.7 0-5.6 1.8-5.6 4.7 0 2.6 2.6 4 4.7 4.8l2.4.9c4.7 1.9 8.3 4.5 8.3 10.1 0 6.1-4.7 10.4-10.7 10.4-5.4 0-9.6-4-10.3-9.4l4.2-.9c-.1 3.7 2.9 6.3 6.5 6.3s6.2-3 6.2-6.5c0-3.6-2.9-5.1-5.8-6.3l-2.3-1c-3.8-1.6-7.3-3.8-7.3-8.5 0-5.4 4.8-8.6 9.8-8.6 3.7 0 6.8 1.8 8.6 5.1l-3.3 2zm28.4 7.2v-13.5h4.2v33.4h-4.2v-16h-15.9v16h-4.2v-33.4h4.2v13.5zm42.7 3.2c0 9.9-7.9 17.4-17.5 17.4-9.7 0-17.5-7.5-17.5-17.4 0-9.6 7.9-17.4 17.5-17.4 9.5 0 17.5 7.8 17.5 17.4m-4.2 0c0-7.4-5.5-13.5-13.3-13.5s-13.3 6.2-13.3 13.5c0 7.6 6.1 13.5 13.3 13.5s13.3-5.9 13.3-13.5m8-16.7h17.9v3.8h-13.8v9.4h13.4v3.8h-13.4v12.6h13.8v3.8H301zm43.8 23.9l9.4-24.6 9.5 24.6 9.3-23.9h4.5L363.7 150l-9.5-24.6-9.4 24.6-13.9-34.8h4.5zm33.7 1.1l-3.8 8.4h-4.5l16-34.8 16 34.8h-4.5l-3.8-8.4h-15.4zm7.6-17.3l-5.9 13.5h11.9l-6-13.5zm39.6 25.7h-5.1l-9.8-14.1H409v14.1h-4.2v-33.4h5.1c3 0 6.2 0 8.8 1.6 2.8 1.6 4.4 4.8 4.4 8 0 4.8-3.2 8.8-8 9.4l10.6 14.4zM409 131h1.3c4.3 0 8.9-.8 8.9-6.1 0-5.2-5-6-9.1-6H409V131zm19.3-15.8h17.9v3.8h-13.8v9.4h13.4v3.8h-13.4v12.6h13.8v3.8h-17.9zm41.7 13.5v-13.5h4.1v33.4H470v-16h-15.9v16h-4.2v-33.4h4.2v13.5zm42.6 3.2c0 9.9-7.8 17.4-17.5 17.4s-17.5-7.5-17.5-17.4c0-9.6 7.9-17.4 17.5-17.4s17.5 7.8 17.5 17.4m-4.2 0c0-7.4-5.5-13.5-13.3-13.5s-13.3 6.2-13.3 13.5c0 7.6 6.1 13.5 13.3 13.5s13.3-5.9 13.3-13.5m11.6-16.7v19.7c0 5.5 1.6 10.5 8.1 10.5 6.4 0 8.1-5.1 8.1-10.5v-19.7h4.2v21.1c0 7.4-4.6 13-12.2 13-7.7 0-12.2-5.6-12.2-13v-21.1h4z"/><use xlink:href="#B" x="494.3"/><path d="M570.3 115.2h18v3.8h-13.8v9.4h13.4v3.8h-13.4v12.6h13.8v3.8h-18z"/><defs ><path id="B" d="M66.4 121.5c-1.2-2.1-2.8-3.1-5.4-3.1-2.7 0-5.6 1.8-5.6 4.7 0 2.6 2.6 4 4.7 4.8l2.4.9c4.7 1.9 8.3 4.5 8.3 10.1 0 6.1-4.7 10.4-10.7 10.4-5.4 0-9.6-4-10.3-9.4l4.2-.9c0 3.7 2.9 6.3 6.5 6.3s6.2-3 6.2-6.5c0-3.6-2.9-5.1-5.8-6.3l-2.3-1c-3.8-1.6-7.3-3.8-7.3-8.5 0-5.4 4.8-8.6 9.8-8.6 3.7 0 6.8 1.8 8.6 5.1l-3.3 2z"/></defs></svg>