<svg width="119" height="54" viewBox="0 0 119 54" fill="none" xmlns="http://www.w3.org/2000/svg">
<path d="M53.1559 24.6032C49.7607 24.6032 46.3079 24.3873 42.9702 24.6571C35.2014 25.3046 30.6552 29.7288 28.3533 36.3652C26.742 41.0053 25.4184 45.6993 24.0373 50.3933C23.6345 51.7961 22.8864 52.2277 21.3902 52.2277C15.2327 52.1738 9.01762 52.1738 2.86013 52.2277C0.328072 52.2817 -0.420035 51.6882 0.212978 48.9905C0.788445 46.4546 1.65165 43.9727 2.39975 41.4908C6.25538 28.2181 10.2261 14.9453 14.0817 1.67258C14.427 0.485588 15.06 0 16.3836 0C33.475 0 50.6239 0 67.7153 0C71.686 0 71.9162 0.323726 70.8803 3.83075C68.9813 10.0895 67.0823 16.2942 65.1832 22.4989C64.6077 24.3334 64.4351 24.4413 62.3634 24.4413C59.3134 24.4413 56.2059 24.4413 53.1559 24.4413C53.1559 24.5492 53.1559 24.6032 53.1559 24.6032Z" fill="black"/>
<path d="M89.2378 24.549C83.368 24.549 77.4407 24.549 71.571 24.549C69.0389 24.549 68.521 23.8476 69.2116 21.5815C71.1681 15.161 73.1823 8.68646 75.0813 2.21194C75.4841 0.917039 76.2322 0.215633 77.6709 0.107725C78.1888 0.0537706 78.7068 0.0537706 79.2247 0.0537706C87.9718 0.0537706 96.6613 0.107725 105.408 0.0537706C110.99 -0.00018369 115.249 2.05008 117.551 6.85201C119.968 11.8158 119.392 16.6717 115.594 20.9341C113.465 23.3081 110.588 24.4951 107.25 24.549C101.208 24.549 95.2227 24.549 89.2378 24.549Z" fill="black"/>
<path d="M80.4906 52.1745C74.7359 52.1745 68.9812 52.1745 63.2266 52.1745C60.5219 52.1745 59.9464 51.473 60.6945 49.0451C62.6511 42.6785 64.6077 36.3119 66.5067 29.9453C66.9096 28.5425 67.7728 27.7871 69.3265 27.7871C72.434 27.7871 75.5416 27.7871 78.6491 27.7871C85.2094 27.7871 91.7697 27.7871 98.33 27.8411C105.696 27.895 111.163 34.0458 110.357 41.2217C109.782 46.779 106.444 50.5019 101.38 51.6889C99.9989 52.0126 98.5602 52.1205 97.1216 52.1205C91.5971 52.2284 86.0726 52.1745 80.4906 52.1745Z" fill="black"/>
<path d="M38.4814 52.2281C35.6616 52.2281 32.8419 52.2281 30.0221 52.2281C28.4683 52.2281 27.9504 51.7425 28.4108 50.2857C29.8494 45.4838 31.173 40.574 32.8994 35.8799C34.856 30.5924 39.0569 28.0026 45.0993 27.9487C50.3936 27.8947 55.6304 27.8947 60.9246 27.9487C62.7086 27.9487 63.1114 28.3803 62.651 29.9989C61.2699 34.693 59.9464 39.4409 58.2775 44.027C56.2634 49.4764 52.0049 52.1741 45.8474 52.2281C43.3729 52.2281 40.8984 52.2281 38.4814 52.2281Z" fill="#CB1104"/>
<path d="M118.874 49.5839C118.874 51.6881 117.033 53.4147 114.731 53.4147C112.544 53.4147 110.76 51.7421 110.703 49.6379C110.703 47.5337 112.544 45.6992 114.731 45.6992C116.975 45.7532 118.874 47.4797 118.874 49.5839ZM117.723 49.53C117.723 47.8574 116.342 46.5625 114.673 46.6164C113.12 46.6704 111.796 48.0193 111.796 49.5839C111.796 51.2026 113.177 52.6054 114.788 52.5514C116.515 52.5514 117.723 51.2026 117.723 49.53Z" fill="black"/>
<path d="M115.652 50.0154C115.939 50.555 116.227 51.0406 116.457 51.5261C116.342 51.634 116.227 51.742 116.112 51.7959C115.536 51.2024 114.961 50.6629 114.213 49.9075C114.098 50.555 113.983 51.0406 113.81 51.8499C113.465 51.5261 113.12 51.4182 113.062 51.2024C113.004 50.0694 113.004 48.9903 113.062 47.8573C113.062 47.6414 113.58 47.2638 113.81 47.3177C114.673 47.4256 115.536 47.6414 116.285 48.0191C116.457 48.127 116.4 48.9363 116.227 49.368C116.285 49.6377 115.882 49.7996 115.652 50.0154ZM116.054 48.7205C115.421 48.3968 115.191 48.127 114.903 48.181C114.616 48.2349 114.328 48.4508 114.098 48.6126C114.328 48.7745 114.501 49.0982 114.731 49.0982C115.019 49.1522 115.306 48.9903 116.054 48.7205Z" fill="black"/>
</svg>
