<svg viewBox="0 0 500 281" xmlns:xlink="http://www.w3.org/1999/xlink" xmlns="http://www.w3.org/2000/svg" width="500" height="281" fill="none"><g clip-path="url(#a)"><path fill="#000" d="M493.217 129.777c-.383.939-15.702 41.037-29.047 51.611-13.392 10.622-16.195 2.946-16.928-8.997 30.241-20.049 35.417-55.513 19.412-66.485-5.971-4.093-9.538-3.934-16.418 4.395-13.44 16.307-18.122 34.365-18.934 58.204-2.58 2.771-6.545 5.367-8.631 4.841-3.09-.764-8.377-15.208-8.186-24.062 2.039-42.04 4.268-71.628 4.332-72.568 32.231-2.07 71.469-4.873 80.308-6.02a.988.988 0 0 0 .605-1.656c-1.402-1.512-4.348-3.774-9.3-3.98-12.501-.51-39.573-1.689-70.865-.351.399-7.453.765-23.425.255-26.403-.844-4.92-5.653-9.618-10.303-12.5-.78-.479-1.274-.415-1.64.604-.972 2.723-2.246 13.09-4.571 37.773 0 0-.031.446-.079 1.243-14.635.955-27.072 2.516-41.85 5-1.354.223-1.879 1.895-.924 2.85 4.284 4.268 9.189 5.908 14.667 5.845 3.742-.048 12.596-.67 27.342-1.577-.143 15.718-1.592 39.222.08 76.773 0 0-2.548 15.128-8.297 20.956-3.392 3.44-6.879 4.443-7.229-.573-.733-22.31 1.656-41.595 3.423-57.058.574-5.016 1.449-10.287-2.579-13.679-1.147-.971-2.421-1.799-3.695-2.643a1.356 1.356 0 0 0-1.911.398c-1.146 1.783-3.344 5.366-3.774 5.701-.796-.542-3.503-2.708-4.427-3.376-4.395-3.711-8.95-4.316-13.791 3.025-4.108 6.243-7.548 13.027-10.414 19.938-4.985 12.055-12.23 31.913-13.68 35.703-2.006 5.207-3.885 7.691-10.478-1.019 0 0 6.975-42.869 4.395-51.421-1.051-3.471-3.073-6.816-5.207-9.316-2.277-2.66-2.978-.207-3.217.59-2.58 8.678-3.503 35.623-6.513 58.889 0 0-1.322 6.481-2.739 9.57-3.806 8.345-12.979-8.488-12.979-8.488 2.246-18.01 4.029-50.258 3.997-55.417-.015-7.007-1.385-10.877-6.258-14.444a1.09 1.09 0 0 0-1.704.605c-3.599 13.839-8.631 39.302-7.851 72.298 0 0-2.038 7.819-4.236 11.259-2.038 3.185-5.924 2.404-7.086 1.544-1.831-1.337-.844-29.078.605-59.589.398-8.52 1.688-39.573 3.726-68.572 1.8-25.415-7.85-29.094-10.892-30.05-.494-.159-.732.16-.844.415-1.354 3.2-2.309 27.74-2.564 31.642-.669 10.574-1.417 52.901-1.481 55.242-12.532-10.16-14.332-5.143-17.756-.828-4.825 6.115-8.456 15.383-11.02 23.696-3.328 10.765-10.796 37.821-13.918 44.382-1.114 2.341-2.77 5.605-4.825.398-3.487-8.806-.525-46.372.733-57.281 1.083-9.332.382-9.825-5.558-15.224-1.21-1.099-2.532-.095-2.898.653-.558 1.115-2.07 3.535-3.217 5.86-.064-.063-3.249-2.245-5.956-3.63-4.395-2.262-8.201-3.472-12.532 3.137-4.443 6.847-8.52 14.157-11.307 21.785-.923 2.5-6.179 20.51-8.297 27.103-1.385 4.316-9.793 25.161-15.032 24.731-1.625-.127-1.768-3.328-1.879-5-.813-12.883 7.038-36.276 9.14-48.793.94-5.59 1.991-11.275 1.879-16.896-.079-4.093-2.293-7.596-5.908-9.985-.748-.493-1.783-.271-2.293.462-3.01 4.363-5.51 8.631-8.902 12.15-3.312 3.456-6.815 7.772-13.52 6.641.16-1.752-.27-26.913-6.799-25.193-3.838 1.004-6.736 4.714-5.685 25.782.111 2.086.254 9.969 5.509 11.753.144.047-3.264 19.443-5.748 28.982-1.895 7.294-6.816 19.54-9.794 26.531-.541 1.274-1.529 3.949-2.118 5.334-.462 1.051.143 1.465.796 1.115 5.255-2.707 7.485-4.268 10.399-7.644 4.379-5.096 14.237-36.292 13.09-54.828 0-.032 2.835-1.019 8.902-5.223 2.182-1.513 5.988-4.268 7.23-5.351.159 1.21.111 1.736.095 2.229-.159 11.657-6.322 33.808-7.405 45.417-.923 9.874 1.736 18.712 11.577 24.142 4.332 2.389 7.74 2.755 11.355-2.707 2.516-3.822 4.252-8.568 7.405-15.925.43 2.803 1.242 5.255 2.372 7.453 2.341 4.905 4.969 7.835 9.46 10.829 3.997 2.675 6.927 1.146 8.424.143 6.099-5.717 12.023-16.116 13.806-20.383 5.654 12.516 13.902 25.16 20.352 14.22 3.328-5.653 4.682-9.061 5.796-11.434.94 1.864 2.389 8.424 11.004 16.164 6.195 5.557 9.141 5.494 12.644.175 3.026-4.618 6.418-11.848 8.249-16.243 5.048 6.545 8.95 11.115 15.033 14.523 3.137 1.768 6.02 1.8 10.51-4.952 1.816-2.739 5.033-7.676 5.861-10.113 3.36 5.001 7.659 9.906 12.341 13.855 3.328 2.803 7.103 3.567 10.893-3.519 1.242-2.325 4.251-10.59 4.857-13.552 1.321 1.735 1.353 1.911 2.149 2.787 1.88 2.07 3.615 4.363 5.797 6.051 3.408 2.643 5.637 2.213 8.265-1.179 1.322-1.719 2.42-3.63 3.631-5.478.828 1.513 6.115 12.453 14.157 18.298 2.882 2.118 5.494 2.102 7.675-.558 2.978-3.615 6.115-8.631 10.16-17.246 2.994 4.268 9.762 12.772 15.033 15.319 0 0 3.169 2.039 6.704-1.321 4.873-4.618 11.514-15.527 12.246-16.976 2.07 5.606 5.367 12.246 11.227 15.224 5.749 2.914 15.144-6.625 15.734-7.023 1.656 3.169 4.267 7.198 9.029 10.781 14.38 10.845 26.992 5.399 36.547-8.217 7.245-10.319 9.682-15.256 14.077-29.428 2.612-8.393 1.561-17.979.111-22.98-.302-1.035-1.178-.605-1.544.287l.032.048Zm-29.939-12.278c1.274 12.087-6.306 30.416-16.959 38.442 1.783-16.18 2.978-29.827 14.443-44.334 2.309 2.707 2.007 3.615 2.516 5.908v-.016Zm-276.562 63.857c-5.08-.143-4.268-23.6-2.006-33.967 4.857-23.027 12.994-35.081 12.994-35.081 4.252 2.532 4.841 6.13 5.351 11.449 3.105 39.844-14.173 57.663-16.339 57.599Zm75.626-29.858c-2.898 19.205-11.354 33.346-14.778 30.145-2.93-2.755-6.115-19.826-2.994-35.225 5.924-29.317 12.214-33.776 12.214-33.776 7.66 6.513 9.603 12.103 5.558 38.856Zm107.539 14.985c-7.771 17.39-11.004 14.778-12.517 11.259-3.344-10.527-2.022-21.196.255-31.563 7.341-28.855 11.243-32.422 13.201-35.066 4.348 2.468 4.587 8.377 5.303 11.784 1.577 15.001-.812 29.588-6.242 43.586ZM104.593 279.054c.112 2.022-1.035 2.436-3.169.685-2.803-1.911-5.637-4.571-8.551-7.74-4.3-5.016-5.86-10.462-6.37-18.011-1.577-23.058-1.147-43.537.446-72.711l.637-9.316c-11.657 25.304-25.273 34.939-43.283 33.251-26.992-2.548-51.548-38.299-42.328-94.338 8.36-50.226 32.566-88.27 54.876-103.27.048.095-.047-.096 0 0C69.161-1.188 82.283-.9 90.946 3.462c14.013 7.055 30.097 36.435 12.294 83.716-1.274 3.407-2.612 3.391-4.125 2.595-4.172-2.181-9.857-10.829-9.618-15.096 0-.207.223-.86.557-1.847 1.242-3.631 4.188-11.69 5.128-17.55 4.204-26.1-.892-62.392-32.088-36.132a.256.256 0 0 1-.144.047c-16.53 15.001-35.13 45.927-42.948 89.162-8.376 46.404 1.258 81.709 26.387 85.34 19.38 2.803 37.964-29.222 41.149-52.981.955-7.15 2.373-15.526 3.137-19.858.207-1.21 1.56-1.481 2.532-.733 8.854 6.832 10.829 15.973 10.861 19.779.43 44.875-6.227 89.114.509 139.133l.016.016Zm40.257-63.396h10.495c2.58 0 4.618.717 5.908 2.007 1.035 1.035 1.544 2.293 1.544 3.837v.064c0 2.548-1.353 3.965-2.977 4.873 2.611 1.003 4.236 2.516 4.236 5.558v.063c0 4.141-3.361 6.195-8.456 6.195h-10.75v-22.613.016Zm13.011 6.688c0-1.481-1.163-2.325-3.265-2.325h-4.904v4.778h4.586c2.197 0 3.583-.717 3.583-2.389v-.064Zm-2.421 6.593h-5.748v4.969h5.908c2.197 0 3.519-.781 3.519-2.453v-.063c0-1.513-1.131-2.453-3.679-2.453Zm22.645.414-8.695-13.695h5.813l5.398 9.077 5.494-9.077h5.653l-8.694 13.6v9.013h-4.969v-8.918Zm124.753-2.994c.016-2.293.844-4.936 2.707-7.198 1.45-1.767 3.297-2.946 5.494-3.567 3.122-.891 6.211-.78 9.189.526 3.089 1.338 5.159 3.678 6.147 6.879 1.258 4.061.78 7.915-1.736 11.386-1.704 2.357-4.061 3.727-6.895 4.268-2.437.478-4.857.382-7.214-.43-2.803-.955-4.905-2.771-6.29-5.382-.972-1.832-1.402-3.79-1.402-6.482Zm12.103 7.867h.525c.176 0 .351-.032.526-.064 2.134-.302 3.71-1.417 4.682-3.328.907-1.799 1.067-3.71.7-5.669-.509-2.723-2.452-4.953-5.286-5.351-1.211-.159-2.405-.111-3.552.303-2.022.732-3.248 2.213-3.869 4.22-.478 1.529-.51 3.089-.176 4.65.319 1.513 1.02 2.834 2.23 3.838 1.21 1.003 2.643 1.417 4.204 1.385l.016.016Zm22.008 4.029h5v-14.491c.111.111.175.223.239.35l7.453 13.902c.111.207.223.271.445.271h5.049v-22.581h-4.985v14.555c-.095-.159-.159-.239-.207-.335a5782.681 5782.681 0 0 1-7.532-13.997c-.096-.191-.207-.255-.43-.255h-5.064v22.581h.032Zm-112.555-8.934v8.95h5.207v-22.565h-5.239v9.093h-7.835v-9.109h-5.207v22.565h5.223v-8.95h7.835l.016.016Zm64.876-8.997h6.211v-4.618h-17.628v4.634h6.21v17.931h5.207v-17.947Zm-25.495-4.618h-5.223v22.565h13.616v-4.634h-8.393v-17.931Zm-16.529-.016h-5.192v22.581h5.192V215.69Zm111.488.637h-1.083v-.653h2.93v.653h-1.099v2.564h-.748v-2.564Zm2.77-.653h1.035l.892 2.038.892-2.038h1.051v3.217h-.748v-2.293l-1.004 2.293h-.366l-1.003-2.293v2.293h-.749v-3.217Z"/></g><defs><clipPath id="a"><path fill="#000" d="M0 .5h500v280.352H0z"/></clipPath></defs></svg>