<?xml version="1.0" encoding="UTF-8" standalone="no"?>
<!-- Created with Inkscape (http://www.inkscape.org/) -->

<svg
   version="1.1"
   id="svg2"
   width="315.14667"
   height="50.626667"
   viewBox="0 0 315.14667 50.626667"
   sodipodi:docname="GEDC_Horizontal_Color_2020.eps"
   xmlns:inkscape="http://www.inkscape.org/namespaces/inkscape"
   xmlns:sodipodi="http://sodipodi.sourceforge.net/DTD/sodipodi-0.dtd"
   xmlns="http://www.w3.org/2000/svg"
   xmlns:svg="http://www.w3.org/2000/svg">
  <defs
     id="defs6" />
  <sodipodi:namedview
     id="namedview4"
     pagecolor="#ffffff"
     bordercolor="#000000"
     borderopacity="0.25"
     inkscape:showpageshadow="2"
     inkscape:pageopacity="0.0"
     inkscape:pagecheckerboard="0"
     inkscape:deskcolor="#d1d1d1" />
  <g
     id="g8"
     inkscape:groupmode="layer"
     inkscape:label="ink_ext_XXXXXX"
     transform="matrix(1.3333333,0,0,-1.3333333,0,50.626667)">
    <g
       id="g10"
       transform="scale(0.1)">
      <path
         d="m 174.02,129.32 c -13.774,-5.859 -39.848,-13.906 -65.918,-13.906 -36.0395,0 -62.1098,11.348 -80.2739,32.941 C 9.95703,169.957 -0.00390625,202.168 -0.00390625,238.418 0.289063,320.41 48.043,367.266 112.785,367.266 c 25.488,0 45.117,-6.231 54.785,-11.719 l -9.375,-45.02 c -10.84,6.223 -24.023,10.618 -45.703,10.618 -37.2068,0 -65.6209,-26.36 -65.6209,-79.805 0,-51.25 25.7773,-80.906 62.4019,-80.906 9.957,0 18.165,1.464 21.676,3.3 v 51.981 H 100.48 v 43.562 h 73.54 V 129.32"
         style="fill:#1d50a0;fill-opacity:1;fill-rule:nonzero;stroke:none"
         id="path12" />
      <path
         d="m 208.539,238.047 c 0,26.359 -0.293,43.555 -1.172,58.937 h 38.086 l 1.758,-33.312 h 1.176 c 7.32,26.348 24.605,37.336 38.672,37.336 4.097,0 6.148,-0.363 9.375,-1.106 v -52.343 c -3.813,0.742 -7.325,1.464 -12.309,1.464 -16.402,0 -27.539,-10.605 -30.469,-28.183 -0.586,-3.66 -0.879,-7.684 -0.879,-12.442 v -90.425 h -44.531 l 0.293,120.074"
         style="fill:#1d50a0;fill-opacity:1;fill-rule:nonzero;stroke:none"
         id="path14" />
      <path
         d="m 404.211,228.164 c 0,13.176 -4.688,36.242 -24.898,36.242 -19.043,0 -26.665,-21.601 -27.833,-36.242 z M 351.773,190.09 c 1.461,-23.434 19.625,-34.402 40.426,-34.402 15.239,0 27.539,2.55 39.551,7.675 l 5.859,-37.703 c -14.648,-7.687 -32.519,-11.347 -51.855,-11.347 -48.633,0 -76.465,35.144 -76.465,91.515 0,45.402 22.856,95.539 72.363,95.539 46.289,0 63.871,-45.019 63.871,-89.316 0,-9.512 -0.878,-17.93 -1.464,-22.324 l -92.286,0.363"
         style="fill:#1d50a0;fill-opacity:1;fill-rule:nonzero;stroke:none"
         id="path16" />
      <path
         d="m 548.313,202.539 c -23.438,0 -41.602,-6.953 -41.602,-28.187 0,-14.278 7.617,-21.231 17.578,-21.231 10.84,0 20.215,9.149 23.149,20.496 0.585,2.922 0.875,6.227 0.875,9.52 z m 43.066,-41.371 c 0,-16.836 0.586,-33.313 2.348,-43.195 h -40.141 l -2.637,17.941 h -0.879 c -9.375,-14.269 -24.023,-21.965 -41.011,-21.965 -29.004,0 -46.289,26.36 -46.289,54.903 0,46.5 33.394,68.464 84.082,68.464 v 2.196 c 0,9.511 -4.106,23.066 -26.079,23.066 -14.648,0 -30.171,-6.23 -39.546,-13.183 l -8.204,35.507 c 9.957,6.953 29.586,16.106 55.665,16.106 47.75,0 62.691,-35.149 62.691,-77.238 v -62.602"
         style="fill:#1d50a0;fill-opacity:1;fill-rule:nonzero;stroke:none"
         id="path18" />
      <path
         d="m 674.25,345.664 v -48.68 h 31.938 V 255.977 H 674.25 V 190.82 c 0,-21.597 4.398,-31.48 17.578,-31.48 6.152,0 9.082,0.363 13.188,1.465 l 0.293,-42.098 c -5.571,-2.559 -16.411,-4.758 -28.711,-4.758 -14.36,0 -26.368,6.223 -33.696,15.371 -8.203,10.618 -12.3,27.825 -12.3,53.082 v 73.575 h -19.043 v 41.007 h 19.043 v 33.68 l 43.648,15"
         style="fill:#1d50a0;fill-opacity:1;fill-rule:nonzero;stroke:none"
         id="path20" />
      <path
         d="m 910.043,222.305 h -72.652 v -58.571 h 81.148 v -45.761 h -125.68 v 246.734 h 121.582 v -45.762 h -77.05 v -51.25 h 72.652 v -45.39"
         style="fill:#1d50a0;fill-opacity:1;fill-rule:nonzero;stroke:none"
         id="path22" />
      <path
         d="m 981.203,296.984 14.067,-30.019 c 4.097,-9.152 7.91,-17.942 11.72,-26.723 h 0.58 c 3.81,9.887 7.33,18.664 11.13,27.824 l 12.61,28.918 h 48.34 l -47.17,-85.293 47.75,-93.718 h -50.39 l -14.36,32.218 c -4.1,8.789 -7.91,17.93 -11.13,27.079 h -0.88 c -3.517,-9.512 -7.322,-18.29 -10.841,-27.079 L 979.152,117.973 H 930.23 l 48.629,91.16 -47.461,87.851 h 49.805"
         style="fill:#1d50a0;fill-opacity:1;fill-rule:nonzero;stroke:none"
         id="path24" />
      <path
         d="m 1143.77,194.855 c 0,-4.394 0.29,-8.058 0.88,-11.718 2.92,-15.016 13.17,-26.364 26.07,-26.364 19.34,0 30.76,20.137 30.76,50.524 0,28.555 -10.25,50.144 -30.17,50.144 -12.61,0 -23.74,-11.707 -26.66,-28.183 -0.59,-2.93 -0.88,-6.582 -0.88,-9.883 z m -44.54,42.098 c 0,23.418 -0.58,43.184 -1.17,60.031 h 38.67 l 2.05,-24.894 h 0.59 c 10.54,18.672 26.95,28.918 47.75,28.918 31.35,0 59.47,-34.043 59.47,-91.145 0,-65.172 -33.1,-95.914 -65.03,-95.914 -17.28,0 -30.77,8.781 -37.21,20.5 h -0.58 V 45.4922 h -44.54 V 236.953"
         style="fill:#1d50a0;fill-opacity:1;fill-rule:nonzero;stroke:none"
         id="path26" />
      <path
         d="m 1274.67,238.047 c 0,26.359 -0.29,43.555 -1.17,58.937 h 38.08 l 1.76,-33.312 h 1.17 c 7.33,26.348 24.61,37.336 38.68,37.336 4.1,0 6.15,-0.363 9.37,-1.106 v -52.343 c -3.81,0.742 -7.32,1.464 -12.3,1.464 -16.41,0 -27.54,-10.605 -30.47,-28.183 -0.59,-3.66 -0.88,-7.684 -0.88,-12.442 v -90.425 h -44.53 l 0.29,120.074"
         style="fill:#1d50a0;fill-opacity:1;fill-rule:nonzero;stroke:none"
         id="path28" />
      <path
         d="m 1470.34,228.164 c 0,13.176 -4.68,36.242 -24.9,36.242 -19.04,0 -26.66,-21.601 -27.83,-36.242 z M 1417.9,190.09 c 1.47,-23.434 19.63,-34.402 40.43,-34.402 15.24,0 27.54,2.55 39.55,7.675 l 5.86,-37.703 c -14.65,-7.687 -32.52,-11.347 -51.85,-11.347 -48.64,0 -76.47,35.144 -76.47,91.515 0,45.402 22.85,95.539 72.37,95.539 46.28,0 63.86,-45.019 63.86,-89.316 0,-9.512 -0.88,-17.93 -1.46,-22.324 l -92.29,0.363"
         style="fill:#1d50a0;fill-opacity:1;fill-rule:nonzero;stroke:none"
         id="path30" />
      <path
         d="m 1537.98,166.293 c 8.2,-6.219 25.2,-13.172 38.38,-13.172 13.48,0 19.04,5.488 19.04,14.637 0,9.512 -4.39,13.914 -20.8,20.863 -29.88,12.082 -41.31,32.59 -41.01,53.449 0,33.684 22.85,58.938 58.3,58.938 16.7,0 31.35,-5.129 40.13,-10.617 l -7.61,-38.067 c -6.45,4.024 -19.05,9.883 -31.06,9.883 -10.84,0 -16.99,-5.488 -16.99,-14.277 0,-8.789 5.57,-13.172 23.14,-20.867 27.25,-11.348 38.38,-28.918 38.68,-54.911 0,-33.679 -20.8,-58.203 -61.82,-58.203 -18.75,0 -35.45,5.489 -46.29,12.813 l 7.91,39.531"
         style="fill:#1d50a0;fill-opacity:1;fill-rule:nonzero;stroke:none"
         id="path32" />
      <path
         d="m 1665.09,166.293 c 8.2,-6.219 25.2,-13.172 38.38,-13.172 13.48,0 19.04,5.488 19.04,14.637 0,9.512 -4.39,13.914 -20.8,20.863 -29.88,12.082 -41.31,32.59 -41.01,53.449 0,33.684 22.85,58.938 58.3,58.938 16.7,0 31.34,-5.129 40.13,-10.617 l -7.61,-38.067 c -6.45,4.024 -19.05,9.883 -31.06,9.883 -10.84,0 -16.99,-5.488 -16.99,-14.277 0,-8.789 5.57,-13.172 23.14,-20.867 27.25,-11.348 38.38,-28.918 38.68,-54.911 0,-33.679 -20.8,-58.203 -61.82,-58.203 -18.75,0 -35.45,5.489 -46.29,12.813 l 7.91,39.531"
         style="fill:#1d50a0;fill-opacity:1;fill-rule:nonzero;stroke:none"
         id="path34" />
      <path
         d="m 1792.5,117.973 v 179.011 h 44.53 V 117.973 Z m 21.98,202.437 c -14.95,0 -24.61,13.184 -24.61,29.649 0,16.836 9.96,29.648 25.19,29.648 15.24,0 24.61,-12.812 24.9,-29.648 0,-16.465 -9.66,-29.649 -25.19,-29.649 h -0.29"
         style="fill:#1d50a0;fill-opacity:1;fill-rule:nonzero;stroke:none"
         id="path36" />
      <path
         d="m 1939.54,153.844 c 17.58,0 28.42,21.601 28.42,53.82 0,26.359 -8.2,53.449 -28.42,53.449 -21.09,0 -29.29,-27.09 -29.29,-53.816 0,-30.387 10.25,-53.453 29,-53.453 z m -0.88,-39.895 c -41.89,0 -74.12,34.406 -74.12,92.254 0,57.84 30.47,94.805 76.76,94.805 43.65,0 72.95,-37.707 72.95,-91.875 0,-65.172 -37.21,-95.184 -75.29,-95.184 h -0.3"
         style="fill:#1d50a0;fill-opacity:1;fill-rule:nonzero;stroke:none"
         id="path38" />
      <path
         d="m 2041.75,239.883 c 0,22.324 -0.59,40.996 -1.17,57.101 h 38.67 l 2.05,-24.894 h 0.88 c 5.86,11.719 20.22,28.918 44.24,28.918 29.3,0 51.27,-24.524 51.27,-77.238 V 117.973 h -44.53 v 99.207 c 0,23.062 -6.45,38.797 -22.56,38.797 -12.31,0 -19.63,-10.606 -22.85,-20.86 -1.18,-3.664 -1.47,-8.789 -1.47,-13.906 V 117.973 h -44.53 v 121.91"
         style="fill:#1d50a0;fill-opacity:1;fill-rule:nonzero;stroke:none"
         id="path40" />
      <path
         d="m 2213.1,166.293 c 8.2,-6.219 25.19,-13.172 38.38,-13.172 13.47,0 19.04,5.488 19.04,14.637 0,9.512 -4.39,13.914 -20.8,20.863 -29.88,12.082 -41.31,32.59 -41.02,53.449 0,33.684 22.86,58.938 58.3,58.938 16.7,0 31.35,-5.129 40.14,-10.617 l -7.62,-38.067 c -6.44,4.024 -19.04,9.883 -31.05,9.883 -10.84,0 -16.99,-5.488 -16.99,-14.277 0,-8.789 5.56,-13.172 23.14,-20.867 27.25,-11.348 38.38,-28.918 38.67,-54.911 0,-33.679 -20.8,-58.203 -61.81,-58.203 -18.75,0 -35.45,5.489 -46.29,12.813 l 7.91,39.531"
         style="fill:#1d50a0;fill-opacity:1;fill-rule:nonzero;stroke:none"
         id="path42" />
      <path
         d="m 1192.65,8.1875 c 2.6,-0.41797 6.39,-0.41797 10.42,-0.41797 22.02,-0.10937 33.99,10.76957 33.99,29.62887 0.11,16.6797 -10.54,26.9414 -32.34,26.9414 -5.32,0 -9.35,-0.4179 -12.07,-0.9375 z m -10.42,61.8477 c 6.4,0.8281 13.86,1.4531 22.02,1.4531 14.81,0 25.35,-2.8985 32.32,-8.5938 7.24,-5.7031 11.37,-13.8867 11.37,-25.1836 0,-11.3984 -4.13,-20.7226 -11.48,-27.1484 -7.58,-6.52344 -19.89,-10.050781 -35.4,-10.050781 -7.46,0 -13.5,0.214844 -18.83,0.832031 V 70.0352"
         style="fill:#1d50a0;fill-opacity:1;fill-rule:nonzero;stroke:none"
         id="path44" />
      <path
         d="m 1323.27,33.8828 h -30.89 V 8.69531 h 34.57 V 1.13672 h -44.99 V 70.9727 h 43.21 v -7.5704 h -32.79 V 41.332 h 30.89 v -7.4492"
         style="fill:#1d50a0;fill-opacity:1;fill-rule:nonzero;stroke:none"
         id="path46" />
      <path
         d="M 1361.19,1.13672 V 70.9727 h 11.37 l 25.46,-35.3321 c 5.8,-8.1836 10.54,-15.4414 14.21,-22.6953 l 0.35,0.1172 c -0.95,9.3164 -1.18,17.8125 -1.18,28.582 v 29.3282 h 9.71 V 1.13672 h -10.42 l -25.35,35.42968 c -5.56,7.7734 -10.88,15.7539 -14.79,23.3203 l -0.36,-0.1054 c 0.59,-8.8086 0.71,-17.1993 0.71,-28.8008 V 1.13672 h -9.71"
         style="fill:#1d50a0;fill-opacity:1;fill-rule:nonzero;stroke:none"
         id="path48" />
      <path
         d="m 1475.13,63.3047 h -24.28 v 7.668 h 59.09 v -7.668 h -24.39 V 1.13672 h -10.42 V 63.3047"
         style="fill:#1d50a0;fill-opacity:1;fill-rule:nonzero;stroke:none"
         id="path50" />
      <path
         d="m 1569.88,30.1523 -7.93,20.0977 c -1.66,4.5586 -2.85,8.6992 -4.03,12.7422 h -0.36 c -1.06,-4.043 -2.36,-8.3867 -3.91,-12.6445 l -7.81,-20.1954 z m -26.18,-7.0507 -8.28,-21.96488 h -10.66 l 27.12,69.83598 h 12.43 l 27.24,-69.83598 h -11.01 L 1572,23.1016 h -28.3"
         style="fill:#1d50a0;fill-opacity:1;fill-rule:nonzero;stroke:none"
         id="path52" />
      <path
         d="m 1624.02,70.9727 h 10.42 V 8.69531 h 34.1 V 1.13672 h -44.52 V 70.9727"
         style="fill:#1d50a0;fill-opacity:1;fill-rule:nonzero;stroke:none"
         id="path54" />
      <path
         d="m 1802.49,3.31641 c -3.67,-1.66016 -11.36,-3.32031625 -21.07,-3.32031625 -22.5,0 -39.32,12.44140625 -39.32,35.43750625 0,21.9648 16.94,36.6719 41.68,36.6719 9.84,0 16.23,-1.8672 18.95,-3.1055 l -2.6,-7.3555 c -3.79,1.6602 -9.36,2.9024 -15.99,2.9024 -18.71,0 -31.14,-10.4688 -31.14,-28.8008 0,-17.207 11.25,-28.08594 30.55,-28.08594 6.39,0 12.79,1.15234 16.93,2.90234 l 2.01,-7.24609"
         style="fill:#1d50a0;fill-opacity:1;fill-rule:nonzero;stroke:none"
         id="path56" />
      <path
         d="m 1877.59,33.8828 h -30.91 V 8.69531 h 34.58 V 1.13672 h -45 V 70.9727 h 43.23 v -7.5704 h -32.81 V 41.332 h 30.91 v -7.4492"
         style="fill:#1d50a0;fill-opacity:1;fill-rule:nonzero;stroke:none"
         id="path58" />
      <path
         d="M 1915.5,1.13672 V 70.9727 h 11.37 l 25.45,-35.3321 c 5.8,-8.1836 10.54,-15.4414 14.21,-22.6953 l 0.36,0.1172 c -0.95,9.3164 -1.19,17.8125 -1.19,28.582 v 29.3282 h 9.71 V 1.13672 h -10.42 l -25.34,35.42968 c -5.57,7.7734 -10.89,15.7539 -14.8,23.3203 l -0.36,-0.1054 c 0.6,-8.8086 0.72,-17.1993 0.72,-28.8008 V 1.13672 h -9.71"
         style="fill:#1d50a0;fill-opacity:1;fill-rule:nonzero;stroke:none"
         id="path60" />
      <path
         d="m 2029.45,63.3047 h -24.28 v 7.668 h 59.08 v -7.668 h -24.39 V 1.13672 h -10.41 V 63.3047"
         style="fill:#1d50a0;fill-opacity:1;fill-rule:nonzero;stroke:none"
         id="path62" />
      <path
         d="m 2135.2,33.8828 h -30.91 V 8.69531 h 34.58 V 1.13672 h -45 V 70.9727 h 43.22 v -7.5704 h -32.8 V 41.332 h 30.91 v -7.4492"
         style="fill:#1d50a0;fill-opacity:1;fill-rule:nonzero;stroke:none"
         id="path64" />
      <path
         d="m 2183.41,38.2266 h 10.55 c 11,0 17.99,5.2929 17.99,13.2617 0,9.0156 -7.46,12.9492 -18.35,12.9492 -4.97,0 -8.41,-0.4102 -10.19,-0.8281 z m -10.29,31.7109 c 5.2,0.9258 12.78,1.5508 19.76,1.5508 11.02,0 18.25,-1.8633 23.22,-5.8008 3.9,-3.0078 6.28,-7.7734 6.28,-13.25 0,-9.1328 -6.76,-15.2461 -15.04,-17.7344 v -0.3047 c 6.03,-1.8632 9.7,-6.8359 11.72,-14.0898 2.6,-9.7461 4.5,-16.47657 6.03,-19.17188 h -10.65 c -1.3,1.97266 -3.08,7.98047 -5.21,16.67968 -2.37,9.6406 -6.76,13.2617 -16.1,13.5742 h -9.72 V 1.13672 h -10.29 V 69.9375"
         style="fill:#1d50a0;fill-opacity:1;fill-rule:nonzero;stroke:none"
         id="path66" />
      <path
         d="m 2256.38,12.125 c 4.62,-2.59766 11.25,-4.5625 18.36,-4.5625 10.54,0 16.69,4.7656 16.69,11.9141 0,6.4257 -4.26,10.2539 -15.04,13.7812 -13.02,4.1406 -21.07,10.1563 -21.07,19.8906 0,10.8789 10.3,18.9571 25.81,18.9571 8.05,0 14.09,-1.6524 17.52,-3.418 l -2.84,-7.3555 c -2.49,1.3477 -7.81,3.3203 -15.04,3.3203 -10.89,0 -15.03,-5.7031 -15.03,-10.4687 0,-6.5234 4.85,-9.7344 15.86,-13.4648 13.5,-4.668 20.25,-10.2657 20.25,-20.5196 0,-10.7617 -9,-20.20310625 -27.82,-20.20310625 -7.7,0 -16.11,2.07031625 -20.38,4.55859625 l 2.73,7.57031"
         style="fill:#1d50a0;fill-opacity:1;fill-rule:nonzero;stroke:none"
         id="path68" />
      <path
         d="m 2335.08,304.387 h 2.67 c 3.09,0 5.61,1.035 5.61,3.547 0,2.218 -1.62,3.699 -5.17,3.699 -1.48,0 -2.51,-0.153 -3.11,-0.301 z m -0.16,-13.606 h -5.6 v 24.25 c 2.21,0.297 5.32,0.742 9.31,0.742 4.59,0 6.65,-0.742 8.28,-1.925 1.47,-1.035 2.51,-2.809 2.51,-5.176 0,-2.953 -2.21,-4.879 -5.03,-5.766 v -0.293 c 2.38,-0.738 3.55,-2.66 4.29,-5.918 0.74,-3.695 1.33,-5.023 1.77,-5.914 h -5.91 c -0.74,0.891 -1.18,2.961 -1.92,5.914 -0.44,2.516 -1.91,3.696 -5.03,3.696 h -2.67 z m -14.93,12.571 c 0,-10.797 8.14,-19.372 18.93,-19.372 10.5,-0.148 18.48,8.575 18.48,19.223 0,10.793 -7.98,19.516 -18.77,19.516 -10.5,0 -18.64,-8.723 -18.64,-19.367 z m 43.63,0 c 0,-13.606 -10.94,-24.399 -24.84,-24.399 -13.9,0 -24.99,10.793 -24.99,24.399 0,13.597 11.09,24.246 25.13,24.246 13.76,0 24.7,-10.649 24.7,-24.246"
         style="fill:#1d50a0;fill-opacity:1;fill-rule:nonzero;stroke:none"
         id="path70" />
    </g>
  </g>
</svg>
