<svg id="Capa_1" data-name="Capa 1" xmlns="http://www.w3.org/2000/svg" xmlns:xlink="http://www.w3.org/1999/xlink" viewBox="0 0 494.68 259.38"><defs><style>.cls-1{fill:none;}.cls-2{clip-path:url(#clip-path);}.cls-3{fill:#415286;}.cls-4{fill:#fff;}.cls-5{fill:#cf4135;}</style><clipPath id="clip-path" transform="translate(-145.29 -172.49)"><rect class="cls-1" width="792" height="612"/></clipPath></defs><title>logo</title><g class="cls-2"><path class="cls-3" d="M385,173.89,233.31,231.71a21.28,21.28,0,0,0-13.7,19.89v91.54a21.28,21.28,0,0,0,12.64,19.44L384,430a21.28,21.28,0,0,0,17.29,0L553,362.58a21.28,21.28,0,0,0,12.64-19.44V251.6a21.28,21.28,0,0,0-13.7-19.89L400.2,173.89a21.28,21.28,0,0,0-15.15,0" transform="translate(-145.29 -172.49)"/><path class="cls-4" d="M392.63,425.15a14.45,14.45,0,0,1-5.92-1.26L235,356.44a14.57,14.57,0,0,1-8.65-13.3V251.59A14.64,14.64,0,0,1,235.7,238l151.74-57.82a14.63,14.63,0,0,1,10.37,0L549.56,238a14.64,14.64,0,0,1,9.38,13.61v91.54a14.57,14.57,0,0,1-8.64,13.3L398.54,423.89a14.46,14.46,0,0,1-5.92,1.26m0-244a12.66,12.66,0,0,0-4.5.83L236.38,239.78a12.71,12.71,0,0,0-8.14,11.81v91.54a12.65,12.65,0,0,0,7.5,11.55l151.74,67.46a12.69,12.69,0,0,0,10.27,0l151.74-67.46A12.65,12.65,0,0,0,557,343.13V251.59a12.71,12.71,0,0,0-8.14-11.81L397.13,182a12.6,12.6,0,0,0-4.5-.83" transform="translate(-145.29 -172.49)"/><path class="cls-5" d="M625.51,357H159.74a11.57,11.57,0,0,1-11.57-11.57V248.5a11.57,11.57,0,0,1,11.57-11.57H625.51a11.57,11.57,0,0,1,11.57,11.57v96.89A11.57,11.57,0,0,1,625.51,357" transform="translate(-145.29 -172.49)"/><path class="cls-3" d="M625.51,359.84H159.74a14.47,14.47,0,0,1-14.45-14.45V248.5a14.47,14.47,0,0,1,14.45-14.45H625.51A14.47,14.47,0,0,1,640,248.5v96.89a14.47,14.47,0,0,1-14.45,14.45m-465.77-120A8.7,8.7,0,0,0,151,248.5v96.89a8.7,8.7,0,0,0,8.69,8.69H625.51a8.7,8.7,0,0,0,8.69-8.69V248.5a8.7,8.7,0,0,0-8.69-8.69Z" transform="translate(-145.29 -172.49)"/><polygon class="cls-4" points="212.35 53 212.35 35.35 216.03 35.35 216.03 42.52 223.33 42.52 223.33 35.35 227 35.35 227 53 223.33 53 223.33 44.95 216.03 44.95 216.03 53 212.35 53"/><path class="cls-4" d="M374.77,225.5l6.87-17.65h3.67l6.87,17.65h-3.77l-1.84-4.71h-7.3l-1.84,4.71Zm5.42-7.06h5.49l-2.74-7Z" transform="translate(-145.29 -172.49)"/><path class="cls-4" d="M394.69,225.5V207.84h6.61q5.38,0,5.38,4.38a5.17,5.17,0,0,1-.91,3,5.85,5.85,0,0,1-2.51,2.06L409,225.5h-4.47l-4.38-7.22h-2v7.22Zm3.46-9.64H399q4,0,4-3.23,0-2.36-3.57-2.36h-1.28Z" transform="translate(-145.29 -172.49)"/><path class="cls-4" d="M411.54,225.5V207.84h7.6a7.62,7.62,0,0,1,8.47,8.46,9.4,9.4,0,0,1-2.31,6.78,8.54,8.54,0,0,1-6.47,2.42Zm3.68-2.51H418a5.49,5.49,0,0,0,4.32-1.6,7.15,7.15,0,0,0,1.42-4.87,7.34,7.34,0,0,0-1.14-4.21,4.16,4.16,0,0,0-1.9-1.6,9.13,9.13,0,0,0-3.23-.44h-2.22Z" transform="translate(-145.29 -172.49)"/><path class="cls-4" d="M339.93,386.13v-3a13,13,0,0,0,4.88,1.19,3.57,3.57,0,0,0,2.24-.63,2.06,2.06,0,0,0,.82-1.72,2.12,2.12,0,0,0-.51-1.45,7.76,7.76,0,0,0-1.94-1.4l-1.18-.65a11.59,11.59,0,0,1-3.35-2.56,4.43,4.43,0,0,1-1-2.85,4.33,4.33,0,0,1,1.61-3.51,6.45,6.45,0,0,1,4.24-1.32,21.49,21.49,0,0,1,4.76.61v2.83a13.1,13.1,0,0,0-4.28-1,3.2,3.2,0,0,0-1.95.54,1.69,1.69,0,0,0-.73,1.43,1.81,1.81,0,0,0,.51,1.28A8.62,8.62,0,0,0,346,375.2l1.26.7a12.36,12.36,0,0,1,3.52,2.64,5,5,0,0,1-.86,6.79,8.1,8.1,0,0,1-5,1.39,24.25,24.25,0,0,1-4.94-.6" transform="translate(-145.29 -172.49)"/><polygon class="cls-4" points="209.59 213.79 209.59 196.13 220.62 196.13 220.62 198.56 213.26 198.56 213.26 203.48 219.29 203.48 219.29 205.84 213.26 205.84 213.26 211.28 221.18 211.28 221.18 213.79 209.59 213.79"/><polygon class="cls-4" points="224.26 213.79 224.26 196.13 227.93 196.13 227.93 211.28 235.89 211.28 235.89 213.79 224.26 213.79"/><polygon class="cls-4" points="242.84 213.79 242.84 198.56 236.52 198.56 236.52 196.13 252.85 196.13 252.85 198.56 246.53 198.56 246.53 213.79 242.84 213.79"/><polygon class="cls-4" points="254.38 213.79 254.38 211.28 263.15 198.56 254.88 198.56 254.88 196.13 267.42 196.13 267.42 198.56 258.65 211.28 267.42 211.28 267.42 213.79 254.38 213.79"/><polygon class="cls-4" points="271.06 213.79 271.06 196.13 282.1 196.13 282.1 198.56 274.74 198.56 274.74 203.48 280.77 203.48 280.77 205.84 274.74 205.84 274.74 211.28 282.66 211.28 282.66 213.79 271.06 213.79"/><path class="cls-4" d="M431,386.28V368.63h6.61q5.38,0,5.38,4.38a5.17,5.17,0,0,1-.91,3,5.85,5.85,0,0,1-2.51,2.06l5.78,8.24h-4.48l-4.38-7.22h-2v7.22Zm3.46-9.64h.85q4,0,4-3.23,0-2.36-3.57-2.36h-1.28Z" transform="translate(-145.29 -172.49)"/><polygon class="cls-4" points="33.98 134.05 33.98 108.86 26.34 101.98 48.03 101.98 48.03 116.87 62.98 116.87 62.98 101.98 84.15 101.98 77.03 108.88 77.03 134.05 84.67 140.95 62.98 140.95 62.98 122.55 48.03 122.55 48.03 140.95 26.34 140.95 33.98 134.05"/><path class="cls-4" d="M233.89,306.44a7.52,7.52,0,0,1,.9-3.76A8.64,8.64,0,0,1,237.2,300a13.24,13.24,0,0,1,3.56-1.83,27.67,27.67,0,0,1,4.32-1.1,43.87,43.87,0,0,1,4.69-.54q2.4-.15,4.69-.15,1.28,0,2.7,0l2.87.1a22.68,22.68,0,0,0-.34-3.49,7.21,7.21,0,0,0-1-2.58,4.31,4.31,0,0,0-1.85-1.6,7.14,7.14,0,0,0-3-.56,9.54,9.54,0,0,0-2.36.3,6.65,6.65,0,0,0-2.12,1,5.72,5.72,0,0,0-2.47,4.16L236,292.14a7.12,7.12,0,0,1,.75-3.3,8.28,8.28,0,0,1,2.05-2.55,12.13,12.13,0,0,1,3.09-1.86,22.12,22.12,0,0,1,3.83-1.22,34.9,34.9,0,0,1,4.29-.68q2.25-.22,4.47-.22,2.69,0,5.15.23a25.7,25.7,0,0,1,4.58.83,16.48,16.48,0,0,1,3.85,1.6,10.34,10.34,0,0,1,2.95,2.56,11.29,11.29,0,0,1,1.89,3.7,16.93,16.93,0,0,1,.67,5v9.57a3.72,3.72,0,0,0,1.07,3,4.5,4.5,0,0,0,2.92.87v3.13a3.25,3.25,0,0,1-.83.53,9.21,9.21,0,0,1-1.52.54,17.11,17.11,0,0,1-2.21.43,21.6,21.6,0,0,1-2.93.18,29.07,29.07,0,0,1-3.62-.2,10.6,10.6,0,0,1-2.78-.71,5.55,5.55,0,0,1-2-1.37,5.73,5.73,0,0,1-1.2-2.2,13.9,13.9,0,0,1-3.07,2,21.44,21.44,0,0,1-3.63,1.39,27,27,0,0,1-3.94.8,31.47,31.47,0,0,1-4,.26q-1.31,0-2.69-.14a17.77,17.77,0,0,1-2.72-.47,13.17,13.17,0,0,1-2.53-.92,7.76,7.76,0,0,1-2.09-1.48,6.69,6.69,0,0,1-1.43-2.15,7.42,7.42,0,0,1-.53-2.91m14.05-1.2a2.42,2.42,0,0,0,.38,1.33,3.23,3.23,0,0,0,1,1,5.19,5.19,0,0,0,1.52.63,7.56,7.56,0,0,0,1.85.22,12.17,12.17,0,0,0,2.23-.23,9,9,0,0,0,2.32-.78,6.19,6.19,0,0,0,1.89-1.43,3.61,3.61,0,0,0,.9-2.16v-2.77l-.72,0h-.64a36.28,36.28,0,0,0-4.95.29,13.58,13.58,0,0,0-3.33.83,4.49,4.49,0,0,0-1.89,1.33,2.85,2.85,0,0,0-.6,1.77" transform="translate(-145.29 -172.49)"/><path class="cls-4" d="M288.28,290.81l-7.36-6.63,20.33-.81v5a12,12,0,0,1,5.07-4.6,16.35,16.35,0,0,1,7.11-1.49,19.86,19.86,0,0,1,7.43,1.29,15.34,15.34,0,0,1,5.39,3.53,14.85,14.85,0,0,1,3.29,5.23,18.22,18.22,0,0,1,1.11,6.41,17.94,17.94,0,0,1-1,5.89,13.78,13.78,0,0,1-3,5,14.89,14.89,0,0,1-5.29,3.51,20.38,20.38,0,0,1-7.73,1.32,17.51,17.51,0,0,1-7.28-1.43,11.63,11.63,0,0,1-5.08-4.44v10l10.08,6.63H280.92l7.36-6.63Zm13,7.61a11.53,11.53,0,0,0,.66,4.16,8,8,0,0,0,1.74,2.78,6.59,6.59,0,0,0,2.42,1.56,8.15,8.15,0,0,0,5.78-.08,6.49,6.49,0,0,0,2.39-1.7,7.84,7.84,0,0,0,1.56-2.81,12.49,12.49,0,0,0,.56-3.91,12.88,12.88,0,0,0-.56-4,8.4,8.4,0,0,0-1.56-2.91,6.51,6.51,0,0,0-2.39-1.78,7.62,7.62,0,0,0-3-.6,8.08,8.08,0,0,0-2.83.5,6.32,6.32,0,0,0-2.4,1.6,8.1,8.1,0,0,0-1.69,2.86,12.55,12.55,0,0,0-.64,4.28" transform="translate(-145.29 -172.49)"/><path class="cls-4" d="M342.39,290.81,335,284.18l20.33-.81v5a12,12,0,0,1,5.07-4.6,16.34,16.34,0,0,1,7.11-1.49,19.87,19.87,0,0,1,7.43,1.29,15.34,15.34,0,0,1,5.39,3.53,14.88,14.88,0,0,1,3.29,5.23,18.22,18.22,0,0,1,1.11,6.41,17.94,17.94,0,0,1-1,5.89,13.76,13.76,0,0,1-3,5,14.89,14.89,0,0,1-5.29,3.51,20.38,20.38,0,0,1-7.73,1.32,17.51,17.51,0,0,1-7.29-1.43,11.63,11.63,0,0,1-5.08-4.44v10l10.08,6.63H335l7.37-6.63Zm13,7.61a11.53,11.53,0,0,0,.66,4.16,7.94,7.94,0,0,0,1.74,2.78,6.59,6.59,0,0,0,2.42,1.56,8.14,8.14,0,0,0,5.78-.08,6.48,6.48,0,0,0,2.39-1.7,7.87,7.87,0,0,0,1.56-2.81,12.49,12.49,0,0,0,.56-3.91,12.88,12.88,0,0,0-.56-4,8.43,8.43,0,0,0-1.56-2.91,6.5,6.5,0,0,0-2.39-1.78,7.61,7.61,0,0,0-3-.6,8.08,8.08,0,0,0-2.83.5,6.31,6.31,0,0,0-2.41,1.6,8.12,8.12,0,0,0-1.69,2.86,12.55,12.55,0,0,0-.64,4.28" transform="translate(-145.29 -172.49)"/><path class="cls-4" d="M400.83,311.63a8.79,8.79,0,0,0-.33,2.34,8.66,8.66,0,0,0,.35,2.49,5.45,5.45,0,0,0,1.14,2.08,5.52,5.52,0,0,0,2,1.43,7.7,7.7,0,0,0,3,.53,5.7,5.7,0,0,0,2.63-.58,6.8,6.8,0,0,0,2-1.55,9,9,0,0,0,1.44-2.24,15.87,15.87,0,0,0,.94-2.66h-8.62L395,289.26l-6.93-5.9h24.16L409,287.87l6.52,19.79,5.41-19.6-3.29-4.7h19.82l-6.39,5.24L422,313.45a27.91,27.91,0,0,1-3.21,6.48,15.08,15.08,0,0,1-3.9,3.94,13.17,13.17,0,0,1-4.64,2,26.6,26.6,0,0,1-5.48.53,23.33,23.33,0,0,1-6.29-.77,14,14,0,0,1-4.66-2.2,9.51,9.51,0,0,1-2.9-3.45,10.21,10.21,0,0,1-1-4.55A10.66,10.66,0,0,1,390,314q.1-.73.2-1.31Z" transform="translate(-145.29 -172.49)"/><path class="cls-4" d="M462.83,306.54V281.38l-8.43-6.9,4.78,0,5.61,0,5.9,0,5.61,0,4.76,0,3.34,0a68.38,68.38,0,0,1,8.61.49,27.36,27.36,0,0,1,6.74,1.66,15.29,15.29,0,0,1,4.46,2.68,14.77,14.77,0,0,1,3.08,3.74,16.42,16.42,0,0,1,1.78,4.57,23,23,0,0,1,.57,5.19,20.32,20.32,0,0,1-1.89,8.94,18.39,18.39,0,0,1-5.35,6.6,24.44,24.44,0,0,1-8.32,4.09,38.79,38.79,0,0,1-10.78,1.4h-6.76l-5.26,0-5.82,0-5.83,0-5.29-.05Zm19.65,1.22a12.94,12.94,0,0,0,5.63-1.09,9.09,9.09,0,0,0,3.61-3.06,12.8,12.8,0,0,0,1.93-4.7,29.66,29.66,0,0,0,.57-6,17.62,17.62,0,0,0-.76-5.41,11.07,11.07,0,0,0-2.2-4,9.23,9.23,0,0,0-3.52-2.47,12.45,12.45,0,0,0-4.72-.84h-5.87v27.62Z" transform="translate(-145.29 -172.49)"/><path class="cls-4" d="M515.22,306.44a7.53,7.53,0,0,1,.9-3.76,8.6,8.6,0,0,1,2.42-2.72,13.25,13.25,0,0,1,3.56-1.83,27.65,27.65,0,0,1,4.32-1.1,43.86,43.86,0,0,1,4.69-.54q2.4-.15,4.69-.15,1.28,0,2.7,0l2.87.1A23,23,0,0,0,541,293a7.25,7.25,0,0,0-1-2.58,4.32,4.32,0,0,0-1.85-1.6,7.13,7.13,0,0,0-3-.56,9.52,9.52,0,0,0-2.36.3,6.68,6.68,0,0,0-2.12,1,6,6,0,0,0-1.62,1.67,5.84,5.84,0,0,0-.86,2.49l-10.9-1.49a7.12,7.12,0,0,1,.75-3.3,8.27,8.27,0,0,1,2.05-2.55,12.13,12.13,0,0,1,3.09-1.86,22,22,0,0,1,3.83-1.22,34.81,34.81,0,0,1,4.29-.68q2.24-.22,4.47-.22,2.69,0,5.15.23a25.66,25.66,0,0,1,4.58.83,16.42,16.42,0,0,1,3.85,1.6,10.35,10.35,0,0,1,2.95,2.56,11.29,11.29,0,0,1,1.89,3.7,17,17,0,0,1,.66,5v9.57a3.72,3.72,0,0,0,1.07,3,4.51,4.51,0,0,0,2.92.87v3.13a3.23,3.23,0,0,1-.83.53,9.09,9.09,0,0,1-1.52.54,17.13,17.13,0,0,1-2.21.43,21.62,21.62,0,0,1-2.93.18,29.06,29.06,0,0,1-3.61-.2,10.59,10.59,0,0,1-2.79-.71,5.57,5.57,0,0,1-2-1.37,5.75,5.75,0,0,1-1.2-2.2,13.85,13.85,0,0,1-3.07,2,21.31,21.31,0,0,1-3.63,1.39,27,27,0,0,1-3.94.8,31.47,31.47,0,0,1-4,.26c-.87,0-1.77,0-2.69-.14a17.77,17.77,0,0,1-2.72-.47,13.12,13.12,0,0,1-2.53-.92,7.8,7.8,0,0,1-2.09-1.48,6.73,6.73,0,0,1-1.43-2.15,7.42,7.42,0,0,1-.53-2.91m14.05-1.2a2.42,2.42,0,0,0,.38,1.33,3.2,3.2,0,0,0,1,1,5.18,5.18,0,0,0,1.52.63,7.54,7.54,0,0,0,1.85.22,12.21,12.21,0,0,0,2.23-.23,9,9,0,0,0,2.33-.78,6.16,6.16,0,0,0,1.89-1.43,3.6,3.6,0,0,0,.9-2.16v-2.77l-.72,0H540a36.27,36.27,0,0,0-4.95.29,13.6,13.6,0,0,0-3.33.83,4.5,4.5,0,0,0-1.89,1.33,2.84,2.84,0,0,0-.6,1.77" transform="translate(-145.29 -172.49)"/><path class="cls-4" d="M563.88,298.77a17.7,17.7,0,0,1,1.18-6.54,15.21,15.21,0,0,1,3.37-5.2,15.78,15.78,0,0,1,5.26-3.46,17.93,17.93,0,0,1,6.88-1.26,20.87,20.87,0,0,1,3.8.34,15.72,15.72,0,0,1,3.49,1.06,12.63,12.63,0,0,1,3,1.86,11.73,11.73,0,0,1,2.41,2.77v-11l-7.12-6.09,20.09-.82v36.42l7.37,6.63H593.29v-5a12,12,0,0,1-5,4.55,15.69,15.69,0,0,1-6.89,1.48,22.11,22.11,0,0,1-7.93-1.28,15.06,15.06,0,0,1-5.44-3.44,13.44,13.44,0,0,1-3.12-5,17.93,17.93,0,0,1-1-6m14.3-.35a12.46,12.46,0,0,0,.56,3.91,7.85,7.85,0,0,0,1.56,2.81,6.47,6.47,0,0,0,2.39,1.7,8.14,8.14,0,0,0,5.77.08,6.58,6.58,0,0,0,2.42-1.56,7.94,7.94,0,0,0,1.74-2.78,11.5,11.5,0,0,0,.67-4.16,12.55,12.55,0,0,0-.64-4.28,8.12,8.12,0,0,0-1.68-2.86,6.32,6.32,0,0,0-2.4-1.6,8.09,8.09,0,0,0-2.83-.5,7.61,7.61,0,0,0-3,.6,6.5,6.5,0,0,0-2.39,1.78,8.41,8.41,0,0,0-1.56,2.91,12.85,12.85,0,0,0-.56,4" transform="translate(-145.29 -172.49)"/></g></svg>