<?xml version="1.0" encoding="utf-8"?>
<!-- Generator: Adobe Illustrator 26.0.3, SVG Export Plug-In . SVG Version: 6.00 Build 0)  -->
<svg version="1.1" id="Layer_1" xmlns="http://www.w3.org/2000/svg" xmlns:xlink="http://www.w3.org/1999/xlink" x="0px" y="0px"
	 viewBox="0 0 683.6 479.7" style="enable-background:new 0 0 683.6 479.7;" xml:space="preserve">
<style type="text/css">
	.st0{fill:#AFE0EC;}
	.st1{fill:#0A2240;}
	.st2{clip-path:url(#SVGID_00000124845542334831342630000017926323285754242708_);}
	.st3{fill:#1052A1;}
	.st4{fill:#FFFFFF;}
	.st5{fill:#004DA7;}
	.st6{fill:#46B6E4;}
</style>
<g>
	<g>
		<polygon class="st0" points="341.8,131.4 320.3,18.2 320.3,132.3 273.2,3.8 299.3,135 242.4,35.7 278.8,139.4 193.2,27.9 
			259.4,145.5 135.7,30.5 241.3,153.1 123.9,70 224.7,162.2 92.6,89.5 210,172.6 65.3,111.5 197.4,184.2 42.3,135.6 187,196.7 
			24,161.5 179.2,210 10.7,188.6 173.8,223.8 2.7,216.7 171.1,238 0,245.2 171.1,252.3 2.7,273.7 173.8,266.5 10.7,301.7 
			179.2,280.3 24,328.9 187,293.6 42.3,354.7 197.4,306.1 65.3,378.8 210,317.7 64.9,412 224.7,328.1 102.5,428.5 241.3,337.2 
			148.5,445.8 259.4,344.9 201.8,438.3 278.8,350.9 233.2,466.1 299.3,355.4 276.8,454.1 320.3,358 320.4,479.7 341.8,358.9 
			356.7,462.4 363.2,358 405.8,468.5 384.3,355.4 437.8,440.6 404.7,350.9 495.9,460.9 424.2,344.9 517.7,432.3 442.3,337.2 
			565.9,427.2 458.8,328.1 613.4,412 473.6,317.7 618.3,378.8 486.2,306.1 641.3,354.7 496.5,293.6 659.6,328.9 504.4,280.3 
			672.8,301.7 509.8,266.5 680.9,273.7 512.4,252.3 683.6,245.2 512.4,238 680.9,216.7 509.8,223.8 672.8,188.6 504.4,210 
			659.6,161.5 496.5,196.7 641.3,135.6 486.2,184.2 618.3,111.5 473.6,172.6 590.9,89.5 458.8,162.2 559.6,70 442.3,153.1 
			537.1,37.6 424.2,145.5 487.3,39.4 404.7,139.4 451.8,14.9 384.3,135 405.8,21.8 363.2,132.3 365.2,0 		"/>
	</g>
	<path class="st1" d="M614,274.8c1.2,2.2,3,7.8,4.5,15.1c0.4,1.7,0.7,3.5,1,5.3c1.1,6.6,1.9,14.2,1.6,21.6c0,1.3-0.1,2.7-0.2,4
		c-0.3,3.6-0.8,7.2-1.7,10.5c-1.1,4.2-2.6,8.2-4.4,12.1c-0.5,0.9-0.9,1.9-1.4,2.8c-4,7.5-9.4,14.5-16.2,20.8
		c-0.8,0.7-1.5,1.4-2.3,2.1c-5.7,5-12.3,9.5-19.7,13.6c-0.9,0.5-1.9,1-2.8,1.4c-1.8,1-3.7,1.9-5.7,2.7c-4.1,1.9-8.3,3.6-12.7,5.1
		c-0.5,0.2-1,0.4-1.4,0.6c-0.5,0.1-0.9,0.2-1.4,0.3c-5.2,1.4-11.1,2.8-17.4,4.2c-2.4,0.5-4.9,1-7.5,1.4c-10,1.8-20.9,3-32.5,3.1
		c-0.3,0-0.6,0-0.9,0c-2.7,0-5.6-0.1-8.5-0.3c-8.4-0.5-17.4-1.7-26.8-2.9c-1.9-0.3-3.7-0.5-5.6-0.8l-0.3,0c-3.1-0.4-6.3-0.9-9.5-1.3
		c-7-0.9-14.1-1.8-21.2-2.5c-4.4-0.4-8.8-0.7-13.3-0.9c-3.3-0.1-6.6-0.3-9.9-0.3c-2,0-4,0-6,0.1c-5.3,0.1-10.3,0.5-15,1
		c-5.6,0.6-10.8,1.5-15.6,2.7c-4.9,1.2-9.3,2.6-13.5,4.4c-0.5,0.2-1.1,0.4-1.6,0.7c-0.7,0.3-2.3,1.1-3.2,1.5
		c-0.7-0.3-1.9-0.8-2.5-1.1l-0.8-0.3c-1.6-0.7-3.1-1.3-4.8-1.9c-4.5-1.6-9.4-2.9-14.7-3.9c-4.8-0.9-10-1.6-15.6-2
		c-4.4-0.3-9.1-0.5-14.1-0.5c-0.2,0-0.3,0-0.5,0c-4.4,0-8.9,0.2-13.3,0.4c-5.2,0.3-10.4,0.8-15.6,1.4c-8,0.9-15.9,2-23.7,3.2
		c-1.3,0.2-2.5,0.4-3.8,0.6l-0.6,0.1c-2.7,0.4-5.4,0.8-8,1.2c-10.5,1.5-20.4,2.8-29.5,3.1c-1,0-1.9,0.1-2.8,0.1c-0.8,0-1.7,0-2.5,0
		h-0.1c-1.9,0-3.7,0-5.6-0.1c-12.7-0.3-24.9-1.8-36.6-4.4c-2.5-0.6-5-1.2-7.4-1.8c-2.1-0.6-4.2-1.2-6.2-1.8c-0.5-0.2-1-0.3-1.5-0.4
		c-0.4-0.2-0.8-0.3-1.2-0.5c-6.5-2.2-12.6-4.7-18.4-7.5c-1.9-0.9-3.7-1.9-5.5-2.9c-7.5-4.2-14.2-9.1-20-14.4
		c-0.7-0.7-1.5-1.4-2.2-2.1c-6.5-6.4-11.7-13.6-15.5-21.2c-0.5-0.9-0.9-1.9-1.3-2.9c-1.3-3-2.4-6-3.2-9.1c-1.2-4.5-1.9-9.1-2.2-13.6
		c-0.1-1.4-0.1-2.8-0.2-4.1c-0.1-7.8,0.9-15.3,2.3-21.5c0.4-2,0.9-3.8,1.4-5.5c1.5-5,3.2-8.6,4.4-10.1c0.8-0.9,0.6-2.3-0.2-3
		c-1.8-1.5-3.5-3.2-5.3-5c-1.5-1.6-3.1-3.3-4.6-5.1c-4.6-5.5-9-11.8-12.7-18.7c-0.8-1.4-1.5-2.8-2.2-4.3c-3.3-6.9-5.8-14.2-7-21.6
		c-0.2-1.2-0.3-2.3-0.5-3.5c-0.2-2-0.4-3.9-0.4-5.9c-0.1-5.3,0.1-11.1,0.8-17.2c0.1-0.9,0.2-1.9,0.4-2.8c1.1-7.5,3.2-15.4,6.9-23.4
		c0.4-0.8,0.7-1.5,1.1-2.3c3.6-7.3,8.6-14.6,15.4-21.8c0.7-0.7,1.3-1.4,2-2c6.3-6.2,14.1-12.3,23.6-17.9c1.1-0.7,2.2-1.3,3.4-2
		c1.6-0.9,3.2-1.8,4.9-2.6c7.6-3.9,15.9-7.2,24.6-9.7c2-0.6,4.1-1.1,6.2-1.6c0.8-0.2,1.6-0.4,2.4-0.6c0.6-0.1,1.2-0.3,1.8-0.6
		l1.1-0.1c2.5-0.3,4.9-0.6,7.4-1c6.6-0.9,13.4-1.8,20.4-2.3c3-0.2,6-0.3,9-0.3c0.7,0,1.4,0,2.2,0c9.2,0.1,18.7,0.8,28.3,2.1
		c5.7,0.8,11.4,1.7,17.2,2.9c0.5,0.1,1,0,1.5-0.2c0.2-0.1,0.4-0.2,0.6-0.3c4.6-2.6,9.3-5.2,14.1-7.8c3.6-1.9,7.3-3.8,11-5.7
		c5.1-2.5,10.3-4.9,15.6-7.1c3.3-1.3,6.6-2.6,9.9-3.8c5.7-2,11.6-3.7,17.5-5.1l0,0c4.2-0.9,8.4-1.6,12.4-1.9
		c6.9-0.6,13.6-0.4,19.8,0.7c4.4,0.8,8.6,1.9,12.4,3.5c2.7,1.1,5.2,2.4,7.6,3.9c0.7,0.4,1.6,0.4,2.3,0c2.5-1.6,5.2-3,8.1-4.2
		c4.2-1.7,8.9-3,13.7-3.7c6.3-1,13.1-1.2,20.1-0.5c3.4,0.3,6.8,0.9,10.3,1.6c0.2,0,0.4,0.1,0.6,0.1c6,1.3,12,3,17.7,5
		c3.9,1.3,7.7,2.8,11.5,4.3c5.6,2.3,11,4.8,16.4,7.4c3.5,1.7,6.9,3.5,10.3,5.3c4.2,2.2,8.4,4.5,12.4,6.7l0.2,0.1
		c0.4,0.2,0.8,0.2,1.3,0.2c5.9-1.3,11.7-2.3,17.5-3.1c10.7-1.5,21.2-2.3,31.5-2.3c0.2,0,0.4,0,0.6,0c3.5,0,6.8,0.1,10,0.2
		c10,0.5,18.9,1.6,27,3.5c0.6,0.1,1.2,0.3,1.7,0.4c0.4,0.2,0.8,0.3,1.1,0.4c1.2,0.3,2.3,0.6,3.5,0.9c1.9,0.5,3.9,1,5.7,1.6
		c7.7,2.3,14.9,5.2,21.7,8.6c2.8,1.4,5.4,2.9,7.9,4.3c1.1,0.6,2.1,1.2,3.1,1.9c9.5,5.8,17.3,12,23.4,18.4c0.6,0.6,1.2,1.3,1.8,1.9
		c6.7,7.3,11.5,14.8,14.9,22.2c0.3,0.8,0.7,1.5,1,2.3c3.4,8.1,5.3,16.1,6.3,23.6c0.1,1,0.2,1.9,0.3,2.8c0.5,4.9,0.7,9.6,0.6,14v0
		c0,3-0.3,6.1-0.7,9.1c-0.2,1.2-0.4,2.3-0.7,3.5c-1.5,7.4-4.2,14.7-7.6,21.5c-0.7,1.5-1.5,3-2.3,4.4c-3.9,6.9-8.4,13.1-13.1,18.4
		c-1.7,1.9-3.4,3.6-5.1,5.2c-0.4,0.3-0.7,0.7-1.1,1C613.7,272.8,613.5,273.9,614,274.8"/>
	<g>
		<defs>
			<path id="SVGID_1_" d="M614,274.8c1.2,2.2,3,7.8,4.5,15.1c0.4,1.7,0.7,3.5,1,5.3c1.1,6.6,1.9,14.2,1.6,21.6c0,1.3-0.1,2.7-0.2,4
				c-0.3,3.6-0.8,7.2-1.7,10.5c-1.1,4.2-2.6,8.2-4.4,12.1c-0.5,0.9-0.9,1.9-1.4,2.8c-4,7.5-9.4,14.5-16.2,20.8
				c-0.8,0.7-1.5,1.4-2.3,2.1c-5.7,5-12.3,9.5-19.7,13.6c-0.9,0.5-1.9,1-2.8,1.4c-1.8,1-3.7,1.9-5.7,2.7c-4.1,1.9-8.3,3.6-12.7,5.1
				c-0.5,0.2-1,0.4-1.4,0.6c-0.5,0.1-0.9,0.2-1.4,0.3c-5.2,1.4-11.1,2.8-17.4,4.2c-2.4,0.5-4.9,1-7.5,1.4c-10,1.8-20.9,3-32.5,3.1
				c-0.3,0-0.6,0-0.9,0c-2.7,0-5.6-0.1-8.5-0.3c-8.4-0.5-17.4-1.7-26.8-2.9c-1.9-0.3-3.7-0.5-5.6-0.8l-0.3,0
				c-3.1-0.4-6.3-0.9-9.5-1.3c-7-0.9-14.1-1.8-21.2-2.5c-4.4-0.4-8.8-0.7-13.3-0.9c-3.3-0.1-6.6-0.3-9.9-0.3c-2,0-4,0-6,0.1
				c-5.3,0.1-10.3,0.5-15,1c-5.6,0.6-10.8,1.5-15.6,2.7c-4.9,1.2-9.3,2.6-13.5,4.4c-0.5,0.2-1.1,0.4-1.6,0.7
				c-0.7,0.3-2.3,1.1-3.2,1.5c-0.7-0.3-1.9-0.8-2.5-1.1l-0.8-0.3c-1.6-0.7-3.1-1.3-4.8-1.9c-4.5-1.6-9.4-2.9-14.7-3.9
				c-4.8-0.9-10-1.6-15.6-2c-4.4-0.3-9.1-0.5-14.1-0.5c-0.2,0-0.3,0-0.5,0c-4.4,0-8.9,0.2-13.3,0.4c-5.2,0.3-10.4,0.8-15.6,1.4
				c-8,0.9-15.9,2-23.7,3.2c-1.3,0.2-2.5,0.4-3.8,0.6l-0.6,0.1c-2.7,0.4-5.4,0.8-8,1.2c-10.5,1.5-20.4,2.8-29.5,3.1
				c-1,0-1.9,0.1-2.8,0.1c-0.8,0-1.7,0-2.5,0h-0.1c-1.9,0-3.7,0-5.6-0.1c-12.7-0.3-24.9-1.8-36.6-4.4c-2.5-0.6-5-1.2-7.4-1.8
				c-2.1-0.6-4.2-1.2-6.2-1.8c-0.5-0.2-1-0.3-1.5-0.4c-0.4-0.2-0.8-0.3-1.2-0.5c-6.5-2.2-12.6-4.7-18.4-7.5
				c-1.9-0.9-3.7-1.9-5.5-2.9c-7.5-4.2-14.2-9.1-20-14.4c-0.7-0.7-1.5-1.4-2.2-2.1c-6.5-6.4-11.7-13.6-15.5-21.2
				c-0.5-0.9-0.9-1.9-1.3-2.9c-1.3-3-2.4-6-3.2-9.1c-1.2-4.5-1.9-9.1-2.2-13.6c-0.1-1.4-0.1-2.8-0.2-4.1c-0.1-7.8,0.9-15.3,2.3-21.5
				c0.4-2,0.9-3.8,1.4-5.5c1.5-5,3.2-8.6,4.4-10.1c0.8-0.9,0.6-2.3-0.2-3c-1.8-1.5-3.5-3.2-5.3-5c-1.5-1.6-3.1-3.3-4.6-5.1
				c-4.6-5.5-9-11.8-12.7-18.7c-0.8-1.4-1.5-2.8-2.2-4.3c-3.3-6.9-5.8-14.2-7-21.6c-0.2-1.2-0.3-2.3-0.5-3.5c-0.2-2-0.4-3.9-0.4-5.9
				c-0.1-5.3,0.1-11.1,0.8-17.2c0.1-0.9,0.2-1.9,0.4-2.8c1.1-7.5,3.2-15.4,6.9-23.4c0.4-0.8,0.7-1.5,1.1-2.3
				c3.6-7.3,8.6-14.6,15.4-21.8c0.7-0.7,1.3-1.4,2-2c6.3-6.2,14.1-12.3,23.6-17.9c1.1-0.7,2.2-1.3,3.4-2c1.6-0.9,3.2-1.8,4.9-2.6
				c7.6-3.9,15.9-7.2,24.6-9.7c2-0.6,4.1-1.1,6.2-1.6c0.8-0.2,1.6-0.4,2.4-0.6c0.6-0.1,1.2-0.3,1.8-0.6l1.1-0.1
				c2.5-0.3,4.9-0.6,7.4-1c6.6-0.9,13.4-1.8,20.4-2.3c3-0.2,6-0.3,9-0.3c0.7,0,1.4,0,2.2,0c9.2,0.1,18.7,0.8,28.3,2.1
				c5.7,0.8,11.4,1.7,17.2,2.9c0.5,0.1,1,0,1.5-0.2c0.2-0.1,0.4-0.2,0.6-0.3c4.6-2.6,9.3-5.2,14.1-7.8c3.6-1.9,7.3-3.8,11-5.7
				c5.1-2.5,10.3-4.9,15.6-7.1c3.3-1.3,6.6-2.6,9.9-3.8c5.7-2,11.6-3.7,17.5-5.1l0,0c4.2-0.9,8.4-1.6,12.4-1.9
				c6.9-0.6,13.6-0.4,19.8,0.7c4.4,0.8,8.6,1.9,12.4,3.5c2.7,1.1,5.2,2.4,7.6,3.9c0.7,0.4,1.6,0.4,2.3,0c2.5-1.6,5.2-3,8.1-4.2
				c4.2-1.7,8.9-3,13.7-3.7c6.3-1,13.1-1.2,20.1-0.5c3.4,0.3,6.8,0.9,10.3,1.6c0.2,0,0.4,0.1,0.6,0.1c6,1.3,12,3,17.7,5
				c3.9,1.3,7.7,2.8,11.5,4.3c5.6,2.3,11,4.8,16.4,7.4c3.5,1.7,6.9,3.5,10.3,5.3c4.2,2.2,8.4,4.5,12.4,6.7l0.2,0.1
				c0.4,0.2,0.8,0.2,1.3,0.2c5.9-1.3,11.7-2.3,17.5-3.1c10.7-1.5,21.2-2.3,31.5-2.3c0.2,0,0.4,0,0.6,0c3.5,0,6.8,0.1,10,0.2
				c10,0.5,18.9,1.6,27,3.5c0.6,0.1,1.2,0.3,1.7,0.4c0.4,0.2,0.8,0.3,1.1,0.4c1.2,0.3,2.3,0.6,3.5,0.9c1.9,0.5,3.9,1,5.7,1.6
				c7.7,2.3,14.9,5.2,21.7,8.6c2.8,1.4,5.4,2.9,7.9,4.3c1.1,0.6,2.1,1.2,3.1,1.9c9.5,5.8,17.3,12,23.4,18.4c0.6,0.6,1.2,1.3,1.8,1.9
				c6.7,7.3,11.5,14.8,14.9,22.2c0.3,0.8,0.7,1.5,1,2.3c3.4,8.1,5.3,16.1,6.3,23.6c0.1,1,0.2,1.9,0.3,2.8c0.5,4.9,0.7,9.6,0.6,14v0
				c0,3-0.3,6.1-0.7,9.1c-0.2,1.2-0.4,2.3-0.7,3.5c-1.5,7.4-4.2,14.7-7.6,21.5c-0.7,1.5-1.5,3-2.3,4.4c-3.9,6.9-8.4,13.1-13.1,18.4
				c-1.7,1.9-3.4,3.6-5.1,5.2c-0.4,0.3-0.7,0.7-1.1,1C613.7,272.8,613.5,273.9,614,274.8"/>
		</defs>
		<clipPath id="SVGID_00000164483858238351468710000001790430519135558024_">
			<use xlink:href="#SVGID_1_"  style="overflow:visible;"/>
		</clipPath>
		<g style="clip-path:url(#SVGID_00000164483858238351468710000001790430519135558024_);">
			<polygon class="st3" points="341.8,131.4 320.3,18.3 320.3,132.3 273.2,3.8 299.3,135 242.4,35.7 278.8,139.4 193.2,27.9 
				259.4,145.5 135.7,30.5 241.3,153.2 123.9,70 224.7,162.3 92.6,89.5 210,172.7 65.3,111.5 197.4,184.2 42.3,135.6 187,196.8 
				24,161.5 179.2,210 10.7,188.6 173.8,223.9 2.7,216.7 171.1,238.1 0,245.2 171.1,252.3 2.7,273.7 173.8,266.5 10.7,301.7 
				179.2,280.3 24,328.9 187,293.6 42.3,354.7 197.4,306.2 65.3,378.8 210,317.7 64.9,412 224.7,328.1 102.5,428.6 241.3,337.2 
				148.5,445.9 259.4,344.9 201.8,438.3 278.8,351 233.2,466.2 299.3,355.4 276.8,454.1 320.3,358.1 320.4,479.7 341.8,359 
				356.7,462.4 363.2,358.1 405.8,468.5 384.3,355.4 437.8,440.6 404.7,351 495.9,460.9 424.2,344.9 517.7,432.3 442.3,337.2 
				565.9,427.3 458.8,328.1 613.4,412 473.6,317.7 618.3,378.8 486.2,306.2 641.3,354.7 496.5,293.6 659.6,328.9 504.4,280.3 
				672.8,301.7 509.8,266.5 680.9,273.7 512.4,252.3 683.6,245.2 512.4,238.1 680.9,216.7 509.8,223.9 672.8,188.6 504.4,210 
				659.6,161.5 496.5,196.8 641.3,135.6 486.2,184.2 618.3,111.5 473.6,172.7 590.9,89.5 458.8,162.3 559.6,70 442.3,153.2 
				537.1,37.6 424.2,145.5 487.3,39.4 404.7,139.4 451.8,14.9 384.3,135 405.8,21.8 363.2,132.3 365.2,0 			"/>
		</g>
	</g>
	<path class="st4" d="M375.9,76.2c2.8,0,5.6,0.1,8.4,0.4c3.4,0.3,6.9,0.9,10.2,1.6l0.7,0.2l0,0l0,0c5.8,1.3,11.7,2.9,17.7,5
		c3.6,1.2,7.4,2.7,11.5,4.3c5.2,2.1,10.6,4.6,16.4,7.4c3.4,1.7,6.8,3.4,10.3,5.2c3.5,1.8,7.2,3.8,11.6,6.3l1.6,0.9l1.8-0.4
		c5.4-1.1,10.9-2.1,16.5-2.9c10.7-1.5,21.3-2.3,31.4-2.3l0,0l0,0l0.6,0c3.4,0,6.7,0.1,10,0.2c10,0.5,18.8,1.6,27,3.5
		c0.6,0.1,1.1,0.2,1.7,0.3l0.2,0c0.4,0.1,0.8,0.2,1.1,0.3c0.7,0.2,1.4,0.4,2.1,0.6c0.4,0.1,0.9,0.2,1.3,0.4c2,0.5,3.9,1,5.7,1.6
		c7.8,2.3,15,5.2,21.6,8.5c2.6,1.3,5.2,2.7,7.9,4.3c1.1,0.7,2.2,1.3,3.1,1.9c9.1,5.5,16.9,11.7,23.4,18.4c0.6,0.6,1.1,1.2,1.6,1.8
		l0.1,0.2c6.2,6.8,11.2,14.2,14.8,22.1c0.3,0.7,0.6,1.4,1,2.2c3.1,7.4,5.2,15.1,6.3,23.6c0.1,0.9,0.2,1.8,0.3,2.8
		c0.5,4.4,0.7,9,0.6,13.9c0,3-0.3,6-0.7,9.1c-0.2,1.2-0.4,2.3-0.7,3.5c-1.4,7-4,14.2-7.6,21.4c-0.7,1.5-1.5,3-2.3,4.4
		c-3.7,6.6-8.2,12.9-13.1,18.4c-1.6,1.7-3.2,3.4-4.9,5.1l-2.5,2.4l1.3,3.2c1.3,3.1,2.8,8.2,3.9,13.7c0.4,1.8,0.7,3.6,1,5.3
		c1.3,7.5,1.8,14.9,1.6,21.5c0,1.4-0.1,2.7-0.2,4c-0.3,3.8-0.9,7.3-1.7,10.5c-1,4.1-2.5,8.1-4.4,12.1c-0.4,0.8-0.9,1.8-1.4,2.8
		c-3.9,7.4-9.4,14.4-16.2,20.7c-0.7,0.7-1.5,1.4-2.3,2.1c-5.7,5-12.3,9.5-19.7,13.5c-0.6,0.3-1.3,0.7-2,1l-0.8,0.4
		c-1.8,0.9-3.7,1.9-5.6,2.7c-4.2,1.9-8.4,3.6-12.7,5.1c-0.5,0.2-0.9,0.4-1.4,0.6c-0.5,0.1-0.9,0.2-1.3,0.3l-0.1,0
		c-6.2,1.6-11.8,3-17.4,4.1c-2.5,0.5-5,1-7.5,1.4c-11.4,2-22,3-32.4,3.1l0,0l0,0l-0.3,0l0,0l0,0c-0.2,0-0.3,0-0.5,0
		c-2.5,0-5.3-0.1-8.5-0.3c-8-0.5-16.5-1.5-26.8-2.9l-6-0.8c-3.1-0.4-6.3-0.9-9.5-1.3c-8.2-1.1-15-1.9-21.3-2.5
		c-4.5-0.4-9-0.7-13.3-0.9c-3.9-0.2-7-0.3-10-0.3c-1.9,0-3.8,0-6,0.1c-5.3,0.1-10.4,0.5-15,1c-5.6,0.6-10.8,1.5-15.6,2.7
		c-4.9,1.2-9.3,2.6-13.5,4.4l-0.2,0.1c-0.5,0.2-1,0.4-1.4,0.6l0,0l0,0c-0.6,0.3-2.1,1-3,1.4c-0.7-0.3-1.7-0.8-2.3-1l-0.8-0.4
		c-1.5-0.7-3.1-1.3-4.8-1.9c-4.5-1.6-9.3-2.9-14.8-3.9c-5-0.9-10.1-1.6-15.6-2c-4.3-0.3-9.1-0.5-14.1-0.5l-0.5,0l0,0h0
		c-4.1,0-8.4,0.1-13.2,0.4c-4.9,0.3-10.2,0.8-15.6,1.4c-8.2,0.9-16.5,2.1-23.7,3.2l-4.4,0.7c-2.7,0.4-5.4,0.8-8,1.2
		c-9.7,1.4-20.1,2.8-29.4,3.1l-0.7,0c-0.7,0-1.5,0.1-2.2,0.1l0,0l0,0c-0.8,0-1.6,0-2.4,0c-1.9,0-3.9,0-5.6-0.1l-0.1,0
		c-12.7-0.3-25-1.8-36.5-4.3c-2.6-0.6-5.1-1.2-7.4-1.8c-2.2-0.6-4.2-1.2-6.2-1.8l-0.1,0c-0.4-0.1-0.8-0.3-1.3-0.4l-0.2-0.1
		c-0.3-0.1-0.7-0.3-1.1-0.4c-6.4-2.1-12.6-4.7-18.3-7.5c-1.9-0.9-3.7-1.9-5.5-2.9c-7.4-4.2-14.2-9-20-14.4c-0.6-0.6-1.3-1.2-1.9-1.8
		l-0.3-0.3c-6.5-6.4-11.7-13.5-15.4-21.1c-0.5-1-0.9-1.9-1.3-2.8c-1.3-3.1-2.4-6.1-3.2-9.1c-1.1-4.2-1.9-8.8-2.2-13.6
		c-0.1-1.3-0.1-2.7-0.2-4.1c-0.1-8.8,1.2-16.5,2.3-21.4c0.4-1.9,0.9-3.8,1.4-5.5c1.1-3.6,2.3-6.7,3.5-8.7l2-3.5l-3-2.7
		c-1.2-1.1-2.5-2.3-3.7-3.6c-1.5-1.5-3-3.2-4.6-5.1c-4.8-5.8-9.1-12-12.6-18.7c-0.8-1.4-1.5-2.9-2.2-4.3c-3.5-7.3-5.8-14.5-7-21.5
		c-0.2-1.2-0.3-2.3-0.5-3.4c-0.3-2.2-0.4-4.1-0.4-5.9c-0.1-6.2,0.2-11.8,0.8-17.1c0.1-0.9,0.2-1.8,0.4-2.8
		c1.3-8.3,3.6-16.1,6.9-23.3c0.4-0.8,0.7-1.6,1.1-2.3c3.8-7.7,9-15,15.4-21.7c0.8-0.8,1.4-1.4,2-2c6.5-6.5,14.5-12.5,23.5-17.9
		c1-0.6,2.2-1.3,3.4-2c1.5-0.9,3.2-1.7,4.8-2.6c7.5-3.9,15.8-7.2,24.6-9.7c2.1-0.6,4.3-1.1,6.2-1.6c0.3-0.1,0.6-0.2,0.9-0.2l0,0
		c1.1-0.2,9.4-1.7,11.7-2c6.2-0.8,13.2-1.8,20.3-2.3c3.3-0.2,6-0.3,8.6-0.3c0.6,0,1.2,0,1.8,0l0.8,0c9.2,0.1,18.7,0.8,28.2,2.1
		c5.5,0.7,11,1.6,16.3,2.7l1.8,0.4l1.6-0.9c5.2-2.9,9.6-5.4,13.9-7.7c4-2.1,7.6-4,11-5.7c5.5-2.7,10.6-5,15.6-7.1
		c3.3-1.3,6.6-2.6,9.9-3.8c6-2.1,11.8-3.8,17.5-5l0.1,0c4-0.9,8.2-1.5,12.3-1.9c2.4-0.2,4.9-0.3,7.3-0.3c4.3,0,8.5,0.3,12.4,1
		c4.4,0.8,8.5,1.9,12.4,3.5c2.2,0.9,4.4,2,6.4,3.1l2.5,1.5l2.5-1.5c2.2-1.3,4.5-2.4,6.9-3.4c4.1-1.7,8.7-2.9,13.7-3.7
		C368,76.5,371.9,76.2,375.9,76.2 M375.9,71.2c-4.2,0-8.4,0.3-12.4,0.9c-5.3,0.8-10.3,2.2-14.8,4c-2.6,1.1-5.2,2.3-7.5,3.7
		c-2.2-1.3-4.5-2.4-7-3.4c-4.2-1.7-8.7-3-13.4-3.8c-4.2-0.7-8.7-1.1-13.3-1.1c-2.5,0-5.1,0.1-7.7,0.3c-4.3,0.4-8.7,1-12.9,2l-0.1,0
		c-5.9,1.3-11.8,3-18.1,5.2c-3.4,1.2-6.8,2.5-10.1,3.8c-5.1,2.1-10.3,4.4-15.9,7.2c-3.5,1.7-7.2,3.6-11.2,5.8
		c-4.3,2.3-8.7,4.7-14,7.7c-5.4-1.1-11-2-16.6-2.8c-9.7-1.3-19.4-2-28.8-2.1l-0.7,0c-0.6,0-1.2,0-1.9,0c-2.7,0-5.5,0.1-8.9,0.3
		c-7.3,0.5-14.4,1.5-20.7,2.3c-2.5,0.3-11.7,2-12.2,2.1l-0.1,0c-0.3,0.1-0.5,0.1-0.8,0.2c-2,0.5-4.2,1-6.4,1.7
		c-9.1,2.6-17.7,6-25.5,10.1c-1.7,0.9-3.4,1.8-5,2.7c-1.2,0.7-2.4,1.4-3.5,2c-9.4,5.6-17.7,11.9-24.5,18.6c-0.7,0.7-1.4,1.4-2.1,2.1
		c-6.7,7-12.2,14.7-16.3,22.9c-0.4,0.8-0.8,1.6-1.2,2.4c-3.5,7.6-5.9,15.9-7.3,24.6c-0.2,1-0.3,2-0.4,3c-0.7,5.6-1,11.4-0.9,17.8
		c0,1.9,0.2,4,0.5,6.4c0.1,1.1,0.3,2.4,0.5,3.7c1.2,7.4,3.7,15.1,7.4,22.8c0.7,1.5,1.5,3,2.3,4.5c3.7,6.9,8.1,13.5,13.2,19.5
		c1.6,1.9,3.3,3.7,4.8,5.4c1.3,1.4,2.7,2.7,3.9,3.8c-1.4,2.3-2.7,5.7-3.9,9.8c-0.6,1.8-1.1,3.8-1.5,5.8c-1.2,5.2-2.5,13.3-2.4,22.6
		c0,1.5,0.1,2.9,0.2,4.4c0.3,5.1,1.1,10,2.4,14.6c0.9,3.2,2,6.5,3.5,9.8c0.4,1,0.9,2,1.4,3c4,8.1,9.5,15.7,16.4,22.5l0.3,0.3
		c0.7,0.6,1.3,1.3,2,1.9c6.1,5.6,13.1,10.7,20.9,15.1c1.8,1,3.8,2.1,5.7,3c5.9,3,12.3,5.6,19,7.8c0.2,0.1,0.4,0.1,0.6,0.2l0.1,0
		l0.7,0.2l0.1,0c0.4,0.1,0.9,0.3,1.3,0.4c2,0.6,4.1,1.2,6.4,1.8c2.4,0.7,5,1.3,7.6,1.9c11.9,2.6,24.5,4.1,37.5,4.5
		c1.8,0,3.7,0.1,5.8,0.1c0.9,0,1.7,0,2.6,0c0.8,0,1.5,0,2.3-0.1l0.7,0c9.6-0.3,20.1-1.7,30-3.1c2.6-0.4,5.3-0.8,8-1.2l4.4-0.7
		c7.1-1.1,15.4-2.3,23.5-3.2c5.3-0.6,10.4-1,15.3-1.3c4.7-0.3,9-0.4,12.9-0.4l0.5,0c4.9,0,9.5,0.2,13.8,0.5c5.3,0.4,10.2,1,15.1,1.9
		c5.2,1,9.8,2.2,14,3.7c1.6,0.6,3.1,1.2,4.5,1.8l0.8,0.4c0.6,0.3,1.7,0.8,2.5,1.1l1.9,0.8l1.9-0.8c1-0.4,2.6-1.2,3.3-1.5
		c0.4-0.2,0.8-0.4,1.3-0.6l0.2-0.1c4-1.7,8.2-3.1,12.8-4.2c4.6-1.1,9.6-2,15-2.6c4.5-0.5,9.4-0.8,14.6-0.9c2.1-0.1,4.1-0.1,5.9-0.1
		c2.8,0,5.9,0.1,9.7,0.2c4.2,0.2,8.6,0.5,13,0.9c6.2,0.6,12.9,1.3,21,2.4c3.2,0.4,6.3,0.9,9.4,1.3l6,0.8c10.4,1.4,19,2.5,27.2,3
		c3.3,0.2,6.1,0.3,8.8,0.3c0.2,0,0.4,0,0.7,0l0.3,0c10.7-0.1,21.6-1.1,33.3-3.2c2.5-0.4,5.1-0.9,7.6-1.5c5.6-1.2,11.4-2.6,17.6-4.2
		c0.4-0.1,0.8-0.2,1.2-0.3l0.7-0.1l0.6-0.3c0.3-0.1,0.5-0.3,0.7-0.3c4.4-1.5,8.8-3.3,13.1-5.3c2-0.9,4-1.9,5.8-2.8l0.8-0.4
		c0.7-0.4,1.4-0.7,2.1-1.1c7.6-4.2,14.5-8.9,20.5-14.1c0.8-0.7,1.7-1.5,2.5-2.2c7.2-6.7,13-14.1,17.2-22.1c0.6-1,1.1-2.1,1.5-3
		c2-4.2,3.6-8.6,4.7-12.9c0.9-3.4,1.5-7.2,1.8-11.3c0.1-1.3,0.2-2.8,0.2-4.3c0.2-6.9-0.4-14.7-1.7-22.5c-0.3-1.8-0.6-3.6-1-5.5
		c-1.2-5.8-2.8-11.2-4.2-14.6c1.8-1.7,3.5-3.5,5.1-5.3c5.1-5.7,9.9-12.4,13.7-19.2c0.9-1.5,1.7-3.1,2.4-4.6c3.8-7.6,6.5-15.2,8-22.6
		c0.2-1.2,0.5-2.4,0.7-3.8c0.5-3.3,0.8-6.6,0.8-9.8c0-5.1-0.2-9.9-0.7-14.5c-0.1-1-0.2-2-0.3-3c-1.2-8.9-3.3-17.1-6.6-24.9
		c-0.3-0.8-0.7-1.6-1-2.4c-3.9-8.4-9.1-16.2-15.7-23.4l-0.1-0.1c-0.6-0.6-1.2-1.3-1.8-1.9c-6.7-7-14.9-13.4-24.4-19.2
		c-1-0.6-2.1-1.3-3.2-1.9c-2.9-1.7-5.5-3.1-8.2-4.4c-6.9-3.5-14.4-6.4-22.4-8.9c-1.9-0.6-3.9-1.1-5.9-1.6c-0.4-0.1-0.9-0.2-1.3-0.3
		c-0.8-0.2-1.5-0.4-2.3-0.6c-0.1,0-0.3-0.1-0.6-0.2l-0.1,0l-0.5-0.1l-0.2,0c-0.5-0.1-1-0.2-1.6-0.3c-8.5-2-17.6-3.1-27.9-3.6
		c-3.4-0.1-6.8-0.2-10.3-0.2l-0.6,0c-10.4,0-21.2,0.8-32.1,2.4c-5.7,0.8-11.4,1.8-16.9,3c-4.5-2.5-8.2-4.5-11.7-6.3
		c-3.5-1.8-7-3.6-10.4-5.3c-5.9-2.9-11.4-5.4-16.7-7.6c-4.2-1.7-8-3.2-11.7-4.4c-6.1-2.1-12.3-3.8-18.2-5.1l-0.7-0.2
		c-3.5-0.8-7.2-1.3-10.8-1.7C381.8,71.4,378.8,71.2,375.9,71.2L375.9,71.2z"/>
	<g>
		<g>
			<path class="st1" d="M167.5,228.9c-0.2-14.1-2.1-23.5-6.3-31.3c-3.3-6.2-9.4-13.2-27.3-13l-4.3,0.1c-4.6,0.1-9.1,0.1-13.7,0.2
				c-2.8,0-5,2.3-4.9,5.1l0,2.3c0,2.9,0.1,5.7,0.1,8.6c0,2.7,2.2,4.9,4.9,4.9c0.2,15.9,0.5,31.8,0.7,47.8c-2.7,0.1-4.8,2.4-4.7,5.1
				l0,1.8c0,3,0.1,6,0.1,9c0,2.7,2.4,4.9,5.1,4.9c0,0,0.1,0,0.1,0c6-0.1,11.9-0.2,17.9-0.3c9.7-0.1,15.4-1.7,20.3-5.6
				C164,261.8,167.8,249.3,167.5,228.9z M140.5,251.3l-0.2-11c-0.2-11-0.3-21.9-0.5-32.9c0.1,0.2,0.2,0.5,0.3,0.7
				c1.3,3.6,2,10.1,2.1,21.2C142.4,234.3,142.5,246.7,140.5,251.3z"/>
			<path class="st1" d="M213.1,237c-2.2,0-4.5,0-6.7,0.1c1.4-0.9,2.2-2.5,2.2-4.2l-0.1-10.7c0-1.4-0.6-2.6-1.5-3.5
				c0.8,0,1.6,0,2.4,0l3.5,0c2.8,0,5-2.3,4.9-5.1l0-2.6c-0.1-7.4-0.2-14.9-0.2-22.3c0-1.3-0.6-2.6-1.5-3.5c-0.9-0.9-2.2-1.5-3.6-1.4
				c-13,0.2-26.1,0.3-39.1,0.5c-1.3,0-2.6,0.6-3.5,1.5c-0.9,0.9-1.4,2.2-1.4,3.6l0.1,10.9c0,1.3,0.6,2.6,1.5,3.5
				c0.9,0.9,2.2,1.5,3.5,1.4l0,2.4c0.2,15.1,0.4,30.2,0.6,45.3c-1.3,0-2.6,0.6-3.5,1.5c-0.9,1-1.4,2.2-1.4,3.6
				c0,3.6,0.1,7.2,0.1,10.9c0,1.3,0.6,2.6,1.5,3.5c0.9,0.9,2.2,1.4,3.5,1.4c0,0,0,0,0.1,0c13-0.2,26-0.3,39-0.5
				c1.3,0,2.6-0.6,3.5-1.5c0.9-0.9,1.4-2.2,1.4-3.6c-0.1-8.7-0.2-17.4-0.3-26.1C218.1,239.1,215.9,236.9,213.1,237z M199.6,241.4
				l0,0.2c-0.5,3.6-0.9,7.2-1.4,10.7c-0.1,0-0.1,0-0.2,0l-0.2-14.4l4,0C200.6,238.7,199.8,239.9,199.6,241.4z M197.6,217.2
				l-0.1-12.6l0,0l2,10c0.2,1,0.7,1.9,1.4,2.5L197.6,217.2z"/>
			<path class="st1" d="M266.6,272.5c2.8,0,5-2.3,5-5c-0.1-8.7-0.2-17.3-0.3-26l0-0.1c0-2.7-2.3-4.9-5-4.9c0,0,0,0,0,0l-3.5,0
				c-1.1,0-2.1,0-3.2,0c0.3-0.2,0.6-0.4,0.8-0.7c0.9-0.9,1.4-2.2,1.4-3.6c0-2.6-0.1-5.2-0.1-7.9l0-2.9c0-1.4-0.6-2.6-1.4-3.5
				l5.8-0.1c2.8,0,5-2.3,5-5c-0.1-7.2-0.1-14.4-0.2-21.5l0-3.4c0-1.3-0.6-2.6-1.5-3.5c-0.9-0.9-2.2-1.5-3.6-1.4l-8.6,0.1
				c-10.2,0.1-20.3,0.2-30.5,0.3c-1.3,0-2.6,0.6-3.5,1.5c-0.9,0.9-1.4,2.2-1.4,3.6l0.1,4.5c0,2.1,0,4.3,0.1,6.4c0,2.7,2.3,4.9,5,4.9
				c0,0,0,0,0,0l0.1,10.4c0.1,12.5,0.3,24.9,0.4,37.4c-1.3,0-2.6,0.6-3.5,1.5c-0.9,1-1.4,2.2-1.4,3.6c0.1,3.6,0.1,7.2,0.1,10.8
				c0,1.3,0.6,2.6,1.5,3.5c0.9,0.9,2.2,1.4,3.5,1.4c0,0,0,0,0.1,0c11.2-0.1,22.4-0.2,33.6-0.3L266.6,272.5z M252.7,240.8
				c-0.5,3.6-1,7.3-1.5,10.9l-0.2,0c0-3.2-0.1-6.4-0.1-9.5l0-4.8c1.3,0,2.7,0,4,0C253.8,238.1,252.9,239.4,252.7,240.8z
				 M250.7,216.6c0-3.6-0.1-7.2-0.1-10.9l0-1.7c0,0,0,0,0,0c0.2,1.2,0.5,2.5,0.7,3.7l1.2,6.2c0.2,1,0.7,1.9,1.3,2.5
				C252.9,216.6,251.8,216.6,250.7,216.6z"/>
			<path class="st1" d="M328.9,212.3c-0.1-9.1-2.7-16.5-7.9-22c-5.1-5.3-11.4-7.6-21-7.5c-6.7,0.1-13.4,0.1-20.1,0.2
				c-1.3,0-2.6,0.6-3.5,1.5c-0.9,0.9-1.4,2.2-1.4,3.6c0,3.4,0.1,6.9,0.1,10.3l0,0.6c0,2.7,2.2,4.9,4.9,5c0.1,12.6,0.2,25.2,0.3,37.7
				l0.1,10c-2.7,0.1-4.8,2.3-4.8,5l0.1,10.9c0,1.3,0.5,2.6,1.5,3.5c0.9,0.9,2.2,1.4,3.5,1.4c0,0,0,0,0,0c6.3-0.1,12.5-0.1,18.8-0.2
				l6.3,0c1.3,0,2.6-0.5,3.5-1.5c0.9-0.9,1.4-2.2,1.4-3.5l0-3.2c0-2.6,0-5.2-0.1-7.8c0-1.3-0.6-2.6-1.5-3.5s-2.2-1.4-3.6-1.4
				c-0.5,0-1,0-1.5,0c0-3.2-0.1-6.3-0.1-9.5c5.9-0.4,9.4-1.5,14.1-4.8C324.9,232.2,329,223,328.9,212.3z M304.6,211.8
				c0,3.3-0.3,5.4-0.8,6.7c0-4.2-0.1-8.3-0.1-12.5C304.2,207.3,304.6,209.1,304.6,211.8z"/>
			<path class="st1" d="M396.8,240.4c0-1.3-0.5-2.6-1.5-3.5c-0.9-0.9-2.2-1.5-3.5-1.5c0,0,0,0,0,0c-1.9,0-3.7,0-5.5,0l-1.1,0
				c0.3-0.2,0.6-0.4,0.8-0.7c0.9-0.9,1.5-2.2,1.5-3.5l0-10.7c0-1.4-0.5-2.6-1.4-3.5c1.9,0,3.9,0,5.8,0c2.8,0,5-2.3,5-5
				c0-6.4,0-12.8,0-19.3l0-5.7c0-1.3-0.5-2.6-1.5-3.5c-0.9-0.9-2.2-1.5-3.5-1.5c0,0,0,0,0,0c-13,0-26.1,0.1-39.1,0.1
				c-1.3,0-2.6,0.5-3.5,1.5s-1.5,2.2-1.4,3.6c0,2.5,0,4.9,0,7.4l0,3.5c0,1.3,0.5,2.6,1.5,3.5c0.9,0.9,2.2,1.4,3.5,1.4l0,4.6
				c0.1,14.4,0.1,28.8,0.2,43.2c-1.3,0-2.6,0.6-3.5,1.5c-0.9,0.9-1.5,2.2-1.4,3.6l0.1,10.7c0,2.7,2.2,4.9,5,5l12,0.1l1.4,0
				c8.5,0,17-0.1,25.5-0.1c2.8,0,5-2.2,5-5l0-12C396.8,249.8,396.8,245.1,396.8,240.4z M378.3,239.7l-0.8,5.4
				c-0.3,1.8-0.5,3.6-0.8,5.5c-0.1,0-0.1,0-0.2,0c0-4.8,0-9.6,0-14.4l4,0C379.3,237,378.5,238.2,378.3,239.7z M376.4,215.5
				c0-4.2,0-8.4,0-12.6c0,0,0,0,0.1,0c0.6,3.3,1.3,6.7,1.9,10c0.2,1,0.7,1.9,1.3,2.6L376.4,215.5z"/>
			<path class="st1" d="M423.9,182C423.9,182,423.9,182,423.9,182c-6.1,0-12.1,0-18.1,0c-2.8,0-5,2.2-5,5c0,2.2,0,4.5,0,6.7l0,4.2
				c0,1.3,0.5,2.6,1.5,3.5c0.9,0.9,2.1,1.4,3.4,1.4l0,15.1c0,10.9,0,21.8,0.1,32.7c-1.3,0-2.5,0.6-3.4,1.5c-0.9,0.9-1.5,2.2-1.5,3.5
				l0,10.9c0,1.3,0.5,2.6,1.5,3.5c0.9,0.9,2.2,1.5,3.5,1.5c0,0,0,0,0,0c5,0,10,0,15,0l3,0c9.6,0,15.4-1.5,20.4-5.4
				c8.5-6.6,12.4-19.1,12.4-39.4c0-14.1-1.8-23.5-5.9-31.4C446.1,186,438,182,423.9,182z M429.5,248.7c0-12.3,0-24.6,0-36.9l0-7
				c0.1,0.2,0.2,0.5,0.3,0.7c1.3,3.6,1.8,10.1,1.8,21.2C431.6,231.2,431.6,244,429.5,248.7z"/>
			<path class="st1" d="M501.6,266.2c8.5-6.5,12.5-19,12.5-39.4c0-14.2-1.7-23.6-5.8-31.4c-3.2-6.2-9.1-13.4-27.1-13.4l-18,0
				c0,0,0,0,0,0c-1.3,0-2.6,0.5-3.5,1.5c-0.9,0.9-1.5,2.2-1.5,3.5l0,3.4c0,2.5,0,5,0,7.4c0,1.3,0.5,2.6,1.5,3.5
				c0.9,0.9,2.1,1.4,3.4,1.5c0,6.8,0,13.5,0,20.3c0,9.2,0,18.3,0,27.5c-2.7,0.1-4.8,2.3-4.8,5l0,3.6c0,2.4,0,4.8,0,7.2
				c0,1.3,0.5,2.6,1.5,3.5c0.9,0.9,2.2,1.5,3.5,1.5c6,0,12,0,17.9,0c0,0,0.1,0,0.1,0C490.9,271.5,496.6,270,501.6,266.2
				C501.6,266.2,501.6,266.2,501.6,266.2z M486.8,248.7l0.1-43.9c0.1,0.2,0.2,0.5,0.3,0.7c1.2,3.6,1.8,10.1,1.8,21.2
				C488.9,231.8,488.9,244.1,486.8,248.7z"/>
			<path class="st1" d="M222,159.8c0.5-0.6,0.9-1.2,1.1-1.9c1.3,0.5,2.7,0.8,4.3,0.8c0,0,0.1,0,0.1,0c1.2,0,2.5-0.2,3.8-0.6
				c0,0,0.1,0,0.1,0c3.3-1,5.9-2.9,7.2-5.4c0.1-0.2,0.2-0.4,0.3-0.6c0.4,0.3,0.9,0.6,1.4,0.8c1.6,0.6,3.3,0.9,5,0.9
				c0.1,0,0.1,0,0.2,0c1.2,0,2.2-0.2,3.2-0.4c2.8-0.7,5.1-2.2,6.7-4.3c0.5-0.6,0.9-1.4,1.1-2.1c0.9,1.8,2.7,3,4.8,3
				c0.4,0,0.8-0.1,1.2-0.2c0.9-0.2,1.8-0.4,2.6-0.5l0.9-0.2c0.6-0.1,1.1-0.3,1.6-0.7l0.2-0.1c1.1-0.7,1.9-1.8,2.2-3
				c0.9,1.1,2.2,1.9,3.6,2.1c0.2,0,0.5,0,0.7,0c0.3,0,0.6,0,0.9-0.1l1.1-0.2c0.9-0.2,1.7-0.3,2.6-0.4c0.6-0.1,1.2-0.3,1.8-0.7
				l0.2-0.1c0.6-0.3,1-0.8,1.4-1.3c0.5,0.3,1,0.6,1.5,0.7l0.2,0.1c0.4,0.1,0.9,0.2,1.3,0.2c0.2,0,0.4,0,0.7,0
				c0.8-0.1,1.6-0.2,2.4-0.3l1.3-0.2c0.5-0.1,1-0.2,1.5-0.4l0.2-0.1c0.6-0.3,1.1-0.7,1.6-1.2c0.3,0.2,0.7,0.4,1.1,0.5l0.2,0.1
				c0.7,0.2,1.5,0.3,2.2,0.2l1.7-0.2c0.7-0.1,1.3-0.2,2-0.2c0.7-0.1,1.5-0.3,2.1-0.7l0.2-0.1c1-0.7,1.8-1.7,2.1-2.9l0.1-0.2
				c0.2-0.7,0.2-1.4,0.1-2.1c-0.1-0.9-0.2-1.9-0.4-2.8c0.5,0.2,1.1,0.3,1.6,0.3c0.2,0,0.3,0,0.5,0c0.7-0.1,1.4-0.1,2.1-0.2
				c0.9-0.1,1.8-0.4,2.6-0.9l0.3-0.2c0.7-0.5,1.3-1.2,1.7-2l0.7-1.5c0.2,0.5,0.4,0.9,0.6,1.3c-0.2,0.5-0.4,0.9-0.7,1.4l-0.1,0.3
				c-0.6,1.2-0.7,2.6-0.2,3.8l0.1,0.4c0.4,1.1,1.1,2,2.1,2.6c2.3,1.4,4.9,2.1,7.6,2.1c0,0,0,0,0,0c0,0,0.1,0,0.1,0l0.4,0
				c0,0,0.1,0,0.1,0c2.9-0.1,5.6-1.2,7.4-3c1.4-1.3,3-3.6,3-7.4c0,0,0-0.1,0-0.1l0-0.4c-0.1-2-0.7-3.8-1.9-5.2
				c0.1-0.3,0.3-0.6,0.4-0.8c0-0.1,0.1-0.2,0.1-0.2c1-2.5,0.1-5.3-2.3-6.7c-0.1,0-0.2-0.1-0.3-0.1c-1.9-0.9-4.3-1.5-6.6-1.5
				c-0.1,0-0.2,0-0.3,0l-0.3,0c-3,0.1-5.6,1.4-7.4,3.4c-0.5-0.8-1.3-1.4-2.2-1.8l-0.3-0.1c-0.8-0.3-1.6-0.5-2.5-0.4
				c-0.7,0.1-1.4,0.1-2.2,0.2l-1,0.1c-1,0.1-1.9,0.5-2.7,1.1l-0.3,0.2c-0.8,0.6-1.4,1.5-1.6,2.4l-0.2,0.7c0,0,0,0,0,0
				c-0.1-0.3-0.2-0.6-0.4-0.8l-0.1-0.2c-0.7-1.1-1.8-2-3.1-2.3l-0.2-0.1c-0.6-0.1-1.2-0.2-1.8-0.1c-0.6,0.1-1.3,0.2-1.9,0.2
				l-1.7,0.2c-1.3,0.2-2.5,0.8-3.3,1.7c-0.2-0.1-0.5-0.3-0.7-0.4l-0.2-0.1c-0.8-0.4-1.7-0.5-2.6-0.4l-3.6,0.5
				c-1.7,0.2-3.1,1.1-3.9,2.5c-1.2-1-2.8-1.5-4.3-1.2c-0.8,0.1-1.5,0.3-2.3,0.4l-1.4,0.2c0,0-0.1,0-0.1,0c-1.2,0.3-2.3,0.9-3,1.9
				c-1.1-0.6-2.4-0.9-3.8-0.6l-1.3,0.3c-2.8,0.6-5.6,1.2-8.5,1.8c0,0-0.1,0-0.1,0c-1.5,0.3-2.7,1.3-3.4,2.5c0,0-0.1,0-0.1,0
				c-0.2-0.1-0.4-0.1-0.6-0.2c-1.4-0.3-2.6-0.5-3.7-0.4c-1.2,0-2.4,0.2-3.5,0.4c-3.2,0.8-5.7,2.9-7,5.6l-0.1-0.1
				c-0.8-1.1-2.1-1.8-3.5-1.9l-0.2,0c-0.6-0.1-1.3,0-1.9,0.2c-0.8,0.2-1.5,0.5-2.3,0.7l-1.3,0.4c-0.3,0.1-0.5,0.2-0.8,0.3
				c-0.6,0.3-1.1,0.6-1.5,1.1c-0.8-0.2-1.8-0.1-2.6,0.1l-3.5,1.1c-1.4,0.4-2.5,1.3-3.2,2.6c-0.7,1.3-0.8,2.8-0.4,4.1
				c0.3,0.8,0.5,1.7,0.8,2.5c-1.1-1.2-2.2-2.5-3.3-3.7c-0.7-0.8-1.7-1.3-2.7-1.6l-0.3-0.1c-0.9-0.2-1.8-0.1-2.7,0.2
				c-1.3,0.5-2.6,0.9-3.9,1.4c-1,0.4-1.9,1-2.5,1.9l-0.2,0.3c-0.5,0.8-0.8,1.7-0.9,2.7c-0.1,5-0.2,10.1-0.3,15.1
				c0,0.9,0.2,1.8,0.7,2.6l0.1,0.2c0.6,1,1.5,1.8,2.7,2.2l0.2,0.1c0.5,0.2,1.1,0.3,1.6,0.3c0.2,0,0.4,0,0.6,0l0.1,0
				c0.4,0,0.8-0.1,1.1-0.3c0.7-0.2,1.3-0.5,2-0.7l1.7-0.6c0.9-0.3,1.6-0.9,2.2-1.6l0.2-0.3c0.2-0.2,0.3-0.4,0.4-0.6
				c0.2,0.1,0.5,0.2,0.7,0.2l0.4,0.1c0.9,0.2,1.9,0.1,2.8-0.2l1.5-0.5c0.8-0.3,1.5-0.5,2.3-0.8c0.7-0.3,1.4-0.7,1.9-1.2L222,159.8z"
				/>
			<path class="st1" d="M460.5,159.5c0.8,0.2,1.6,0.5,2.4,0.7c0.2,0,0.4,0.1,0.6,0.1c0.3,0.1,0.7,0.1,1,0.1c0.5,0,1-0.1,1.5-0.2
				c0.6,0.9,1.5,1.6,2.6,1.9l2.9,1c1.6,0.6,3.1,1.1,4.7,1.7c0.2,0.1,0.4,0.1,0.6,0.2c0.4,0.1,0.8,0.1,1.2,0.1c0.4,0,0.9-0.1,1.3-0.2
				l0.1,0c0.8-0.2,1.5-0.6,2.1-1.2l0.2-0.2c0.6-0.5,1-1.2,1.3-1.9c0.3-0.9,0.7-1.9,1.1-2.8c0.3-0.8,0.4-1.6,0.3-2.4l0-0.2
				c-0.1-1.2-0.7-2.4-1.7-3.2l-0.2-0.2c-0.3-0.2-0.5-0.4-0.8-0.6c0-0.1,0.1-0.3,0.1-0.4c0.6-1.7,1.2-3.3,1.9-5
				c0.2-0.6,0.3-1.1,0.3-1.7V145c0-1.6-0.7-3.1-2-4l-0.2-0.1c-0.4-0.3-0.8-0.5-1.3-0.7c-1.2-0.4-2.4-0.8-3.5-1.3
				c-1.3-0.5-2.7-0.4-4,0.1c-1.3,0.6-2.3,1.7-2.8,3l-0.1,0.4c-0.3,0.8-0.6,1.6-0.9,2.4c-0.1-1.7-0.2-3.3-0.3-5c-0.1-1-0.4-2-1-2.8
				l-0.2-0.3c-0.6-0.8-1.5-1.4-2.5-1.7l-3.9-1.2c-0.9-0.3-1.9-0.3-2.8,0l-0.3,0.1c-1,0.3-1.9,0.9-2.5,1.7l-3.5,4.3
				c0.1-0.4,0.2-0.9,0.3-1.3l0.5-1.7c0.2-0.7,0.2-1.5,0.1-2.2l0-0.2c-0.2-1.2-0.9-2.3-1.8-3l-0.2-0.1c-0.6-0.4-1.2-0.7-1.9-0.9
				l-3.6-0.9c-1.2-0.3-2.6-0.2-3.7,0.4c-0.7-0.9-1.6-1.6-2.7-1.9l-0.6-0.2c-1.1-0.3-2.1-0.6-3.2-0.9c-1.7-0.4-3.4,0-4.7,1
				c-0.4-0.7-1-1.4-1.7-1.9l-0.2-0.1c-0.5-0.3-1.1-0.6-1.8-0.7l-3.6-0.7c-1.4-0.3-2.9,0-4.1,0.8c-0.7,0.5-1.3,1.1-1.7,1.9
				c-1.8-3.1-5-5.2-8.9-5.8c-0.7-0.1-1.6-0.2-2.5-0.2c-3.2,0-6,1.1-8.2,2.9c0-0.1,0-0.2,0-0.3l-0.1-0.2c-0.4-1.4-1.3-2.6-2.7-3.3
				l-0.2-0.1c-0.5-0.2-1-0.4-1.6-0.5c-0.6-0.1-1.3-0.2-1.9-0.2l-1.8-0.2c-0.1,0-0.1,0-0.2,0c-2.1-0.2-4.1,0.9-5.1,2.7
				c-1.7-2.3-4.4-3.7-7.8-4l-2.4-0.2c-1.1-0.1-2.2-0.2-3.3-0.3c-2.5-0.2-4.8,1.4-5.5,3.8c-2.3-2.9-6-4.8-10.2-4.9c0,0-0.1,0-0.1,0
				h-0.4c-7.1,0.1-12.9,5.3-13.2,12l0,0.2c0,0.1,0,0.3,0,0.4c0.1,7.2,5.6,12.8,13,12.9c0,0,0,0,0,0l0.4,0c0,0,0.1,0,0.1,0
				c0,0,0,0,0,0c3.7,0,6.9-1.4,9.3-3.7c0.5,1.9,2.1,3.3,4.1,3.7c0.2,0,0.4,0.1,0.5,0.1c1.3,0.1,2.5,0.2,3.8,0.3c0.6,0,1.2,0,1.8-0.2
				c0.5,0.3,1.1,0.4,1.7,0.5l1.2,0.1c1.2,0.1,2.3,0.2,3.5,0.3c0.1,0,0.3,0,0.4,0c0.1,0,0.2,0,0.3,0c0.8,0,1.6-0.3,2.3-0.6
				c0.6,0.6,1.4,1,2.3,1.2c0.2,0,0.4,0.1,0.6,0.1l3.5,0.4c0.3,0,0.6,0.1,0.8,0.1c0.5,0,1.1-0.1,1.6-0.3l0.2-0.1
				c1.1-0.4,2.1-1.1,2.7-2.2l0.1-0.2c0,0,0-0.1,0-0.1c2,2.7,5,4.6,8.7,5.2c0.1,0,0.1,0,0.2,0l0.3,0c0.4,0.1,1,0.1,1.6,0.1
				c0.1,0,0.3,0,0.4,0c2.6,0,5.1-0.9,7.2-2.4c0.4,1.8,1.6,3.4,3.5,4c0.2,0.1,0.4,0.1,0.6,0.2c0.8,0.2,1.5,0.3,2.3,0.5l1.4,0.3
				c0.2,0,0.4,0.1,0.6,0.1c0.2,0,0.3,0,0.5,0c0.3,0,0.6,0,0.9-0.1l0.2,0c0.7-0.1,1.3-0.4,1.9-0.7c0.6,0.8,1.3,1.5,2.3,1.9
				c0.3,0.1,0.5,0.2,0.8,0.3l3.6,0.9c0.6,0.2,1.3,0.2,1.9,0.1l0.2,0c0.5-0.1,1-0.2,1.5-0.5c0.7,0.9,1.6,1.5,2.7,1.8
				c0.6,0.2,1.2,0.3,1.8,0.5c0.7,0.2,1.3,0.4,2,0.6c0.4,0.1,1,0.2,1.4,0.2c0.4,0,0.9-0.1,1.3-0.2l0.2,0c0.1,0,0.2-0.1,0.4-0.1
				l0.2,0.2c0.6,0.7,1.5,1.3,2.4,1.5c1.1,0.3,2.2,0.7,3.3,1l0.5,0.1c1,0.3,2,0.3,3,0l0.3-0.1c0.2-0.1,0.3-0.1,0.5-0.2
				c0.1,0.1,0.2,0.2,0.3,0.4l0.2,0.3c0.6,0.8,1.5,1.5,2.5,1.8L460.5,159.5z"/>
			<path class="st1" d="M195,290.4C195,290.4,194.9,290.4,195,290.4c-4.2,0-8.4,0.1-12.5,0.2c-2,0-3.8,1.3-4.6,3.2
				c-2,5-3.9,9.9-5.9,14.9c-1.5-3.6-3.1-7.3-4.6-10.9l-1.6-3.8c-0.8-1.9-2.6-3.1-4.7-3.1c-3,0-6.1,0.1-9.1,0.1l-3.3,0
				c-1.7,0-3.2,0.9-4.1,2.3c-0.9,1.4-1,3.2-0.4,4.7l4.4,9.9c4.9,11,9.8,22.1,14.7,33.1c0.8,1.8,2.6,3,4.6,3c0,0,0,0,0,0
				c1.9,0,3.9,0,5.8-0.1l3,0c2,0,3.8-1.2,4.5-3.1c3.9-9.4,7.9-18.8,11.9-28.3l6.4-15.2c0.7-1.6,0.5-3.3-0.5-4.7
				C198.2,291.3,196.6,290.4,195,290.4z"/>
			<path class="st1" d="M257.7,288.2c-0.1,0-0.2,0-0.3,0c-8.2,0.1-16,3.3-21.5,9c-4.9,5-7.6,11.6-7.5,18.6
				c0.1,8.1,3.1,15.4,8.6,20.7c5.3,5.1,12.7,7.9,20.7,7.9c0.1,0,0.2,0,0.3,0c8.2-0.1,15.6-3,20.9-8.3c5.4-5.3,8.3-12.7,8.2-20.8
				c-0.1-6.9-2.8-13.5-7.9-18.4C273.5,291.3,265.7,288.2,257.7,288.2z M257.6,323.4c-4.2,0-7.4-3.4-7.4-7.8c0-1.4,0.7-2.9,1.9-4.2
				c1.4-1.5,3.4-2.3,5.5-2.3c0,0,0.1,0,0.1,0c2,0,3.8,0.7,5.3,2.1c1.3,1.2,2.1,2.8,2.1,4.3C265.1,320,261.9,323.4,257.6,323.4
				C257.7,323.4,257.7,323.4,257.6,323.4z"/>
			<path class="st1" d="M340.4,289c-0.1,0-0.1,0-0.2,0c-3.6,0-7.2,0-10.8,0.1l-5.4,0c-1.3,0-2.6,0.5-3.5,1.5
				c-0.9,0.9-1.5,2.2-1.4,3.5c0.1,10.7,0.1,21.4,0.2,32.1l0.1,11.2c0,1.3,0.5,2.6,1.5,3.5c0.9,0.9,2.2,1.4,3.5,1.4c0,0,0,0,0,0
				l16.2-0.1c15.1-0.1,27.3-12.1,27.2-26.7c0,0,0,0,0,0C367.7,300.8,355.4,289,340.4,289z M345.9,315.5c0,3.9-1.7,6.2-5.2,6.9
				c0-4.6-0.1-9.2-0.1-13.8c1.2,0.2,2.5,0.7,3.5,1.7C345.3,311.6,345.9,313.3,345.9,315.5z"/>
			<path class="st1" d="M440.5,317.9l-3.3-3.9c2.7-3.1,5.3-6.2,8-9.3l6.8-7.9c1.3-1.5,1.6-3.6,0.7-5.3c-0.8-1.8-2.6-2.9-4.5-2.9
				c0,0,0,0,0,0c-4.7,0-9.4,0-14.2,0c-1.5,0-3,0.7-4,1.9c-1.7,2.1-3.3,4.3-5,6.4l0-3.4c0-2.8-2.2-5-5-5c-2.7,0-5.5,0-8.2,0l-3.3,0
				c-2.8,0-5,2.2-5,5c0,14.4,0,28.8,0.1,43.2c0,2.8,2.2,5,5,5c0,0,0,0,0,0l11.4,0c1.3,0,2.6-0.5,3.5-1.5c0.9-0.9,1.5-2.2,1.5-3.5
				c0-1.5,0-3,0-4.4c0.8,1.1,1.7,2.2,2.5,3.2l3.4,4.3c0.9,1.2,2.4,1.9,3.9,1.9c0,0,0,0,0,0c4.9,0,9.9,0,14.8,0c0,0,0,0,0,0
				c1.9,0,3.7-1.1,4.5-2.9c0.8-1.8,0.6-3.8-0.7-5.3C449.2,328.3,444.9,323.1,440.5,317.9z"/>
			<path class="st1" d="M526.2,292.2c-0.7-1.9-2.6-3.2-4.7-3.2l-5.8,0c-2.2,0-4.5,0-6.7,0c0,0,0,0,0,0c-2.1,0-3.9,1.3-4.7,3.2
				c-5.7,14.4-11.4,28.8-17,43.2c-0.6,1.5-0.4,3.3,0.5,4.6c0.9,1.4,2.5,2.2,4.1,2.2l12.1,0c0,0,0,0,0,0c2,0,3.9-1.2,4.6-3.1l0.4-1
				c0.5-1.1,0.9-2.3,1.4-3.4c2.7,0,5.5,0,8.2,0l0.7,0c0.5,1.4,1.1,2.9,1.6,4.3c0.7,2,2.6,3.2,4.7,3.3l12.2,0c0,0,0,0,0,0
				c1.6,0,3.2-0.8,4.1-2.2c0.9-1.4,1.1-3.1,0.6-4.6C537.1,321,531.7,306.6,526.2,292.2z"/>
			<path class="st1" d="M581.3,176.5c-4.9,0-9.1,2.9-11.1,7c-0.9-0.8-2-1.2-3.2-1.2l-20.1-0.1c0,0,0,0,0,0c-1.1,0-2.1,0.4-2.9,1
				c-0.8-0.6-1.8-1-3-1c-7.9,0-15.8-0.1-23.7-0.1c0,0,0,0,0,0c-1.3,0-2.6,0.5-3.5,1.5c-0.9,0.9-1.5,2.2-1.5,3.5c0,3.6,0,7.2,0,10.9
				c0,1.3,0.5,2.6,1.5,3.5c0.9,0.9,2.2,1.5,3.5,1.5c0.4,0,0.8,0,1.2,0l1.9,5c3.3,8.7,6.6,17.3,10,26c0,4.1,0,8.2,0,12.3l0,4.6
				c-0.1,0-0.2,0-0.3,0c-2.8,0-5,2.2-5,5c0,2.8,0,5.6,0,8.4l0,2.5c0,2.8,2.2,5,5,5l2,0c7.4,0,14.9,0.1,22.3,0.1c0,0,0,0,0,0
				c1.3,0,2.6-0.5,3.5-1.4c0.9-0.9,1.5-2.2,1.5-3.5l0-11c0-2.8-2.2-5-5-5l-0.4,0c0-5.6,0-11.2,0.1-16.8c3.9-10.3,7.8-20.5,11.7-30.8
				c0.4,0,0.9,0,1.3,0c1.4,0,2.6-0.5,3.6-1.4c0.9-0.9,1.5-2.2,1.5-3.5l0-1.2c2.3,2.7,5.7,4.4,9.5,4.4c6.8,0,12.4-5.6,12.4-12.4
				C593.7,182.1,588.1,176.5,581.3,176.5z M543.8,202.1c0.3,0.3,0.7,0.5,1.1,0.6c-0.4,1.1-0.8,2.2-1.2,3.3l-1.2-3.3
				C543,202.5,543.4,202.3,543.8,202.1z"/>
		</g>
		<g>
			<path class="st5" d="M170.7,231.9c-0.2-14-2-23.2-6.2-30.9c-4.7-8.9-12.6-12.6-26.4-12.4l-4.3,0.1c-4.6,0.1-9.1,0.1-13.7,0.2
				c-2.2,0-4,1.9-3.9,4.1l0,2.5c0,2.8,0.1,5.6,0.1,8.4c0,1.1,0.5,2.1,1.2,2.8s1.8,1.1,2.8,1.1c0.3,0,0.6,0,0.8,0
				c0.2,16.6,0.5,33.2,0.8,49.8c-0.3,0-0.6,0-0.8,0c-2.2,0-4,1.9-3.9,4.1l0,2.2c0,2.9,0.1,5.8,0.1,8.7c0,2.2,1.9,3.9,4.1,3.9
				c0,0,0,0,0.1,0c6-0.1,11.9-0.2,17.9-0.3c9.4-0.1,14.9-1.7,19.7-5.4C167.3,264.2,170.9,251.9,170.7,231.9z M147.4,232.2
				c0.1,9.7-0.1,21.2-2.8,24c-0.2,0.2-0.5,0.4-0.9,0.6l-0.2-14.3c-0.2-11.6-0.3-23.2-0.5-34.8C145.3,208.7,147.2,213.1,147.4,232.2z
				"/>
			<path class="st5" d="M217.3,240.9c-2.9,0-5.7,0.1-8.6,0.1c-2,0-3.7,1.5-3.9,3.5l-0.1,0.8c-0.5,3.7-1,7.3-1.4,11
				c-0.7,0-1.4,0-2.1,0l-0.2-16.4l6.9-0.1c2.2,0,4-1.8,3.9-4l-0.1-10.7c0-2.2-1.8-4-4-4c0,0,0,0,0,0l-6.9,0.1l-0.2-14.6l1.9,0
				l2.2,10.8c0.4,1.9,2,3.2,3.9,3.2c0,0,0,0,0.1,0c1.7,0,3.3,0,5-0.1l3.5,0c2.2,0,4-1.8,3.9-4l0-2.1c-0.1-7.6-0.2-15.2-0.3-22.9
				c0-1.1-0.4-2.1-1.2-2.8c-0.8-0.7-1.8-1.2-2.8-1.1c-13,0.2-26.1,0.3-39.1,0.5c-1.1,0-2.1,0.4-2.8,1.2c-0.7,0.8-1.1,1.8-1.1,2.8
				l0.1,10.9c0,1.1,0.4,2.1,1.2,2.8c0.8,0.7,1.7,1.2,2.8,1.1l1,0l0,3.5c0.2,15.4,0.4,30.8,0.6,46.3l-0.9,0c-1.1,0-2.1,0.4-2.8,1.2
				c-0.7,0.8-1.2,1.8-1.1,2.8l0.1,10.9c0,1.1,0.4,2.1,1.2,2.8c0.7,0.7,1.7,1.1,2.8,1.1c0,0,0,0,0.1,0c13-0.2,26-0.3,39-0.5
				c1.1,0,2.1-0.4,2.8-1.2c0.7-0.8,1.2-1.8,1.1-2.8c-0.1-8.7-0.2-17.4-0.3-26.1C221.3,242.6,219.5,240.8,217.3,240.9z"/>
			<path class="st5" d="M270.7,274.5c2.2,0,4-1.8,4-4c-0.1-8.7-0.2-17.3-0.3-26l0-0.2c0-2.2-1.8-4-4-4c0,0,0,0,0,0l-3.4,0
				c-1.7,0-3.4,0-5.1,0c-2,0-3.7,1.5-3.9,3.5c-0.5,3.9-1,7.8-1.6,11.8l-2.1,0c0-3.6-0.1-7.2-0.1-10.9l-0.1-5.5c2.3,0,4.6,0,6.9-0.1
				c1.1,0,2.1-0.4,2.8-1.2c0.7-0.8,1.2-1.8,1.1-2.8c0-2.6-0.1-5.3-0.1-7.9l0-2.8c0-2.2-1.8-4-4-4c0,0,0,0,0,0c-2.3,0-4.6,0-6.9,0.1
				c0-3.8-0.1-7.6-0.1-11.4l0-3.1c0.6,0,1.2,0,1.9,0c0.3,1.5,0.6,3.1,0.9,4.6l1.2,6.2c0.4,1.9,2.1,3.2,4,3.2l8.5-0.1
				c2.2,0,4-1.8,4-4c-0.1-7.2-0.1-14.5-0.2-21.7l0-3.3c0-1.1-0.4-2.1-1.2-2.8c-0.8-0.7-1.8-1.1-2.8-1.1l-9.8,0.1
				c-9.8,0.1-19.5,0.2-29.3,0.3c-1.1,0-2.1,0.4-2.8,1.2s-1.2,1.8-1.1,2.8l0.1,4.5c0,2.1,0,4.2,0.1,6.4c0,2.2,1.8,3.9,4,3.9
				c0.3,0,0.6,0,1,0l0.2,14.2c0.1,11.9,0.3,23.7,0.4,35.6c-0.3,0-0.6,0-1,0c-1.1,0-2.1,0.4-2.8,1.2c-0.7,0.8-1.1,1.8-1.1,2.8
				c0.1,3.6,0.1,7.2,0.1,10.8c0,1.1,0.4,2.1,1.2,2.8c0.7,0.7,1.8,1.1,2.8,1.1c0,0,0,0,0,0c11.2-0.1,22.4-0.2,33.6-0.3L270.7,274.5z"
				/>
			<path class="st5" d="M324.4,193.9c-4.9-5.1-11-7.3-20.3-7.2c-6.7,0.1-13.4,0.1-20.1,0.2c-1.1,0-2.1,0.4-2.8,1.2s-1.2,1.8-1.1,2.8
				c0,3.6,0.1,7.2,0.1,10.9c0,2.2,1.8,4,4,4c0,0,0,0,0,0c0.3,0,0.6,0,0.9,0c0.1,12.8,0.2,25.6,0.3,38.4l0.1,11.3c-0.3,0-0.6,0-0.8,0
				c-2.2,0-4,1.8-4,4l0.1,10.9c0,1.1,0.4,2.1,1.2,2.8c0.7,0.7,1.8,1.1,2.8,1.1c0,0,0,0,0,0c6.1-0.1,12.3-0.1,18.4-0.1l6.7-0.1
				c1.1,0,2.1-0.4,2.8-1.2c0.7-0.8,1.2-1.8,1.1-2.8l0-2.9c0-2.7,0-5.4-0.1-8c0-1.1-0.4-2.1-1.2-2.8c-0.8-0.7-1.8-1.1-2.8-1.1
				c-0.8,0-1.7,0-2.5,0c0-3.8-0.1-7.6-0.1-11.4c6.3-0.3,9.7-1.3,14.5-4.7c6.6-4.6,10.5-13.5,10.4-23.9
				C332,206.3,329.4,199.2,324.4,193.9z M307.4,206.4c1.5,1.4,2.3,4.5,2.4,8.3c0,6.5-1.3,8.9-2.8,9.7c0-6.2-0.1-12.4-0.1-18.5
				C307,206.1,307.2,206.2,307.4,206.4z"/>
			<path class="st5" d="M400,243.3c0-1.1-0.4-2.1-1.2-2.8c-0.8-0.8-1.8-1.2-2.8-1.2c-1.9,0-3.7,0-5.6,0l-3,0c-2,0-3.7,1.5-3.9,3.4
				l-0.8,5.3c-0.3,2.1-0.6,4.3-0.9,6.4c-0.7,0-1.4,0-2.1,0c0-5.5,0-10.9-0.1-16.4l6.9,0c1.1,0,2.1-0.4,2.8-1.2
				c0.7-0.8,1.2-1.8,1.2-2.8l0-10.7c0-2.2-1.8-4-4-4c0,0,0,0,0,0l-6.9,0c0-4.9,0-9.7,0-14.6c0.6,0,1.3,0,1.9,0
				c0.7,3.6,1.4,7.2,2.1,10.8c0.4,1.9,2,3.3,3.9,3.3c0,0,0,0,0,0c2.8,0,5.7,0,8.5,0c2.2,0,4-1.8,4-4c0-6.6,0-13.3,0-19.9l0-5
				c0-1.1-0.4-2.1-1.2-2.8c-0.8-0.7-1.8-1.2-2.8-1.2c0,0,0,0,0,0c-13,0-26.1,0.1-39.1,0.1c-1.1,0-2.1,0.4-2.8,1.2
				c-0.7,0.8-1.2,1.8-1.2,2.8c0,2.6,0,5.1,0,7.7l0,3.2c0,1.1,0.4,2.1,1.2,2.8c0.7,0.7,1.8,1.2,2.8,1.2c0,0,0,0,0,0l0.9,0l0,8.3
				c0,13.8,0.1,27.6,0.1,41.4c-0.3,0-0.6,0-1,0c-1.1,0-2.1,0.4-2.8,1.2c-0.7,0.8-1.2,1.8-1.2,2.8l0.1,10.7c0,2.2,1.8,3.9,4,4l12,0.1
				l1.4,0c8.5,0,17-0.1,25.5-0.1c2.2,0,4-1.8,4-4l0-11.4C400,253.1,400,248.2,400,243.3z"/>
			<path class="st5" d="M428.1,185.9C428.1,185.9,428,185.9,428.1,185.9c-6.1,0-12.1,0-18.1,0c-2.2,0-4,1.8-4,4c0,2.2,0,4.5,0,6.7
				l0,4.2c0,1.1,0.4,2.1,1.2,2.8c0.8,0.7,1.8,1.2,2.8,1.2c0,0,0,0,0,0c0.3,0,0.6,0,0.8,0l0,16.8c0,11,0,22,0.1,33l-0.8,0
				c-1.1,0-2.1,0.4-2.8,1.2c-0.8,0.8-1.2,1.8-1.2,2.8l0,10.9c0,1.1,0.4,2.1,1.2,2.8c0.8,0.7,1.8,1.2,2.8,1.2c0,0,0,0,0,0l18,0
				c9.4,0,14.9-1.4,19.8-5.1c8.2-6.4,12.1-18.6,12.1-38.6c0-13.9-1.7-23.2-5.8-31C449.6,189.7,441.8,185.9,428.1,185.9z
				 M434.9,208.1c1.3,3.7,1.9,10.3,1.9,21.6c0,9.7-0.3,21.2-3.2,24c-0.2,0.2-0.5,0.4-0.9,0.5c0-13.7,0-27.4,0-41.1l0-8
				C433.6,205.5,434.2,206.3,434.9,208.1z"/>
			<path class="st5" d="M505.2,268.3c8.2-6.3,12.1-18.6,12.1-38.6c0-14-1.7-23.3-5.7-31c-4.6-9-12.4-12.8-26.2-12.9l-18,0
				c-1.1,0-2.1,0.4-2.8,1.2c-0.8,0.7-1.2,1.8-1.2,2.8l0,3.4c0,2.5,0,5,0,7.4c0,1.1,0.4,2.1,1.2,2.8c0.8,0.8,1.8,1.2,2.8,1.2l0.8,0
				c0,7.5,0,15,0,22.5c0,9.1,0,18.2,0,27.3l-0.8,0c-2.2,0-4,1.8-4,4l0,3.6c0,2.4,0,4.8,0,7.2c0,1.1,0.4,2.1,1.2,2.8
				c0.8,0.8,1.8,1.2,2.8,1.2c6,0,12,0,18,0c0,0,0.1,0,0.1,0C494.8,273.4,500.3,272,505.2,268.3C505.2,268.3,505.2,268.3,505.2,268.3
				z M490,254.2l0.1-49.1c0.9,0.4,1.6,1.2,2.2,3c1.3,3.7,1.8,10.3,1.8,21.6c0,9.7-0.4,21.2-3.2,24C490.7,253.8,490.4,254,490,254.2z
				"/>
			<path class="st5" d="M227.1,159.6C227.1,159.6,227.1,159.7,227.1,159.6c1.3,0.7,2.8,1,4.5,1c0,0,0,0,0,0c1.1,0,2.3-0.2,3.7-0.6
				c3-0.9,5.4-2.6,6.6-4.9c0.4-0.6,0.6-1.3,0.8-2c0.5,0.8,1.2,1.3,2.1,1.6c1.5,0.5,3.1,0.8,4.7,0.8c0.1,0,0.1,0,0.2,0
				c1.1,0,2.1-0.1,2.9-0.4c2.5-0.6,4.7-2,6.1-3.9c1-1.4,1.6-3.1,1.6-4.9c0-0.9-0.1-1.8-0.4-2.7c-0.2-0.6-0.4-1.4-0.9-2.1
				c0.2,0.1,0.5,0.1,0.7,0.1c0.3,1.5,0.6,2.9,1,4.4l0.5,2.2c0.4,2,2.1,3.5,4.3,3.5c0.3,0,0.7,0,1-0.1c0.9-0.2,1.8-0.4,2.6-0.5
				l0.9-0.2c0.5-0.1,0.9-0.3,1.3-0.5l0.2-0.1c1-0.6,1.6-1.6,1.8-2.7l0-0.2c0.1-0.5,0.1-1,0-1.6l-1-4.4c-0.2-0.8-0.3-1.5-0.5-2.3
				c0.1-0.1,0.2-0.1,0.3-0.2l0.2-0.1c0.2-0.1,0.4-0.3,0.5-0.4c0.4,2.4,0.9,4.9,1.3,7.3c0.3,1.9,1.9,3.3,3.8,3.5c0.2,0,0.4,0,0.6,0
				c0.2,0,0.5,0,0.7-0.1l1.1-0.2c0.9-0.2,1.7-0.3,2.6-0.5c0.5-0.1,1-0.3,1.4-0.5l0.2-0.1c0.8-0.5,1.3-1.2,1.6-2
				c0.5,0.7,1.2,1.1,2.1,1.4l0.2,0.1c0.3,0.1,0.7,0.1,1.1,0.1c0.2,0,0.4,0,0.5,0c0.8-0.1,1.6-0.2,2.4-0.3l1.3-0.2
				c0.4-0.1,0.8-0.2,1.2-0.3l0.2-0.1c0.8-0.4,1.4-1,1.8-1.7c0,0,0,0,0.1,0.1c0.4,0.4,0.9,0.7,1.5,0.9l0.2,0.1
				c0.6,0.2,1.2,0.3,1.8,0.2l1.7-0.2c0.7-0.1,1.4-0.2,2-0.2c0.6-0.1,1.2-0.3,1.7-0.6l0.2-0.1c0.8-0.5,1.4-1.3,1.7-2.3l0.1-0.2
				c0.2-0.5,0.2-1.1,0.1-1.6c-0.2-1.6-0.4-3.1-0.6-4.7c0.3,0.3,0.6,0.5,1,0.6l0.2,0.1c0.5,0.2,1.1,0.3,1.6,0.3c0.1,0,0.2,0,0.4,0
				c0.7-0.1,1.4-0.1,2.1-0.2c0.7,0,1.5-0.3,2.1-0.7l0.3-0.2c0.6-0.4,1-1,1.3-1.6l2-4.4c0,0.1,0,0.1,0,0.2l0,0.1
				c0.1,1.8,0.6,3.1,1.3,4.1c-0.3,0.7-0.6,1.3-1,2l-0.1,0.2c-0.5,1-0.5,2.1-0.2,3.1l0.1,0.4c0.3,0.9,0.9,1.6,1.7,2.1
				c2.1,1.3,4.5,2,7.1,2l0.5,0c2.7-0.1,5.1-1.1,6.8-2.7c1.2-1.2,2.7-3.3,2.7-6.8l0-0.4c0-1.1-0.4-3.3-2.1-5.1
				c0.2-0.5,0.4-0.9,0.7-1.4c0-0.1,0.1-0.1,0.1-0.2c0.8-2,0.1-4.3-1.9-5.4c-0.1,0-0.1-0.1-0.2-0.1c-1.8-0.9-4-1.4-6.2-1.4
				c-0.1,0-0.2,0-0.2,0l-0.3,0c-3.4,0.1-6.2,1.8-7.7,4.4c-0.3-1.3-1.1-2.3-2.3-2.8l-0.3-0.1c-0.6-0.3-1.3-0.4-2-0.3
				c-0.7,0.1-1.5,0.1-2.2,0.2l-1,0.1c-0.8,0.1-1.6,0.4-2.2,0.9l-0.3,0.2c-0.6,0.5-1.1,1.2-1.3,2l-0.1,0.4c-0.4,1.5-0.9,2.9-1.3,4.4
				c-0.1-1.1-0.3-2.1-0.4-3.2c-0.1-0.5-0.3-1.1-0.5-1.5l-0.1-0.2c-0.6-0.9-1.4-1.6-2.5-1.8l-0.2-0.1c-0.5-0.1-1-0.1-1.5-0.1
				c-0.6,0.1-1.3,0.2-1.9,0.2c-0.6,0.1-1.2,0.1-1.8,0.2c-1.1,0.1-2.2,0.7-2.9,1.6c-0.1,0.2-0.3,0.4-0.4,0.5c0,0-0.1-0.1-0.1-0.1
				c-0.3-0.3-0.7-0.6-1.2-0.8l-0.2-0.1c-0.7-0.3-1.4-0.4-2.1-0.3l-3.7,0.5c-1.9,0.2-3.3,1.6-3.7,3.3c-0.9-1.5-2.7-2.4-4.5-2
				c-0.8,0.1-1.5,0.3-2.3,0.4l-1.4,0.2c0,0-0.1,0-0.1,0c-1.3,0.3-2.4,1.1-3,2.3c-1-0.9-2.4-1.4-3.8-1.1l-1.2,0.3
				c-2.8,0.6-5.7,1.2-8.5,1.8c0,0-0.1,0-0.1,0c-1,0.2-1.9,0.8-2.5,1.7c-0.3,0.4-0.5,0.8-0.6,1.2c-0.3-0.2-0.6-0.3-0.9-0.5
				c-0.1-0.1-0.3-0.1-0.4-0.1c-1.3-0.3-2.5-0.4-3.5-0.4c-1.1,0-2.2,0.1-3.2,0.4c-3.9,1-6.6,3.9-7,7.5c-0.1-0.3-0.2-0.7-0.3-1
				c-0.1-0.4-0.4-0.9-0.6-1.2l-0.1-0.2c-0.7-0.9-1.7-1.4-2.8-1.5l-0.2,0c-0.5,0-1,0-1.5,0.1c-0.8,0.2-1.5,0.5-2.3,0.7l-1.3,0.4
				c-0.2,0.1-0.4,0.1-0.6,0.3c-0.6,0.3-1.2,0.8-1.6,1.3c-0.8-0.3-1.8-0.3-2.7-0.1l-3.5,1.1c-1.1,0.3-2,1.1-2.6,2.1
				c-0.6,1-0.7,2.3-0.3,3.4c0.5,1.6,1,3.2,1.5,4.8l0.7,2.2c-2.1-2.4-4.3-4.9-6.4-7.3c-0.6-0.6-1.3-1.1-2.2-1.3l-0.3-0.1
				c-0.7-0.2-1.5-0.1-2.1,0.1c-1.3,0.4-2.6,0.9-3.9,1.4c-0.8,0.3-1.5,0.8-2,1.5l-0.2,0.3c-0.4,0.6-0.7,1.4-0.7,2.2
				c-0.1,5-0.2,10.1-0.3,15.1c0,0.7,0.2,1.5,0.6,2.1l0.1,0.2c0.5,0.8,1.2,1.4,2.1,1.7l0.2,0.1c0.4,0.1,0.9,0.2,1.3,0.2
				c0.2,0,0.3,0,0.5,0l0.1,0c0.3,0,0.6-0.1,0.9-0.2c0.7-0.2,1.3-0.5,2-0.7l1.7-0.6c0.7-0.3,1.3-0.7,1.7-1.3l0.2-0.3
				c0.3-0.4,0.6-0.9,0.7-1.4c0.4,0.3,0.9,0.5,1.4,0.6l0.4,0.1c0.7,0.2,1.5,0.1,2.2-0.1l1.5-0.5c0.8-0.3,1.5-0.5,2.3-0.8
				c0.6-0.2,1.1-0.5,1.5-1l0.2-0.2c0.7-0.7,1.1-1.7,1.1-2.7C226.7,159.4,226.9,159.5,227.1,159.6z M242.6,147.4c0,0.1,0,0.1,0,0.2
				c0-0.1-0.1-0.2-0.1-0.4C242.5,147.3,242.6,147.4,242.6,147.4z"/>
			<path class="st5" d="M465,161.5c0.8,0.2,1.5,0.5,2.3,0.7c0.1,0,0.2,0.1,0.4,0.1l0.1,0c0.3,0.1,0.5,0.1,0.8,0.1
				c0.5,0,0.9-0.1,1.3-0.2l0.2-0.1c0.1,0,0.3-0.1,0.4-0.2c0.5,1,1.4,1.8,2.5,2.2l3,1.1c1.6,0.6,3.1,1.1,4.7,1.7
				c0.1,0,0.4,0.1,0.5,0.1c0.3,0.1,0.6,0.1,0.9,0.1c0.4,0,0.7,0,1.1-0.1l0.1,0c0.6-0.2,1.2-0.5,1.7-0.9l0.2-0.2c0.5-0.4,0.8-1,1-1.6
				c0.3-1,0.7-1.9,1.1-2.8c0.2-0.6,0.3-1.3,0.3-1.9l0-0.2c-0.1-1-0.6-1.9-1.3-2.6l-0.2-0.2c-0.4-0.3-0.8-0.6-1.3-0.8
				c0,0-0.1,0-0.1,0c0.2-0.4,0.3-0.8,0.5-1.3c0.6-1.7,1.2-3.3,1.9-5c0.2-0.4,0.2-0.9,0.2-1.4V148c0-1.3-0.6-2.4-1.6-3.2l-0.2-0.1
				c-0.3-0.2-0.7-0.4-1-0.6c-1.2-0.4-2.3-0.8-3.5-1.3c-1.1-0.4-2.2-0.3-3.3,0.1c-1.1,0.5-1.9,1.4-2.3,2.4l-0.1,0.4
				c-0.8,2.3-1.7,4.5-2.5,6.8c-0.2-3.2-0.4-6.5-0.6-9.7c0-0.8-0.3-1.6-0.8-2.2l-0.2-0.3c-0.5-0.6-1.2-1.1-2-1.4l-3.9-1.2
				c-0.7-0.2-1.5-0.2-2.3,0l-0.3,0.1c-0.8,0.2-1.5,0.7-2,1.3l-3.6,4.4c-1,1.2-1.9,2.3-2.9,3.5c0.5-1.9,1-3.8,1.5-5.8l0.5-1.7
				c0.1-0.6,0.2-1.2,0.1-1.7l0-0.2c-0.2-1-0.7-1.8-1.5-2.4l-0.2-0.1c-0.4-0.3-1-0.6-1.5-0.7l-3.6-0.9c-1.1-0.3-2.3-0.1-3.2,0.4
				c-0.2,0.1-0.4,0.2-0.6,0.4c0,0,0-0.1,0-0.1c-0.5-1.1-1.4-1.9-2.6-2.2l-0.7-0.2c-1.1-0.3-2.1-0.6-3.2-0.9
				c-1.9-0.5-3.8,0.3-4.8,1.9c0-0.1,0-0.1,0-0.2l0-0.2c-0.2-1.1-0.8-2-1.7-2.6l-0.2-0.1c-0.4-0.3-0.9-0.5-1.4-0.6l-3.6-0.7
				c-1.1-0.2-2.3,0-3.3,0.6c-0.9,0.6-1.6,1.6-1.8,2.7c-0.1,0.4-0.2,0.8-0.3,1.3c-1.3-4.2-4.7-7-9.2-7.7c-0.6-0.1-1.4-0.2-2.1-0.2
				c-0.1,0-0.1,0-0.2,0c-3.9,0-7.1,1.7-9.3,4.5c0-0.4,0.1-0.8,0.1-1.2c0.1-0.5,0-1-0.1-1.5l-0.1-0.2c-0.3-1.1-1.1-2.1-2.1-2.6
				l-0.2-0.1c-0.4-0.2-0.8-0.3-1.3-0.4c-0.6-0.1-1.3-0.2-1.9-0.2l-1.8-0.2c-0.1,0-0.1,0-0.2,0c-2.3-0.2-4.3,1.4-4.6,3.8
				c0,0.2-0.1,0.5-0.1,0.7c-1.1-3.2-4.1-5.4-8.2-5.7l-2.4-0.2c-1.1-0.1-2.2-0.2-3.3-0.3c-2.4-0.2-4.4,1.6-4.6,3.9l-0.1,1.7
				c-1.9-3.9-6-6.7-10.9-6.8c0,0-0.1,0-0.1,0h-0.4c-6.6,0.1-11.9,4.9-12.2,11.1l0,0.3c0,0.1,0,0.2,0,0.4c0.1,6.8,5.1,11.8,12,11.9
				c0,0,0,0,0,0l0.4,0c4.3,0,8-2.1,10.1-5.3l-0.1,0.8c-0.2,2.2,1.3,4.1,3.5,4.6c0.1,0,0.3,0.1,0.4,0.1c1.3,0.1,2.5,0.2,3.8,0.3
				c0.6,0,1.1,0,1.6-0.2l0.2-0.1c0.5,0.3,1.1,0.5,1.7,0.6l1.2,0.1c1.2,0.1,2.3,0.2,3.5,0.3c0.1,0,0.2,0,0.4,0c0.1,0,0.1,0,0.2,0
				c0.9,0,1.7-0.4,2.4-0.9c0.6,0.7,1.4,1.3,2.4,1.5c0.1,0,0.3,0.1,0.4,0.1l3.5,0.4c0.2,0,0.5,0.1,0.7,0.1c0.4,0,0.9-0.1,1.3-0.2
				l0.2-0.1c0.9-0.3,1.7-0.9,2.2-1.7l0.1-0.2c0.3-0.5,0.5-1,0.5-1.6c0-0.2,0-0.3,0.1-0.5c1.6,3.5,4.9,6.1,9.2,6.7c0,0,0.1,0,0.1,0
				l0.3,0c0.4,0.1,0.9,0.1,1.5,0.1c0.1,0,0.3,0,0.4,0c3,0,5.7-1.1,7.7-3.2c0.2-0.2,0.4-0.4,0.5-0.6l-0.1,0.5
				c-0.4,2.1,0.8,4.2,2.9,4.9c0.2,0.1,0.3,0.1,0.5,0.1c0.8,0.2,1.5,0.3,2.3,0.5l1.4,0.3c0.1,0,0.3,0.1,0.5,0.1c0.1,0,0.3,0,0.4,0
				c0.2,0,0.5,0,0.7-0.1l0.2,0c0.9-0.2,1.7-0.7,2.3-1.4c0.4,1.1,1.2,2.1,2.4,2.6c0.2,0.1,0.4,0.2,0.7,0.2l3.7,0.9
				c0.5,0.1,1,0.1,1.5,0.1l0.2,0c0.7-0.1,1.4-0.4,2-0.9l0,0.1c0.5,1.1,1.4,1.9,2.6,2.2c0.6,0.2,1.2,0.3,1.8,0.5
				c0.7,0.2,1.3,0.4,2,0.6c0.4,0.1,0.8,0.2,1.2,0.2c0.4,0,0.7,0,1-0.1l0.2,0c0.3-0.1,0.7-0.2,1-0.4c0.1,0.2,0.3,0.4,0.4,0.6l0.2,0.2
				c0.5,0.6,1.2,1,1.9,1.2c1.1,0.3,2.2,0.7,3.3,1l0.5,0.1c0.8,0.2,1.6,0.2,2.4,0l0.3-0.1c0.4-0.1,0.8-0.4,1.2-0.6
				c0.1,0.4,0.3,0.8,0.6,1.2l0.2,0.3c0.5,0.7,1.2,1.2,2,1.4L465,161.5z M378.2,131.5v0.2c0,0,0,0,0,0
				C378.2,131.7,378.2,131.6,378.2,131.5z M387.8,135.4c0,0.3-0.1,0.7-0.1,1c-0.1-0.1-0.2-0.3-0.3-0.4
				C387.5,135.8,387.7,135.6,387.8,135.4z"/>
			<path class="st5" d="M199.1,294.4c-4.2,0-8.3,0.1-12.4,0.2c-1.6,0-3.1,1-3.7,2.5c-2.3,5.7-4.5,11.5-6.8,17.2
				c-2-4.7-3.9-9.4-5.9-14.1l-1.2-2.9c-0.6-1.5-2.1-2.5-3.7-2.5c-3,0-6.1,0.1-9.1,0.1l-3.4,0c-1.3,0-2.6,0.7-3.3,1.8
				s-0.8,2.6-0.3,3.8l4.6,10.3c4.8,10.9,9.7,21.7,14.5,32.6c0.6,1.4,2.1,2.4,3.7,2.4c0,0,0,0,0,0c2,0,4,0,6-0.1l2.8,0
				c1.6,0,3-1,3.6-2.5c3.9-9.3,7.8-18.7,11.8-28l6.5-15.5c0.5-1.2,0.4-2.7-0.4-3.8C201.7,295,200.4,294.4,199.1,294.4z"/>
			<path class="st5" d="M261.8,292.1c-0.1,0-0.2,0-0.3,0c-7.9,0.1-15.5,3.2-20.8,8.7c-4.7,4.8-7.3,11.2-7.2,17.8
				c0.1,7.8,3,14.9,8.3,20c5.1,4.9,12.2,7.6,20,7.6c0.1,0,0.2,0,0.3,0c7.9-0.1,15.1-2.9,20.2-8c5.2-5.1,8-12.3,7.9-20.1
				c-0.1-6.7-2.7-13-7.6-17.7C277.2,295.2,269.6,292.1,261.8,292.1z M261.8,327.4c-4.8,0-8.4-3.8-8.4-8.8c0-1.7,0.8-3.5,2.1-4.9
				c1.6-1.7,3.9-2.6,6.2-2.6c0,0,0.1,0,0.1,0c2.2,0,4.3,0.8,6,2.3c1.5,1.4,2.4,3.2,2.4,5C270.3,323.4,266.7,327.3,261.8,327.4
				C261.8,327.4,261.8,327.4,261.8,327.4z"/>
			<path class="st5" d="M344.6,292.9c-0.1,0-0.1,0-0.2,0c-3.9,0-7.9,0-11.8,0.1l-4.4,0c-1.1,0-2.1,0.4-2.8,1.2
				c-0.7,0.8-1.2,1.8-1.2,2.8c0.1,10.7,0.1,21.4,0.2,32.1l0.1,11.2c0,2.2,1.8,4,4,4c0,0,0,0,0,0l16.2-0.1
				c14.5-0.1,26.3-11.6,26.2-25.7c0,0,0,0,0,0C370.8,304.3,359,292.9,344.6,292.9z M351,318.5c0,5.9-3.6,7.7-7.2,8.1
				c0-5.4-0.1-10.7-0.1-16.1c2.2,0.2,3.9,0.9,5.2,2.1C350.3,314,351,315.9,351,318.5z"/>
			<path class="st5" d="M444.4,322.1l-4.3-5.1c2.8-3.3,5.6-6.5,8.4-9.8l6.9-8.1c1-1.2,1.2-2.9,0.6-4.3c-0.7-1.4-2.1-2.3-3.6-2.3
				c0,0,0,0,0,0c-4.7,0-9.4,0-14.2,0c-1.2,0-2.4,0.6-3.2,1.5c-2.3,2.9-4.5,5.8-6.8,8.8c0-0.3,0-0.6,0-0.9l0-5.4c0-2.2-1.8-4-4-4
				c-2.9,0-5.9,0-8.8,0l-2.6,0c-2.2,0-4,1.8-4,4c0,14.4,0,28.8,0.1,43.2c0,2.2,1.8,4,4,4c0,0,0,0,0,0l11.4,0c1.1,0,2.1-0.4,2.8-1.2
				c0.7-0.8,1.2-1.8,1.2-2.8c0-2.4,0-4.9,0-7.3c1.5,1.9,2.9,3.7,4.4,5.6l3.3,4.2c0.8,1,1.9,1.5,3.1,1.5c0,0,0,0,0,0
				c4.9,0,9.9,0,14.8,0c0,0,0,0,0,0c1.6,0,3-0.9,3.6-2.3c0.7-1.4,0.4-3.1-0.6-4.3C452.8,332.1,448.6,327.1,444.4,322.1z"/>
			<path class="st5" d="M529.4,295.5c-0.6-1.5-2.1-2.6-3.7-2.6l-5.8,0c-2.2,0-4.4,0-6.6,0c0,0,0,0,0,0c-1.6,0-3.1,1-3.7,2.5
				c-5.7,14.4-11.4,28.8-17,43.2c-0.5,1.2-0.3,2.6,0.4,3.7c0.7,1.1,2,1.7,3.3,1.7l12.1,0c0,0,0,0,0,0c1.6,0,3.1-1,3.7-2.5l0.4-0.9
				c0.6-1.4,1.1-2.7,1.7-4.1c3,0,6.1,0,9.1,0l1.2,0c0.6,1.6,1.2,3.3,1.9,4.9c0.6,1.6,2.1,2.6,3.7,2.6l12.2,0c0,0,0,0,0,0
				c1.3,0,2.5-0.6,3.3-1.7c0.8-1.1,0.9-2.5,0.5-3.7C540.3,324.3,534.9,309.9,529.4,295.5z"/>
			<path class="st5" d="M585.4,180.4c-5.1,0-9.4,3.3-10.9,7.9c-0.2-0.4-0.4-0.7-0.7-1c-0.7-0.8-1.8-1.2-2.8-1.2l-20.1-0.1
				c0,0,0,0,0,0c-1.2,0-2.2,0.5-3,1.3c-0.7-0.8-1.8-1.3-3-1.3c-7.9,0-15.8-0.1-23.7-0.1c0,0,0,0,0,0c-1.1,0-2.1,0.4-2.8,1.2
				c-0.8,0.8-1.2,1.8-1.2,2.8c0,3.6,0,7.2,0,10.9c0,1.1,0.4,2.1,1.2,2.8c0.8,0.8,1.8,1.2,2.8,1.2c0.6,0,1.2,0,1.9,0l1.8,4.6
				c3.5,9.1,6.9,18.1,10.4,27.2c0,4.4,0,8.8,0,13.2l0,4.9c-0.4,0-0.9,0-1.3,0c-2.2,0-4,1.8-4,4c0,2.6,0,5.2,0,7.8l0,3.1
				c0,2.2,1.8,4,4,4l1.1,0c7.7,0,15.5,0.1,23.3,0.1c0,0,0,0,0,0c1.1,0,2.1-0.4,2.8-1.2c0.8-0.7,1.2-1.8,1.2-2.8l0-11
				c0-2.2-1.8-4-4-4l-1.4,0c0-6,0-12,0.1-18c4-10.5,8-21.1,12-31.6c0.7,0,1.4,0,2,0c1,0,2.1-0.4,2.8-1.2c0.8-0.7,1.2-1.8,1.2-2.8
				l0-3.9c0-0.2,0-0.5,0-0.7c1.8,4,5.8,6.8,10.4,6.8c6.3,0,11.4-5.1,11.4-11.4C596.8,185.5,591.7,180.4,585.4,180.4z M547.9,203.6
				c0.6,0.7,1.5,1.2,2.4,1.3c-0.8,2.3-1.6,4.7-2.5,7c-0.3-0.8-0.6-1.6-0.8-2.4l-1.6-4.7C546.4,204.8,547.3,204.3,547.9,203.6z"/>
		</g>
		<g>
			<path class="st4" d="M142,261.2c-0.6,0-1.3,0-1.9,0c-0.3-19.2-0.6-38.4-0.8-57.6c0.6,0,1.3,0,1.9,0c8-0.1,10.3,6.3,10.6,28.7
				C152,254.8,149.9,261.2,142,261.2 M166.9,232.1c-0.2-13.4-1.9-21.9-5.7-29.1c-4-7.5-10.6-10.5-22.8-10.3c-6,0.1-12,0.2-18,0.3
				c0.1,3.6,0.1,7.3,0.2,10.9c1.6,0,3.2-0.1,4.8-0.1c0.3,19.3,0.6,38.5,0.9,57.8c-1.6,0-3.2,0-4.8,0.1c0.1,3.6,0.1,7.2,0.2,10.9
				c6-0.1,12-0.2,18-0.3c8.4-0.1,13.3-1.4,17.3-4.5C163.9,262.1,167.2,250.7,166.9,232.1"/>
			<path class="st4" d="M183,203c0.3,19.3,0.5,38.5,0.7,57.8c-1.7,0-3.3,0-5,0.1c0,3.6,0.1,7.2,0.1,10.9c13-0.2,26-0.3,39-0.5
				c-0.1-8.7-0.2-17.4-0.3-26.1c-2.9,0-5.7,0.1-8.6,0.1c-0.7,5.1-1.3,10.1-2,15.2c-3.2,0-6.4,0.1-9.5,0.1
				c-0.1-8.1-0.2-16.2-0.3-24.4c3.6,0,7.2-0.1,10.9-0.1c0-3.6-0.1-7.2-0.1-10.7c-3.6,0-7.2,0.1-10.9,0.1c-0.1-7.5-0.2-15-0.3-22.6
				c3.1,0,6.1-0.1,9.2-0.1c0.9,4.7,1.9,9.4,2.8,14.1c2.8,0,5.6-0.1,8.5-0.1c-0.1-8.3-0.2-16.6-0.3-25c-13,0.2-26.1,0.3-39.1,0.5
				c0,3.6,0.1,7.3,0.1,10.9C179.7,203,181.3,203,183,203"/>
			<path class="st4" d="M236.2,202.3c0.2,19.3,0.4,38.5,0.6,57.8c-1.6,0-3.3,0-5,0.1c0.1,3.6,0.1,7.2,0.1,10.9
				c13-0.1,26-0.3,38.9-0.4c-0.1-8.7-0.2-17.4-0.3-26.1c-2.9,0-5.7,0.1-8.6,0.1c-0.7,5.1-1.4,10.1-2,15.2c-3.2,0-6.4,0.1-9.5,0.1
				c-0.1-8.1-0.2-16.2-0.2-24.4c3.6,0,7.2-0.1,10.9-0.1c0-3.6-0.1-7.2-0.1-10.7c-3.6,0-7.2,0.1-10.9,0.1c-0.1-7.5-0.2-15-0.2-22.6
				c3.1,0,6.1-0.1,9.2-0.1c0.9,4.7,1.9,9.4,2.8,14c2.8,0,5.6-0.1,8.5-0.1c-0.1-8.3-0.2-16.6-0.2-25c-13,0.1-26.1,0.3-39.1,0.4
				c0,3.6,0.1,7.2,0.1,10.9C232.9,202.4,234.5,202.4,236.2,202.3"/>
			<path class="st4" d="M314,214.9c0.1,9.6-2.9,14.2-9.1,14.3c-0.6,0-1.1,0-1.7,0c-0.1-9.1-0.1-18.3-0.2-27.5c0.8,0,1.6,0,2.4,0
				C310.6,201.6,314,206.6,314,214.9 M284.3,191c0,3.6,0.1,7.2,0.1,10.9c1.6,0,3.2,0,4.8,0c0.2,19.3,0.3,38.5,0.5,57.8
				c-1.6,0-3.2,0-4.8,0c0,3.6,0.1,7.2,0.1,10.9c8.4-0.1,16.7-0.1,25.1-0.2c0-3.7-0.1-7.3-0.1-11c-2.2,0-4.3,0-6.5,0
				c-0.1-6.4-0.1-12.9-0.2-19.4c8.6-0.1,11.4-0.7,16.3-4c5.4-3.8,8.7-11.5,8.7-20.6c0-7.9-2.2-14.1-6.5-18.6c-4.1-4.3-9.2-6-17.3-6
				C297.7,190.9,291,190.9,284.3,191"/>
			<path class="st4" d="M362,201.1c0.1,19.3,0.1,38.5,0.2,57.8c-1.6,0-3.3,0-4.9,0l0.1,10.7c12.3,0.1,11.9,0.1,11.9,0.1
				c9,0,18-0.1,27-0.1c0-8.7,0-17.4-0.1-26.1c-2.9,0-5.7,0-8.6,0c-0.7,5.1-1.4,10.1-2.1,15.2c-3.2,0-6.4,0-9.5,0
				c0-8.1-0.1-16.2-0.1-24.4c3.6,0,7.2,0,10.9,0c0-3.6,0-7.1,0-10.7c-3.6,0-7.3,0-10.9,0c0-7.5-0.1-15-0.1-22.6c3.1,0,6.1,0,9.2,0
				c0.9,4.7,1.8,9.4,2.7,14.1c2.8,0,5.6,0,8.5,0c0-8.3,0-16.6-0.1-25c-13,0-26.1,0.1-39.1,0.1c0,3.6,0,7.3,0,10.9
				C358.7,201.1,360.3,201.1,362,201.1"/>
			<path class="st4" d="M430.8,200.9c8,0,10.2,6.4,10.2,28.9c0,22.6-2.2,28.9-10.1,28.8c-0.6,0-1.3,0-1.9,0c0-19.2,0-38.4-0.1-57.7
				C429.5,200.9,430.2,200.9,430.8,200.9 M410.2,201c1.6,0,3.2,0,4.8,0c0,19.3,0.1,38.5,0.1,57.8c-1.6,0-3.2,0-4.8,0
				c0,3.6,0,7.2,0,10.9c6,0,12,0,18,0c8.4,0,13.3-1.2,17.4-4.3c7.1-5.5,10.5-16.8,10.5-35.4c0-13.4-1.6-22-5.3-29.1
				c-3.9-7.5-10.4-10.6-22.6-10.6c-6,0-12,0-18,0C410.2,193.7,410.2,197.3,410.2,201"/>
			<path class="st4" d="M486.3,200.9h1.9c8,0,10.1,6.5,10.1,28.9c0,22.6-2.2,28.9-10.2,28.8c-0.6,0-1.3,0-1.9,0
				C486.3,239.4,486.3,220.2,486.3,200.9 M503,265.3c7.1-5.5,10.5-16.8,10.6-35.4c0-13.4-1.5-22-5.3-29.2
				c-3.8-7.5-10.4-10.7-22.6-10.7c-6,0-12,0-18,0c0,3.6,0,7.3,0,10.9c1.6,0,3.2,0,4.8,0c0,19.3,0,38.5,0,57.8c-1.6,0-3.2,0-4.8,0
				c0,3.6,0,7.2,0,10.9c6,0,12,0,18,0C494.1,269.6,498.9,268.4,503,265.3"/>
			<path class="st4" d="M553.2,236.1c4.4-11.6,8.8-23.3,13.2-34.9c1.6,0,3.2,0,4.8,0c0-3.6,0-7.3,0.1-10.9c-6.7,0-13.4-0.1-20.1-0.1
				c0,3.6,0,7.2,0,10.9c1.7,0,3.4,0,5.1,0c-2.7,7.7-5.4,15.3-8.1,23c-2.7-7.7-5.4-15.4-8.1-23.1c1.7,0,3.5,0,5.2,0
				c0-3.6,0-7.2,0-10.9c-7.9,0-15.8-0.1-23.7-0.1c0,3.6,0,7.3,0,10.9c1.5,0,3.1,0,4.6,0c4.5,11.7,8.9,23.3,13.4,35
				c0,7.6-0.1,15.2-0.1,22.8c-1.8,0-3.5,0-5.3,0c0,3.6,0,7.2,0,10.8c8.1,0,16.2,0.1,24.3,0.1c0-3.7,0-7.3,0-11c-1.8,0-3.6,0-5.4,0
				C553.1,251.2,553.1,243.7,553.2,236.1"/>
			<g>
				<path class="st6" d="M214.6,156.3c-0.7,0.3-1.4,0.5-2.1,0.8c0-1.1,0-2.3-0.1-3.5C213.1,154.5,213.8,155.4,214.6,156.3
					 M208.4,164.7l0.1,0c1.2-0.5,2.5-0.9,3.7-1.4l0.2-0.3c0-0.8,0-1.6,0.1-2.4c1.5-0.5,3-1.1,4.4-1.6c0.5,0.6,1.1,1.2,1.6,1.8
					l0.4,0.1c1.2-0.4,2.5-0.9,3.8-1.3l0.2-0.2l-0.1-0.3c-3.4-3.8-6.7-7.6-10.1-11.4l-0.3-0.1c-1.3,0.4-2.6,0.9-3.8,1.4l-0.2,0.3
					c-0.1,5-0.2,10.1-0.3,15.1l0.1,0.2L208.4,164.7"/>
				<path class="st6" d="M229.2,156.2c0.8,0.4,1.7,0.5,2.7,0.5c0.9,0,1.8-0.2,2.6-0.4c1.7-0.5,3.4-1.5,4.3-3
					c0.5-0.8,0.6-1.6,0.6-2.4c0-1.1-0.3-2.1-0.6-3.1c-0.8-2.5-1.6-5.1-2.4-7.6l-0.1-0.2l-0.2,0c-1.2,0.4-2.4,0.7-3.6,1.1
					c-0.2,0.1-0.3,0.3-0.2,0.4c0.7,2.4,1.5,4.7,2.2,7.1c0.2,0.7,0.4,1.5,0.4,2.1c0,0.9-0.3,1.5-1.5,1.9c-0.3,0.1-0.6,0.1-0.8,0.1
					c-1.4,0-1.9-1.3-2.4-2.8c-0.7-2.4-1.5-4.7-2.2-7.1c0-0.2-0.2-0.3-0.4-0.2c-1.2,0.4-2.4,0.7-3.6,1.1c-0.2,0-0.3,0.2-0.2,0.4
					c0.8,2.5,1.6,5.1,2.4,7.6C226.6,153.4,227.2,155.3,229.2,156.2"/>
				<path class="st6" d="M249.7,145.8c0.9,0,2.2,0.1,2.3,0.8l0,0.3c0,0.6-0.5,1-1.2,1.2c-0.3,0.1-0.5,0.1-0.8,0.1
					c-0.9,0-1.7-0.3-2.5-0.7h-0.3l-0.2,0.2c-0.3,1.1-0.5,2.2-0.8,3.2l0.2,0.4c1.1,0.4,2.3,0.6,3.4,0.6c0.7,0,1.4-0.1,2.1-0.3
					c1.5-0.4,2.9-1.2,3.8-2.4c0.6-0.8,0.8-1.7,0.8-2.6c0-0.6-0.1-1.2-0.2-1.7c-0.6-2.4-2.6-3-4.7-3.1c-0.3,0-0.7,0-1,0
					c-0.7,0-1.6-0.2-1.7-0.7l0-0.2c0-0.4,0.5-0.9,1.1-1c0.3,0,0.5-0.1,0.8-0.1c0.6,0,1.2,0.2,1.7,0.4h0.3l0.2-0.2
					c0.2-1.1,0.5-2.1,0.7-3.1c0-0.2-0.1-0.3-0.2-0.4c-0.8-0.2-1.7-0.3-2.5-0.3c-0.8,0-1.6,0.1-2.3,0.3c-2.5,0.6-4,2.5-4,4.8
					c0,0.4,0.1,0.9,0.2,1.4C245.3,145.4,247.2,145.7,249.7,145.8"/>
				<path class="st6" d="M260.3,137.8c0.9-0.2,1.8-0.4,2.7-0.6c0.8,3.5,1.5,7,2.3,10.5c0,0.1,0.2,0.3,0.3,0.3l0,0
					c1.2-0.2,2.5-0.5,3.7-0.8l0.2-0.1l0-0.2c-0.8-3.5-1.5-7-2.3-10.5c0.9-0.2,1.8-0.4,2.7-0.6l0.2-0.1l0.1-0.2c-0.2-1-0.5-2-0.7-3
					c0-0.2-0.2-0.3-0.4-0.2c-3.3,0.7-6.5,1.4-9.8,2c-0.2,0-0.3,0.2-0.2,0.4c0.2,1,0.4,2,0.7,3.1C260,137.8,260.1,137.9,260.3,137.8"
					/>
				<path class="st6" d="M278.7,145.4L278.7,145.4c1.3-0.2,2.5-0.4,3.7-0.6l0.2-0.1l0.1-0.2c-0.8-4.7-1.7-9.3-2.5-13.9
					c-0.1-0.1-0.2-0.3-0.4-0.2c-1.2,0.2-2.5,0.4-3.7,0.6c-0.2,0-0.3,0.2-0.3,0.3c0.8,4.6,1.7,9.3,2.5,13.9
					C278.4,145.4,278.5,145.4,278.7,145.4"/>
				<path class="st6" d="M289.5,143.6l0.2,0.1h0c1.3-0.2,2.5-0.3,3.7-0.5l0.2-0.1l0.1-0.2c-0.4-2.6-0.7-5.2-1.1-7.9
					c2.5,2.4,4.9,4.8,7.4,7.2l0.2,0.1c1.3-0.1,2.5-0.3,3.7-0.5l0.2-0.1l0.1-0.2c-0.6-4.7-1.3-9.3-1.9-14l-0.1-0.2l-0.2-0.1
					c-1.2,0.2-2.5,0.3-3.7,0.5c-0.2,0-0.3,0.2-0.3,0.3c0.3,2.6,0.7,5.2,1,7.7c-2.4-2.4-4.9-4.7-7.4-7.1l-0.2-0.1
					c-1.2,0.2-2.5,0.3-3.7,0.5c-0.2,0-0.3,0.1-0.3,0.3c0.6,4.7,1.3,9.3,1.9,14L289.5,143.6z"/>
				<path class="st6" d="M310.4,133.2L310.4,133.2c0.7-0.1,1.5-0.1,2.2-0.2l0.3-0.2c1-2.2,2-4.3,3-6.5l0-0.3l-0.3-0.1
					c-1.1,0.1-2.1,0.2-3.2,0.3l-0.3,0.2c-0.6,2.1-1.3,4.3-1.9,6.4l0,0.3L310.4,133.2z"/>
				<path class="st6" d="M327.6,136.6l-0.2,0c-1.1,0-2.1-0.5-3-1.2l-0.3-0.1l-0.2,0.2c-0.5,1-1,2-1.5,3l0.1,0.4
					c1.5,0.9,3.2,1.4,5,1.4l0.4,0c1.5-0.1,3.1-0.5,4.2-1.6c1.1-1,1.4-2.4,1.4-3.8l0-0.3c-0.1-2.4-1.9-3.5-4-4
					c-0.3-0.1-0.6-0.2-1-0.2c-0.7-0.2-1.5-0.5-1.5-1l-0.2,0l0.2,0c0-0.5,0.6-0.9,1.2-0.9h0.2c0.8,0,1.6,0.3,2.2,0.8l0.3,0l0.2-0.2
					c0.5-1,0.9-1.9,1.4-2.9c0.1-0.2,0-0.3-0.2-0.4c-1.3-0.6-3-1-4.4-1l-0.3,0c-3,0.1-5.1,2.2-5.1,5l0,0.3c0.1,2.9,2,3.5,4.3,4.1
					c0.9,0.2,2.2,0.5,2.1,1.2v0C329,136.2,328.3,136.6,327.6,136.6"/>
				<path class="st6" d="M355.5,131.9c0-1.7,1.7-3.3,3.7-3.3h0.1c2,0.1,3.7,1.7,3.7,3.4v0.1c-0.1,2.2-1.7,3.7-3.8,3.8h-0.1
					c-2-0.1-3.6-1.7-3.6-3.9L355.5,131.9h-0.3H355.5z M359,140.1l0.4,0h0c4.6,0,8-3.2,8.2-7.8l-0.3,0l0.3,0V132c0-4.3-3.9-7.4-8-7.6
					h-0.3c-4.2,0-8.1,3-8.2,7.3l0,0.3C351,136.7,354.3,140,359,140.1"/>
				<path class="st6" d="M378.7,129.4L378.7,129.4c1.2,0.1,2.2,0.3,2.2,1.5v0.2c-0.1,1.1-0.8,1.3-1.8,1.3c-0.2,0-0.4,0-0.6,0l-0.1,0
					C378.5,131.3,378.6,130.3,378.7,129.4 M373.7,140.3c1.2,0.1,2.5,0.2,3.7,0.3l0.2-0.1l0.1-0.2c0.1-1.5,0.3-2.9,0.4-4.4
					c0.9,1.6,1.7,3.2,2.6,4.8l0.2,0.2c1.5,0.1,3.1,0.3,4.7,0.4h0c0.1,0,0.2-0.1,0.3-0.2l0-0.3c-1.3-1.9-2.5-3.8-3.8-5.7
					c1.9-0.4,3.1-2.1,3.3-3.9c0-0.2,0-0.4,0-0.5c0-2.8-2.2-4.3-4.9-4.5c-1.9-0.1-3.7-0.3-5.6-0.4c-0.2,0-0.3,0.1-0.3,0.3
					c-0.4,4.7-0.8,9.4-1.2,14.1C373.4,140.1,373.5,140.3,373.7,140.3"/>
				<path class="st6" d="M395.3,142.4L395.3,142.4l0.2-0.1l0.1-0.2c0.6-4.7,1.1-9.3,1.7-14l-0.1-0.2l-0.2-0.1
					c-1.2-0.2-2.5-0.3-3.7-0.4c-0.2,0-0.3,0.1-0.3,0.3c-0.6,4.7-1.1,9.3-1.7,14c0,0.2,0.1,0.3,0.3,0.3
					C392.9,142.1,394.1,142.2,395.3,142.4"/>
				<path class="st6" d="M409.5,144.8c0.5,0.1,1.1,0.2,1.5,0.1c1.9,0,3.7-0.6,5.1-2c1.6-1.6,2.1-3.4,2.5-5.4l-0.1-0.2l-0.2-0.1
					c-2.4-0.4-4.9-0.8-7.4-1.2c-0.2,0-0.3,0.1-0.4,0.2c-0.2,1-0.3,1.9-0.5,2.9c0,0.2,0.1,0.3,0.3,0.3c0.9,0.1,1.8,0.3,2.7,0.4
					c-0.4,1-1.2,1.4-2.3,1.5c-0.2,0-0.4,0-0.6-0.1c-1.9-0.3-2.8-1.9-2.8-3.8c0-0.3,0-0.6,0.1-0.8c0.3-1.8,1.6-3.6,3.5-3.6
					c0.2,0,0.3,0,0.6,0c1.4,0.2,2.2,1.1,2.5,2.5l0.1,0.2l0.2,0c1.3-0.3,2.5-0.6,3.8-0.9l0.2-0.1l0-0.2c-0.8-2.9-3-4.7-6-5.1
					c-0.6-0.1-1.2-0.2-1.7-0.1c-4,0-7,2.5-7.7,6.7c-0.1,0.5-0.2,1-0.1,1.5C402.7,141.2,405.4,144.2,409.5,144.8"/>
				<path class="st6" d="M427.2,147.6L427.2,147.6l0.3,0l0.1-0.2c1-4.6,1.9-9.2,2.9-13.8l0-0.2l-0.2-0.1c-1.2-0.2-2.4-0.5-3.7-0.7
					c-0.2,0-0.3,0.1-0.3,0.2c-1,4.6-2,9.2-2.9,13.8c0,0.2,0.1,0.3,0.2,0.3C424.7,147.1,425.9,147.3,427.2,147.6"/>
				<path class="st6" d="M434.5,149.1c1.2,0.3,2.4,0.6,3.7,0.9l0.2,0l0.2-0.2c0.6-2.5,1.3-5,1.9-7.6c1.4,3.1,2.8,6.2,4.1,9.3
					c1.3,0.4,2.6,0.7,3.8,1.1h0.1l0.2,0l0.1-0.2c1.2-4.6,2.4-9.1,3.5-13.7l0-0.2l-0.2-0.1c-1.2-0.3-2.4-0.6-3.6-0.9
					c-0.2-0.1-0.3,0-0.4,0.2c-0.7,2.5-1.3,5-2,7.5c-1.4-3.1-2.8-6.2-4.1-9.2c-1.3-0.3-2.6-0.7-3.8-1.1c-0.2-0.1-0.4,0.1-0.4,0.2
					c-1.2,4.5-2.3,9.1-3.5,13.6C434.2,148.9,434.3,149,434.5,149.1"/>
				<path class="st6" d="M464.3,147.6c0,1.1,0,2.3,0.1,3.5c-0.7-0.2-1.4-0.4-2.1-0.7C463,149.5,463.6,148.6,464.3,147.6
					 M458.1,155.3l0.3-0.1c0.5-0.6,1-1.3,1.6-1.9c1.5,0.4,3,0.9,4.5,1.4c0,0.8,0.1,1.6,0.1,2.4l0.2,0.3c1.3,0.4,2.5,0.8,3.8,1.1
					l0.1,0l0.2-0.1l0.1-0.3c-0.3-5-0.6-10-0.9-15l-0.2-0.3c-1.3-0.4-2.6-0.8-3.9-1.2l-0.3,0.1c-3.2,4-6.4,7.9-9.6,11.8l0,0.3
					l0.2,0.2C455.6,154.5,456.9,154.9,458.1,155.3"/>
				<path class="st6" d="M482.3,163.3L482.3,163.3l0.2,0l0.2-0.2c0.4-1,0.7-1.9,1.1-2.9l0-0.2l-0.2-0.2c-1.3-0.5-2.6-0.9-3.9-1.4
					c1.2-3.4,2.5-6.7,3.7-10.1v-0.2l-0.2-0.1c-1.2-0.4-2.3-0.8-3.5-1.3c-0.2-0.1-0.3,0-0.4,0.2c-1.6,4.4-3.3,8.8-4.9,13.2
					c0,0.2,0,0.3,0.2,0.4C477.1,161.5,479.7,162.4,482.3,163.3"/>
			</g>
			<path class="st4" d="M176.6,325.1c-3.6-8.7-7.3-17.4-11-26.1c-4.1,0-8.3,0.1-12.4,0.2c6.4,14.3,12.7,28.6,19.1,43
				c2.9,0,5.9-0.1,8.8-0.1c6.1-14.5,12.2-29,18.3-43.5c-4.1,0-8.3,0.1-12.4,0.2C183.5,307.5,180,316.3,176.6,325.1"/>
			<path class="st4" d="M262.2,331.5c-6.8,0.1-12.5-5.3-12.5-12.8c-0.1-6,5.5-11.5,12.3-11.5c6.8-0.1,12.5,5.3,12.5,11.3
				C274.5,325.9,269,331.4,262.2,331.5 M261.9,296.3c-12.7,0.1-24.3,9.4-24.1,22.5c0.1,14,10.4,23.7,24.5,23.6
				c14.1-0.1,24.2-10.1,24.1-24.1C286.3,305.2,274.5,296.2,261.9,296.3"/>
			<path class="st4" d="M342.7,330.8c-0.9,0-1.7,0-2.6,0c-0.1-8.1-0.1-16.1-0.1-24.2c0.9,0,1.8,0,2.7,0c7.3-0.1,12.6,4.3,12.6,12
				C355.3,327,349.5,330.7,342.7,330.8 M367.2,318.5c-0.1-12.2-10.2-21.6-22.5-21.5c-5.4,0-10.8,0.1-16.2,0.1
				c0.1,14.4,0.2,28.8,0.3,43.2c5.4,0,10.8-0.1,16.2-0.1C357.1,340.2,367.2,330.7,367.2,318.5"/>
			<path class="st4" d="M438.4,296.6c-4.6,5.9-9.2,11.9-13.8,17.8h-0.1c0-5.9,0-11.9,0-17.8c-3.8,0-7.6,0-11.4,0
				c0,14.4,0,28.8,0.1,43.2c3.8,0,7.6,0,11.4,0c0-6.3,0-12.5,0-18.7l0.1,0c4.9,6.2,9.9,12.5,14.8,18.7c4.9,0,9.9,0,14.8,0
				c-6.3-7.6-12.7-15.2-19.1-22.8c5.8-6.8,11.7-13.7,17.5-20.5C447.9,296.6,443.1,296.6,438.4,296.6"/>
			<path class="st4" d="M514.7,324.1c1.6-4.6,3.2-9.2,4.8-13.7l0.1,0c1.6,4.6,3.1,9.2,4.6,13.8C521.1,324.1,517.9,324.1,514.7,324.1
				 M513.4,297c-5.7,14.4-11.4,28.8-17,43.2c4,0,8.1,0,12.1,0c1-2.5,2-5,3-7.5c5.2,0,10.5,0,15.7,0c0.9,2.5,1.9,5,2.8,7.5
				c4.1,0,8.1,0,12.2,0c-5.5-14.4-10.9-28.9-16.4-43.3C521.7,297,517.6,297,513.4,297"/>
			<path class="st4" d="M586.5,191.4c0.9,0,1.3-0.2,1.3-1.2c0-0.8-1-0.8-1.7-0.8h-1.7v1.9H586.5z M589.2,195.8h-1.9l-1.7-3.3h-1.2
				v3.3h-1.7v-7.7h3.7c1.8,0,3,0.3,3,2.4c0,1.4-0.7,2-2.1,2.1L589.2,195.8z M591.3,192c0-3.3-2.5-5.7-5.6-5.7
				c-3.2,0-5.6,2.4-5.6,5.7c0,3.3,2.4,5.6,5.6,5.6C588.8,197.7,591.3,195.3,591.3,192 M578.3,192c0-4.1,3.3-7.4,7.4-7.4
				c4.1,0,7.4,3.3,7.4,7.4c0,4.1-3.3,7.4-7.4,7.4C581.5,199.4,578.3,196.1,578.3,192"/>
		</g>
	</g>
	<path class="st4" d="M191.7,397.5h-0.2c-19.3,0-37.5-2.6-54.1-7.8l-1.5-0.5c-0.4-0.1-0.7-0.3-1.1-0.4c-33-11-55.2-31.7-62.5-56.4
		c-7.1-28.3,4.8-48.4,4.8-48.4l4.8-7.3l-5.7-4.9c-14.5-12.5-30.3-36.6-30.7-60c-0.4-26.9,5.5-61.1,55.5-87.1
		c9.6-5,20.3-8.8,31.9-11.4c0.5-0.1,7.4-1.3,9.8-1.6c9.2-1.3,18.8-2.5,28.6-2.5c15,0,30.7,1.6,46.6,4.9l2.8,0.6l2.5-1.4
		c20.7-11.7,42.9-23.7,67.2-29.1c6.4-1.4,12.7-2.1,18.6-2.1c11.2,0,21.7,2.7,29.5,7.6l4.1,2.6l4.1-2.6c8-5.1,18.8-8,30.3-8
		c5.8,0,11.8,0.7,17.8,2c24.3,5.2,46.7,16.8,67.5,28.3l2.5,1.4l2.8-0.6c16.6-3.5,32.9-5.3,48.4-5.3c13.8,0,25.5,1.2,35.8,3.6
		c0.4,0.1,0.9,0.2,1.3,0.3l0.5,0.1c0.4,0.1,0.8,0.2,1.1,0.3c10.7,2.5,20.7,6,29.7,10.6c50.3,25.5,56.6,59.6,56.4,86.5
		c-0.1,22.6-15,46.5-28.8,59.2l-4.3,4l2.7,5.2c2.9,5.7,9.9,33.2,4.8,52.5c-5,19.4-19.3,36-41.4,48c-6.2,3.4-13,6.4-20.3,8.9
		c-0.4,0.1-0.8,0.3-1.2,0.5l-1.3,0.4c-15,4-34.9,8.5-56.7,8.5c-11.9,0-25.8-1.9-40.4-4l-0.3,0c-17.7-2.4-36-5-54.7-5
		c-22.3,0-39.2,2.9-53.2,9l-1.7,0.8l-1.7-0.7c-13.5-5.7-29.8-8.4-51.1-8.4c-19.7,0-38.7,2.9-57.1,5.6l-0.6,0.1
		c-14.4,2.1-27.9,4.2-39.5,4.3C193.1,397.5,192.4,397.5,191.7,397.5 M138.9,381.2l1,0.3c15.8,4.9,33.2,7.4,51.6,7.4h0.2
		c0.7,0,1.3,0,2.1,0c11-0.1,24.3-2.1,38.3-4.2l0.7-0.1c18.7-2.8,38.1-5.7,58.4-5.7c21.7,0,38.5,2.7,52.8,8.4c14.7-6.1,32.2-9,54.9-9
		c19.3,0,37.9,2.6,55.8,5.1l0.4,0.1c14.3,2,27.9,3.9,39.2,3.9c20.8,0,40-4.4,54.5-8.2l0.3-0.1c0.5-0.2,1-0.4,1.5-0.6
		c6.9-2.4,13.2-5.2,19-8.4c19.9-10.9,32.8-25.6,37.2-42.6c4.4-17-2-42.2-4.2-46.4l-5.8-11l9.2-8.5c12.5-11.5,25.9-32.9,26-52.9
		c0.2-24.4-5.6-55.4-51.7-78.7c-8.4-4.2-17.7-7.6-27.7-9.9c-0.5-0.1-1.1-0.3-1.6-0.4c-0.4-0.1-0.9-0.2-1.3-0.3
		c-9.7-2.2-20.8-3.3-33.9-3.3c-14.9,0-30.6,1.7-46.6,5.1l-6,1.3l-5.3-2.9c-20.2-11.2-41.9-22.5-65.1-27.5c-5.5-1.2-10.9-1.8-16-1.8
		c-9.8,0-18.9,2.3-25.6,6.6l-8.7,5.5l-8.7-5.5c-6.5-4.1-15.4-6.3-25-6.3c-5.3,0-10.9,0.7-16.7,1.9c-23.1,5.2-44.7,16.8-64.9,28.2
		l-5.3,3l-6-1.2c-15.3-3.1-30.4-4.7-44.8-4.7c-9.3,0-18.5,1.3-27.5,2.5c-2.4,0.3-8.4,1.3-9,1.5c-10.9,2.5-20.9,6.1-29.9,10.7
		c-45.8,23.8-51.3,54.9-50.9,79.3c0.4,20.7,14.6,42.3,27.7,53.6l12.2,10.5l-5,6c-4.3,5.2-7.3,11.3-8.7,17.9
		c-1.7,8.3-2.6,19.5,0.4,30.6c6,22,26.7,40.4,56.9,50.4C137.9,380.8,138.4,381,138.9,381.2"/>
</g>
</svg>
