<?xml version="1.0" encoding="UTF-8"?>
<svg width="270.7mm" height="112.08mm" version="1.1" viewBox="0 0 270.7 112.08" xmlns="http://www.w3.org/2000/svg"><g transform="translate(1.4997 -109.62)"><path d="m22.44 221.57c0-0.297-23.786-111.2-23.939-111.62-0.096928-0.26431 27.086-0.33073 135.35-0.33073 128.9 0 135.47 0.0225 135.34 0.46302-0.0754 0.25466-3.4324 18.68-7.46 40.944-4.0277 22.265-7.3983 40.566-7.4903 40.669-0.092 0.10335-17.787 2.4588-39.323 5.2344s-55.705 7.1816-75.933 9.7912c-20.227 2.6096-54.398 7.01-75.935 9.7787-21.537 2.7687-39.486 5.0914-39.886 5.1616-0.40018 0.0702-0.7276 0.0289-0.7276-0.0918zm146.18-28.127c1.8129-0.46059 3.9505-1.7049 5.1332-2.9879 2.5854-2.8049 2.8788-5.0572 2.4609-18.892-0.16535-5.4738-0.22873-11.857-0.14084-14.186 0.15589-4.1301 0.14505-4.2518-0.44474-4.9906-0.54547-0.68324-0.7223-0.74394-1.8101-0.62134-0.87328 0.0984-1.3731 0.33065-1.8134 0.84257l-0.60786 0.70669-0.98837-0.77774c-1.7117-1.347-3.2475-1.977-5.1522-2.1138-2.7909-0.20033-3.9903 0.25682-6.0495 2.3057-2.8052 2.7913-4.5236 6.9034-5.2894 12.658-0.79972 6.0096 0.75564 9.5452 5.1479 11.702 3.422 1.6804 6.0759 1.6366 9.0418-0.14941 0.83844-0.50488 1.5657-0.87668 1.6162-0.82622 0.0505 0.0505 0.12194 2.0468 0.15886 4.4363 0.0609 3.9397 0.0178 4.4283-0.46205 5.2429-1.0321 1.7522-3.0628 2.6297-4.9324 2.1315-1.1062-0.29477-2.5674-1.7819-3.4203-3.481-1.1935-2.3775-2.0492-2.7583-4.1028-1.8256-1.64 0.74488-1.9328 1.698-1.1679 3.8023 2.1926 6.032 6.7976 8.5543 12.823 7.0235zm-6.3874-20.968c-1.1177-0.80383-1.4982-2.4764-1.343-5.9042 0.22267-4.9196 1.7999-8.7243 3.957-9.5453 1.389-0.52867 2.762 0.1648 3.5778 1.8071 0.80298 1.6165 1.1679 8.308 0.53491 9.8088-1.189 2.8191-5.0654 5.0282-6.7267 3.8335zm-64.061 20.018c2.1743-1.0715 3.9326-2.9479 4.7151-5.0318 0.84656-2.2545 1.1103-6.9725 0.7647-13.679-0.15747-3.0559-0.2471-9.1087-0.1992-13.451l0.0871-7.8944-0.62463-0.50614c-0.95238-0.77173-2.2337-0.65188-3.331 0.31157l-0.93133 0.81773-1.1074-0.9479c-1.5043-1.2876-3.6243-2.0435-5.7311-2.0435-2.2371 0-4.1063 0.90001-5.7355 2.7615-1.2269 1.4019-2.9345 4.5884-3.692 6.8893-0.73978 2.2473-1.2699 6.4298-1.1579 9.1363 0.09102 2.2012 0.20993 2.7363 0.88035 3.9618 1.3574 2.4813 4.2513 4.4769 7.4133 5.1119 1.833 0.36812 4.4079-0.19935 6.1973-1.3658l1.2052-0.7856 0.18258 0.98627c0.10042 0.54245 0.20393 2.415 0.23002 4.1613 0.05473 3.663-0.33641 5.0511-1.6961 6.0193-0.63312 0.45082-1.1777 0.58371-2.3281 0.56808-2.2162-0.0301-4.0033-1.0028-6.0281-3.2811-2.2024-2.4781-3.054-2.6535-4.9215-1.0137-0.56268 0.49404-0.96537 1.1366-1.0735 1.713-0.1474 0.7857-0.0254 1.1368 0.82316 2.3689 0.54791 0.79555 1.6456 2.0399 2.4392 2.7653 2.9187 2.6675 5.0643 3.4498 9.2047 3.3559 2.3995-0.0544 2.8216-0.14316 4.4145-0.92815zm-8.7788-20.646c-2.5182-2.5182-0.96982-12.655 2.2559-14.768 1.4798-0.9696 3.2785-0.31076 4.2501 1.5567 0.51086 0.98199 0.99162 7.4466 0.66266 8.9107-0.47418 2.1104-2.4446 4.1822-4.5527 4.7868-1.3874 0.3979-1.8107 0.31926-2.6159-0.48591zm-25.107 13.536c0.45855-0.26853 1.0782-0.81628 1.3771-1.2172l0.54337-0.72899-0.58228-2.9752c-0.54799-2.8-1.6314-14.895-1.6371-18.278l-0.0026-1.5441 2.3517-2.2924c3.7921-3.6964 4.6465-6.1681 2.6754-7.7397-0.50932-0.40609-1.2532-0.81793-1.6531-0.91521-0.63626-0.15477-0.89023-2.6e-4 -2.0331 1.2362-0.71829 0.77716-1.3871 1.3319-1.4862 1.2328-0.21304-0.21304-0.31073-19.71-0.11931-23.813 0.13168-2.8228 0.12888-2.8395-0.60133-3.5719-0.68819-0.69029-0.87383-0.73585-2.9983-0.73585-2.2416 0-2.2728 9e-3 -3.0686 0.89973l-0.8039 0.89972 0.098 15.637 0.098 15.637-1.3877 0.46041c-2.4719 0.82012-5.0198 1.0642-9.5925 0.91875-5.146-0.16362-6.35-0.43191-6.35-1.4149 0-2.3672 3.3279-22.785 4.3776-26.858 0.45674-1.7722 0.49317-3.2338 0.09896-3.9704-0.40249-0.75206-2.2741-1.5351-3.6828-1.5408-1.4158-6e-3 -2.8407 0.76713-3.0212 1.6386-0.06874 0.33193-0.54655 2.6276-1.0618 5.1014-0.51524 2.4739-1.3505 7.1173-1.8562 10.319-2.1368 13.529-2.1047 13.361-2.5526 13.361-1.6043 1e-3 -8.0314-5.8435-11.136-10.126-2.4115-3.3267-2.9512-3.8963-3.6923-3.8963-0.99465 0-2.8976 1.085-3.4277 1.9543-0.962 1.5776-0.71891 2.4281 1.6785 5.8722 3.8415 5.5187 8.2395 9.3397 14.023 12.183 1.4543 0.71505 2.0505 1.1504 2.0505 1.4972 0 0.26893-0.24641 2.7134-0.54759 5.4321-0.75765 6.8394-1.2375 12.845-1.1007 13.777 0.15408 1.0498 1.0875 1.8716 2.4817 2.1848 1.7112 0.38448 3.5648 0.0432 4.5509-0.83787l0.83063-0.74217 0.18093-5.7776c0.09951-3.1777 0.30848-7.0106 0.46438-8.5176 0.1559-1.507 0.28345-2.958 0.28345-3.2245 0-0.39591 0.15723-0.46161 0.8599-0.3593 4.6883 0.6826 13.108 0.47965 16.106-0.38822l1.7519-0.50716 0.16591 2.1544c0.09125 1.1849 0.28677 4.0594 0.4345 6.3877 0.60645 9.5581 1.0129 12.037 2.1621 13.186 0.72706 0.72706 0.87308 0.76645 2.3463 0.63286 0.86404-0.0784 1.9462-0.36216 2.4047-0.6307zm74.96-1.5245c1.8543-0.77477 1.8218-0.5073 1.4538-11.987-0.23013-7.177-0.26352-14.116-0.11112-23.093 0.32697-19.257 0.34906-17.886-0.29843-18.533-1.2632-1.2622-4.5812-1.1438-6.0012 0.21408l-0.75703 0.72393 0.11425 25.665c0.0628 14.116 0.20447 25.877 0.31473 26.136 0.49586 1.1649 3.4282 1.6498 5.285 0.87401zm45.467-3.6528c1.3258-0.50222 1.5087-1.286 1.5109-6.4765 1e-3 -2.5902 0.12581-5.4726 0.27714-6.4052 0.59155-3.6458 3.5304-7.9738 5.6895-8.3788 1.3521-0.25365 2.2044 0.24421 2.9834 1.7426 0.5976 1.1496 0.61259 1.3343 0.46131 5.6861-0.086 2.4739-0.23089 5.7152-0.32198 7.2029-0.1396 2.2801-0.0956 2.8118 0.28013 3.3852 0.5883 0.89784 1.5109 1.2189 3.5027 1.2189 1.7924 0 3.0704-0.4972 3.5417-1.3779 0.20069-0.375 0.26518-3.1659 0.20628-8.927-0.0987-9.6568-0.12126-9.7624-2.5679-12.038-2.1141-1.9663-3.9084-2.6935-6.6459-2.6935-1.9081 0-2.4879 0.11187-3.8253 0.73813-0.86698 0.40598-1.9761 1.0431-2.4648 1.4158-0.48864 0.3727-0.9554 0.61068-1.0372 0.52884-0.17355-0.17356 0.28337-8.6449 0.96401-17.873 0.51559-6.9901 0.44274-7.9322-0.66968-8.6611-0.36878-0.24163-1.4437-0.48661-2.4516-0.55872-2.1087-0.15088-3.2461 0.29404-3.693 1.4446-0.17969 0.46261-0.4429 7.2375-0.70202 18.07-0.228 9.5316-0.49067 20.072-0.58371 23.423-0.15304 5.5128-0.12424 6.1877 0.30237 7.0868 0.85249 1.7965 2.858 2.3494 5.2437 1.4458zm-71.315-0.55084 0.72481-0.72429 0.16847-6.5429c0.20296-7.8819 0.52087-9.2072 2.8196-11.755 1.1309-1.2532 2.2556-1.7997 3.7042-1.7997 2.6568 0 3.1363 2.975 2.1694 13.459-0.38352 4.158 0.48182 5.3872 3.8265 5.4353 1.871 0.0269 2.9238-0.41124 3.4546-1.4377 0.53353-1.0317 0.0942-15.675-0.53082-17.694-0.58872-1.9016-2.6424-3.9726-5.0885-5.1312-3.4429-1.6308-6.8571-1.0416-10.001 1.726l-1.2657 1.1142 0.17175-4.755c0.40383-11.18 0.49569-20.372 0.21081-21.093-0.976-2.4711-5.9816-2.3793-7.0363 0.12903-0.2915 0.69327-0.33572 4.7958-0.24449 22.683 0.0613 12.01 0.15335 22.562 0.20466 23.448 0.1651 2.8515 1.3073 3.8694 4.1987 3.7417 1.5399-0.068 1.8896-0.17971 2.5135-0.80325zm-36.619-0.84551c0.4599-0.21824 0.97246-0.615 1.139-0.88169 0.19562-0.31323 0.36341-3.0062 0.47396-7.6068 0.09413-3.9171 0.28463-9.119 0.42335-11.56 0.33924-5.9693 0.06338-6.6347-2.896-6.9852-1.5482-0.18336-2.908 0.22609-3.7589 1.1318-0.60217 0.64099-0.63643 0.86855-0.70595 4.6887-0.04019 2.2082-0.1874 7.4968-0.32715 11.752-0.27444 8.3569-0.22821 8.7763 1.0436 9.4681 0.90306 0.49117 3.5664 0.48686 4.6081-7e-3zm72.256-1.3006c0.49293-0.20596 1.0418-0.6464 1.2196-0.97875 0.22236-0.41547 0.38965-3.3364 0.53545-9.349 0.11662-4.8096 0.2943-10.081 0.39485-11.714 0.15758-2.5594 0.12033-3.0642-0.27015-3.6601-1.1809-1.8023-5.0329-1.9198-6.563-0.20018-0.41293 0.46409-0.49085 1.6121-0.72526 10.686-0.14444 5.5913-0.32964 10.821-0.41155 11.621-0.17366 1.6969 0.39025 3.0923 1.4672 3.6304 0.89021 0.44481 3.2486 0.42521 4.3528-0.0362zm73.349-1.6093c2.0596-1.0156 3.2606-2.1894 3.2606-3.1867 0-0.34757-0.36952-1.0528-0.82116-1.5672-1.0483-1.194-2.0363-1.232-3.6768-0.1415-1.5818 1.0515-3.3009 1.0989-4.4607 0.12299-1.292-1.0872-1.5211-2.7248-1.1571-8.2723 0.16725-2.5489 0.39834-4.7283 0.51355-4.843 0.1152-0.11474 1.3406-0.27922 2.723-0.36551 4.6237-0.28861 5.2068-0.39335 5.9322-1.0657 0.55359-0.51304 0.68237-0.87576 0.68237-1.9218 0-1.0466-0.12924-1.4102-0.6863-1.9309-0.66748-0.62383-0.78731-0.63938-4.3656-0.5666l-3.6793 0.0748 8e-3 -0.7363c4e-3 -0.40496 0.28545-3.4448 0.62483-6.7553s0.55987-6.3181 0.48999-6.6836c-0.29985-1.5686-2.8797-2.5773-5.0777-1.9854-1.7575 0.47325-1.8472 0.77083-2.7679 9.1822-0.6328 5.7812-0.92136 7.622-1.2201 7.7837-0.21519 0.11646-1.3104 0.28649-2.4338 0.37786-2.5636 0.20847-3.3814 0.74603-3.3814 2.2226 0 1.9542 1.6332 3.1915 4.2126 3.1915h1.5931l-0.16499 5.499c-0.14317 4.7716-0.10528 5.6788 0.28643 6.8581 0.5938 1.7878 2.1357 3.4988 3.9562 4.3902 3.6599 1.7921 6.4361 1.8842 9.6103 0.31887zm20.49 0.20441c2.0481-0.66055 4.4496-2.3632 5.455-3.8676 1.0265-1.5359 1.4441-2.9602 1.4634-4.9914 0.0332-3.4878-3.0495-5.7152-9.2844-6.7081-3.8135-0.60732-5.603-1.7049-5.603-3.4364 0-0.83345 0.86944-2.2615 1.61-2.6445 1.6725-0.86487 3.5941-0.25439 6.1789 1.963 2.5255 2.1665 3.9716 2.3605 5.6386 0.75661 1.5228-1.4652 1.1334-3.0782-1.2974-5.3741-2.6087-2.4639-6.0715-3.5439-9.7089-3.028-6.8937 0.9777-10.44 5.3018-9.0084 10.986 0.33212 1.3189 1.7098 3.0615 3.1284 3.957 1.4433 0.91113 4.3428 1.8687 7.1867 2.3735 4.061 0.72081 5.1461 1.8016 3.4449 3.4315-1.6239 1.5558-4.2569 1.4238-7.8089-0.39158-2.6594-1.3592-3.8519-1.4324-4.9786-0.30574-1.0002 1.0002-1.3027 2.8698-0.63026 3.896 0.87796 1.3399 4.9129 3.2975 7.8866 3.8261 1.8242 0.32432 4.5397 0.13469 6.3273-0.44184zm-164.31-27.922c1.8196-1.2092 2.5974-4.0829 1.6262-6.0081-0.66879-1.3258-1.9722-1.9907-3.9022-1.9907-1.9614 0-3.1741 0.6435-3.9192 2.0796-0.70521 1.3592-0.75146 3.7626-0.09179 4.7694 1.0903 1.664 4.5587 2.2983 6.287 1.1497zm71.15-1.8499c1.2217-0.83026 1.8636-2.204 1.8854-4.0354 0.03-2.5154-1.453-3.8798-4.2457-3.9061-1.9956-0.0188-3.1317 0.61259-3.9276 2.1828-1.1404 2.2499-0.61459 4.8547 1.1701 5.7963 1.4651 0.77303 3.9518 0.75476 5.1178-0.0376z" fill="#e02619" stroke-width=".26458"/></g></svg>
