<?xml version="1.0" encoding="UTF-8" standalone="no"?>
<svg
   xmlns:dc="http://purl.org/dc/elements/1.1/"
   xmlns:cc="http://creativecommons.org/ns#"
   xmlns:rdf="http://www.w3.org/1999/02/22-rdf-syntax-ns#"
   xmlns:svg="http://www.w3.org/2000/svg"
   xmlns="http://www.w3.org/2000/svg"
   viewBox="0 0 1136.1 180.46249"
   height="180.46249"
   width="1136.1"
   xml:space="preserve"
   version="1.1"
   id="svg2"><metadata
     id="metadata8"><rdf:RDF><cc:Work
         rdf:about=""><dc:format>image/svg+xml</dc:format><dc:type
           rdf:resource="http://purl.org/dc/dcmitype/StillImage" /></cc:Work></rdf:RDF></metadata><defs
     id="defs6"><clipPath
       id="clipPath18"
       clipPathUnits="userSpaceOnUse"><path
         id="path20"
         d="M 0,1443.72 0,0 l 9088.75,0 0,1443.72 -9088.75,0 z" /></clipPath></defs><g
     transform="matrix(1.25,0,0,-1.25,0,180.4625)"
     id="g10"><g
       transform="scale(0.1,0.1)"
       id="g12"><g
         id="g14"><g
           clip-path="url(#clipPath18)"
           id="g16"><path
             id="path22"
             style="fill:#4283cc;fill-opacity:1;fill-rule:nonzero;stroke:none"
             d="M 0.0546875,1378.57 C 160.152,1377.87 320.25,1380.27 480.25,1377.37 c -0.5,-163.7 -0.098,-327.3 -0.301,-490.999 -3.195,-23.797 19.403,-44 42.5,-42.004 180.102,-0.297 360.301,-0.094 540.401,-0.094 23.7,-2.597 49.6,16.598 46,42 0.6,164.097 -0.5,328.197 0.5,492.297 157.5,0.1 315.1,0.1 472.6,0 1.7,-437.898 2,-875.898 -0.2,-1313.8005 -157.5,0.4024 -315.1,0 -472.7,0.1993 -0.4,153.5002 0.4,307.1012 -0.4,460.6012 2,24.7 -23.4,41.106 -46.1,38.399 -180.195,0.105 -360.499,0.207 -540.698,-0.098 C 501.051,565.375 478.75,549.074 480.25,526.867 479.453,373.07 480.449,219.172 479.848,65.3789 319.949,64.4688 160.055,64.9688 0.25,65.0703 -0.152344,502.875 0.0546875,940.77 0.0546875,1378.57 l 0,0" /><path
             id="path24"
             style="fill:#4283cc;fill-opacity:1;fill-rule:nonzero;stroke:none"
             d="m 5280.25,1376.47 c 158.7,5 317.6,0.8 476.41,2.1 0.49,-437.898 0.59,-875.8 -0.11,-1313.6989 -158.6,0.3008 -317.2,-0.3008 -475.8,0.3008 -0.4,437.0981 0.4,874.1951 -0.5,1311.2981 l 0,0" /><path
             id="path26"
             style="fill:#4283cc;fill-opacity:1;fill-rule:nonzero;stroke:none"
             d="m 2856.95,445.777 c -30,-86.308 -83,-172.308 -168.7,-211.808 -90,-43 -204.7,-27.391 -278.2,40.601 -82.1,74.899 -118,186 -136.3,292.602 -20.1,151.301 -12.7,310.402 46.8,452.598 33.3,79 91.9,153.7 176.1,181.1 72.8,22 157.1,15.1 220.3,-29.6 73.7,-50.1 116,-133.2 142.9,-215.797 48.9,-165.102 52.6,-345.703 -2.9,-509.696 z m 530.2,585.103 c -68.1,138.69 -188.7,246.89 -327.3,312.69 -177.5,85.7 -378.7,109.1 -573.8,97.31 -203.2,-16.21 -407.5,-88.31 -558.8,-228.31 -111.7,-102.1 -187.5,-243.699 -205.6,-394.398 -19.9,-161.899 10.8,-333 99.3,-471.594 71.6,-111.199 177.8,-198.207 297.8,-252.8983 181.8,-84.21095 386.7,-103.41017 584.5,-89.60158 181.8,17.49998 363,79.29298 505.4,195.99188 112,89.899 195.6,215.801 229.8,355.707 37.3,157.899 20,329.192 -51.3,475.103" /><path
             id="path28"
             style="fill:#4283cc;fill-opacity:1;fill-rule:nonzero;stroke:none"
             d="m 4580.45,956.371 c 0.9,-68 -49.4,-128.797 -110.89,-153.101 -37.21,-15.696 -78.01,-11.797 -117.31,-12.098 -56.3,0.601 -112.7,-0.801 -169,0.398 -86.8,4.504 -167.4,76.203 -172.6,164.703 -1.9,83.797 65.9,157.397 145.7,175.097 81.9,7.3 164.5,1.1 246.8,3.2 94,3.8 184.31,-82.8 177.3,-178.199 z m 278.9,-402.898 c -9.2,12.195 -16.3,26.601 -15.1,42.304 10.2,24.297 32.1,40.496 50.6,58.192 62.4,57.207 119.5,124.301 147.21,205.504 24.29,76.297 21.79,160.297 -3.01,236.197 -48.1,141.7 -178.4,250.8 -325.6,275.8 -63.1,11.5 -127.3,5.9 -190.99,7.2 -314.51,0.6 -629.11,-1.5 -943.61,1 -5.6,-134.2 -0.8,-268.9 -2.4,-403.299 1.3,-304.101 -2.6,-608.402 2,-912.2929 155.8,1.3907 311.7,1.3907 467.5,0 4.9,114.0939 0,228.5939 2.3,342.7929 3.1,48.906 29.4,97.496 72.6,122.305 76.4,41.797 182.2,20.801 233.9,-50.305 96.4,-137.691 190.9,-276.699 287.71,-414.1015 189.39,0.3008 378.89,0.1016 568.29,0.1016 -116.8,163.0979 -234.2,325.8009 -351.4,488.6019" /><path
             id="path30"
             style="fill:#4283cc;fill-opacity:1;fill-rule:nonzero;stroke:none"
             d="m 8393.35,510.172 c -90.4,-0.402 -180.7,0 -271,-0.195 -14.4,-3.301 -30.69,11.296 -23.8,26.093 40.5,117.403 83.4,234.004 124.3,351.301 6.8,18.902 11.9,39.102 23.81,55.699 11.19,21.602 33.19,0.504 37.09,-14.8 46.7,-127.7 91.5,-256.196 137.91,-383.997 10.69,-18.3 -10.61,-36.503 -28.31,-34.101 z m 220.7,877.298 c -234.7,0.7 -469.3,-1.1 -703.9,0.91 -14.9,-30.41 -23.7,-63.11 -35.6,-94.61 -147.2,-409 -293.5,-818.297 -441.1,-1227.1919 163.9,-4.5078 328,0.6914 492,-2.6093 34.8,75.2032 56.4,155.8012 88.5,232.2112 8.8,22.992 37.8,23.59 58.7,23.691 126.7,-0.5 253.5,0.199 380.3,-0.301 23.2,0 53.71,-4.3 60.2,-31.199 27.5,-73.699 53.7,-147.992 78.9,-222.5898 165.6,-1.9101 331.1,-0.5117 496.7,-0.7109 -158.4,440.7067 -317,881.3987 -474.7,1322.3997" /><path
             id="path32"
             style="fill:#4283cc;fill-opacity:1;fill-rule:nonzero;stroke:none"
             d="m 6792.95,299.469 c -86.9,-0.297 -173.79,-0.297 -260.6,0 -89.5,-0.098 -173.19,77.109 -175.2,167.605 -1.6,90.899 78.8,171.399 168.4,176.399 85.7,1.297 171.4,0.496 257.1,0.3 92.8,0.098 180.4,-82 177,-176.601 1.5,-88.602 -78.9,-167.203 -166.7,-167.703 z m -307.6,843.301 c 62,10 125,3.4 187.5,5.3 54.7,0.4 114.7,3.61 162.11,-28.89 50.79,-31.7 83.29,-93.11 74.89,-153.309 -10.1,-80.301 -87.1,-143.801 -167.6,-142 -76.3,0.305 -152.69,-0.801 -228.9,0.496 -80.8,2.309 -155.8,70.906 -158.79,152.707 -6.01,77.896 55.59,150.896 130.79,165.696 z m 827.9,-445.598 c -20.2,22.297 -64.2,31.699 -59.09,68.699 9.39,19 30,29.402 44.09,44.801 85.4,78.301 104,207.898 75.8,316.008 -36.99,147.39 -179.6,258.09 -331.1,260.59 -368.2,0.5 -736.4,0.3 -1104.6,0.1 -0.2,-440.8 -0.5,-881.593 0.2,-1322.4012 371.41,-0.0977 742.9,0 1114.4,-0.0977 109.3,0.5078 217.8,48.3009 288.6,132.0979 124.6,138.301 118.2,379.707 -28.3,500.203" /></g></g></g></g></svg>