<?xml version="1.0"?>
<svg viewBox="0 0 352.94 121.69" xmlns="http://www.w3.org/2000/svg" xmlns:xlink="http://www.w3.org/1999/xlink">
	<path d="m348.65,37.15a4.31,4.31 0 0 1 -1.18,-0.1a0.63,0.63 0 0 1 -0.45,-0.69l0,-3.28a4,4 0 0 1 2.21,0.38a2.45,2.45 0 0 1 0.65,1.84a5.31,5.31 0 0 0 0.33,1.83a1.56,1.56 0 0 0 1.52,0.73a1.77,1.77 0 0 0 1.69,-0.9a3.91,3.91 0 0 0 0.35,-1.53l-0.59,0a5.93,5.93 0 0 1 -0.23,1.23a0.63,0.63 0 0 1 -0.62,0.45c-0.22,0 -0.5,-0.6 -0.83,-1.8a3.22,3.22 0 0 0 -2.26,-2.37l0,-0.08a5,5 0 0 0 2.39,-0.79a1.92,1.92 0 0 0 0.89,-1.6a2,2 0 0 0 -1.11,-1.82a5.7,5.7 0 0 0 -2.91,-0.65l-4.73,0l0,0.56a3.67,3.67 0 0 1 1.28,0.15a0.62,0.62 0 0 1 0.35,0.63l0,7c0,0.37 -0.12,0.59 -0.34,0.67a4.48,4.48 0 0 1 -1.29,0.12l0,0.56l4.88,0l0,-0.54zm-1.65,-7.79a0.64,0.64 0 0 1 0.35,-0.65a2.29,2.29 0 0 1 0.95,-0.16a2.45,2.45 0 0 1 1.7,0.5a1.84,1.84 0 0 1 0.53,1.4a1.74,1.74 0 0 1 -1,1.81a7.94,7.94 0 0 1 -2.52,0.26l-0.01,-3.16z" transform="translate(-3.73)"/>
	<path d="m348.43,41.21a8.26,8.26 0 0 0 8.25,-8.21a8.23,8.23 0 0 0 -8.24,-8.25a8.23,8.23 0 0 0 -8.23,8.25a8.21,8.21 0 0 0 8.22,8.25l0,-0.04zm-5.19,-13.47a7.36,7.36 0 0 1 12.56,5.26a7.36,7.36 0 1 1 -12.56,-5.22l0,-0.04z" transform="translate(-3.73)"/>
	<path d="m5.7,120.76c-0.9,-4.5 -1.44,-7.94 -1.86,-9.23c-0.34,-1 0.18,-1.8 1.08,-1.76c1.86,0.1 1.73,2.6 4.73,4.85c2.55,1.95 7.11,2.72 9.21,2.72c14.7,0 22,-11.59 22,-25.09l0,-66.6c0,-15.45 1,-22.18 -6.2,-22.15l-8.37,0l0,-3.5l35.27,0l0,3.5l-7.75,0c-1.65,0 -2.88,2.05 -2.88,3.4l-0.25,83.7c0,18.09 -14.12,31.09 -33.06,31.09c-3.75,0 -8.47,-0.03 -11.92,-0.93z" transform="translate(-3.73)"/>
	<path d="m73.76,72c-2.66,6.78 -8,19.45 -8,22.84c0,2.54 1.21,3.14 3,3.14l8.63,0l0,3.24l-25.89,0l0,-3.22l3.88,-0.13c1.82,0 3.64,-0.23 4.36,-1.8l32.64,-72.69a64,64 0 0 1 6.72,-1.38a1.2,1.2 0 0 1 1.35,1.15c0,1.58 -3.46,1.51 -2.76,3.7c5.11,15.89 13.2,36 22.82,61.72c2.84,7.61 4.24,9.45 7.38,9.45l3.64,0l0,3.24l-26.13,0l0,-3.26l6.54,0c0.85,0 1.7,-0.36 1.7,-1.21s-3,-10.15 -8,-24.81l-31.88,0.02zm17.17,-36.37l-14.93,32l27.59,0l-12.66,-32z" transform="translate(-3.73)"/>
	<path d="m140.87,44.89c0,-12.47 -0.27,-16.52 -3.42,-16.52l-7.69,-0.17l0,-3.2l30.45,-0.2c12.44,-0.39 29.36,4.84 29.36,20.21c0,10.9 -10,18.2 -20.68,20.14c4.39,6.36 12.66,16.76 18.83,24c7.28,8.58 9.28,8.85 13.58,8.85l1,0l0,3.24l-12.9,0c-1.71,0 -5.07,-3.21 -14,-14.65c-4.58,-5.88 -8.38,-10.52 -15.29,-20l-11,0l0,13.78c0,12.48 0.21,17.6 3.36,17.6l8.67,0l0,3.24l-30.78,0l0,-3.21l8.64,0c1.34,0 1.83,-1.25 1.83,-2.34l0.04,-50.77zm16.35,17.68c10.41,0 23.07,-3.75 23.07,-15.62c0,-11.38 -10.6,-19 -20.17,-19l-7.24,0c-1.09,0 -3.78,0.12 -3.78,1.69l0,32.93l8.12,0z" transform="translate(-3.73)"/>
	<path d="m211,44.83c0,-12.47 -0.25,-16.63 -3.39,-16.63l-7.43,0l0,-3.2l61,0c-0.21,2.07 -0.74,3.9 -0.91,5.21c-0.69,5.42 -0.77,5 -1.64,5.18c-1,0 -1.21,-0.61 -1.46,-2.18s-2.42,-4.72 -21.55,-4.72l-11.94,0c-1.88,-0.06 -4.82,-0.3 -4.58,3.63l0,24.82l16.21,0c12.47,0 15.22,-0.48 15.22,-4.11l0,-4.4l3.27,0l0,19.31l-3.27,0l0,-4.13c0,-3.27 -0.21,-3.39 -14,-3.39l-17.43,0l0,21.43c0,15 3.49,16.33 7.12,16.33l8.12,0c20.58,0 25.31,-3.74 27.36,-7.13c0.37,-0.61 0.65,-1.54 1.5,-1.54a0.89,0.89 0 0 1 0.93,0.93c0,1.09 -1.58,6.13 -3,11l-59.67,0l0,-3.24l7.69,0c1.33,0 1.82,-1.44 1.82,-2.53l0.03,-50.64z" transform="translate(-3.73)"/>
	<path d="m264.56,25l39.18,-0.59c34.15,0 40,25.69 40,36.71c0,21.68 -14.65,40.1 -39.72,40.1l-36.7,0l0,-3.22l5.69,0a2.65,2.65 0 0 0 2.54,-2.34l0,-50.77c0,-12.47 1.16,-16.43 -4.08,-16.55l-6.89,-0.14l-0.02,-3.2zm19.6,56.71c0,15 1.33,16.27 5,16.27l14.7,0c21.43,0 31.61,-19.14 31.61,-32.83c0,-28.22 -19.26,-36.94 -36.82,-37.12c-2.28,0 -14.45,-0.4 -14.45,0.57l-0.04,53.11z" transform="translate(-3.73)"/>
</svg>
