<?xml version="1.0" encoding="UTF-8" standalone="no"?>
<svg
   viewBox="0 0 1066.8 699.75"
   version="1.1"
   id="svg4"
   sodipodi:docname="King's Hawaiian inv 2025.svg"
   inkscape:version="1.4 (86a8ad7, 2024-10-11)"
   xmlns:inkscape="http://www.inkscape.org/namespaces/inkscape"
   xmlns:sodipodi="http://sodipodi.sourceforge.net/DTD/sodipodi-0.dtd"
   xmlns="http://www.w3.org/2000/svg"
   xmlns:svg="http://www.w3.org/2000/svg">
  <defs
     id="defs4" />
  <sodipodi:namedview
     id="namedview4"
     pagecolor="#ffffff"
     bordercolor="#000000"
     borderopacity="0.25"
     inkscape:showpageshadow="2"
     inkscape:pageopacity="0.0"
     inkscape:pagecheckerboard="0"
     inkscape:deskcolor="#d1d1d1"
     inkscape:zoom="0.39056345"
     inkscape:cx="441.6696"
     inkscape:cy="55.048675"
     inkscape:window-width="1920"
     inkscape:window-height="991"
     inkscape:window-x="-9"
     inkscape:window-y="-9"
     inkscape:window-maximized="1"
     inkscape:current-layer="use4" />
  <g
     id="use4"
     style="display:inline">
    <path
       d="m 914.13,699.75 c 29.36,0 35.01,-10.45 43.39,-34.48 44.6,-127.9 109.27,-420.66 109.27,-485.7 0,-18.93 -8.24,-28.16 -27.43,-28.16 -55.12,0 -214.85,51.9 -281.38,95.59 -2.11,1.38 -3.84,1.11 -5.03,-0.87 C 697,153.36 628.15,72.16 571.16,21.09 553.42,5.19 544.82,0 533.4,0 521.98,0 513.38,5.19 495.63,21.09 438.64,72.16 369.8,153.35 313.84,246.13 c -1.2,1.98 -2.93,2.26 -5.03,0.87 C 242.28,203.31 82.55,147.17 27.43,147.17 8.23,147.17 0,156.15 0,174.54 c 0,63.22 64.67,362.83 109.27,490.73 8.38,24.03 14.03,34.48 43.39,34.48 z"
       fill="#ffffff"
       stroke-width="0px"
       id="path5"
       style="font-variation-settings:normal;opacity:1;vector-effect:none;fill:#ff6700;fill-opacity:1;stroke-width:0px;stroke-linecap:butt;stroke-linejoin:miter;stroke-miterlimit:4;stroke-dasharray:none;stroke-dashoffset:0;stroke-opacity:1;-inkscape-stroke:none;stop-color:#000000;stop-opacity:1" />
    <path
       class="cls-3"
       d="m 459.54,249.25 -1.49,-3.55 6.3,-2.64 -1.87,-4.44 -6.29,2.64 -1.18,-2.81 8.82,-3.7 -2.01,-4.79 -14.13,5.94 8.56,20.36 14.5,-6.09 -2.01,-4.78 z m 28.2,-14.98 c -1.17,-0.75 -2.79,-1.25 -4.85,-1.51 l -2.74,-0.35 c -0.5,-0.07 -0.91,-0.14 -1.23,-0.23 -0.31,-0.09 -0.56,-0.21 -0.73,-0.37 a 1.41,1.41 0 0 1 -0.37,-0.63 c -0.13,-0.45 -0.05,-0.84 0.23,-1.16 0.28,-0.32 0.71,-0.56 1.29,-0.73 0.75,-0.21 1.45,-0.21 2.09,0 0.64,0.22 1.33,0.64 2.06,1.27 l 2.91,-3.87 a 7.871,7.871 0 0 0 -3.68,-2.34 c -1.44,-0.43 -3.04,-0.4 -4.8,0.09 -1.44,0.4 -2.65,1.02 -3.64,1.85 -0.98,0.83 -1.66,1.81 -2.02,2.95 -0.37,1.13 -0.38,2.32 -0.03,3.57 0.27,0.97 0.73,1.78 1.36,2.45 0.64,0.67 1.44,1.2 2.41,1.59 0.97,0.39 2.1,0.68 3.41,0.87 l 2.46,0.35 c 0.65,0.1 1.14,0.18 1.46,0.27 0.32,0.08 0.59,0.21 0.8,0.37 0.21,0.16 0.36,0.4 0.45,0.73 0.14,0.52 0.07,0.95 -0.22,1.31 -0.29,0.36 -0.81,0.64 -1.54,0.85 -1.07,0.3 -2.05,0.31 -2.91,0.02 -0.87,-0.29 -1.73,-0.77 -2.59,-1.43 l -2.95,3.88 c 1.18,1.25 2.64,2.09 4.36,2.53 1.72,0.45 3.54,0.4 5.45,-0.13 1.46,-0.41 2.71,-1.04 3.76,-1.9 1.04,-0.86 1.76,-1.89 2.16,-3.09 0.39,-1.2 0.4,-2.48 0.02,-3.83 -0.42,-1.5 -1.22,-2.63 -2.39,-3.38 z m 24.04,-15.96 -18.81,2.75 0.75,5.13 6.55,-0.96 2.44,16.73 5.7,-0.83 -2.44,-16.73 6.55,-0.95 z m 18.54,2.19 1.2,5.13 3.79,-1.1 -0.52,15.24 5.76,0.19 0.74,-22.07 -1.84,-0.06 z m 32.67,0.44 a 8.794,8.794 0 0 0 -4,-1.65 8.627,8.627 0 0 0 -4.27,0.44 8.433,8.433 0 0 0 -3.53,2.43 c -0.96,1.11 -1.56,2.44 -1.78,3.98 -0.22,1.48 -0.05,2.85 0.48,4.11 0.54,1.26 1.33,2.3 2.37,3.1 0.82,0.63 1.68,1.06 2.58,1.3 l -5.85,5.9 6.72,0.98 6.53,-6.52 c 1.24,-1.24 2.17,-2.31 2.78,-3.21 0.62,-0.9 1.01,-1.95 1.19,-3.14 0.23,-1.57 0.05,-3.03 -0.55,-4.37 a 8.17,8.17 0 0 0 -2.67,-3.35 z m -2.4,6.87 c -0.08,0.53 -0.27,0.99 -0.57,1.39 -0.31,0.39 -0.69,0.68 -1.16,0.86 -0.47,0.18 -0.95,0.23 -1.46,0.16 a 2.69,2.69 0 0 1 -1.34,-0.57 c -0.38,-0.3 -0.67,-0.69 -0.86,-1.16 -0.19,-0.47 -0.25,-0.97 -0.17,-1.5 0.08,-0.53 0.28,-1 0.59,-1.4 0.32,-0.4 0.71,-0.7 1.16,-0.9 0.46,-0.19 0.94,-0.25 1.45,-0.18 0.51,0.07 0.96,0.27 1.35,0.59 0.39,0.32 0.68,0.71 0.86,1.19 0.18,0.48 0.23,0.98 0.15,1.51 z m 12.79,7.23 5.06,1.41 c 0.82,0.23 1.48,0.49 1.98,0.8 0.51,0.3 0.85,0.65 1.03,1.05 0.18,0.4 0.2,0.84 0.06,1.34 -0.14,0.52 -0.4,0.91 -0.77,1.19 -0.37,0.28 -0.81,0.45 -1.32,0.5 -0.51,0.05 -1.06,0 -1.64,-0.16 -0.88,-0.25 -1.58,-0.67 -2.11,-1.28 -0.52,-0.61 -0.97,-1.47 -1.33,-2.59 l -4.59,1.64 c 0.29,1.77 1.03,3.32 2.22,4.63 1.18,1.32 2.72,2.24 4.61,2.76 1.59,0.44 3.12,0.52 4.6,0.24 1.48,-0.28 2.75,-0.89 3.81,-1.84 1.06,-0.94 1.79,-2.13 2.2,-3.57 0.39,-1.4 0.39,-2.71 0,-3.95 a 7.115,7.115 0 0 0 -2.01,-3.13 7.896,7.896 0 0 0 -3.19,-1.78 c -0.65,-0.18 -1.35,-0.27 -2.1,-0.31 l 0.7,-2.51 7.93,2.21 1.39,-5 -13.18,-3.68 -3.36,12.02 z m 38.84,1.47 c -0.89,-1.44 -2.25,-2.55 -4.07,-3.33 -1.82,-0.78 -3.56,-1 -5.22,-0.65 -1.65,0.35 -3.13,1.17 -4.42,2.46 -1.29,1.29 -2.37,2.94 -3.23,4.95 -0.86,2.01 -1.32,3.96 -1.38,5.85 -0.06,1.89 0.34,3.58 1.2,5.05 0.86,1.47 2.2,2.6 4.03,3.38 1.82,0.78 3.57,0.98 5.23,0.59 1.66,-0.39 3.16,-1.26 4.49,-2.61 1.33,-1.35 2.43,-3.02 3.29,-5.03 0.86,-2.01 1.31,-3.93 1.36,-5.75 0.04,-1.83 -0.38,-3.46 -1.27,-4.9 z m -4.5,5.08 c -0.14,0.91 -0.48,2 -1.02,3.28 -0.55,1.29 -1.13,2.32 -1.72,3.08 -0.6,0.77 -1.2,1.26 -1.82,1.49 -0.62,0.23 -1.27,0.2 -1.95,-0.09 -0.68,-0.29 -1.15,-0.74 -1.41,-1.35 -0.26,-0.61 -0.32,-1.39 -0.18,-2.35 0.14,-0.96 0.49,-2.08 1.05,-3.37 0.55,-1.27 1.1,-2.27 1.67,-3 0.57,-0.73 1.16,-1.19 1.78,-1.39 0.62,-0.2 1.27,-0.15 1.94,0.14 0.68,0.29 1.16,0.73 1.44,1.31 0.28,0.58 0.36,1.33 0.22,2.24 z M 412.75,625.18 h 5.76 v 8.07 h 8.06 v -8.07 h 5.76 v 22.09 h -5.76 v -8.83 h -8.06 v 8.83 h -5.76 z m 28.18,0 h 5.76 v 22.09 h -5.76 z m 14.36,0 h 5.76 v 16.9 h 9.14 v 5.19 H 455.3 v -22.09 z m 23.83,20.98 c -1.82,-1 -3.26,-2.38 -4.32,-4.12 -1.06,-1.74 -1.59,-3.68 -1.59,-5.82 0,-2.14 0.53,-4.05 1.59,-5.81 1.06,-1.75 2.5,-3.13 4.32,-4.13 1.82,-1 3.81,-1.51 5.97,-1.51 2.16,0 4.16,0.5 5.99,1.51 1.83,1 3.28,2.38 4.35,4.13 1.07,1.75 1.61,3.69 1.61,5.81 0,2.12 -0.54,4.08 -1.61,5.82 -1.07,1.74 -2.52,3.11 -4.35,4.12 -1.83,1 -3.83,1.51 -5.99,1.51 -2.16,0 -4.16,-0.5 -5.97,-1.51 z m 9.09,-4.55 c 0.91,-0.51 1.63,-1.23 2.16,-2.16 0.52,-0.92 0.79,-2 0.79,-3.23 0,-1.23 -0.26,-2.28 -0.79,-3.21 a 5.524,5.524 0 0 0 -2.16,-2.18 c -0.92,-0.51 -1.94,-0.77 -3.08,-0.77 -1.14,0 -2.23,0.26 -3.13,0.77 -0.9,0.51 -1.61,1.24 -2.12,2.18 -0.51,0.94 -0.77,2.01 -0.77,3.21 0,1.2 0.26,2.31 0.77,3.25 0.51,0.94 1.22,1.66 2.12,2.16 0.9,0.5 1.95,0.75 3.13,0.75 1.18,0 2.16,-0.26 3.08,-0.77 z m 13.18,0.8 h 6.53 l -2.01,10.78 h -4.52 z m 23.22,-17.23 h 5.76 v 8.07 h 8.06 v -8.07 h 5.76 v 22.09 h -5.76 v -8.83 h -8.06 v 8.83 h -5.76 z m 34.52,-0.4 h 1.84 l 10.04,22.49 h -6.19 l -2.81,-6.39 -3.35,-8.9 h 2.81 l -3.38,8.9 -2.81,6.39 h -6.19 z m -4.85,16.03 h 11.71 v 4.62 h -11.71 z m 18.2,-15.63 h 6.43 l 5.12,13.02 h -2.04 l 6.16,-13.42 h 1.84 l 6.16,13.42 h -2.04 l 5.12,-13.02 h 6.43 l -9.1,22.49 h -1.84 l -6.76,-13.85 h 2.24 l -6.76,13.85 h -1.84 l -9.1,-22.49 z m 44.68,-0.4 H 619 l 10.04,22.49 h -6.19 l -2.81,-6.39 -3.35,-8.9 h 2.81 l -3.38,8.9 -2.81,6.39 h -6.19 z m -4.86,16.03 h 11.71 v 4.62 H 612.3 Z m 21.64,-15.63 h 5.76 v 22.09 h -5.76 z m 14.35,0 h 5.76 v 22.09 h -5.76 z"
       fill="#c1a97d"
       stroke-width="0px"
       id="path6"
       style="fill:#ffffff" />
    <path
       d="m 683.01,304.41 c 2.5,0.36 4.36,1.17 4.36,3.22 0,2.31 -1.69,3.19 -1.69,5.35 0,2.16 1.43,3.48 4.69,3.48 5.9,0 16.85,-7.01 16.85,-20.15 0,-10.4 -6.55,-16.67 -18.78,-16.67 -10.14,0 -17.56,4.71 -17.57,13.58 0,8.11 5.71,10.26 12.14,11.19 z M 452.37,427.75 c 12.52,0 19.89,-8.35 19.89,-20.09 0,-9.94 -9.87,-5.89 -9.87,-16.51 0,-9.08 0.99,-32.75 0.99,-41.36 0,-9.44 -4.72,-15.56 -16.98,-15.56 -12.26,0 -23.9,5.71 -23.9,14.57 0,10.31 8.31,11.52 8.31,20.13 0,8.61 -0.99,25.98 -0.99,35.8 0,14.87 8.06,23.03 22.56,23.03 z m -6.4,-99.55 c 12.93,0.05 19.25,-4.51 19.29,-14.94 0.04,-10.43 -6.25,-15.03 -19.18,-15.08 -12.93,-0.05 -19.25,4.51 -19.29,14.94 -0.04,10.43 6.25,15.03 19.18,15.08 z m 126.68,62.95 c 0,-12.78 1.98,-40.02 1.98,-53.85 0,-16.56 -10.09,-28.05 -27.49,-28.05 -14.42,0 -21.53,9.06 -26.76,16.36 -1.01,1.4 -1.72,2.22 -3.11,2.22 -1.39,0 -1.97,-1.16 -1.97,-2.46 0,-1.41 0.07,-2.36 0.06,-3.5 -0.08,-6.83 -3.32,-12.4 -15.08,-12.4 -12.8,0 -22.9,5.71 -22.9,14.57 0,10.31 8.31,11.52 8.31,20.13 v 50.65 c 0,10.94 -6.99,10.81 -6.99,20.65 0,7.86 5.67,12.78 22.8,12.78 17.13,0 22.8,-4.92 22.8,-12.78 0,-9.83 -6.99,-9.71 -6.99,-20.65 v -40.81 c 0,-11.07 6.31,-16.64 14.17,-16.64 6.53,0 10.11,4.12 10.11,11.6 0,11.46 -1.49,42.62 -1.49,55.75 0,14.87 6,23.03 22.56,23.03 12.52,0 19.89,-8.35 19.89,-20.09 0,-9.94 -9.87,-5.89 -9.87,-16.51 z m 88.45,-81.68 c -10.57,0 -13.48,4.77 -13.54,10.59 0,1.48 0.06,1.53 0.06,2.72 0,1.35 -0.83,2.38 -2.22,2.38 -1.39,0 -2.1,-0.75 -2.86,-2.06 -4.77,-8.27 -11.39,-13.86 -24.1,-13.86 -18.02,0 -31.19,15.53 -31.19,47.3 0,31.77 13.17,44.67 32.86,44.67 9,0 15.45,-2.67 19.7,-7.43 1.9,-2.13 2.53,-3.24 3.95,-3.24 1.42,0 1.87,1.52 1.87,3.75 v 10.45 c 0,15.43 -4.87,21.81 -13.08,21.81 -6.87,0 -8.21,-3.29 -8.21,-7.52 0,-7.55 -4.53,-13.13 -16.99,-13.13 -12.46,0 -17,5.72 -17,14.6 0,12.79 13.72,22.05 40.06,22.05 30.56,0 46.83,-14.01 46.83,-45.26 v -50.65 c 0,-11.5 5.33,-13.95 5.33,-22.01 0,-8.06 -10.85,-15.17 -21.46,-15.17 z m -15.47,55.1 c 0,8.8 -3.34,15.86 -12.44,15.86 h -0.08 c -8.07,0 -12.55,-6.46 -12.55,-23.88 0,-17.42 4.49,-23.88 12.55,-23.88 h 0.08 c 9.1,0 12.44,7.06 12.44,15.86 z m 103.18,35.12 c 0,7.71 -5.51,12.71 -13.79,12.71 -7.35,0 -10.96,-3.42 -10.96,-7.55 0,-2.12 0.53,-3.7 0.53,-5.91 0,-7.06 -5.45,-12.56 -18.2,-12.56 -12.75,0 -17.41,6.34 -17.41,15.43 0,13.09 13.26,27.04 44.71,27.04 27.54,0 45.56,-14.47 45.56,-37.42 0,-19.97 -11.05,-28.01 -34.39,-36.69 -20.85,-7.75 -24.02,-11.6 -24.02,-17.8 0,-7.04 5.08,-11.61 12.64,-11.61 6.71,0 10.38,2.66 10.38,6.48 0,1.57 -0.43,3.48 -0.43,5.46 0,6.81 4.91,12.05 17.1,12.05 12.19,0 16.63,-6.06 16.63,-14.74 0,-12.5 -14.62,-25.7 -41.99,-25.7 -28.94,0 -44.42,16.95 -44.42,36.33 0,19.38 11.88,27.7 35.4,35.89 19.53,6.8 22.64,11.52 22.64,18.6 z M 418.33,295.26 c 0,-7.86 -6.82,-11.74 -24.1,-11.74 -17.28,0 -24.1,3.88 -24.1,11.74 0,9.68 6.05,10.58 6.22,16.97 0.09,3.29 -1.85,7.93 -7.96,14.59 -6.29,6.87 -17.05,18.02 -21.6,20.96 -0.93,0.6 -1.69,0.8 -2.32,0.8 -1.77,0 -2.68,-1.23 -2.68,-3.2 v -27.66 c 0,-11.52 7.63,-12.7 7.63,-22.47 0,-7.86 -6.95,-11.74 -24.56,-11.74 -17.61,0 -24.56,3.88 -24.56,11.74 0,9.77 7.63,10.95 7.63,21.98 v 77.23 c 0,11.03 -7.63,12.21 -7.63,21.98 0,7.86 6.95,11.74 24.56,11.74 17.61,0 24.56,-3.88 24.56,-11.74 0,-9.77 -7.63,-10.95 -7.63,-22.47 l -0.02,-18.26 c 0,-2.18 0.48,-3.3 1.78,-4.68 2.59,-2.78 8.24,-8.26 12.54,-11.57 2.12,-1.63 3.92,-0.94 5.35,0.73 5.82,6.79 16.67,25.27 16.67,37.22 0,8.08 -5.94,9.14 -5.94,19.03 0,7.95 7.02,11.74 24.83,11.74 17.81,0 25.29,-5.5 25.29,-12.79 0,-10.26 -7.74,-11.62 -9.38,-21.56 -3.99,-24.25 -18.08,-45.63 -28.16,-56.24 -1.76,-1.85 -1.91,-3.66 0.88,-6.51 l 7.37,-8.07 c 13.7,-14.99 25.32,-15.74 25.32,-27.76 z m 501.84,247.42 c 0,-12.78 1.98,-40.02 1.98,-53.85 0,-16.56 -10.09,-28.05 -27.49,-28.05 -14.42,0 -21.53,9.06 -26.76,16.36 -1.01,1.4 -1.72,2.22 -3.11,2.22 -1.39,0 -1.97,-1.16 -1.97,-2.46 0,-1.41 0.07,-2.36 0.06,-3.5 -0.08,-6.83 -3.32,-12.4 -15.08,-12.4 -12.8,0 -22.9,5.71 -22.9,14.57 0,10.31 8.31,11.52 8.31,20.13 v 50.65 c 0,10.94 -6.99,10.81 -6.99,20.65 0,7.86 5.67,12.78 22.8,12.78 17.13,0 22.8,-4.92 22.8,-12.78 0,-9.83 -6.99,-9.71 -6.99,-20.65 v -40.81 c 0,-11.07 6.31,-16.64 14.17,-16.64 6.53,0 10.11,4.12 10.11,11.6 0,11.46 -1.49,42.62 -1.49,55.75 0,14.87 6,23.03 22.56,23.03 12.52,0 19.89,-8.35 19.89,-20.09 0,-9.94 -9.87,-5.89 -9.87,-16.51 z m -275.48,37.1 c 12.52,0 19.89,-8.35 19.89,-20.09 0,-9.94 -9.87,-5.89 -9.87,-16.51 0,-9.08 0.99,-32.75 0.99,-41.36 0,-9.44 -4.72,-15.56 -16.98,-15.56 -12.26,0 -23.9,5.71 -23.9,14.57 0,10.31 8.31,11.52 8.31,20.13 0,8.61 -0.99,25.98 -0.99,35.8 0,14.87 8.06,23.03 22.56,23.03 z m -6.39,-99.55 c 12.93,0.05 19.25,-4.51 19.29,-14.94 0.04,-10.43 -6.25,-15.03 -19.18,-15.08 -12.93,-0.05 -19.25,4.51 -19.29,14.94 -0.04,10.43 6.25,15.03 19.18,15.08 z m -34.93,62.95 v -46.73 c 0,-24.43 -16.31,-36.04 -41.69,-36.04 -32.74,0 -43.81,16.92 -43.81,29.87 0,8.99 5.78,14.41 17.22,14.43 11.99,0.03 17.42,-5.56 17.42,-13.2 0,-3.21 -0.89,-4.49 -0.89,-7.67 0,-3.43 2.5,-6.98 8.55,-6.98 6.05,0 11.59,3.1 11.59,14.17 v 10.88 c 0,3 -0.33,5.16 -4.5,5.5 -37.08,2.98 -50.9,12.38 -50.9,39.13 0,21.21 11.13,33.76 31.19,33.76 13.92,0 19.22,-5.02 22.88,-11.32 1.68,-2.88 2.21,-4.09 3.7,-4.09 1.38,0 1.86,1.08 2.69,4.38 1.87,7.42 7.26,10.54 16.52,10.54 12.52,0 19.89,-8.35 19.89,-20.09 0,-9.94 -9.87,-5.89 -9.87,-16.51 z m -31.6,0.76 c 0,7.48 -2.96,13.49 -11.02,13.49 -8.06,0 -11.06,-5.68 -11.06,-16.37 0,-16.75 11.63,-20.26 18.18,-20.26 2.81,0 3.91,1.36 3.91,3.83 v 19.32 z m -202.68,15.74 c 0,-9.94 -9.87,-5.89 -9.87,-16.51 v -46.73 c 0,-24.43 -16.24,-36.04 -42.19,-36.04 -33.57,0 -44.31,16.92 -44.31,29.87 0,8.99 5.78,14.41 17.22,14.43 11.99,0.03 17.42,-5.56 17.42,-13.2 0,-3.21 -0.89,-4.49 -0.89,-7.67 0,-3.43 3.01,-6.98 9.06,-6.98 6.05,0 12.1,3.1 12.1,14.17 v 10.88 c 0,3 -0.33,5.16 -4.5,5.5 -37.08,2.98 -50.9,12.38 -50.9,39.13 0,21.21 11.13,33.76 31.19,33.76 13.92,0 19.22,-5.02 22.88,-11.32 1.68,-2.88 2.21,-4.09 3.7,-4.09 1.38,0 1.86,1.08 2.69,4.38 1.87,7.42 7.26,10.54 16.52,10.54 12.52,0 19.89,-8.35 19.89,-20.09 z m -41.47,-15.74 c 0,7.48 -2.96,13.49 -11.02,13.49 -8.06,0 -11.06,-5.68 -11.06,-16.37 0,-16.75 11.63,-20.26 18.18,-20.26 2.81,0 3.91,1.36 3.91,3.83 v 19.32 z m 492.19,15.74 c 0,-9.94 -9.87,-5.89 -9.87,-16.51 v -46.73 c 0,-24.43 -16.24,-36.04 -42.19,-36.04 -33.57,0 -44.31,16.92 -44.31,29.87 0,8.99 5.78,14.41 17.22,14.43 11.99,0.03 17.42,-5.56 17.42,-13.2 0,-3.21 -0.89,-4.49 -0.89,-7.67 0,-3.43 3.01,-6.98 9.06,-6.98 6.05,0 12.1,3.1 12.1,14.17 v 10.88 c 0,3 -0.33,5.16 -4.5,5.5 -37.08,2.98 -50.9,12.38 -50.9,39.13 0,21.21 11.13,33.76 31.19,33.76 13.92,0 19.22,-5.02 22.88,-11.32 1.68,-2.88 2.21,-4.09 3.7,-4.09 1.38,0 1.86,1.08 2.69,4.38 1.87,7.42 7.26,10.54 16.52,10.54 12.52,0 19.89,-8.35 19.89,-20.09 z m -41.48,-15.74 c 0,7.48 -2.96,13.49 -11.02,13.49 -8.06,0 -11.06,-5.68 -11.06,-16.37 0,-16.75 11.63,-20.26 18.18,-20.26 2.81,0 3.91,1.36 3.91,3.83 v 19.32 z M 223.39,469.51 c 0,-11.52 -7.63,-12.7 -7.63,-22.47 0,-7.86 6.95,-11.74 24.56,-11.74 17.62,0 24.56,3.88 24.56,11.74 0,9.77 -7.63,10.95 -7.63,21.98 v 77.23 c 0,11.03 7.63,12.21 7.63,21.98 0,7.86 -6.95,11.74 -24.56,11.74 -17.62,0 -24.56,-3.88 -24.56,-11.74 0,-9.77 7.63,-10.95 7.63,-22.47 v -30.47 c 0,-2.3196 -1.8804,-4.2 -4.2,-4.2 h -26.34 c -2.3196,0 -4.2,1.8804 -4.2,4.2 v 30.47 c 0,11.52 7.63,12.7 7.63,22.47 0,7.86 -6.95,11.74 -24.56,11.74 -17.61,0 -24.56,-3.88 -24.56,-11.74 0,-9.77 7.63,-10.95 7.63,-21.98 v -77.23 c 0,-11.03 -7.63,-12.21 -7.63,-21.98 0,-7.86 6.95,-11.74 24.56,-11.74 17.61,0 24.56,3.88 24.56,11.74 0,9.77 -7.63,10.95 -7.63,22.47 v 19.23 c 0,2.3196 1.8804,4.2 4.2,4.2 h 26.34 c 2.3196,0 4.2,-1.8804 4.2,-4.2 z m 257.06,74.27 c -0.77,3.26 -1.28,4.13 -2.4,4.13 -1.12,0 -1.79,-1.01 -2.58,-4.13 -2.72,-10.66 -9.96,-43.44 -10.75,-51.83 -0.9,-9.53 4.69,-8.25 4.69,-18.56 0,-7.52 -6.45,-12.38 -21.72,-12.38 -15.28,0 -21.72,4.86 -21.72,12.38 0,10.31 5.55,9.03 4.65,18.56 -0.79,8.39 -8.04,41.17 -10.75,51.83 -0.8,3.12 -1.46,4.13 -2.58,4.13 -1.12,0 -1.64,-0.86 -2.4,-4.13 -1.75,-7.43 -7.19,-34.62 -7.98,-48.85 -0.65,-11.72 7.45,-9.77 7.45,-21.05 0,-8.25 -5.11,-12.88 -23.38,-12.88 -18.27,0 -23.74,4.63 -23.74,12.88 0,10.31 5.94,7.57 7.61,21.05 2.38,19.18 6.82,46.52 11.32,66.48 3.45,15.29 10.67,18.38 22.37,18.38 11.81,0 18.35,-3.41 21.67,-16.76 2.96,-11.85 6.08,-26.18 7.7,-36.21 0.6,-3.72 1.06,-4.84 2.44,-4.84 1.37,0 1.69,1.12 2.29,4.84 1.39,10.02 4.17,24.35 6.84,36.21 3.01,13.34 9.47,16.76 21.27,16.76 11.7,0 17.93,-3.36 22.37,-18.38 4.33,-18.18 8.77,-42.03 11.53,-60.51 2.21,-14.81 8.51,-16.93 8.51,-27.52 0,-8.58 -5.62,-12.38 -15.91,-12.38 -10.29,0 -16.21,3.8 -16.21,12.38 0,11.27 7.41,9.81 7.41,21.54 0,9.08 -6.23,41.42 -7.98,48.85 z m 210.41,-63.55 c 12.93,0.05 19.25,-4.51 19.29,-14.94 0.04,-10.43 -6.25,-15.03 -19.18,-15.08 -12.93,-0.05 -19.25,4.51 -19.29,14.94 -0.04,10.43 6.25,15.03 19.18,15.08 z m 6.4,99.55 c 12.52,0 19.89,-8.35 19.89,-20.09 0,-9.94 -9.87,-5.89 -9.87,-16.51 0,-9.08 0.99,-32.75 0.99,-41.36 0,-9.44 -4.72,-15.56 -16.98,-15.56 -12.26,0 -23.9,5.71 -23.9,14.57 0,10.31 8.31,11.52 8.31,20.13 0,8.61 -0.99,25.98 -0.99,35.8 0,14.87 8.06,23.03 22.56,23.03 z"
       fill="#ff6700"
       stroke-width="0px"
       id="path8"
       sodipodi:nodetypes="cssssscccsssssssccssssscsscsscssssssssssssssccccsscssscsssssssssssccsssssssscssssssscssssssssccccsscccssssssssssscccccsssscccccccsscsscsssssssssssssscccsssssssccssssscssscssssscsscscsscccsssscccsssscssssscsscscscccsssscccsssscssssscsscscscccssssccssssssssssssssssssssssssssssscsccsssccsccsssccsccsccsccssssccssssscssssssscc"
       style="fill:#ffffff" />
  </g>
</svg>
