<?xml version="1.0" encoding="UTF-8"?>
<svg width="167px" height="34px" viewBox="0 0 167 34" version="1.1" xmlns="http://www.w3.org/2000/svg" xmlns:xlink="http://www.w3.org/1999/xlink">
    <!-- Generator: Sketch 51.1 (57501) - http://www.bohemiancoding.com/sketch -->
    <title>KitchA&amp;COriginalEditable</title>
    <desc>Created with Sketch.</desc>
    <defs></defs>
    <g id="Symbols" stroke="none" stroke-width="1" fill="none" fill-rule="evenodd">
        <g id="nav-bar" transform="translate(-1.000000, 0.000000)">
            <g transform="translate(1.000000, 0.000000)" id="KitchA&amp;COriginalEditable">
                <g>
                    <g id="Kitch" transform="translate(37.000000, 0.000000)" fill="#000000" fill-rule="nonzero">
                        <path d="M7.4303927,15.7584848 C8.81614292,14.456697 14.8441564,8.15330303 17.6156568,5.34418182 C20.3178698,2.60357576 20.4564448,2.19248485 20.4564448,1.64436364 C20.4564448,1.30178788 20.2485823,0.959212121 19.9021447,0.822181818 C19.5557072,0.685151515 19.4864196,0.616636364 19.4864196,0.411090909 C19.4864196,0.205545455 19.7635697,0.137030303 20.1792948,0.137030303 C21.4957575,0.137030303 21.3571825,0.274060606 22.8815077,0.274060606 C24.2672579,0.274060606 26.9001833,0.137030303 27.5930585,0.137030303 C28.2166461,0.137030303 28.3552211,0.274060606 28.3552211,0.411090909 C28.3552211,0.616636364 28.2859336,0.685151515 27.8702085,0.753666667 C27.0387584,0.822181818 26.2073082,1.02772727 25.5837206,1.30178788 C24.4751205,1.71287879 23.6436703,2.261 20.9414574,4.79606061 C16.9920692,8.56439394 11.9340809,13.4974848 10.7561932,14.7992727 C13.5276937,17.8139394 21.6343325,25.9672424 23.7822453,27.9541818 C27.4544834,31.3114242 28.9788087,32.3391515 31.1267215,32.6817273 C31.5424466,32.7502424 31.9581717,32.8187576 32.4431842,32.8187576 C32.7896218,32.8187576 33.0667718,32.8872727 33.0667718,33.0928182 C33.0667718,33.2983636 32.8589093,33.4353939 32.3738967,33.4353939 L29.0480962,33.4353939 C25.1679956,33.4353939 24.1286829,32.9557879 22.0500576,31.3114242 C19.3478446,29.2559697 11.3797808,20.7600909 7.4303927,16.1010606 L7.4303927,20.6230606 C7.4303927,24.871 7.4303927,28.2967576 7.63825523,30.1466667 C7.77683026,31.4484545 8.0539803,32.4076667 9.37044301,32.544697 C9.99403061,32.6132121 10.8947683,32.7502424 11.1719183,32.7502424 C11.5876434,32.7502424 11.7262184,32.9557879 11.7262184,33.024303 C11.7262184,33.2298485 11.5183559,33.3668788 11.0333433,33.3668788 C8.60828039,33.3668788 5.76749243,33.2298485 5.5596299,33.2298485 C5.35176736,33.2298485 2.71884194,33.3668788 1.40237923,33.3668788 C0.917366648,33.3668788 0.709504115,33.2983636 0.709504115,33.024303 C0.709504115,32.8872727 0.778791626,32.7502424 1.19451669,32.7502424 C1.47166674,32.7502424 1.95667932,32.6817273 2.37240438,32.6132121 C3.27314203,32.4076667 3.55029207,31.4484545 3.6888671,30.1466667 C3.89672963,28.2967576 3.89672963,24.8024848 3.89672963,20.6230606 L3.89672963,12.8808485 C3.89672963,6.02933333 3.89672963,4.79606061 3.82744212,3.35724242 C3.75815461,1.84990909 3.27314203,1.09624242 2.30311687,0.89069697 C1.81810429,0.753666667 0.986654159,0.685151515 0.709504115,0.685151515 C0.363066559,0.685151515 0.224491536,0.616636364 0.224491536,0.411090909 C0.224491536,0.137030303 0.43235407,0.0685151515 0.917366648,0.0685151515 C2.37240438,0.0685151515 5.35176736,0.205545455 5.62891741,0.205545455 C5.83677994,0.205545455 8.6775679,0.0685151515 9.99403061,0.0685151515 C10.4790432,0.0685151515 10.6869057,0.137030303 10.6869057,0.342575758 C10.6869057,0.548121212 10.6176182,0.616636364 10.2018931,0.685151515 C9.71688057,0.753666667 9.64759306,0.753666667 9.23186799,0.753666667 C8.0539803,0.89069697 7.70754275,1.78139394 7.56896772,3.28872727 C7.49968021,4.72754545 7.49968021,5.96081818 7.49968021,12.8123333 L7.49968021,15.7584848 L7.4303927,15.7584848 Z" id="Shape"></path>
                        <path d="M35.2839722,15.9640303 C35.2839722,10.1402424 35.2839722,9.11251515 35.2146847,7.87924242 C35.1453972,6.71448485 34.8682471,6.02933333 33.898222,5.82378788 C33.4824969,5.75527273 33.1360594,5.75527273 32.8589093,5.68675758 C32.5124718,5.61824242 32.3738967,5.54972727 32.3738967,5.41269697 C32.3738967,5.20715152 32.5817593,5.07012121 33.0667718,5.07012121 C34.4525221,5.07012121 37.01616,5.20715152 37.0854475,5.20715152 C37.29331,5.20715152 39.8569479,5.07012121 41.1041231,5.07012121 C41.5198482,5.07012121 41.7969983,5.13863636 41.7969983,5.41269697 C41.7969983,5.61824242 41.6584232,5.68675758 41.3119857,5.68675758 C41.0348356,5.75527273 40.8269731,5.75527273 40.4805355,5.75527273 C39.1640728,5.96081818 39.0254978,6.57745455 38.9562103,7.87924242 C38.8869228,9.044 38.8869228,10.0717273 38.8869228,15.8955152 L38.8869228,22.4729697 C38.8869228,25.8302121 38.8176353,28.9133939 39.0947853,30.5577576 C39.3026478,31.8595455 39.4412229,32.3391515 40.6191106,32.6132121 C41.1734107,32.7502424 42.1434358,32.8187576 42.2820108,32.8187576 C42.6977359,32.8872727 42.7670234,32.9557879 42.7670234,33.0928182 C42.7670234,33.2983636 42.5591609,33.4353939 42.1434358,33.4353939 C39.8569479,33.4353939 37.29331,33.2983636 37.0854475,33.2983636 C36.9468725,33.2983636 34.313947,33.4353939 33.0667718,33.4353939 C32.6510468,33.4353939 32.3738967,33.3668788 32.3738967,33.0928182 C32.3738967,32.8872727 32.5817593,32.8187576 32.9281968,32.8187576 C33.1360594,32.8187576 33.6210719,32.7502424 33.9675095,32.6817273 C34.7296721,32.4761818 34.8682471,31.654 35.0068222,30.5577576 C35.2146847,28.9819091 35.2146847,25.8302121 35.2146847,22.5414848 L35.2146847,15.9640303 L35.2839722,15.9640303 Z" id="Shape"></path>
                        <path d="M58.7724385,22.5414848 C58.7724385,25.8987273 58.841726,29.0504242 58.980301,30.6947879 C59.118876,31.7225152 59.1881636,32.3391515 60.2967637,32.6132121 C60.8510638,32.7502424 61.682514,32.8187576 62.0289515,32.8187576 C62.3753891,32.8187576 62.5832516,32.9557879 62.5832516,33.0928182 C62.5832516,33.2983636 62.4446766,33.4353939 62.0289515,33.4353939 C59.7424637,33.4353939 57.1095382,33.2983636 56.9709632,33.2983636 C56.8323882,33.2983636 54.1994628,33.4353939 53.0215751,33.4353939 C52.5365625,33.4353939 52.3287,33.3668788 52.3287,33.0928182 C52.3287,32.9557879 52.467275,32.8187576 52.8137125,32.8187576 C53.1601501,32.8187576 53.4373001,32.8187576 53.7837377,32.7502424 C54.6151878,32.6132121 54.7537628,32.0650909 54.9616254,30.5577576 C55.1694879,28.9819091 55.1694879,25.8302121 55.1694879,22.4729697 L55.1694879,6.85151515 C53.7144502,6.85151515 51.3586748,6.85151515 49.5571995,6.9200303 C46.7164115,6.98854545 46.0928239,7.39963636 45.4692363,8.35884848 C45.0535113,8.97548485 44.9149363,9.52360606 44.7763612,9.72915152 C44.6377862,10.0032121 44.5684987,10.0717273 44.3606362,10.0717273 C44.1527736,10.0717273 44.1527736,9.86618182 44.1527736,9.66063636 C44.0834861,9.38657576 44.7763612,6.50893939 45.0535113,5.27566667 C45.1920863,4.72754545 45.3306613,4.59051515 45.4692363,4.59051515 C45.8156739,4.59051515 46.647124,5.00160606 47.4092867,5.07012121 C48.9336119,5.27566667 50.1807871,5.27566667 50.2500746,5.27566667 L64.8697395,5.27566667 C66.1169147,5.27566667 67.4333774,5.20715152 68.056965,5.07012121 C68.6112651,4.93309091 68.7498401,4.86457576 68.8884151,4.86457576 C69.0962777,4.86457576 69.1655652,5.07012121 69.1655652,5.27566667 C69.1655652,6.50893939 69.0962777,9.38657576 69.0962777,9.79766667 C69.0962777,10.2087576 68.8884151,10.3457879 68.7498401,10.3457879 C68.5419776,10.3457879 68.4726901,10.1402424 68.4726901,9.79766667 C68.4726901,9.66063636 68.4726901,9.59212121 68.4034025,9.1810303 C68.19554,7.39963636 67.6412399,6.98854545 63.1375517,6.9200303 C61.4746514,6.9200303 60.0889012,6.85151515 58.7724385,6.85151515 L58.7724385,22.5414848 Z" id="Shape"></path>
                        <path d="M74.7778536,29.9411212 C70.9670405,26.6523939 69.9970153,22.3359394 69.9970153,18.7046364 C69.9970153,16.2380909 70.9670405,11.8531212 74.5007035,8.56439394 C76.9257664,6.30339394 80.528717,4.6590303 86.487443,4.6590303 C88.5660683,4.6590303 90.1596811,4.86457576 92.3768814,5.13863636 C93.8319192,5.34418182 95.2176694,5.54972727 96.3262696,5.61824242 C96.6727071,5.61824242 96.7419946,5.82378788 96.7419946,6.02933333 C96.7419946,6.37190909 96.6034196,6.783 96.5341321,8.15330303 C96.4648446,9.38657576 96.4648446,11.6475758 96.4648446,12.195697 C96.3955571,12.8123333 96.3262696,13.0178788 96.118407,13.0178788 C95.7719695,13.0178788 95.7719695,12.7438182 95.7719695,12.195697 C95.7719695,10.8939091 95.1483819,9.1810303 94.0397817,8.35884848 C92.723319,7.19409091 89.605381,6.09784848 86.1410054,6.09784848 C81.2215921,6.09784848 78.9351043,7.46815152 77.6186415,8.63290909 C74.7085661,11.2364848 74.0849785,14.3881818 74.0849785,18.2935455 C74.0849785,25.6246667 80.1129919,32.0650909 87.9424807,32.0650909 C90.9911312,32.0650909 93.2083316,31.7225152 94.7326568,30.283697 C95.5641069,29.4615152 95.979832,28.3652727 96.1876945,27.132 C96.256982,26.7209091 96.3955571,26.4468485 96.6727071,26.4468485 C96.8805696,26.4468485 96.8805696,26.7209091 96.8805696,27.0634848 C96.8805696,27.4060606 96.3262696,30.9688485 95.979832,31.9280606 C95.702682,32.6132121 95.5641069,32.7502424 94.9405193,33.024303 C93.4161941,33.7094545 90.3675436,33.915 87.8731932,33.915 C81.9144672,33.915 77.8957916,32.6132121 74.7778536,29.9411212 Z" id="Shape"></path>
                        <path d="M122.031936,16.9232424 C122.170511,16.9232424 122.309086,16.9232424 122.309086,16.717697 L122.309086,15.8955152 C122.309086,10.0717273 122.309086,9.044 122.239799,7.87924242 C122.170511,6.71448485 121.962649,6.09784848 120.507611,5.82378788 C120.161173,5.75527273 119.745448,5.75527273 119.399011,5.75527273 C119.121861,5.75527273 118.844711,5.61824242 118.844711,5.48121212 C118.844711,5.20715152 119.052573,5.13863636 119.468298,5.13863636 C121.339061,5.13863636 123.971987,5.27566667 124.179849,5.27566667 C124.387712,5.27566667 126.882062,5.13863636 128.198525,5.13863636 C128.61425,5.13863636 128.8914,5.20715152 128.8914,5.48121212 C128.8914,5.61824242 128.752825,5.75527273 128.406387,5.75527273 C128.129237,5.75527273 127.7828,5.82378788 127.50565,5.82378788 C126.327762,6.02933333 126.119899,6.71448485 126.050612,7.94775758 C125.981324,9.11251515 125.981324,10.1402424 125.981324,15.9640303 L125.981324,22.5414848 C125.981324,26.1727879 125.981324,28.9819091 126.189187,30.6262727 C126.327762,31.654 126.535624,32.544697 127.713512,32.6817273 C128.267812,32.7502424 128.8914,32.8187576 129.237837,32.8187576 C129.584275,32.8187576 129.792137,32.9557879 129.792137,33.0928182 C129.792137,33.2983636 129.584275,33.4353939 129.099262,33.4353939 C126.882062,33.4353939 124.318424,33.2983636 124.041274,33.2983636 C123.833412,33.2983636 121.269774,33.4353939 120.091886,33.4353939 C119.676161,33.4353939 119.399011,33.3668788 119.399011,33.0928182 C119.399011,32.9557879 119.537586,32.8187576 119.884023,32.8187576 C120.230461,32.8187576 120.576898,32.8187576 120.923336,32.7502424 C121.685499,32.6132121 121.893361,31.654 122.031936,30.6262727 C122.239799,29.0504242 122.239799,26.241303 122.239799,22.6785152 L122.239799,18.7731515 C122.239799,18.5676061 122.101224,18.4990909 121.962649,18.4990909 L105.818659,18.4990909 C105.680084,18.4990909 105.610796,18.5676061 105.610796,18.7731515 L105.610796,22.6785152 C105.610796,26.241303 105.610796,29.1189394 105.818659,30.6947879 C105.957234,31.654 106.165096,32.544697 107.342984,32.6817273 C107.897284,32.7502424 108.590159,32.8187576 108.936597,32.8187576 C109.283034,32.8187576 109.490897,32.9557879 109.490897,33.0928182 C109.490897,33.2983636 109.283034,33.4353939 108.936597,33.4353939 C106.650109,33.4353939 104.017183,33.2983636 103.809321,33.2983636 C103.670746,33.2983636 100.968533,33.4353939 99.7906451,33.4353939 C99.3749201,33.4353939 99.09777,33.3668788 99.09777,33.0928182 C99.09777,32.9557879 99.1670575,32.8187576 99.5827826,32.8187576 C99.9292201,32.8187576 100.275658,32.7502424 100.622095,32.6817273 C101.453545,32.4761818 101.59212,31.654 101.730695,30.6947879 C102.007845,29.1189394 101.938558,26.1727879 101.938558,22.5414848 L101.938558,16.0325455 C101.938558,10.2087576 101.938558,9.044 101.86927,7.87924242 C101.799983,6.71448485 101.453545,5.89230303 100.20637,5.75527273 C99.7906451,5.68675758 99.3749201,5.68675758 99.0284825,5.68675758 C98.6820449,5.68675758 98.5434699,5.54972727 98.5434699,5.41269697 C98.5434699,5.13863636 98.7513325,5.07012121 99.236345,5.07012121 C101.176395,5.07012121 103.324308,5.20715152 103.878608,5.20715152 C104.086471,5.20715152 106.650109,5.07012121 107.897284,5.07012121 C108.313009,5.07012121 108.590159,5.13863636 108.590159,5.41269697 C108.590159,5.61824242 108.382297,5.68675758 108.174434,5.68675758 C107.966571,5.68675758 107.758709,5.68675758 107.273696,5.75527273 C106.165096,5.96081818 105.887946,6.71448485 105.818659,7.87924242 C105.749371,9.044 105.749371,10.0032121 105.749371,15.827 L105.749371,16.6491818 C105.749371,16.8547273 105.887946,16.8547273 106.026521,16.8547273 L122.031936,16.8547273 L122.031936,16.9232424 Z" id="Shape"></path>
                    </g>
                    <g id="icon" transform="translate(0.000000, 1.000000)">
                        <rect id="Rectangle-path" x="0" y="0" width="33" height="33"></rect>
                        <rect id="Rectangle-path" fill="#FFFFFF" fill-rule="nonzero" x="0" y="0" width="33" height="16"></rect>
                        <polygon id="Shape" fill="#275FA0" fill-rule="nonzero" points="32 16.5 32 33 24.0337553 24.75 16 16.5 24.0337553 8.25 32 0"></polygon>
                        <polygon id="Shape" fill="#275FA0" fill-rule="nonzero" points="0 0 16 0 0 16"></polygon>
                        <polygon id="Shape" fill="#275FA0" fill-rule="nonzero" points="0 16 0 32 17 32"></polygon>
                    </g>
                </g>
            </g>
        </g>
    </g>
</svg>