<svg width="197" height="228" viewBox="0 0 197 228" fill="none" xmlns="http://www.w3.org/2000/svg">
<path d="M129.113 8.4602C129.113 8.4602 129.147 8.4602 129.158 8.4602C130.123 8.35674 130.882 7.58659 130.95 6.62102C130.996 6.16123 130.652 5.75891 130.192 5.71293C130.169 5.71293 130.146 5.71293 130.123 5.71293C129.09 5.7819 128.263 6.60953 128.194 7.64406C128.217 8.12685 128.63 8.49468 129.113 8.47169V8.4602Z" fill="#144A95"/>
<path d="M57.5263 6.31066C57.5263 6.31066 57.6067 6.25319 57.6067 6.2187C57.6067 6.18422 57.4689 6.05778 57.2736 6.05778C54.5742 6.05778 52.1504 8.75906 51.22 10.9891C49.899 14.1271 49.3132 15.5065 47.7395 17.794C46.832 19.1964 45.3043 20.07 43.6387 20.1619C42.9839 20.1619 42.1798 19.8056 42.1798 19.5297C42.1798 19.4493 42.1798 19.3918 42.2717 19.3918C42.5015 19.4722 42.7542 19.5067 43.0069 19.5067C43.6616 19.5067 44.1326 18.6791 44.1326 18.1618C44.1326 17.3342 43.4778 17.0009 42.6738 17.0009C41.617 17.0468 40.7784 17.9204 40.7669 18.9895C40.7669 20.4148 41.8697 21.4723 43.6961 21.4723C46.7057 21.4723 49.2672 19.0699 50.7261 16.8054C53.3795 12.5868 54.5857 8.28777 57.5378 6.31066H57.5263Z" fill="#144A95"/>
<path d="M101.59 5.70144C100.568 5.77041 99.7521 6.58654 99.6602 7.60958C99.6602 8.09236 100.062 8.47169 100.545 8.4602C100.568 8.4602 100.602 8.4602 100.625 8.4602C101.59 8.35674 102.337 7.58659 102.406 6.62102C102.451 6.16123 102.107 5.75891 101.647 5.71293C101.624 5.71293 101.601 5.71293 101.578 5.71293L101.59 5.70144Z" fill="#144A95"/>
<path d="M142.828 9.54071C145.998 8.72458 149.192 5.44855 150.053 3.17257C150.903 2.52886 151.19 2.05757 150.26 1.87366C150.225 1.21845 149.651 0.71268 148.996 0.758659C148.973 0.758659 148.95 0.758659 148.916 0.758659C147.044 0.758659 143.954 4.48298 141.197 8.60963C140.829 8.52917 140.565 8.20731 140.565 7.82798C140.565 7.39118 140.978 7.23025 140.978 7.09231C140.978 6.95437 140.485 6.6785 140.014 6.6785C139.301 6.62102 138.67 7.14979 138.612 7.86247C138.612 7.89695 138.612 7.94293 138.612 7.97741C138.739 8.94298 139.52 9.69014 140.485 9.77061C140.485 9.83958 136.832 15.587 135.74 18.2078C135.097 18.5756 134.397 18.863 133.673 19.0354C133.673 19.0354 133.558 19.0354 133.558 18.9895C133.558 18.9435 133.65 18.932 133.65 18.932C134.351 18.2883 134.787 17.4032 134.856 16.4491C134.856 14.7479 133.397 13.6329 133.397 12.8397C133.386 12.7708 133.386 12.6903 133.397 12.6213C134.27 12.0121 135.522 10.1959 135.522 9.48324C135.522 8.90849 135.212 8.74757 134.89 8.74757C133.903 8.74757 131.777 10.8396 131.915 12.6673C131.732 13.0007 131.513 13.3225 131.284 13.6214L131.226 13.6903C129.882 15.5065 127.344 18.6561 125.448 18.6561C125.058 18.6561 124.816 18.4607 124.816 18.1273C124.816 17.9549 124.862 17.7825 124.954 17.6331C125.919 15.679 126.964 14.1386 128.044 12.2305C128.217 11.9546 128.308 11.6443 128.32 11.3224C128.32 10.7132 127.883 10.2764 127.022 10.2764C126.562 10.2649 126.114 10.3798 125.724 10.6097C125.655 10.6557 125.609 10.7247 125.598 10.8051C125.598 10.9316 125.977 10.9661 125.977 11.4029C125.965 11.6328 125.896 11.8627 125.781 12.0696C125.586 12.4604 124.782 13.8513 123.92 15.3226C122.657 16.9894 121.118 18.7366 120.199 18.7366C119.567 18.7366 119.372 18.4837 119.372 18.0814C119.372 17.9319 119.418 17.794 119.487 17.6676C120.428 15.6215 122.301 13.5294 122.301 11.5523C122.301 10.7247 121.566 10.1729 120.589 10.1729C119.613 10.1729 118.338 10.7477 116.511 12.5409L116.465 12.5868C116.465 12.5868 116.328 12.6788 116.374 12.5868C116.787 12.1385 117.051 11.5638 117.109 10.9661C117.109 10.4488 116.557 10.1384 115.65 10.1384C115.179 10.1384 114.662 10.3109 114.662 10.4948C114.662 10.6787 115.099 10.6672 114.995 11.2879C114.524 12.5409 113.881 13.7248 113.088 14.8168L112.951 15.0467C111.641 16.7825 109.987 18.7021 109.01 18.7021C108.379 18.7021 108.183 18.4492 108.183 18.0469C108.183 17.8975 108.229 17.7595 108.298 17.6331C109.24 15.587 111.113 13.4949 111.113 11.5178C111.113 10.6902 110.377 10.1384 109.413 10.1384C108.31 10.1384 107.15 10.7132 105.335 12.5064L105.289 12.5524C105.289 12.5524 105.151 12.6443 105.208 12.5524C105.622 12.1041 105.875 11.5293 105.944 10.9316C105.944 10.4143 105.392 10.104 104.485 10.104C104.014 10.104 103.497 10.2764 103.497 10.4603C103.497 10.6442 103.933 10.6327 103.83 11.2534C103.485 12.219 103.014 13.1386 102.429 13.9777C101.039 15.8169 98.6723 18.6216 96.8803 18.6216C96.5013 18.6216 96.2486 18.4262 96.2486 18.0929C96.2486 17.9204 96.2945 17.748 96.3864 17.5986C97.3398 15.6445 98.3966 14.1042 99.4649 12.196C99.6372 11.9201 99.7406 11.6098 99.7406 11.2879C99.7406 10.6787 99.3041 10.2419 98.4426 10.2419C97.9831 10.2304 97.5351 10.3453 97.1446 10.5752C97.0756 10.6212 97.0182 10.6902 97.0067 10.7707C97.0067 10.8971 97.3973 10.9316 97.3973 11.3684C97.3858 11.5983 97.3169 11.8282 97.202 12.0351C96.9263 12.6098 95.2952 15.3456 94.1694 17.2997C93.9282 17.702 93.7789 18.1618 93.7559 18.6216C93.7904 19.5412 94.56 20.2654 95.479 20.2309C95.5249 20.2309 95.5708 20.2309 95.6283 20.2309C97.0871 20.2309 98.6149 19.3573 99.9473 18.2078C99.798 18.5412 99.7176 18.8975 99.7061 19.2653C99.7061 19.8516 100.2 20.3229 100.797 20.3114C100.809 20.3114 100.82 20.3114 100.832 20.3114C101.383 20.3229 101.923 20.2079 102.406 19.955C102.486 19.909 102.543 19.8286 102.543 19.7366C102.543 19.6792 102.509 19.6217 102.463 19.5987C102.222 19.4837 102.095 19.1964 102.187 18.9435C102.762 16.5985 105.794 12.196 108.08 12.196C108.379 12.1615 108.654 12.3799 108.689 12.6788C108.689 12.6788 108.689 12.7018 108.689 12.7133C108.689 13.8513 105.852 16.5181 105.852 18.6101C105.852 19.4837 106.483 20.2654 107.804 20.2654C108.976 20.1734 110.079 19.6677 110.917 18.8515C110.883 18.9895 110.871 19.1274 110.871 19.2653C110.871 19.8516 111.365 20.3229 111.963 20.3114C111.974 20.3114 111.986 20.3114 111.997 20.3114C112.548 20.3229 113.088 20.2079 113.571 19.955C113.651 19.909 113.709 19.8286 113.709 19.7366C113.709 19.6792 113.674 19.6217 113.617 19.5987C113.376 19.4722 113.261 19.1964 113.341 18.9435C113.915 16.5985 116.948 12.196 119.234 12.196C119.532 12.1615 119.797 12.3799 119.831 12.6788C119.831 12.6903 119.831 12.7018 119.831 12.7133C119.831 13.8513 117.005 16.5181 117.005 18.6101C117.005 19.4837 117.637 20.2654 118.958 20.2654C120.222 20.1504 121.405 19.5757 122.289 18.6446C122.335 19.5642 123.116 20.2884 124.035 20.2424C124.081 20.2424 124.116 20.2424 124.162 20.2424C125.425 20.1619 126.631 19.6906 127.619 18.8975C127.906 19.7941 129.48 20.4608 131.054 20.4608C132.57 20.4723 134.075 20.1504 135.442 19.5067C135.603 19.9665 136.039 20.2654 136.522 20.2424C137.073 20.2539 137.613 20.1389 138.095 19.8861C138.176 19.8401 138.222 19.7596 138.233 19.6677C138.233 19.6102 138.199 19.5527 138.153 19.5297C137.911 19.4148 137.785 19.1274 137.877 18.8745C138.451 16.5296 141.484 12.1156 143.77 12.1156C144.068 12.0811 144.344 12.2995 144.379 12.5983C144.379 12.6098 144.379 12.6213 144.379 12.6443C144.379 13.7708 141.541 16.4491 141.541 18.5412C141.541 19.4148 142.173 20.1964 143.494 20.1964C145.998 20.1964 148.502 16.8629 149.72 15.0697C150.042 14.6904 150.248 14.2306 150.329 13.7478C150.329 13.4719 150.191 13.1731 150.019 13.1731C149.95 13.1731 149.892 13.2191 149.858 13.288C148.698 14.7479 145.837 18.6446 144.597 18.6446C144.229 18.6791 143.908 18.4147 143.873 18.0469C143.873 18.0239 143.873 18.0009 143.873 17.9779C143.885 17.84 143.919 17.702 143.988 17.5641C144.93 15.518 146.802 13.426 146.802 11.4489C146.802 10.6212 146.067 10.0695 145.102 10.0695C144 10.0695 142.839 10.6442 141.024 12.4374L140.978 12.4949C140.978 12.4949 140.841 12.5753 140.898 12.4949L142.897 9.59819L142.828 9.54071ZM148.181 4.41402C146.986 6.03479 145.412 7.3337 143.586 8.17283C144.402 6.82793 146.458 5.49453 148.181 4.41402ZM129.767 18.909C129.25 18.9435 128.756 18.7251 128.423 18.3343C129.377 17.5181 130.238 16.61 131.008 15.61C131.192 15.3571 131.364 15.1387 131.525 14.9203C131.674 14.7019 132.053 14.1846 132.478 13.5984C132.719 14.1386 132.846 14.7364 132.834 15.3341C132.823 17.1273 131.755 18.909 129.767 18.909Z" fill="#144A95"/>
<path d="M73.6768 16.3112C73.585 16.3112 73.5045 16.3112 73.4127 16.3112C71.9538 16.3112 70.1848 18.7366 68.6226 18.7366C67.6577 18.7366 67.0834 18.2998 67.0834 17.3342C67.0949 16.7135 67.2557 16.1158 67.5543 15.5755C70.8051 15.7134 73.7458 13.5294 73.7458 11.5983C73.7917 10.7936 73.1714 10.104 72.3559 10.058C72.2984 10.058 72.2525 10.058 72.195 10.058C69.2199 10.058 65.9232 13.5869 64.9583 16.4951C63.959 17.6561 62.8677 18.5986 62.0292 18.5986C61.6616 18.5527 61.3974 18.2308 61.4318 17.863C61.4318 16.9204 64.1772 13.6214 64.1772 12.0466C64.2117 11.127 63.4995 10.3453 62.5805 10.3109C62.5576 10.3109 62.5461 10.3109 62.5231 10.3109C60.2946 10.3109 58.3648 12.4259 58.3648 12.4259C58.3648 12.4259 58.25 12.4834 58.25 12.4259L60.6392 8.20731C62.6035 5.23015 62.9251 4.87381 62.9251 4.87381C64.4874 3.97721 66.9455 2.20701 66.9455 0.908092C66.9455 0.908092 67.1064 0 66.3367 0C64.5792 0 63.0055 2.48288 62.2589 3.41397C61.6731 3.94273 60.9264 4.24159 60.1338 4.27608C57.6067 4.27608 54.2755 1.45984 51.1626 1.45984C46.7746 1.41386 43.1332 4.83932 42.9265 9.23035C42.9265 12.5983 45.3732 13.6789 46.7286 13.6789C47.9807 13.6789 49.026 12.7248 49.1524 11.4833C49.1524 10.7132 48.555 10.0695 47.7739 10.0235C47.0503 9.94303 46.407 10.4488 46.3151 11.173C46.3151 11.2419 46.3151 11.3109 46.3151 11.3799C46.3151 11.7362 46.6712 12.242 46.832 12.242C46.9928 12.242 46.9699 12.4604 46.832 12.4604C45.9245 12.4604 44.1326 11.8282 44.1326 9.14989C44.1326 7.21875 46.5334 3.49443 49.8416 3.49443C53.9424 3.49443 55.9526 5.80489 58.7324 5.80489C59.4331 5.77041 60.1338 5.65546 60.8001 5.44855C56.883 10.8856 52.7478 18.3572 52.7478 19.2079C52.7478 20.0585 53.5289 20.2539 53.9654 20.2539C54.4019 20.2539 55.7229 20.116 55.7229 19.7021C55.7229 19.5297 55.1945 19.5872 55.1945 19.0699C55.1945 17.3687 57.6182 14.4375 58.8473 13.2076C59.3987 12.7133 60.3061 11.8857 61.1332 11.8857C61.4663 11.8512 61.765 12.0926 61.7994 12.4259C61.7994 12.4259 61.7994 12.4489 61.7994 12.4604C61.7994 12.6673 61.7305 12.8627 61.6386 13.0351C61.2825 13.7708 59.0541 17.0583 59.0541 18.7136C59.0541 19.6217 59.7892 20.1734 60.8115 20.1734C62.2704 20.1734 63.5569 19.2883 64.6711 18.1733C64.7286 19.6332 65.7969 20.2884 67.1408 20.2884C69.7943 20.2884 71.1957 17.9779 73.1485 17.9779C73.4241 17.9779 73.8377 18.1044 73.8377 18.4952C73.8377 18.6331 73.8377 18.7136 73.9296 18.7136C74.2053 18.7136 74.5843 17.9779 74.5843 17.4721C74.6418 16.8859 74.2167 16.3571 73.6309 16.2882L73.6768 16.3112ZM72.0457 11.081C72.3788 11.035 72.689 11.2764 72.7349 11.6213C72.7349 11.6673 72.7349 11.7017 72.7349 11.7477C72.7349 12.7478 70.4261 14.564 68.1057 14.564C68.8868 13.265 70.8051 11.0925 72.0457 11.0925V11.081Z" fill="#144A95"/>
<path d="M92.343 11.7362C91.7457 11.7592 91.1484 11.9086 90.597 12.15L91.5619 10.1384C92.4694 8.08087 93.9397 6.32216 95.8006 5.06922C95.8465 5.04623 95.8695 5.01175 95.881 4.95427C95.881 4.87381 95.7202 4.81633 95.5249 4.81633C92.6302 4.81633 90.2409 7.35669 88.9429 9.60968C88.3686 10.6787 87.8517 11.7822 87.4037 12.9202H86.7949C84.5664 12.8857 82.7859 11.035 82.8319 8.80504C82.8319 8.78205 82.8319 8.75906 82.8319 8.72458C82.8319 5.58649 85.4739 2.4369 89.77 2.4369C92.6417 2.4369 95.0884 4.0117 97.8223 4.0117C100.556 4.0117 101.785 2.4369 101.785 1.19546C101.785 1.19546 101.785 0.563247 101.395 0.563247C100.591 1.57479 99.35 2.13804 98.0635 2.08056C95.0539 2.08056 92.7451 0.563247 90.218 0.563247C85.5313 0.448298 81.6143 4.11515 81.442 8.80504C81.396 11.7937 83.7968 14.2536 86.7834 14.2996H86.8178C85.4969 17.3342 83.8083 20.1619 80.6724 20.1619C79.9372 20.1619 79.3514 19.7826 79.3514 19.4722C79.3514 19.4033 79.4203 19.3343 79.4892 19.3343C79.6271 19.3343 79.6615 19.3918 79.8798 19.3918C80.5001 19.3688 80.9825 18.8515 80.9825 18.2308C81.0399 17.4721 80.4656 16.8169 79.719 16.771C79.65 16.771 79.5926 16.771 79.5237 16.771C78.4784 16.771 77.6398 17.6216 77.6398 18.6676C77.6398 18.7136 77.6398 18.7596 77.6398 18.817C77.6398 20.3344 78.823 21.5413 80.6953 21.5413C85.1293 21.5413 87.6679 17.9319 89.7585 13.8283C90.2524 13.6099 90.7693 13.4375 91.2977 13.334C91.6768 13.334 91.9869 13.6329 91.9869 14.0122C91.9869 14.0122 91.9869 14.0122 91.9869 14.0237C91.9755 14.38 91.6998 14.6789 91.3552 14.7249C91.2403 14.7249 91.47 15.3226 92.4005 15.3226C93.3309 15.3226 94.0776 14.2191 94.0776 13.334C94.0086 12.4259 93.2505 11.7362 92.343 11.7477V11.7362Z" fill="#144A95"/>
<path d="M12.7734 107.339V27.1738H24.2488V95.8439H46.9699V107.327H12.7734V107.339Z" fill="#00B2E1"/>
<path d="M48.8882 46.0943C48.8882 42.8642 49.451 40.0135 50.5767 37.5421C51.7024 35.0707 53.1957 33.0017 55.0796 31.3464C56.883 29.7716 58.9277 28.5647 61.2136 27.7485C63.4995 26.9209 65.8083 26.5071 68.1287 26.5071C70.449 26.5071 72.7579 26.9209 75.0438 27.7485C77.3297 28.5762 79.4088 29.7716 81.2926 31.3464C83.0961 33.0017 84.5549 35.0592 85.6806 37.5421C86.8064 40.0135 87.3692 42.8757 87.3692 46.0943V88.4297C87.3692 91.8092 86.8064 94.6944 85.6806 97.0968C84.5549 99.4993 83.0961 101.488 81.2926 103.063C79.4203 104.718 77.3297 105.948 75.0438 106.775C72.7579 107.603 70.449 108.017 68.1287 108.017C65.8083 108.017 63.4995 107.603 61.2136 106.775C58.9277 105.948 56.883 104.706 55.0796 103.063C53.2072 101.488 51.7024 99.4993 50.5767 97.0968C49.451 94.6944 48.8882 91.8092 48.8882 88.4297V46.0943ZM60.3636 88.4297C60.3636 91.2115 61.1332 93.2576 62.6724 94.568C64.2117 95.8784 66.0266 96.5336 68.1287 96.5336C70.2308 96.5336 72.0457 95.8784 73.585 94.568C75.1242 93.2576 75.8938 91.2115 75.8938 88.4297V46.0943C75.8938 43.3125 75.1242 41.2664 73.585 39.956C72.0457 38.6456 70.2308 37.9904 68.1287 37.9904C66.0266 37.9904 64.2117 38.6456 62.6724 39.956C61.1332 41.2664 60.3636 43.3125 60.3636 46.0943V88.4297Z" fill="#00B2E1"/>
<path d="M94.9735 107.339V27.1738H106.001L123.323 75.4751H123.541V27.1738H135.017V107.327H124.219L106.667 59.1409H106.449V107.327H94.9735V107.339Z" fill="#00B2E1"/>
<path d="M142.633 46.0943C142.633 42.8642 143.195 40.0135 144.321 37.5421C145.447 35.0707 146.94 33.0017 148.824 31.3464C150.627 29.7716 152.672 28.5647 154.958 27.7485C157.244 26.9209 159.553 26.5071 161.873 26.5071C164.193 26.5071 166.502 26.9209 168.788 27.7485C171.074 28.5762 173.153 29.7716 175.037 31.3464C176.841 33.0017 178.299 35.0592 179.425 37.5421C180.551 40.0135 181.114 42.8757 181.114 46.0943V50.1405H169.638V46.0943C169.638 43.3125 168.869 41.2664 167.329 39.956C165.79 38.6456 163.975 37.9904 161.873 37.9904C159.771 37.9904 157.956 38.6456 156.417 39.956C154.878 41.2664 154.108 43.3125 154.108 46.0943V88.4297C154.108 91.2115 154.878 93.2576 156.417 94.568C157.956 95.8784 159.771 96.5336 161.873 96.5336C163.975 96.5336 165.79 95.8784 167.329 94.568C168.869 93.2576 169.638 91.2115 169.638 88.4297V73.3485H160.529V63.2216H181.114V88.4412C181.114 91.8207 180.551 94.7059 179.425 97.1083C178.299 99.5108 176.841 101.499 175.037 103.074C173.165 104.729 171.074 105.959 168.788 106.787C166.502 107.615 164.193 108.028 161.873 108.028C159.553 108.028 157.244 107.615 154.958 106.787C152.672 105.959 150.627 104.718 148.824 103.074C146.952 101.499 145.447 99.5108 144.321 97.1083C143.195 94.7059 142.633 91.8207 142.633 88.4412V46.0943Z" fill="#00B2E1"/>
<path d="M0 196.194V116.04H16.9891C23.5826 116.04 28.5908 117.845 32.0139 121.443C35.4255 125.041 37.1371 130.156 37.1371 136.754V174.239C37.1371 181.745 35.3222 187.285 31.6808 190.849C28.0395 194.412 22.8129 196.194 15.9897 196.194H0ZM11.4754 126.845V185.389H16.7594C19.9872 185.389 22.2731 184.584 23.617 182.963C24.9725 181.354 25.6387 178.814 25.6387 175.365V136.754C25.6387 133.604 24.9955 131.168 23.7319 129.432C22.4569 127.708 20.1365 126.845 16.7594 126.845H11.4754Z" fill="#00B2E1"/>
<path d="M43.4319 196.194V116.04H61.8798C75.3769 116.04 82.1312 123.88 82.1312 139.57C82.1312 144.295 81.396 148.318 79.9372 151.617C78.4784 154.916 75.9053 157.583 72.2295 159.606L84.6009 196.194H72.4478L61.765 161.974H54.9073V196.194H43.4319ZM54.9073 126.845V151.835H61.4318C63.4535 151.835 65.0732 151.559 66.2678 150.996C67.4624 150.433 68.4044 149.628 69.0821 148.571C69.6794 147.525 70.0929 146.226 70.3227 144.685C70.5524 143.145 70.6558 141.363 70.6558 139.34C70.6558 137.317 70.5409 135.536 70.3227 133.995C70.0929 132.455 69.645 131.122 68.9672 129.995C67.5429 127.891 64.8434 126.845 60.869 126.845H54.9073Z" fill="#00B2E1"/>
<path d="M88.3111 196.194V116.04H99.7865V196.194H88.3111Z" fill="#00B2E1"/>
<path d="M107.104 196.194V116.04H118.131L135.453 164.342H135.683V116.04H147.158V196.194H136.361L118.809 148.007H118.579V196.194H107.104Z" fill="#00B2E1"/>
<path d="M154.131 196.194V116.04H165.606V152.628H165.836L182.595 116.04H194.071L178.437 148.122L197 196.194H184.847L171.798 160.617L165.606 172.216V196.194H154.131Z" fill="#00B2E1"/>
<path d="M33.0478 218.379C34.6904 217.218 36.31 215.172 37.654 212.252C33.9552 212.252 31.8531 209.953 31.8531 207.424C31.8531 204.7 34.3573 202.596 36.4134 202.596C38.4696 202.596 39.0554 203.861 39.0554 204.861C39.0554 205.746 38.3777 206.62 37.4587 206.62C36.758 206.62 36.1148 206.217 36.1148 205.298C36.1148 204.734 36.4938 204.275 36.7121 204.217C36.8155 204.194 36.8959 204.079 36.8959 204.033C36.8959 203.987 36.7925 203.93 36.5398 203.93C35.1154 203.93 33.2201 205.39 33.2201 207.413C33.2201 209.091 34.8397 210.758 37.8608 210.758H38.3202C41.5251 204.01 45.2813 201.389 48.0037 201.389C49.2672 201.389 49.8875 202.413 49.8875 203.516C49.8875 206.539 46.2232 210.988 40.1237 212.229C38.5615 214.976 36.758 217.758 34.4836 219.034C37.5851 220.413 41.0311 223.437 43.9258 223.437C45.3272 223.437 46.0624 222.678 46.0624 222.092C46.0624 221.873 45.959 221.689 45.7982 221.551C45.7408 221.528 46.2347 221.39 46.4185 221.39C47.0962 221.39 47.9807 221.954 47.9807 223.333C47.9807 224.954 46.5563 226.333 44.3394 226.333C39.4574 226.333 36.4708 221.207 32.8525 220.023C31.9106 220.563 29.9348 220.862 28.9125 220.862C28.028 220.862 27.3273 220.344 27.3273 219.724C27.3273 219.103 28.4645 217.999 30.4287 217.999C31.5659 217.999 32.5079 218.183 33.0478 218.402V218.379ZM47.5557 202.7C45.6144 202.7 43.0299 206.528 40.8933 210.447C44.7759 209.608 48.5206 206.125 48.5206 203.677C48.5206 203.056 48.1415 202.711 47.5442 202.711L47.5557 202.7ZM46.8435 218.885C50.2896 218.885 53.8505 213.459 53.8505 213.459C53.9309 213.298 54.31 213.643 54.31 214.08C54.31 214.402 54.2066 214.597 53.9883 214.919C52.0471 217.724 48.9456 220.367 45.4421 220.367C44.0981 220.367 43.0184 219.724 43.0184 218.183C43.0184 215.241 46.9239 210.39 50.3815 210.39C51.3004 210.39 51.8862 210.988 51.8862 211.896C51.8862 213.781 49.003 215.919 45.8212 215.781C45.5225 216.402 45.3617 216.884 45.3617 217.505C45.3617 218.448 45.9245 218.885 46.8435 218.885ZM50.8869 212.034C50.8869 211.677 50.7031 211.39 50.2092 211.39C48.9915 211.39 47.1077 213.517 46.3496 214.792C48.6125 214.792 50.8754 213.011 50.8754 212.045L50.8869 212.034ZM57.5148 221.069C58.698 221.069 59.5939 221.712 59.5939 222.735C59.5939 223.54 58.9162 224.218 58.0547 224.218C57.5378 224.218 57.2162 223.954 57.2162 223.781C57.2162 223.781 57.6182 223.517 57.6182 222.896C57.6182 222.218 56.9175 222.172 56.9175 222.172C55.3323 224.816 52.8741 228 49.3132 228C48.176 228 47.4753 227.379 47.4753 226.379C47.4753 223.253 52.4146 221.195 55.2978 221.011L56.1823 219.425C55.4012 219.988 54.5052 220.367 53.7241 220.367C52.2423 220.367 51.5991 219.31 51.5991 218.183C51.5991 215.241 55.4242 210.413 58.9622 210.413C59.8466 210.413 60.444 210.85 60.7197 211.413C61.317 210.654 61.9602 210.413 62.5001 210.413C63.3042 210.413 63.8211 210.735 63.8211 211.034C63.8211 211.114 63.2812 211.011 62.3623 212.493C61.9832 213.091 59.9385 216.62 59.6629 217.103C59.0426 218.241 58.3189 219.609 57.5033 221.069H57.5148ZM48.4861 226.253C48.4861 226.69 48.7273 227.034 49.3476 227.034C51.4497 227.034 53.8275 224.069 54.712 222.126C52.6329 222.126 48.4861 224.253 48.4861 226.253ZM54.9073 218.666C55.3668 218.666 56.906 218.103 57.825 216.425C58.2615 215.643 59.3642 213.758 59.8237 212.919C59.9041 212.758 59.9615 212.597 59.9615 212.436C59.9615 211.896 59.525 211.378 58.8817 211.378C57.0438 211.378 53.9424 215.586 53.9424 217.367C53.9424 218.252 54.264 218.666 54.9188 218.666H54.9073ZM64.8434 218.885C68.2895 218.885 71.8504 213.459 71.8504 213.459C71.9308 213.298 72.3099 213.643 72.3099 214.08C72.3099 214.402 72.2065 214.597 71.9883 214.919C70.047 217.724 66.9455 220.367 63.442 220.367C62.0981 220.367 61.0183 219.724 61.0183 218.183C61.0183 215.241 64.9239 210.39 68.3814 210.39C69.3004 210.39 69.8862 210.988 69.8862 211.896C69.8862 213.781 67.003 215.919 63.8211 215.781C63.5225 216.402 63.3616 216.884 63.3616 217.505C63.3616 218.448 63.9245 218.885 64.8434 218.885ZM68.8868 212.034C68.8868 211.677 68.703 211.39 68.2091 211.39C66.9915 211.39 65.1076 213.517 64.3495 214.792C66.6124 214.792 68.8753 213.011 68.8753 212.045L68.8868 212.034ZM76.8472 212.459C74.6073 212.459 71.6437 216.781 71.0808 219.069C70.9774 219.505 71.2646 219.666 71.345 219.712C71.4025 219.735 71.4254 219.793 71.4254 219.85C71.4254 219.931 71.368 220.011 71.2876 220.069C71.1268 220.172 70.5639 220.425 69.7483 220.425C69.0247 220.425 68.6456 219.885 68.6456 219.402C68.6456 218.781 68.9672 218.08 69.4267 217.298C69.7828 216.678 70.3457 215.781 70.8051 215.034C71.8619 213.39 72.5626 212.149 72.666 211.585C72.7694 210.965 72.3444 210.965 72.3444 210.804C72.3444 210.62 72.8613 210.447 73.3208 210.447C74.1823 210.447 74.7222 210.746 74.7222 211.252C74.7222 211.896 74.3201 212.413 73.9985 212.838C73.941 212.919 74.0789 212.861 74.0789 212.838L74.1363 212.781C75.9168 211.022 77.054 210.459 78.1223 210.459C79.0987 210.459 79.7994 210.999 79.7994 211.804C79.7994 213.746 77.9615 215.792 77.054 217.793C76.9736 217.954 76.9506 218.091 76.9506 218.195C76.9506 218.597 77.1344 218.839 77.7547 218.839C79.0987 218.839 81.7981 215.011 82.9583 213.356C83.2569 213.356 83.3373 213.712 83.3373 214.057C83.3373 214.356 83.1765 214.735 83.0731 214.861C82.1542 216.126 79.4548 220.344 76.606 220.344C75.308 220.344 74.6877 219.586 74.6877 218.724C74.6877 216.678 77.4675 214.057 77.4675 212.953C77.4675 212.689 77.2493 212.436 76.8702 212.436L76.8472 212.459ZM93.0437 204.723C93.4802 203.746 92.8025 203.723 92.8025 203.562C92.8025 203.505 92.8599 203.424 92.9404 203.378C93.1586 203.24 93.5606 203.056 94.2039 203.056C95.3411 203.056 95.881 203.677 95.3066 204.78C95.2837 204.838 95.2492 204.884 95.2033 204.964C95.0654 205.206 94.583 206.045 94.0661 206.93L92.5498 209.551C91.9869 210.493 91.4471 211.436 90.9302 212.333C90.5511 212.93 88.3915 216.678 88.1273 217.16C87.9665 217.459 87.6908 218.022 87.6908 218.344C87.6908 218.563 87.7713 218.908 88.2078 218.908C90.5051 218.908 93.5147 214.586 94.1924 213.643C94.2154 213.585 94.2499 213.585 94.2728 213.585C94.3532 213.585 94.4911 213.85 94.4911 214.505C94.4911 214.746 94.112 215.39 93.6296 216.011C91.8491 218.356 89.2875 220.436 86.9442 220.436C85.784 220.436 85.2212 219.839 85.2212 219.011C84.3367 219.816 83.1765 220.413 82.2001 220.413C80.7183 220.413 80.075 219.367 80.075 218.229C80.075 215.287 83.9002 210.459 87.4381 210.459C88.3226 210.459 88.9199 210.896 89.1956 211.459L93.0552 204.711L93.0437 204.723ZM83.3603 218.724C83.8198 218.724 85.359 218.16 86.278 216.482C86.7145 215.701 87.8172 213.815 88.2767 212.976C88.3571 212.815 88.4145 212.654 88.4145 212.493C88.4145 211.953 87.978 211.436 87.3348 211.436C85.4968 211.436 82.3954 215.643 82.3954 217.425C82.3954 218.31 82.717 218.724 83.3718 218.724H83.3603Z" fill="#144A95"/>
<path d="M98.9135 220.321C97.4317 220.321 96.731 219.482 96.731 218.137C96.731 215.195 100.591 210.39 104.094 210.39C105.277 210.39 106.035 211.068 106.035 212.057C106.035 213.517 105.093 215.103 104.232 216.459C105.036 216.678 106.495 215.701 107.977 213.597C108.057 213.494 108.115 213.494 108.16 213.494C108.344 213.494 108.379 213.873 108.379 214.218C108.379 214.379 108.321 214.735 108.057 215.08C106.552 217.022 104.795 217.885 103.233 217.804C101.854 219.367 100.648 220.31 98.9135 220.31V220.321ZM101.452 216.321C101.452 215.563 102.072 214.919 102.796 214.919C103.198 214.919 103.554 215.022 103.795 215.241C104.335 214.517 104.979 212.896 104.979 212.298C104.979 211.654 104.6 211.332 103.979 211.332C102.141 211.332 98.9595 215.402 98.9595 217.804C98.9595 218.505 99.2581 218.942 100.062 218.942C100.82 218.942 101.601 218.241 102.222 217.54C101.762 217.275 101.441 216.862 101.441 216.321H101.452ZM103.497 227.195C102.153 227.195 101.693 226.31 101.693 225.195C101.693 222.172 106.598 214.861 108.815 211.275C107.977 211.034 107.333 210.47 107.333 209.631C107.333 208.953 107.793 208.045 108.712 208.045C108.93 208.045 109.275 208.125 109.39 208.367C109.447 208.47 108.907 208.551 108.907 209.068C108.907 209.551 109.171 209.792 109.585 209.907C113.249 204.16 116.167 201.16 117.97 201.16C118.947 201.16 119.51 201.838 119.51 202.803C119.51 205.907 115.167 210.309 111.182 211.114C108.643 215.218 103.474 223.609 103.474 225.034C103.474 225.517 103.692 225.839 104.152 225.839C105.093 225.839 107.632 222.793 109.413 219.528C109.194 219.206 109.091 218.149 109.091 217.344C109.091 215.344 110.331 213.321 111.273 213.321C111.951 213.321 112.215 213.999 112.215 214.861C112.215 216.884 110.975 219.264 110.975 219.264C112.836 219.264 114.053 217.425 114.8 216.183C114.857 216.103 114.88 216.08 114.903 216.08C115.087 216.08 115.167 216.517 115.167 216.999C115.167 218.517 113.042 220.482 111.009 220.482C110.825 220.482 110.527 220.459 110.331 220.344C107.793 224.793 105.289 227.195 103.508 227.195H103.497ZM111.744 209.815C114.444 208.735 118.349 205.528 118.349 202.849C118.349 202.47 118.189 202.206 117.867 202.206C116.006 202.206 112.721 208.332 111.744 209.815ZM129.101 203.941C129.101 203.941 129.675 204.367 129.652 204.688C129.652 205.309 128.998 206.367 128.825 206.689C126.298 210.896 120.968 216.862 120.865 219.413C120.842 219.885 121.29 220.241 121.37 220.264C121.37 220.264 120.773 220.988 119.567 220.988C118.361 220.988 118.246 220.057 118.246 219.735C118.246 218.758 118.694 217.379 121.554 213.93C124.403 210.47 126.781 208.827 128.033 206.47C128.079 206.39 128.033 206.275 127.906 206.47C127.355 207.424 123.197 210.378 121.474 210.378C120.176 210.378 120.428 209.574 120.428 209.574C120.428 209.574 125.035 209.643 129.113 203.941H129.101ZM126.873 217.16C126.873 216.804 127.068 216.712 126.896 216.632C126.666 216.528 126.218 217.252 126.218 217.862C126.218 219.091 127.619 219.54 128.4 219.54C131.927 219.54 138.681 212.103 138.681 207.091C138.681 205.493 137.532 204.838 136.579 204.838C133.73 204.838 131.249 209.091 131.249 211.229C131.249 212.482 131.869 212.93 132.673 212.93C134.247 212.93 136.257 210.804 136.326 209.574C136.326 209.528 136.349 209.493 136.372 209.493C136.499 209.493 136.797 209.873 136.797 210.321C136.797 211.068 135.12 213.827 132.317 213.827C130.491 213.827 129.446 212.344 129.446 211.172C129.446 207.47 132.995 204.183 136.476 204.183C137.797 204.183 140.209 204.688 140.209 207.838C140.209 213.275 133.707 220.356 128.423 220.356C125.816 220.356 125.345 218.655 125.345 217.873C125.345 215.999 126.896 215.298 127.677 215.298C128.55 215.298 129.101 215.896 129.101 216.448C129.101 217.321 128.527 217.85 127.78 217.85C127.229 217.85 126.884 217.528 126.884 217.149L126.873 217.16ZM154.154 204.045C154.154 204.171 154.108 204.217 154.051 204.344C154.005 204.493 153.028 205.746 152.373 206.171C151.144 206.976 149.996 207.401 148.824 207.401C147.193 207.401 145.975 206.47 145.975 206.47C145.975 206.47 143.919 209.746 143.092 210.758C143.069 210.781 142.989 210.861 143.012 210.884C143.012 210.907 143.058 210.861 143.138 210.804C143.517 210.574 144.918 209.827 146.917 209.827C149.249 209.827 150.076 211.631 150.076 212.804C150.076 215.758 146.377 220.413 140.542 220.413C138.337 220.413 137.418 218.908 137.418 217.804C137.418 216.701 137.946 215.448 139.474 215.448C140.427 215.448 140.829 216.172 140.829 216.678C140.829 217.528 140.151 217.977 139.554 217.977C139.382 217.977 138.773 217.85 138.624 217.471C138.578 217.321 138.394 217.471 138.394 217.793C138.394 218.724 139.267 219.643 140.726 219.643C144.735 219.643 148.031 215.057 148.031 212.93C148.031 211.355 146.906 210.781 146.205 210.781C143.701 210.781 141.897 212.861 141.702 213.057C141.53 213.229 141.105 212.551 141.105 212.31C141.105 212.137 144.964 206.171 146.262 204.148C146.389 203.953 146.538 203.895 146.71 204.102C146.814 204.183 146.837 204.275 147.515 204.654C148.261 205.079 149.065 205.355 150.271 205.355C152.178 205.355 153.327 203.999 153.706 203.401C153.775 203.275 154.177 203.757 154.177 204.022L154.154 204.045ZM151.776 218.367C150.352 218.367 149.203 220.425 149.203 220.367C149.203 220.31 148.675 220.413 148.95 219.471C149.697 216.862 152.982 214.436 156.888 212.93C160.621 211.505 162.045 208.746 162.045 207.148C162.045 206.148 161.391 205.045 159.691 205.045C156.991 205.045 154.487 207.999 154.487 209.677C154.487 210.505 154.889 210.723 155.038 210.827C155.165 210.873 155.234 210.781 155.211 210.723C155.061 210.321 155.44 209.597 156.084 209.597C156.727 209.597 157.083 210.126 157.083 210.677C157.083 211.528 156.187 212.103 155.452 212.103C154.2 212.103 153.453 211.378 153.453 209.873C153.453 207.723 155.9 204.16 160.265 204.16C162.367 204.16 164.274 205.309 164.274 207.137C164.274 210.045 161.666 212.551 156.038 214.448C153.465 215.321 151.707 216.678 151.535 217.528C152.282 217.022 152.959 216.93 153.315 216.93C155.372 216.93 156.52 218.712 158.174 218.712C160.23 218.712 161.333 216.885 161.529 215.953C161.758 215.953 162.08 216.252 162.08 216.632C162.08 217.678 160.954 220.367 157.577 220.367C155.199 220.367 154.154 218.367 151.799 218.367H151.776Z" fill="#144A95"/>
</svg>
