<?xml version="1.0" encoding="utf-8"?>
<!-- Generator: Adobe Illustrator 24.0.1, SVG Export Plug-In . SVG Version: 6.00 Build 0)  -->
<svg version="1.1" id="logo" xmlns="http://www.w3.org/2000/svg" xmlns:xlink="http://www.w3.org/1999/xlink" x="0px" y="0px"
	 viewBox="0 0 184 86.28" style="enable-background:new 0 0 184 86.28;" xml:space="preserve">
<style type="text/css">
	.st0{fill:#242F44;}
	.st1{fill:#FAA31B;}
</style>
<g>
	<g id="Layer_1-2">
		<path class="st0" d="M8.49,0.98c2.42,0,5-0.11,7.41-0.11c1.08,0,1.19,0.32,1.19,0.71c0,1.45-4.62-0.54-4.62,3.65v27.45
			c0,2.15,0.85,3.6,4.4,3.6c5.64,0,9.68-3.92,11.93-8.38c1.61-3.27,1.28-4.41,2.04-4.41c0.29-0.01,0.54,0.22,0.54,0.51
			c0,0.03,0,0.06,0,0.08c-0.03,0.52-0.11,1.05-0.22,1.56L28.8,37.48c-5.59,0-14.62-0.11-18.81-0.11H7.95
			c-1.67,0.06-2.74,0.06-3.33,0.06H2.66c-0.75,0-1.24,0-1.51,0c-1.08,0-1.13-0.31-1.13-0.7c0-0.7,0.98-0.65,1.96-0.75
			c1.29-0.16,2.69-0.64,2.69-2.84v-28C4.62,1.11,0,2.94,0,1.59c0-0.37,0-0.75,1.19-0.75C3.55,0.83,6.13,0.98,8.49,0.98z"/>
		<path class="st0" d="M53.84,38.23c-11.76,0-19.88-8.82-19.88-19.08s8.2-19.07,19.88-19.07s19.88,8.73,19.88,19.07
			S65.55,38.23,53.84,38.23z M64.9,19.15c0-11.31-4.24-17.78-11.13-17.78c-6.5,0-11.01,6.13-11.01,17.78
			c0,11.39,4.35,17.79,11.07,17.79S64.9,30.55,64.9,19.15z"/>
		<path class="st0" d="M101.55,0.73c0.37,0,0.59,0.22,0.65,0.86l0.98,10.26c0.09,0.59,0.14,1.18,0.17,1.77
			c0,0.37-0.17,0.54-0.43,0.54c-0.59,0-0.37-0.86-2.04-4.68c-2.12-4.83-5.02-8.12-10.69-8.12c-4.4,0-6.86,2.15-6.86,5.75
			c0,3.06,2.47,4.57,7.47,6.07c2.6,0.67,5.15,1.54,7.63,2.58c4.57,2.15,6.72,5.16,6.72,9.8c0,7.1-5.97,12.63-14.14,12.63
			c-5.26,0-7.9-2.47-9.94-2.47c-2.04,0-1.67,1.85-2.65,1.85c-0.22,0.02-0.41-0.13-0.43-0.35c0-0.02,0-0.05,0-0.07V22.12
			c0-0.43,0.11-0.75,0.54-0.75c0.7,0,0.48,1.34,1.34,4.62c1.74,6.56,4.85,10.97,11.29,10.97c5.53,0,8.6-2.79,8.6-6.93
			c0.04-2.4-1.29-4.62-3.44-5.7c-2.2-1.16-4.52-2.06-6.93-2.69c-6.97-2.1-11.17-4.46-11.17-10.48c0-6.25,5.26-11.07,12.04-11.07
			c5.22,0,7.63,2.15,9.24,2.15C101.38,2.24,100.58,0.73,101.55,0.73z"/>
		<path class="st0" d="M31.49,49.32c0.11-0.49,0.11-0.98,0.65-0.98s0.64,0.26,0.64,0.7v13.7c0,0.48-0.11,0.98-0.59,0.98
			c-0.86,0-0.43-1.96-2.21-6.01c-2.04-4.64-5.59-8.7-10.53-8.7c-6.93,0-10.53,6.11-10.53,17.76c0,11.82,3.71,17.78,10.85,17.78
			c4.9,0,8.82-4.51,10.64-8.32c1.96-4.09,1.08-5.88,2.1-5.88c0.37,0,0.48,0.37,0.48,0.75v14.31c0,0.59-0.22,0.85-0.64,0.85
			c-0.98-0.01-0.11-2.95-2.64-2.95c-2.1,0-4.83,2.58-10.91,2.58C7.73,85.85,0.11,77.63,0.11,66.78C-0.05,56.4,8.24,47.86,18.61,47.7
			c0.06,0,0.13,0,0.19,0c6.02,0,8.82,3.01,11.18,3.01C31.21,50.71,31.37,49.99,31.49,49.32z"/>
		<path class="st0" d="M70.71,80.53c0.43,1.21,1.21,2.26,2.25,3.01c0.47,0.27,0.98,0.47,1.51,0.59c0.59,0.17,0.85,0.22,0.85,0.54
			c0,0.32-0.16,0.43-0.8,0.43c-2.42,0-6.23-0.11-7.3-0.11l-7.36,0.11c-0.8,0-0.86-0.27-0.86-0.54c0-0.43,0.48-0.48,1.72-0.7
			s2.03-0.91,2.03-2.15c-0.11-1.2-0.44-2.36-0.98-3.44c-0.98-2.36-1.96-4.68-2.94-7.04H46.63c-0.98,2.94-2.25,5.26-2.25,8
			c-0.17,2,1.04,3.86,2.94,4.52c0.98,0.43,1.56,0.59,1.56,0.91c0,0.32,0,0.43-0.7,0.43c-1.29,0-5.11-0.11-5.88-0.11l-6.07,0.11
			c-0.71,0-0.81-0.17-0.81-0.48c0-0.49,0.43-0.6,1.29-0.81c1.32-0.38,2.5-1.14,3.38-2.2c1.29-1.34,2.94-4.09,4.46-8.18l6.77-17.51
			c0.27-0.54,0.41-1.13,0.43-1.73c-0.03-0.51-0.34-0.97-0.81-1.18c-0.53-0.32-0.8-0.49-0.8-0.65c0-0.16,0.65-0.48,1.67-1.29
			c1.09-0.89,2.09-1.88,3.01-2.94c1.13-1.29,1.24-1.96,1.62-1.96c0.38,0,0.59,0.75,0.85,1.45L70.71,80.53z M46.96,70.27h11.39
			l-5.88-14.45L46.96,70.27z"/>
		<path class="st0" d="M84.94,48.56c1.34,0,6.13-0.11,9.51-0.11c8.22,0,13.01,3.6,13.01,8.82s-3.71,7.69-12.09,8.49v0.11
			c9.67,0.27,13.91,3.55,13.91,9.14c0,3.76-1.18,6.23-3.38,7.84c-2.21,1.61-5.7,2.25-9.72,2.25c-2.79,0-8.38-0.11-11.13-0.11
			c-2.47,0-4.99,0.11-7.47,0.11c-1.28,0-1.34-0.32-1.34-0.7c0-0.54,0.65-0.65,1.45-0.71c1.88-0.11,3.18-0.75,3.18-2.94V52.75
			c0-2.47-1.77-2.79-3.12-2.94c-0.65-0.05-1.51-0.11-1.51-0.7c0-0.37,0.06-0.7,1.29-0.7L84.94,48.56z M91.8,65.23
			c5,0,7.84-2.94,7.84-7.47c0-5.43-3.23-8.01-7.53-8.01h-3.41v15.47L91.8,65.23z M88.69,80.32c0,2.53,1.96,3.49,4.57,3.49
			c4.9,0,7.84-2.63,7.84-8.49c0-6.39-3.44-8.82-8.38-8.82h-4.01L88.69,80.32z"/>
		<path class="st0" d="M132.65,85.85c-11.7,0-19.88-8.82-19.88-19.08s8.18-19.08,19.88-19.08s19.88,8.7,19.88,19.08
			S144.37,85.85,132.65,85.85z M143.72,66.78c0-11.34-4.24-17.78-11.12-17.78c-6.5,0.02-11.05,6.13-11.05,17.78
			c0,11.39,4.35,17.78,11.07,17.78C139.34,84.56,143.72,78.17,143.72,66.78z"/>
		<path class="st0" d="M180.37,48.35c0.38,0,0.6,0.22,0.65,0.86L182,59.46c0.08,0.59,0.14,1.18,0.16,1.77
			c0,0.38-0.16,0.54-0.43,0.54c-0.59,0-0.37-0.86-2.04-4.68c-2.1-4.83-5-8.11-10.64-8.11c-4.41,0-6.86,2.15-6.86,5.74
			c0,3.07,2.47,4.57,7.47,6.07c2.6,0.68,5.15,1.55,7.63,2.59c4.57,2.15,6.71,5.16,6.71,9.8c0,7.09-5.96,12.63-14.13,12.63
			c-5.27,0-7.9-2.47-9.94-2.47s-1.77,1.82-2.69,1.82c-0.22,0.02-0.41-0.13-0.43-0.35c0-0.03,0-0.06,0-0.08V69.73
			c0-0.42,0.11-0.75,0.54-0.75c0.7,0,0.48,1.34,1.34,4.62c1.72,6.56,4.83,10.96,11.22,10.96c5.54,0,8.6-2.79,8.6-6.93
			c0.05-2.4-1.29-4.62-3.44-5.7c-2.2-1.16-4.52-2.06-6.93-2.69c-6.93-2.1-11.12-4.46-11.12-10.48c0-6.23,5.26-11.07,12.03-11.07
			c5.22,0,7.64,2.15,9.24,2.15C180.21,49.85,179.39,48.35,180.37,48.35z"/>
		<path class="st1" d="M118.69,0v39.13h39.13V0H118.69z M148.46,23.68c0.13,0.05,0.24-0.18,0.27-0.46c0-0.1,0.06-0.42,0.08-0.73
			c0-0.09,0.05-0.2,0.24-0.2s0.23,0.12,0.23,0.19c0.02,0.4-0.02,0.79-0.12,1.18c-0.39,0.98-0.78,0.68-0.79,0.98
			c-0.09,0.66-0.03,1.33,0.18,1.96c0.04,0.06,0.03,0.15-0.03,0.19c-0.03,0.02-0.07,0.03-0.11,0.02c-0.17-0.06-0.36-0.09-0.54-0.08
			c-0.08,0.01-0.14-0.04-0.16-0.12c0-0.01,0-0.01,0-0.02c0.06-0.65,0.06-1.31,0-1.96c-0.75,0.2-0.75-0.98-0.82-1.44
			c-0.04-0.18-0.04-0.37,0-0.56c0-0.16,0.17-0.3,0.36-0.17s0.15,0.87,0.26,1.28c0.05,0.18,0.19,0.27,0.34,0.22
			c-0.03-0.76,0.02-1.52,0.14-2.27c0.1-0.14,0.3-0.17,0.44-0.08c0.09,0.3,0.12,0.62,0.08,0.93
			C148.46,22.93,148.45,23.31,148.46,23.68z M146.44,9.8c0.22-0.34,1.52-1.79,1.86-1.66c0.34,0.14-0.39,1.82-0.62,2.16
			c-0.21,0.32-0.61,0.47-0.98,0.36c-0.29-0.1-0.45-0.42-0.35-0.71C146.37,9.9,146.4,9.85,146.44,9.8z M141.06,7.66
			c0.41-0.1,1.16,1.51,1.25,1.87c0.06,0.39-0.2,0.76-0.59,0.82c-0.39,0.11-0.79-0.1-0.91-0.49C140.73,9.5,140.65,7.75,141.06,7.66z
			 M139.02,15.83c0-0.2,0.05-0.4,0.09-0.6c0.04-0.2,0.1-0.4,0.17-0.59c0.07-0.19,0.16-0.38,0.25-0.56c0.09-0.18,0.2-0.35,0.32-0.51
			c0.12-0.17,0.26-0.32,0.4-0.47c0.07-0.08,0.15-0.15,0.23-0.22l0.11-0.1l0.13-0.1c0.16-0.13,0.33-0.24,0.51-0.34
			c0.18-0.1,0.37-0.19,0.56-0.26l0.15-0.06h0.14l0.29-0.09c0.2-0.05,0.4-0.08,0.61-0.11c0.2-0.01,0.4-0.01,0.6,0
			c0.2,0.01,0.39,0.02,0.59,0.06c0.06,0.01,0.1,0.06,0.11,0.12c0,0.06-0.05,0.11-0.11,0.12l-0.53,0.11l-0.5,0.17
			c-0.15,0.06-0.31,0.13-0.45,0.22l-0.22,0.13l-0.11,0.07l-0.1,0.07c-0.13,0.09-0.25,0.2-0.37,0.3c-0.11,0.1-0.21,0.2-0.33,0.33
			l-0.07,0.09l0,0l-0.07,0.1l-0.12,0.17c-0.07,0.11-0.15,0.25-0.22,0.38c-0.06,0.13-0.12,0.27-0.17,0.41
			c-0.05,0.13-0.08,0.27-0.11,0.41c-0.01,0.14-0.01,0.28,0,0.42c-0.01,0.14-0.01,0.27,0,0.41c-0.01,0.13-0.01,0.27,0,0.4l0,0
			c0,0.07,0,0.13,0.05,0.19v0.11v0.09c0.02,0.06,0.04,0.12,0.07,0.18c0.02,0.06,0.05,0.13,0.09,0.19l0.1,0.17l0.05,0.07l0,0l0,0l0,0
			l0,0l0,0l0,0l0,0l0.06,0.07l0,0l0.07,0.07l0,0l0.1,0.07l0.12,0.09h0.07l0.08,0.05l0.13,0.06l0.3,0.1h0.17h0.17
			c0.12,0.01,0.24,0.01,0.35,0h0.35h0.18h0.2l0.18-0.05c0.25-0.06,0.5-0.15,0.74-0.26l0.35-0.18l0.1-0.06l0,0l0.39-0.26l0.16-0.13
			l0.24-0.2l0.08-0.07c0.19-0.17,0.36-0.36,0.51-0.57l0.21-0.3l0.08-0.16v-0.08l0,0l0,0v-0.12c0-0.03,0-0.05,0-0.08
			c0-0.06,0-0.11,0-0.15c0.01-0.1,0.01-0.2,0-0.29c0-0.18-0.06-0.36-0.16-0.52l0,0l0,0l0,0l0,0l0,0l0,0h-0.06l0,0l0,0l0,0h-0.06
			l-0.14-0.07l-0.16-0.07h-0.09h-0.08l0,0h-0.38h-0.43h-0.11l0,0h-0.23h-0.07l-0.21,0.06l0,0l-0.17,0.05l0,0l0,0h-0.13l-0.32,0.13
			l-0.13,0.05h-0.1l-0.17,0.08l0,0l-0.47,0.25c-0.05,0.03-0.11,0.03-0.16,0c-0.04-0.04-0.04-0.11,0-0.15l0.06-0.07l0.11-0.12
			l0.18-0.18l0,0l0,0l0,0l0.28-0.25l0.41-0.29l0,0l0,0l0,0l0.15-0.09l0.25-0.13l0,0h0.05l0,0l0,0l0.22-0.09l0,0h0.12l0,0l0.27-0.08
			l0.3-0.07c0.2-0.02,0.41-0.02,0.61,0h0.32l0.32,0.07c0.11,0.02,0.22,0.06,0.32,0.1l0.16,0.07l0.14,0.08l0,0l0.14,0.09l0.15,0.11
			l0,0l0,0l0.08,0.06l0,0l0,0l0,0l0,0v0.05l0,0c0.3,0.32,0.51,0.72,0.6,1.16c0.02,0.21,0.02,0.41,0,0.62c0.01,0.1,0.01,0.2,0,0.3
			c0,0.05,0,0.1,0,0.15v0.13v0.16c0,0.05,0,0.1,0,0.14c-0.03,0.09-0.07,0.19-0.11,0.27c-0.07,0.17-0.16,0.34-0.25,0.51
			c-0.2,0.32-0.43,0.62-0.69,0.89l-0.19,0.2l-0.3,0.28l-0.16,0.12l-0.45,0.34l-0.19,0.12c-0.17,0.11-0.34,0.21-0.51,0.29
			c-0.36,0.17-0.73,0.32-1.12,0.42l-0.3,0.07l-0.28,0.06h-0.18h-0.16h-0.32h-0.11c-0.18,0.01-0.35,0.01-0.53,0h-0.25h-0.09
			l-0.32-0.08c-0.21-0.06-0.42-0.13-0.63-0.23l-0.3-0.16l-0.13-0.09l-0.14-0.09c-0.09-0.06-0.18-0.13-0.26-0.21l-0.13-0.11
			l-0.12-0.13l-0.12-0.13l-0.19-0.24l-0.08-0.13l0,0v-0.07v-0.05l-0.09-0.16c-0.05-0.1-0.1-0.19-0.14-0.29
			c-0.05-0.1-0.08-0.2-0.12-0.3c-0.03-0.1-0.06-0.2-0.08-0.3c0-0.05,0-0.1,0-0.16v-0.15c0-0.11,0-0.22,0-0.31
			C138.93,16.45,138.96,16.14,139.02,15.83L139.02,15.83z M134.52,12.2c0.3-0.24,2.32,0.41,2.72,0.59c0.39,0.18,0.44,0.53,0.13,0.76
			c-0.37,0.25-0.85,0.29-1.25,0.11C135.72,13.49,134.2,12.45,134.52,12.2L134.52,12.2z M126.03,25.68c0.41-0.86,0.64-1.8,0.67-2.75
			c-0.11-0.93-0.18-1.71-0.33-2.61c-0.14-0.48,0.13-0.99,0.61-1.13c0.12-0.04,0.24-0.05,0.37-0.03c0.64,0,0.52,1.24,1.04,1.31
			c1.16,0.18,0.83-1.53,1.68-1.69c0.62,0.04,1.22-0.18,1.68-0.61c0.59-0.54,1.41-1.11,1.96-1.65c0.69-0.71,1.67-1.07,2.66-0.98
			c0.36,0.07,0.66,0.32,0.79,0.66c0.46,1.58,0.8,2.94,2.24,4.09c1.35,0.83,2.94,1.2,4.52,1.06c0.63-0.21,1.31,0.13,1.53,0.76
			c0.05,0.14,0.07,0.29,0.06,0.44c0.03,0.2,0.03,0.41,0,0.61c-0.12,0.4-0.08,0.83,0.1,1.21c0.26,0.61,1.45,2.58-0.62,1.69
			c-1.33-0.58-3.41-1.14-6.71,0.11c-1.78,0.65-3.72,0.69-5.52,0.12c-0.15-0.04-0.3-0.09-0.44-0.17c-0.05-0.02-0.07-0.07-0.07-0.12
			c0.05-1.56,1.38-3.58-0.8-4.18c-0.77-0.27-1.62,0.04-2.03,0.74c-0.6,0.8-0.54,1.71,0,2.94l0,0c0.04,0.07,0.02,0.15-0.05,0.19
			c-0.02,0.01-0.04,0.02-0.07,0.02c-1.05,0.01-2.08,0.17-3.09,0.46C125.57,26.27,125.92,26,126.03,25.68z M150.96,29.66
			c-0.07,0.16-0.2,0.27-0.36,0.32c-0.29,0.1-0.59,0.18-0.89,0.25h-0.07c-0.19,0-0.38,0.07-0.58,0.09h-0.1h-0.23h-0.32
			c-0.46,0.05-0.91,0.07-1.37,0.07c-0.5-0.04-1-0.13-1.48-0.26c-0.3-0.09-0.6-0.2-0.88-0.3l-0.49-0.17
			c-0.41-0.15-0.84-0.24-1.27-0.29h-0.32h-1.06c-0.46,0.01-0.92,0.06-1.37,0.16c-0.45,0.1-0.9,0.25-1.32,0.43
			c-0.52,0.19-1.05,0.34-1.6,0.44c-0.28,0.06-0.56,0.1-0.84,0.13h-0.43h-0.69h-0.56h-0.28h-0.14c-0.14-0.01-0.28-0.03-0.41-0.06
			c-0.54-0.08-1.07-0.22-1.58-0.42c-0.2-0.07-0.38-0.15-0.56-0.23c-0.18-0.08-0.5-0.21-0.74-0.28c-0.39-0.13-0.78-0.23-1.19-0.29
			h-0.44h-0.54h-0.8c-0.14,0-0.26,0-0.4,0h-0.15c-0.63,0.09-1.25,0.25-1.84,0.47h-0.08c-0.3,0.1-0.6,0.19-0.9,0.25l0,0l-0.37,0.07
			h-0.12l0,0c-0.15,0.02-0.28-0.08-0.3-0.23v-0.21c-0.02-0.13,0.07-0.26,0.2-0.29c0.42-0.12,0.82-0.27,1.22-0.45l0.19-0.08
			c0.24-0.11,0.48-0.23,0.75-0.33c0.37-0.15,0.76-0.26,1.15-0.34h0.07c0.19-0.04,0.38-0.07,0.58-0.09h0.09h0.23h0.57h0.49h0.53
			c0.5,0.04,1,0.14,1.49,0.27c0.3,0.09,0.6,0.2,0.88,0.29c0.16,0.07,0.32,0.13,0.49,0.18c0.41,0.14,0.83,0.24,1.26,0.29h0.33h1.41
			h0.34h0.21h0.14l0.26-0.05h0.06c0.49-0.14,0.96-0.33,1.41-0.57c0.52-0.22,1.06-0.39,1.61-0.51c0.56-0.11,1.12-0.17,1.69-0.17h0.23
			h0.57h0.3h0.12l0.42,0.05c0.54,0.08,1.07,0.22,1.58,0.42l0.55,0.23l0.75,0.29c0.39,0.13,0.78,0.23,1.19,0.28
			c0.42,0.05,0.82,0.08,1.2,0.09h0.59h0.39h0.15c0.28-0.03,0.57-0.08,0.84-0.16c0.27-0.07,0.55,0.1,0.62,0.37
			C151.02,29.44,151.01,29.56,150.96,29.66z M151.45,19.52c-0.25,0.27-2.18-0.09-2.55-0.21s-0.47-0.45-0.22-0.72
			c0.3-0.29,0.73-0.39,1.13-0.26c0.34,0.13,1.86,0.92,1.61,1.19H151.45z M150.38,14.36c-0.43,0.13-0.79,0-0.82-0.37
			c0.04-0.41,0.34-0.75,0.74-0.85c0.43-0.14,2.43-0.47,2.46-0.14c0.03,0.33-1.97,1.23-2.4,1.36H150.38z"/>
		<path class="st1" d="M135.59,18.48c0.21-0.09,0.33-0.32,0.27-0.55c-0.08-0.18-0.3-0.27-0.48-0.18c-0.02,0.01-0.03,0.02-0.05,0.03
			c-0.22,0.11-1.17,0.77-1.1,0.98S135.38,18.63,135.59,18.48z"/>
		<path class="st1" d="M138.74,21.63c0.13-0.13,0.14-0.34,0.01-0.47c-0.04-0.04-0.09-0.07-0.14-0.09c-0.26-0.1-0.56-0.04-0.75,0.17
			c-0.18,0.2-0.77,1.2-0.53,1.31C137.57,22.67,138.57,21.84,138.74,21.63z"/>
		<path class="st1" d="M142.62,24.07c0.25,0,0.67-0.98,0.72-1.19c0.04-0.24-0.13-0.45-0.36-0.49c-0.24-0.05-0.47,0.09-0.54,0.32
			C142.39,22.94,142.37,24.02,142.62,24.07z"/>
	</g>
</g>
</svg>
