<?xml version="1.0" encoding="utf-8"?>
<!-- Generator: Adobe Illustrator 27.1.1, SVG Export Plug-In . SVG Version: 6.00 Build 0)  -->
<svg version="1.1" id="Layer_1" xmlns="http://www.w3.org/2000/svg" xmlns:xlink="http://www.w3.org/1999/xlink" x="0px" y="0px"
	 viewBox="0 0 141 65" style="enable-background:new 0 0 141 65;" xml:space="preserve">
<style type="text/css">
	.st0{fill:#263A7C;}
	.st1{fill:#29A166;}
</style>
<path class="st0" d="M107.4,38.6c-3.1,5.6-10.2,5.7-11.7,5.7c-4,0-8.1-1.1-11.5-3.3c-1-0.6-2-1.4-3-2.1l6-5.5c0.5,0.5,1,0.9,1.5,1.3
	c0.9,0.6,3.5,2.3,6.8,2.3c0.3,0,1.1,0,1.8-0.3c0.8-0.4,1-1,1-1.4c0-0.3-0.2-0.6-0.2-0.6c-0.7-1-1.9-0.9-3.9-1.3
	c-0.6-0.1-3.2-0.6-5.3-1.4c-2.5-0.8-4.4-1.8-5.6-4.4c-0.5-1-0.7-2.1-0.7-3.2c0-2.3,1.1-4.1,1.6-4.8c1.6-2.2,4.6-4.4,10.7-4.4
	c3.2,0,7.3,0.7,10.2,2.2c1,0.5,1.7,1,2.6,1.7l-5.8,5.3c-0.8-0.5-3.6-2.6-6.9-2.6c-0.2,0-0.9,0-1.5,0.3c-0.6,0.3-0.8,0.9-0.8,1.1
	c0,0.7,0.6,1,0.7,1c0.5,0.3,1.5,0.5,2.8,0.8c4,1,6.2,1.4,8,2.2c1.4,0.7,4.3,2.8,4.3,7C108.5,35.8,108.2,37.2,107.4,38.6"/>
<path class="st0" d="M129.1,43.9c-0.8,0-3.6,0-5.8-1.5c-0.4-0.3-0.6-0.5-1.1-1V53h-10.5V16.3h10.5v2.1c0.5-0.6,0.7-0.8,1-1
	c1-0.8,3-1.8,6.1-1.8c8.4,0,11.8,6.9,11.8,14.4C141,37.5,137.5,43.9,129.1,43.9 M129.3,24.8c-0.9-1.2-2.3-1.5-2.9-1.5
	c-0.4,0-1.2,0.1-2.1,0.5c-2.2,1.2-2.3,3.9-2.3,6c0,2.1,0.2,4.8,2.2,6c0.8,0.5,1.5,0.5,1.9,0.5c0.5,0,1.2-0.1,2.1-0.6
	c1.9-1.2,2.2-3.8,2.2-5.8C130.4,28.4,130.3,26.3,129.3,24.8"/>
<path class="st1" d="M50,25.3L50,25.3L49.1,17c-0.2-1.8,1.3-3.6,4-5.1c2.7-1.4,6.3-2.5,10.3-2.9c3.9-0.4,7.7-0.1,10.6,0.8
	c3,0.9,4.8,2.4,5,4.2l0.8,8.3c0,0,0,0,0,0l-0.7,0.1c-0.1-1.5-1.8-2.8-4.5-3.6c-2.8-0.9-6.5-1.1-10.4-0.7c-3.9,0.4-7.4,1.4-10,2.8
	c-2.5,1.3-3.8,2.9-3.7,4.4L50,25.3z"/>
<path class="st0" d="M69.3,36.3c-0.5,0.5-1.4,1-3.1,1c-2.9,0.1-3.9-1.9-4.3-3c-0.3-0.8-0.3-2.1-0.3-2.1h18.8c0-2.4-0.1-4.7-0.8-7.1
	c-0.5-1.7-1.5-3.4-2.7-4.8c-2.8-1.4-7.4-2-12.5-1.5c-5.2,0.5-9.6,2.1-12.1,4.1c-0.9,1.8-1.7,4.2-1.7,7.2c0,5.9,3,11.3,8.5,13.6
	c2,0.8,4.2,1.1,6.4,1.1c3.8,0,6.7-1.1,8-1.7c0.9-0.5,3.1-1.7,4.9-3.8c0.7-0.8,1-1.4,1.3-1.8l-8.8-3.7C70.9,34.2,70.4,35.4,69.3,36.3
	 M64.1,23c0.3-0.2,0.8-0.4,1.7-0.4c0.8,0,2.8,0.3,3.5,2.5c0.2,0.7,0.2,1.2,0.3,1.5h-7.8C61.9,26,62.2,23.9,64.1,23"/>
<path class="st1" d="M88.4,5.5C86.5,5,61.8,0.4,61.8,0.4L38.4,13.7c0,0-1.9,1.1,0.7,1.2c1,0.1,4.8,1.3,9.6,2.2
	c-0.4-2.4,1.7-4.7,4.4-6.2c2.7-1.4,6.3-2.5,10.3-2.9c7.9-0.8,14.8,1.4,15.8,4.7l9.8-5.9C88.9,6.9,90.3,5.9,88.4,5.5"/>
<path class="st0" d="M36.8,43.3V29.2c0-1,0.3-4.7-3.7-4.7c-0.8,0-3.1,0.2-3.7,2.6c-0.2,0.6-0.2,1.1-0.2,1.8v14.4H18.5V28.7
	c0-0.6,0-1-0.2-1.7c-0.6-2.3-2.8-2.5-3.6-2.5c-0.7,0-3,0.3-3.7,2.5c-0.1,0.3-0.3,0.8-0.3,1.7v14.6H0V16.3h10.3v3.8
	c0.6-1.1,1-1.6,1.5-2c1.1-1,3.3-2.4,7-2.4c0.9,0,5.4,0,8,2.9c0.4,0.4,0.8,1,1.4,2.1c0.5-1.1,1-1.7,1.4-2c1.2-1.3,3.5-3,7.9-3
	c0.7,0,1.9-0.1,3.5,0.4c1.4,0.4,4.7,1.5,6,5.5c0.5,1.6,0.5,3,0.5,4.7v17H36.8z"/>
<polygon class="st1" points="0.9,57.7 2.3,57.7 3.4,60.6 4.6,57.7 6,57.7 6.8,63.1 5.4,63.1 5,60 5,60 3.7,63.1 3.1,63.1 1.9,60 
	1.9,60 1.4,63.1 0,63.1 "/>
<path class="st1" d="M8.8,58c0,0.4-0.3,0.7-0.7,0.7c-0.4,0-0.7-0.3-0.7-0.7c0-0.4,0.3-0.7,0.7-0.7C8.5,57.3,8.8,57.6,8.8,58
	 M8.7,63.1H7.4v-3.7h1.3V63.1z"/>
<path class="st1" d="M12.3,60.6c-0.2-0.1-0.4-0.3-0.7-0.3c-0.5,0-0.9,0.4-0.9,0.9c0,0.5,0.4,0.9,0.9,0.9c0.2,0,0.5-0.1,0.7-0.3v1.1
	c-0.3,0.1-0.6,0.2-0.9,0.2c-1.1,0-2-0.8-2-1.9c0-1.2,0.9-2,2.1-2c0.3,0,0.6,0.1,0.9,0.2V60.6z"/>
<path class="st1" d="M14.4,57.1v2.8h0c0.3-0.4,0.7-0.6,1.2-0.6c0.9,0,1.4,0.6,1.4,1.6v2.3h-1.3v-1.9c0-0.4-0.1-0.9-0.6-0.9
	c-0.5,0-0.7,0.4-0.7,0.9v1.9h-1.3v-6H14.4z"/>
<path class="st1" d="M19.3,58c0,0.4-0.3,0.7-0.7,0.7c-0.4,0-0.7-0.3-0.7-0.7c0-0.4,0.3-0.7,0.7-0.7C18.9,57.3,19.3,57.6,19.3,58
	 M19.2,63.1h-1.3v-3.7h1.3V63.1z"/>
<path class="st1" d="M24.1,62.8c0,1.6-0.8,2.2-2.1,2.2c-0.9,0-2-0.4-2.1-1.4h1.5c0,0.1,0.1,0.2,0.2,0.3c0.1,0.1,0.3,0.1,0.4,0.1
	c0.7,0,0.8-0.5,0.8-1.1v-0.2c-0.3,0.3-0.7,0.5-1.2,0.5c-1.1,0-1.8-0.8-1.8-1.9c0-1.1,0.8-2,1.9-2c0.4,0,0.8,0.1,1.1,0.5h0v-0.4h1.3
	V62.8z M21.1,61.3c0,0.5,0.3,0.8,0.8,0.8c0.5,0,0.8-0.4,0.8-0.8c0-0.5-0.3-0.8-0.8-0.8C21.5,60.4,21.1,60.8,21.1,61.3"/>
<path class="st1" d="M29,63.1h-1.3v-0.4h0c-0.2,0.4-0.7,0.5-1.1,0.5c-1.1,0-1.9-0.9-1.9-2c0-1.1,0.8-2,1.9-2c0.4,0,0.9,0.2,1.1,0.5
	v-0.4H29V63.1z M26,61.3c0,0.5,0.3,0.8,0.8,0.8c0.5,0,0.8-0.4,0.8-0.8c0-0.5-0.3-0.8-0.8-0.8C26.3,60.5,26,60.8,26,61.3"/>
<path class="st1" d="M31.2,59.9L31.2,59.9c0.3-0.4,0.7-0.6,1.2-0.6c1,0,1.4,0.6,1.4,1.5v2.3h-1.3v-1.8c0-0.4,0.1-1-0.6-1
	c-0.5,0-0.7,0.4-0.7,0.9v1.9h-1.3v-3.7h1.3V59.9z"/>
<polygon class="st1" points="38.6,58.9 38.6,59.8 40.2,59.8 40.2,61 38.6,61 38.6,61.9 40.3,61.9 40.3,63.1 37.2,63.1 37.2,57.7 
	40.3,57.7 40.3,58.9 "/>
<path class="st1" d="M43.9,62.7L43.9,62.7c-0.2,0.4-0.7,0.5-1.1,0.5c-1.1,0-1.9-0.9-1.9-2c0-1.1,0.8-2,1.9-2c0.4,0,0.9,0.2,1.1,0.5
	v-2.7h1.3v6h-1.3V62.7z M42.2,61.3c0,0.5,0.3,0.8,0.8,0.8c0.5,0,0.8-0.4,0.8-0.8c0-0.5-0.3-0.8-0.8-0.8
	C42.6,60.5,42.2,60.8,42.2,61.3"/>
<path class="st1" d="M47.3,59.4v2c0,0.5,0.1,0.8,0.7,0.8c0.5,0,0.7-0.3,0.7-0.8v-2H50v2.2c0,1.2-0.9,1.6-2,1.6c-1.1,0-2-0.4-2-1.6
	v-2.2H47.3z"/>
<path class="st1" d="M53.5,60.6c-0.2-0.1-0.4-0.3-0.7-0.3c-0.5,0-0.9,0.4-0.9,0.9c0,0.5,0.4,0.9,0.9,0.9c0.2,0,0.5-0.1,0.7-0.3v1.1
	c-0.3,0.1-0.6,0.2-0.9,0.2c-1.1,0-2-0.8-2-1.9c0-1.2,0.9-2,2.1-2c0.3,0,0.6,0.1,0.9,0.2V60.6z"/>
<path class="st1" d="M58.3,63.1H57v-0.4h0c-0.2,0.4-0.7,0.5-1.1,0.5c-1.1,0-1.9-0.9-1.9-2c0-1.1,0.8-2,1.9-2c0.4,0,0.9,0.2,1.1,0.5
	v-0.4h1.3V63.1z M55.4,61.3c0,0.5,0.3,0.8,0.8,0.8c0.5,0,0.8-0.4,0.8-0.8c0-0.5-0.3-0.8-0.8-0.8C55.7,60.5,55.4,60.8,55.4,61.3"/>
<polygon class="st1" points="60.7,63.1 59.3,63.1 59.3,60.5 58.9,60.5 58.9,59.4 59.3,59.4 59.3,58.3 60.7,58.3 60.7,59.4 
	61.4,59.4 61.4,60.5 60.7,60.5 "/>
<path class="st1" d="M63.2,58c0,0.4-0.3,0.7-0.7,0.7s-0.7-0.3-0.7-0.7c0-0.4,0.3-0.7,0.7-0.7S63.2,57.6,63.2,58 M63.1,63.1h-1.3
	v-3.7h1.3V63.1z"/>
<path class="st1" d="M68.2,61.3c0,1.3-1,2-2.2,2c-1.2,0-2.2-0.7-2.2-2c0-1.3,1-2,2.2-2C67.2,59.3,68.2,60,68.2,61.3 M65.1,61.3
	c0,0.5,0.3,0.8,0.8,0.8c0.5,0,0.8-0.4,0.8-0.8c0-0.5-0.3-0.8-0.8-0.8C65.4,60.5,65.1,60.8,65.1,61.3"/>
<path class="st1" d="M70.1,59.9L70.1,59.9c0.3-0.4,0.7-0.6,1.2-0.6c1,0,1.4,0.6,1.4,1.5v2.3h-1.3v-1.8c0-0.4,0.1-1-0.6-1
	c-0.5,0-0.7,0.4-0.7,0.9v1.9h-1.3v-3.7h1.3V59.9z"/>
<path class="st1" d="M79.1,59.1c-0.3-0.2-0.6-0.4-0.9-0.4c-0.3,0-0.6,0.2-0.6,0.5c0,0.3,0.4,0.4,0.6,0.5l0.4,0.1
	c0.8,0.2,1.3,0.6,1.3,1.5c0,0.5-0.1,1.1-0.6,1.5c-0.4,0.4-1,0.5-1.5,0.5c-0.7,0-1.4-0.2-1.9-0.6l0.6-1.1c0.4,0.3,0.8,0.6,1.3,0.6
	c0.3,0,0.7-0.2,0.7-0.5c0-0.4-0.6-0.5-0.9-0.6c-0.9-0.3-1.5-0.5-1.5-1.5c0-1.1,0.8-1.8,1.9-1.8c0.5,0,1.2,0.2,1.7,0.4L79.1,59.1z"/>
<path class="st1" d="M84.6,63.1h-1.3v-0.4h0c-0.2,0.4-0.7,0.5-1.1,0.5c-1.1,0-1.9-0.9-1.9-2c0-1.1,0.8-2,1.9-2
	c0.4,0,0.9,0.2,1.1,0.5v-0.4h1.3V63.1z M81.6,61.3c0,0.5,0.3,0.8,0.8,0.8c0.5,0,0.8-0.4,0.8-0.8c0-0.5-0.3-0.8-0.8-0.8
	C81.9,60.5,81.6,60.8,81.6,61.3"/>
<polygon class="st1" points="87.3,61.3 88.1,59.4 89.6,59.4 87.7,63.1 86.8,63.1 84.9,59.4 86.4,59.4 "/>
<path class="st1" d="M91.3,58c0,0.4-0.3,0.7-0.7,0.7c-0.4,0-0.7-0.3-0.7-0.7c0-0.4,0.3-0.7,0.7-0.7C91,57.3,91.3,57.6,91.3,58
	 M91.3,63.1h-1.3v-3.7h1.3V63.1z"/>
<path class="st1" d="M93.4,59.9L93.4,59.9c0.3-0.4,0.7-0.6,1.2-0.6c1,0,1.4,0.6,1.4,1.5v2.3h-1.3v-1.8c0-0.4,0.1-1-0.6-1
	c-0.5,0-0.7,0.4-0.7,0.9v1.9h-1.3v-3.7h1.3V59.9z"/>
<path class="st1" d="M101,62.8c0,1.6-0.8,2.2-2.1,2.2c-0.9,0-2-0.4-2.1-1.4h1.5c0,0.1,0.1,0.2,0.2,0.3c0.1,0.1,0.3,0.1,0.4,0.1
	c0.7,0,0.8-0.5,0.8-1.1v-0.2c-0.3,0.3-0.7,0.5-1.2,0.5c-1.1,0-1.8-0.8-1.8-1.9c0-1.1,0.8-2,1.9-2c0.4,0,0.8,0.1,1.1,0.5h0v-0.4h1.3
	V62.8z M98,61.3c0,0.5,0.3,0.8,0.8,0.8c0.5,0,0.8-0.4,0.8-0.8c0-0.5-0.3-0.8-0.8-0.8C98.3,60.4,98,60.8,98,61.3"/>
<path class="st1" d="M104.2,60.4c-0.2-0.1-0.5-0.2-0.7-0.2c-0.2,0-0.4,0.1-0.4,0.3c0,0.3,0.4,0.3,0.6,0.3c0.6,0.1,1.1,0.4,1.1,1.1
	c0,1-0.9,1.4-1.8,1.4c-0.5,0-1-0.2-1.5-0.4l0.5-0.9c0.3,0.2,0.7,0.4,1,0.4c0.2,0,0.4-0.1,0.4-0.3c0-0.3-0.4-0.3-0.8-0.4
	c-0.4-0.1-0.8-0.3-0.8-1c0-0.9,0.8-1.3,1.6-1.3c0.4,0,0.8,0.1,1.2,0.2L104.2,60.4z"/>
<path class="st1" d="M108,57.7h2.2c1.2,0,2,0.5,2,1.8c0,1.3-0.7,1.9-1.9,1.9h-0.8v1.8H108V57.7z M109.4,60.2h0.2c0.5,0,1,0,1-0.7
	c0-0.7-0.5-0.7-1-0.7h-0.2V60.2z"/>
<path class="st1" d="M114.1,60L114.1,60c0.3-0.5,0.7-0.7,1.2-0.7h0.3v1.3c-0.2-0.1-0.4-0.1-0.6-0.1c-0.7,0-0.9,0.5-0.9,1.1v1.5h-1.3
	v-3.7h1.3V60z"/>
<path class="st1" d="M120.1,61.3c0,1.3-1,2-2.2,2c-1.2,0-2.2-0.7-2.2-2c0-1.3,1-2,2.2-2C119.1,59.3,120.1,60,120.1,61.3 M117,61.3
	c0,0.5,0.3,0.8,0.8,0.8c0.5,0,0.8-0.4,0.8-0.8c0-0.5-0.3-0.8-0.8-0.8C117.3,60.5,117,60.8,117,61.3"/>
<path class="st1" d="M124.8,62.8c0,1.6-0.8,2.2-2.1,2.2c-0.9,0-2-0.4-2.1-1.4h1.5c0,0.1,0.1,0.2,0.2,0.3c0.1,0.1,0.3,0.1,0.4,0.1
	c0.7,0,0.8-0.5,0.8-1.1v-0.2c-0.3,0.3-0.7,0.5-1.2,0.5c-1.1,0-1.8-0.8-1.8-1.9c0-1.1,0.8-2,1.9-2c0.4,0,0.8,0.1,1.1,0.5h0v-0.4h1.3
	V62.8z M121.8,61.3c0,0.5,0.3,0.8,0.8,0.8c0.5,0,0.8-0.4,0.8-0.8c0-0.5-0.3-0.8-0.8-0.8C122.1,60.4,121.8,60.8,121.8,61.3"/>
<path class="st1" d="M126.9,60L126.9,60c0.3-0.5,0.7-0.7,1.2-0.7h0.3v1.3c-0.2-0.1-0.4-0.1-0.6-0.1c-0.7,0-0.9,0.5-0.9,1.1v1.5h-1.3
	v-3.7h1.3V60z"/>
<path class="st1" d="M132.9,63.1h-1.3v-0.4h0c-0.2,0.4-0.7,0.5-1.1,0.5c-1.1,0-1.9-0.9-1.9-2c0-1.1,0.8-2,1.9-2
	c0.4,0,0.9,0.2,1.1,0.5v-0.4h1.3V63.1z M130,61.3c0,0.5,0.3,0.8,0.8,0.8c0.5,0,0.8-0.4,0.8-0.8c0-0.5-0.3-0.8-0.8-0.8
	C130.3,60.5,130,60.8,130,61.3"/>
<path class="st1" d="M135.1,59.9L135.1,59.9c0.3-0.4,0.7-0.6,1.2-0.6c0.5,0,1,0.2,1.3,0.7c0.3-0.5,0.8-0.7,1.3-0.7
	c0.9,0,1.3,0.6,1.3,1.5v2.4h-1.3v-1.8c0-0.4,0-1-0.5-1c-0.6,0-0.6,0.6-0.6,1v1.8h-1.3v-1.8c0-0.4,0-1-0.6-1c-0.6,0-0.6,0.6-0.6,1
	v1.8h-1.3v-3.7h1.3V59.9z"/>
</svg>
