<?xml version="1.0" encoding="UTF-8"?>
<!-- Generator: Adobe Illustrator 14.0.0, SVG Export Plug-In . SVG Version: 6.00 Build 43363)  -->
<!DOCTYPE svg PUBLIC "-//W3C//DTD SVG 1.1//EN" "http://www.w3.org/Graphics/SVG/1.1/DTD/svg11.dtd">
<svg version="1.1" id="Layer_1" xmlns="http://www.w3.org/2000/svg" xmlns:xlink="http://www.w3.org/1999/xlink" x="0px" y="0px" width="250px" height="63px" viewBox="0 0 250 63" enable-background="new 0 0 250 63" xml:space="preserve">
<g>
	<path fill="#8CD50C" d="M14.157,57.906c-1.845-0.155-6.75,1.509-8.72-2.732c-0.979-2.725-0.237-5,1.431-6.366   c1.983-1.677,4.879-2.436,9.108-0.768L14.157,57.906"/>
	<path fill="#8CD50C" d="M58.825,5.864c1.836,0.155,6.754-1.521,8.724,2.724c0.97,2.72,0.237,5-1.431,6.366   c-1.987,1.677-4.884,2.436-9.112,0.767L58.825,5.864"/>
	<path fill="#8CD50C" d="M9.153,34.691c0.008,0.133,6.914-7.319,26.616,8.396c15.22,12.146,24.082,5.939,24.047,5.888l-1.539,7.474   c0,0-7.061,7.569-26.517-7.685C15.657,36.131,7.645,41.958,7.645,41.958S9.119,34.354,9.153,34.691"/>
	<path fill="#8CD50C" d="M12.041,20.463c0.009,0.133,6.91-7.328,26.616,8.396C53.873,40.997,62.734,34.79,62.7,34.734l-1.535,7.479   c0,0-7.06,7.573-26.517-7.682c-16.103-12.629-24.116-6.806-24.116-6.806S12.006,20.126,12.041,20.463"/>
	<path fill="#8CD50C" d="M14.881,6.329c0.009,0.125,6.914-7.327,26.616,8.396c15.22,12.138,24.082,5.931,24.047,5.879l-1.539,7.474   c0,0-7.06,7.577-26.517-7.689C21.39,7.769,13.373,13.588,13.373,13.588S14.847,5.993,14.881,6.329"/>
	<path fill="#008542" d="M237.293,51.872c-1.612,0-6.207,0.025-7.547,0.025l7.642-35.189c2.509,0,5.104,0.013,7.612,0.013   L237.293,51.872"/>
	<path fill="#008542" d="M155.083,16.691c-0.293,1.228-1.337,5.987-1.573,7.215c-1.405-0.073-5.483-0.026-7.673-0.026   c0.409-1.539,1.298-5.927,1.548-7.189C149.121,16.739,152.819,16.747,155.083,16.691"/>
	<path fill="#008542" d="M80.799,30.48l-4.664,21.392c-1.642-0.018-6.319,0.025-8.146,0.034L75.644,16.7l8.5,0.009l8.121,21.241   l4.677-21.228c2.686-0.09,5.457,0.078,8.229-0.013l-7.642,35.189l-8.151-0.043L80.799,30.48"/>
	<path fill="#008542" d="M141.514,18.544c-0.345,1.414-1.138,5.448-1.482,7.082l3.995,0.026c-0.349,1.767-0.793,4-1.12,5.254   l-3.979,0.026l-3.15,14.448c-0.091,0.37-0.009,0.806,0.538,0.806c0.936-0.034,2.53-0.018,3.396,0.018l-1.254,5.65l-7.784,0.034   c-1.246-0.025-2.418-0.956-2.957-2.06c-0.53-1.5-0.268-3.177,0.009-4.668l3.142-14.254c-1.008,0.026-2.029,0.008-2.922,0.008   c0.311-1.457,0.893-4.564,1.121-5.314l2.974,0.009c0.436-2.41,1.186-5.677,1.466-7.073L141.514,18.544"/>
	<path fill="#008542" d="M203.819,27.286c2.143,2.982,0.164,6.896-0.194,10.056l-3.241,14.504c-1.793,0.018-5.104,0.018-7.607,0.009   c0.905-6.146,2.612-12.288,3.784-18.521c0.091-0.936-0.177-1.863-1.077-2.147c-1.88-0.28-4.203-0.465-5.552,1.203l-0.716,1.492   l-3.866,17.982c-1.634-0.086-5.189,0.043-7.784,0.043c0.37-1.561,5.418-25.077,5.668-26.254c0.888-0.026,5.443,0.017,7.245-0.035   c-0.034,0.698,0.026,1.582-0.025,2.771c2.332-3.539,6.561-3.715,10.409-3.064C201.936,25.794,203.19,26.165,203.819,27.286"/>
	<path fill="#008542" d="M153.173,25.652c-1.711,8.75-3.758,17.561-5.65,26.22l-7.694,0.017c1.712-8.659,3.85-17.577,5.646-26.236   C146.958,25.601,151.187,25.661,153.173,25.652"/>
	<path fill="#008542" d="M169.983,31.717c1.518,2.146,0.616,5.405,0.077,7.725c-0.633,2.797-1.802,6.711-5.198,7.073   c-1.879,0.095-4.301,0.37-5.279-1.682c-0.802-4.104,0.361-7.732,1.979-11.263c1.525-2.698,4.659-2.974,7.345-2.418L169.983,31.717    M171.057,25.29c-6.354-0.659-13.064,0.638-16.384,6.686c-2.604,4.836-4.668,11.172-2.073,16.664   c1.155,2.146,3.393,2.982,5.543,3.448c5.544,0.568,11.811,0.577,15.845-4.35c3.764-4.75,5.651-11.349,4.134-17.59   C177.143,26.976,173.919,25.669,171.057,25.29z"/>
	<path fill="#008542" d="M117.104,40.122c-2.508,1.207-6.621-0.107-8.146,3.061c-0.354,0.84-0.444,1.952,0.177,2.702   c1.526,1.211,3.672,0.564,5.19-0.186c1.978-1.013,2.871-3.345,2.965-5.491L117.104,40.122 M126.428,29.053   c0.448,1.578,0.264,3.539-0.099,5.03l-2.513,11.634l1.164,0.47c-0.237,1.246-0.892,4.298-1.172,5.487   c-2.323,0-5.819,1.017-6.974-1.776c-0.09-0.275-0.224-0.595-0.276-0.845c-1.607,1.862-4.026,2.741-6.444,2.862   c-2.233,0.275-4.741-0.077-6.707-0.914c-1.431-0.561-2.383-2.077-2.599-3.448c-0.173-3.638,0.814-7.263,3.957-9.4   c3.849-2.418,9.039-1.668,13.427-2.866c0.513,0.129,1.254-2.431,0.625-3.638c-1.517-1.306-4.323-1.112-5.638-0.379   c-0.982,0.556-1.345,1.677-1.793,2.698l-6.974-0.009c0.453-3.168,2.332-6.513,5.466-7.539c4.388-1.383,9.664-1.754,14.051-0.069   C124.997,26.82,125.984,27.933,126.428,29.053z"/>
	<path fill="#008542" d="M220.625,40.122c-2.509,1.207-6.62-0.107-8.146,3.061c-0.362,0.84-0.452,1.952,0.177,2.702   c1.518,1.211,3.673,0.564,5.189-0.186c1.97-1.013,2.866-3.345,2.957-5.491L220.625,40.122 M229.948,29.053   c0.439,1.578,0.263,3.539-0.099,5.03l-2.518,11.634l1.159,0.47c-0.232,1.246-0.884,4.298-1.168,5.487   c-2.327,0-5.814,1.017-6.982-1.776c-0.086-0.275-0.22-0.595-0.263-0.845c-1.617,1.862-4.035,2.741-6.444,2.862   c-2.241,0.275-4.75-0.077-6.72-0.914c-1.427-0.561-2.371-2.077-2.586-3.448c-0.177-3.638,0.814-7.263,3.948-9.4   c3.849-2.418,9.038-1.668,13.427-2.866c0.521,0.129,1.263-2.431,0.633-3.638c-1.525-1.306-4.331-1.112-5.638-0.379   c-0.991,0.556-1.345,1.677-1.793,2.698l-6.982-0.009c0.448-3.168,2.332-6.513,5.465-7.539c4.384-1.383,9.673-1.754,14.052-0.069   C228.518,26.82,229.496,27.933,229.948,29.053z"/>
</g>
</svg>