<?xml version="1.0" encoding="UTF-8" standalone="no"?>
<svg
   viewBox="0 0 1000 396.49998"
   version="1.1"
   id="svg25"
   sodipodi:docname="Red Bull Media House Logo.svg"
   width="1000"
   height="396.5"
   inkscape:version="1.4 (86a8ad7, 2024-10-11)"
   xmlns:inkscape="http://www.inkscape.org/namespaces/inkscape"
   xmlns:sodipodi="http://sodipodi.sourceforge.net/DTD/sodipodi-0.dtd"
   xmlns="http://www.w3.org/2000/svg"
   xmlns:svg="http://www.w3.org/2000/svg"
   xmlns:rdf="http://www.w3.org/1999/02/22-rdf-syntax-ns#"
   xmlns:cc="http://creativecommons.org/ns#"
   xmlns:dc="http://purl.org/dc/elements/1.1/">
  <sodipodi:namedview
     id="namedview25"
     pagecolor="#ffffff"
     bordercolor="#000000"
     borderopacity="0.25"
     inkscape:showpageshadow="2"
     inkscape:pageopacity="0.0"
     inkscape:pagecheckerboard="0"
     inkscape:deskcolor="#d1d1d1"
     inkscape:zoom="0.95067247"
     inkscape:cx="576.43407"
     inkscape:cy="179.34673"
     inkscape:window-width="1920"
     inkscape:window-height="1017"
     inkscape:window-x="-8"
     inkscape:window-y="-8"
     inkscape:window-maximized="1"
     inkscape:current-layer="svg25" />
  <defs
     id="defs9">
    <style
       id="style1">.cls-1{fill:none;}.cls-2{fill:#767779;}.cls-3{fill:#e93b61;}.cls-4{fill:#ffd500;}.cls-5{fill:#f39200;}.cls-6{fill:#003063;}.cls-7{clip-path:url(#clip-path);}.cls-8{fill:url(#Unbenannter_Verlauf);}.cls-9{fill:#fff;}.cls-10{fill:#dd0741;}</style>
    <clipPath
       id="clip-path">
      <path
         class="cls-1"
         d="m 85.15,82.4 v 0 M 95.76,61.51 c 0,-0.07 0.11,-0.17 0.15,-0.24 a 14.76,14.76 0 0 1 -1.32,3 l -0.46,0.71 c -0.76,1.14 -2.24,1.39 -3.07,2.45 -0.2,-0.11 -0.25,-0.15 -0.58,0 -0.09,-0.51 0.74,-1.21 0.08,-1.53 a 19.58,19.58 0 0 1 2.85,-3.83 0.42,0.42 0 0 0 0.45,0.36 4.39,4.39 0 0 0 1.9,-1 m -7.44,4.6 c -3.87,3.16 -0.52,2.24 -0.48,2.22 a 4.3,4.3 0 0 0 0.86,-0.47 c -3.65,4.06 -14.06,8.56 -21.76,5.35 -2,-0.85 -3.43,-1.36 0.46,1 a 0.28,0.28 0 0 1 -0.12,0 c 1.65,0.83 3.7,2 2.67,2 a 0.58,0.58 0 0 1 0,0.07 v 0 0 c 0,0 0,0 2.85,1.08 -0.17,0.07 -0.32,0.68 2,0.92 a 19.71,19.71 0 0 0 7.5,-0.7 c -4.81,3.33 -10.4,5.46 -15.93,4.38 l 0.49,0.19 a 11.68,11.68 0 0 0 3.39,0.72 c 0,0.06 0,0.14 0,0.22 a 3.08,3.08 0 0 0 2.29,0.07 c 0.51,-0.26 0.71,-0.31 4,-0.56 -0.73,0.6 -1.77,0.32 -2.54,0.84 a 0.61,0.61 0 0 0 0.2,0.31 c 4.19,-0.57 8.51,-1.16 19.21,-9.87 a 2,2 0 0 1 0.47,-0.27 v 0 c -0.78,0.75 -0.78,0.75 -7.45,6.4 -1.59,1.35 -3.89,1.5 -5.38,3 0,0.06 0,0.13 0.06,0.19 v 0 h 0.07 a 2.81,2.81 0 0 0 1,0 c -0.66,0.27 -1.46,0.61 -2.45,1.05 0,0.05 -0.05,0 0,0.35 1.89,-0.43 5.63,-0.92 8.1,-2.4 3.67,-2 10.61,-8.12 13.83,-14.79 A 1.3,1.3 0 0 1 102,67 v 0.18 0 c 0.12,0.24 0.12,0.24 -0.22,1.45 a 11.4,11.4 0 0 0 0.63,-1.73 c 0.61,-5.56 -3.05,-7.6 -3.9,-8 a 10.53,10.53 0 0 0 -1.39,-0.52 v 0 H 97 a 17.16,17.16 0 0 0 -2.38,-0.49 19.94,19.94 0 0 1 -6.35,8.21"
         id="path1" />
    </clipPath>
    <linearGradient
       id="Unbenannter_Verlauf"
       x1="-182.62"
       y1="280.51999"
       x2="-181.62"
       y2="280.51999"
       gradientTransform="matrix(36.67,0,0,-36.67,6762.07,10358.45)"
       gradientUnits="userSpaceOnUse">
      <stop
         offset="0"
         stop-color="#0086cd"
         id="stop1" />
      <stop
         offset="0.41"
         stop-color="#0084cb"
         id="stop2" />
      <stop
         offset="0.56"
         stop-color="#007fc4"
         id="stop3" />
      <stop
         offset="0.68"
         stop-color="#0075b8"
         id="stop4" />
      <stop
         offset="0.77"
         stop-color="#0067a7"
         id="stop5" />
      <stop
         offset="0.85"
         stop-color="#005591"
         id="stop6" />
      <stop
         offset="0.92"
         stop-color="#003f76"
         id="stop7" />
      <stop
         offset="0.96"
         stop-color="#003063"
         id="stop8" />
      <stop
         offset="1"
         stop-color="#003063"
         id="stop9" />
    </linearGradient>
  </defs>
  <title
     id="title9">red-bull-media-house</title>
  <g
     id="Ebene_2"
     data-name="Ebene 2"
     transform="matrix(4.2854369,0,0,4.2854369,1.1156946,1.1554931)">
    <g
       id="Ebene_1-2"
       data-name="Ebene 1">
      <path
         class="cls-2"
         d="m 106.6,72 c -1,-0.53 -1.86,0.23 -2.35,1.12 A 26.31,26.31 0 0 1 96.74,82.07 33.74,33.74 0 0 1 77.5,88.28 32.69,32.69 0 0 1 44.78,56.13 h 0.05 V 35.86 a 3.93,3.93 0 0 0 -7.86,0 V 56.09 H 7.86 V 35.86 a 3.93,3.93 0 0 0 -7.86,0 v 51.43 a 3.93,3.93 0 0 0 7.86,0 V 63.95 H 37 l 0.14,-0.14 C 41.06,79.94 56.59,92 75.16,92 A 41,41 0 0 0 97,85.76 27.84,27.84 0 0 0 107,74.68 c 0.57,-1.12 0.57,-2.14 -0.45,-2.67 m 37.84,-40.54 a 4,4 0 0 0 -3.93,4 v 0 34.59 0 c 0,0 0,0 0,0.1 a 24.94,24.94 0 0 1 -1.76,7.76 10.13,10.13 0 0 1 -3,3.94 10.28,10.28 0 0 1 -5.93,1.63 v 0 a 12.36,12.36 0 0 1 -6,-1.92 9.76,9.76 0 0 1 -3.15,-3.77 32.44,32.44 0 0 1 -2,-6.7 l -3.26,-14 C 113.44,48.3 109.45,43.85 109.45,43.85 104.07,36.42 93.77,33.14 93.77,33.14 A 46.26,46.26 0 0 0 80.3,31.25 c -10.57,0 -20.11,4.15 -26,11.95 -0.71,0.94 -0.77,2 0.23,2.64 1,0.64 1.81,0 2.6,-0.92 A 28.41,28.41 0 0 1 78.64,34.55 c 1,0 2,0 3.08,0.15 a 33.18,33.18 0 0 1 14,4.42 c 4.95,3.09 10.39,7.92 12.86,20.16 l 3.38,17.28 a 21.44,21.44 0 0 0 2,5.35 17.65,17.65 0 0 0 9.49,8.34 19.89,19.89 0 0 0 6.37,1.18 h 0.1 a 17.8,17.8 0 0 0 11,-3.58 20.7,20.7 0 0 0 6.61,-11.29 30,30 0 0 0 0.87,-6.34 c 0,-0.06 0,-0.11 0,-0.17 V 35.44 a 4,4 0 0 0 -3.93,-4 m 37,26.18 a 20.06,20.06 0 0 0 -5.27,-0.84 h -5.42 a 9.54,9.54 0 0 1 -5.33,-1.32 7.91,7.91 0 0 1 -3.22,-4.46 12,12 0 0 1 -0.45,-2.11 c 0,-0.26 0,-0.47 -0.05,-0.6 -0.05,-0.13 0,-0.08 0,-0.1 v 0 a 8.6,8.6 0 0 1 1.22,-4.86 7.31,7.31 0 0 1 4.12,-2.87 11.36,11.36 0 0 1 2,-0.42 h 0.55 14.06 a 3.93,3.93 0 0 0 0,-7.86 h -14 a 18.21,18.21 0 0 0 -7.72,1.94 14.43,14.43 0 0 0 -5.58,5 16.46,16.46 0 0 0 -2.49,9.16 c 0,0.1 0,0.2 0,0.3 a 19,19 0 0 0 2,7.77 15,15 0 0 0 5.19,5.79 17.37,17.37 0 0 0 9.58,2.58 h 5.42 a 13.23,13.23 0 0 1 5.12,1.28 7.43,7.43 0 0 1 2.86,2.5 9,9 0 0 1 1.3,5.08 v 0 c 0,0 0,0.13 0,0.41 a 12,12 0 0 1 -1.69,5.36 6.89,6.89 0 0 1 -2.47,2.32 9.75,9.75 0 0 1 -4.82,1.06 h -20.2 a 3.93,3.93 0 1 0 0,7.86 h 20.2 a 17.12,17.12 0 0 0 9.57,-2.59 16,16 0 0 0 6.39,-8.9 20.15,20.15 0 0 0 0.88,-5.4 c 0,0 0,-0.06 0,-0.09 v 0 a 16.72,16.72 0 0 0 -2.75,-9.63 16.42,16.42 0 0 0 -9.09,-6.29 m 47.79,25.19 h -16.86 c -4.66,0 -6.46,-1.26 -6.46,-3.61 0,-0.29 0,-15.35 0,-15.35 h 22.57 a 3.93,3.93 0 0 0 0,-7.83 H 205.85 V 42.81 c 0,-2.19 1.19,-3 3.25,-3 h 20 a 3.72,3.72 0 0 0 0,-7.42 h -19.61 c -1,-0.05 -5.35,-0.22 -8.39,2.51 a 9.28,9.28 0 0 0 -3,7.21 v 37.8 a 9.7,9.7 0 0 0 2.9,6.65 c 2.51,2.52 6.41,3.94 11.33,3.94 h 16.87 a 3.84,3.84 0 0 0 0,-7.67"
         id="path9" />
      <path
         class="cls-3"
         d="m 26.11,10.3 a 8.3,8.3 0 0 0 0,16.59 8.32,8.32 0 0 0 7.54,-4 l -4,-1.86 a 3.4,3.4 0 0 1 -3.11,1.88 3.24,3.24 0 0 1 -3.37,-3.09 c 0,-0.11 0,-0.07 0,-0.17 h 11 a 9.62,9.62 0 0 0 0,-1 c 0.08,-5.37 -3.48,-8.31 -8,-8.31 m -3,6.5 a 3.03,3.03 0 0 1 6.06,0 z m -6.07,-8 A 7.4,7.4 0 0 0 9.58,1.51 H 0.06 V 26.34 H 5.33 V 5.8 H 8.48 A 3.31,3.31 0 0 1 11.91,9 3.4,3.4 0 0 1 8.38,12.25 H 7.16 v 5.91 l 5.27,8.13 h 6.22 L 11.36,16 a 7.36,7.36 0 0 0 5.69,-7.12 m 31.8,3.54 a 7.06,7.06 0 0 0 -5,-2.09 c -4.09,0 -7.41,3.63 -7.41,8.11 0,4.48 3.32,8.11 7.41,8.11 a 7,7 0 0 0 5,-2.15 v 2 H 53.8 V 0.07 h -4.95 z m -3.58,10.12 a 3.82,3.82 0 0 1 -3.64,-4 3.65,3.65 0 1 1 7.28,0 3.82,3.82 0 0 1 -3.64,4 m 62.13,3.84 h 5 V 0.27 h -5 z m -16,-6.28 a 2.84,2.84 0 0 1 -5.67,0 v -8.94 h -4.91 v 9.89 c 0,3.35 3.46,6.06 7.74,6.06 4.28,0 7.74,-2.72 7.74,-6.06 v -9.89 h -4.89 z m 7.6,6.28 h 5 V 0.27 H 99 Z M 74.75,12.83 A 6.59,6.59 0 0 0 76.94,8 6.47,6.47 0 0 0 75.15,3.54 C 74,2.24 71.88,1.66 69,1.66 h -8.42 v 24.7 h 10.94 a 7.44,7.44 0 0 0 7.57,-7.14 c 0,-2.82 -1,-4.84 -4.34,-6.39 M 70.6,22 H 65.86 V 5.93 h 3.31 a 2.63,2.63 0 1 1 0,5.26 h -1.72 v 4.46 h 3.15 a 3.19,3.19 0 0 1 0,6.38"
         id="path10" />
      <path
         class="cls-4"
         d="m 101.69,70.24 0.11,-0.3 v -0.15 z m -19,-13.68 a 2.28,2.28 0 0 0 -0.49,0.25 h 0.05 c 0.28,0 0.28,0 1.43,-0.39 h 0.09 A 4.3,4.3 0 0 0 82.7,56.58 M 70.5,66 v 0 l -1.81,1 c 0.52,-0.32 1.24,-0.72 1.78,-1 M 80.64,54.91 a 0.32,0.32 0 0 1 -0.14,0 v 0 h 0.15 m 5.19,-1.15 h -0.11 -0.2 l 0.31,-0.05 m 0.61,-0.08 h -0.18 q 1.31,-0.24 2.38,-0.36 l -0.6,0.21 a 1.83,1.83 0 0 0 -0.32,0.07 0.08,0.08 0 0 1 -0.08,0.06 h -0.11 a 4,4 0 0 1 -0.65,0 h -0.44 m -16.62,-9.4 a 31,31 0 0 0 -10,5.94 11.51,11.51 0 0 1 -3.24,2.27 v 0 c -0.16,0.36 -0.35,0.86 -0.51,1.22 -0.28,0.77 -0.43,1.17 -0.57,1.68 a 0.29,0.29 0 0 0 0,0.12 c 0.23,0 0.67,-0.23 2.29,-1.21 a 63.77,63.77 0 0 1 7,-3.86 3.42,3.42 0 0 1 -1.44,1.94 c -0.25,0.16 -0.56,0.39 -0.82,0.54 -1,0.55 -2,1 -2.92,1.54 -1.13,0.64 -2.21,1.37 -3.33,2 l -0.35,0.18 c -0.45,0.21 -0.7,0.1 -0.69,-0.31 0,0 0,-0.05 0,-0.09 l -0.19,0.75 a 27.45,27.45 0 0 0 -0.58,4.81 20.88,20.88 0 0 0 0.83,6.47 1.15,1.15 0 0 0 0,0.13 l 0.27,0.05 a 11.27,11.27 0 0 0 0.45,1.75 c 0.49,0.35 0.3,1 0.59,1.38 a 1.61,1.61 0 0 1 0.52,-0.1 L 57,71.5 a 6.41,6.41 0 0 0 0.82,0.23 c 0,0.9 0,0.9 0.09,1.11 l 0.25,-0.17 c 1.38,0.3 1.38,0.3 2.09,-0.28 l 0.58,-0.5 c -0.58,0.68 -0.58,0.68 -0.53,1.17 0.42,0.06 0.42,0.06 8.8,-5.77 v 0 c 3.74,-2.12 7.28,-4.56 11,-6.72 -2.78,0.82 -5.19,2.45 -7.82,3.57 l -2.33,1.36 v -0.05 c 0,0 -0.11,-0.25 -0.18,-0.27 h -0.25 a 1.21,1.21 0 0 0 -0.59,-0.05 0.47,0.47 0 0 0 -0.14,0.07 l -0.21,0.1 c -0.08,0 -0.14,0.08 -0.22,0.1 a 0.67,0.67 0 0 1 -0.29,0 h -0.15 a 1.32,1.32 0 0 1 -0.27,0 c -0.06,-0.06 0,-0.2 0.05,-0.25 a 0.67,0.67 0 0 0 0,-0.17 0.08,0.08 0 0 1 0.08,-0.06 0.29,0.29 0 0 0 0.05,-0.11 1.1,1.1 0 0 1 0.38,-0.38 l 0.55,-0.37 a 2.54,2.54 0 0 1 0.64,-0.37 h 0.25 c 0.1,0 0.1,-0.07 0.15,-0.16 0.05,-0.09 0.05,-0.06 0,-0.11 a 1.43,1.43 0 0 0 -0.33,-0.15 v 0 0 c -0.09,0 -0.06,0 -0.14,0 a 1.47,1.47 0 0 0 -0.28,0.14 3,3 0 0 1 -0.32,0.19 0.92,0.92 0 0 0 -0.17,0.2 l -0.92,0.58 h -0.06 c -0.08,0 -0.14,0 -0.21,0 -0.07,0 -0.41,0.13 -0.61,0.18 a 1.14,1.14 0 0 0 -0.45,0.15 1.43,1.43 0 0 0 -0.13,0.14 1.52,1.52 0 0 1 -0.34,0.26 0.6,0.6 0 0 1 -0.36,0.06 h -0.09 a 0.34,0.34 0 0 1 -0.16,0 v 0 c 0,0 0,0 0,0 a 0.27,0.27 0 0 1 0,-0.11 c 0,-0.08 0.14,-0.11 0.17,-0.21 0.03,-0.1 -0.38,0 -0.49,0 a 3.6,3.6 0 0 0 -0.66,0.24 c -0.18,0.09 -0.37,0.11 -0.54,0.2 -0.17,0.09 -0.38,0 -0.64,0 a 0.27,0.27 0 0 1 0,-0.19 c 0,-0.06 0.1,-0.1 0.14,-0.16 a 0.2,0.2 0 0 0 0,-0.06 l 0.26,-0.29 c 0.18,-0.18 0.45,-0.32 0.64,-0.48 0.19,-0.16 0.45,-0.43 0.68,-0.65 0,0 0.08,-0.07 0.12,-0.11 a 0.07,0.07 0 0 0 0.08,0 c 0,0 0,-0.1 0.07,-0.15 a 0.17,0.17 0 0 0 0.06,0 2.42,2.42 0 0 1 0.32,-0.25 0.2,0.2 0 0 0 0.11,-0.3 c -0.08,0 -0.11,0.11 -0.15,0.15 a 1.23,1.23 0 0 1 -0.34,0.21 2.79,2.79 0 0 1 -1,0.31 H 63.6 a 1.27,1.27 0 0 1 -0.27,0 c -0.06,-0.08 0.11,-0.3 0.15,-0.34 l 0.21,-0.28 a 0.51,0.51 0 0 0 0.09,-0.15 c 0,0 0,0 0.09,-0.06 l 0.67,-0.41 A 0.34,0.34 0 0 1 64.69,62 c 0.05,0 0.09,0 0.13,0 L 65,61.7 c 0.25,-0.17 0.56,-0.28 0.84,-0.42 0.28,-0.14 0.68,-0.49 1.07,-0.67 A 2.45,2.45 0 0 1 67.28,60.44 1,1 0 0 0 67.52,60.35 3.07,3.07 0 0 1 68,60 c 0.2,-0.09 0.41,-0.16 0.61,-0.26 0.2,-0.1 0.1,-0.08 0.15,-0.11 h 0.15 l 0.27,-0.14 0.3,-0.13 A 1.28,1.28 0 0 0 69.76,59.23 0.27,0.27 0 0 0 70,59 c 0,-0.05 0.06,-0.16 0,-0.21 a 1,1 0 0 0 -0.48,0.15 c -0.15,0.07 -0.3,0.1 -0.45,0.17 a 0.84,0.84 0 0 0 -0.22,0.13 0.24,0.24 0 0 1 -0.11,0 h -0.06 a 0.45,0.45 0 0 0 -0.19,0 2.2,2.2 0 0 0 -0.29,0.08 2.64,2.64 0 0 0 -0.55,0.28 c -0.22,0.12 -0.42,0.26 -0.65,0.36 a 5.24,5.24 0 0 1 -0.85,0.37 l -0.66,0.21 c -0.14,0 -0.28,0.09 -0.41,0.14 a 0.36,0.36 0 0 0 -0.13,0.1 0.68,0.68 0 0 1 -0.26,0.13 l -0.79,0.31 a 2,2 0 0 1 -0.24,0.08 1.81,1.81 0 0 1 -0.36,0 h -0.21 a 1.09,1.09 0 0 1 -0.42,-0.09 h -0.11 q 1.06,-0.74 2.17,-1.41 c 0.8,-0.49 1.62,-0.95 2.46,-1.38 0.84,-0.43 1.78,-0.92 2.69,-1.35 0.91,-0.43 1.9,-0.87 2.86,-1.27 0.96,-0.4 2,-0.8 3,-1.18 1,-0.38 2,-0.73 3,-1.06 1,-0.33 2,-0.62 3,-0.91 1,-0.29 1.92,-0.52 2.89,-0.75 0.97,-0.23 1.82,-0.4 2.74,-0.56 l 1.26,-0.2 a 2.35,2.35 0 0 0 0.32,-0.05 1.15,1.15 0 0 0 0.2,-0.06 l -0.08,0.05 0.6,-0.07 h 0.54 c 0.08,0 0.5,0 0.5,0.11 0,0.11 -0.11,0.08 -0.17,0.1 l -0.23,0.1 h 1 c 0,0 0.2,0 0.21,0 0.01,0 0,0.05 -0.07,0.05 l -0.3,0.21 a 1,1 0 0 1 -0.34,0.13 l -0.71,0.2 a 8.84,8.84 0 0 1 -1.06,0.18 c -0.09,0 -0.2,0 -0.17,0.12 a 0.82,0.82 0 0 0 0.22,0 h 0.86 a 2.11,2.11 0 0 0 0.44,0 1,1 0 0 1 0.31,0 3.2,3.2 0 0 1 0.38,0.08 28.93,28.93 0 0 0 -4.63,0.79 5.15,5.15 0 0 1 -2.1,0.33 4.52,4.52 0 0 1 0.36,-0.43 c -0.76,-0.11 -5.3,1.45 -5.6,2.26 v 0 c -0.05,0.13 0,0.16 0.13,0.2 a 3.58,3.58 0 0 0 0.9,0.07 c 0.37,0 0.73,0 1.08,0 H 82 a 7,7 0 0 0 1.54,-0.07 c 0.42,-0.1 0.83,-0.26 1.24,-0.39 0.41,-0.13 0.8,-0.27 1.21,-0.38 l 0.28,-0.09 a 1.22,1.22 0 0 1 0.2,-0.08 c 0.09,0 0.11,0 0.08,0.13 -0.03,0.13 -0.55,0.25 -0.67,0.29 -0.12,0.04 -0.42,0.15 -0.62,0.23 0,0.19 0.29,0.16 0.5,0.13 h 0.2 0.2 c 0.08,0 0,0.22 0,0.28 a 1.12,1.12 0 0 1 -0.15,0.23 0.58,0.58 0 0 1 -0.24,0.2 c 0,0.17 1,0.08 1.15,0.06 0.15,-0.02 0.4,-0.18 0.58,-0.2 0.18,-0.02 0.13,0 0.21,0 l 0.3,-0.05 c 0.12,0 0.22,-0.08 0.35,-0.09 h 0.24 c 0.08,0 0.17,0 0.26,0 0.09,0 0.42,-0.12 0.63,-0.14 h 0.31 l 0.54,-0.09 c 0.23,-0.06 0.47,-0.09 0.7,-0.12 a 5,5 0 0 1 1,0 c 0.3,0 0.6,0.11 0.9,0.15 0.3,0.04 -0.07,0.28 -0.19,0.35 a 8,8 0 0 1 -1.34,0.66 2,2 0 0 1 -0.9,0.2 1.34,1.34 0 0 0 -0.5,0.07 1.57,1.57 0 0 1 -0.32,0.09 h -0.3 a 3.55,3.55 0 0 0 -0.44,0 l -0.18,0.05 h -0.14 a 0.68,0.68 0 0 0 -0.3,0 c -0.11,0 -0.11,0.08 -0.23,0.09 H 88 a 0.69,0.69 0 0 0 -0.31,0 2,2 0 0 1 -0.79,0.12 h -0.1 -0.05 a 5.38,5.38 0 0 1 -0.51,0.18 c -0.37,0.14 -0.71,0.35 -1.1,0.46 a 1.89,1.89 0 0 1 -0.23,0 l -0.72,0.2 c -0.11,0 -0.23,0.07 -0.33,0.1 a 3.12,3.12 0 0 0 -0.5,0.23 l -0.26,0.12 a 1.2,1.2 0 0 1 -0.44,0.13 l -0.38,0.08 c -0.14,0 -0.18,0.11 -0.27,0.18 -0.09,0.07 -0.2,0 -0.29,0.09 l -0.55,0.3 -0.24,0.11 a 1.53,1.53 0 0 0 -0.35,0.22 0.57,0.57 0 0 0 -0.05,0.4 v 0 a 0.12,0.12 0 0 1 0,0.05 1.44,1.44 0 0 0 0.67,0 0.93,0.93 0 0 0 0.26,0 h 0.34 a 2.15,2.15 0 0 0 0.63,-0.23 l 0.09,-0.05 c 2.72,-0.61 5.29,-1.88 8.12,-2.07 0.05,0 4.74,-0.21 7.9,1.26 1,0.45 5.72,3.1 3.28,10.84 l 0.23,-0.67 a 23.33,23.33 0 0 0 0.87,-3.92 v -0.1 a 23.94,23.94 0 0 0 0.16,-4.34 23.26,23.26 0 0 0 -1.11,-6 l -0.08,-0.14 c -0.09,-0.25 0.76,-2.33 -3.86,-7 -2,-1.87 -4.81,-2 -7,-3.37 0.32,-0.11 0.32,-0.11 0.8,0 -1.87,-1.18 -4.16,-0.91 -6.15,-1.67 a 1.14,1.14 0 0 1 1,-0.3 c 0,-0.07 0,-0.19 0,-0.27 a 10.82,10.82 0 0 1 6.6,1.08 C 93.09,42.9 92.9,42.76 92.72,42.61 a 6.07,6.07 0 0 1 1.34,0.8 l 0.07,0.05 -0.18,-0.15 c -3,-2.31 -7.39,-5.26 -20.79,0.16 l -1,-0.34 c 0,0 -1.13,0.62 -1.14,0.61"
         id="path11" />
      <path
         class="cls-5"
         d="m 61.24,44.56 0.47,-0.48 -0.47,0.48 m 37.44,1.93 -0.06,-0.08 v 0 z m -6.16,-5.67 z m -31.29,3.76 z m 29.5,2.34 a 4.65,4.65 0 0 0 -1,-0.38 2.55,2.55 0 0 0 -0.5,-0.08 v 0 a 4.79,4.79 0 0 0 1.34,0.41 h 0.08 m 12.76,12.25 a 26.17,26.17 0 0 0 -1.09,-5.57 l -0.37,-1 A 26.07,26.07 0 0 0 99.13,47.23 C 98.83,46.8 98.81,46.77 98.44,46.3 v 0 0 a 21.2,21.2 0 0 0 -3.62,-3.64 6.71,6.71 0 0 1 0.68,0.5 L 95.38,43 c -4,-3.49 -8,-4.57 -12.8,-5.13 a 19.26,19.26 0 0 1 9.9,3 24,24 0 0 0 -11,-3.59 c -0.54,0 -1.15,0 -1.86,-0.05 a 27.52,27.52 0 0 0 -8.43,1.52 v 0 a 35.64,35.64 0 0 0 -4.46,1.73 l -0.16,0.08 h -0.09 l -0.44,0.22 h -0.08 l -0.28,0.15 -0.62,0.37 v 0 l -0.46,0.29 -0.34,0.24 -0.9,0.71 A 21,21 0 0 0 61.83,44 c 1.66,-1.53 6.32,-4.21 13.82,-5.05 a 4.53,4.53 0 0 1 -1.9,0.74 c -3.9,0.89 -9.78,2.24 -12.48,4.88 v 0 c -0.28,0.29 -0.52,0.58 -1.24,1.43 a 21.73,21.73 0 0 0 -1.71,2.4 l -0.49,0.82 c 0,0.07 0,0.19 -0.06,0.28 H 58 l -0.56,2.32 0.92,-0.75 a 9.72,9.72 0 0 0 -0.61,1.5 v 0 c -0.08,0.22 -0.19,0.5 -0.25,0.72 l 0.18,0.24 a 14.09,14.09 0 0 1 1.23,-0.87 l -0.53,0.37 c 0.36,-0.16 0.86,-0.35 1.22,-0.49 -0.37,0.48 -0.75,0.92 -1.11,1.39 a 9.36,9.36 0 0 1 1.13,-0.7 l 0.16,0.16 c 0.56,-0.07 0.89,-0.25 2.47,-1.17 l 1,-0.55 c -1,0.63 -1.12,0.71 -1.4,1.17 0.35,0 0.35,0 2.35,-1 a 40.27,40.27 0 0 1 9.44,-3.09 v 0 c 7.51,-1.24 7.51,-1.24 12.59,-1.09 -1.83,-0.37 -1.83,-0.37 -8.33,-0.28 -6.7,0.75 -9.37,1.76 -10.53,2.2 -1.89,0.72 -1.94,0.71 -2.29,0.65 1.63,-1.2 9.1,-3.81 11,-4.08 -0.06,0 -6,0.85 -9.31,2.57 A 28,28 0 0 1 62.63,50.35 34.53,34.53 0 0 0 65.21,48 c -0.76,-0.19 -0.76,-0.19 -2.08,0.11 5.16,-6.56 33.54,-8.35 38.47,4.81 a 19.64,19.64 0 0 0 -8,-6.43 C 92.39,45.98 92.35,45.94 92.11,45.7 l 0.21,-0.1 c -0.65,-0.37 -3.94,-1.4 -5.25,-1.15 4.7,1.18 12,4.64 11.82,6.48 -2,-0.67 -3.43,-2.25 -5.38,-3 2.21,1.21 5.91,3.24 6.49,5.21 l -0.22,0.14 a 6.85,6.85 0 0 1 -0.7,-0.52 v 0 a 21.28,21.28 0 0 0 -4.76,-3.24 c -2.42,-1 -5.08,-1.25 -7.58,-2 2.72,1.11 5.69,1.48 8.26,2.93 a 20.13,20.13 0 0 1 5.38,4.82 c 4.07,5.51 2.46,11.13 1.86,13.24 l -0.5,1.34 0.54,-1.4 a 23.3,23.3 0 0 0 1.22,-9.29 m -28,-11 v 0 c -0.63,0.08 -1.46,0.22 -2.08,0.31 0.61,-0.11 1.44,-0.23 2.05,-0.31 m 8.74,-9.83 A 31.9,31.9 0 0 0 80.86,38.1 h -0.21 a 18.9,18.9 0 0 1 4.8,0.39 c -0.46,-0.07 -0.68,-0.1 -1.24,-0.15 M 61.83,44 61.7,44.12 v 0 l 0.09,-0.1 m 36.71,2.36 v -0.05 0 0"
         id="path12" />
      <path
         class="cls-6"
         d="m 101.83,69.85 c 0.09,-0.24 0.17,-0.49 0.25,-0.74 l -0.23,0.67 v 0.07"
         id="path13" />
      <path
         class="cls-6"
         d="m 66.16,73.69 a 2.93,2.93 0 0 0 -0.68,-0.34 l 0.68,0.34"
         id="path14" />
      <g
         class="cls-7"
         clip-path="url(#clip-path)"
         id="g14">
        <rect
           class="cls-8"
           x="62.43"
           y="56.23"
           width="41.740002"
           height="30.16"
           transform="rotate(-5,83.282677,71.331108)"
           id="rect14"
           style="fill:url(#Unbenannter_Verlauf)" />
      </g>
      <path
         class="cls-6"
         d="m 102.09,68.93 v -0.06 c 0,-0.19 0.09,-0.38 0.13,-0.56 a 25,25 0 0 1 -7,10.25 5.36,5.36 0 0 0 0.79,-0.63 4.22,4.22 0 0 0 -0.68,0.78 c 0.27,-0.24 0.5,-0.44 0.78,-0.65 -0.08,0.17 -0.08,0.17 -1.74,1.81 a 24.1,24.1 0 0 0 7.27,-9.66 l 0.14,-0.41 c 0.09,-0.29 0.17,-0.58 0.25,-0.86"
         id="path15" />
      <path
         class="cls-6"
         d="m 101.75,70.07 v 0.09 -0.09"
         id="path16" />
      <path
         class="cls-6"
         d="m 67.29,74.23 -1.13,-0.54 a 4.46,4.46 0 0 0 1.13,0.54"
         id="path17" />
      <path
         class="cls-5"
         d="m 101.71,70.2 v 0 -0.07 -0.09 l 0.05,-0.14 v -0.08 -0.07 z"
         id="path18" />
      <path
         class="cls-6"
         d="m 100.62,60.47 a 22.37,22.37 0 0 1 -3.71,8 c -0.92,1.4 -2.75,1.72 -3.76,3 -0.24,-0.13 -0.32,-0.17 -0.71,0 -0.1,-0.63 0.91,-1.48 0.11,-1.87 1.35,-3 4.43,-4.81 5.38,-8 -0.37,0.46 -0.63,1 -1,1.46 0.42,-1.42 1.06,-2.76 1.37,-4.21 l -0.22,-0.09 -0.33,0.6 a 24.48,24.48 0 0 1 -8,10.47 c -4.74,3.88 -0.64,2.74 -0.59,2.72 a 7.57,7.57 0 0 0 1.07,-0.58 C 84.6,78.24 65.69,85.39 57,73.19 c 0.08,0.12 0.18,0.3 0.27,0.43 2.11,3.21 2.11,3.21 6.89,6.16 -0.89,-0.16 -1.53,-0.85 -2.37,-1.11 0,0 2.05,2.67 8.13,3.37 6.49,0.74 8.33,0.25 10.28,-0.29 a 22.43,22.43 0 0 1 3.17,-0.61 v 0 c -4.79,1.47 -4.79,1.47 -10.14,1.81 a 10.72,10.72 0 0 1 -3,-0.38 11.19,11.19 0 0 0 -2.88,-0.4 0.47,0.47 0 0 1 0,0.08 h -0.06 0.07 c 0,0 0,0 3.49,1.33 -0.21,0.08 -1.23,0.22 -5.47,-1.6 0,0 5.08,2.43 8,2.72 9.46,0.93 16.25,-3.65 22.82,-8.07 0,0 0,0.08 0,0.11 h 0.26 c 0,0.15 0,0.15 -0.76,1 1.55,-1.25 2.35,-3.2 4,-4.37 -0.15,0.69 -5.28,8.93 -16.7,11.58 a 9.39,9.39 0 0 0 1.33,-0.26 c -0.79,0.22 -0.81,0.24 -1.14,0.35 l 1.27,-0.24 a 13.48,13.48 0 0 1 -3.08,0.81 C 91.27,83.9 98.52,78.28 101.8,69.77 a 28,28 0 0 0 0.82,-3 7.78,7.78 0 0 0 -1.86,-6.33"
         id="path19" />
      <path
         class="cls-9"
         d="m 76.65,73.28 a 3.65,3.65 0 0 1 -1.32,-1.4 C 75.21,71.68 75.11,71.48 75,71.28 L 74.88,71 A 5.83,5.83 0 0 0 74.4,70.23 L 74.15,70 73.88,69.72 C 73.8,69.63 73.72,69.55 73.66,69.47 a 0.91,0.91 0 0 1 -0.13,-0.21 28.59,28.59 0 0 1 -1.86,-7.6 c -0.22,-1.52 -1.15,-2.75 -2.66,-4.59 -0.19,-0.23 -0.4,-0.5 -0.62,-0.79 L 67.91,55.67 A 15,15 0 0 0 66.69,54.28 L 65.25,53 63.64,51.65 a 29.76,29.76 0 0 0 -2.4,-1.81 6.28,6.28 0 0 0 -3.56,-1.14 4.88,4.88 0 0 0 -2.52,0.63 14.73,14.73 0 0 1 -2.78,1.56 c -0.66,0.27 -1.34,0.5 -2.2,0.78 l -0.89,0.29 a 5.91,5.91 0 0 0 -2.17,1.36 l -0.34,0.33 -0.35,0.33 a 1.63,1.63 0 0 1 -0.52,0.37 3.14,3.14 0 0 1 -0.74,0.11 h -0.55 -0.39 a 4.68,4.68 0 0 0 -2.61,1.18 c -0.3,0.25 -0.59,0.5 -0.86,0.75 l -0.13,0.12 a 6.52,6.52 0 0 1 -0.82,0.67 4.91,4.91 0 0 1 -2.38,0.68 11.49,11.49 0 0 0 -1.34,0.18 7.12,7.12 0 0 0 -1.62,0.54 13.36,13.36 0 0 0 -2,1.17 l -1,0.69 -0.83,0.6 a 6.22,6.22 0 0 1 -3.47,1.46 1.91,1.91 0 0 1 -2.07,-1.7 3,3 0 0 1 1.31,-2.6 l 0.52,-0.42 c 0.39,-0.31 0.75,-0.6 1.08,-0.88 A 8.13,8.13 0 0 0 29.22,55.67 3.38,3.38 0 0 0 29.8,52.55 3.31,3.31 0 0 0 27.21,50.26 12.25,12.25 0 0 0 25.74,50 H 25.57 L 25.16,49.93 A 1.82,1.82 0 0 1 24.82,49.84 28.45,28.45 0 0 1 22,48.09 l -0.14,-0.1 -0.1,0.14 a 4.23,4.23 0 0 0 -0.76,2.39 4.15,4.15 0 0 0 3.69,4.24 0.35,0.35 0 0 1 0.16,0.62 c -2.6,2.05 -3.16,2.93 -3.29,5.23 a 5.16,5.16 0 0 0 1.38,3.84 5.82,5.82 0 0 0 4.38,1.69 A 10.05,10.05 0 0 0 28.8,66 h 0.05 a 0.35,0.35 0 0 1 0.35,0.32 9.07,9.07 0 0 0 0.8,3.5 0.35,0.35 0 0 1 -0.06,0.45 1.75,1.75 0 0 1 -0.51,0.29 6.7,6.7 0 0 1 -2.24,0.35 c -0.52,0 -0.91,0.36 -1.23,1.14 -0.1,0.25 -0.19,0.52 -0.27,0.78 v 0.07 c 0,0.13 -0.08,0.25 -0.12,0.36 a 1.86,1.86 0 0 1 -0.11,0.27 2.25,2.25 0 0 1 -0.47,0.56 0.36,0.36 0 0 1 -0.23,0.09 H 24.7 A 0.35,0.35 0 0 1 24.45,74 1.74,1.74 0 0 0 23.25,73.13 h -0.07 a 3.25,3.25 0 0 0 -2.69,1.95 0.35,0.35 0 0 1 -0.29,0.22 h -0.1 a 1.39,1.39 0 0 0 -1.26,0.93 4.33,4.33 0 0 0 -0.2,0.75 v 0.17 c 0,0.19 -0.07,0.4 -0.12,0.59 a 1.81,1.81 0 0 1 -0.18,0.44 l -0.12,0.21 -0.08,0.14 a 1.23,1.23 0 0 0 -0.1,1 0.89,0.89 0 0 0 0.49,0.53 3.24,3.24 0 0 0 0.78,0.28 6.63,6.63 0 0 0 1.21,0.18 0.46,0.46 0 0 0 0.23,-0.06 l 0.16,-0.11 a 0.39,0.39 0 0 1 0.23,-0.08 h 0.05 0.26 l 0.74,0.15 v 0 l 0.71,0.14 h 0.28 0.18 v 0 a 2.21,2.21 0 0 0 1.87,-0.89 4.12,4.12 0 0 0 0.24,-0.37 l 0.13,-0.21 0.09,-0.16 c 0.09,-0.15 0.18,-0.29 0.28,-0.43 a 0.35,0.35 0 0 1 0.28,-0.14 h 0.09 l 0.36,0.08 c 0.26,0 0.49,0.06 0.59,0.07 H 27.5 A 3.81,3.81 0 0 0 30,77.48 l 0.21,-0.18 0.29,-0.25 a 5.27,5.27 0 0 1 0.47,-0.36 1.5,1.5 0 0 1 0.83,-0.3 h 0.06 c 0.25,0 1.19,0.08 2.79,0.33 h 0.21 a 3.54,3.54 0 0 0 1.37,-0.37 11.68,11.68 0 0 0 1.3,-0.71 3.11,3.11 0 0 1 0.35,-0.18 v 0 l 0.41,-0.2 a 2.81,2.81 0 0 0 1,-0.75 7.88,7.88 0 0 0 0.67,-1.19 l 0.26,-0.53 0.45,-0.92 a 0.36,0.36 0 0 1 0.32,-0.19 H 41 a 12.09,12.09 0 0 0 1.6,-0.15 l 0.66,-0.1 a 11.82,11.82 0 0 1 1.19,-0.15 h 0.56 0.63 c 0.8,0 1.45,0.07 2,0.07 0.32,0 0.6,0 0.84,0 a 5.25,5.25 0 0 0 1.13,-0.19 l 0.28,-0.1 a 0.33,0.33 0 0 1 0.14,0 0.35,0.35 0 0 1 0.24,0.1 l 0.54,0.5 A 0.35,0.35 0 0 1 51,72 0.36,0.36 0 0 1 50.7,72.24 h -0.21 a 1.33,1.33 0 0 0 -0.83,0.38 0.35,0.35 0 0 1 -0.42,0.11 l -0.15,-0.05 a 1.17,1.17 0 0 0 -0.3,0 h -0.44 a 10.73,10.73 0 0 0 -1.7,0.1 2.89,2.89 0 0 0 -0.93,0.29 0.75,0.75 0 0 0 -0.43,0.69 7.49,7.49 0 0 0 1.6,3.07 1.69,1.69 0 0 0 1,0.25 H 48 a 0.35,0.35 0 0 1 0.31,0.19 3.51,3.51 0 0 0 2.78,2.13 h 0.07 a 21.38,21.38 0 0 0 5.44,-1.85 h 0.07 0.2 0.36 0.18 a 4.07,4.07 0 0 0 1.2,-0.28 3.69,3.69 0 0 0 1.15,-1.48 0.35,0.35 0 0 1 0.31,-0.19 v 0 a 0.35,0.35 0 0 1 0.3,0.25 2.08,2.08 0 0 0 0.16,0.4 1.73,1.73 0 0 0 1.67,0.89 h 0.13 a 6.58,6.58 0 0 0 1.66,-0.37 l 0.29,-0.1 a 9,9 0 0 1 1.26,-0.36 2.94,2.94 0 0 1 0.48,0 h 0.26 0.5 0.34 0.5 a 2.66,2.66 0 0 0 1.2,-0.23 5.52,5.52 0 0 0 1.18,-0.72 l 0.09,-0.07 a 0.35,0.35 0 0 1 0.2,-0.07 0.39,0.39 0 0 1 0.23,0.09 6.52,6.52 0 0 0 4.36,1.64 h 0.22 a 1.45,1.45 0 0 0 1.15,-0.49 0.77,0.77 0 0 0 0.13,-0.67 0.36,0.36 0 0 1 0,-0.28 0.34,0.34 0 0 1 0.23,-0.15 1.73,1.73 0 0 0 0.86,-0.38 0.92,0.92 0 0 0 0.32,-0.63 0.48,0.48 0 0 0 -0.16,-0.37 4.58,4.58 0 0 0 -1.07,-0.69 m -15.52,-2.7 c -0.24,0.3 -0.6,0.39 -0.92,1 -0.65,-0.26 -0.77,-1.12 -0.89,-1.49 0.52,-0.1 1.75,-0.33 2.4,-0.43 a 3,3 0 0 0 -0.59,1"
         id="path20" />
      <path
         class="cls-3"
         d="m 76.13,73.86 c -1.22,-0.71 -1.7,-2 -2.45,-3.1 -0.26,-0.38 -0.73,-0.63 -1,-1 a 27.72,27.72 0 0 1 -1.85,-7.46 8,8 0 0 0 -0.69,-2 43.49,43.49 0 0 0 -3.9,-5 c -0.12,-0.12 -0.12,-0.13 -0.39,-0.38 l -4.8,-4 a 9.61,9.61 0 0 0 -1.93,-1 4.87,4.87 0 0 0 -3.38,0.13 22.06,22.06 0 0 1 -3.06,1.71 c -1.58,0.71 -3.36,0.85 -4.72,2.07 -0.79,0.69 -1.46,1.76 -2.63,1.58 a 5.05,5.05 0 0 0 -3.48,1.24 6.64,6.64 0 0 1 -2.9,2 c -1,0.43 -2.25,0.22 -3.28,0.61 -1.64,0.41 -2.94,1.7 -4.33,2.7 -1.4,0.81 -2.74,1.68 -4.48,1.64 a 3,3 0 0 1 -2.59,-2 3.28,3.28 0 0 1 1,-3.41 c 1,-1.24 2.67,-2 3.48,-3.39 a 2.6,2.6 0 0 0 -0.2,-2.67 c -1.08,-1.11 -2.62,-1.15 -4,-1.5 a 11.94,11.94 0 0 1 -2.37,-1.35 2.4,2.4 0 0 0 -0.36,1.54 3.69,3.69 0 0 0 2.35,2.87 12.08,12.08 0 0 0 2.25,0.24 0.67,0.67 0 0 1 0.43,0.51 0.79,0.79 0 0 1 -0.24,0.55 23.41,23.41 0 0 0 -3.28,3 4.49,4.49 0 0 0 -0.6,4.4 4.72,4.72 0 0 0 3.81,2.81 8.65,8.65 0 0 0 3.24,-0.35 c 0.14,0 0.2,0.14 0.26,0.22 a 21.42,21.42 0 0 0 0.16,2.62 15.87,15.87 0 0 0 0.8,2.12 0.91,0.91 0 0 1 -0.18,0.75 8.76,8.76 0 0 1 -1.84,1 l -1.58,0.1 -0.3,0.15 a 7.9,7.9 0 0 0 -1,2.17 5.7,5.7 0 0 1 -2.1,1.69 5,5 0 0 1 -0.85,1.1 1.53,1.53 0 0 1 -0.93,0.34 4.63,4.63 0 0 0 -0.81,2.35 c 0.89,0.08 1.82,0.57 2.7,0.08 0.88,-0.49 0.91,-1.26 1.48,-1.8 0.57,-0.54 1.12,-0.12 1.64,0 0.79,0 1.36,-0.53 2,-0.8 0.46,-0.3 0.85,-0.83 1.33,-1.13 a 5.54,5.54 0 0 1 3.2,0 3.42,3.42 0 0 0 2.24,-0.27 6.77,6.77 0 0 1 1.92,-1 3.07,3.07 0 0 0 1.19,-1.62 c 0.2,-0.54 0.73,-1 0.69,-1.6 -0.16,-0.14 -0.35,-0.45 -0.59,-0.43 -0.31,0.43 -0.53,0.87 -0.87,1.28 -1.46,2 -2.62,2.19 -5.59,2.19 A 6.91,6.91 0 0 0 27,76.64 0.28,0.28 0 0 1 26.67,76.58 1.49,1.49 0 0 1 26.91,75.75 c 1.36,-1.92 3.46,-2.37 5.69,-2.42 a 8.62,8.62 0 0 0 3.4,-0.81 5.13,5.13 0 0 0 2.43,-2.64 c 0.26,-1.28 0.36,-2.65 0.69,-3.87 0,-0.12 0.34,-0.21 0.44,-0.17 0.1,0.04 0.36,0.13 0.37,0.27 -0.22,1.26 -0.62,2.74 -0.14,3.95 1,1.28 2.78,0.59 4.1,0.53 a 23.56,23.56 0 0 1 3.8,0.06 c 0.65,0 1.13,0.14 1.63,-0.27 a 1.16,1.16 0 0 0 0.16,-0.77 c 0,-0.36 -0.35,-0.58 0,-0.89 a 0.46,0.46 0 0 1 0.49,0.07 5.71,5.71 0 0 0 0.59,1.5 7.74,7.74 0 0 0 2.5,1.95 3.35,3.35 0 0 1 1.62,2.45 c 0,0.53 -0.49,0.89 -0.89,1.13 a 4.13,4.13 0 0 1 -2.25,0.55 C 50.46,75.84 50.18,74.71 49.47,73.88 A 1.71,1.71 0 0 0 48,73.44 7.85,7.85 0 0 0 46.3,73.7 0.55,0.55 0 0 0 46.14,74.19 c 0.36,0.67 0.77,1.31 1.18,2 0.47,0.28 1.11,-0.16 1.52,0.34 a 5.61,5.61 0 0 0 1.16,1.55 1.9,1.9 0 0 0 1.95,0.36 24.56,24.56 0 0 0 4.4,-1.71 h 0.46 a 2.38,2.38 0 0 0 1.6,-0.45 15.81,15.81 0 0 0 1.15,-1.94 2,2 0 0 0 0,-1.68 9.53,9.53 0 0 1 -1.44,-2.78 3.07,3.07 0 0 0 -1,-0.28 c -0.18,0.08 -0.45,0 -0.55,0.24 L 58.16,73 a 1.68,1.68 0 0 1 0.16,0.91 4.08,4.08 0 0 1 -1.11,1.8 c -0.1,0.06 -0.22,0.12 -0.3,0 a 7.25,7.25 0 0 0 0.46,-2.23 L 55.81,70.66 C 55.63,70.28 55.3,69.93 55.32,69.49 a 0.52,0.52 0 0 1 0.34,-0.42 c 0.69,-0.22 1.52,-0.19 2,-0.73 a 7.81,7.81 0 0 0 1,-3.4 0.49,0.49 0 0 1 0.32,-0.24 c 0.12,0 0.26,0.14 0.32,0.2 a 5.27,5.27 0 0 1 -0.89,3.91 c 0,0.14 -0.1,0.32 0.06,0.43 a 2.93,2.93 0 0 0 2.23,-0.35 12.24,12.24 0 0 0 2.35,-0.31 0.27,0.27 0 0 1 0.16,0.2 3.88,3.88 0 0 0 -0.93,1.93 c -0.61,0.63 -1.48,1.18 -1.54,2.09 0.1,0.45 0.49,0 0.75,0.06 a 0.24,0.24 0 0 1 0.2,0.24 l -0.61,0.89 c -0.32,0.53 0.06,1.14 0.06,1.64 a 1.1,1.1 0 0 0 1.06,0.61 8.74,8.74 0 0 0 2.53,-0.67 5.5,5.5 0 0 1 3,-0.2 4.1,4.1 0 0 0 2.43,-1.37 1.47,1.47 0 0 1 1,0.55 5.21,5.21 0 0 0 4.12,1.64 l 0.14,-0.08 a 0.24,0.24 0 0 0 -0.06,-0.36 l -1,-0.49 c -0.67,-0.43 -1.5,-1 -1.72,-1.74 a 9,9 0 0 0 -1,-2 c -0.14,-0.33 -0.47,-0.59 -0.61,-0.91 0,0 0.08,-0.1 0.14,-0.08 a 4.37,4.37 0 0 1 2.17,2.33 3.47,3.47 0 0 0 3.35,1.74 l 0.12,-0.1 a 0.21,0.21 0 0 0 0,-0.24 z M 60.22,59.6 v 0 0 0 a 0.2,0.2 0 0 1 -0.26,0 v 0 0 A 12.9,12.9 0 0 0 59.29,57.15 L 59,56.83 58.93,56.73 58.77,56.5 a 0.77,0.77 0 0 1 -0.08,-0.81 v 0 a 0.59,0.59 0 0 1 0.59,-0.09 v 0 a 2.66,2.66 0 0 1 0.73,0.92 4.39,4.39 0 0 1 0.31,1.69 5.38,5.38 0 0 1 -0.18,1.4 v 0 M 68,73 v 0 a 3.54,3.54 0 0 1 -1.26,0.15 v 0 H 66.66 L 66.46,73 a 0.2,0.2 0 0 1 -0.07,-0.23 2,2 0 0 1 1.35,-1.27 h 0.15 0.15 a 0.3,0.3 0 0 1 0.22,0.25 2.78,2.78 0 0 1 0,0.31 A 1,1 0 0 1 68,73 m 2.48,-5.52 -0.06,0.17 -0.05,0.18 a 0.4,0.4 0 0 1 -0.29,0.28 0.24,0.24 0 0 1 -0.22,0 0.25,0.25 0 0 1 -0.1,-0.21 V 67.72 L 69.63,67 A 1.69,1.69 0 0 0 69.36,66.3 L 69.09,66 68.78,65.65 a 1,1 0 0 0 -0.67,-0.36 1.13,1.13 0 0 0 -0.5,0.35 l -0.22,0.27 -0.19,0.25 c -0.07,0.12 -0.22,0.05 -0.22,0 v 0 0 a 1,1 0 0 1 -0.07,-0.35 1.32,1.32 0 0 1 0.12,-0.51 l 0.16,-0.34 0.19,-0.4 v 0 a 0.85,0.85 0 0 0 0.17,-0.32 V 64.1 l 0.11,-0.28 a 0.53,0.53 0 0 1 0.78,-0.3 1.58,1.58 0 0 1 0.59,0.61 l 0.09,0.15 0.11,0.19 0.24,0.3 a 3.21,3.21 0 0 1 1,2.14 2.6,2.6 0 0 1 -0.06,0.54"
         id="path21" />
      <path
         class="cls-10"
         d="m 22.34,76.16 a 4.1,4.1 0 0 0 1.36,-1.64 c -0.06,-0.22 -0.29,-0.38 -0.47,-0.55 -0.18,-0.17 -0.3,0 -0.44,0 a 10.92,10.92 0 0 1 -1.4,1 c -0.2,0.14 -0.12,0.45 -0.16,0.67 -0.04,0.22 0.24,0.34 0.36,0.47 a 1.08,1.08 0 0 0 0.75,0"
         id="path22" />
      <path
         class="cls-10"
         d="m 20.21,76.22 a 1.38,1.38 0 0 0 -0.75,0.83 c -0.1,0.65 0,1.26 -0.46,1.72 0,0.12 -0.14,0.26 0,0.38 a 7,7 0 0 0 1.42,0.38 c 0.24,-0.79 0.42,-1.66 0.71,-2.35 V 77 c -0.24,-0.3 -0.49,-0.69 -0.89,-0.77"
         id="path23" />
      <path
         class="cls-10"
         d="m 50.95,74 c 0.41,0.45 0.39,1.13 0.85,1.48 A 2.06,2.06 0 0 0 53.42,75 C 53.68,74.78 53.3,74.49 53.26,74.23 53,73.85 53.18,73.08 52.53,73.06 a 13.08,13.08 0 0 1 -1.94,0.12 l -0.18,0.12 c -0.12,0.38 0.45,0.38 0.55,0.73"
         id="path24" />
      <path
         class="cls-2"
         d="m 143.26,0.31 a 1.54,1.54 0 0 0 -1.68,0.33 l -9.8,9.8 -10,-10 a 1.54,1.54 0 0 0 -2.63,1.09 v 23.58 a 1.545,1.545 0 1 0 3.09,0 V 5.27 l 8.44,8.45 a 1.55,1.55 0 0 0 2.18,0 l 8.25,-8.26 v 19.65 a 1.545,1.545 0 1 0 3.09,0 V 1.74 a 1.54,1.54 0 0 0 -1,-1.43 m 23.15,23 h -14 c -1,0 -1,-0.25 -1.14,-0.47 a 1.33,1.33 0 0 1 -0.14,-0.39 1.12,1.12 0 0 1 0,-0.12 v 0 -8.1 h 15.08 a 1.545,1.545 0 1 0 0,-3.09 H 151.07 V 4.41 a 1.36,1.36 0 0 1 0.2,-0.58 c 0.18,-0.21 0.3,-0.46 1.34,-0.49 h 13.74 a 1.545,1.545 0 0 0 0,-3.09 h -13.73 a 4.43,4.43 0 0 0 -4,2.06 A 4.31,4.31 0 0 0 148,4.4 v 17.93 a 4.35,4.35 0 0 0 0.55,2 4.17,4.17 0 0 0 3.71,2 h 14.17 a 1.545,1.545 0 1 0 0,-3.09 M 193.2,3.93 a 9.84,9.84 0 0 0 -8,-3.71 h -12.49 a 1.55,1.55 0 0 0 -1.54,1.54 v 23.13 a 1.55,1.55 0 0 0 1.54,1.54 h 12.18 a 11.51,11.51 0 0 0 4.15,-0.93 10.11,10.11 0 0 0 5.87,-6.59 21.83,21.83 0 0 0 0.78,-6 23.81,23.81 0 0 0 -0.58,-5.23 10.36,10.36 0 0 0 -1.9,-3.74 m -0.94,12.72 c -0.08,0.45 -0.16,0.8 -0.22,1 l -0.07,0.26 v 0.06 a 7,7 0 0 1 -4.12,4.66 9.06,9.06 0 0 1 -2.11,0.6 c -0.28,0 -0.5,0.06 -0.64,0.07 H 174.25 V 3.3 h 10.92 a 6.72,6.72 0 0 1 5.6,2.54 7.82,7.82 0 0 1 1.06,1.79 c 0.1,0.24 0.17,0.44 0.21,0.57 v 0.14 0 a 20.56,20.56 0 0 1 0.5,4.54 21.09,21.09 0 0 1 -0.33,3.75 m 8.23,-16.41 a 1.54,1.54 0 0 0 -1.54,1.54 v 23.13 a 1.545,1.545 0 1 0 3.09,0 V 1.77 A 1.55,1.55 0 0 0 200.44,0.22 M 231.86,24.29 219.62,0.93 a 1.54,1.54 0 0 0 -2.73,0 L 204.8,24 a 1.55,1.55 0 0 0 2.74,1.43 v 0 L 218.26,5 229.12,25.75 a 1.5453559,1.5453559 0 1 0 2.74,-1.43"
         id="path25" />
    </g>
  </g>
  <metadata
     id="metadata25">
    <rdf:RDF>
      <cc:Work
         rdf:about="">
        <dc:title>red-bull-media-house</dc:title>
      </cc:Work>
    </rdf:RDF>
  </metadata>
</svg>
