<?xml version="1.0" encoding="UTF-8" standalone="no"?>
<!-- Created with Inkscape (http://www.inkscape.org/) -->

<svg
   xmlns:dc="http://purl.org/dc/elements/1.1/"
   xmlns:cc="http://creativecommons.org/ns#"
   xmlns:rdf="http://www.w3.org/1999/02/22-rdf-syntax-ns#"
   xmlns:svg="http://www.w3.org/2000/svg"
   xmlns="http://www.w3.org/2000/svg"
   xmlns:sodipodi="http://sodipodi.sourceforge.net/DTD/sodipodi-0.dtd"
   xmlns:inkscape="http://www.inkscape.org/namespaces/inkscape"
   width="194.10216"
   height="76.636589"
   viewBox="0 0 51.356197 20.276763"
   version="1.1"
   id="svg1611"
   inkscape:version="0.92.0 r15299"
   sodipodi:docname="remy cointreau.svg">
  <defs
     id="defs1605">
    <clipPath
       id="clipPath1520"
       clipPathUnits="userSpaceOnUse">
      <path
         inkscape:connector-curvature="0"
         id="path1518"
         d="M 0,0 H 1190.551 V 841.89 H 0 Z" />
    </clipPath>
  </defs>
  <sodipodi:namedview
     id="base"
     pagecolor="#ffffff"
     bordercolor="#666666"
     borderopacity="1.0"
     inkscape:pageopacity="0.0"
     inkscape:pageshadow="2"
     inkscape:zoom="4.1532473"
     inkscape:cx="96.550789"
     inkscape:cy="37.818491"
     inkscape:document-units="mm"
     inkscape:current-layer="layer1"
     showgrid="false"
     fit-margin-top="0"
     fit-margin-left="0"
     fit-margin-right="0"
     fit-margin-bottom="0"
     units="px"
     inkscape:window-width="1280"
     inkscape:window-height="744"
     inkscape:window-x="-4"
     inkscape:window-y="-4"
     inkscape:window-maximized="1" />
  <metadata
     id="metadata1608">
    <rdf:RDF>
      <cc:Work
         rdf:about="">
        <dc:format>image/svg+xml</dc:format>
        <dc:type
           rdf:resource="http://purl.org/dc/dcmitype/StillImage" />
        <dc:title></dc:title>
      </cc:Work>
    </rdf:RDF>
  </metadata>
  <g
     inkscape:label="Layer 1"
     inkscape:groupmode="layer"
     id="layer1"
     transform="translate(-87.091176,-202.81867)">
    <g
       id="g1646"
       transform="translate(0.13229071,-0.13228832)">
      <path
         d="m 91.574034,222.95773 -0.801158,-7.1e-4 c -0.105834,0 -0.15875,-0.0381 -0.226836,-0.12876 l -1.811514,-2.57069 c -0.02258,-0.0303 -0.01482,-0.0681 0.03069,-0.0681 l 0.385234,3.6e-4 c 0.627239,3.5e-4 1.148997,-0.36936 1.149702,-1.04211 3.53e-4,-0.58949 -0.430036,-0.97508 -1.057275,-0.97578 l -0.989894,-0.001 c -0.03034,0 -0.04551,0.0152 -0.04551,0.0455 l -0.0042,4.73816 -0.733072,-3.6e-4 0.0039,-4.30777 c 0,-0.0452 -0.0074,-0.0755 -0.02999,-0.12065 l -0.347134,-0.74118 c -0.01482,-0.0303 0,-0.0529 0.03034,-0.0529 l 2.252133,0.002 c 1.020234,7e-4 1.730023,0.49283 1.729317,1.40723 -7.05e-4,0.82373 -0.628297,1.24636 -1.323622,1.35149 z m 0.608189,-4.3374 2.508955,0.002 -3.52e-4,0.43074 -1.775884,-0.002 -0.0014,1.37549 1.640064,0.001 -3.53e-4,0.45368 -1.640064,-0.001 -0.0014,1.5494 c 0,0.0529 0.02293,0.0755 0.06068,0.0755 l 1.791053,10e-4 -3.53e-4,0.45367 -2.388305,-0.002 c -0.113242,0 -0.196498,-0.0607 -0.196145,-0.20426 z m 0.975078,-0.14252 0.506589,-0.6724 c 0.0381,-0.0455 0.07585,-0.0677 0.136525,-0.0677 l 0.634647,3.5e-4 -0.620184,0.67204 c -0.05327,0.0529 -0.08325,0.0681 -0.136172,0.0681 z m 6.661502,4.48698 -0.733072,-7.1e-4 0.0028,-3.33269 -1.385005,2.43981 c -0.02258,0.0381 -0.06032,0.0381 -0.0829,-3.5e-4 l -1.396294,-2.28318 -0.0028,3.17394 -0.529166,-3.5e-4 0.0035,-3.98992 -0.180975,-0.28751 c -0.02258,-0.0377 0,-0.0603 0.03034,-0.0603 l 0.793398,7.1e-4 1.418872,2.27577 1.271411,-2.1904 c 0.03034,-0.0607 0.07585,-0.0833 0.143933,-0.0829 l 0.649817,3.5e-4 z m 2.329037,-1.52436 -1.61501,-2.81269 0.86924,7e-4 1.1998,2.15477 c 0.33302,-0.61172 0.80221,-1.47285 1.14264,-2.0694 0.0303,-0.0607 0.0758,-0.0832 0.14394,-0.0832 l 0.55915,7e-4 -1.56669,2.77178 -0.001,1.56457 -0.73307,-7.1e-4 z m 7.07955,1.39665 c -0.25683,0.13582 -0.65017,0.23354 -1.06575,0.23319 -1.24706,-0.001 -2.13007,-0.78776 -2.12901,-2.34456 0.001,-1.39065 0.93169,-2.18299 2.11808,-2.18194 0.42298,3.6e-4 0.80857,0.091 1.05763,0.22755 l -7.1e-4,0.9599 c -3.5e-4,0.0452 -0.0381,0.0526 -0.0681,0.0148 l -0.43038,-0.54469 c -0.0529,-0.0603 -0.0981,-0.0981 -0.17357,-0.12841 -0.10583,-0.0381 -0.22648,-0.0533 -0.37006,-0.0533 -0.7105,-3.5e-4 -1.32327,0.57327 -1.32433,1.70674 -10e-4,1.29999 0.67874,1.77659 1.39664,1.7773 0.37783,3.5e-4 0.71791,-0.0829 0.99025,-0.23319 z m 2.31986,0.23601 c -1.13347,-7.1e-4 -1.87325,-0.79481 -1.87219,-2.34421 0.001,-1.30739 0.7426,-2.18334 1.87643,-2.18228 1.22414,10e-4 1.91875,0.87806 1.91734,2.18546 -10e-4,1.51165 -0.69744,2.34244 -1.92158,2.34103 m 0.004,-4.07317 c -0.68015,-7.1e-4 -1.06644,0.65652 -1.06715,1.72967 -0.001,1.22413 0.37606,1.85173 1.06398,1.85243 0.74789,7.1e-4 1.1116,-0.62618 1.11231,-1.85067 10e-4,-1.06539 -0.35349,-1.73073 -1.10914,-1.73143 m 3.48016,3.97827 -0.73308,-7e-4 0.004,-4.33776 0.73308,7.1e-4 z m 4.59493,0.004 h -0.14358 l -2.59715,-3.2519 -0.003,3.24943 -0.52881,-3.5e-4 0.003,-3.77119 c 3.5e-4,-0.0829 -0.007,-0.15875 -0.0452,-0.20391 l -0.28681,-0.36301 0.94474,7.1e-4 2.12866,2.67723 0.002,-2.67512 0.52917,3.6e-4 z m 0.69885,-4.33705 2.92488,0.002 -7.1e-4,0.49107 -1.09608,-7.1e-4 -0.003,3.84634 -0.73272,-3.5e-4 0.003,-3.84669 -1.09608,-0.001 z m 7.11517,4.34375 -0.79375,-3.5e-4 c -0.0603,-3.5e-4 -0.11324,-0.0381 -0.15098,-0.0984 l -1.26754,-2.04929 c -0.0152,-0.0303 0,-0.0603 0.0378,-0.0603 h 0.14358 c 0.49107,3.5e-4 0.85408,-0.35455 0.85443,-0.92111 7.1e-4,-0.51399 -0.31644,-0.83926 -0.81527,-0.83961 l -0.48366,-3.5e-4 c -0.0377,0 -0.0603,0.0226 -0.0603,0.0681 l -0.004,3.89925 -0.73307,-7.1e-4 0.003,-3.66501 c 0,-0.0455 -0.007,-0.0758 -0.0303,-0.11359 l -0.29386,-0.514 c -0.007,-0.0152 -0.007,-0.0452 0.0303,-0.0452 l 1.81363,10e-4 c 0.84631,7e-4 1.38254,0.4699 1.38183,1.18004 -7.1e-4,0.72566 -0.48436,1.02729 -0.9458,1.14018 z m 0.64629,-4.33705 2.32763,0.002 -7e-4,0.43074 -1.59421,-10e-4 -0.001,1.37513 1.46579,0.001 -3.5e-4,0.45332 -1.46579,-0.001 -10e-4,1.56422 c 0,0.0377 0.0226,0.0603 0.0603,0.0603 l 1.58715,0.001 -3.5e-4,0.45368 -2.29764,-0.002 c -0.0452,0 -0.0829,-0.0377 -0.0829,-0.0907 z m 2.85256,4.34023 1.38677,-4.33634 0.86149,7e-4 c 0.0455,0 0.0681,0.0148 0.0832,0.0603 l 1.47744,4.27848 -0.73308,-7e-4 c -0.0607,0 -0.0984,-0.03 -0.121,-0.11324 l -0.42933,-1.29258 -1.50389,-0.001 -0.42475,1.40511 z m 1.74132,-3.79236 -0.59091,1.94945 1.23155,0.001 z m 2.52483,-0.54152 0.73307,3.6e-4 -0.003,2.97744 c -7.1e-4,0.65017 0.35454,0.92992 0.8456,0.93028 0.50624,3.5e-4 0.86925,-0.2787 0.86995,-0.9137 l 0.003,-2.99261 0.52881,7e-4 -0.002,2.96969 c -0.001,1.00506 -0.64382,1.46579 -1.46015,1.46508 -0.84631,-7e-4 -1.51835,-0.41698 -1.51729,-1.49013 z"
         style="fill:#ec2a3a;fill-opacity:1;fill-rule:nonzero;stroke:none;stroke-width:0.35277778"
         id="path1524"
         inkscape:connector-curvature="0" />
      <path
         d="m 106.90614,209.03391 c 0,-3.10444 2.35726,-5.95066 6.03673,-5.95066 3.29177,0 5.77815,2.70228 5.77815,5.82119 0,3.1048 -2.37172,5.92208 -5.97923,5.92208 -3.19088,0 -5.83565,-2.5587 -5.83565,-5.79261 m 5.96477,5.14562 c 3.34927,0 5.1315,-2.2853 5.1315,-4.98758 0,-3.01836 -2.28529,-5.53367 -5.24616,-5.53367 -3.30623,0 -5.1315,2.48673 -5.1315,5.24616 0,2.91783 2.35726,5.27509 5.24616,5.27509 m 1.17863,-1.89724 c -1.06328,-1.37972 -1.92582,-2.52977 -2.51496,-3.37785 0.51718,-0.10054 1.12113,-0.4886 1.12113,-1.30775 0,-0.79057 -0.73307,-1.38006 -1.65311,-1.38006 h -1.99779 c -0.0289,0 -0.0434,0.0289 -0.0289,0.072 l 0.25894,0.64665 c 0.0141,0.0289 0.0286,0.0575 0.0286,0.115 v 4.03895 h 0.762 v -4.34057 c 0,-0.0286 0.0141,-0.0575 0.043,-0.0575 h 0.73307 c 0.58914,0 1.00612,0.35913 1.00612,0.90558 0,0.60361 -0.43144,1.00613 -1.12112,1.00613 h -0.1584 c -0.043,0 -0.0575,0.043 -0.0286,0.072 0.80469,1.23614 1.72473,2.4578 2.50085,3.47839 0.072,0.0861 0.12947,0.12912 0.24447,0.12912 z m 2.32868,-1.99778 c -0.27305,0.15804 -0.61806,0.25858 -0.99166,0.25858 -0.92004,0 -1.58115,-0.61806 -1.58115,-1.98331 0,-1.33668 0.64665,-1.92617 1.39418,-1.92617 0.34502,0 0.5461,0.072 0.73307,0.24448 0.14394,0.14358 0.24448,0.31608 0.35913,0.5027 0.0289,0.0289 0.0864,0.0289 0.0864,-0.0286 v -0.99166 c -0.25858,-0.12947 -0.70414,-0.24447 -1.17863,-0.24447 -1.26471,0 -2.22779,0.87665 -2.22779,2.48673 0,1.65311 1.0347,2.5728 2.2853,2.5728 0.38805,0 0.79057,-0.072 1.12112,-0.25858 z"
         style="fill:#ec2a3a;fill-opacity:1;fill-rule:nonzero;stroke:none;stroke-width:0.35277778"
         id="path1528"
         inkscape:connector-curvature="0" />
    </g>
  </g>
</svg>
