<svg version="1.2" xmlns="http://www.w3.org/2000/svg" viewBox="0 0 1584 335" width="1584" height="335">
	<title>logo-rsi-blue-svg</title>
	<style>
		.s0 { fill: #18355e } 
	</style>
	<path id="Layer" class="s0" d="m2.1 273.8h11.9v60.1h-11.9z"/>
	<path id="Layer" class="s0" d="m182.4 333.9h-11.2l-30.5-40.2v40.2h-11.9v-60.1h11.1l30.5 40.1v-40.1h12v60.1z"/>
	<path id="Layer" class="s0" d="m340.8 285h-18.6v48.9h-12v-48.9h-18.6v-11.2h49.2z"/>
	<path id="Layer" class="s0" d="m494.8 333.9h-44.8v-60.1h44.5v11h-32.5v13.3h31v11h-31v13.8h32.8v11z"/>
	<path id="Layer" fill-rule="evenodd" class="s0" d="m633.5 273.8c14.3 0 22 6.8 22 18.3 0 9.9-6.9 16.6-18.4 17.7l18.5 24.1h-14.5l-17.5-23.9h-3.5v23.9h-12v-60.1h25.4zm-13.4 11v14.8h13.2c6.5 0 9.9-2.4 9.9-7.5 0-5.1-3.6-7.3-9.9-7.3z"/>
	<path id="Layer" fill-rule="evenodd" class="s0" d="m809.6 333.9l-5.2-14h-25.6l-5.2 14h-12.5l23.4-60.1h14.5l23.4 60.1zm-26.7-25h17.3l-8.6-23.3z"/>
	<path id="Layer" class="s0" d="m982.8 286.1l-10.3 6.3c-3.4-5.1-8.8-8.2-15.5-8.2-10.9 0-19 7.9-19 19.6 0.1 12.1 8.4 19.7 19 19.7 6.6 0 12-3 15.6-8.2l9.8 7c-5.3 7.8-14.4 12.7-25.3 12.7-18.5 0-31.5-13.1-31.5-31.2 0-18 13-31.1 31.5-31.1 11 0 20.8 5 25.7 13.4z"/>
	<path id="Layer" class="s0" d="m1138.7 285h-18.6v48.9h-11.9v-48.9h-18.6v-11.2h49.1z"/>
	<path id="Layer" class="s0" d="m1248 273.8h11.9v60.1h-11.9z"/>
	<path id="Layer" class="s0" d="m1405.8 333.9h-14.5l-22.6-60.1h12.7l17.2 48 17.3-48h12.4l-22.5 60.1z"/>
	<path id="Layer" class="s0" d="m1581.9 333.9h-44.8v-60.1h44.5v11h-32.6v13.3h31.1v11h-31.1v13.8h32.9z"/>
	<path id="Layer" fill-rule="evenodd" class="s0" d="m816.8 0h767.2v211h-767.2zm342.5 156.2l23.1 0.8-30.8-40.3c19.7-2.5 30.8-13.7 30.8-30 0-19.7-12-30.9-35.9-30.9h-42v100.4h19.7v-40.3h6l29.1 40.3zm-238 1.7c21.4 0 40.2-10.3 41.1-32.6 0-18-13.7-25.7-31.7-28.3l-6-0.8c-12-2.6-20.5-4.3-20.5-12 0-7.8 7.6-12.1 18.8-12.1 10.3 0 19.7 3.5 28.2 8.6l9.4-16.3c-11.1-6.8-23.9-10.3-37.6-10.3-20.6 0-39.4 10.3-39.4 31.8 0 18.9 12.8 26.6 29.9 29.2l6 0.8c14.6 2.6 21.4 4.3 21.4 12 0 7.7-8.5 12-19.6 12-11.2 0-22.3-4.3-31.7-11.1l-10.3 16.3c12 8.6 26.5 12.9 42 12.9zm149.8-84.1v-18.9h-81.4v18.9h30.9v82.4h19.6v-82.4h30.9zm75.3 24.9h-22.3v-24.9h22.3c10.3 0 16.3 3.4 16.3 12 0 8.6-6 12.9-16.3 12.9zm148.1 40.3h-53.9v-23.2h51.3v-18.8h-51.3v-22.3h53.9v-18.9h-73.6v100.4h73.6zm114.7 0h-53.9v-23.2h51.4v-18.9h-51.4v-22.3h53.9v-18.8h-73.6v100.3h73.6zm112.2-65.2v-18.8h-81.3v18.8h30.8v82.4h19.7v-82.4h30.8zm-1355.4-1.7c0 31.8-18 54.1-51.4 60.1l54 74.6h-63.4l-47.9-72h-3.4v72h-54v-202.4h89c50.6 0 77.1 26.6 77.1 67.8zm-77.9 18c13.7 0 23.1-6 23.1-18 0-12.1-9.4-18.1-23.1-18.1h-34.3v36.1h34.3zm218.3-84.9h53.9v120.1c0 55.7-30.8 86.6-88.2 86.6-57.3 0-88.1-31.7-88.1-86.6v-120.1h53.9v118.4c0 23.1 12.8 35.1 34.2 35.1 21.4 0 34.3-12 34.3-35.1zm184.1 76.3c41.1 8.6 62.5 28.3 61.6 60.1 0 51.4-41.9 70.3-84.7 70.3-31.7 1.7-63.4-7.7-90.8-24.9l26.5-44.6c18.9 12.9 42 20.6 65.1 20.6 14.6 0 24.8-2.5 24.8-13.7 0-11.2-11.9-12.9-36.8-17.2l-7.7-1.7c-46.2-7.7-65.1-27.4-64.2-63.5 0.9-38.6 32.5-64.3 80.5-64.3 29.1-0.9 58.2 6.9 83.9 21.4l-23.1 44.6c-17.2-11.1-36.8-16.3-57.4-17.1-14.5 0-25.7 3.4-25.7 12.9 0 11.1 20.6 12 41.1 16.3l6.9 0.8zm211.4-76.3h54v202.5h-54v-77.3h-73.6v77.3h-53.9v-202.5h53.9v74.6h73.6z"/>
</svg>