<svg width="204" height="46" viewBox="0 0 204 46" fill="none" xmlns="http://www.w3.org/2000/svg">
<g clip-path="url(#clip0)">
<path d="M82.8615 13.6641H79.2529V17.2741H82.8615V13.6641Z" fill="#EF3E29"/>
<path d="M198.738 32.1617C200.256 32.1617 201.504 31.7835 202.516 30.9928C203.527 30.202 204.033 29.2393 204.033 28.0704C204.033 26.9358 203.696 26.0419 202.988 25.3887C202.28 24.7698 201.167 24.3228 199.582 24.0478C198.536 23.8759 197.794 23.704 197.423 23.4977C197.019 23.2914 196.816 23.0164 196.816 22.6382C196.816 22.3287 196.985 22.0537 197.322 21.8474C197.659 21.6411 198.064 21.538 198.57 21.538C199.649 21.538 200.357 22.0193 200.661 22.982L203.224 21.5724C202.414 19.7845 200.829 18.8906 198.469 18.8906C197.153 18.8906 196.041 19.2344 195.096 19.9564C194.152 20.6784 193.68 21.538 193.68 22.6382C193.68 24.7354 195.096 26.0075 197.929 26.4545C199.008 26.6264 199.784 26.8327 200.189 27.0733C200.593 27.314 200.829 27.6578 200.829 28.1048C200.829 28.483 200.661 28.7924 200.29 28.9987C199.919 29.2393 199.447 29.3425 198.806 29.3425C197.288 29.3425 196.243 28.6892 195.67 27.314L193.039 28.7236C193.983 31.0272 195.872 32.1617 198.738 32.1617Z" fill="#EF3E29"/>
<path d="M182.315 31.8855H185.687V23.7028C185.687 23.0496 185.856 22.5682 186.16 22.2244C186.463 21.8806 186.902 21.7087 187.407 21.7087C187.88 21.7087 188.25 21.8462 188.554 22.1557C188.858 22.4651 188.992 22.8433 188.992 23.2902C188.992 23.6684 188.959 23.9779 188.891 24.2529H192.061C192.196 23.7716 192.23 23.2559 192.23 22.6714C192.23 21.5712 191.926 20.6429 191.286 19.9553C190.645 19.2676 189.768 18.9238 188.655 18.9238C187.205 18.9238 186.227 19.5427 185.654 20.8148V19.1645H182.281V31.8855H182.315Z" fill="#EF3E29"/>
<path d="M176.548 28.1048C175.941 28.758 175.166 29.0674 174.221 29.0674C173.277 29.0674 172.501 28.758 171.894 28.1048C171.287 27.4515 170.984 26.592 170.984 25.5262C170.984 24.4604 171.287 23.6008 171.894 22.9476C172.501 22.2944 173.277 21.9849 174.221 21.9849C175.166 21.9849 175.941 22.2944 176.548 22.9476C177.155 23.6008 177.459 24.4604 177.459 25.5262C177.459 26.592 177.155 27.4515 176.548 28.1048ZM178.909 20.7816C177.695 19.5439 176.11 18.8906 174.221 18.8906C172.333 18.8906 170.748 19.5095 169.534 20.7816C168.319 22.0193 167.679 23.6008 167.679 25.5262C167.679 27.4171 168.286 28.9987 169.534 30.2708C170.781 31.5429 172.333 32.1617 174.221 32.1617C176.11 32.1617 177.661 31.5429 178.909 30.2708C180.157 28.9987 180.764 27.4171 180.764 25.5262C180.73 23.6352 180.123 22.0537 178.909 20.7816Z" fill="#EF3E29"/>
<path d="M158.607 30.9577C159.416 31.7829 160.563 32.1955 162.08 32.1955C163.396 32.1955 164.475 31.8173 165.251 31.0953C166.06 30.3733 166.566 29.3074 166.734 27.9666L163.632 27.3821C163.531 28.5511 163.025 29.1699 162.148 29.1699C161.743 29.1699 161.372 29.0324 161.136 28.7573C160.866 28.4823 160.731 28.1041 160.731 27.6228V21.9843H165.419V19.165H160.731V15.0049H157.393V19.1994H154.796V22.0186H157.393V27.6228C157.393 29.0324 157.797 30.1326 158.607 30.9577Z" fill="#EF3E29"/>
<path d="M136.585 28.1048C135.978 28.758 135.202 29.0674 134.258 29.0674C133.314 29.0674 132.538 28.758 131.931 28.1048C131.324 27.4515 131.02 26.592 131.02 25.5262C131.02 24.4604 131.324 23.6008 131.931 22.9476C132.538 22.2944 133.314 21.9849 134.258 21.9849C135.202 21.9849 135.978 22.2944 136.585 22.9476C137.192 23.6008 137.495 24.4604 137.495 25.5262C137.462 26.592 137.158 27.4515 136.585 28.1048ZM138.912 20.7816C137.698 19.5439 136.113 18.8906 134.224 18.8906C132.336 18.8906 130.751 19.5095 129.536 20.7816C128.322 22.0193 127.682 23.6008 127.682 25.5262C127.682 27.4171 128.289 28.9987 129.536 30.2708C130.784 31.5429 132.336 32.1617 134.224 32.1617C136.113 32.1617 137.664 31.5429 138.912 30.2708C140.16 28.9987 140.767 27.4171 140.767 25.5262C140.767 23.6352 140.16 22.0537 138.912 20.7816Z" fill="#EF3E29"/>
<path d="M121.172 26.9345C120.127 28.0347 118.643 28.5848 116.721 28.5848H113.18V16.3795H116.687C118.643 16.3795 120.127 16.9296 121.172 18.0298C122.218 19.13 122.724 20.6771 122.724 22.6025C122.758 24.3903 122.218 25.8343 121.172 26.9345ZM123.769 15.6919C122.083 13.9728 119.756 13.1133 116.755 13.1133H109.639V31.8854H116.822C119.722 31.8854 122.049 31.0259 123.736 29.3068C125.422 27.5877 126.299 25.353 126.299 22.6369C126.299 19.7488 125.456 17.4453 123.769 15.6919Z" fill="#EF3E29"/>
<path d="M95.1034 22.2932C95.6093 21.8806 96.2163 21.6743 96.9246 21.6743C97.6665 21.6743 98.2735 21.8806 98.7457 22.2588C99.2178 22.637 99.4539 23.1527 99.4539 23.8059L99.4202 23.9091H94.0917C94.2603 23.2215 94.5976 22.6714 95.1034 22.2932ZM100.297 27.0378C99.8923 28.4818 98.9143 29.2038 97.3967 29.2038C96.4524 29.2038 95.6767 28.9287 95.0697 28.3786C94.4289 27.8285 94.1254 27.1065 94.0917 26.1782H102.557C102.658 25.6969 102.725 25.1812 102.725 24.6311C102.725 22.912 102.186 21.5024 101.14 20.471C100.095 19.4395 98.6782 18.9238 96.9246 18.9238C95.1034 18.9238 93.6196 19.5427 92.4729 20.8148C91.2926 22.0869 90.7192 23.634 90.7192 25.4562C90.7192 27.4503 91.3263 29.0663 92.5741 30.304C93.7882 31.5417 95.407 32.1606 97.3293 32.1606C98.7794 32.1606 99.9935 31.8168 101.005 31.1291C102.017 30.4415 102.725 29.4445 103.164 28.2067L100.297 27.0378Z" fill="#EF3E29"/>
<path d="M88.7631 13.1133H85.3906V31.9198H88.7631V13.1133Z" fill="#EF3E29"/>
<path d="M82.7265 19.165H79.354V31.8861H82.7265V19.165Z" fill="#EF3E29"/>
<path d="M59.2202 31.8859H62.5927V24.2189C62.5927 23.4625 62.7613 22.8781 63.0985 22.4655C63.4358 22.0529 63.8742 21.8466 64.4138 21.8466C64.9871 21.8466 65.4255 22.0185 65.7628 22.3967C66.1 22.7749 66.2687 23.2906 66.2687 23.9439V31.8859H69.6074V24.0814C69.6074 23.3594 69.776 22.7749 70.1133 22.3623C70.4505 21.9498 70.8889 21.7435 71.4622 21.7435C72.0018 21.7435 72.4403 21.9498 72.7775 22.328C73.1147 22.7062 73.2834 23.2563 73.2834 23.9439V31.8859H76.6558V23.2906C76.6558 21.9154 76.2849 20.8496 75.5429 20.0588C74.801 19.268 73.7892 18.8899 72.5077 18.8899C70.8552 18.8899 69.6411 19.6806 68.8992 21.2621C68.6294 20.5058 68.2247 19.8869 67.6514 19.4743C67.078 19.0618 66.4373 18.8555 65.6616 18.8555C64.2452 18.8555 63.1997 19.4743 62.5927 20.6777V19.1305H59.2202V31.8859Z" fill="#EF3E29"/>
<path d="M53.0825 19.3023L56.1515 17.4801C55.6456 16.0017 54.7688 14.8672 53.5547 14.0764C52.3406 13.2856 50.8904 12.873 49.2379 12.873C47.2819 12.873 45.6969 13.3888 44.4491 14.3858C43.2012 15.3829 42.5942 16.6206 42.5942 18.099C42.5942 21.3308 44.7863 23.2905 49.1368 23.9782C50.6881 24.2188 51.7673 24.5626 52.408 24.9752C53.0488 25.3878 53.3523 25.9379 53.3523 26.6599C53.3523 27.3475 53.0151 27.8976 52.3406 28.3102C51.6661 28.7228 50.7893 28.929 49.6764 28.929C48.2937 28.929 47.147 28.5508 46.2365 27.7945C45.3259 27.0381 44.6851 25.9379 44.3142 24.4939L41.144 26.5224C41.8523 28.5852 42.9989 30.0636 44.5502 30.9575C46.1016 31.8171 47.7878 32.2296 49.6089 32.2296C51.8347 32.2296 53.5884 31.7139 54.9374 30.6481C56.2864 29.5823 56.9609 28.207 56.9609 26.5567C56.9609 24.9752 56.455 23.7375 55.4095 22.878C54.3978 22.0184 52.7116 21.3652 50.452 20.9526C49.0356 20.6776 47.9901 20.3338 47.2482 19.8868C46.5063 19.4398 46.169 18.8554 46.169 18.1677C46.169 17.5833 46.4388 17.1019 46.9447 16.7237C47.4843 16.3455 48.1588 16.1736 49.0356 16.1736C51.1602 16.0705 52.5092 17.1363 53.0825 19.3023Z" fill="#EF3E29"/>
<path d="M151.255 27.5891C151.087 27.8985 150.85 28.1735 150.581 28.4142C150.041 28.8955 149.367 29.1018 148.591 29.1018C147.714 29.1018 146.972 28.7924 146.331 28.1392C145.691 27.4859 145.353 26.6264 145.353 25.5606C145.353 25.5606 145.353 25.5606 145.353 25.5262C145.353 25.5262 145.353 25.5262 145.353 25.4918C145.353 24.426 145.691 23.5665 146.331 22.9132C146.972 22.26 147.748 21.9505 148.591 21.9505C149.367 21.9505 150.041 22.1912 150.581 22.6382C150.85 22.8788 151.087 23.1539 151.255 23.4633L153.987 21.8474C153.616 21.1942 153.144 20.6097 152.537 20.1283C151.457 19.3032 150.108 18.8906 148.523 18.8906C146.736 18.8906 145.218 19.5095 143.971 20.7472C142.723 21.9849 142.082 23.5665 142.082 25.423C142.082 25.423 142.082 25.423 142.082 25.4574C142.082 25.4574 142.082 25.4574 142.082 25.4918C142.082 27.3828 142.723 28.9299 143.971 30.1676C145.218 31.4054 146.736 32.0242 148.523 32.0242C150.108 32.0242 151.457 31.6116 152.537 30.7865C153.144 30.3052 153.616 29.7551 153.987 29.0674L151.255 27.5891Z" fill="#EF3E29"/>
<path d="M19.1215 14.2141L18.4133 12.3575C18.0086 11.2917 16.5922 11.1885 16.0526 12.1512L12.8487 17.6866C12.1742 18.8555 13.4221 20.1964 14.6024 19.5432L17.8063 17.7553C19.0878 17.1021 19.6274 15.5893 19.1215 14.2141Z" fill="#EF3E28"/>
<path d="M25.6978 21.9154L27.2154 20.6433C28.0585 19.9213 27.755 18.5117 26.6758 18.271L20.5042 16.8957C19.189 16.6207 18.3459 18.271 19.3239 19.1993L21.9881 21.7435C22.9999 22.7749 24.5849 22.8437 25.6978 21.9154Z" fill="#F47B44"/>
<path d="M20.5721 30.717L22.2246 31.7829C23.1689 32.4017 24.383 31.6453 24.2481 30.5108L23.6073 24.1159C23.4724 22.775 21.6513 22.4656 21.1117 23.7033L19.5604 27.0726C18.9533 28.3791 19.3918 29.9263 20.5721 30.717Z" fill="#F48DA1"/>
<path d="M10.7244 28.4133L10.2186 30.3386C9.91506 31.4388 10.9942 32.3671 12.006 31.9202L17.8066 29.3416C19.0207 28.7915 18.7846 26.9349 17.4356 26.763L13.8271 26.316C12.4107 26.1441 11.0954 27.038 10.7244 28.4133Z" fill="#1F1A50"/>
<path d="M9.84756 18.2367L7.89153 18.3399C6.77862 18.4087 6.23903 19.7495 6.98097 20.5747L11.1628 25.388C12.0397 26.4195 13.6922 25.5943 13.4561 24.2534L12.7816 20.609C12.5118 19.165 11.264 18.168 9.84756 18.2367Z" fill="#EF3E28"/>
<path d="M17.1658 7.3723C8.97074 7.3723 2.327 14.1798 2.327 22.5C2.327 30.8546 9.00446 37.6277 17.1658 37.6277C25.3609 37.6277 32.0046 30.8202 32.0046 22.5C32.0384 14.1454 25.3609 7.3723 17.1658 7.3723ZM17.1658 40C7.68921 40 0 32.1611 0 22.5C0 12.8389 7.68921 5 17.1658 5C26.6424 5 34.3316 12.8389 34.3316 22.5C34.3316 32.1611 26.6424 40 17.1658 40Z" fill="#EF3E28"/>
</g>
<defs>
<clipPath id="clip0">
<rect width="204" height="46" fill="white"/>
</clipPath>
</defs>
</svg>
