<?xml version="1.0" encoding="UTF-8" standalone="no"?>
<!-- Created with Inkscape (http://www.inkscape.org/) -->

<svg
   xmlns:dc="http://purl.org/dc/elements/1.1/"
   xmlns:cc="http://creativecommons.org/ns#"
   xmlns:rdf="http://www.w3.org/1999/02/22-rdf-syntax-ns#"
   xmlns:svg="http://www.w3.org/2000/svg"
   xmlns="http://www.w3.org/2000/svg"
   xmlns:sodipodi="http://sodipodi.sourceforge.net/DTD/sodipodi-0.dtd"
   xmlns:inkscape="http://www.inkscape.org/namespaces/inkscape"
   width="82.517052"
   height="79.0028"
   viewBox="0 0 21.832635 20.902824"
   version="1.1"
   id="svg43985"
   inkscape:version="0.92.0 r15299"
   sodipodi:docname="speedway.svg">
  <defs
     id="defs43979">
    <clipPath
       id="clip32">
      <path
         inkscape:connector-curvature="0"
         id="path43159"
         d="m 523,752 h 3.64844 v 4 H 523 Z m 0,0" />
    </clipPath>
    <clipPath
       id="clip31">
      <path
         inkscape:connector-curvature="0"
         id="path43156"
         d="m 465.51172,697.5 h 61.13672 V 756 h -61.13672 z m 0,0" />
    </clipPath>
  </defs>
  <sodipodi:namedview
     id="base"
     pagecolor="#ffffff"
     bordercolor="#666666"
     borderopacity="1.0"
     inkscape:pageopacity="0.0"
     inkscape:pageshadow="2"
     inkscape:zoom="6.8333335"
     inkscape:cx="40.759232"
     inkscape:cy="39.001412"
     inkscape:document-units="mm"
     inkscape:current-layer="layer1"
     showgrid="false"
     fit-margin-top="0"
     fit-margin-left="0"
     fit-margin-right="0"
     fit-margin-bottom="0"
     units="px"
     inkscape:window-width="1280"
     inkscape:window-height="744"
     inkscape:window-x="-4"
     inkscape:window-y="-4"
     inkscape:window-maximized="1" />
  <metadata
     id="metadata43982">
    <rdf:RDF>
      <cc:Work
         rdf:about="">
        <dc:format>image/svg+xml</dc:format>
        <dc:type
           rdf:resource="http://purl.org/dc/dcmitype/StillImage" />
        <dc:title></dc:title>
      </cc:Work>
    </rdf:RDF>
  </metadata>
  <g
     inkscape:label="Layer 1"
     inkscape:groupmode="layer"
     id="layer1"
     transform="translate(-94.293168,-213.84487)">
    <g
       id="g44165"
       transform="translate(0.1322923,-0.13229292)">
      <path
         inkscape:connector-curvature="0"
         style="clip-rule:nonzero;fill:none;stroke:#ffffff;stroke-width:0.59055001;stroke-linecap:butt;stroke-linejoin:miter;stroke-miterlimit:3.86400008;stroke-opacity:1"
         d="m 96.49427,214.40473 h 16.23467 c 1.05282,0 1.90582,0.85438 1.90582,1.90582 v 16.23605 c 0,1.05144 -0.853,1.90582 -1.90582,1.90582 H 96.49427 c -1.052821,0 -1.905827,-0.85438 -1.905827,-1.90582 v -16.23605 c 0,-1.05144 0.853006,-1.90582 1.905827,-1.90582 z m 0,0"
         id="path43338" />
      <path
         id="path43342"
         d="m 96.469475,214.41024 h 16.278775 c 1.03904,0 1.8824,0.84336 1.8824,1.8824 v 16.27877 c 0,1.03904 -0.84336,1.8824 -1.8824,1.8824 H 96.469475 c -1.03904,0 -1.8824,-0.84336 -1.8824,-1.8824 v -16.27877 c 0,-1.03904 0.84336,-1.8824 1.8824,-1.8824"
         style="fill:#eb174a;fill-opacity:1;fill-rule:nonzero;stroke:none;stroke-width:0.35277778"
         inkscape:connector-curvature="0" />
      <path
         id="path43344"
         d="m 98.513115,229.75745 c 0.0606,0.16123 0.073,0.37345 0.0289,0.54709 h -0.67661 c -0.0138,-0.13643 0.0441,-0.28664 -0.073,-0.39137 -0.0661,-0.0427 -0.1695,-0.0482 -0.23978,-0.011 -0.0992,0.0648 -0.13781,0.17364 -0.1006,0.28113 0.26597,0.31695 0.88608,0.35415 0.89711,0.88607 -0.0124,0.30593 -0.12678,0.58705 -0.39137,0.76482 -0.37345,0.21772 -0.93293,0.25218 -1.32291,0.0468 -0.22049,-0.13781 -0.34451,-0.35967 -0.339,-0.6463 -0.005,-0.10749 0.005,-0.19568 0.011,-0.19293 0.23013,10e-4 0.56499,-0.001 0.76205,0 -0.01,0.12678 -0.0345,0.21222 0.0221,0.32522 0.0703,0.0799 0.16812,0.12816 0.27147,0.091 0.0758,-0.0179 0.15159,-0.0772 0.1571,-0.16812 0.0262,-0.38034 -0.42168,-0.34589 -0.62701,-0.53606 -0.220481,-0.14331 -0.289391,-0.39687 -0.268711,-0.64629 0.0441,-0.29629 0.28663,-0.58705 0.56913,-0.68351 0.46715,-0.11851 1.06522,-0.16124 1.32016,0.33348"
         style="fill:#ffffff;fill-opacity:1;fill-rule:evenodd;stroke:none;stroke-width:0.35277778"
         inkscape:connector-curvature="0" />
      <path
         id="path43346"
         d="m 98.513105,229.75746 c 0.0606,0.16123 0.073,0.37345 0.0289,0.54708 h -0.67662 c -0.0138,-0.13643 0.0441,-0.28663 -0.073,-0.39136 -0.0661,-0.0427 -0.16949,-0.0482 -0.23977,-0.011 -0.0992,0.0648 -0.13781,0.17364 -0.1006,0.28112 0.26596,0.31695 0.88608,0.35416 0.8971,0.88608 -0.0124,0.30593 -0.12678,0.58705 -0.39136,0.76481 -0.37345,0.21773 -0.93293,0.25218 -1.32292,0.0469 -0.22048,-0.13781 -0.34451,-0.35967 -0.33899,-0.6463 -0.006,-0.10749 0.006,-0.19569 0.011,-0.19293 0.23013,10e-4 0.565,-0.001 0.76205,0 -0.01,0.12678 -0.0344,0.21222 0.0221,0.32522 0.0703,0.0799 0.16812,0.12816 0.27148,0.0909 0.0758,-0.0179 0.15158,-0.0772 0.15709,-0.16812 0.0262,-0.38034 -0.42168,-0.34589 -0.627,-0.53606 -0.22049,-0.14332 -0.28939,-0.39687 -0.26872,-0.6463 0.0441,-0.29628 0.28663,-0.58704 0.56913,-0.68351 0.46715,-0.11851 1.06522,-0.16123 1.32016,0.33349 z m 0,0"
         style="fill:none;stroke:#eb174a;stroke-width:0.04233333;stroke-linecap:square;stroke-linejoin:miter;stroke-miterlimit:2;stroke-opacity:1"
         inkscape:connector-curvature="0" />
      <path
         id="path43348"
         d="m 108.44877,231.26227 0.51125,-1.11759 0.61736,0.001 -0.88746,1.88102 h -0.81855 l 0.0193,-0.83509 -0.50023,0.83509 H 106.678 l 0.0524,-1.8824 h 0.58843 l -0.0303,1.06798 0.61874,-1.06798 0.57326,0.003 z m 0,0"
         style="fill:#ffffff;fill-opacity:1;fill-rule:evenodd;stroke:#eb174a;stroke-width:0.04233333;stroke-linecap:square;stroke-linejoin:miter;stroke-miterlimit:2;stroke-opacity:1"
         inkscape:connector-curvature="0" />
      <path
         id="path43350"
         d="m 100.23704,230.24528 c 0.25218,0.26596 0.20533,0.74965 0.0951,1.06385 -0.11438,0.30592 -0.366575,0.64767 -0.715215,0.70555 -0.23013,0.0413 -0.46991,-0.0124 -0.64216,-0.17363 l -0.20809,0.7276 h -0.63527 l 0.64216,-2.43223 0.57464,0.004 -0.0152,0.14607 c 0.24116,-0.23426 0.65595,-0.28249 0.904005,-0.0413"
         style="fill:#ffffff;fill-opacity:1;fill-rule:evenodd;stroke:none;stroke-width:0.35277778"
         inkscape:connector-curvature="0" />
      <path
         id="path43352"
         d="m 100.23704,230.24528 c 0.25218,0.26596 0.20533,0.74965 0.0951,1.06384 -0.11437,0.30593 -0.366555,0.64768 -0.715205,0.70556 -0.23013,0.0413 -0.46991,-0.0124 -0.64216,-0.17363 l -0.20809,0.7276 h -0.63527 l 0.64216,-2.43224 0.57464,0.004 -0.0152,0.14607 c 0.24115,-0.23427 0.65594,-0.2825 0.903995,-0.0413 z m 0,0"
         style="fill:none;stroke:#eb174a;stroke-width:0.04233333;stroke-linecap:square;stroke-linejoin:miter;stroke-miterlimit:2;stroke-opacity:1"
         inkscape:connector-curvature="0" />
      <path
         id="path43354"
         d="m 99.716135,230.74964 c 0.0455,0.23151 -0.0234,0.46578 -0.16536,0.64355 -0.0896,0.0923 -0.14883,0.13366 -0.28939,0.0992 -0.11851,-0.0303 -0.14745,-0.0634 -0.16537,-0.13505 l 0.16812,-0.6339 c 0.10474,-0.11713 0.39137,-0.17088 0.452,0.0262"
         style="fill:#eb174a;fill-opacity:1;fill-rule:evenodd;stroke:none;stroke-width:0.35277778"
         inkscape:connector-curvature="0" />
      <path
         id="path43356"
         d="m 99.716135,230.74965 c 0.0455,0.23151 -0.0234,0.46577 -0.16536,0.64354 -0.0896,0.0923 -0.14883,0.13367 -0.28939,0.0992 -0.11851,-0.0303 -0.14745,-0.0634 -0.16536,-0.13505 l 0.16812,-0.6339 c 0.10473,-0.11713 0.39136,-0.17087 0.45199,0.0262 z m 0,0"
         style="fill:none;stroke:#eb174a;stroke-width:0.04233333;stroke-linecap:square;stroke-linejoin:miter;stroke-miterlimit:2;stroke-opacity:1"
         inkscape:connector-curvature="0" />
      <path
         id="path43358"
         d="m 102.33304,230.39962 c 0.11575,0.22187 0.10886,0.54157 0.0413,0.78135 l -1.12862,0.001 c -0.0386,0.0758 -0.04,0.2067 -0.003,0.28249 0.051,0.0992 0.15985,0.10474 0.24391,0.0813 0.0717,-0.0276 0.12403,-0.10197 0.15159,-0.16812 h 0.67799 c -0.0813,0.32935 -0.39825,0.55259 -0.70555,0.63527 -0.30593,0.0551 -0.62977,0.01 -0.8599,-0.18879 -0.20119,-0.19568 -0.24116,-0.47266 -0.19706,-0.7593 0.0593,-0.33348 0.21635,-0.65318 0.52917,-0.853 0.36793,-0.1943 0.99356,-0.23702 1.24988,0.18741"
         style="fill:#ffffff;fill-opacity:1;fill-rule:evenodd;stroke:none;stroke-width:0.35277778"
         inkscape:connector-curvature="0" />
      <path
         id="path43360"
         d="m 102.33303,230.39962 c 0.11576,0.22187 0.10887,0.54157 0.0413,0.78135 l -1.12862,0.001 c -0.0386,0.0758 -0.04,0.20671 -0.003,0.2825 0.051,0.0992 0.15985,0.10473 0.24391,0.0813 0.0717,-0.0276 0.12402,-0.10197 0.15158,-0.16812 h 0.678 c -0.0813,0.32935 -0.39826,0.55259 -0.70556,0.63528 -0.30592,0.0551 -0.62976,0.01 -0.85989,-0.1888 -0.2012,-0.19568 -0.24116,-0.47266 -0.19706,-0.75929 0.0593,-0.33349 0.21635,-0.65319 0.52916,-0.85301 0.36794,-0.1943 0.99357,-0.23702 1.24988,0.18741 z m 0,0"
         style="fill:none;stroke:#eb174a;stroke-width:0.04233333;stroke-linecap:square;stroke-linejoin:miter;stroke-miterlimit:2;stroke-opacity:1"
         inkscape:connector-curvature="0" />
      <path
         id="path43362"
         d="m 101.7708,230.59668 c 0.0317,0.0896 -0.006,0.13642 -0.011,0.226 l -0.41892,-0.003 c -0.004,-0.0937 0.0482,-0.18742 0.10473,-0.26735 0.0909,-0.10335 0.28801,-0.1061 0.32521,0.0441"
         style="fill:#eb174a;fill-opacity:1;fill-rule:evenodd;stroke:none;stroke-width:0.35277778"
         inkscape:connector-curvature="0" />
      <path
         id="path43364"
         d="m 101.77079,230.59668 c 0.0317,0.0896 -0.006,0.13643 -0.011,0.226 l -0.41892,-0.003 c -0.004,-0.0937 0.0482,-0.18741 0.10473,-0.26733 0.091,-0.10336 0.28801,-0.10611 0.32521,0.0441 z m 0,0"
         style="fill:none;stroke:#eb174a;stroke-width:0.04233333;stroke-linecap:square;stroke-linejoin:miter;stroke-miterlimit:2;stroke-opacity:1"
         inkscape:connector-curvature="0" />
      <path
         id="path43366"
         d="m 104.32154,230.39824 c 0.11576,0.22187 0.10887,0.54157 0.0413,0.78135 l -1.13,0.001 c -0.0386,0.0758 -0.0386,0.20671 -10e-4,0.2825 0.051,0.0992 0.15985,0.10473 0.24391,0.0813 0.0703,-0.0275 0.12265,-0.10197 0.15159,-0.16812 h 0.67798 c -0.0827,0.32936 -0.39962,0.5526 -0.70554,0.63528 -0.30593,0.0551 -0.63114,0.01 -0.8599,-0.18879 -0.20119,-0.1943 -0.24116,-0.47267 -0.19706,-0.7593 0.0593,-0.33349 0.21635,-0.65319 0.52779,-0.85301 0.36931,-0.19568 0.99495,-0.23702 1.25125,0.18742"
         style="fill:#ffffff;fill-opacity:1;fill-rule:evenodd;stroke:none;stroke-width:0.35277778"
         inkscape:connector-curvature="0" />
      <path
         id="path43368"
         d="m 104.32155,230.39825 c 0.11575,0.22186 0.10886,0.54157 0.0413,0.78134 l -1.12999,0.001 c -0.0386,0.0758 -0.0386,0.20671 -0.001,0.2825 0.051,0.0992 0.15984,0.10473 0.2439,0.0813 0.0703,-0.0276 0.12265,-0.10198 0.1516,-0.16812 h 0.67798 c -0.0827,0.32935 -0.39963,0.55259 -0.70555,0.63527 -0.30593,0.0551 -0.63115,0.01 -0.8599,-0.18879 -0.20119,-0.1943 -0.24116,-0.47267 -0.19705,-0.7593 0.0593,-0.33349 0.21634,-0.65319 0.52779,-0.85301 0.36931,-0.19568 0.99494,-0.23702 1.25125,0.18742 z m 0,0"
         style="fill:none;stroke:#eb174a;stroke-width:0.04233333;stroke-linecap:square;stroke-linejoin:miter;stroke-miterlimit:2;stroke-opacity:1"
         inkscape:connector-curvature="0" />
      <path
         id="path43370"
         d="m 103.75793,230.5953 c 0.0331,0.0896 -0.006,0.13643 -0.011,0.226 l -0.41755,0.001 c -0.005,-0.0937 0.0482,-0.19293 0.10473,-0.27147 0.0896,-0.10336 0.28802,-0.10611 0.32384,0.0441"
         style="fill:#eb174a;fill-opacity:1;fill-rule:evenodd;stroke:none;stroke-width:0.35277778"
         inkscape:connector-curvature="0" />
      <path
         id="path43372"
         d="m 103.75793,230.59531 c 0.0331,0.0896 -0.006,0.13642 -0.011,0.22599 l -0.41754,0.001 c -0.006,-0.0937 0.0482,-0.19292 0.10473,-0.27147 0.0896,-0.10335 0.28801,-0.10611 0.32384,0.0441 z m 0,0"
         style="fill:none;stroke:#eb174a;stroke-width:0.04233333;stroke-linecap:square;stroke-linejoin:miter;stroke-miterlimit:2;stroke-opacity:1"
         inkscape:connector-curvature="0" />
      <path
         id="path43374"
         d="m 106.09508,232.02708 h -0.51125 l 0.011,-0.15847 c -0.18879,0.17776 -0.44924,0.22186 -0.7028,0.12678 -0.21084,-0.0813 -0.36931,-0.30455 -0.39136,-0.5209 -0.0482,-0.49885 0.12402,-0.95912 0.51677,-1.25264 0.30179,-0.15296 0.65181,-0.17639 0.93706,0.0469 l 0.20671,-0.80064 h 0.62149 z m 0,0"
         style="fill:#ffffff;fill-opacity:1;fill-rule:evenodd;stroke:#eb174a;stroke-width:0.04233333;stroke-linecap:square;stroke-linejoin:miter;stroke-miterlimit:2;stroke-opacity:1"
         inkscape:connector-curvature="0" />
      <path
         id="path43376"
         d="m 105.82361,230.71243 -0.17915,0.70005 c -0.0896,0.0786 -0.23151,0.11575 -0.34451,0.0675 -0.19568,-0.17087 -0.10473,-0.43822 -0.0276,-0.64354 0.0427,-0.0992 0.12816,-0.22049 0.23703,-0.24805 0.11575,-0.0372 0.24391,0.0344 0.31419,0.12402"
         style="fill:#eb174a;fill-opacity:1;fill-rule:evenodd;stroke:none;stroke-width:0.35277778"
         inkscape:connector-curvature="0" />
      <path
         id="path43378"
         d="m 105.82361,230.71244 -0.17915,0.70004 c -0.0896,0.0786 -0.23151,0.11575 -0.34451,0.0675 -0.19568,-0.17087 -0.10473,-0.43821 -0.0276,-0.64354 0.0427,-0.0992 0.12816,-0.22049 0.23702,-0.24805 0.11576,-0.0372 0.24392,0.0345 0.3142,0.12403 z m 0,0"
         style="fill:none;stroke:#eb174a;stroke-width:0.04233333;stroke-linecap:square;stroke-linejoin:miter;stroke-miterlimit:2;stroke-opacity:1"
         inkscape:connector-curvature="0" />
      <path
         id="path43380"
         d="m 110.54063,230.11988 c 0.226,0.0152 0.46026,0.073 0.57189,0.2949 0.0551,0.13229 0.04,0.31557 0.005,0.452 l -0.29903,1.12723 0.39412,-0.001 c -0.0179,0.0703 -0.0289,0.20119 0.0648,0.23013 0.13505,0.0455 0.25218,-0.0537 0.25081,-0.17639 l -0.28112,-1.9017 h 0.60082 l 0.13781,1.02526 0.50849,-1.02526 h 0.61736 c -0.44235,0.77446 -1.05144,2.18832 -1.38355,2.36333 -0.19844,0.1695 -0.51538,0.21773 -0.75379,0.10887 -0.11713,-0.0675 -0.21497,-0.18604 -0.20532,-0.3266 l 0.0262,-0.2632 c 0,0.008 -0.565,0 -0.565,0 l 0.0248,-0.15021 c -0.2136,0.17364 -0.53881,0.24116 -0.80064,0.10749 -0.18328,-0.11438 -0.21497,-0.3266 -0.19017,-0.51814 0.0207,-0.19844 0.16674,-0.34314 0.31833,-0.45062 0.28801,-0.18604 0.90674,-0.0937 0.96325,-0.33073 0.0551,-0.0813 -0.004,-0.19293 -0.11163,-0.20395 -0.11851,-0.01 -0.23151,0.0786 -0.26045,0.18603 l -0.0138,0.0537 -0.63114,-0.001 c 0.0524,-0.17915 0.14883,-0.36105 0.3321,-0.46853 0.11438,-0.0606 0.22738,-0.11576 0.3583,-0.12403 0,0 0.20257,-0.022 0.32108,-0.007"
         style="fill:#ffffff;fill-opacity:1;fill-rule:evenodd;stroke:none;stroke-width:0.35277778"
         inkscape:connector-curvature="0" />
      <path
         id="path43382"
         d="m 110.54063,230.11988 c 0.226,0.0152 0.46027,0.073 0.57189,0.2949 0.0551,0.13229 0.04,0.31557 0.006,0.452 l -0.29904,1.12723 0.39411,-0.001 c -0.0179,0.0703 -0.0289,0.2012 0.0648,0.23014 0.13505,0.0455 0.25218,-0.0537 0.2508,-0.17639 l -0.28112,-1.90169 h 0.60083 l 0.1378,1.02526 0.5085,-1.02526 h 0.61736 c -0.44235,0.77445 -1.05144,2.18832 -1.38355,2.36333 -0.19844,0.1695 -0.51539,0.21773 -0.75379,0.10887 -0.11713,-0.0675 -0.21497,-0.18604 -0.20533,-0.3266 l 0.0262,-0.2632 c 0,0.008 -0.565,0 -0.565,0 l 0.0248,-0.15021 c -0.2136,0.17363 -0.53882,0.24116 -0.80064,0.10749 -0.18328,-0.11438 -0.21498,-0.3266 -0.19017,-0.51814 0.0207,-0.19844 0.16674,-0.34314 0.31832,-0.45062 0.28801,-0.18604 0.90675,-0.0937 0.96325,-0.33073 0.0551,-0.0813 -0.004,-0.19293 -0.11162,-0.20395 -0.11851,-0.01 -0.23151,0.0785 -0.26045,0.18603 l -0.0138,0.0538 -0.63114,-0.001 c 0.0524,-0.17915 0.14883,-0.36105 0.33211,-0.46854 0.11437,-0.0606 0.22737,-0.11575 0.35829,-0.12402 0,0 0.20257,-0.022 0.32108,-0.007 z m 0,0"
         style="fill:none;stroke:#eb174a;stroke-width:0.04233333;stroke-linecap:square;stroke-linejoin:miter;stroke-miterlimit:2;stroke-opacity:1"
         inkscape:connector-curvature="0" />
      <path
         id="path43384"
         d="m 110.18923,231.54753 c -0.0565,0.0138 -0.0992,0.0138 -0.15572,-0.001 -0.0841,-0.0469 -0.0841,-0.15985 -0.0455,-0.226 0.0813,-0.15434 0.26458,-0.15848 0.40652,-0.2136 -0.0344,0.14607 -0.0262,0.37207 -0.20533,0.44098"
         style="fill:#eb174a;fill-opacity:1;fill-rule:evenodd;stroke:none;stroke-width:0.35277778"
         inkscape:connector-curvature="0" />
      <path
         id="path43386"
         d="m 110.18923,231.54752 c -0.0565,0.0138 -0.0992,0.0138 -0.15572,-0.001 -0.0841,-0.0469 -0.0841,-0.15985 -0.0455,-0.22599 0.0813,-0.15434 0.26458,-0.15848 0.40652,-0.2136 -0.0344,0.14607 -0.0262,0.37207 -0.20533,0.44097 z m 0,0"
         style="fill:none;stroke:#eb174a;stroke-width:0.04233333;stroke-linecap:square;stroke-linejoin:miter;stroke-miterlimit:2;stroke-opacity:1"
         inkscape:connector-curvature="0" />
      <path
         id="path43388"
         d="m 111.31784,217.49843 -12.259025,10e-4 0.24942,-0.18879 2.605875,0.001 0.35278,-0.18603 3.53329,-0.004 c 1.74046,-0.48369 3.97564,-0.73312 5.51766,0.3762"
         style="fill:#ffffff;fill-opacity:1;fill-rule:evenodd;stroke:none;stroke-width:0.35277778"
         inkscape:connector-curvature="0" />
      <path
         id="path43390"
         d="m 111.31784,217.49843 -12.259035,10e-4 0.24943,-0.18879 2.605875,0.001 0.35278,-0.18604 3.53329,-0.004 c 1.74046,-0.48369 3.97564,-0.73312 5.51766,0.3762 z m 0,0"
         style="fill:none;stroke:#ffffff;stroke-width:0.04233333;stroke-linecap:square;stroke-linejoin:miter;stroke-miterlimit:2;stroke-opacity:1"
         inkscape:connector-curvature="0" />
      <path
         id="path43392"
         d="m 111.63617,217.78919 c 0.20257,0.23978 0.41203,0.4644 0.50574,0.7469 H 97.875075 c 0.0262,-0.0799 0.062,-0.13367 0.13505,-0.18741 h 2.434995 l 0.1819,-0.18879 h 3.3693 c 0.0827,-0.1819 0.45889,-0.3707 0.45889,-0.3707 z m 0,0"
         style="fill:#ffffff;fill-opacity:1;fill-rule:evenodd;stroke:#ffffff;stroke-width:0.04233333;stroke-linecap:square;stroke-linejoin:miter;stroke-miterlimit:2;stroke-opacity:1"
         inkscape:connector-curvature="0" />
      <path
         id="path43394"
         d="m 112.26593,218.81859 c 0.0841,0.24391 0.15985,0.47542 0.16399,0.75241 h -3.82268 c -0.23013,-0.28663 -0.54433,-0.41617 -0.91088,-0.3266 -0.20809,0.051 -0.37207,0.1571 -0.51815,0.3266 h -9.844705 l 0.0593,-0.18879 h 2.49288 l 0.0772,-0.18741 h 3.239765 c 0,0 0.0455,-0.17226 0.22325,-0.37621 z m 0,0"
         style="fill:#ffffff;fill-opacity:1;fill-rule:evenodd;stroke:#ffffff;stroke-width:0.04233333;stroke-linecap:square;stroke-linejoin:miter;stroke-miterlimit:2;stroke-opacity:1"
         inkscape:connector-curvature="0" />
      <path
         id="path43396"
         d="m 107.03765,219.85349 c -0.062,0.27286 -0.10197,0.54571 0.10611,0.75241 h -9.886045 c -0.0276,-0.0565 -0.0345,-0.11713 -0.0303,-0.18741 h 2.58244 c -0.0124,-0.0537 -0.0152,-0.0717 0.006,-0.18879 h 3.135025 c 0.0234,-0.15296 0.0289,-0.25218 0.0937,-0.37621 z m 0,0"
         style="fill:#ffffff;fill-opacity:1;fill-rule:evenodd;stroke:#ffffff;stroke-width:0.04233333;stroke-linecap:square;stroke-linejoin:miter;stroke-miterlimit:2;stroke-opacity:1"
         inkscape:connector-curvature="0" />
      <path
         id="path43398"
         d="m 112.43543,219.85349 c 0.006,0.25907 -0.0289,0.4768 -0.0813,0.75241 h -3.5705 c 0.0427,-0.25356 0.008,-0.51676 -0.0289,-0.75241 z m 0,0"
         style="fill:#ffffff;fill-opacity:1;fill-rule:evenodd;stroke:#ffffff;stroke-width:0.04233333;stroke-linecap:square;stroke-linejoin:miter;stroke-miterlimit:2;stroke-opacity:1"
         inkscape:connector-curvature="0" />
      <path
         id="path43400"
         d="m 107.60128,220.8884 c 0.64905,0.29215 1.24023,0.47129 1.89342,0.75241 H 97.581555 l -0.0772,-0.18741 h 2.593475 c 0,0 -0.0317,-0.0772 -0.0524,-0.18879 h 3.06338 c -0.0579,-0.11713 -0.10611,-0.37621 -0.10611,-0.37621 z m 0,0"
         style="fill:#ffffff;fill-opacity:1;fill-rule:evenodd;stroke:#ffffff;stroke-width:0.04233333;stroke-linecap:square;stroke-linejoin:miter;stroke-miterlimit:2;stroke-opacity:1"
         inkscape:connector-curvature="0" />
      <path
         id="path43402"
         d="m 110.05418,221.92331 c 0.30041,0.19292 0.66008,0.44235 0.87643,0.75241 H 98.375305 l -0.14194,-0.18742 h 2.735405 c -0.0482,-0.0524 -0.10335,-0.12264 -0.15847,-0.18879 h 2.95727 c -0.0992,-0.10749 -0.23564,-0.24391 -0.30592,-0.3762 z m 0,0"
         style="fill:#ffffff;fill-opacity:1;fill-rule:evenodd;stroke:#ffffff;stroke-width:0.04233333;stroke-linecap:square;stroke-linejoin:miter;stroke-miterlimit:2;stroke-opacity:1"
         inkscape:connector-curvature="0" />
      <path
         id="path43404"
         d="m 111.13043,222.95821 c 0.17915,0.23565 0.29628,0.47543 0.37621,0.75241 h -5.07532 c -0.64492,-0.16812 -1.15066,-0.41754 -1.72806,-0.75241 z m 0,0"
         style="fill:#ffffff;fill-opacity:1;fill-rule:evenodd;stroke:#ffffff;stroke-width:0.04233333;stroke-linecap:square;stroke-linejoin:miter;stroke-miterlimit:2;stroke-opacity:1"
         inkscape:connector-curvature="0" />
      <path
         id="path43406"
         d="m 105.66926,223.99313 c -0.0372,0.24942 -0.0455,0.53192 0.0386,0.7524 h -9.749625 c 0,0 -0.007,-0.0579 0.0234,-0.18741 h 2.48735 l 0.0537,-0.18879 h 3.168105 c 0.01,-0.17363 0.0358,-0.25356 0.0827,-0.3762 z m 0,0"
         style="fill:#ffffff;fill-opacity:1;fill-rule:evenodd;stroke:#ffffff;stroke-width:0.04233333;stroke-linecap:square;stroke-linejoin:miter;stroke-miterlimit:2;stroke-opacity:1"
         inkscape:connector-curvature="0" />
      <path
         id="path43408"
         d="m 111.55763,223.99174 c 0.0579,0.23427 0.0234,0.50023 0.0138,0.75379 h -4.12447 c 0.0758,-0.31006 -0.0896,-0.56913 -0.32522,-0.75241 z m 0,0"
         style="fill:#ffffff;fill-opacity:1;fill-rule:evenodd;stroke:#ffffff;stroke-width:0.04233333;stroke-linecap:square;stroke-linejoin:miter;stroke-miterlimit:2;stroke-opacity:1"
         inkscape:connector-curvature="0" />
      <path
         id="path43410"
         d="m 105.86219,225.03491 c 0.20671,0.25494 0.50436,0.37621 0.82407,0.3514 0.25769,-0.0276 0.4644,-0.16674 0.65319,-0.35967 l 4.2099,0.001 c -0.0703,0.27837 -0.11575,0.53193 -0.31281,0.75379 H 96.111185 c -0.0193,-0.062 -0.0469,-0.12266 -0.0469,-0.1888 h 2.45153 c -0.0303,-0.0758 -0.007,-0.12265 -0.011,-0.18879 h 3.310055 c -0.0592,-0.11714 -0.0592,-0.24392 -0.0744,-0.3707 z m 0,0"
         style="fill:#ffffff;fill-opacity:1;fill-rule:evenodd;stroke:#ffffff;stroke-width:0.04233333;stroke-linecap:square;stroke-linejoin:miter;stroke-miterlimit:2;stroke-opacity:1"
         inkscape:connector-curvature="0" />
      <path
         id="path43412"
         d="m 111.08496,226.06293 c -0.17777,0.2825 -0.49059,0.55535 -0.77171,0.75379 H 96.687205 l -0.20532,-0.18879 h 2.51629 c -0.0344,-0.0675 -0.0868,-0.12678 -0.10611,-0.18879 h 3.505735 c -0.0896,-0.1254 -0.19017,-0.23978 -0.22324,-0.37621 z m 0,0"
         style="fill:#ffffff;fill-opacity:1;fill-rule:evenodd;stroke:#ffffff;stroke-width:0.04233333;stroke-linecap:square;stroke-linejoin:miter;stroke-miterlimit:2;stroke-opacity:1"
         inkscape:connector-curvature="0" />
      <path
         id="path43414"
         d="m 109.94808,227.09921 c -1.17134,0.75655 -2.57142,0.73863 -4.0101,0.75241 h -7.762485 l -0.3707,-0.18879 h 2.634815 l -0.23013,-0.18879 h 3.64629 l -0.6587,-0.37483 z m 0,0"
         style="fill:#ffffff;fill-opacity:1;fill-rule:evenodd;stroke:#ffffff;stroke-width:0.04233333;stroke-linecap:square;stroke-linejoin:miter;stroke-miterlimit:2;stroke-opacity:1"
         inkscape:connector-curvature="0" />
      <path
         inkscape:connector-curvature="0"
         style="clip-rule:nonzero;fill:#eb174a;fill-opacity:1;fill-rule:evenodd;stroke:none;stroke-width:0.35277778"
         d="m 115.70274,233.92877 c 0,0.25356 -0.18052,0.42306 -0.39412,0.42306 -0.2191,0 -0.39549,-0.1695 -0.39549,-0.42306 0,-0.25494 0.17639,-0.42306 0.39549,-0.42306 0.2136,0 0.39412,0.16812 0.39412,0.42306 m 0.15848,0 c 0,-0.34865 -0.26045,-0.55122 -0.5526,-0.55122 -0.29352,0 -0.55397,0.20257 -0.55397,0.55122 0,0.34726 0.26045,0.55121 0.55397,0.55121 0.29215,0 0.5526,-0.20395 0.5526,-0.55121 m -0.64492,-0.0551 v -0.14194 h 0.0896 c 0.0482,0 0.11438,0.004 0.11438,0.0648 0,0.0661 -0.0345,0.0772 -0.091,0.0772 z m 0,0.10197 h 0.0606 l 0.13643,0.24942 h 0.1502 l -0.15158,-0.26044 c 0.0786,-0.006 0.14331,-0.0455 0.14331,-0.15434 0,-0.13643 -0.0896,-0.17915 -0.24391,-0.17915 h -0.22186 v 0.59393 h 0.12678 z m 0,0"
         id="path43416" />
    </g>
  </g>
</svg>
