<?xml version="1.0" encoding="UTF-8"?>
<svg id="b" data-name="Layer_2" xmlns="http://www.w3.org/2000/svg" width="125" height="125" viewBox="0 0 125 125">
  <g id="c" data-name="Layer_1">
    <path d="M114.73,37.704l-27.434-27.434c-13.694-13.694-35.898-13.694-49.592,0l-27.434,27.434c-13.694,13.694-13.694,35.898,0,49.592l27.434,27.434c13.694,13.694,35.898,13.694,49.592,0l27.434-27.434c13.694-13.694,13.694-35.898,0-49.592ZM79.507,90.6h-27.284c-11.828,0-16.372-5.495-16.372-17.419v-16.594h-8.086l2.594-10.158h5.492v-9.224l13.372-2.804v12.028h10.171v10.158h-10.171v16.804c0,4.07.641,6.161,2.86,6.564.253.047.509.059.766.059h28.068c1.635,0,3.051-1.241,3.151-2.872.003-.072.006-.147.006-.222,0-6.542-21.47-3.629-21.47-18.457,0-8.099,6.323-12.762,16.694-12.762,7.777,0,14,2.913,15.247,3.838l-1.975,9.64c-1.866-1.344-7.88-3.629-12.643-3.629-2.285,0-4.47.841-4.47,2.913,0,6.014,21.78,3.52,21.78,18.138,0,8.505-7.458,14-17.729,14Z" fill="#fbfbfb"/>
  </g>
</svg>