<?xml version="1.0" encoding="UTF-8" standalone="no"?>
<!-- Created with Inkscape (http://www.inkscape.org/) -->

<svg
   xmlns:dc="http://purl.org/dc/elements/1.1/"
   xmlns:cc="http://creativecommons.org/ns#"
   xmlns:rdf="http://www.w3.org/1999/02/22-rdf-syntax-ns#"
   xmlns:svg="http://www.w3.org/2000/svg"
   xmlns="http://www.w3.org/2000/svg"
   xmlns:sodipodi="http://sodipodi.sourceforge.net/DTD/sodipodi-0.dtd"
   xmlns:inkscape="http://www.inkscape.org/namespaces/inkscape"
   width="241.01437"
   height="42.106312"
   viewBox="0 0 63.768386 11.140628"
   version="1.1"
   id="svg52709"
   inkscape:version="0.92.4 (5da689c313, 2019-01-14)"
   sodipodi:docname="ufp.svg">
  <defs
     id="defs52703" />
  <sodipodi:namedview
     id="base"
     pagecolor="#ffffff"
     bordercolor="#666666"
     borderopacity="1.0"
     inkscape:pageopacity="0.0"
     inkscape:pageshadow="2"
     inkscape:zoom="6.0913019"
     inkscape:cx="120.00719"
     inkscape:cy="20.553156"
     inkscape:document-units="mm"
     inkscape:current-layer="layer1"
     showgrid="false"
     fit-margin-top="0"
     fit-margin-left="0"
     fit-margin-right="0"
     fit-margin-bottom="0"
     units="px"
     inkscape:window-width="1920"
     inkscape:window-height="1001"
     inkscape:window-x="-9"
     inkscape:window-y="-9"
     inkscape:window-maximized="1" />
  <metadata
     id="metadata52706">
    <rdf:RDF>
      <cc:Work
         rdf:about="">
        <dc:format>image/svg+xml</dc:format>
        <dc:type
           rdf:resource="http://purl.org/dc/dcmitype/StillImage" />
        <dc:title></dc:title>
      </cc:Work>
    </rdf:RDF>
  </metadata>
  <g
     inkscape:label="Layer 1"
     inkscape:groupmode="layer"
     id="layer1"
     transform="translate(138.34119,-44.856924)">
    <g
       transform="translate(20.216257,-416.34872)"
       id="g52653">
      <path
         inkscape:connector-curvature="0"
         id="path52240"
         style="fill:#000000;fill-opacity:1;fill-rule:nonzero;stroke:none;stroke-width:0.35277778"
         d="m -132.20389,464.29529 h 0.44555 v 4.97487 h -0.44555 z" />
      <path
         d="m -127.34777,469.27034 -2.39818,-4.4958 c 0.0222,0.34149 0.0593,0.82091 0.0593,1.71415 v 2.78165 h -0.42333 v -4.97522 h 0.57185 l 2.413,4.4958 c -0.0148,-0.21061 -0.0593,-0.82797 -0.0593,-1.47426 v -3.02154 h 0.42333 v 4.97522 z"
         style="fill:#000000;fill-opacity:1;fill-rule:nonzero;stroke:none;stroke-width:0.35277778"
         id="path52252"
         inkscape:connector-curvature="0" />
      <path
         d="m -124.10278,464.29533 c 1.18075,0 2.36855,0.39934 2.36855,2.44757 0,2.06269 -1.24001,2.5273 -2.28706,2.5273 h -1.09149 v -4.97487 z m -0.56444,4.61186 h 0.67592 c 0.87594,0 1.78929,-0.37782 1.78929,-2.16429 0,-1.82315 -0.95039,-2.08456 -1.8415,-2.08456 h -0.62371 z"
         style="fill:#000000;fill-opacity:1;fill-rule:nonzero;stroke:none;stroke-width:0.35277778"
         id="path52256"
         inkscape:connector-curvature="0" />
      <path
         d="m -117.15281,467.716 c 0,0.95885 -0.55704,1.63407 -1.67076,1.63407 -1.13594,0 -1.6704,-0.67522 -1.6704,-1.63407 v -3.42053 h 0.44521 v 3.38419 c 0,0.8061 0.37147,1.29293 1.22519,1.29293 0.85373,0 1.21779,-0.49388 1.21779,-1.29293 v -3.38419 h 0.45297 z"
         style="fill:#000000;fill-opacity:1;fill-rule:nonzero;stroke:none;stroke-width:0.35277778"
         id="path52260"
         inkscape:connector-curvature="0" />
      <path
         d="m -112.95757,464.76741 -0.26741,0.28328 c -0.37112,-0.32702 -0.71296,-0.46496 -1.18074,-0.46496 -0.62336,0 -1.0541,0.31962 -1.0541,0.84243 0,0.50871 0.27481,0.74084 1.1878,1.00965 0.91334,0.27587 1.47038,0.59549 1.47038,1.47426 0,0.84984 -0.66075,1.43828 -1.68557,1.43828 -0.6978,0 -1.21003,-0.23989 -1.62596,-0.62477 l 0.26706,-0.28328 c 0.35665,0.32702 0.75741,0.53728 1.35149,0.53728 0.71296,0 1.24001,-0.38453 1.24001,-1.05269 0,-0.6029 -0.30445,-0.84984 -1.21038,-1.12607 -1.00965,-0.3048 -1.4478,-0.64629 -1.4478,-1.36525 0,-0.7045 0.60149,-1.2199 1.4926,-1.2199 0.66076,0 1.06151,0.2032 1.46262,0.55174"
         style="fill:#000000;fill-opacity:1;fill-rule:nonzero;stroke:none;stroke-width:0.35277778"
         id="path52264"
         inkscape:connector-curvature="0" />
      <path
         d="m -110.41803,464.68028 v 4.58999 h -0.43815 v -4.58999 h -1.50742 v -0.38488 h 3.49003 l -0.0522,0.38488 z"
         style="fill:#000000;fill-opacity:1;fill-rule:nonzero;stroke:none;stroke-width:0.35277778"
         id="path52268"
         inkscape:connector-curvature="0" />
      <path
         d="m -107.52959,467.04061 v 2.22956 h -0.44556 v -4.97488 h 1.23261 c 1.22519,0 1.81186,0.47202 1.81186,1.35079 0,0.74083 -0.41592,1.13312 -1.13629,1.3148 l 1.39594,2.30929 h -0.53446 l -1.30669,-2.22956 z m 0.84667,-0.35595 c 0.80927,0 1.27705,-0.31221 1.27705,-1.03858 0,-0.66075 -0.37888,-0.99483 -1.35149,-0.99483 h -0.77223 v 2.03341 z"
         style="fill:#000000;fill-opacity:1;fill-rule:nonzero;stroke:none;stroke-width:0.35277778"
         id="path52272"
         inkscape:connector-curvature="0" />
      <path
         inkscape:connector-curvature="0"
         id="path52274"
         style="fill:#000000;fill-opacity:1;fill-rule:nonzero;stroke:none;stroke-width:0.35277778"
         d="m -103.59432,464.29529 h 0.44556 v 4.97487 h -0.44556 z" />
      <path
         d="m -101.05468,464.65848 v 1.85208 h 1.804106 v 0.36301 h -1.804106 v 2.03341 h 2.190397 v 0.36336 h -2.635957 v -4.97487 h 2.584099 l -0.05186,0.36301 z"
         style="fill:#000000;fill-opacity:1;fill-rule:nonzero;stroke:none;stroke-width:0.35277778"
         id="path52278"
         inkscape:connector-curvature="0" />
      <path
         d="m -95.07728,464.76741 -0.267406,0.28328 c -0.371122,-0.32702 -0.712963,-0.46496 -1.180747,-0.46496 -0.623358,0 -1.0541,0.31962 -1.0541,0.84243 0,0.50871 0.274814,0.74084 1.187803,1.00965 0.913342,0.27587 1.470378,0.59549 1.470378,1.47426 0,0.84984 -0.660753,1.43828 -1.685572,1.43828 -0.697795,0 -1.210028,-0.23989 -1.625953,-0.62477 l 0.267053,-0.28328 c 0.356658,0.32702 0.757413,0.53728 1.351491,0.53728 0.712964,0 1.240014,-0.38453 1.240014,-1.05269 0,-0.6029 -0.304447,-0.84984 -1.21038,-1.12607 -1.00965,-0.3048 -1.4478,-0.64629 -1.4478,-1.36525 0,-0.7045 0.601486,-1.2199 1.492602,-1.2199 0.660753,0 1.061509,0.2032 1.462617,0.55174"
         style="fill:#000000;fill-opacity:1;fill-rule:nonzero;stroke:none;stroke-width:0.35277778"
         id="path52282"
         inkscape:connector-curvature="0" />
      <path
         d="m -143.5172,467.60914 c 0,1.01247 -0.64805,1.77729 -1.92299,1.77729 -1.27459,0 -1.91558,-0.72848 -1.91558,-1.77729 v -3.37996 h 1.07068 v 3.32881 c 0,0.67768 0.26211,1.01282 0.8449,1.01282 0.58984,0 0.85231,-0.33514 0.85231,-1.01282 v -3.32881 h 1.07068 z"
         style="fill:#000000;fill-opacity:1;fill-rule:nonzero;stroke:none;stroke-width:0.35277778"
         id="path52286"
         inkscape:connector-curvature="0" />
      <path
         d="m -141.59403,465.00868 v 1.42769 h 1.51518 v 0.77929 h -1.51518 v 2.05422 h -1.07068 v -5.04049 h 2.92805 l -0.11641,0.77929 z"
         style="fill:#000000;fill-opacity:1;fill-rule:nonzero;stroke:none;stroke-width:0.35277778"
         id="path52290"
         inkscape:connector-curvature="0" />
      <path
         d="m -137.40539,464.22925 c 1.28199,0 2.06869,0.52458 2.06869,1.62454 0,1.16523 -0.83044,1.69686 -1.9812,1.69686 h -0.57573 v 1.71944 h -1.07068 v -5.04084 z m 0,2.53471 c 0.58984,0 0.96132,-0.22578 0.96132,-0.91017 0,-0.5902 -0.3496,-0.85231 -0.97614,-0.85231 h -0.47342 v 1.76248 z"
         style="fill:#000000;fill-opacity:1;fill-rule:nonzero;stroke:none;stroke-width:0.35277778"
         id="path52294"
         inkscape:connector-curvature="0" />
      <path
         d="m -150.33067,462.0434 c -0.0335,-0.15311 -0.15275,-0.2727 -0.30515,-0.30621 -2.41194,-0.53234 -4.56318,-0.53234 -6.97512,0 -0.1524,0.0335 -0.27129,0.1531 -0.30516,0.30621 -0.67874,3.09598 -0.67874,6.36905 0,9.46503 0.0339,0.15346 0.15276,0.27305 0.30516,0.30656 1.20579,0.266 2.34667,0.39899 3.48756,0.39899 1.14088,0 2.28176,-0.13299 3.48756,-0.39899 0.1524,-0.0335 0.27164,-0.1531 0.30515,-0.30656 0.67874,-3.09598 0.67874,-6.36905 0,-9.46503 m -6.85765,0.42616 c 0.75495,-0.15558 1.48449,-0.25436 2.20698,-0.29881 l 7.1e-4,0.004 c -0.54751,0.74154 -1.26506,1.11019 -1.27247,1.11372 -0.18839,0.0857 -0.27235,0.30868 -0.18768,0.49812 0.085,0.19015 0.30692,0.27517 0.496,0.1898 0.0272,-0.0123 0.48119,-0.22155 0.98284,-0.67593 l 0.0113,0.63218 c -0.31679,0.32667 -0.80363,0.78881 -1.87466,1.21885 -0.19226,0.0773 -0.28575,0.29704 -0.2092,0.49036 0.0769,0.19368 0.29493,0.28787 0.48754,0.21061 0.75001,-0.30127 1.25554,-0.62583 1.61396,-0.9144 l 0.009,0.50765 c -0.006,0.013 -0.0123,0.0261 -0.0173,0.0402 -0.13899,0.41487 -0.65299,0.70309 -1.05939,0.87207 -0.48754,0.20285 -0.94509,0.28504 -0.94967,0.28575 -0.20391,0.0356 -0.34044,0.23107 -0.30516,0.43639 0.0356,0.20531 0.22966,0.34254 0.43357,0.30691 0.0215,-0.004 0.53199,-0.0942 1.09361,-0.32561 0.3242,-0.1337 0.59901,-0.28575 0.82444,-0.45579 l 0.0116,0.66393 c -0.23954,0.2039 -0.7874,0.62371 -1.44251,0.82444 -0.19826,0.0607 -0.30974,0.27164 -0.24941,0.47096 0.0494,0.16298 0.19826,0.2674 0.35842,0.2674 0.0363,0 0.0734,-0.005 0.10971,-0.0166 0.48649,-0.14922 0.91546,-0.39158 1.24037,-0.61277 l 0.0201,1.16875 c -1.24248,0.29175 -2.01965,0.68686 -2.46909,0.98425 -0.44133,-2.60244 -0.39617,-5.30401 0.13652,-7.88599 m 0.1771,8.64728 c 0.31185,-0.22824 0.97754,-0.61912 2.17029,-0.92004 l 0.0205,1.19345 c -0.71826,-0.0356 -1.44286,-0.12736 -2.19075,-0.27341 m 5.95312,-0.0346 c -1.05374,0.21696 -2.05775,0.32562 -3.06176,0.32597 l -0.0236,-1.36419 c 0.84878,-0.15911 1.90606,-0.26741 3.21169,-0.26741 0.0328,0 0.0663,3.5e-4 0.0998,3.5e-4 -0.0617,0.4378 -0.13723,0.87313 -0.22613,1.30528 m 0.32421,-2.10996 c -0.0667,-3.5e-4 -0.133,-7.1e-4 -0.19827,-7.1e-4 -1.28411,0 -2.34667,0.1016 -3.22192,0.25612 l -0.0173,-1.05093 c 0.33232,0.20991 0.7687,0.43745 1.26012,0.57009 0.037,0.01 0.0737,0.0138 0.11007,0.0127 0.16051,-0.006 0.3055,-0.11536 0.34925,-0.2794 0.0536,-0.20143 -0.0649,-0.40816 -0.26494,-0.46214 -0.66146,-0.1785 -1.22308,-0.5789 -1.46967,-0.77434 l -0.0109,-0.66428 c 0.23072,0.16227 0.51083,0.3048 0.83961,0.42721 0.56903,0.21202 1.08197,0.28504 1.10385,0.28787 0.20461,0.0286 0.3944,-0.11536 0.42262,-0.32174 0.0286,-0.20637 -0.1143,-0.39687 -0.31961,-0.42545 -0.005,-7e-4 -0.46461,-0.0674 -0.9585,-0.25294 -0.41204,-0.15487 -0.93557,-0.42545 -1.08867,-0.83502 -0.005,-0.0141 -0.012,-0.0272 -0.0187,-0.0399 l -0.008,-0.50729 c 0.36794,0.27552 0.88406,0.58243 1.64394,0.85795 0.19473,0.0706 0.40958,-0.031 0.48013,-0.22683 0.0699,-0.19615 -0.031,-0.4124 -0.22578,-0.48295 -1.08514,-0.39335 -1.5875,-0.8382 -1.91487,-1.15394 l -0.0106,-0.63218 c 0.51682,0.43709 0.97826,0.63042 1.00577,0.6417 0.19156,0.079 0.41064,-0.0134 0.48895,-0.20637 0.0783,-0.19262 -0.013,-0.4124 -0.20426,-0.49177 -0.008,-0.003 -0.73624,-0.34714 -1.30845,-1.06927 l -7e-4,-0.003 c 1.0548,-0.0109 2.10643,0.096 3.21274,0.32385 0.43851,2.12725 0.54646,4.33563 0.32421,6.50275"
         style="fill:#007a51;fill-opacity:1;fill-rule:nonzero;stroke:none;stroke-width:0.35277778"
         id="path52298"
         inkscape:connector-curvature="0" />
      <path
         d="m -149.48394,471.64415 v 0.0903 h -0.15875 v 0.45579 h -0.0988 v -0.45579 h -0.15875 v -0.0903 z m 0.53657,0.5461 -0.018,-0.32138 c -0.002,-0.042 -0.002,-0.0942 -0.004,-0.1524 h -0.005 c -0.0127,0.048 -0.0275,0.11218 -0.042,0.16263 l -0.0896,0.30339 h -0.1023 l -0.0893,-0.3115 c -0.009,-0.0423 -0.0236,-0.10654 -0.0346,-0.15452 h -0.006 c 0,0.0501 -0.002,0.1023 -0.004,0.1524 l -0.0183,0.32138 h -0.0949 l 0.0363,-0.5461 h 0.14781 l 0.0861,0.26705 c 0.0109,0.042 0.0201,0.0822 0.0328,0.13864 h 0.002 c 0.0127,-0.0504 0.0236,-0.0967 0.0346,-0.13652 l 0.0857,-0.26917 h 0.14252 l 0.0385,0.5461 z"
         style="fill:#007a51;fill-opacity:1;fill-rule:nonzero;stroke:none;stroke-width:0.35277778"
         id="path52302"
         inkscape:connector-curvature="0" />
    </g>
  </g>
</svg>
