<svg viewBox="0 0 90 90" xmlns="http://www.w3.org/2000/svg"><path d="M75.54 62.775s2.233 1.485 4.376 1.485c2.189 0 4.084-1.553 4.084-1.553v-7.56s-1.918 1.35-4.06 1.35c-2.144 0-4.4-1.462-4.4-1.462L53.272 41.963l2.076 8.954L75.54 62.775ZM15.46 39.443s-2.143-1.485-4.4-1.485c-2.233 0-4.06 1.575-4.06 1.575v7.537s1.827-1.35 4.06-1.35c2.257 0 4.4 1.485 4.4 1.485l18.387 10.8 1.58-6.84-19.967-11.7v-.023Zm60.08 13.455s2.233 1.484 4.376 1.484c2.189 0 4.084-1.575 4.084-1.575V45.27s-1.918 1.35-4.06 1.35c-2.144 0-4.4-1.462-4.4-1.462L50.655 30.532l2.053 8.955 22.832 13.41ZM15.46 29.565s-2.143-1.485-4.4-1.485C8.828 28.08 7 29.633 7 29.633v7.56s1.827-1.35 4.06-1.35c2.257 0 4.4 1.462 4.4 1.462l20.395 11.97 1.58-6.817L15.46 29.565ZM75.54 43.02s2.233 1.462 4.376 1.462c2.189 0 4.084-1.53 4.084-1.53v-7.56s-1.918 1.35-4.06 1.35c-2.144 0-4.4-1.462-4.4-1.462l-27.524-16.2 2.075 9L75.54 43.02ZM15.46 19.687s-2.143-1.485-4.4-1.485c-2.233 0-4.06 1.553-4.06 1.553v7.538s1.827-1.35 4.06-1.35c2.257 0 4.4 1.484 4.4 1.484l22.38 13.14 1.58-6.817-23.96-14.063Zm31.992-3.06L75.54 33.12s2.233 1.485 4.376 1.485c2.189 0 4.084-1.552 4.084-1.552v-7.56s-1.918 1.372-4.06 1.372c-2.144 0-4.4-1.485-4.4-1.485L53.814 12.623l-1.49-5.715c0-.248.226-.36.294-.383l3.677-1.147c.497 0 .767.427.767.787l.226.405c.113.067.7-.113.7-.225v-2.25c.022-1.507-1.174-2.835-2.776-2.835h-3.7S50.994 0 49.414 0H42.42c-1.804 0-2.256 1.755-2.256 1.755l-4.873 19.71L15.461 9.81s-2.144-1.485-4.4-1.485C8.827 8.325 7 9.855 7 9.855v7.56s1.827-1.35 4.06-1.35c2.257 0 4.4 1.485 4.4 1.485l24.39 14.31L45.4 7.718l2.053 8.91Zm-4.422 66.24c0 4.096-3.362 7.088-8.01 7.088-4.895 0-6.52-.832-6.52-.832l-.406-4.546s2.708 1.8 6.7 1.8c1.129 0 3.61-.764 3.61-3.014 0-2.138-1.962-2.813-2.436-3.06-.97-.518-2.143-1.035-3.09-1.508-1.806-.9-4.468-2.588-4.468-6.165 0-5.175 4.67-7.065 8.348-7.065 2.978 0 5.595 1.305 5.595 1.305v4.23c-.835-.472-2.211-2.002-5.595-2.002-2.302 0-3.858 1.215-3.858 2.924 0 1.575 1.308 2.633 2.572 3.218 1.263.585 2.098.968 3.564 1.688 1.828.9 3.994 2.767 3.994 5.94ZM21.146 80.91c0 1.89-.632 5.445-4.964 5.377-3.925-.112-4.67-3.712-4.67-6.007V66.015H7v14.49C7 88.65 12.008 90 16.182 90c6.204 0 9.07-4.05 9.07-9.585v-14.4h-4.106V80.91ZM84 89.46h-4.918l-1.422-4.095h-8.392l-1.422 4.118h-8.392l-1.421-4.118H49.64l-1.421 4.118h-4.445l8.122-21.645-.79-1.823h4.919l7.896 22.117 7.603-20.294-.767-1.823h4.896L84 89.483v-.023Zm-27.073-7.38-2.933-9.248-3.271 9.226h6.204v.022Zm19.628 0-2.933-9.248-3.249 9.226h6.182v.022Z" fill="#00466A" fill-rule="evenodd"/></svg>