<?xml version="1.0" encoding="UTF-8" standalone="no"?>
<svg
   xmlns:dc="http://purl.org/dc/elements/1.1/"
   xmlns:cc="http://creativecommons.org/ns#"
   xmlns:rdf="http://www.w3.org/1999/02/22-rdf-syntax-ns#"
   xmlns:svg="http://www.w3.org/2000/svg"
   xmlns="http://www.w3.org/2000/svg"
   viewBox="0 0 495.98932 145.77733"
   height="145.77733"
   width="495.98932"
   xml:space="preserve"
   id="svg2"
   version="1.1"><metadata
     id="metadata8"><rdf:RDF><cc:Work
         rdf:about=""><dc:format>image/svg+xml</dc:format><dc:type
           rdf:resource="http://purl.org/dc/dcmitype/StillImage" /></cc:Work></rdf:RDF></metadata><defs
     id="defs6"><clipPath
       id="clipPath18"
       clipPathUnits="userSpaceOnUse"><path
         id="path16"
         d="M 0,0 H 371.992 V 109.334 H 0 Z" /></clipPath></defs><g
     transform="matrix(1.3333333,0,0,-1.3333333,0,145.77733)"
     id="g10"><g
       id="g12"><g
         clip-path="url(#clipPath18)"
         id="g14"><g
           transform="translate(326.3789,0.667)"
           id="g20"><path
             id="path22"
             style="fill:#003395;fill-opacity:1;fill-rule:nonzero;stroke:none"
             d="M 0,0 C 23.004,0 36.212,9.933 45.99,23.439 L 24.349,38.87 C 18.105,31.305 11.729,26.271 0.89,26.271 c -14.533,0 -24.784,12.154 -24.784,27.739 v 0.289 c 0,15.121 10.251,27.44 24.784,27.44 9.951,0 16.772,-4.734 22.705,-12.164 L 45.256,86.348 C 36.048,99.111 22.415,108 1.188,108 -30.261,108 -53.546,84.28 -53.546,54.01 V 53.7 C -53.546,22.695 -29.681,0 0,0 m -137.276,2 h 79.855 v 24.502 h -50.134 v 16.522 h 48.617 v 22.715 h -48.617 v 16.077 h 49.371 v 24.483 h -79.092 z m -5.547,104.299 h -83.015 V 77.517 h 26.174 V 2.01 h 30.01 v 75.507 h 26.831 z m -88.464,-0.009 V 47.644 c 0,-19.286 -11.565,-35.934 -28.126,-43.393 l -0.038,-0.028 c -0.126,-0.059 -0.271,-0.087 -0.386,-0.156 -0.474,-0.193 -0.947,-0.395 -1.421,-0.588 -0.202,-0.068 -0.396,-0.165 -0.609,-0.243 -0.038,-0.018 -0.077,-0.028 -0.125,-0.057 v 0.009 c -5.237,-1.99 -10.908,-3.082 -16.831,-3.082 -26.222,0 -47.555,21.324 -47.555,47.538 l -0.01,58.665 h 30.077 l -0.058,-61.121 c 0,-9.681 7.846,-17.544 17.546,-17.544 6.898,0 12.899,4.018 15.749,9.844 0.27,0.551 0.502,1.111 0.715,1.691 0.058,0.145 0.096,0.328 0.154,0.483 0.136,0.415 0.271,0.831 0.358,1.266 0.067,0.212 0.117,0.434 0.164,0.647 0.079,0.396 0.145,0.782 0.204,1.188 0.028,0.242 0.057,0.474 0.086,0.706 0.058,0.57 0.097,1.13 0.097,1.719 l -0.01,61.102 z" /></g></g></g></g></svg>