<svg id="Layer_1" data-name="Layer 1" xmlns="http://www.w3.org/2000/svg" viewBox="0 0 652.18 239.01"><defs><style>.cls-1{fill:#52c4cd;fill-rule:evenodd;}</style></defs><path class="cls-1" d="M286.91-191c3,.84,6,1.49,8.92,2.56a23.91,23.91,0,0,1,16.43,17.64,13.84,13.84,0,0,1,.32,2.3c.05,1.12,0,2.24,0,3.49a8.13,8.13,0,0,1-1.54.33c-5.32,0-10.65.08-16-.05a2.73,2.73,0,0,1-2.14-1.47,8.53,8.53,0,0,0-5.89-6.42,15.61,15.61,0,0,0-11.71-.09,7.08,7.08,0,0,0-3.58,3.93,3.71,3.71,0,0,0,3,4.23c4.84,1.95,9.73,3.77,14.61,5.62a49.32,49.32,0,0,1,18.16,10.49,20.69,20.69,0,0,1,.95,29.25,20.43,20.43,0,0,1-6.34,4.6,43.9,43.9,0,0,1-44.54-2.8,19.44,19.44,0,0,1-8.26-17.93h5.31c4,0,8,0,12,0a2.91,2.91,0,0,1,2.17.82,9,9,0,0,0,8.71,6.3,37.16,37.16,0,0,0,10.58-.37,5.33,5.33,0,0,0,3.64-3.39,5.52,5.52,0,0,0-2.55-4.25,72.89,72.89,0,0,0-9-4,201.63,201.63,0,0,1-19.55-8.52A20,20,0,0,1,249.86-169a22.21,22.21,0,0,1,15.3-19.28c2.95-1.17,6.11-1.8,9.17-2.68h12.58Zm-547.5,1.53,67.78,0c.4,0,.79.08,1.19.15v19.09h-24.26v58.61h-8.82c-3,0-5.94-.14-8.9,0-2.2.13-2.8-.65-2.79-2.78.08-16.59,0-33.19,0-49.79v-6.07h-24.25Zm480.3,54.37,16.87,23.44h-13.1a25.94,25.94,0,0,1-10.81-.45,26.59,26.59,0,0,1-6.83-8.61c-2.49-3.44-4.89-7-7.47-10.32a4.2,4.2,0,0,0-2.74-1.4c-2.6-.19-5.22-.06-8.33-.06v20.66H167.19v-77.53c.78,0,1.6-.15,2.43-.16,12.39,0,24.78-.11,37.17,0A26.28,26.28,0,0,1,231-176.81c7.4,12.65,4.93,33.35-10.32,41a7.25,7.25,0,0,0-1,.75Zm-32.24-36.17v20.36c6.1,0,12,.06,17.92,0a9.08,9.08,0,0,0,9.84-8.25,9.74,9.74,0,0,0,0-1.21A9.18,9.18,0,0,0,207.87-171a9.56,9.56,0,0,0-1.85-.15C200-171.47,193.84-171.26,187.47-171.26Zm-306.56,36.13,16.76,23.25c-1,.1-1.6.21-2.23.21-6.48,0-13-.06-19.39,0a4.27,4.27,0,0,1-4-2.14c-4-5.71-8.08-11.29-12-17a3.56,3.56,0,0,0-3.42-1.8c-2.59.11-5.19,0-8,0v20.68H-171.4V-189.3a17.85,17.85,0,0,1,1.92-.2c12.66,0,25.32-.15,38,0a26.16,26.16,0,0,1,23.76,12.63c6.85,11.47,5.82,33-10.54,41.13A6.44,6.44,0,0,0-119.09-135.13Zm-32.47-36.12c0,6.53,0,12.73.06,18.92a2.2,2.2,0,0,0,1.44,1.56c6.09,0,12.21.16,18.28-.32a9.14,9.14,0,0,0,8.48-9.77c0-.17,0-.35,0-.53a9.1,9.1,0,0,0-8.38-9.78c-.21,0-.43,0-.64,0C-138.62-171.47-144.89-171.25-151.56-171.25Zm298.46,40v19.42c-.86.06-1.62.15-2.38.15q-27.63,0-55.26.05c-2.05,0-2.91-.38-2.91-2.67.08-24.31.05-48.62.06-72.93,0-.67.11-1.35.17-2.15h60.24v19.07c-.87,0-1.79.11-2.71.11-11.53,0-23.05.06-34.58,0-2.14,0-3,.54-2.81,2.74.18,2.65,0,5.31,0,8.26h32.83v18.34H107v9.64H146.9Zm184.56,19.42V-189.3h60.08v19h-39.6v10.95c1,0,2,.12,2.9.12,9.08,0,18.16.06,27.24,0,2.05,0,2.76.55,2.69,2.64-.15,4.41-.15,8.83,0,13.23.08,2.13-.71,2.63-2.72,2.61-9-.1-18,0-27,0H352v9.59h39.62v19.37Zm-421.12.19c1.54-3.85,2.86-7.21,4.22-10.53q13.35-32.67,26.69-65.33a2.81,2.81,0,0,1,3.1-2q8,.15,16,0A2.44,2.44,0,0,1-37-187.75q15,36.9,30,73.77c.25.61.37,1.28.67,2.35h-9.88c-3.23,0-6.47-.12-9.68,0A2.77,2.77,0,0,1-29-113.85a79.77,79.77,0,0,0-3-7.74,2.76,2.76,0,0,0-2-1.4q-13.87-.14-27.76,0a2.81,2.81,0,0,0-2,1.45c-1.18,2.69-2.07,5.48-3.25,8.19A2.9,2.9,0,0,1-69-111.72c-6.66.11-13.38.06-20.69.06Zm33.36-29.68h16.92l-8.41-22.49Zm42.11-48.18c7.07,0,13.94-.05,20.81.09a3.32,3.32,0,0,1,1.91,2Q17-165.23,25.31-143c.61,1.61,1.24,3.2,2.07,5.35,1.92-5,3.65-9.49,5.37-14,4.52-11.87,9.07-23.74,13.52-35.65a2.8,2.8,0,0,1,3.12-2.26c6.45.13,12.9,0,19.81,0-1.84,4.56-3.53,8.78-5.24,13q-12.76,31.23-25.5,62.45a3.38,3.38,0,0,1-3.84,2.49c-5.06-.16-10.13-.11-15.19,0a2.57,2.57,0,0,1-2.86-1.92q-15-37-30.16-74C-13.81-188.08-13.93-188.67-14.19-189.5ZM361.5-76.28v48.67H348.91V-48.74l-.56-.14-7,14.28a2.5,2.5,0,0,0-.09.25c-2.46,5.51-4.05,6.39-10,5.14a3.82,3.82,0,0,1-2-2.06c-2.89-5.8-5.69-11.65-9-17.47v21.1H307.51V-76.27c4,0,8.1-.09,12.15.09a3.61,3.61,0,0,1,1.66,2c4.05,8.71,8.05,17.42,12.07,26.17.24.54.53,1.08,1,2a18.85,18.85,0,0,0,1.13-1.81c4.07-8.79,8.17-17.58,12.15-26.39A3,3,0,0,1,351-76.31c3.39.12,6.8,0,10.5,0Zm29.82,48.6H378.76v-48.6h12.56v48.6ZM288-43.22a5.83,5.83,0,0,1-2.69,6.78,124.63,124.63,0,0,1-22,10.24A62.93,62.93,0,0,1,221.39-27c-8.57-3-16.86-6.79-25.2-10.38a5,5,0,0,0-5.33.15,86.87,86.87,0,0,1-28.4,11.62A62.68,62.68,0,0,1,124.12-31c-4.34-1.92-8.53-4.19-12.69-6.47a3.2,3.2,0,0,0-3.75,0c-2.31,1.58-4.64,3.15-6.94,4.75A127.69,127.69,0,0,1,49.41-12.42a5.64,5.64,0,0,0-4.43,4A77.34,77.34,0,0,1,6,41.87,114.15,114.15,0,0,1-9.59,47.45c-.43.15-.84.37-1.26.56H-22.1a98.09,98.09,0,0,1-10.63-3.92A19.2,19.2,0,0,1-43.91,19.34a19,19,0,0,1,1.54-3.18,46.39,46.39,0,0,1,17-17.47A128.28,128.28,0,0,1,16.93-17.92q8.46-1.92,17-3.41a2.24,2.24,0,0,0,2.27-2.2,1.21,1.21,0,0,0,0-.19c.28-4.37.6-8.74.95-13.94C29.05-27.43,20-20,6.69-22.59s-19.48-12.32-23.28-24.3a73.21,73.21,0,0,1-24.25,15.5,49.63,49.63,0,0,1-18.38,3.82A17.7,17.7,0,0,1-78.75-43.21v-.06a1.48,1.48,0,0,0-.65.19,72.43,72.43,0,0,1-42.32,20,51.67,51.67,0,0,1-27.43-2.26A45.58,45.58,0,0,1-173.9-48.7c-1.44,1.35-2.8,2.67-4.22,3.93a86.88,86.88,0,0,1-59.42,23.2,34,34,0,0,1-8.33-1.1A16.65,16.65,0,0,1-259.6-41.81a16,16,0,0,1,.66-2.65,39.28,39.28,0,0,1,22.25-26,18.49,18.49,0,0,1,19.41,1.65,9.17,9.17,0,0,1,4.3,7.92A6.18,6.18,0,0,1-217-55.28a5.28,5.28,0,0,1-6.14-1.89,3.09,3.09,0,0,1-.33-.39c-2.77-5-6.33-5.3-11.79-1.47a30.54,30.54,0,0,0-10.25,12c-4.09,8.62,0,14.94,9.64,14.72a77.89,77.89,0,0,0,18.34-2.79A73.27,73.27,0,0,0-178.81-61a20.56,20.56,0,0,1,4.62-4.31,5.34,5.34,0,0,1,7.48,1A5.41,5.41,0,0,1-166-63a27,27,0,0,1,1.49,4.89A31.29,31.29,0,0,0-135-34.18a70.52,70.52,0,0,0,40.23-11A48,48,0,0,0-77-69.28h-56.71a6,6,0,0,1-7.08-4.6,5.61,5.61,0,0,1-.1-1.87,5.39,5.39,0,0,1,4.7-5.1,25.2,25.2,0,0,1,2.88-.1c19.29.06,38.56.07,57.84.22a4,4,0,0,0,3.92-2.88,58.17,58.17,0,0,1,3.43-8.62,5.72,5.72,0,0,1,7-3.77,6.74,6.74,0,0,1,4,7.47c-.53,2.62-1.45,5.16-2.39,8.41,5.32,0,10.45-.06,15.61,0a5.75,5.75,0,0,1,6.52,4.86,5.88,5.88,0,0,1,0,1.39,5.65,5.65,0,0,1-5.84,5.41c-6-.17-11.95-.27-17.89-.5a2.24,2.24,0,0,0-2.72,1.62,2.34,2.34,0,0,0-.07.45c-1.11,6.48-2.49,13-3.38,19.44a7,7,0,0,0,5.84,8.06,7.73,7.73,0,0,0,1.44.08,41.53,41.53,0,0,0,12.29-2.28A61.07,61.07,0,0,0-20.8-59.86a32.43,32.43,0,0,1,4.26-4.35,5.7,5.7,0,0,1,8.06-.16,5.74,5.74,0,0,1,1.68,3.2c.64,2.33.41,4.91,1.07,7.24A50.23,50.23,0,0,0-1.65-42.34,14.94,14.94,0,0,0,18.16-35a15,15,0,0,0,6.18-5.27,90.67,90.67,0,0,0,8.24-14.17C34-57.06,34.89-60,36.42-62.52a4.76,4.76,0,0,1,6.12-2.82,4.81,4.81,0,0,1,3,3.32,33.63,33.63,0,0,1,2.41,9.73A113.85,113.85,0,0,1,48.21-25a11.47,11.47,0,0,0,.14,1.3c6.51-1.77,12.95-3.26,19.2-5.26A111.77,111.77,0,0,0,98.3-45.23c.35-.24.69-.5,1-.74,8.3-5.8,11.26-5.73,20-.53a63.07,63.07,0,0,0,34,10.28,56.94,56.94,0,0,0,25.24-7.36,75,75,0,0,0,8.82-5.09,10.42,10.42,0,0,1,11.5-.55c6.83,3.23,13.71,6.39,20.72,9.19a60.11,60.11,0,0,0,54.53-3.57c1.78-1,3.61-2,5.41-3a5.9,5.9,0,0,1,8,2.28,5.88,5.88,0,0,1,.47,1.09h0ZM33.24-9.42c-4.52.92-8.79,1.61-12.94,2.69C13.82-5,7.32-3.28.93-1.26A76.29,76.29,0,0,0-21.19,9.5,31.6,31.6,0,0,0-31.7,21.67a8.72,8.72,0,0,0,2.89,12,8.6,8.6,0,0,0,2.71,1.08,25.76,25.76,0,0,0,13.35.77,54.24,54.24,0,0,0,33-19.7A66.94,66.94,0,0,0,33.24-9.42Zm-197-66.18a5.64,5.64,0,0,1-5.54,5.74,5.64,5.64,0,0,1-5.74-5.53v-.32a5.46,5.46,0,0,1,5.18-5.75,5,5,0,0,1,.55,0,5.35,5.35,0,0,1,5.57,5.12A6.1,6.1,0,0,1-163.81-75.6Z" transform="translate(260.59 191)"/></svg>