<?xml version="1.0" encoding="UTF-8" standalone="no"?>
<!-- Created with Inkscape (http://www.inkscape.org/) -->

<svg
   xmlns:dc="http://purl.org/dc/elements/1.1/"
   xmlns:cc="http://creativecommons.org/ns#"
   xmlns:rdf="http://www.w3.org/1999/02/22-rdf-syntax-ns#"
   xmlns:svg="http://www.w3.org/2000/svg"
   xmlns="http://www.w3.org/2000/svg"
   xmlns:sodipodi="http://sodipodi.sourceforge.net/DTD/sodipodi-0.dtd"
   xmlns:inkscape="http://www.inkscape.org/namespaces/inkscape"
   width="1000"
   height="140.71249"
   id="svg2"
   version="1.1"
   inkscape:version="0.48.5 r10040"
   sodipodi:docname="New document 1">
  <defs
     id="defs4">
    <clipPath
       clipPathUnits="userSpaceOnUse"
       id="clipPath4485">
      <path
         inkscape:connector-curvature="0"
         d="m 359.915,463.347 112.216,0 0,18.886 -112.216,0 0,-18.886 z"
         id="path4487" />
    </clipPath>
    <clipPath
       clipPathUnits="userSpaceOnUse"
       id="clipPath4469">
      <path
         inkscape:connector-curvature="0"
         d="m 359.915,466.637 112.216,0 0,15.595 -112.216,0 0,-15.595 z"
         id="path4471" />
    </clipPath>
    <clipPath
       clipPathUnits="userSpaceOnUse"
       id="clipPath4417">
      <path
         inkscape:connector-curvature="0"
         d="m 359.915,463.347 112.216,0 0,18.886 -112.216,0 0,-18.886 z"
         id="path4419" />
    </clipPath>
  </defs>
  <sodipodi:namedview
     id="base"
     pagecolor="#ffffff"
     bordercolor="#666666"
     borderopacity="1.0"
     inkscape:pageopacity="0.0"
     inkscape:pageshadow="2"
     inkscape:zoom="0.4055506"
     inkscape:cx="731.1177"
     inkscape:cy="-269.80648"
     inkscape:document-units="px"
     inkscape:current-layer="layer1"
     showgrid="false"
     fit-margin-top="0"
     fit-margin-left="0"
     fit-margin-right="0"
     fit-margin-bottom="0"
     inkscape:window-width="998"
     inkscape:window-height="1036"
     inkscape:window-x="913"
     inkscape:window-y="-19"
     inkscape:window-maximized="0" />
  <metadata
     id="metadata7">
    <rdf:RDF>
      <cc:Work
         rdf:about="">
        <dc:format>image/svg+xml</dc:format>
        <dc:type
           rdf:resource="http://purl.org/dc/dcmitype/StillImage" />
        <dc:title></dc:title>
      </cc:Work>
    </rdf:RDF>
  </metadata>
  <g
     inkscape:label="Layer 1"
     inkscape:groupmode="layer"
     id="layer1"
     transform="translate(-309.86592,-201.39644)">
    <g
       id="g4413"
       transform="matrix(9.0230971,0,0,-9.0230971,-2937.6911,4552.6226)">
      <g
         id="g4415"
         clip-path="url(#clipPath4417)">
        <g
           id="g4421"
           transform="translate(465.302,468.2729)">
          <path
             d="M 0,0 C -0.046,0.608 -0.092,1.188 -0.134,1.769 -0.148,1.954 -0.141,2.128 0.103,2.158 0.318,2.185 0.395,2.063 0.485,1.885 0.706,1.447 0.912,0.983 1.225,0.615 1.464,0.335 1.835,0.129 2.187,-0.008 2.673,-0.196 3.186,0.008 3.447,0.392 3.718,0.789 3.735,1.374 3.381,1.741 3.06,2.075 2.648,2.324 2.26,2.588 1.879,2.849 1.443,3.038 1.092,3.333 -0.331,4.528 0.03,6.568 1.773,7.224 2.772,7.599 3.776,7.53 4.762,7.163 4.87,7.123 5.005,7.002 5.024,6.9 5.121,6.366 5.196,5.827 5.248,5.287 5.256,5.209 5.096,5.05 5.009,5.047 4.903,5.042 4.733,5.136 4.691,5.232 4.493,5.68 4.264,6.101 3.876,6.415 3.43,6.776 2.875,6.831 2.437,6.566 1.887,6.234 1.757,5.545 2.208,5.091 2.471,4.827 2.814,4.639 3.133,4.436 3.601,4.139 4.108,3.897 4.549,3.565 5.78,2.641 5.907,0.168 3.837,-0.549 2.655,-0.958 1.489,-0.891 0.333,-0.332 0.26,-0.588 0.069,-0.571 -0.161,-0.569 c -1.266,0.01 -2.533,-0.003 -3.799,-0.018 -0.189,-0.002 -0.304,0.059 -0.327,0.244 -0.022,0.19 0.055,0.303 0.264,0.341 0.465,0.085 0.52,0.224 0.244,0.616 -0.55,0.785 -1.109,1.563 -1.666,2.343 -0.036,0.05 -0.068,0.116 -0.119,0.14 C -5.76,3.187 -5.975,3.348 -6.162,3.323 -6.416,3.289 -6.352,2.998 -6.353,2.801 -6.358,2.224 -6.361,1.647 -6.346,1.07 c 0.019,-0.797 0.18,-0.976 0.963,-1.065 0.212,-0.024 0.291,-0.111 0.284,-0.312 -0.007,-0.203 -0.087,-0.279 -0.308,-0.277 -1.307,0.012 -2.614,0.014 -3.922,0.001 -0.215,-0.002 -0.315,0.065 -0.327,0.262 -0.011,0.187 0.057,0.322 0.278,0.322 0.082,0.001 0.163,0.022 0.244,0.037 0.49,0.094 0.648,0.262 0.69,0.759 0.025,0.297 0.044,0.596 0.045,0.894 0.003,2.928 0.002,5.855 0,8.783 0,0.195 -0.027,0.39 -0.025,0.585 0.005,0.42 -0.165,0.723 -0.533,0.941 -0.12,0.071 -0.236,0.239 -0.247,0.372 -0.007,0.074 0.193,0.197 0.32,0.247 0.71,0.276 1.426,0.535 2.138,0.802 0.341,0.128 0.442,0.054 0.44,-0.315 C -6.324,10.2 -6.336,7.294 -6.361,4.388 -6.364,4.079 -6.241,4 -5.959,3.999 c 0.367,-0.002 0.679,0.132 0.918,0.378 0.554,0.567 1.089,1.153 1.612,1.748 0.21,0.24 0.138,0.377 -0.181,0.431 -0.122,0.021 -0.246,0.025 -0.369,0.034 -0.218,0.015 -0.313,0.14 -0.295,0.348 0.016,0.191 0.135,0.239 0.319,0.246 1.111,0.043 2.221,0.104 3.332,0.143 C -0.538,7.33 -0.38,7.213 -0.376,7.144 -0.368,7.021 -0.451,6.892 -0.497,6.767 -0.499,6.762 -0.516,6.76 -0.526,6.76 -1.719,6.699 -2.445,5.851 -3.252,5.142 -3.461,4.959 -3.661,4.765 -3.862,4.573 -4,4.441 -4.028,4.297 -3.903,4.135 -3.011,2.977 -2.129,1.81 -1.224,0.663 -0.918,0.274 -0.493,0.052 0,0"
             style="fill:#e51d38;fill-opacity:1;fill-rule:evenodd;stroke:none"
             id="path4423"
             inkscape:connector-curvature="0" />
        </g>
        <g
           id="g4425"
           transform="translate(392.5473,471.1177)">
          <path
             d="M 0,0 C 0.507,1.183 0.989,2.285 1.451,3.395 2.064,4.868 2.665,6.345 3.263,7.823 3.613,8.688 3.56,8.783 2.66,8.992 2.6,9.006 2.515,9.005 2.487,9.044 2.407,9.155 2.311,9.278 2.296,9.405 2.278,9.561 2.4,9.612 2.565,9.611 3.791,9.604 5.017,9.604 6.243,9.608 6.4,9.608 6.512,9.574 6.513,9.397 6.513,9.245 6.538,9.072 6.314,9.043 6.304,9.042 6.294,9.038 6.284,9.037 5.284,8.958 4.754,8.333 4.364,7.476 2.726,3.88 1.005,0.322 -0.334,-3.403 c -0.079,-0.221 -0.213,-0.295 -0.411,-0.284 -0.172,0.008 -0.335,0.035 -0.405,0.256 -0.894,2.842 -2.198,5.522 -3.297,8.284 -0.4,1.003 -0.848,1.988 -1.248,2.991 -0.278,0.695 -0.74,1.123 -1.5,1.198 -0.051,0.005 -0.127,10e-4 -0.146,0.031 -0.067,0.102 -0.156,0.22 -0.151,0.328 0.004,0.072 0.152,0.195 0.236,0.196 0.494,0.008 0.989,-0.024 1.483,-0.022 1.041,0.004 2.082,0.02 3.123,0.033 0.179,0.003 0.361,0.029 0.383,-0.231 C -2.248,9.139 -2.377,9.051 -2.589,9.012 -2.78,8.977 -2.967,8.917 -3.156,8.865 -3.433,8.789 -3.516,8.614 -3.413,8.348 -3.118,7.58 -2.834,6.808 -2.523,6.046 -1.764,4.189 -0.993,2.337 -0.225,0.483 -0.167,0.342 -0.097,0.206 0,0"
             style="fill:#e51d38;fill-opacity:1;fill-rule:evenodd;stroke:none"
             id="path4427"
             inkscape:connector-curvature="0" />
        </g>
        <g
           id="g4429"
           transform="translate(435.6385,472.9161)">
          <path
             d="m 0,0 c -0.237,-0.516 -0.449,-0.958 -0.644,-1.409 -0.539,-1.246 -1.074,-2.495 -1.6,-3.746 -0.079,-0.186 -0.179,-0.284 -0.385,-0.284 -0.224,-0.001 -0.35,0.087 -0.441,0.301 -0.886,2.083 -1.791,4.159 -2.671,6.244 -0.213,0.506 -0.546,0.809 -1.085,0.886 -0.222,0.032 -0.324,0.138 -0.298,0.375 0.026,0.238 0.176,0.23 0.353,0.229 1.195,-0.004 2.389,-0.005 3.583,-10e-4 0.168,10e-4 0.309,0.004 0.331,-0.215 0.02,-0.203 -0.036,-0.332 -0.252,-0.387 -0.739,-0.188 -0.732,-0.194 -0.437,-0.908 0.457,-1.103 0.909,-2.208 1.364,-3.311 0.038,-0.092 0.084,-0.181 0.16,-0.34 0.239,0.537 0.457,1.008 0.66,1.486 0.243,0.567 0.494,1.132 0.704,1.712 0.258,0.714 0.043,1.093 -0.685,1.293 -0.119,0.033 -0.265,0.03 -0.351,0.102 -0.1,0.082 -0.194,0.223 -0.206,0.347 -0.018,0.173 0.122,0.228 0.294,0.223 C -0.792,2.577 0.021,2.558 0.835,2.553 1.246,2.551 1.658,2.577 2.069,2.596 2.238,2.603 2.379,2.593 2.404,2.377 2.428,2.166 2.35,2.049 2.135,2.008 1.339,1.856 1.33,1.811 1.657,1.03 2.125,-0.09 2.62,-1.199 3.106,-2.312 3.133,-2.375 3.174,-2.433 3.246,-2.558 3.487,-1.98 3.719,-1.46 3.922,-0.928 4.216,-0.16 4.501,0.612 4.766,1.39 4.881,1.725 4.799,1.83 4.454,1.911 4.284,1.951 4.111,1.981 3.939,2.01 3.74,2.043 3.658,2.158 3.682,2.355 3.704,2.545 3.806,2.602 3.997,2.6 4.923,2.59 5.849,2.592 6.775,2.596 6.946,2.597 7.087,2.588 7.104,2.373 7.119,2.189 7.08,2.029 6.87,2.006 6.19,1.932 5.865,1.475 5.626,0.903 4.79,-1.101 3.946,-3.101 3.112,-5.106 3.029,-5.305 2.941,-5.441 2.698,-5.441 2.451,-5.44 2.337,-5.317 2.245,-5.104 1.55,-3.499 0.845,-1.898 0.143,-0.296 0.111,-0.221 0.072,-0.149 0,0"
             style="fill:#e51d38;fill-opacity:1;fill-rule:evenodd;stroke:none"
             id="path4431"
             inkscape:connector-curvature="0" />
        </g>
        <g
           id="g4433"
           transform="translate(428.7797,471.4034)">
          <path
             d="M 0,0 C 0,-0.711 -0.031,-1.424 0.008,-2.133 0.052,-2.931 0.181,-3.029 0.966,-3.136 1.07,-3.15 1.212,-3.22 1.253,-3.304 1.364,-3.536 1.207,-3.71 0.947,-3.709 c -1.277,0.007 -2.553,0.009 -3.83,0 -0.177,-0.002 -0.285,0.027 -0.292,0.217 -0.006,0.167 -0.018,0.321 0.224,0.362 0.716,0.118 0.833,0.198 0.851,0.926 0.034,1.357 0.035,2.718 -0.016,4.075 -0.026,0.695 -0.48,1.137 -1.085,1.257 C -3.959,3.279 -4.676,3.016 -5.008,2.434 -5.112,2.252 -5.196,2.029 -5.197,1.824 -5.202,0.434 -5.2,-0.958 -5.161,-2.347 c 0.016,-0.553 0.211,-0.719 0.768,-0.776 0.248,-0.025 0.32,-0.132 0.302,-0.356 -0.017,-0.235 -0.157,-0.225 -0.345,-0.223 -1.257,0.007 -2.513,0.002 -3.769,-0.012 -0.192,-0.002 -0.303,0.043 -0.318,0.236 -0.013,0.177 0.017,0.314 0.247,0.348 0.869,0.131 0.989,0.242 1.006,1.12 0.025,1.35 0.006,2.7 0.009,4.05 0.001,0.439 -0.16,0.77 -0.565,0.985 -0.099,0.052 -0.188,0.223 -0.185,0.336 0.003,0.086 0.145,0.201 0.25,0.246 0.716,0.311 1.437,0.611 2.161,0.904 0.102,0.041 0.245,0.072 0.333,0.03 0.057,-0.027 0.066,-0.192 0.068,-0.296 0.006,-0.216 -0.017,-0.432 -0.011,-0.648 0.006,-0.205 0.102,-0.286 0.301,-0.171 0.268,0.155 0.536,0.309 0.805,0.46 0.619,0.347 1.288,0.506 1.99,0.442 C -0.839,4.21 -0.08,3.377 -0.028,2.041 -0.002,1.361 -0.024,0.68 -0.024,0 L 0,0 z"
             style="fill:#e51d38;fill-opacity:1;fill-rule:evenodd;stroke:none"
             id="path4435"
             inkscape:connector-curvature="0" />
        </g>
        <g
           id="g4437"
           transform="translate(414.219,471.7828)">
          <path
             d="M 0,0 C 0.033,-0.89 0.127,-1.799 0.614,-2.615 0.9,-3.094 1.287,-3.453 1.87,-3.516 2.667,-3.603 3.236,-3.209 3.538,-2.35 3.873,-1.396 3.894,-0.412 3.759,0.579 3.675,1.205 3.512,1.811 3.168,2.351 2.864,2.826 2.457,3.153 1.869,3.18 1.232,3.208 0.699,2.823 0.385,2.116 0.09,1.453 0.03,0.746 0,0 m -2.286,-0.515 c 0.019,2.101 1.017,3.57 2.699,4.191 C 2.13,4.31 4.086,3.869 5.203,2.578 6.018,1.635 6.234,0.512 6.099,-0.69 5.798,-3.365 3.577,-4.544 1.227,-4.269 c -1.408,0.164 -2.51,0.828 -3.143,2.147 -0.276,0.577 -0.381,1.192 -0.37,1.607"
             style="fill:#e51d38;fill-opacity:1;fill-rule:evenodd;stroke:none"
             id="path4439"
             inkscape:connector-curvature="0" />
        </g>
        <g
           id="g4441"
           transform="translate(447.9383,471.3395)">
          <path
             d="M 0,0 C -0.023,0.8 -0.107,1.576 -0.42,2.308 -0.496,2.487 -0.586,2.663 -0.692,2.826 -1.428,3.952 -2.769,3.886 -3.389,2.691 -3.714,2.064 -3.808,1.377 -3.824,0.685 c -0.025,-1.052 0.087,-2.085 0.688,-2.992 0.368,-0.556 0.889,-0.851 1.577,-0.767 0.627,0.076 0.97,0.495 1.204,1.031 C -0.07,-1.387 -0.028,-0.687 0,0 m -2.009,-3.864 c -1.118,0.013 -2.136,0.308 -2.966,1.097 -0.994,0.946 -1.266,2.152 -1.116,3.454 0.198,1.711 1.131,2.918 2.769,3.459 C -1.66,4.696 -0.09,4.448 1.202,3.188 2.176,2.238 2.408,1.017 2.255,-0.29 1.97,-2.733 0.034,-3.893 -2.009,-3.864"
             style="fill:#e51d38;fill-opacity:1;fill-rule:evenodd;stroke:none"
             id="path4443"
             inkscape:connector-curvature="0" />
        </g>
        <g
           id="g4445"
           transform="translate(404.5877,467.457)">
          <path
             d="M 0,0 C -0.617,0.017 -1.205,0.125 -1.773,0.376 -2.12,0.53 -2.316,0.768 -2.35,1.139 -2.396,1.62 -2.434,2.101 -2.475,2.583 c -0.016,0.186 -0.006,0.357 0.234,0.39 0.212,0.03 0.297,-0.084 0.384,-0.267 0.194,-0.407 0.4,-0.812 0.651,-1.185 0.252,-0.375 0.622,-0.625 1.072,-0.735 0.485,-0.12 0.987,0.049 1.24,0.415 0.268,0.39 0.298,0.956 -0.041,1.324 -0.306,0.333 -0.707,0.582 -1.081,0.847 -0.476,0.337 -1.022,0.594 -1.441,0.989 -1.02,0.96 -0.861,2.603 0.313,3.368 C 0.014,8.483 1.253,8.411 2.497,7.946 2.578,7.916 2.673,7.81 2.686,7.728 2.771,7.182 2.844,6.633 2.894,6.083 2.9,6.011 2.749,5.858 2.676,5.861 2.564,5.867 2.418,5.948 2.353,6.043 2.121,6.379 1.955,6.766 1.694,7.075 1.382,7.444 0.955,7.628 0.45,7.517 0.045,7.427 -0.237,7.191 -0.359,6.793 -0.476,6.406 -0.352,6.064 -0.056,5.819 0.218,5.591 0.532,5.408 0.84,5.224 1.167,5.029 1.52,4.878 1.838,4.671 2.844,4.015 3.278,3.012 3.042,1.947 2.822,0.958 2.026,0.277 0.858,0.09 0.574,0.045 0.286,0.029 0,0"
             style="fill:#e51d38;fill-opacity:1;fill-rule:evenodd;stroke:none"
             id="path4447"
             inkscape:connector-curvature="0" />
        </g>
        <g
           id="g4449"
           transform="translate(453.2562,471.2733)">
          <path
             d="m 0,0 c 0,-0.68 -0.011,-1.36 0.003,-2.039 0.013,-0.657 0.19,-0.839 0.828,-0.913 0.164,-0.019 0.328,-0.047 0.491,-0.05 0.22,-0.005 0.291,-0.13 0.281,-0.32 -0.012,-0.203 -0.127,-0.271 -0.331,-0.269 -1.42,0.008 -2.839,0.002 -4.259,0.017 -0.09,10e-4 -0.257,0.144 -0.253,0.213 0.008,0.122 0.097,0.316 0.191,0.342 0.904,0.256 0.956,0.298 0.963,1.239 0.009,1.339 -0.001,2.678 0.004,4.017 0.002,0.4 -0.152,0.697 -0.511,0.878 -0.158,0.081 -0.306,0.19 -0.228,0.376 0.05,0.115 0.185,0.22 0.306,0.274 0.674,0.303 1.36,0.582 2.035,0.883 0.327,0.146 0.428,0.093 0.423,-0.27 C -0.06,4.162 -0.079,3.946 -0.071,3.73 -0.067,3.648 -0.026,3.532 0.035,3.498 0.088,3.468 0.206,3.515 0.273,3.56 0.582,3.765 0.863,4.023 1.192,4.182 1.497,4.328 1.849,4.439 2.183,4.445 2.641,4.454 2.982,4.145 3.083,3.774 3.197,3.353 3.042,2.849 2.704,2.606 2.329,2.338 1.93,2.302 1.514,2.522 1.296,2.637 1.082,2.767 0.852,2.847 0.407,3.003 0.13,2.865 0.065,2.403 -0.005,1.907 0.003,1.399 -0.013,0.896 -0.023,0.598 -0.015,0.299 -0.015,0 L 0,0 z"
             style="fill:#e51d38;fill-opacity:1;fill-rule:evenodd;stroke:none"
             id="path4451"
             inkscape:connector-curvature="0" />
        </g>
        <g
           id="g4453"
           transform="translate(408.9722,471.4082)">
          <path
             d="M 0,0 C 0,0.628 -0.005,1.257 0.002,1.885 0.007,2.381 -0.11,2.797 -0.603,3.038 -0.691,3.08 -0.771,3.258 -0.755,3.356 -0.74,3.452 -0.609,3.559 -0.505,3.605 0.22,3.918 0.955,4.211 1.68,4.524 1.971,4.65 2.093,4.58 2.09,4.247 2.072,2.322 2.052,0.396 2.037,-1.529 2.035,-1.765 2.05,-2.002 2.076,-2.237 2.147,-2.895 2.262,-3.021 2.919,-3.124 3.11,-3.154 3.229,-3.203 3.224,-3.42 3.218,-3.632 3.154,-3.72 2.909,-3.717 c -1.255,0.018 -2.511,0.015 -3.766,0.006 -0.181,-0.002 -0.31,0.002 -0.325,0.214 -0.014,0.188 0.002,0.329 0.252,0.369 0.743,0.119 0.871,0.25 0.907,1.028 0.033,0.698 0.007,1.4 0.007,2.1 L 0,0 z"
             style="fill:#e51d38;fill-opacity:1;fill-rule:evenodd;stroke:none"
             id="path4455"
             inkscape:connector-curvature="0" />
        </g>
        <g
           id="g4457"
           transform="translate(399.9983,467.6941)">
          <path
             d="m 0,0 c -0.669,0 -1.337,0.006 -2.006,-0.004 -0.179,-0.003 -0.28,0.047 -0.286,0.232 -0.005,0.156 -0.016,0.32 0.206,0.347 0.091,0.012 0.182,0.031 0.272,0.051 0.46,0.099 0.61,0.246 0.65,0.725 0.038,0.461 0.048,0.924 0.052,1.387 0.007,0.948 -0.005,1.895 0.005,2.843 0.005,0.51 -0.112,0.931 -0.615,1.178 -0.084,0.041 -0.149,0.218 -0.139,0.324 0.009,0.086 0.132,0.19 0.228,0.231 0.726,0.312 1.461,0.602 2.186,0.916 C 0.867,8.366 0.984,8.302 0.98,7.949 0.961,6.055 0.941,4.161 0.926,2.266 0.925,2.01 0.939,1.752 0.965,1.496 1.037,0.813 1.145,0.691 1.821,0.59 2.046,0.556 2.125,0.465 2.113,0.251 2.103,0.058 2.022,-0.01 1.82,-0.005 1.214,0.009 0.607,0 0,0"
             style="fill:#e51d38;fill-opacity:1;fill-rule:evenodd;stroke:none"
             id="path4459"
             inkscape:connector-curvature="0" />
        </g>
        <g
           id="g4461"
           transform="translate(399.8869,477.5631)">
          <path
             d="M 0,0 C -0.702,0.002 -1.183,0.485 -1.177,1.182 -1.172,1.847 -0.671,2.335 0.006,2.337 0.698,2.338 1.204,1.84 1.201,1.16 1.198,0.469 0.709,-0.002 0,0"
             style="fill:#e51d38;fill-opacity:1;fill-rule:evenodd;stroke:none"
             id="path4463"
             inkscape:connector-curvature="0" />
        </g>
      </g>
    </g>
    <g
       id="g4465"
       transform="matrix(9.0230971,0,0,-9.0230971,-2937.6911,4552.6226)">
      <g
         id="g4467"
         clip-path="url(#clipPath4469)">
        <g
           id="g4473"
           transform="translate(409.9767,477.5631)">
          <path
             d="M 0,0 C -0.705,0.001 -1.186,0.479 -1.183,1.175 -1.18,1.844 -0.686,2.333 -0.007,2.337 0.684,2.341 1.194,1.845 1.195,1.168 1.196,0.481 0.702,-0.001 0,0"
             style="fill:#e51d38;fill-opacity:1;fill-rule:evenodd;stroke:none"
             id="path4475"
             inkscape:connector-curvature="0" />
        </g>
        <g
           id="g4477"
           transform="translate(384.489,475.9273)">
          <path
             d="m 0,0 c -0.153,0.121 0.04,0.261 -0.403,0.283 -0.443,0.023 -0.467,0.402 -0.467,0.402 0,0 0.089,0.145 -0.427,0.137 -0.379,0.402 -0.91,0.837 -1.281,0.918 -0.37,0.081 -0.225,0.387 -0.386,0.491 -0.162,0.105 -0.395,-0.064 -0.54,0.008 -0.305,0.199 -0.33,0.653 -1.273,0.927 -0.137,0.113 -0.499,0.443 -0.636,0.459 -0.137,0.016 -0.105,0.193 0.201,0.064 0.306,-0.128 0.355,-0.177 0.411,-0.306 0.056,-0.129 0.33,0.065 0.451,0 0.121,-0.064 1.796,-0.499 2.376,-0.837 0.226,-0.057 0.298,0.024 0.162,0.112 -0.137,0.089 -0.363,0.121 -0.363,0.121 0,0 -0.177,0.21 -0.226,0.226 -0.048,0.016 -1.16,0.673 -1.546,0.731 -0.145,0.171 -0.129,0.251 -0.645,0.3 -0.29,0.241 -4.06,2.094 -8.893,2.265 0,0 -5.66,0.238 -10.88,-3.065 -0.246,-0.159 -0.198,-0.375 -0.208,-0.559 l 0.106,-4.457 c 0,0 -0.014,-0.379 0.279,-0.172 0.134,0.094 3.045,1.909 7.268,2.651 -1.438,-0.986 -2.383,-2.64 -2.383,-4.516 0,-3.022 2.451,-5.473 5.473,-5.473 3.023,0 5.474,2.451 5.474,5.473 0,1.773 -0.846,3.343 -2.152,4.344 l -3.09,-4.756 -0.137,5.236 c 2.791,0.048 5.914,-0.499 9.074,-2.207 0.142,0.008 0.1,0.137 0.1,0.137 0,0 0.002,0.161 0.171,0.064 0.169,-0.097 0.789,-0.452 0.789,-0.452 0,0 0.186,0.033 0.145,0.243 -0.04,0.209 0.089,0.129 -0.217,0.362 -0.421,0.322 -0.798,0.306 -0.629,0.693 0,0 0.818,-0.322 0.852,-0.314 0.035,0.008 0.159,0.04 0,0.25 -0.159,0.209 0.107,0.145 0.196,0.08 0.354,-0.04 1.2,-0.379 1.498,-0.515 0.089,0.048 0.105,0.153 0,0.265 -0.105,0.113 -3.448,1.773 -3.843,1.909 -0.133,0.095 0.125,0.137 0.186,0.017 0.06,-0.12 1.611,-0.685 2.006,-0.677 0.098,-0.005 0.008,-0.226 0.257,-0.234 0.25,-0.008 0.218,0.218 0.5,0.121 0.282,-0.097 0.862,-0.408 0.967,-0.466 0.104,-0.057 0.797,-0.259 0.91,-0.412 0.112,-0.153 0.225,-0.08 0.314,-0.072 0.088,0.008 0.169,-0.105 0.169,-0.105 l 0.193,-0.065 0.548,-0.426 c 0,0 0.169,-0.065 0.234,-0.009 C 0.749,-0.749 0.491,-0.25 0,0"
             style="fill:#000000;fill-opacity:1;fill-rule:evenodd;stroke:none"
             id="path4479"
             inkscape:connector-curvature="0" />
        </g>
      </g>
    </g>
  </g>
</svg>
