<?xml version="1.0" encoding="UTF-8" standalone="no"?>
<!-- Created with Inkscape (http://www.inkscape.org/) -->

<svg
   xmlns:dc="http://purl.org/dc/elements/1.1/"
   xmlns:cc="http://creativecommons.org/ns#"
   xmlns:rdf="http://www.w3.org/1999/02/22-rdf-syntax-ns#"
   xmlns:svg="http://www.w3.org/2000/svg"
   xmlns="http://www.w3.org/2000/svg"
   xmlns:sodipodi="http://sodipodi.sourceforge.net/DTD/sodipodi-0.dtd"
   xmlns:inkscape="http://www.inkscape.org/namespaces/inkscape"
   id="svg3336"
   version="1.1"
   inkscape:version="0.91 r13725"
   xml:space="preserve"
   width="451.4425"
   height="76.823753"
   viewBox="0 0 451.4425 76.823754"
   sodipodi:docname="WeatherGard Logo.svg"><title
     id="title3394">WeatherGardLogo</title><metadata
     id="metadata3342"><rdf:RDF><cc:Work
         rdf:about=""><dc:format>image/svg+xml</dc:format><dc:type
           rdf:resource="http://purl.org/dc/dcmitype/StillImage" /><dc:title>WeatherGardLogo</dc:title></cc:Work></rdf:RDF></metadata><defs
     id="defs3340"><clipPath
       clipPathUnits="userSpaceOnUse"
       id="clipPath3358"><path
         d="m 0,0 345.154,0 0,45.459 L 0,45.459 0,0 Z"
         id="path3360"
         inkscape:connector-curvature="0" /></clipPath></defs><sodipodi:namedview
     pagecolor="#ffffff"
     bordercolor="#666666"
     borderopacity="1"
     objecttolerance="10"
     gridtolerance="10"
     guidetolerance="10"
     inkscape:pageopacity="0"
     inkscape:pageshadow="2"
     inkscape:window-width="1280"
     inkscape:window-height="660"
     id="namedview3338"
     showgrid="false"
     inkscape:zoom="2.6075317"
     inkscape:cx="127.27142"
     inkscape:cy="28.411875"
     inkscape:window-x="-8"
     inkscape:window-y="-8"
     inkscape:window-maximized="1"
     inkscape:current-layer="g3344" /><g
     id="g3344"
     inkscape:groupmode="layer"
     inkscape:label="WeatherGard-logo-blue"
     transform="matrix(1.25,0,0,-1.25,0,76.82375)"><g
       id="g3346"
       transform="translate(52.0289,52.5806)"><path
         d="m 0,0 -7.554,-30.27 -0.116,0 -7.26,30.27 -5.856,0 -7.434,-30.27 -0.118,0 -7.494,30.27 -8.197,0 12.647,-43.327 6.322,0 7.144,28.632 0.117,0 7.026,-28.632 6.382,0 L 8.196,0 0,0 Z"
         style="fill:#05a1e6;fill-opacity:1;fill-rule:nonzero;stroke:none"
         id="path3348"
         inkscape:connector-curvature="0" /></g><g
       id="g3350"
       transform="translate(135.7666,52.5806)"><path
         d="m 0,0 -7.787,0 0,-10.832 -3.806,0 0,-6.908 3.806,0 0,-25.587 7.787,0 0,25.587 4.684,0 0,6.908 -4.684,0 L 0,0 Z"
         style="fill:#05a1e6;fill-opacity:1;fill-rule:nonzero;stroke:none"
         id="path3352"
         inkscape:connector-curvature="0" /></g><g
       id="g3354"
       transform="translate(8,8)"><g
         id="g3356"
         clip-path="url(#clipPath3358)"><g
           id="g3362"
           transform="translate(171.5596,20.2822)"><path
             d="m 0,0 c 1.464,6.031 6.324,7.612 9.192,7.612 3.865,0 7.905,-2.401 8.783,-7.612 L 0,0 Z m 9.134,14.755 c -10.012,0 -17.096,-8.431 -17.096,-17.624 0,-9.483 7.494,-17.212 17.154,-17.212 7.612,0 14.007,6.242 15.881,12.096 l -7.956,0 c -1.464,-2.694 -4.471,-4.953 -7.925,-4.953 -5.561,0 -8.606,4.566 -8.958,6.673 l 25.235,0 c 0.234,1.055 0.468,2.402 0.468,3.923 0,8.197 -6.5,17.097 -16.803,17.097"
             style="fill:#05a1e6;fill-opacity:1;fill-rule:nonzero;stroke:none"
             id="path3364"
             inkscape:connector-curvature="0" /></g><g
           id="g3366"
           transform="translate(206.6885,30.8804)"><path
             d="m 0,0 -0.117,0 0,2.869 -7.143,0 0,-32.495 7.787,0 0,18.266 c 0,1.934 0,7.496 7.084,7.788 l 0,7.553 -0.643,0 C 2.928,3.981 1.465,2.107 0,0"
             style="fill:#05a1e6;fill-opacity:1;fill-rule:nonzero;stroke:none"
             id="path3368"
             inkscape:connector-curvature="0" /></g><g
           id="g3370"
           transform="translate(312.417,34.8618)"><path
             d="m 0,0 -0.646,0 c -4.038,0 -5.502,-1.874 -6.965,-3.981 l -0.118,0 0,2.868 -7.142,0 0,-32.495 7.787,0 0,18.267 c 0,1.933 0,7.495 7.084,7.788 L 0,0 Z"
             style="fill:#05a1e6;fill-opacity:1;fill-rule:nonzero;stroke:none"
             id="path3372"
             inkscape:connector-curvature="0" /></g><g
           id="g3374"
           transform="translate(150.146,34.8618)"><path
             d="m 0,0 c -4.859,0 -7.436,-2.459 -8.431,-3.396 l 0,13.115 -7.787,0 0,-43.327 7.787,0 0,16.511 c 0,2.752 0,9.954 6.557,9.954 6.441,0 6.675,-6.323 6.675,-9.837 l 0,-16.628 7.787,0 0,18.325 c 0,2.403 0,7.027 -2.576,10.306 C 7.67,-1.991 3.63,0 0,0"
             style="fill:#05a1e6;fill-opacity:1;fill-rule:nonzero;stroke:none"
             id="path3376"
             inkscape:connector-curvature="0" /></g><g
           id="g3378"
           transform="translate(97.0718,6.6836)"><path
             d="m 0,0 c -5.423,0 -9.818,4.697 -9.818,10.489 0,5.793 4.395,10.49 9.818,10.49 5.422,0 9.818,-4.697 9.818,-10.49 C 9.818,4.697 5.422,0 0,0 m -42.407,13.399 c 1.464,6.031 6.323,7.611 9.192,7.611 3.864,0 7.904,-2.4 8.782,-7.611 l -17.974,0 z m 27.714,5.8 c -0.991,-1.936 -1.64,-4.126 -1.864,-6.503 -0.02,0.192 -0.043,0.381 -0.069,0.573 -1.041,7.507 -7.266,14.884 -16.647,14.884 -10.013,0 -17.097,-8.431 -17.097,-17.623 0,-9.485 7.495,-17.214 17.155,-17.214 7.611,0 13.818,5.446 15.982,12.063 l -8.197,0 c -1.755,-3.455 -4.331,-4.92 -7.785,-4.92 -5.562,0 -8.607,4.568 -8.958,6.676 l 25.235,0 c 0.091,0.408 0.177,0.873 0.255,1.363 0.23,-1.982 0.773,-3.863 1.578,-5.58 2.603,-6.078 8.187,-9.602 14.268,-9.602 0.047,0 0.096,0.004 0.143,0.004 0.058,0 0.115,-0.004 0.173,-0.004 4.261,0 8.138,1.743 11.042,4.592 l 0,-3.537 7.143,0 0,32.494 -7.143,0 0,-3.476 c -2.287,2.243 -5.182,3.789 -8.39,4.348 -0.347,0.066 -0.704,0.119 -1.07,0.158 -0.176,0.018 -0.354,0.031 -0.532,0.043 -0.217,0.015 -0.438,0.025 -0.662,0.029 -0.105,0.003 -0.209,0.008 -0.315,0.009 -1.616,-0.008 -3.174,-0.247 -4.643,-0.692 -0.063,-0.019 -0.126,-0.036 -0.188,-0.057 -0.092,-0.029 -0.182,-0.061 -0.273,-0.092 -3.742,-1.288 -6.888,-3.973 -8.894,-7.481"
             style="fill:#05a1e6;fill-opacity:1;fill-rule:nonzero;stroke:none"
             id="path3380"
             inkscape:connector-curvature="0" /></g><g
           id="g3382"
           transform="translate(289.7344,5.2383)"><path
             d="m 0,0 c -0.021,-0.055 -0.04,-0.109 -0.064,-0.174 -0.144,0.004 -0.609,0.02 -1.199,0.035 -0.127,0.047 -0.135,0.051 -0.255,0.094 C -0.849,-0.025 -0.112,-0.002 0,0"
             style="fill:#05a1e6;fill-opacity:1;fill-rule:nonzero;stroke:none"
             id="path3384"
             inkscape:connector-curvature="0" /></g><g
           id="g3386"
           transform="translate(278.6045,6.9648)"><path
             d="m 0,0 c -5.422,0 -9.818,4.697 -9.818,10.489 0,5.793 4.396,10.49 9.818,10.49 5.422,0 9.818,-4.697 9.818,-10.49 C 9.818,4.697 5.422,0 0,0 m 10.228,26.784 0,-2.564 -0.003,-0.544 c -2.284,2.4 -5.96,4.534 -10.704,4.534 -6.485,0 -13.658,-4.471 -15.875,-12.291 l 0,0.443 -28.278,0 0,-7.494 18.15,0 C -29,3.834 -33.977,0.906 -39.304,0.906 c -10.305,0 -15.281,8.372 -15.281,14.988 0,6.792 5.093,15.106 14.871,15.106 5.737,0 9.72,-3.22 11.593,-6.089 l 9.6,0 c -2.223,6.206 -10.127,13.583 -21.017,13.583 -12.237,0 -23.068,-9.778 -23.068,-22.542 0,-12.997 10.889,-22.54 23.302,-22.54 10.343,0 19.738,7.041 22.273,16.782 0.031,0.123 0.067,0.243 0.096,0.366 0.013,-1.608 0.193,-3.122 0.513,-4.537 1.814,-8.015 8.215,-12.787 15.291,-12.787 1.815,0 3.767,0.426 5.592,1.153 0.706,0.281 1.392,0.609 2.045,0.972 1.361,0.762 2.545,1.586 3.471,2.618 0.015,0.017 -0.002,-0.047 0,-0.014 l 0,0.014 -0.008,-3.541 7.242,-0.01 0.16,32.356 -7.143,0 z"
             style="fill:#05a1e6;fill-opacity:1;fill-rule:nonzero;stroke:none"
             id="path3388"
             inkscape:connector-curvature="0" /></g><g
           id="g3390"
           transform="translate(328.3115,7.5293)"><path
             d="m 0,0 c 5.868,0 9.624,5.281 9.624,10.21 0,5.342 -4.108,10.212 -9.624,10.212 -5.812,0 -9.625,-5.4 -9.625,-9.976 C -9.625,4.402 -5.105,0 0,0 m 16.843,-6.104 -7.16,0 0,3.993 -0.12,0 C 8.098,-4.461 4.694,-7.16 -0.821,-7.16 c -8.276,0 -16.609,6.808 -16.609,17.311 0,10.976 8.803,17.431 16.609,17.431 4.753,0 7.57,-1.584 9.858,-3.991 l 0,13.733 7.806,0 0,-43.428 z"
             style="fill:#05a1e6;fill-opacity:1;fill-rule:nonzero;stroke:none"
             id="path3392"
             inkscape:connector-curvature="0" /></g></g></g></g></svg>