<?xml version="1.0" encoding="UTF-8"?><svg id="Layer_2" xmlns="http://www.w3.org/2000/svg" xmlns:xlink="http://www.w3.org/1999/xlink" viewBox="0 0 104.36 33.12"><defs><style>.cls-1{clip-path:url(#clippath);}.cls-2{fill:none;}.cls-2,.cls-3,.cls-4{stroke-width:0px;}.cls-5{clip-path:url(#clippath-1);}.cls-6{clip-path:url(#clippath-4);}.cls-7{clip-path:url(#clippath-3);}.cls-8{clip-path:url(#clippath-2);}.cls-9{clip-path:url(#clippath-7);}.cls-10{clip-path:url(#clippath-6);}.cls-11{clip-path:url(#clippath-5);}.cls-3{fill:#532e1f;}.cls-4{fill:#f1c500;}</style><clipPath id="clippath"><rect class="cls-2" width="104.36" height="33.12"/></clipPath><clipPath id="clippath-1"><rect class="cls-2" width="104.36" height="33.12"/></clipPath><clipPath id="clippath-2"><rect class="cls-2" width="104.36" height="33.12"/></clipPath><clipPath id="clippath-3"><rect class="cls-2" width="104.36" height="33.12"/></clipPath><clipPath id="clippath-4"><rect class="cls-2" width="104.36" height="33.12"/></clipPath><clipPath id="clippath-5"><rect class="cls-2" width="104.36" height="33.12"/></clipPath><clipPath id="clippath-6"><rect class="cls-2" width="104.36" height="33.12"/></clipPath><clipPath id="clippath-7"><rect class="cls-2" width="104.36" height="33.12"/></clipPath></defs><g id="Layer_1-2"><g class="cls-1"><path class="cls-3" d="m32.7,16.42c0,9.07-7.22,16.28-16.28,16.28S.13,25.48.13,16.42,7.35.13,16.42.13s16.28,7.22,16.28,16.28"/><path class="cls-4" d="m16.42,0C7.35,0,0,7.35,0,16.42s7.35,16.42,16.42,16.42,16.42-7.35,16.42-16.42S25.48,0,16.42,0m0,.91c2.09,0,4.12.41,6.03,1.22.92.39,1.81.87,2.63,1.43.82.55,1.59,1.19,2.3,1.89.7.7,1.34,1.48,1.89,2.3.56.83,1.04,1.72,1.43,2.63.81,1.91,1.22,3.94,1.22,6.03s-.41,4.12-1.22,6.03c-.39.92-.87,1.8-1.43,2.63-.56.82-1.19,1.59-1.89,2.3-.7.7-1.47,1.34-2.3,1.89-.83.56-1.71,1.04-2.63,1.43-1.91.81-3.94,1.22-6.03,1.22s-4.12-.41-6.03-1.22c-.92-.39-1.81-.87-2.63-1.43-.82-.56-1.59-1.19-2.3-1.89-.7-.7-1.34-1.47-1.89-2.3-.56-.83-1.04-1.72-1.43-2.63-.81-1.91-1.22-3.94-1.22-6.03s.41-4.12,1.22-6.03c.39-.92.87-1.8,1.43-2.63.55-.82,1.19-1.59,1.89-2.3.7-.7,1.47-1.34,2.3-1.89.83-.56,1.71-1.04,2.63-1.43,1.91-.81,3.94-1.22,6.03-1.22"/></g><polygon class="cls-4" points="20.6 8.61 20.6 11.97 21.66 11.97 20.21 17.8 18.03 8.61 14.81 8.61 12.62 17.8 11.18 11.97 12.23 11.97 12.23 8.61 6.29 8.61 6.29 11.97 7.15 11.97 10.78 26.13 14.11 26.13 16.42 17.14 18.72 26.13 22.05 26.13 25.69 11.97 26.54 11.97 26.54 8.61 20.6 8.61"/><polygon class="cls-3" points="52.61 17.22 50.79 25.92 53.35 25.92 55.17 17.22 52.61 17.22"/><g class="cls-5"><path class="cls-3" d="m58.02,20.6c.17-.29.38-.54.62-.75.24-.2.51-.36.8-.47.3-.11.62-.16.95-.16.19,0,.36.01.5.04.14.03.25.06.35.1.09.04.17.08.23.12.08.05.14.1.21.14.07.05.14.09.2.12.09.05.2.07.31.07.16,0,.3-.04.42-.11.09-.05.17-.12.24-.19l1.04-1.03-.14-.17c-.14-.18-.32-.34-.51-.48-.2-.14-.42-.27-.67-.37-.25-.1-.52-.18-.81-.24-.29-.06-.62-.09-.96-.09-.7,0-1.38.11-2.01.32-.63.22-1.21.52-1.71.91-.5.39-.94.86-1.28,1.4-.35.54-.59,1.14-.73,1.78-.13.63-.15,1.22-.06,1.76.1.55.3,1.03.61,1.43.31.4.73.72,1.24.95.51.22,1.12.34,1.82.34.75,0,1.44-.12,2.05-.35.61-.23,1.16-.58,1.63-1.04l.18-.17-.78-.97h0c-.06-.07-.13-.12-.21-.16-.16-.06-.34-.05-.51.02-.08.03-.16.07-.24.12-.13.09-.25.16-.37.22-.12.06-.24.11-.36.14-.12.04-.25.06-.39.08-.15.02-.31.02-.48.02-.28,0-.54-.05-.76-.15-.22-.1-.4-.24-.54-.43-.14-.19-.24-.44-.28-.72-.05-.29-.03-.64.05-1.03.08-.37.2-.71.38-1"/></g><polygon class="cls-3" points="70.52 17.22 69.81 20.64 66.79 20.64 67.5 17.22 64.94 17.22 63.12 25.93 65.68 25.93 66.41 22.46 69.43 22.46 68.7 25.93 71.27 25.93 73.09 17.22 70.52 17.22"/><polygon class="cls-3" points="74.19 17.22 72.37 25.93 74.93 25.93 76.75 17.22 74.19 17.22"/><g class="cls-8"><path class="cls-3" d="m83.4,25.51c.28-.11.55-.25.82-.42l.11-.07.81-3.87h-3.63l-.27,1.28c-.04.17,0,.34.11.45.1.11.26.17.46.17h.57l-.17.79c-.14.05-.3.08-.45.11-.21.04-.44.06-.7.06-.33,0-.63-.05-.88-.16-.25-.11-.45-.26-.6-.46-.15-.2-.26-.45-.31-.75-.05-.31-.04-.66.05-1.06.08-.36.2-.7.37-.99.17-.29.37-.54.6-.74.23-.2.5-.36.79-.48.3-.11.62-.17.97-.17.19,0,.36,0,.51.03.15.02.28.05.41.08.12.04.25.09.36.14.12.06.25.14.38.22.27.18.59.2.88.05.12-.06.23-.15.32-.25l.93-1.02-.15-.16c-.15-.17-.34-.33-.55-.47-.21-.14-.45-.27-.71-.37-.26-.1-.56-.18-.88-.24-.32-.06-.68-.09-1.05-.09-.73,0-1.42.11-2.06.32-.64.22-1.22.52-1.72.91-.51.39-.93.86-1.27,1.4-.34.54-.58,1.14-.71,1.78-.13.63-.14,1.23,0,1.78.13.55.36,1.02.71,1.43.34.4.78.71,1.31.94.53.22,1.13.34,1.8.34h0c.36,0,.71-.02,1.04-.05.33-.03.64-.09.94-.16.3-.07.6-.17.87-.29"/><path class="cls-3" d="m89.04,22.28l1.06-1.85c.08-.12.16-.26.25-.41.02.13.04.24.05.35l.29,1.92h-1.64Zm3.07-5.06h-2.43l-5.42,8.71h2.01c.22,0,.42-.06.6-.17.17-.11.31-.24.39-.39l.73-1.28h2.95l.19,1.23c.03.18.11.33.26.44.14.11.33.17.56.17h1.92l-1.74-8.52-.04-.19Z"/><path class="cls-3" d="m102.04,17.22l-.96,4.57s-.02.1-.03.15l-2.74-4.32h0c-.05-.08-.1-.14-.14-.19-.06-.06-.12-.1-.19-.14-.06-.03-.14-.05-.22-.06h0c-.07,0-.15-.01-.24-.01h-1.3l-1.82,8.71h2.31l.97-4.62s.01-.06.02-.09l2.72,4.28c.1.16.22.27.36.33.13.06.29.09.48.09h1.29l1.82-8.71h-2.31Z"/><path class="cls-3" d="m49.05,17.22h0c-.11,0-.22.02-.33.06-.1.04-.2.1-.29.18-.08.07-.16.17-.25.3l-3.99,5.96c-.14.21-.29.44-.43.66-.01.02-.03.05-.04.07,0,0,0,0,0-.01-.04-.23-.1-.45-.15-.65l-1.5-5.99c-.03-.13-.08-.23-.13-.31-.06-.09-.14-.16-.24-.2-.09-.04-.19-.06-.31-.06h-2.41l-2.57,12.3h2.71s1.43-6.83,1.43-6.83l1.26,4.87s.01.05.02.07l.23.89h1.62l.51-.72c.05-.06.1-.12.15-.19l.33-.49.1-.14h0s2.87-4.25,2.87-4.25l-1.42,6.8h2.71l2.57-12.3h-2.46Z"/><path class="cls-3" d="m42.78,8.25l.33,7.17h2.49s5.82-12.1,5.82-12.1h-2.19c-.25,0-.51.11-.72.26-.21.15-.35.32-.45.52l-2.66,6.02s-.02.04-.03.06c0,0,0-.01,0-.02l-.27-5.5h0l-.07-1.35h-2.33l-.5,1.12-2.72,5.64s-.03.06-.04.09c0-.01,0-.02,0-.03l-.07-6.04c0-.45-.34-.8-.88-.8h-2.11l.49,12.12h2.47l3.44-7.16Z"/></g><polygon class="cls-3" points="48.74 15.41 54.89 15.41 55.3 13.43 51.72 13.43 52.02 12 54.76 12 55.17 10.07 52.42 10.07 52.71 8.68 56.3 8.68 56.71 6.7 50.56 6.7 48.74 15.41"/><g class="cls-7"><path class="cls-3" d="m60.03,13.35c-.19.12-.44.18-.75.18-.24,0-.44-.03-.6-.09-.17-.06-.32-.14-.44-.22-.13-.08-.25-.16-.36-.23-.26-.17-.57-.19-.86-.06-.13.06-.24.14-.32.24l-.94,1.06.14.16c.15.18.34.34.56.48.22.14.46.26.71.36.26.1.53.18.81.23.29.06.58.08.86.08h0c.52,0,1.01-.08,1.46-.23.45-.15.85-.36,1.19-.63.34-.27.63-.58.86-.94.23-.36.39-.75.47-1.16.08-.38.08-.71.01-.99-.07-.28-.19-.51-.36-.71-.17-.19-.37-.35-.6-.47-.22-.11-.45-.21-.69-.3-.23-.08-.46-.16-.68-.22-.21-.06-.39-.13-.54-.2-.13-.06-.24-.14-.3-.22-.03-.04-.06-.09-.03-.21.04-.19.13-.33.29-.43.17-.12.41-.17.73-.17.19,0,.36.02.49.07.15.05.27.11.38.17.12.07.23.13.32.18.26.15.57.15.82,0,.1-.06.2-.15.3-.26l.84-1.07-.14-.15c-.14-.15-.31-.28-.5-.4-.19-.11-.4-.21-.62-.3-.23-.08-.47-.14-.73-.19-.26-.04-.53-.06-.81-.06-.51,0-.98.07-1.41.22s-.81.34-1.14.59c-.33.25-.6.54-.82.86-.21.32-.36.66-.43,1-.09.42-.1.78-.03,1.07.07.3.18.55.35.75.16.2.37.36.6.48.22.11.45.21.69.28.23.07.46.14.68.2.2.06.39.12.54.19.13.06.23.14.29.23.05.07.06.16.03.27-.05.25-.16.43-.33.54"/></g><polygon class="cls-3" points="65.25 15.42 67.8 15.42 69.2 8.74 71.66 8.74 72.08 6.71 64.61 6.71 64.19 8.74 66.65 8.74 65.25 15.42"/><polygon class="cls-3" points="77.17 15.42 77.59 13.44 74 13.44 74.3 12.01 77.05 12.01 77.45 10.09 74.71 10.09 75 8.7 78.58 8.7 79 6.71 72.85 6.71 71.02 15.42 77.17 15.42"/><g class="cls-6"><path class="cls-3" d="m81.97,8.66h.58c.45,0,.77.08.93.24.15.15.19.34.13.62-.03.15-.09.29-.16.42-.07.12-.16.23-.28.32-.12.09-.27.17-.44.22-.18.06-.4.09-.64.09h-.52l.4-1.91Zm-1.42,6.77l.63-3.03h.28c.15,0,.21.02.22.03.03.02.06.06.08.11l.95,2.38c.09.23.32.5.88.5h2.27l-1.43-3.23c-.07-.16-.16-.29-.27-.4.15-.07.29-.15.42-.23.27-.17.51-.37.72-.58.21-.22.39-.46.52-.72.14-.26.24-.54.3-.83.08-.38.08-.74.01-1.07-.08-.34-.25-.64-.52-.89-.26-.24-.62-.43-1.08-.56-.44-.13-.99-.19-1.65-.19h-3.08l-1.82,8.71h2.55Z"/><path class="cls-3" d="m88.76,15.42l.97-4.62s.01-.06.02-.08l2.72,4.28c.1.16.22.27.36.34.13.06.29.09.48.09h1.29l1.82-8.71h-2.31l-.95,4.57s-.02.1-.03.15l-2.74-4.32h0c-.05-.08-.1-.14-.14-.19-.06-.06-.12-.1-.19-.14-.06-.03-.14-.05-.22-.06h0c-.07-.01-.15-.01-.25-.01h-1.3l-1.82,8.71h2.31Z"/><path class="cls-3" d="m56.06,30.88c-.04.18-.1.35-.18.5-.08.15-.18.27-.3.37-.12.1-.25.18-.4.24-.15.06-.31.09-.49.09s-.32-.03-.44-.08c-.12-.05-.21-.13-.28-.22-.07-.1-.11-.22-.13-.36-.02-.14,0-.31.03-.49l.67-3.2h-1.2l-.66,3.15c-.07.32-.08.62-.03.89.05.28.15.52.31.72s.37.36.63.47c.26.11.57.17.92.17s.67-.06.97-.16c.3-.11.57-.26.81-.46.24-.19.44-.43.6-.7s.27-.56.34-.88l.67-3.2h-1.2l-.66,3.15Z"/><path class="cls-3" d="m62.15,30.92s-.02.1-.03.16l-1.86-3.15s-.05-.07-.07-.1c-.03-.03-.06-.05-.09-.07-.03-.02-.07-.03-.11-.03-.03,0-.07,0-.12,0h-.6l-1.12,5.34h1.08l.68-3.23s.02-.08.02-.12l1.86,3.14c.05.08.1.14.17.17.06.03.14.05.24.05h.59l1.12-5.34h-1.08l-.67,3.2Z"/></g><polygon class="cls-3" points="65.43 27.72 64.31 33.06 65.51 33.06 66.63 27.72 65.43 27.72"/><g class="cls-11"><path class="cls-3" d="m72.06,27.72c-.11,0-.2.03-.28.09-.08.05-.14.11-.18.18l-1.88,3.12c-.06.1-.12.22-.18.33-.01-.11-.03-.21-.04-.3l-.57-3.12c-.02-.09-.06-.16-.12-.22-.06-.06-.15-.09-.27-.09h-.92l1.08,5.34h1.03l3.33-5.34h-.98Z"/></g><polygon class="cls-3" points="73.88 27.72 72.76 33.06 76.28 33.06 76.49 32.08 74.17 32.08 74.43 30.85 76.25 30.85 76.46 29.9 74.63 29.9 74.88 28.7 77.2 28.7 77.4 27.72 73.88 27.72"/><g class="cls-10"><path class="cls-3" d="m80.59,29.93c-.09.07-.21.13-.34.17-.13.04-.29.06-.46.06h-.47l.31-1.48h.53c.33,0,.56.06.68.18.12.11.15.27.11.49-.03.12-.07.23-.13.32-.06.1-.13.18-.23.25m1.26-1.76c-.15-.14-.35-.25-.61-.33-.25-.07-.56-.11-.93-.11h-1.69l-1.12,5.34h1.2l.42-2h.33c.1,0,.14.02.15.02.02.01.04.04.06.08l.75,1.64c.04.08.09.14.16.19.07.04.16.07.26.07h1.05l-.99-2.05c-.04-.08-.08-.14-.13-.2.13-.05.26-.11.37-.17.17-.1.32-.22.45-.35.13-.13.24-.28.33-.44s.15-.34.19-.52c.05-.23.05-.45.01-.64-.04-.2-.14-.38-.29-.52"/><path class="cls-3" d="m86.41,27.82c-.25-.1-.54-.15-.87-.15-.28,0-.55.04-.79.13-.24.09-.45.2-.64.35-.18.14-.34.31-.46.5-.12.19-.2.38-.24.58-.05.25-.06.46-.02.64.04.18.11.33.21.45.1.12.22.21.37.29.14.07.28.13.42.18.14.05.28.09.42.13.13.04.24.08.33.14.08.05.15.11.19.17.04.06.04.14.02.25-.05.21-.14.37-.3.49-.16.12-.37.17-.62.17-.17,0-.3-.02-.41-.07-.11-.04-.2-.09-.28-.15-.08-.06-.15-.11-.21-.16-.14-.11-.3-.12-.43-.05-.05.03-.1.06-.14.1l-.44.53.06.07c.09.11.19.21.31.3.12.09.25.16.39.22.14.06.3.11.46.14.16.03.33.05.5.05.3,0,.58-.04.83-.13.25-.09.48-.22.68-.37.2-.16.36-.34.49-.56.13-.21.22-.44.27-.68.05-.23.05-.43,0-.59-.04-.17-.11-.31-.22-.42-.1-.11-.22-.21-.36-.28-.13-.07-.28-.13-.42-.18-.14-.05-.28-.1-.42-.14-.13-.04-.24-.09-.34-.14-.09-.05-.15-.1-.19-.17-.04-.05-.04-.13-.03-.22.02-.08.05-.16.09-.22.04-.07.1-.12.17-.17.07-.05.15-.09.25-.12.1-.03.21-.04.33-.04.14,0,.25.02.34.05.09.03.17.07.24.11.07.04.13.08.18.12.14.1.28.09.4.03.06-.03.11-.08.15-.14l.39-.52-.06-.07c-.16-.18-.37-.33-.63-.43"/></g><polygon class="cls-3" points="88.5 27.72 87.38 33.06 88.58 33.06 89.7 27.72 88.5 27.72"/><polygon class="cls-3" points="90.79 27.72 90.58 28.73 92.16 28.73 91.25 33.06 92.45 33.06 93.36 28.73 94.93 28.73 95.14 27.72 90.79 27.72"/><g class="cls-9"><path class="cls-3" d="m99.57,27.72c-.11,0-.2.03-.28.09-.07.05-.13.11-.17.17l-1.31,1.71c-.08.1-.15.2-.21.29,0,.01-.01.02-.02.03-.02-.09-.05-.19-.09-.29l-.6-1.71c-.03-.08-.07-.14-.12-.2-.06-.06-.15-.09-.27-.09h-1.02l1.3,3.25-.44,2.09h1.2l.43-2.05,2.69-3.29h-1.09Z"/><path class="cls-3" d="m101.6,33.01c.52,0,.94-.4.94-.98s-.42-.98-.94-.98-.94.4-.94.98.42.98.94.98m0-.19c-.42,0-.74-.32-.74-.8s.32-.8.74-.8.74.33.74.8-.32.8-.74.8m-.36-.3h.21v-.35h.2l.17.35h.23l-.23-.41c.11-.04.18-.15.18-.27,0-.24-.18-.32-.39-.32h-.38v1.01Zm.21-.51v-.33h.14c.15,0,.2.07.2.16,0,.11-.08.17-.21.17h-.13Z"/></g></g></svg>