<?xml version="1.0"?>
<svg xmlns="http://www.w3.org/2000/svg" xmlns:xlink="http://www.w3.org/1999/xlink" width="200" height="99">
  <defs id="defs3023">
    <linearGradient id="linearGradient3109">
      <stop style="stop-color:#000;stop-opacity:1" offset="0" id="stop3111" />
      <stop style="stop-color:#0096e9;stop-opacity:1" offset="1" id="stop3113" />
    </linearGradient>
    <linearGradient xlink:href="#linearGradient3109" id="linearGradient3115" x1="51.588276" y1="44.047272" x2="155.88631" y2="3.1130958" gradientUnits="userSpaceOnUse" />
    <linearGradient xlink:href="#linearGradient3109" id="linearGradient3216" gradientUnits="userSpaceOnUse" x1="51.588276" y1="44.047272" x2="155.88631" y2="3.1130958" />
    <linearGradient xlink:href="#linearGradient3109" id="linearGradient3218" gradientUnits="userSpaceOnUse" x1="51.588276" y1="44.047272" x2="155.88631" y2="3.1130958" />
    <linearGradient xlink:href="#linearGradient3109" id="linearGradient3220" gradientUnits="userSpaceOnUse" x1="51.588276" y1="44.047272" x2="155.88631" y2="3.1130958" />
    <linearGradient xlink:href="#linearGradient3109" id="linearGradient3222" gradientUnits="userSpaceOnUse" x1="51.588276" y1="44.047272" x2="155.88631" y2="3.1130958" />
    <linearGradient xlink:href="#linearGradient3109" id="linearGradient3224" gradientUnits="userSpaceOnUse" x1="51.588276" y1="44.047272" x2="155.88631" y2="3.1130958" />
    <linearGradient xlink:href="#linearGradient3109" id="linearGradient3226" gradientUnits="userSpaceOnUse" x1="51.588276" y1="44.047272" x2="155.88631" y2="3.1130958" />
    <linearGradient xlink:href="#linearGradient3109" id="linearGradient3229" gradientUnits="userSpaceOnUse" x1="51.588276" y1="44.047272" x2="155.88631" y2="3.1130958" />
    <linearGradient xlink:href="#linearGradient3109" id="linearGradient3232" gradientUnits="userSpaceOnUse" x1="51.588276" y1="44.047272" x2="155.88631" y2="3.1130958" />
    <linearGradient xlink:href="#linearGradient3109" id="linearGradient3235" gradientUnits="userSpaceOnUse" x1="51.588276" y1="44.047272" x2="155.88631" y2="3.1130958" />
    <linearGradient xlink:href="#linearGradient3109" id="linearGradient3238" gradientUnits="userSpaceOnUse" x1="51.588276" y1="44.047272" x2="155.88631" y2="3.1130958" />
    <linearGradient xlink:href="#linearGradient3109" id="linearGradient3241" gradientUnits="userSpaceOnUse" x1="51.588276" y1="44.047272" x2="155.88631" y2="3.1130958" />
    <linearGradient xlink:href="#linearGradient3109" id="linearGradient3244" gradientUnits="userSpaceOnUse" x1="51.588276" y1="44.047272" x2="155.88631" y2="3.1130958" />
  </defs>
  <g id="g3246">
    <path style="fill:url(#linearGradient3244);stroke:none" d="M 93.65601,55.695701 87.674872,69.150514 C 71.606782,49.053834 64.474766,25.880563 63.234358,2.0769632 l 13.344476,0 C 75.39003,26.283137 85.706294,45.03505 93.65601,55.695701 z" id="path3081" />
    <path id="path3083" d="m 134.93741,68.952262 -21.88625,0.198252 C 95.198804,54.80315 82.713976,25.880563 81.473568,2.0769632 l 13.146224,0 C 93.024755,28.828163 119.01887,64.392826 134.93741,68.952262 z" style="fill:url(#linearGradient3241);stroke:none" />
    <path id="path3085" d="m 139.49721,51.109556 -3.69196,13.066075 C 116.36687,50.819528 101.15144,28.25959 99.91103,2.0769632 l 13.34448,0 c -1.58531,24.4044258 17.8769,42.4160148 26.2417,49.0325928 z" style="fill:url(#linearGradient3238);stroke:none" />
    <path style="fill:url(#linearGradient3235);stroke:none" d="m 145.91254,32.997337 -4.51131,12.759408 C 126.72091,32.995399 118.00288,16.95921 118.34849,2.0769632 l 11.95671,0 c 2.86608,21.8984078 10.10014,22.5350568 15.60734,30.9203738 z" id="path3087" />
    <path id="path3089" d="m 80.490426,69.063906 -14.868921,0 C 53.039688,49.313851 44.730012,27.605732 44.805016,2.0546344 l 13.481154,0 C 57.530196,27.628467 66.009131,48.347352 80.490426,69.063906 z" style="fill:url(#linearGradient3232);stroke:none" />
    <path id="path3091" d="m 135.80281,2.0546344 18.83397,0 -7.53359,23.7902736 C 140.82327,19.171379 135.79343,11.87281 135.80281,2.0546344 z" style="fill:url(#linearGradient3229);stroke:none" />
    <path id="path3169" style="fill:black" d="m 9.8572536,92.819035 -4.408524,-13.813178 -3.5110284,0 6.4411823,18.763569 2.7980265,0 4.541457,-13.386769 4.540651,13.386769 2.798027,0 6.441182,-18.763569 -3.405489,0 -4.408523,13.813178 -4.540651,-13.865971 -2.74566,0 z" />
    <path id="path3171" style="fill:black" d="m 32.720297,91.754234 10.243051,0 c 0.01779,-0.159729 0.03101,-0.310527 0.03989,-0.452399 0.0088,-0.141858 0.0132,-0.283724 0.0132,-0.425595 -1.5e-5,-1.011459 -0.140874,-1.978524 -0.422564,-2.901198 -0.281637,-0.922655 -0.699636,-1.729986 -1.253911,-2.421997 -0.554299,-0.691986 -1.249442,-1.241984 -2.085427,-1.649995 -0.836008,-0.407984 -1.808563,-0.611983 -2.917667,-0.611997 -1.003312,1.4e-5 -1.91853,0.195214 -2.745659,0.5856 -0.82714,0.390413 -1.544303,0.918211 -2.151492,1.583395 -0.607196,0.665207 -1.077964,1.441404 -1.412307,2.328593 -0.334347,0.887208 -0.501519,1.836539 -0.501517,2.847998 -2e-6,1.100273 0.184759,2.098337 0.554288,2.994194 0.369523,0.895866 0.875471,1.663129 1.517846,2.301792 0.642368,0.638666 1.399143,1.135463 2.270325,1.490396 0.871171,0.354933 1.808412,0.532401 2.811724,0.532401 1.284736,0 2.389147,-0.239466 3.313242,-0.718395 0.924067,-0.478931 1.720455,-1.117729 2.389158,-1.916399 l -1.873946,-1.676393 c -0.56343,0.550138 -1.135576,0.967069 -1.716439,1.250797 -0.580885,0.283732 -1.267165,0.425598 -2.058842,0.425596 -1.038761,2e-6 -1.918934,-0.306065 -2.640523,-0.918198 -0.7216,-0.612128 -1.179074,-1.49486 -1.372426,-2.648196 z m -0.02659,-2.128791 c 0.140721,-1.100258 0.532261,-1.991924 1.17464,-2.674998 0.642367,-0.683054 1.456342,-1.024586 2.441928,-1.024598 0.528499,1.2e-5 0.999536,0.09761 1.413113,0.2928 0.413559,0.195212 0.769924,0.456877 1.069101,0.784997 0.299153,0.328141 0.536686,0.718541 0.712597,1.1712 0.175882,0.452678 0.290158,0.936211 0.342804,1.450599 z" />
    <path id="path3173" style="fill:black" d="m 56.712726,93.484231 0,-0.05279 C 56.712713,92.79251 56.580728,92.251311 56.316748,91.807842 56.052752,91.364389 55.713975,90.987391 55.300419,90.676851 54.886841,90.366317 54.424801,90.104516 53.914296,89.89144 53.403772,89.67838 52.893394,89.491979 52.383155,89.332237 51.978174,89.208249 51.586494,89.07965 51.208113,88.946439 50.829719,88.813247 50.495374,88.671246 50.205076,88.520438 49.914769,88.369647 49.681666,88.201115 49.505772,88.01484 49.329867,87.828584 49.241916,87.611454 49.24192,87.363451 l 0,-0.05361 c -4e-6,-0.408258 0.171597,-0.745458 0.514811,-1.011602 0.343202,-0.266121 0.822565,-0.399187 1.438089,-0.399199 0.581135,1.2e-5 1.214914,0.119813 1.901336,0.359401 0.686406,0.239612 1.363959,0.563546 2.032658,0.971804 l 1.267289,-2.288796 c -0.739597,-0.497056 -1.558139,-0.887456 -2.455624,-1.1712 -0.897503,-0.283716 -1.786136,-0.425581 -2.6659,-0.425596 -0.68642,1.5e-5 -1.333223,0.09748 -1.940412,0.292394 -0.607196,0.194944 -1.135166,0.478809 -1.583909,0.851598 -0.448751,0.372815 -0.80082,0.825348 -1.056209,1.357601 -0.255393,0.532277 -0.383089,1.12654 -0.383087,1.782791 l 0,0.05361 c -2e-6,0.67414 0.131998,1.237404 0.395976,1.689793 0.263983,0.452407 0.60276,0.833872 1.016331,1.144398 0.413563,0.31054 0.880036,0.563406 1.399415,0.7586 0.519371,0.195206 1.034182,0.372673 1.544435,0.5324 0.404967,0.124002 0.796647,0.243668 1.175041,0.358995 0.378381,0.115339 0.712726,0.248405 1.003037,0.399199 0.290294,0.150805 0.519098,0.323804 0.686414,0.519001 0.167293,0.195205 0.250951,0.426005 0.250961,0.692405 l 0,0.05279 c -1e-5,0.461337 -0.189197,0.829535 -0.567582,1.1046 -0.378396,0.275069 -0.910797,0.412601 -1.597203,0.412599 -0.72187,2e-6 -1.474348,-0.146321 -2.257436,-0.438996 -0.783096,-0.292661 -1.55303,-0.722996 -2.309801,-1.291 l -1.426004,2.182396 c 0.880307,0.692 1.835272,1.215465 2.864896,1.570399 1.029618,0.354933 2.045813,0.5324 3.048585,0.5324 0.721857,0 1.399542,-0.09313 2.033061,-0.279398 0.633502,-0.186262 1.183491,-0.461333 1.649974,-0.825201 0.466461,-0.363867 0.83169,-0.820868 1.095686,-1.371004 0.263973,-0.55013 0.395965,-1.197728 0.395978,-1.942795 z" />
    <path id="path3175" style="fill:black" d="m 63.813739,86.351443 3.749501,0 0,-2.767996 -3.749501,0 0,-3.858788 -3.193603,0 0,3.858788 -1.76921,0 0,2.767996 1.76921,0 0,7.399192 c -2e-6,0.780803 0.09668,1.432868 0.290036,1.956197 0.193352,0.523332 0.470496,0.94473 0.831432,1.264196 0.360928,0.319469 0.787788,0.550134 1.280582,0.692001 0.492785,0.141866 1.029483,0.212797 1.610095,0.212797 0.598322,0 1.126293,-0.06214 1.58391,-0.186397 0.457601,-0.124278 0.888893,-0.301734 1.293876,-0.532401 l 0,-2.634795 c -0.633789,0.31947 -1.293883,0.479205 -1.980292,0.479203 -0.545162,2e-6 -0.967458,-0.137527 -1.266885,-0.412602 -0.29944,-0.275063 -0.449156,-0.723129 -0.449151,-1.3442 z" />
    <path id="path3177" style="fill:black" d="m 81.505842,83.530654 -2.719073,0 -3.088867,9.687987 -2.798027,-9.635194 -3.273363,0 4.514065,14.159178 2.851201,0 3.141234,-9.607579 3.115453,9.607579 2.851201,0 4.567237,-14.159178 -3.194407,0 -2.851201,9.635194 z" />
    <path id="path3179" style="fill:black" d="m 107.08756,90.609836 c -1e-5,-1.011458 -0.18477,-1.960655 -0.55428,-2.847592 -0.36955,-0.886918 -0.88422,-1.663115 -1.54403,-2.328593 -0.65985,-0.665454 -1.44294,-1.18892 -2.34928,-1.570399 -0.90637,-0.381452 -1.89638,-0.572185 -2.970042,-0.572199 -1.073675,1.4e-5 -2.063686,0.195214 -2.970037,0.5856 -0.906361,0.390413 -1.689589,0.918211 -2.349682,1.583395 -0.660098,0.665207 -1.179342,1.445871 -1.557726,2.341994 -0.378389,0.896142 -0.567584,1.849941 -0.567582,2.8614 -2e-6,1.011472 0.184759,1.956337 0.554288,2.834597 0.369524,0.878268 0.884335,1.649997 1.544433,2.315192 0.660095,0.665197 1.443321,1.188527 2.349684,1.569992 0.906351,0.381467 1.887497,0.572199 2.943452,0.572199 1.073652,0 2.068102,-0.195201 2.983332,-0.585601 0.9152,-0.390399 1.70273,-0.918197 2.36257,-1.583393 0.65981,-0.665195 1.17892,-1.441391 1.55732,-2.328594 0.37837,-0.887194 0.56757,-1.836525 0.56758,-2.847998 z m -3.1936,0.05361 c -1e-5,0.621072 -0.0968,1.202205 -0.29044,1.743399 -0.19363,0.541203 -0.47534,1.015803 -0.84512,1.423797 -0.36981,0.408 -0.81426,0.7318 -1.33336,0.971396 -0.51912,0.239603 -1.10415,0.359404 -1.755112,0.359402 -0.616065,2e-6 -1.183785,-0.119803 -1.70315,-0.359402 -0.519383,-0.239596 -0.968264,-0.563396 -1.346647,-0.971396 -0.378392,-0.407994 -0.673126,-0.891527 -0.884202,-1.4506 -0.211084,-0.559062 -0.316625,-1.149129 -0.316621,-1.770202 -4e-6,-0.621059 0.09682,-1.202056 0.290438,-1.742993 0.19362,-0.540919 0.475194,-1.015517 0.844725,-1.423796 0.36952,-0.408258 0.813836,-0.732192 1.332951,-0.971804 0.519101,-0.239589 1.095541,-0.359389 1.729336,-0.359401 0.633772,1.2e-5 1.210212,0.119811 1.729332,0.359401 0.5191,0.239612 0.96784,0.567878 1.34624,0.984799 0.37838,0.416942 0.67325,0.900475 0.88461,1.450599 0.21134,0.550142 0.31701,1.135742 0.31702,1.756801 z" />
    <path id="path3181" style="fill:black" d="m 124.68023,90.609836 c -2e-5,-1.011458 -0.18478,-1.960655 -0.55429,-2.847592 -0.36954,-0.886918 -0.88422,-1.663115 -1.54403,-2.328593 -0.65985,-0.665454 -1.44294,-1.18892 -2.34928,-1.570399 -0.90637,-0.381452 -1.89638,-0.572185 -2.97004,-0.572199 -1.07367,1.4e-5 -2.06368,0.195214 -2.97003,0.5856 -0.90636,0.390413 -1.68959,0.918211 -2.34968,1.583395 -0.6601,0.665207 -1.17934,1.445871 -1.55773,2.341994 -0.37839,0.896142 -0.56758,1.849941 -0.56758,2.8614 0,1.011472 0.18476,1.956337 0.55429,2.834597 0.36952,0.878268 0.88433,1.649997 1.54443,2.315192 0.66009,0.665197 1.44332,1.188527 2.34968,1.569992 0.90635,0.381467 1.8875,0.572199 2.94345,0.572199 1.07366,0 2.0681,-0.195201 2.98333,-0.585601 0.9152,-0.390399 1.70273,-0.918197 2.36257,-1.583393 0.65981,-0.665195 1.17892,-1.441391 1.55732,-2.328594 0.37837,-0.887194 0.56757,-1.836525 0.56759,-2.847998 z m -3.19361,0.05361 c -1e-5,0.621072 -0.0968,1.202205 -0.29043,1.743399 -0.19364,0.541203 -0.47535,1.015803 -0.84513,1.423797 -0.36981,0.408 -0.81426,0.7318 -1.33336,0.971396 -0.51911,0.239603 -1.10415,0.359404 -1.75511,0.359402 -0.61606,2e-6 -1.18377,-0.119803 -1.70314,-0.359402 -0.51939,-0.239596 -0.96827,-0.563396 -1.34665,-0.971396 -0.37839,-0.407994 -0.67313,-0.891527 -0.8842,-1.4506 -0.21109,-0.559062 -0.31663,-1.149129 -0.31662,-1.770202 -10e-6,-0.621059 0.0968,-1.202056 0.29043,-1.742993 0.19362,-0.540919 0.4752,-1.015517 0.84473,-1.423796 0.36952,-0.408258 0.81384,-0.732192 1.33295,-0.971804 0.5191,-0.239589 1.09554,-0.359389 1.72933,-0.359401 0.63377,1.2e-5 1.21021,0.119811 1.72933,0.359401 0.5191,0.239612 0.96785,0.567878 1.34625,0.984799 0.37837,0.416942 0.67324,0.900475 0.8846,1.450599 0.21134,0.550142 0.31701,1.135742 0.31702,1.756801 z" />
    <path id="path3183" style="fill:black" d="m 142.14529,97.636225 0,-19.428766 -3.19441,0 0,7.558384 c -0.51026,-0.65625 -1.14377,-1.232779 -1.90053,-1.729592 -0.75679,-0.496785 -1.70719,-0.745184 -2.8512,-0.745198 -0.82715,1.4e-5 -1.63239,0.159748 -2.41575,0.479201 -0.78336,0.319481 -1.47421,0.794079 -2.07254,1.423796 -0.59833,0.629742 -1.07783,1.39714 -1.43849,2.302197 -0.36066,0.905076 -0.54099,1.942939 -0.54099,3.113589 0,1.171206 0.18476,2.209204 0.55429,3.113995 0.36952,0.904801 0.85345,1.672199 1.45178,2.302197 0.59833,0.630002 1.28474,1.1046 2.05925,1.423796 0.77449,0.319197 1.5753,0.478794 2.40245,0.478794 1.12629,0 2.07226,-0.257196 2.8379,-0.771594 0.76563,-0.514395 1.40357,-1.135462 1.91383,-1.863199 l 0,2.3424 z m -3.14124,-7.026389 c -1e-5,0.692006 -0.11011,1.313071 -0.33032,1.863199 -0.22022,0.550139 -0.51509,1.024736 -0.8846,1.423797 -0.36954,0.399067 -0.80069,0.705132 -1.29347,0.918197 -0.4928,0.213071 -1.00318,0.319606 -1.53114,0.319604 -0.54571,2e-6 -1.06052,-0.106535 -1.54444,-0.319604 -0.48393,-0.213065 -0.91066,-0.514664 -1.28018,-0.904795 -0.36953,-0.390126 -0.65997,-0.864725 -0.87131,-1.423797 -0.21135,-0.559063 -0.31703,-1.184595 -0.31702,-1.876601 -1e-5,-0.709318 0.10567,-1.343515 0.31702,-1.902591 0.21134,-0.559059 0.50178,-1.033792 0.87131,-1.424202 0.36952,-0.39039 0.79625,-0.687521 1.28018,-0.891396 0.48392,-0.203852 0.99873,-0.305784 1.54444,-0.305795 0.52796,1.1e-5 1.03834,0.106411 1.53114,0.319197 0.49278,0.212808 0.92393,0.518874 1.29347,0.918198 0.36951,0.399344 0.66438,0.873942 0.8846,1.423796 0.2202,0.549871 0.33031,1.170802 0.33032,1.862793 z" />
    <path id="path3185" style="font-size:13.80000019000000000px;font-style:normal;font-weight:bold;text-align:start;text-anchor:start;fill:#1f79c5" d="m 165.27277,88.294238 c -2e-5,-1.312513 -0.23755,-2.554374 -0.7126,-3.725586 -0.47508,-1.171186 -1.13504,-2.19145 -1.97989,-3.060796 -0.84487,-0.869314 -1.8569,-1.556845 -3.03609,-2.062596 -1.17922,-0.505714 -2.48155,-0.758581 -3.90701,-0.7586 -1.42547,1.9e-5 -2.72781,0.257353 -3.907,0.772002 -1.17922,0.514685 -2.19998,1.21115 -3.06228,2.089398 -0.86232,0.87828 -1.53115,1.902876 -2.00648,3.073792 -0.47534,1.170941 -0.713,2.412937 -0.713,3.725992 0,1.313073 0.23766,2.55507 0.713,3.725992 0.47533,1.170935 1.13543,2.191063 1.98029,3.06039 0.84486,0.869332 1.85675,1.556864 3.0357,2.062596 1.17892,0.505733 2.48139,0.7586 3.9074,0.7586 1.42546,0 2.72779,-0.257199 3.90701,-0.771594 1.17919,-0.514396 2.19995,-1.210728 3.06228,-2.088993 0.8623,-0.878262 1.53099,-1.902994 2.00607,-3.074198 0.47505,-1.171193 0.71258,-2.413325 0.7126,-3.726399 z m -3.40549,0.0536 c -1e-5,0.904805 -0.1539,1.760869 -0.46163,2.568194 -0.30778,0.807338 -0.73451,1.508135 -1.28019,2.102394 -0.54571,0.594268 -1.20137,1.064399 -1.96699,1.410395 -0.76565,0.346002 -1.60608,0.519003 -2.52129,0.518999 -0.91523,4e-6 -1.75995,-0.177332 -2.53417,-0.531994 -0.77424,-0.354659 -1.43864,-0.833725 -1.99319,-1.437198 -0.55456,-0.603464 -0.98585,-1.308728 -1.29387,-2.115796 -0.30804,-0.807054 -0.46205,-1.663253 -0.46204,-2.568599 -1e-5,-0.904787 0.15399,-1.760851 0.46204,-2.568194 0.30802,-0.807319 0.73488,-1.508117 1.28058,-2.102394 0.54569,-0.594249 1.20135,-1.06438 1.967,-1.410394 0.76563,-0.345984 1.60605,-0.518984 2.52128,-0.519 0.91521,1.6e-5 1.75994,0.177483 2.53418,0.532401 0.77422,0.354949 1.43861,0.834014 1.99318,1.437197 0.55454,0.603212 0.9857,1.308476 1.29348,2.115796 0.30774,0.807343 0.46162,1.663407 0.46163,2.568193 z" />
    <path id="path3187" style="font-size:13.80000019000000000px;font-style:normal;font-weight:bold;text-align:start;text-anchor:start;fill:#1f79c5" d="m 172.5568,89.705039 c -1e-5,-1.099717 0.29043,-1.955645 0.87131,-2.567787 0.58087,-0.612121 1.33777,-0.918187 2.27073,-0.918198 0.95012,1.1e-5 1.68474,0.297143 2.20386,0.891395 0.51909,0.594274 0.77865,1.441538 0.77866,2.541797 l 0,7.983979 3.1944,0 0,-8.942381 c -1e-5,-1.64985 -0.43117,-2.962779 -1.29347,-3.938791 -0.86233,-0.975986 -2.08544,-1.463986 -3.66934,-1.464 -0.5457,1.4e-5 -1.03406,0.06661 -1.46507,0.199803 -0.43103,0.133216 -0.82701,0.315149 -1.18794,0.545802 -0.36094,0.230679 -0.67782,0.492345 -0.95067,0.784996 -0.27285,0.292677 -0.52367,0.607407 -0.75247,0.944189 l 0,-2.182396 -3.19441,0 0,14.052778 3.19441,0 z" />
    <path id="path3189" style="font-size:13.80000019000000000px;font-style:normal;font-weight:bold;text-align:start;text-anchor:start;fill:#1f79c5" d="m 188.13649,91.754234 10.24305,0 c 0.0172,-0.159729 0.031,-0.310527 0.04,-0.452399 0.01,-0.141858 0.0134,-0.283724 0.0134,-0.425595 0,-1.011459 -0.14079,-1.978524 -0.42254,-2.901198 -0.28173,-0.922655 -0.69973,-1.729986 -1.254,-2.421997 -0.55432,-0.691986 -1.24945,-1.241984 -2.08544,-1.649995 -0.836,-0.407984 -1.80856,-0.611983 -2.91767,-0.611997 -1.0033,1.4e-5 -1.91852,0.195214 -2.74565,0.5856 -0.82714,0.390413 -1.54431,0.918211 -2.1515,1.583395 -0.60719,0.665207 -1.07796,1.441404 -1.4123,2.328593 -0.33435,0.887208 -0.50152,1.836539 -0.50152,2.847998 0,1.100273 0.18476,2.098337 0.55429,2.994194 0.36952,0.895866 0.87547,1.663129 1.51785,2.301792 0.64236,0.638666 1.39914,1.135463 2.27032,1.490396 0.87117,0.354933 1.80841,0.532401 2.81173,0.532401 1.28474,0 2.38914,-0.239466 3.31324,-0.718395 0.92406,-0.478931 1.72045,-1.117729 2.38916,-1.916399 l -1.87395,-1.676393 c -0.56344,0.550138 -1.13558,0.967069 -1.71645,1.250797 -0.58088,0.283732 -1.26716,0.425598 -2.05884,0.425596 -1.03875,2e-6 -1.91893,-0.306065 -2.64051,-0.918198 -0.7216,-0.612128 -1.17908,-1.49486 -1.37243,-2.648196 z m -0.0266,-2.128791 c 0.14072,-1.100258 0.53226,-1.991924 1.17463,-2.674998 0.64237,-0.683054 1.45635,-1.024586 2.44193,-1.024598 0.52851,1.2e-5 0.99955,0.09761 1.41313,0.2928 0.41355,0.195212 0.76991,0.456877 1.06908,0.784997 0.29916,0.328141 0.5367,0.718541 0.7126,1.1712 0.17581,0.452678 0.29017,0.936211 0.34281,1.450599 z" />
  </g>
</svg>
