<?xml version="1.0" encoding="UTF-8" standalone="no"?>
<!-- Created with Inkscape (http://www.inkscape.org/) -->

<svg
   xmlns:dc="http://purl.org/dc/elements/1.1/"
   xmlns:cc="http://creativecommons.org/ns#"
   xmlns:rdf="http://www.w3.org/1999/02/22-rdf-syntax-ns#"
   xmlns:svg="http://www.w3.org/2000/svg"
   xmlns="http://www.w3.org/2000/svg"
   xmlns:sodipodi="http://sodipodi.sourceforge.net/DTD/sodipodi-0.dtd"
   xmlns:inkscape="http://www.inkscape.org/namespaces/inkscape"
   width="121.33991mm"
   height="32.289242mm"
   viewBox="0 0 121.33991 32.289242"
   version="1.1"
   id="svg1568"
   inkscape:version="0.92.0 r15299"
   sodipodi:docname="wow telecom.svg">
  <defs
     id="defs1562">
    <clipPath
       id="clipPath1245"
       clipPathUnits="userSpaceOnUse">
      <path
         inkscape:connector-curvature="0"
         id="path1243"
         d="M 0,0 H 594 V 774 H 0 Z" />
    </clipPath>
    <clipPath
       id="clipPath1229"
       clipPathUnits="userSpaceOnUse">
      <path
         inkscape:connector-curvature="0"
         id="path1227"
         d="M 0,0 H 594 V 774 H 0 Z" />
    </clipPath>
    <clipPath
       id="clipPath1207"
       clipPathUnits="userSpaceOnUse">
      <path
         inkscape:connector-curvature="0"
         id="path1205"
         d="M 0,0 H 594 V 774 H 0 Z" />
    </clipPath>
    <clipPath
       id="clipPath1167"
       clipPathUnits="userSpaceOnUse">
      <path
         inkscape:connector-curvature="0"
         id="path1165"
         d="M 0,0 H 594 V 774 H 0 Z" />
    </clipPath>
    <clipPath
       id="clipPath1149"
       clipPathUnits="userSpaceOnUse">
      <path
         inkscape:connector-curvature="0"
         id="path1147"
         d="M 0,0 H 594 V 774 H 0 Z" />
    </clipPath>
  </defs>
  <sodipodi:namedview
     id="base"
     pagecolor="#ffffff"
     bordercolor="#666666"
     borderopacity="1.0"
     inkscape:pageopacity="0.0"
     inkscape:pageshadow="2"
     inkscape:zoom="1.972174"
     inkscape:cx="227.41402"
     inkscape:cy="59.129265"
     inkscape:document-units="mm"
     inkscape:current-layer="layer1"
     showgrid="false"
     fit-margin-top="0"
     fit-margin-left="0"
     fit-margin-right="0"
     fit-margin-bottom="0"
     units="mm"
     inkscape:window-width="1280"
     inkscape:window-height="744"
     inkscape:window-x="-4"
     inkscape:window-y="-4"
     inkscape:window-maximized="1" />
  <metadata
     id="metadata1565">
    <rdf:RDF>
      <cc:Work
         rdf:about="">
        <dc:format>image/svg+xml</dc:format>
        <dc:type
           rdf:resource="http://purl.org/dc/dcmitype/StillImage" />
        <dc:title></dc:title>
      </cc:Work>
    </rdf:RDF>
  </metadata>
  <g
     inkscape:label="Layer 1"
     inkscape:groupmode="layer"
     id="layer1"
     transform="translate(104.77115,30.322166)">
    <g
       id="g1771"
       transform="translate(0.49999821,-0.4999934)">
      <path
         d="m -90.632519,1.3995497 h -4.843992 l -9.294639,-30.2711547 h 4.843995 z"
         style="fill:#c52024;fill-opacity:1;fill-rule:nonzero;stroke:none;stroke-width:0.35277778"
         id="path1105"
         inkscape:connector-curvature="0" />
      <path
         d="m -72.015325,1.3995497 h -4.843992 l -9.294635,-30.2711547 h 4.843991 z"
         style="fill:#e23f23;fill-opacity:1;fill-rule:nonzero;stroke:none;stroke-width:0.35277778"
         id="path1109"
         inkscape:connector-curvature="0" />
      <path
         d="m -76.832011,1.3995497 h 4.843992 l 9.294635,-30.2711547 h -4.843991 z"
         style="fill:#f15121;fill-opacity:1;fill-rule:nonzero;stroke:none;stroke-width:0.35277778"
         id="path1113"
         inkscape:connector-curvature="0" />
      <path
         d="m -95.449179,1.3995497 h 4.843992 l 9.294635,-30.2711547 h -4.844344 z"
         style="fill:#d42f23;fill-opacity:1;fill-rule:nonzero;stroke:none;stroke-width:0.35277778"
         id="path1117"
         inkscape:connector-curvature="0" />
      <path
         d="m -22.169359,1.3995497 h -4.843992 l -9.294635,-30.2711547 h 4.843991 z"
         style="fill:#00adef;fill-opacity:1;fill-rule:nonzero;stroke:none;stroke-width:0.35277778"
         id="path1121"
         inkscape:connector-curvature="0" />
      <path
         d="M -3.5521363,1.3995497 H -8.3961279 L -17.690764,-28.871605 h 4.843992 z"
         style="fill:#2184c4;fill-opacity:1;fill-rule:nonzero;stroke:none;stroke-width:0.35277778"
         id="path1125"
         inkscape:connector-curvature="0" />
      <path
         d="m -8.3688513,1.3995497 h 4.8439916 L 5.7697762,-28.871605 H 0.92578461 Z"
         style="fill:#306fb2;fill-opacity:1;fill-rule:nonzero;stroke:none;stroke-width:0.35277778"
         id="path1129"
         inkscape:connector-curvature="0" />
      <path
         d="M 9.0889437,-7.7681043 15.568766,-28.871623 H 10.724421 L 4.2449521,-7.7681043 Z"
         style="fill:#306fb2;fill-opacity:1;fill-rule:nonzero;stroke:none;stroke-width:0.35277778"
         id="path1133"
         inkscape:connector-curvature="0" />
      <path
         d="m 2.8210437,-3.1310963 -1.39065,4.5307249 H 6.2740325 L 7.671738,-3.152263 Z"
         style="fill:#306fb2;fill-opacity:1;fill-rule:nonzero;stroke:none;stroke-width:0.35277778"
         id="path1137"
         inkscape:connector-curvature="0" />
      <path
         d="m -26.986046,1.3995497 h 4.843992 l 9.294635,-30.2711547 h -4.843991 z"
         style="fill:#0f9ada;fill-opacity:1;fill-rule:nonzero;stroke:none;stroke-width:0.35277778"
         id="path1141"
         inkscape:connector-curvature="0" />
      <path
         d="m -34.059265,-16.041533 c -0.263878,-1.741664 -0.81915,-3.385961 -1.607608,-4.888794 -0.02857,-0.05468 -0.06138,-0.106539 -0.09066,-0.160867 -1.930047,-3.576108 -5.20947,-6.312253 -9.157406,-7.530747 l -1.327502,4.322939 h 3.52e-4 -3.52e-4 l -7.06e-4,0.0028 c 0.255058,0.07867 0.507295,0.164747 0.754239,0.261056 0.09313,0.03634 0.182386,0.07973 0.274108,0.118533 0.179564,0.07549 0.358775,0.150636 0.5334,0.235303 0.105834,0.05115 0.207434,0.109361 0.311503,0.163688 0.15487,0.08149 0.310445,0.161925 0.461081,0.250473 0.107244,0.06279 0.210255,0.131586 0.315383,0.197908 0.141111,0.08961 0.282575,0.178506 0.419453,0.273756 0.104775,0.07338 0.205669,0.150988 0.307975,0.227894 0.130175,0.09772 0.259997,0.195439 0.385586,0.298803 0.100542,0.0822 0.197203,0.168275 0.294569,0.254 0.12065,0.106186 0.239889,0.213078 0.3556,0.324203 0.09454,0.09066 0.185914,0.183797 0.276931,0.277988 0.111125,0.1143 0.220133,0.230012 0.326319,0.34925 0.08749,0.09807 0.172509,0.197909 0.25647,0.298803 0.1016,0.122767 0.200377,0.247297 0.296686,0.374297 0.07973,0.104775 0.158044,0.210609 0.233891,0.318206 0.09208,0.130528 0.180623,0.263525 0.267053,0.398639 0.07126,0.110419 0.141464,0.221192 0.208492,0.334433 0.08255,0.138642 0.159808,0.280459 0.236361,0.422981 0.06174,0.115358 0.123825,0.230011 0.181681,0.347486 0.07232,0.147461 0.138994,0.29845 0.204963,0.449439 0.05151,0.118533 0.104775,0.236008 0.1524,0.356658 0.06244,0.157339 0.117123,0.318206 0.172156,0.478719 0.04128,0.119592 0.08467,0.237773 0.121708,0.358775 0.05221,0.170745 0.09525,0.344664 0.138995,0.518584 0.02928,0.116064 0.06279,0.230716 0.08855,0.348191 0.04233,0.195439 0.07408,0.394406 0.106539,0.593725 0.01623,0.09984 0.03775,0.197909 0.05115,0.298803 0.04057,0.301625 0.06985,0.606778 0.08537,0.915459 0.0071,0.1905 0.01446,0.380647 0.01446,0.572558 0,0.191911 -0.0074,0.382058 -0.01446,0.572205 -0.01446,0.285398 -0.04339,0.566561 -0.07867,0.845961 -0.01058,0.08079 -0.02293,0.160867 -0.03492,0.2413 -0.03175,0.211667 -0.0695,0.421217 -0.112888,0.62865 -0.01552,0.07267 -0.02893,0.145698 -0.04551,0.217664 -0.05821,0.252942 -0.122766,0.503767 -0.197908,0.749653 v 0 l -0.0032,0.01023 c -0.0032,0.01058 -0.0074,0.02081 -0.01094,0.0314 -0.01905,0.06138 -0.04233,0.12065 -0.06244,0.18168 -0.06809,0.2067282 -0.140405,0.4113393 -0.220133,0.6124226 -0.03669,0.092428 -0.07691,0.1830917 -0.115711,0.2744611 -0.07197,0.168275 -0.147461,0.3347861 -0.227542,0.4988278 -0.04516,0.092781 -0.09137,0.1852083 -0.139347,0.2769306 -0.08643,0.1651 -0.1778,0.3270249 -0.272345,0.4875388 -0.04692,0.079728 -0.09208,0.1608667 -0.141111,0.2391834 -0.132997,0.2130777 -0.271991,0.4215694 -0.418394,0.6244166 -0.01482,0.020108 -0.02752,0.041628 -0.04233,0.062089 -0.161925,0.2211917 -0.333375,0.4346222 -0.510469,0.6427611 -0.05644,0.066322 -0.116064,0.1294694 -0.174272,0.1943806 -0.126295,0.1418166 -0.255059,0.2811638 -0.388408,0.4162777 -0.07056,0.071261 -0.142875,0.1411111 -0.215195,0.2106083 -0.131233,0.1259417 -0.265642,0.2480028 -0.402519,0.3672417 -0.07373,0.063853 -0.146756,0.1284111 -0.22225,0.1905 -0.15875,0.1308806 -0.322439,0.2561167 -0.488598,0.3785306 -0.05644,0.041275 -0.110419,0.085372 -0.167922,0.1259416 -0.224366,0.15875 -0.455083,0.3093861 -0.691444,0.4515556 -0.05468,0.032808 -0.111831,0.061736 -0.167217,0.093839 -0.184855,0.1068917 -0.37218,0.20955 -0.563386,0.3058584 -0.08608,0.043392 -0.173567,0.083255 -0.260703,0.1245305 -0.168628,0.079022 -0.338666,0.1545167 -0.511528,0.225425 -0.09313,0.038453 -0.186619,0.075847 -0.281163,0.1118306 -0.181328,0.068439 -0.365478,0.1312333 -0.551392,0.1905 -0.08467,0.027164 -0.168275,0.056444 -0.254,0.081492 -0.271286,0.079375 -0.545747,0.1513417 -0.825147,0.2102556 -0.74295,0.1562805 -1.513064,0.2398889 -2.302581,0.2398889 -0.775758,0 -1.533172,-0.080081 -2.264127,-0.2314222 -0.26035,-0.053622 -0.517173,-0.117475 -0.770467,-0.1890889 l -0.09207,-0.028222 c -0.03881,-0.011289 -0.07585,-0.026105 -0.114653,-0.037747 l -1.328549,4.327191 c 0.747183,0.2282472 1.515533,0.4081638 2.305756,0.5228166 0.739422,0.1068917 1.495072,0.1651 2.264127,0.1651 0.782461,0 1.551164,-0.059267 2.302581,-0.1700389 1.770239,-0.2610555 3.440289,-0.82479441 4.9657,-1.62701106 0.0448,-0.0236361 0.08819,-0.0500944 0.132997,-0.07443611 4.242858,-2.28423603 7.315552,-6.46147763 8.065558,-11.40918553 0.1651,-0.762 0.254353,-1.552575 0.254353,-2.363964 0,-0.811389 -0.08925,-1.601964 -0.254353,-2.363964"
         style="fill:#00adef;fill-opacity:1;fill-rule:nonzero;stroke:none;stroke-width:0.35277778"
         id="path1153"
         inkscape:connector-curvature="0" />
      <path
         d="m -47.223485,-29.152131 c -0.751417,-0.110772 -1.520119,-0.170039 -2.302581,-0.170039 -0.769055,0 -1.524705,0.05786 -2.264127,0.1651 -1.784703,0.258939 -3.469922,0.821267 -5.005564,1.629128 -0.03493,0.01834 -0.07091,0.03528 -0.105481,0.05398 -4.761441,2.550936 -8.048624,7.494058 -8.254999,13.223875 -0.0067,0.1905 -0.01446,0.380647 -0.01446,0.572558 0,0.191911 0.0078,0.382058 0.01446,0.572205 0.08714,2.414411 0.722136,4.688417 1.782938,6.7034836 0.02364,0.044803 0.04868,0.0889 0.07303,0.1337028 1.935339,3.5919832 5.23487,6.33518318 9.204325,7.5473276 l 1.328561,-4.3271721 c -3.818466,-1.1634611 -6.765925,-4.3222333 -7.620352,-8.2655829 -0.11677,-0.77082 -0.1778,-1.560336 -0.1778,-2.363964 0,-0.803628 0.06103,-1.592792 0.1778,-2.363964 0.03563,-0.164042 0.08114,-0.32385 0.123825,-0.485069 l 0.263172,-0.856545 c 1.281994,-3.623733 4.382558,-6.386689 8.21055,-7.179027 0.730955,-0.151342 1.488369,-0.231423 2.264127,-0.231423 0.789517,0 1.559631,0.08361 2.302581,0.240242 0.303036,0.06385 0.601133,0.1397 0.894292,0.227894 v -3.52e-4 l 0.0014,7.05e-4 h 3.53e-4 l 0.08502,0.02611 1.327503,-4.322939 c -0.747889,-0.231069 -1.517297,-0.413456 -2.308578,-0.530225"
         style="fill:#f15121;fill-opacity:1;fill-rule:nonzero;stroke:none;stroke-width:0.35277778"
         id="path1157"
         inkscape:connector-curvature="0" />
    </g>
  </g>
</svg>
