<svg height="387.110097" viewBox="0 0 181.62428 272.06937" width="258.324442" xmlns="http://www.w3.org/2000/svg" xmlns:xlink="http://www.w3.org/1999/xlink"><linearGradient id="a" gradientUnits="userSpaceOnUse" x1="113.14" x2="120.416" y1="8.856" y2="8.856"><stop offset="0" stop-color="#ea2627"/><stop offset="1" stop-color="#bd2227"/></linearGradient><g transform="translate(641.47396 79.84087)"><path d="m-641.47374-37.496194h181.46319v181.463214h-181.46319z" fill="#ec1c24" stroke-width="6.048774"/><path d="m-623.9323 75.010991 86.49745-96.780353h35.08288v90.126723h24.19511v30.24386h-24.19511v30.243859h-32.0585v-30.243859h-89.52183zm45.97067-6.65363h43.55116v-48.99509z" fill="#fff" stroke-width="6.048774"/><g transform="matrix(2.1942372 0 0 2.1942372 -738.23982 -91.470327)"><path d="m44.1 5.3h82.7v19.3h-82.7z" fill="#231f20"/><path d="m49.8 8.7h3.1v10.2h7v2.3h-10.1zm24.9 2c.5.6 1.3 2 1.3 4.1 0 4-2.6 6.8-7.6 6.8-5.1 0-7.7-2.7-7.7-6.6 0-4.3 3.1-6.5 7.2-6.7 2.5-.1 5.3.5 6.8 2.4m-10.7 4.3c0 1.5.6 2.3.8 2.6.3.4 1.2 1.7 3.7 1.7 2.9 0 4.5-2 4.5-4.4 0-2.8-2.1-4.5-4.6-4.4-2.2.1-4.4 1.5-4.4 4.5m29.1 2c-.2.8-.5 1.7-1.6 2.7-1 .9-2.7 2-5.9 2-4.4 0-7.5-2.3-7.5-6.7 0-4.7 3.8-6.6 7.7-6.6 1.4 0 5.5.3 7.2 3.9l-3.4.4c-.3-.5-1.3-2-3.7-2-2.8 0-4.4 2-4.4 4.4 0 2.7 2.1 4.4 4.5 4.4 2.7 0 3.5-1.6 4-2.4zm6.7-8.3h3.4l6 12.5h-3.5l-1.1-2.4h-6.4l-1.1 2.4h-3.4zm1.9 3.8c-.1-.2-.2-.3-.2-.5-.1-.2-.1-.3-.1-.5-.1.2-.1.3-.1.4-.1.2-.1.3-.2.5l-1.9 4.2h4.4zm9.3-3.8h3.2v10.2h6.9v2.3h-10.1z" fill="#fff"/></g><g transform="matrix(1.6087162 0 0 1.6087162 -712.09638 143.96702)"><path d="m44 17.8h112.8v12.2h-112.8z" fill="#231f20"/><path d="m43.9 0h112.8v17.9h-112.8z" fill="#231f20"/><path d="m44.8.9h111.1v16.3h-111.1z" fill="#fff"/><path d="m156.7 0h-112.7" fill="#ec1c24"/><path d="m56.9 19.3h-5.3v8h4.1c1.2 0 2.7 0 3.8-1.5.5-.7.8-1.6.8-2.6.1-2.2-1.3-3.7-3.4-3.9m.8 5.7c-.5.7-1.2.7-1.9.7h-2v-4.7h2.1c.6 0 1.4 0 1.8.7.2.4.4.9.4 1.5 0 .8-.1 1.4-.4 1.8m12.4-.9h5.1v-1.7h-5.1v-1.4h5.3v-1.7h-7.5v8h7.7v-1.7h-5.5zm12.4-3.1h2.9v6.3h2.2v-6.3h2.9v-1.7h-8zm23.1 2.6c.7-.6.8-1.5.8-1.8 0-.4-.1-1-.5-1.6-.7-.8-1.6-.9-2.4-.9h-5.5v8h2.3v-3.1h1.9l2.1 3.1h2.7l-2.4-3.3c.2 0 .6-.2 1-.4m-5.4-2.6h2.8c.7 0 .9.2 1 .3.1.2.1.4.1.5 0 .5-.3.8-1 .8h-2.9zm18.5-2h-.3c-2.9.1-4.6 1.7-4.6 4.3s1.9 4.3 4.9 4.3 4.9-1.6 4.9-4.3c0-1.4-.6-2.3-.9-2.6-.8-1.1-2.3-1.7-4-1.7m2.6 4.3c0 1.5-1 2.5-2.6 2.5-1.4 0-1.9-.7-2.1-1-.1-.2-.5-.6-.5-1.5 0-1.7 1.3-2.6 2.5-2.6h.1c1.5.1 2.6 1.1 2.6 2.6m10.3-4h2.3v8h-2.3zm9.6 0v1.7h2.9v6.3h2.2v-6.3h2.9v-1.7z" fill="#fff"/><path d="m59.9 10.1-.1.2c-.1.3-.3.6-.7 1-.5.4-1.2.7-2 .7-2 0-2.9-1.5-2.9-3 0-2.3 1.6-3.1 3-3.1.3 0 1.1 0 1.7.4.5.3.6.6.8.9l.1.2 4-.7-.1-.3c-.4-1-1.2-3.5-6.5-3.5-6.8 0-7.4 4.6-7.4 6 0 2.7 1.5 4.7 4.1 5.5.9.3 1.9.4 3.1.4 3 0 5.1-.9 6.2-2.6.4-.6.5-1 .6-1.4l.1-.3zm9.6 1.2v-8h-4.2v11.1h9.7v-3.1zm7.2-8h4.3v11.1h-4.3zm16.6 6.8-.1.2c-.1.3-.3.6-.7 1-.5.4-1.2.7-2 .7-2 0-2.9-1.5-2.9-3 0-2.3 1.6-3.1 3-3.1.3 0 1.1 0 1.7.4.5.3.6.6.8 1l.1.2 4-.7-.1-.3c-.4-1-1.2-3.5-6.5-3.5-6.8 0-7.4 4.6-7.4 6 0 2.7 1.5 4.7 4.1 5.5.9.3 1.9.4 3.1.4 3 0 5.1-.9 6.2-2.6.4-.6.5-1 .6-1.4l.1-.3zm14-2.5 4.4-4.3h-5.3l-3.2 3.6v-3.6h-4v11.1h4v-2.9l1-1 2.7 3.9h5.2zm25.8-4.1c-1-.4-2.3-.6-3.9-.6h-.2c-2.9 0-4.9.9-6.1 2.6-.7.9-1 2.1-1 3.5 0 1.3.3 2.4 1.1 3.3 1.2 1.7 3.2 2.5 6.2 2.5 1.7 0 3.6-.2 5.2-1.5.5-.4 1-.9 1.3-1.5.5-.9.8-1.9.8-3 0-1.9-.9-4.2-3.4-5.3m-1 5.3c0 1-.4 2.3-1.5 2.8-.4.2-.8.3-1.4.3-2.2 0-3-1.6-3-3.1 0-1.4.8-3.1 2.9-3.1h.1c2.8.1 2.9 2.6 2.9 3.1m14.5-5.5v5.3c-.4-.6-.7-.9-1.4-1.7l-3.3-3.6h-3.5v11.1h4.2v-5.4c.2.3.4.5.8.9l4 4.5h3.5v-11.1z" fill="#231f20"/><path d="m113.1 1.6v14.5l7.3-6.9z" fill="url(#a)"/></g></g></svg>