<?xml version="1.0" encoding="UTF-8" standalone="no"?>
<svg
   xmlns:dc="http://purl.org/dc/elements/1.1/"
   xmlns:cc="http://creativecommons.org/ns#"
   xmlns:rdf="http://www.w3.org/1999/02/22-rdf-syntax-ns#"
   xmlns:svg="http://www.w3.org/2000/svg"
   xmlns="http://www.w3.org/2000/svg"
   xmlns:sodipodi="http://sodipodi.sourceforge.net/DTD/sodipodi-0.dtd"
   xmlns:inkscape="http://www.inkscape.org/namespaces/inkscape"
   width="1279.042"
   height="540"
   viewBox="0 0 1279.042 540"
   version="1.1"
   id="svg6"
   sodipodi:docname="Fts-detroit-a.svg"
   inkscape:version="1.0 (4035a4fb49, 2020-05-01)">
  <metadata
     id="metadata12">
    <rdf:RDF>
      <cc:Work
         rdf:about="">
        <dc:format>image/svg+xml</dc:format>
        <dc:type
           rdf:resource="http://purl.org/dc/dcmitype/StillImage" />
        <dc:title>logo/4-color/detroit</dc:title>
      </cc:Work>
    </rdf:RDF>
  </metadata>
  <defs
     id="defs10" />
  <sodipodi:namedview
     inkscape:pagecheckerboard="true"
     inkscape:document-rotation="0"
     pagecolor="#ffffff"
     bordercolor="#666666"
     borderopacity="1"
     objecttolerance="10"
     gridtolerance="10"
     guidetolerance="10"
     inkscape:pageopacity="0"
     inkscape:pageshadow="2"
     inkscape:window-width="1280"
     inkscape:window-height="961"
     id="namedview8"
     showgrid="false"
     inkscape:zoom="0.53413461"
     inkscape:cx="643.02545"
     inkscape:cy="108.09477"
     inkscape:window-x="-8"
     inkscape:window-y="-8"
     inkscape:window-maximized="1"
     inkscape:current-layer="svg6" />
  <title
     id="title2">logo/4-color/detroit</title>
  <g
     transform="scale(9.9970705,9.9999993)"
     id="logo/4-color/detroit"
     stroke="none"
     stroke-width="1"
     fill="none"
     fill-rule="evenodd"
     style="fill:#000000">
    <path
       d="m 6.7864718,47.797343 c 0.01506,0.222253 0.01506,0.44527 0,0.667522 -0.0029,0.280065 -0.030823,0.55931 -0.08344,0.834402 -0.057371,0.30546 -0.1705123,0.597741 -0.3337609,0.862216 -0.1702378,0.278826 -0.409796,0.508802 -0.6953353,0.667522 -0.371317,0.198834 -0.789013,0.294856 -1.2098833,0.278134 H 3.2541689 v -5.145481 h 1.0430028 c 0.4810241,-0.02471 0.9602205,0.07592 1.3906704,0.292041 0.3131325,0.164697 0.5770417,0.409412 0.7648688,0.709242 0.1701626,0.25079 0.2840232,0.535442 0.3337609,0.834402 z M 66.446234,45.766964 h -1.515831 v 2.099913 h 2.183353 c 0.159094,-0.02303 0.313806,-0.06991 0.458921,-0.139067 0.137981,-0.07978 0.256685,-0.188989 0.347668,-0.319854 0.103074,-0.171571 0.151573,-0.370415 0.139067,-0.570175 0.01348,-0.296934 -0.109446,-0.583753 -0.333761,-0.778776 -0.386434,-0.226243 -0.833087,-0.328197 -1.279417,-0.292041 z m 22.556675,0.431108 c -0.189068,-0.199764 -0.422507,-0.352214 -0.681429,-0.445014 -0.447254,-0.173862 -0.943416,-0.173862 -1.39067,0 -0.257157,0.09632 -0.489849,0.248281 -0.681429,0.445014 -0.227453,0.255368 -0.402306,0.553091 -0.514548,0.876123 -0.296906,0.946086 -0.296906,1.960415 0,2.906501 0.112242,0.323032 0.287095,0.620754 0.514548,0.876122 0.19158,0.196734 0.424272,0.348696 0.681429,0.445015 0.447254,0.173862 0.943416,0.173862 1.39067,0 0.258922,-0.0928 0.492361,-0.245251 0.681429,-0.445015 0.236931,-0.250773 0.417158,-0.549569 0.528455,-0.876122 0.277751,-0.948927 0.277751,-1.957574 0,-2.906501 -0.111297,-0.326553 -0.291524,-0.62535 -0.528455,-0.876123 z M 41.85918,30.010668 c 1.732025,4.13e-4 3.146819,-1.383489 3.184636,-3.115102 V 11.598192 C 45.023941,9.8189343 43.622459,8.3626113 41.845274,8.2744892 40.081911,8.3640943 38.705452,9.8327267 38.730172,11.598192 v 15.297374 c 0.0152,1.719506 1.409452,3.107561 3.129008,3.115102 z M 23.516237,19.232972 c 0,10.099806 8.187511,18.287317 18.287317,18.287317 10.099806,0 18.287316,-8.187511 18.287316,-18.287317 0,-10.0998056 -8.18751,-18.28731609 -18.287316,-18.28731609 -10.099806,0 -18.287317,8.18751049 -18.287317,18.28731609 z m -13.406063,29.28752 c 0.004,-0.66275 -0.08497,-1.322786 -0.2642272,-1.960845 C 9.688791,45.951729 9.4148363,45.380203 9.0393579,44.876935 8.6448556,44.375361 8.1405528,43.970967 7.5652472,43.694865 6.8666402,43.380522 6.1059439,43.228383 5.3401745,43.249851 H 0 V 53.80504 h 4.7004661 c 0.8164626,0.01383 1.6295317,-0.108361 2.4058599,-0.361575 0.6340295,-0.21965 1.2095522,-0.581136 1.6827112,-1.056909 0.4556201,-0.471003 0.7938807,-1.042711 0.9873761,-1.668805 0.2297727,-0.70945 0.3425017,-1.451579 0.3337607,-2.197259 z M 21.416325,15.492069 H 10.875043 V 10.485655 H 23.808278 L 23.099036,0 H 0 V 38.368598 H 10.791603 V 25.963817 h 10.624722 z m 8.928104,35.61507 h -5.646122 v -1.39067 h 4.9786 v -2.433674 h -4.9786 v -1.30723 h 5.493148 V 43.249851 H 21.444138 V 53.80504 h 8.900291 z m 20.164722,-7.857288 h -9.178425 v 2.711807 h 2.962128 v 7.843382 h 3.254169 v -7.843382 h 2.962128 z M 71.647342,53.80504 c -0.0861,-0.146476 -0.147202,-0.306273 -0.180788,-0.472828 0,-0.208601 0,-0.417201 -0.09735,-0.639709 -0.09735,-0.222507 0,-0.431108 0,-0.639708 v -0.500641 c -0.03939,-0.593781 -0.205346,-1.172265 -0.486735,-1.696618 -0.233555,-0.432189 -0.613064,-0.76734 -1.070816,-0.945656 0.263069,-0.0944 0.504322,-0.241043 0.709242,-0.431108 0.196314,-0.179716 0.360872,-0.39129 0.486734,-0.625802 0.137769,-0.237629 0.236377,-0.49589 0.292041,-0.764869 0.06659,-0.268358 0.0993,-0.544004 0.09735,-0.820495 0.01854,-0.479027 -0.07678,-0.955624 -0.278134,-1.390671 -0.183321,-0.35909 -0.439009,-0.676333 -0.750962,-0.931749 -0.327097,-0.257453 -0.699824,-0.450893 -1.09863,-0.570175 -0.450632,-0.13673 -0.919815,-0.202416 -1.39067,-0.194694 h -6.202391 v 10.555189 h 3.254169 V 50.13367 h 1.724432 c 0.265676,-0.01876 0.531153,0.03916 0.764868,0.16688 0.177557,0.118946 0.321289,0.281842 0.417202,0.472828 0.102435,0.210859 0.172747,0.435856 0.2086,0.667522 v 0.737055 c 0,0.250321 0,0.556268 0.09735,0.820496 0.03883,0.273223 0.09928,0.542933 0.180787,0.806589 z M 77.376904,38.312971 H 89.33667 L 77.780198,18.39857 88.27976,0 H 76.709382 L 71.911569,8.3440227 67.197196,0 H 55.23743 L 65.931686,18.48201 54.597722,38.326878 h 11.626005 l 5.562682,-9.734694 z m 15.617229,10.221428 c 0.0092,-0.758198 -0.118013,-1.511871 -0.375481,-2.225073 -0.237039,-0.672213 -0.611154,-1.287847 -1.09863,-1.807872 -0.475729,-0.492724 -1.048778,-0.881071 -1.682711,-1.140349 -0.696622,-0.286389 -1.444148,-0.428324 -2.197259,-0.417202 -0.748441,-0.0092 -1.491049,0.132658 -2.183353,0.417202 -0.63814,0.259025 -1.215787,0.647279 -1.696618,1.140349 -0.481481,0.500754 -0.851201,1.097993 -1.084723,1.752245 -0.519351,1.437924 -0.519351,3.012222 0,4.450146 0.237134,0.648388 0.606531,1.24037 1.084723,1.738338 0.480294,0.497155 1.05783,0.890068 1.696618,1.154256 0.695113,0.273463 1.436417,0.410392 2.183353,0.403295 0.751456,0.0072 1.497323,-0.129748 2.197259,-0.403295 0.634775,-0.264089 1.20778,-0.657142 1.682711,-1.154256 0.477958,-0.500785 0.851427,-1.091717 1.09863,-1.738338 0.249872,-0.695942 0.376922,-1.430008 0.375481,-2.169446 z m 14.602037,-5.284548 h -3.29589 V 53.80504 h 3.25417 z m 20.34551,0 h -9.19233 v 2.711807 h 2.96213 v 7.843382 h 3.25417 v -7.843382 h 2.97603 z m 0,-14.198745 h -17.10525 c 7.12024,-4.338892 16.56289,-7.38446 16.56289,-17.04962 0,-8.0241685 -6.24411,-11.87632566 -15.42253,-11.87632566 -10.1519,0 -16.60461,5.96597626 -16.006622,16.32647066 h 10.193612 c -0.0973,-4.603119 1.39067,-7.7599407 5.70175,-7.7599407 2.55883,0 4.57531,1.1959766 4.57531,4.6170257 0,2.781341 -3.15683,4.283265 -5.11767,5.479242 -4.82563,2.934314 -10.24924,5.813002 -13.406064,10.207521 -1.991528,2.688648 -2.975884,5.991164 -2.78134,9.331399 h 32.805914 z"
       id="fts-detroit-c-copy"
       fill="#FFFFFF"
       style="fill:#000000" />
  </g>
</svg>
