<?xml version="1.0" encoding="utf-8"?>
<!-- Generator: Adobe Illustrator 16.0.2, SVG Export Plug-In . SVG Version: 6.00 Build 0)  -->
<!DOCTYPE svg PUBLIC "-//W3C//DTD SVG 1.1//EN" "http://www.w3.org/Graphics/SVG/1.1/DTD/svg11.dtd">
<svg version="1.1" id="Layer_1" xmlns="http://www.w3.org/2000/svg" xmlns:xlink="http://www.w3.org/1999/xlink" x="0px" y="0px"
	 width="253.186px" height="162.337px" viewBox="0 0 253.186 162.337" enable-background="new 0 0 253.186 162.337"
	 xml:space="preserve">
<g>
	<path id="eye_2_" fill="#00539B" d="M29.67,51.608c0-12.508,10.139-22.653,22.653-22.653c12.513,0,22.654,10.146,22.654,22.653
		c0,12.517-10.142,22.655-22.654,22.655C39.809,74.264,29.67,64.125,29.67,51.608z M52.323,94.974
		c23.947,0,43.358-19.415,43.358-43.365c0-23.944-19.412-43.361-43.358-43.361C28.375,8.247,8.96,27.664,8.96,51.608
		C8.96,75.559,28.375,94.974,52.323,94.974z M93.347,51.608c-7.506,15.063-23.056,25.42-41.024,25.42
		c-17.948,0-33.483-10.384-40.994-25.42c7.511-15.031,23.046-25.415,40.994-25.415C70.291,26.193,85.841,36.553,93.347,51.608z"/>
	<g id="_x36_2_2_">
		<path fill="#00539B" d="M145.497,32.713c-1.318-4.671-5.148-6.707-10.059-6.707c-9.218,0-13.051,8.382-12.931,19.396
			c6.706-4.668,11.733-6.105,19.755-6.105c19.639,0,28.498,15.209,28.498,27.303c0,20.593-14.725,29.813-33.766,29.813
			c-24.547,0-39.633-13.29-39.633-43.944c0-25.982,13.412-43.464,36.879-43.464c15.805,0,30.893,5.146,34.486,22.271L145.497,32.713
			z M123.585,67.676c0,6.106,5.267,10.896,11.255,10.896c7.305,0,11.016-4.55,11.016-11.736c0-6.704-4.311-11.254-10.537-11.254
			C126.818,55.82,123.585,61.09,123.585,67.676z"/>
		<path fill="#00539B" d="M171.12,94.617c-0.479-9.819,3.352-17.004,10.059-23.949c14.127-14.727,36.279-20.473,36.279-34.482
			c0-5.389-5.146-8.502-10.178-8.502c-9.58,0-12.334,8.022-12.211,16.163h-22.393c0.357-24.784,13.889-34.842,35.801-34.842
			c17.484,0,33.887,7.663,33.887,27.3c0,14.848-11.377,20.953-22.393,27.778c-6.105,3.832-12.57,7.065-17.002,10.178h39.156v20.356
			H171.12z"/>
	</g>
</g>
<path fill="#00539B" d="M0,0v162.337h253.186V0H0z M51.713,147.46h-6.3l-5.884-16.609c-1.453-4.068-2.422-7.191-3.046-10.409h-0.137
	c-0.763,3.171-1.87,6.294-3.6,10.409L26.1,147.46h-6.299L7.962,115.568h6.369l5.537,16.136c1.385,3.973,2.632,7.948,3.462,11.023
	h0.138c0.763-3.169,2.216-6.955,3.807-11.072l6.231-16.087h6.299l5.677,16.183c1.315,3.785,2.562,7.57,3.253,10.93h0.138
	c0.97-3.502,2.285-7.051,3.739-11.025l6.161-16.087h6.16L51.713,147.46z M106.47,147.46l-5.884-16.609
	c-1.454-4.068-2.423-7.191-3.047-10.409h-0.137c-0.762,3.171-1.87,6.294-3.6,10.409l-6.646,16.609h-6.299l-11.838-31.892h6.369
	l5.538,16.136c1.385,3.973,2.631,7.948,3.462,11.023h0.137c0.762-3.169,2.216-6.955,3.808-11.072l6.23-16.087h6.299l5.677,16.183
	c1.316,3.785,2.561,7.57,3.254,10.93h0.139c0.968-3.502,2.283-7.051,3.737-11.025l6.161-16.087h6.161l-13.223,31.892H106.47z
	 M144.407,136.907c0,8.471-6.092,11.073-14.123,11.073c-2.285,0-4.984-0.331-6.438-0.757l0.831-3.359
	c1.246,0.33,3.046,0.615,5.123,0.615c5.398,0,8.516-1.656,8.516-7.902v-21.009h6.092V136.907z M169.743,134.413h-17.1v-3.027h17.1
	V134.413z M202.831,119.07h-14.258v28.39h-6.094v-28.39h-14.191v-3.502h34.543V119.07z M227.684,147.46h-6.645l-15.301-31.892h6.578
	l7.268,15.709c1.938,4.306,3.67,8.186,4.984,11.924h0.139c1.314-3.691,3.184-7.712,5.33-11.876l7.893-15.757h6.438L227.684,147.46z
	 M248.774,99.401H5.122V4.264h243.652V99.401z"/>
</svg>
