<svg xmlns="http://www.w3.org/2000/svg" viewBox="205.6051498335183 214.20525734 1069.211986681465 314.937202" id="svg1" version="1.1" style="max-height: 500px" width="1069.211986681465" height="314.937202">
  <defs id="defs1"/>
  
    
  
  <path d="M 0,0 H 1440 V 799.333 H 0 Z" style="opacity:1;vector-effect:none;fill:#ffffff;fill-rule:evenodd;stroke-width:13.2762;stroke-miterlimit:10;stop-color:#000000;stop-opacity:1" id="rect1"/>
  <path style="stroke-width:1.32982" id="path1-9" d="m 506.48866,318.94699 c 0.19947,2.8857 0.19947,5.7714 0.19947,8.6837 0,88.73856 -67.55461,191.08113 -191.08114,191.08113 v -0.0532 c -36.49013,0.0532 -72.22226,-10.39914 -102.94099,-30.107 5.30596,0.63831 10.63852,0.95746 15.98438,0.97076 30.23999,0.0266 59.61561,-10.11989 83.406,-28.80379 -28.7373,-0.54523 -53.9373,-19.28232 -62.74067,-46.63662 10.0667,1.94153 20.43925,1.54258 30.31978,-1.15694 -31.33044,-6.32992 -53.87081,-33.85709 -53.87081,-65.82585 v -0.85108 c 9.3353,5.19957 19.78765,8.08527 30.47936,8.40443 -29.5086,-19.72116 -38.60453,-58.9773 -20.78501,-89.66944 34.09646,41.95567 84.40337,67.46153 138.40716,70.16105 -5.41234,-23.32496 1.98143,-47.76696 19.4286,-64.16358 27.04844,-25.42607 69.58923,-24.12285 95.01529,2.91229 15.04021,-2.96548 29.45541,-8.48422 42.64718,-16.30353 -5.01341,15.54554 -15.50565,28.7506 -29.5219,37.14174 13.31145,-1.56918 26.31704,-5.13309 38.56464,-10.57203 -9.01615,13.51092 -20.37277,25.27978 -33.51134,34.78796 z" fill="#1d9bf0"/>
  <path style="stroke-width:1.08975" id="path1-93" d="m 1197.5337,224 h 50.1286 L 1137.5975,349.32126 1266.188,519.32227 H 1165.2771 L 1086.2703,416.01396 995.821,519.32227 H 945.6925 L 1062.2958,385.28301 939.154,224 h 103.4173 l 71.3786,94.37236 z m -17.5449,265.89902 h 27.7886 L 1027.9686,252.3335 h -29.85912 z"/>
</svg>