<?xml version="1.0" encoding="utf-8"?>
<!-- Generator: Adobe Illustrator 24.3.0, SVG Export Plug-In . SVG Version: 6.00 Build 0)  -->
<svg version="1.1" id="Layer_1" xmlns="http://www.w3.org/2000/svg" xmlns:xlink="http://www.w3.org/1999/xlink" x="0px" y="0px"
	 viewBox="0 0 512 512" style="enable-background:new 0 0 512 512;" xml:space="preserve">
<style type="text/css">
	.st0{fill:#58409B;}
</style>
<g>
	<path class="st0" d="M452.94,0H59.06C26.37,0,0,26.37,0,59.06v393.89C0,485.49,26.37,512,59.06,512h393.89
		c32.54,0,59.06-26.51,59.06-59.06V59.06C512,26.37,485.63,0,452.94,0z M419.84,378.88c1.54,1.54,2.38,3.65,2.38,5.89v42.92
		c0,4.63-3.79,8.28-8.28,8.28h-42.92c-2.24,0-4.35-0.84-5.89-2.52l-32.54-32.54H179.27l-32.54,32.54c-1.54,1.54-3.65,2.52-5.89,2.52
		H97.91c-4.63,0-8.28-3.79-8.28-8.28v-42.92c0-2.24,0.84-4.35,2.38-5.89l30.16-30.16c-25.25-28.76-40.4-65.93-40.4-106.47
		c0-91.74,77.99-166.22,174.08-166.22c96.23,0,174.22,74.35,174.22,166.22c0,40.54-15.15,77.57-40.4,106.47L419.84,378.88z
		 M359.94,244.78c0,26.51-9.54,48.82-29.18,65.79c-19.64,17.67-44.19,26.51-74.77,26.51s-54.99-8.84-74.63-26.51
		c-19.64-16.97-29.18-39.42-29.18-65.79c0-54.29,43.48-93,103.8-93C316.46,151.64,359.94,190.35,359.94,244.78z"/>
</g>
</svg>
