<svg xmlns="http://www.w3.org/2000/svg" xmlns:xlink="http://www.w3.org/1999/xlink" width="500" zoomAndPan="magnify" viewBox="0 0 375 374.999991" height="500" preserveAspectRatio="xMidYMid meet" version="1.0"><rect x="-37.5" width="450" fill="#ffffff" y="-37.499999" height="449.999989" fill-opacity="1"/><rect x="-37.5" width="450" fill="#ffffff" y="-37.499999" height="449.999989" fill-opacity="1"/><path fill="#000000" d="M 7.359375 368.144531 L 85.742188 368.144531 L 85.742188 355.539062 L 7.359375 355.539062 Z M 89.425781 375.515625 L 3.679688 375.515625 C 1.644531 375.515625 -0.00390625 373.871094 -0.00390625 371.832031 L -0.00390625 351.855469 C -0.00390625 349.820312 1.644531 348.167969 3.679688 348.167969 L 89.425781 348.167969 C 91.460938 348.167969 93.109375 349.820312 93.109375 351.855469 L 93.109375 371.832031 C 93.109375 373.871094 91.460938 375.515625 89.425781 375.515625 " fill-opacity="1" fill-rule="nonzero"/><path fill="#000000" d="M 63.738281 324.367188 L 142.121094 324.367188 L 142.121094 311.757812 L 63.738281 311.757812 Z M 145.804688 331.738281 L 60.054688 331.738281 C 58.019531 331.738281 56.371094 330.085938 56.371094 328.050781 L 56.371094 308.070312 C 56.371094 306.039062 58.019531 304.386719 60.054688 304.386719 L 145.804688 304.386719 C 147.835938 304.386719 149.484375 306.039062 149.484375 308.070312 L 149.484375 328.050781 C 149.484375 330.085938 147.835938 331.738281 145.804688 331.738281 " fill-opacity="1" fill-rule="nonzero"/><path fill="#000000" d="M 120.113281 280.582031 L 198.496094 280.582031 L 198.496094 267.976562 L 120.113281 267.976562 Z M 202.179688 287.953125 L 116.429688 287.953125 C 114.394531 287.953125 112.746094 286.304688 112.746094 284.269531 L 112.746094 264.292969 C 112.746094 262.257812 114.394531 260.605469 116.429688 260.605469 L 202.179688 260.605469 C 204.210938 260.605469 205.863281 262.257812 205.863281 264.292969 L 205.863281 284.269531 C 205.863281 286.304688 204.210938 287.953125 202.179688 287.953125 " fill-opacity="1" fill-rule="nonzero"/><path fill="#000000" d="M 176.488281 236.804688 L 254.871094 236.804688 L 254.871094 224.195312 L 176.488281 224.195312 Z M 258.554688 244.175781 L 172.808594 244.175781 C 170.773438 244.175781 169.125 242.523438 169.125 240.492188 L 169.125 220.511719 C 169.125 218.476562 170.773438 216.824219 172.808594 216.824219 L 258.554688 216.824219 C 260.589844 216.824219 262.238281 218.476562 262.238281 220.511719 L 262.238281 240.492188 C 262.238281 242.523438 260.589844 244.175781 258.554688 244.175781 " fill-opacity="1" fill-rule="nonzero"/><path fill="#000000" d="M 232.867188 193.019531 L 311.246094 193.019531 L 311.246094 180.414062 L 232.867188 180.414062 Z M 314.929688 200.390625 L 229.183594 200.390625 C 227.148438 200.390625 225.5 198.742188 225.5 196.707031 L 225.5 176.730469 C 225.5 174.691406 227.148438 173.042969 229.183594 173.042969 L 314.929688 173.042969 C 316.96875 173.042969 318.613281 174.691406 318.613281 176.730469 L 318.613281 196.707031 C 318.613281 198.742188 316.96875 200.390625 314.929688 200.390625 " fill-opacity="1" fill-rule="nonzero"/><path fill="#000000" d="M 289.242188 149.238281 L 367.625 149.238281 L 367.625 136.632812 L 289.242188 136.632812 Z M 371.308594 156.609375 L 285.558594 156.609375 C 283.527344 156.609375 281.875 154.960938 281.875 152.925781 L 281.875 132.949219 C 281.875 130.914062 283.527344 129.261719 285.558594 129.261719 L 371.308594 129.261719 C 373.34375 129.261719 374.992188 130.914062 374.992188 132.949219 L 374.992188 152.925781 C 374.992188 154.960938 373.34375 156.609375 371.308594 156.609375 " fill-opacity="1" fill-rule="nonzero"/><path fill="#000000" d="M 113.300781 245.019531 L 129.371094 245.019531 L 148.105469 153.683594 C 148.316406 152.667969 148.941406 151.785156 149.835938 151.253906 C 150.726562 150.722656 151.800781 150.59375 152.792969 150.898438 L 190.117188 162.324219 C 191.660156 162.796875 192.71875 164.230469 192.71875 165.847656 L 192.71875 203.261719 L 206.75 203.261719 L 206.75 147.957031 L 169.65625 137.039062 C 168.089844 136.578125 167.011719 135.136719 167.011719 133.5 L 167.011719 87.011719 C 167.011719 85.683594 167.730469 84.449219 168.890625 83.796875 C 170.050781 83.144531 171.472656 83.171875 172.609375 83.863281 L 198.292969 99.503906 L 243.71875 99.503906 L 243.71875 87.234375 L 201.261719 87.234375 C 200.613281 87.234375 199.96875 87.058594 199.402344 86.730469 L 169.6875 69.347656 L 125.765625 69.347656 L 91.734375 107.566406 L 71.539062 153.542969 L 83.433594 156.144531 L 103.328125 113.230469 C 103.480469 112.902344 103.679688 112.597656 103.921875 112.328125 L 121.328125 92.777344 C 122.34375 91.632812 123.960938 91.238281 125.390625 91.785156 C 126.816406 92.332031 127.761719 93.699219 127.761719 95.226562 L 127.761719 145.960938 C 127.761719 146.144531 127.75 146.320312 127.722656 146.496094 Z M 132.375 252.390625 L 109.042969 252.390625 C 107.972656 252.390625 106.953125 251.925781 106.253906 251.117188 C 105.554688 250.304688 105.242188 249.226562 105.398438 248.171875 L 120.394531 145.695312 L 120.394531 104.90625 L 109.78125 116.828125 L 88.875 161.929688 C 88.148438 163.496094 86.433594 164.347656 84.746094 163.976562 L 65.570312 159.789062 C 64.492188 159.550781 63.574219 158.839844 63.074219 157.855469 C 62.574219 156.871094 62.539062 155.714844 62.984375 154.699219 L 85.222656 104.070312 C 85.378906 103.71875 85.589844 103.386719 85.84375 103.101562 L 121.046875 63.5625 C 121.304688 63.195312 121.621094 62.878906 121.988281 62.625 C 122.558594 62.199219 123.246094 61.949219 123.96875 61.910156 C 124.285156 61.890625 124.601562 61.914062 124.910156 61.976562 L 170.695312 61.976562 C 171.449219 61.976562 172.148438 62.199219 172.730469 62.585938 L 202.261719 79.863281 L 247.398438 79.863281 C 249.433594 79.863281 251.082031 81.511719 251.082031 83.546875 L 251.082031 103.191406 C 251.082031 105.226562 249.433594 106.875 247.398438 106.875 L 197.242188 106.875 C 196.453125 106.875 195.722656 106.628906 195.125 106.203125 L 174.378906 93.570312 L 174.378906 130.742188 L 211.472656 141.664062 C 213.042969 142.125 214.117188 143.5625 214.117188 145.199219 L 214.117188 206.945312 C 214.117188 208.980469 212.464844 210.632812 210.433594 210.632812 L 189.035156 210.632812 C 187.003906 210.632812 185.351562 208.980469 185.351562 206.945312 L 185.351562 168.574219 L 154.507812 159.136719 L 135.980469 249.445312 C 135.628906 251.160156 134.121094 252.390625 132.375 252.390625 " fill-opacity="1" fill-rule="nonzero"/><path fill="#000000" d="M 149.324219 7.1875 C 138.5625 7.1875 129.808594 15.949219 129.808594 26.71875 C 129.808594 37.488281 138.5625 46.25 149.324219 46.25 C 160.085938 46.25 168.84375 37.488281 168.84375 26.71875 C 168.84375 15.949219 160.085938 7.1875 149.324219 7.1875 Z M 149.324219 53.621094 C 134.5 53.621094 122.441406 41.554688 122.441406 26.71875 C 122.441406 11.882812 134.5 -0.183594 149.324219 -0.183594 C 164.148438 -0.183594 176.207031 11.882812 176.207031 26.71875 C 176.207031 41.554688 164.148438 53.621094 149.324219 53.621094 " fill-opacity="1" fill-rule="nonzero"/><path fill="#000000" d="M 34.972656 203.339844 L 89.773438 215.496094 L 97.453125 180.824219 L 42.652344 168.667969 Z M 92.574219 223.578125 C 92.308594 223.578125 92.039062 223.550781 91.777344 223.492188 L 29.78125 209.742188 C 28.828125 209.53125 28 208.949219 27.472656 208.121094 C 26.949219 207.300781 26.769531 206.300781 26.984375 205.347656 L 36.257812 163.476562 C 36.695312 161.492188 38.660156 160.238281 40.648438 160.675781 L 102.644531 174.425781 C 104.628906 174.867188 105.882812 176.835938 105.441406 178.824219 L 96.167969 220.691406 C 95.957031 221.644531 95.375 222.476562 94.550781 223 C 93.957031 223.386719 93.269531 223.578125 92.574219 223.578125 " fill-opacity="1" fill-rule="nonzero"/><path fill="#000000" d="M 65.570312 166.203125 L 77.722656 168.902344 L 77.789062 168.605469 C 78.5 165.402344 76.472656 162.222656 73.277344 161.515625 L 72.71875 161.390625 C 69.519531 160.683594 66.34375 162.710938 65.632812 165.910156 Z M 80.523438 176.980469 C 80.257812 176.980469 79.988281 176.953125 79.726562 176.894531 L 60.378906 172.601562 C 58.394531 172.164062 57.140625 170.195312 57.582031 168.207031 L 58.445312 164.3125 C 60.03125 157.144531 67.148438 152.609375 74.3125 154.195312 L 74.871094 154.316406 C 82.035156 155.910156 86.566406 163.03125 84.980469 170.199219 L 84.117188 174.09375 C 83.90625 175.050781 83.324219 175.878906 82.5 176.40625 C 81.90625 176.785156 81.21875 176.980469 80.523438 176.980469 " fill-opacity="1" fill-rule="nonzero"/><path fill="#000000" d="M 42.273438 170.382812 L 46.632812 174.566406 C 58.464844 185.921875 75.457031 189.6875 90.976562 184.402344 L 97.125 182.3125 L 97.453125 180.824219 L 42.652344 168.667969 Z M 76.820312 194.132812 C 63.875 194.132812 51.226562 189.1875 41.535156 179.890625 L 35.679688 174.273438 C 34.75 173.378906 34.351562 172.070312 34.632812 170.8125 L 36.257812 163.476562 C 36.46875 162.523438 37.050781 161.691406 37.875 161.164062 C 38.695312 160.644531 39.695312 160.464844 40.648438 160.675781 L 102.644531 174.425781 C 104.628906 174.867188 105.882812 176.835938 105.441406 178.824219 L 103.871094 185.929688 C 103.589844 187.1875 102.675781 188.203125 101.460938 188.621094 L 93.347656 191.386719 C 87.925781 193.230469 82.34375 194.132812 76.820312 194.132812 " fill-opacity="1" fill-rule="nonzero"/></svg>