<svg width="489" height="75" viewBox="0 0 489 75" fill="none" xmlns="http://www.w3.org/2000/svg">
<g clip-path="url(#clip0)">
<path d="M116.773 0C100.12 0 89.6408 12.6645 89.6408 28.179C89.6408 43.8567 100.12 56.8147 116.773 56.8147C130.257 56.8147 139.909 49.2837 142.996 37.3736L133.201 37.3002C131.689 44.3827 124.312 47.9953 116.549 47.9953C105.621 47.9953 99.2883 39.4816 99.2883 28.179C99.2883 16.8764 105.772 8.7379 116.549 8.7379C125.115 8.7379 130.796 14.3199 131.725 20.8641H141.116C140.733 8.20784 130.563 0 116.773 0Z" fill="black"/>
<path d="M166.543 15.2128C155.848 15.2128 147.334 23.808 147.334 35.4939C147.334 47.8444 155.848 55.9095 166.543 55.9095C177.015 55.9095 185.537 47.8444 185.537 35.4939C185.537 23.808 177.015 15.2128 166.543 15.2128ZM166.543 47.9993C160.362 47.9993 155.766 42.9556 155.766 35.498C155.766 28.2524 160.362 23.1312 166.543 23.1312C172.501 23.1312 177.096 28.2565 177.096 35.498C177.096 42.9556 172.497 47.9993 166.543 47.9993Z" fill="black"/>
<path d="M235.368 14.4667C228.159 14.4667 223.225 19.3229 221.953 24.5542H220.828C221.382 19.6001 216.188 14.4667 209.676 14.4667C204.954 14.4667 202.112 16.3994 200.126 19.5634H198.32C198.479 18.1771 198.471 16.8275 198.291 15.9672H189.777V55.1552H198.291V36.7701C198.291 26.756 202.442 22.5237 208.844 22.5237C214.72 22.5237 215.702 26.3687 215.702 37.9037V55.1552H224.143V37.6019C224.143 26.2178 228.738 22.5237 234.92 22.5237C240.42 22.5237 242.003 26.3687 242.003 37.4511V55.1593H250.443V33.9812C250.447 19.7429 245.921 14.4667 235.368 14.4667Z" fill="black"/>
<path d="M302.53 14.4667C295.312 14.4667 290.387 19.3229 289.106 24.5542H287.989C288.544 19.6001 283.341 14.4667 276.829 14.4667C272.107 14.4667 269.273 16.3994 267.287 19.5634H265.481C265.632 18.1771 265.624 16.8275 265.452 15.9672H256.939V55.1552H265.452V36.7701C265.452 26.756 269.591 22.5237 276.005 22.5237C281.881 22.5237 282.864 26.3687 282.864 37.9037V55.1552H291.296V37.6019C291.296 26.2178 295.891 22.5237 302.073 22.5237C307.574 22.5237 309.156 26.3687 309.156 37.4511V55.1593H317.596V33.9812C317.6 19.7429 313.082 14.4667 302.53 14.4667Z" fill="black"/>
<path d="M358.213 15.9753H349.772V36.1667C349.772 45.8179 345.854 48.982 339.219 48.982C333.576 48.982 332.593 45.7446 332.593 35.498V15.9753H324.079V38.6539C324.079 51.9952 329.05 56.6639 337.645 56.6639C343.252 56.6639 346.963 53.7567 348.924 50.3235H349.935C349.829 50.9677 349.776 51.5467 349.776 51.9259C349.776 53.5813 349.85 54.7067 350.151 55.1634H358.747V54.5559C358.523 53.9565 358.523 52.8311 358.523 51.3184L358.213 15.9753Z" fill="black"/>
<path d="M387.677 14.4667C382.16 14.4667 378.878 16.2444 376.688 19.5634H374.882C375.008 18.3565 374.971 17.1741 374.792 15.9672H366.36V55.1552H374.792V36.0892C374.792 26.0628 381.051 22.5237 385.72 22.5237C392.134 22.5237 393.553 26.1444 393.553 37.9771V55.1552H401.993V33.9812C401.993 20.2688 398.005 14.4667 387.677 14.4667Z" fill="black"/>
<path d="M417.981 15.9713H409.541V55.1593H417.981V15.9713Z" fill="black"/>
<path d="M448.441 54.3275L446.561 47.3184C444.591 48.3011 443.164 48.9004 441.578 48.9004C439.315 48.9004 438.867 47.4693 438.867 43.8567V23.4329H448.587V15.9753H437.766C439.91 13.3005 440.359 7.05799 439.091 4.66455H430.577V15.9753H424.473V23.4329H430.581V45.8179C430.581 52.0686 433.37 56.2887 441.052 56.2887C444.065 56.2887 447.009 55.302 448.441 54.3275Z" fill="black"/>
<path d="M413.761 1.20691C411.05 1.20691 408.86 3.39648 408.86 6.09981C408.86 8.81129 411.05 11.0009 413.761 11.0009C416.46 11.0009 418.654 8.81129 418.654 6.09981C418.654 3.39648 416.465 1.20691 413.761 1.20691Z" fill="black"/>
<path d="M479.12 64.3172C477.636 66.0501 475.357 68.1092 472.119 68.1092C469.085 68.1092 465.106 66.1765 464.518 61.1694H456.327C456.38 62.8045 456.543 64.4966 457.22 66.1846C457.99 68.2845 459.409 70.2988 461.26 71.7095C465.061 74.5352 469.399 75.1183 473.485 74.9837C477.779 74.7676 482.345 72.8716 485.379 69.1449C488.286 65.5934 489 61.2673 489 57.4549L488.992 37.761V15.9713H480.747V36.8599C480.543 45.928 476.686 48.9779 470.231 48.9779C464.58 48.9779 463.605 45.7405 463.605 35.4939V15.9713H455.083V38.6498C455.083 51.9912 460.066 56.668 468.649 56.668C474.9 56.668 478.827 53.0472 480.559 49.1288L480.792 48.403V55.6037C480.792 60.2805 480.559 62.6251 479.12 64.3172Z" fill="black"/>
<path d="M1.95315 65.7525C9.1174 54.1441 17.1012 48.7089 29.6315 51.9626C37.2525 53.9483 44.7185 56.774 53.9215 56.774C64.9309 56.774 70.1175 54.5396 71.4957 53.8138C71.7445 53.6874 71.8913 53.4468 71.8913 53.1614V32.8599C71.8913 32.5011 71.5161 32.2606 71.2022 32.4114C69.4407 33.2595 64.2459 35.2208 53.9256 35.2208C40.1272 35.2208 30.2636 28.7377 17.8393 28.7377C7.32328 28.7377 1.83082 31.2697 0.3996 32.0281C0.146792 32.1627 0 32.4033 0 32.6805V65.6872C0 66.4497 1.30889 66.7881 1.95315 65.7525Z" fill="black"/>
<path d="M71.8749 24.5746C71.8749 24.8437 71.7241 25.0924 71.4917 25.2188C70.0971 25.9324 64.9187 28.1709 53.9093 28.1709C40.119 28.1709 30.2473 21.6959 17.823 21.6959C7.97568 21.6959 2.53216 23.9059 0.705416 24.8152C0.375134 24.9783 0 24.754 0 24.387V4.07743C0 3.80832 0.142714 3.56775 0.38329 3.44135C1.81451 2.66257 7.30697 0.150879 17.823 0.150879C30.2432 0.150879 40.119 6.62582 53.9093 6.62582C64.2295 6.62582 69.4325 4.65642 71.1777 3.82871C71.4998 3.67784 71.8749 3.91026 71.8749 4.26499V24.5746Z" fill="black"/>
</g>
<defs>
<clipPath id="clip0">
<rect width="489" height="75" fill="white"/>
</clipPath>
</defs>
</svg>
