<svg xmlns="http://www.w3.org/2000/svg" xmlns:xlink="http://www.w3.org/1999/xlink" width="500" zoomAndPan="magnify" viewBox="0 0 375 374.999991" height="500" preserveAspectRatio="xMidYMid meet" version="1.0"><defs><clipPath id="ff12211329"><path d="M 0 30.234375 L 375 30.234375 L 375 344.484375 L 0 344.484375 Z M 0 30.234375 " clip-rule="nonzero"/></clipPath><clipPath id="2a10fb8730"><path d="M 0 356.667969 L 375 356.667969 L 375 375 L 0 375 Z M 0 356.667969 " clip-rule="nonzero"/></clipPath></defs><path fill="#000000" d="M 46.917969 140.050781 C 48.742188 141.882812 50.65625 143.625 52.65625 145.273438 C 54.652344 146.917969 56.730469 148.460938 58.878906 149.902344 C 61.03125 151.34375 63.25 152.675781 65.535156 153.898438 C 67.816406 155.121094 70.15625 156.226562 72.546875 157.214844 C 74.941406 158.207031 77.378906 159.078125 79.859375 159.828125 C 82.335938 160.574219 84.847656 161.203125 87.390625 161.703125 C 89.929688 162.203125 92.492188 162.578125 95.070312 162.828125 C 97.648438 163.074219 100.230469 163.195312 102.824219 163.1875 C 105.414062 163.195312 107.996094 163.074219 110.574219 162.828125 C 113.152344 162.578125 115.710938 162.203125 118.253906 161.703125 C 120.792969 161.203125 123.304688 160.578125 125.785156 159.828125 C 128.261719 159.078125 130.699219 158.207031 133.09375 157.21875 C 135.484375 156.226562 137.824219 155.121094 140.105469 153.898438 C 142.390625 152.679688 144.609375 151.347656 146.757812 149.90625 C 148.910156 148.464844 150.984375 146.921875 152.984375 145.277344 C 154.984375 143.628906 156.894531 141.890625 158.722656 140.054688 L 161.535156 137.246094 C 161.816406 136.964844 162.066406 136.660156 162.289062 136.328125 C 162.507812 136 162.695312 135.652344 162.847656 135.285156 C 163 134.917969 163.113281 134.539062 163.191406 134.148438 C 163.269531 133.761719 163.308594 133.367188 163.308594 132.96875 C 163.308594 132.574219 163.269531 132.179688 163.191406 131.789062 C 163.113281 131.398438 163 131.023438 162.847656 130.65625 C 162.695312 130.289062 162.507812 129.941406 162.289062 129.609375 C 162.066406 129.28125 161.816406 128.976562 161.535156 128.695312 L 158.722656 125.894531 C 157.808594 124.980469 156.871094 124.089844 155.910156 123.222656 C 154.953125 122.355469 153.972656 121.511719 152.972656 120.691406 C 151.972656 119.871094 150.953125 119.074219 149.914062 118.304688 C 148.875 117.535156 147.816406 116.789062 146.742188 116.070312 C 145.667969 115.351562 144.574219 114.660156 143.464844 113.996094 C 142.355469 113.332031 141.230469 112.695312 140.089844 112.085938 C 138.945312 111.476562 137.792969 110.894531 136.621094 110.34375 C 135.453125 109.789062 134.269531 109.265625 133.074219 108.769531 C 131.878906 108.277344 130.671875 107.8125 129.453125 107.375 C 128.234375 106.941406 127.007812 106.535156 125.769531 106.160156 C 124.53125 105.785156 123.285156 105.4375 122.03125 105.125 C 120.773438 104.808594 119.511719 104.527344 118.242188 104.273438 C 116.972656 104.023438 115.699219 103.800781 114.421875 103.613281 C 113.140625 103.421875 111.855469 103.265625 110.570312 103.136719 C 109.28125 103.011719 107.992188 102.914062 106.699219 102.851562 C 105.40625 102.789062 104.113281 102.757812 102.820312 102.757812 C 101.527344 102.757812 100.234375 102.789062 98.941406 102.851562 C 97.648438 102.914062 96.359375 103.011719 95.070312 103.136719 C 93.78125 103.265625 92.5 103.421875 91.21875 103.613281 C 89.9375 103.800781 88.664062 104.023438 87.394531 104.273438 C 86.125 104.527344 84.863281 104.808594 83.609375 105.125 C 82.355469 105.4375 81.109375 105.785156 79.871094 106.160156 C 78.632812 106.535156 77.402344 106.941406 76.183594 107.375 C 74.964844 107.8125 73.761719 108.277344 72.566406 108.769531 C 71.371094 109.265625 70.1875 109.789062 69.015625 110.34375 C 67.847656 110.894531 66.691406 111.476562 65.550781 112.085938 C 64.410156 112.695312 63.285156 113.332031 62.175781 113.996094 C 61.066406 114.660156 59.972656 115.351562 58.898438 116.070312 C 57.820312 116.789062 56.761719 117.535156 55.722656 118.304688 C 54.683594 119.074219 53.664062 119.871094 52.664062 120.691406 C 51.664062 121.511719 50.6875 122.355469 49.726562 123.222656 C 48.769531 124.089844 47.832031 124.980469 46.917969 125.894531 L 44.109375 128.699219 C 43.832031 128.980469 43.578125 129.285156 43.359375 129.617188 C 43.136719 129.945312 42.953125 130.292969 42.800781 130.660156 C 42.648438 131.027344 42.535156 131.40625 42.457031 131.792969 C 42.378906 132.183594 42.339844 132.574219 42.339844 132.972656 C 42.339844 133.371094 42.378906 133.761719 42.457031 134.152344 C 42.535156 134.539062 42.648438 134.917969 42.800781 135.285156 C 42.953125 135.652344 43.136719 136 43.359375 136.328125 C 43.578125 136.660156 43.832031 136.964844 44.109375 137.246094 Z M 102.824219 120.886719 C 103.617188 120.886719 104.402344 120.964844 105.183594 121.117188 C 105.960938 121.273438 106.71875 121.503906 107.453125 121.804688 C 108.1875 122.109375 108.882812 122.484375 109.542969 122.921875 C 110.203125 123.363281 110.816406 123.867188 111.375 124.425781 C 111.9375 124.988281 112.4375 125.597656 112.878906 126.257812 C 113.320312 126.917969 113.695312 127.613281 114 128.347656 C 114.300781 129.082031 114.53125 129.835938 114.6875 130.613281 C 114.84375 131.394531 114.917969 132.179688 114.917969 132.972656 C 114.917969 133.765625 114.84375 134.550781 114.6875 135.332031 C 114.53125 136.109375 114.300781 136.863281 114 137.597656 C 113.695312 138.332031 113.320312 139.027344 112.878906 139.6875 C 112.4375 140.347656 111.9375 140.957031 111.375 141.519531 C 110.816406 142.078125 110.203125 142.582031 109.542969 143.023438 C 108.882812 143.460938 108.1875 143.835938 107.453125 144.136719 C 106.71875 144.441406 105.960938 144.671875 105.183594 144.828125 C 104.402344 144.980469 103.617188 145.058594 102.824219 145.058594 C 102.027344 145.058594 101.242188 144.980469 100.460938 144.828125 C 99.683594 144.671875 98.925781 144.441406 98.191406 144.136719 C 97.460938 143.835938 96.761719 143.460938 96.101562 143.023438 C 95.441406 142.582031 94.832031 142.078125 94.269531 141.519531 C 93.707031 140.957031 93.207031 140.347656 92.765625 139.6875 C 92.324219 139.027344 91.949219 138.332031 91.648438 137.597656 C 91.34375 136.863281 91.113281 136.109375 90.957031 135.332031 C 90.804688 134.550781 90.726562 133.765625 90.726562 132.972656 C 90.726562 132.179688 90.804688 131.394531 90.957031 130.613281 C 91.113281 129.835938 91.34375 129.082031 91.648438 128.347656 C 91.949219 127.613281 92.324219 126.917969 92.765625 126.257812 C 93.207031 125.597656 93.707031 124.988281 94.269531 124.425781 C 94.832031 123.867188 95.441406 123.363281 96.101562 122.921875 C 96.761719 122.484375 97.460938 122.109375 98.191406 121.804688 C 98.925781 121.503906 99.683594 121.273438 100.460938 121.117188 C 101.242188 120.964844 102.027344 120.886719 102.824219 120.886719 Z M 121.160156 148.558594 C 122.097656 147.488281 122.929688 146.34375 123.660156 145.121094 C 124.390625 143.902344 125.003906 142.625 125.503906 141.296875 C 126.003906 139.964844 126.378906 138.601562 126.632812 137.203125 C 126.886719 135.804688 127.015625 134.394531 127.015625 132.972656 C 127.015625 131.550781 126.886719 130.140625 126.632812 128.742188 C 126.378906 127.34375 126.003906 125.980469 125.503906 124.648438 C 125.003906 123.320312 124.390625 122.042969 123.660156 120.824219 C 122.929688 119.601562 122.097656 118.457031 121.160156 117.386719 C 126.304688 118.84375 131.199219 120.890625 135.847656 123.523438 C 140.5 126.160156 144.769531 129.308594 148.65625 132.972656 C 144.769531 136.636719 140.5 139.785156 135.851562 142.421875 C 131.199219 145.054688 126.304688 147.101562 121.160156 148.558594 Z M 84.484375 117.386719 C 83.546875 118.457031 82.714844 119.601562 81.984375 120.824219 C 81.257812 122.042969 80.640625 123.320312 80.140625 124.648438 C 79.640625 125.980469 79.265625 127.34375 79.011719 128.742188 C 78.757812 130.140625 78.628906 131.550781 78.628906 132.972656 C 78.628906 134.394531 78.757812 135.804688 79.011719 137.203125 C 79.265625 138.601562 79.640625 139.964844 80.140625 141.296875 C 80.640625 142.625 81.257812 143.902344 81.984375 145.121094 C 82.714844 146.34375 83.546875 147.488281 84.484375 148.558594 C 79.339844 147.101562 74.445312 145.058594 69.792969 142.421875 C 65.144531 139.789062 60.875 136.636719 56.988281 132.972656 C 60.875 129.308594 65.144531 126.160156 69.796875 123.523438 C 74.445312 120.886719 79.339844 118.84375 84.484375 117.386719 Z M 84.484375 117.386719 " fill-opacity="1" fill-rule="nonzero"/><path fill="#000000" d="M 350.804688 211.53125 L 338.710938 211.53125 L 338.710938 120.886719 C 338.710938 120.488281 338.671875 120.097656 338.59375 119.707031 C 338.515625 119.320312 338.402344 118.941406 338.25 118.574219 C 338.097656 118.207031 337.910156 117.859375 337.691406 117.527344 C 337.46875 117.199219 337.21875 116.894531 336.9375 116.613281 C 336.65625 116.332031 336.351562 116.082031 336.023438 115.863281 C 335.691406 115.640625 335.34375 115.457031 334.976562 115.304688 C 334.609375 115.152344 334.230469 115.039062 333.839844 114.960938 C 333.453125 114.882812 333.058594 114.84375 332.660156 114.84375 L 308.46875 114.84375 C 308.070312 114.84375 307.675781 114.882812 307.289062 114.960938 C 306.898438 115.039062 306.519531 115.152344 306.152344 115.304688 C 305.785156 115.457031 305.4375 115.640625 305.105469 115.863281 C 304.777344 116.082031 304.472656 116.332031 304.191406 116.613281 C 303.910156 116.894531 303.660156 117.199219 303.4375 117.53125 C 303.21875 117.859375 303.03125 118.207031 302.878906 118.574219 C 302.726562 118.941406 302.613281 119.320312 302.535156 119.707031 C 302.457031 120.097656 302.417969 120.488281 302.417969 120.886719 L 302.417969 211.53125 L 290.324219 211.53125 L 290.324219 84.628906 C 290.324219 84.230469 290.285156 83.839844 290.207031 83.449219 C 290.128906 83.0625 290.015625 82.683594 289.863281 82.316406 C 289.710938 81.949219 289.523438 81.601562 289.304688 81.269531 C 289.082031 80.941406 288.832031 80.636719 288.550781 80.355469 C 288.269531 80.074219 287.964844 79.824219 287.632812 79.605469 C 287.304688 79.382812 286.957031 79.199219 286.589844 79.046875 C 286.222656 78.894531 285.84375 78.777344 285.453125 78.703125 C 285.066406 78.625 284.671875 78.585938 284.273438 78.585938 L 260.082031 78.585938 C 259.683594 78.585938 259.289062 78.625 258.902344 78.703125 C 258.511719 78.777344 258.132812 78.894531 257.765625 79.046875 C 257.398438 79.199219 257.050781 79.382812 256.71875 79.605469 C 256.390625 79.824219 256.085938 80.074219 255.804688 80.355469 C 255.523438 80.636719 255.273438 80.941406 255.050781 81.269531 C 254.832031 81.601562 254.644531 81.949219 254.492188 82.316406 C 254.339844 82.683594 254.226562 83.0625 254.148438 83.449219 C 254.070312 83.839844 254.03125 84.230469 254.03125 84.628906 L 254.03125 211.53125 L 241.933594 211.53125 L 241.933594 114.84375 C 241.933594 114.445312 241.898438 114.054688 241.820312 113.664062 C 241.742188 113.277344 241.628906 112.898438 241.476562 112.53125 C 241.324219 112.164062 241.136719 111.816406 240.917969 111.484375 C 240.695312 111.15625 240.445312 110.851562 240.164062 110.570312 C 239.882812 110.289062 239.578125 110.039062 239.246094 109.820312 C 238.917969 109.597656 238.570312 109.414062 238.203125 109.261719 C 237.835938 109.109375 237.457031 108.996094 237.066406 108.917969 C 236.675781 108.839844 236.285156 108.800781 235.886719 108.800781 L 211.695312 108.800781 C 211.296875 108.800781 210.902344 108.839844 210.511719 108.917969 C 210.125 108.996094 209.746094 109.109375 209.378906 109.261719 C 209.011719 109.414062 208.664062 109.597656 208.332031 109.820312 C 208.003906 110.039062 207.699219 110.289062 207.417969 110.570312 C 207.136719 110.851562 206.886719 111.15625 206.664062 111.484375 C 206.445312 111.816406 206.257812 112.164062 206.105469 112.53125 C 205.953125 112.898438 205.839844 113.277344 205.761719 113.664062 C 205.683594 114.054688 205.644531 114.445312 205.644531 114.84375 L 205.644531 211.53125 L 193.546875 211.53125 L 193.546875 223.617188 L 350.804688 223.617188 Z M 314.515625 126.929688 L 326.613281 126.929688 L 326.613281 211.53125 L 314.515625 211.53125 Z M 266.128906 90.671875 L 278.226562 90.671875 L 278.226562 211.53125 L 266.128906 211.53125 Z M 217.742188 120.886719 L 229.839844 120.886719 L 229.839844 211.53125 L 217.742188 211.53125 Z M 217.742188 120.886719 " fill-opacity="1" fill-rule="nonzero"/><g clip-path="url(#ff12211329)"><path fill="#000000" d="M 350.804688 30.242188 L 24.195312 30.242188 C 23.402344 30.242188 22.609375 30.28125 21.820312 30.359375 C 21.035156 30.4375 20.25 30.550781 19.472656 30.707031 C 18.695312 30.859375 17.929688 31.054688 17.171875 31.28125 C 16.414062 31.511719 15.667969 31.777344 14.933594 32.082031 C 14.203125 32.386719 13.488281 32.722656 12.789062 33.097656 C 12.089844 33.46875 11.410156 33.875 10.753906 34.316406 C 10.09375 34.753906 9.457031 35.226562 8.84375 35.730469 C 8.234375 36.230469 7.644531 36.761719 7.085938 37.320312 C 6.527344 37.882812 5.996094 38.46875 5.492188 39.078125 C 4.988281 39.691406 4.515625 40.328125 4.078125 40.984375 C 3.636719 41.644531 3.230469 42.320312 2.855469 43.019531 C 2.484375 43.71875 2.144531 44.433594 1.839844 45.164062 C 1.539062 45.894531 1.273438 46.640625 1.042969 47.398438 C 0.8125 48.15625 0.621094 48.921875 0.464844 49.699219 C 0.308594 50.472656 0.195312 51.257812 0.117188 52.042969 C 0.0390625 52.832031 0 53.621094 0 54.414062 L 0 259.875 C 0 260.667969 0.0390625 261.457031 0.117188 262.246094 C 0.195312 263.03125 0.308594 263.8125 0.464844 264.589844 C 0.621094 265.367188 0.8125 266.132812 1.042969 266.890625 C 1.273438 267.648438 1.539062 268.394531 1.839844 269.125 C 2.144531 269.855469 2.484375 270.570312 2.855469 271.269531 C 3.230469 271.96875 3.636719 272.644531 4.078125 273.304688 C 4.515625 273.960938 4.988281 274.597656 5.492188 275.210938 C 5.996094 275.820312 6.527344 276.40625 7.085938 276.96875 C 7.644531 277.527344 8.234375 278.058594 8.84375 278.558594 C 9.457031 279.0625 10.09375 279.535156 10.753906 279.972656 C 11.410156 280.414062 12.089844 280.820312 12.789062 281.191406 C 13.488281 281.566406 14.203125 281.902344 14.933594 282.207031 C 15.667969 282.511719 16.414062 282.777344 17.171875 283.007812 C 17.929688 283.234375 18.695312 283.429688 19.472656 283.582031 C 20.25 283.738281 21.035156 283.851562 21.820312 283.929688 C 22.609375 284.007812 23.402344 284.046875 24.195312 284.046875 L 144.074219 284.046875 L 140.039062 308.21875 L 139.113281 308.21875 C 138.320312 308.21875 137.53125 308.257812 136.742188 308.335938 C 135.953125 308.414062 135.171875 308.527344 134.394531 308.683594 C 133.617188 308.835938 132.847656 309.03125 132.089844 309.257812 C 131.332031 309.488281 130.585938 309.757812 129.855469 310.058594 C 129.121094 310.363281 128.40625 310.699219 127.707031 311.074219 C 127.007812 311.445312 126.332031 311.851562 125.671875 312.292969 C 125.011719 312.734375 124.378906 313.203125 123.765625 313.707031 C 123.152344 314.207031 122.566406 314.738281 122.003906 315.296875 C 121.445312 315.859375 120.914062 316.445312 120.410156 317.054688 C 119.910156 317.667969 119.4375 318.304688 118.996094 318.960938 C 118.554688 319.621094 118.148438 320.296875 117.777344 320.996094 C 117.402344 321.695312 117.0625 322.410156 116.761719 323.140625 C 116.457031 323.871094 116.191406 324.617188 115.960938 325.375 C 115.730469 326.132812 115.539062 326.898438 115.382812 327.675781 C 115.230469 328.453125 115.113281 329.234375 115.035156 330.023438 C 114.957031 330.808594 114.917969 331.597656 114.917969 332.390625 L 114.917969 338.433594 C 114.917969 338.832031 114.957031 339.222656 115.035156 339.613281 C 115.113281 340 115.226562 340.378906 115.378906 340.746094 C 115.53125 341.113281 115.71875 341.460938 115.9375 341.792969 C 116.160156 342.121094 116.410156 342.425781 116.691406 342.707031 C 116.972656 342.988281 117.277344 343.238281 117.605469 343.457031 C 117.9375 343.679688 118.285156 343.863281 118.652344 344.015625 C 119.019531 344.167969 119.398438 344.285156 119.789062 344.359375 C 120.175781 344.4375 120.570312 344.476562 120.96875 344.476562 L 254.03125 344.476562 C 254.429688 344.476562 254.824219 344.4375 255.210938 344.359375 C 255.601562 344.285156 255.980469 344.167969 256.347656 344.015625 C 256.714844 343.863281 257.0625 343.679688 257.390625 343.457031 C 257.722656 343.238281 258.027344 342.988281 258.308594 342.707031 C 258.589844 342.425781 258.839844 342.121094 259.0625 341.792969 C 259.28125 341.460938 259.46875 341.113281 259.621094 340.746094 C 259.773438 340.378906 259.886719 340 259.964844 339.613281 C 260.042969 339.222656 260.082031 338.832031 260.082031 338.433594 L 260.082031 332.390625 C 260.082031 331.597656 260.042969 330.808594 259.964844 330.023438 C 259.886719 329.234375 259.769531 328.453125 259.617188 327.675781 C 259.460938 326.898438 259.269531 326.132812 259.039062 325.375 C 258.808594 324.617188 258.542969 323.871094 258.238281 323.140625 C 257.9375 322.410156 257.597656 321.695312 257.222656 320.996094 C 256.851562 320.296875 256.445312 319.621094 256.003906 318.960938 C 255.5625 318.304688 255.089844 317.667969 254.589844 317.054688 C 254.085938 316.445312 253.554688 315.859375 252.996094 315.296875 C 252.433594 314.738281 251.847656 314.207031 251.234375 313.707031 C 250.621094 313.203125 249.988281 312.734375 249.328125 312.292969 C 248.667969 311.851562 247.992188 311.445312 247.292969 311.074219 C 246.59375 310.699219 245.878906 310.363281 245.144531 310.058594 C 244.414062 309.757812 243.667969 309.488281 242.910156 309.257812 C 242.152344 309.03125 241.382812 308.835938 240.605469 308.683594 C 239.828125 308.527344 239.046875 308.414062 238.257812 308.335938 C 237.46875 308.257812 236.679688 308.21875 235.886719 308.21875 L 234.960938 308.21875 L 230.925781 284.046875 L 350.804688 284.046875 C 351.597656 284.046875 352.390625 284.007812 353.179688 283.929688 C 353.964844 283.851562 354.75 283.738281 355.527344 283.582031 C 356.304688 283.429688 357.070312 283.234375 357.828125 283.007812 C 358.585938 282.777344 359.332031 282.511719 360.066406 282.207031 C 360.796875 281.902344 361.511719 281.566406 362.210938 281.191406 C 362.910156 280.820312 363.589844 280.414062 364.246094 279.972656 C 364.90625 279.535156 365.542969 279.0625 366.15625 278.558594 C 366.765625 278.058594 367.355469 277.527344 367.914062 276.96875 C 368.472656 276.40625 369.003906 275.820312 369.507812 275.210938 C 370.011719 274.597656 370.480469 273.960938 370.921875 273.304688 C 371.363281 272.644531 371.769531 271.96875 372.144531 271.269531 C 372.515625 270.570312 372.855469 269.855469 373.160156 269.125 C 373.460938 268.394531 373.726562 267.648438 373.957031 266.890625 C 374.1875 266.132812 374.378906 265.367188 374.535156 264.589844 C 374.691406 263.8125 374.804688 263.03125 374.882812 262.246094 C 374.960938 261.457031 375 260.667969 375 259.875 L 375 54.414062 C 375 53.621094 374.960938 52.832031 374.882812 52.042969 C 374.804688 51.257812 374.691406 50.472656 374.535156 49.699219 C 374.378906 48.921875 374.1875 48.15625 373.957031 47.398438 C 373.726562 46.640625 373.460938 45.894531 373.160156 45.164062 C 372.855469 44.433594 372.515625 43.71875 372.144531 43.019531 C 371.769531 42.320312 371.363281 41.644531 370.921875 40.984375 C 370.480469 40.328125 370.011719 39.691406 369.507812 39.078125 C 369.003906 38.46875 368.472656 37.882812 367.914062 37.320312 C 367.355469 36.761719 366.765625 36.230469 366.15625 35.730469 C 365.542969 35.226562 364.90625 34.753906 364.246094 34.316406 C 363.589844 33.875 362.910156 33.46875 362.210938 33.097656 C 361.511719 32.722656 360.796875 32.386719 360.066406 32.082031 C 359.332031 31.777344 358.585938 31.511719 357.828125 31.28125 C 357.070312 31.054688 356.304688 30.859375 355.527344 30.707031 C 354.75 30.550781 353.964844 30.4375 353.179688 30.359375 C 352.390625 30.28125 351.597656 30.242188 350.804688 30.242188 Z M 24.195312 42.328125 L 350.804688 42.328125 C 351.601562 42.328125 352.386719 42.40625 353.167969 42.558594 C 353.945312 42.714844 354.703125 42.945312 355.4375 43.246094 C 356.167969 43.550781 356.867188 43.925781 357.527344 44.363281 C 358.1875 44.804688 358.796875 45.304688 359.359375 45.867188 C 359.921875 46.429688 360.421875 47.039062 360.863281 47.699219 C 361.304688 48.359375 361.679688 49.054688 361.980469 49.789062 C 362.285156 50.523438 362.515625 51.277344 362.671875 52.054688 C 362.824219 52.835938 362.902344 53.621094 362.902344 54.414062 L 12.097656 54.414062 C 12.097656 53.621094 12.175781 52.835938 12.328125 52.054688 C 12.484375 51.277344 12.714844 50.523438 13.019531 49.789062 C 13.320312 49.054688 13.695312 48.359375 14.136719 47.699219 C 14.578125 47.039062 15.078125 46.429688 15.640625 45.867188 C 16.203125 45.304688 16.8125 44.804688 17.472656 44.363281 C 18.132812 43.925781 18.832031 43.550781 19.5625 43.246094 C 20.296875 42.945312 21.054688 42.714844 21.832031 42.558594 C 22.613281 42.40625 23.398438 42.328125 24.195312 42.328125 Z M 362.902344 66.5 L 362.902344 235.703125 L 12.097656 235.703125 L 12.097656 66.5 Z M 247.984375 332.390625 L 127.015625 332.390625 C 127.015625 331.597656 127.09375 330.8125 127.25 330.03125 C 127.402344 329.253906 127.632812 328.5 127.9375 327.765625 C 128.242188 327.03125 128.613281 326.335938 129.054688 325.675781 C 129.496094 325.015625 129.996094 324.40625 130.558594 323.84375 C 131.121094 323.285156 131.730469 322.78125 132.390625 322.339844 C 133.050781 321.902344 133.75 321.527344 134.484375 321.226562 C 135.21875 320.921875 135.972656 320.691406 136.753906 320.539062 C 137.53125 320.382812 138.320312 320.304688 139.113281 320.304688 L 235.886719 320.304688 C 236.679688 320.304688 237.46875 320.382812 238.246094 320.535156 C 239.027344 320.691406 239.78125 320.921875 240.515625 321.226562 C 241.25 321.527344 241.945312 321.902344 242.609375 322.339844 C 243.269531 322.78125 243.878906 323.285156 244.441406 323.84375 C 245.003906 324.40625 245.503906 325.015625 245.945312 325.675781 C 246.386719 326.335938 246.757812 327.03125 247.0625 327.765625 C 247.367188 328.5 247.597656 329.253906 247.75 330.03125 C 247.90625 330.8125 247.984375 331.597656 247.984375 332.390625 Z M 222.703125 308.21875 L 152.296875 308.21875 L 156.332031 284.046875 L 218.667969 284.046875 Z M 350.804688 271.960938 L 24.195312 271.960938 C 23.398438 271.960938 22.613281 271.882812 21.832031 271.730469 C 21.054688 271.574219 20.296875 271.34375 19.5625 271.042969 C 18.832031 270.738281 18.132812 270.363281 17.472656 269.925781 C 16.8125 269.484375 16.203125 268.980469 15.640625 268.421875 C 15.078125 267.859375 14.578125 267.25 14.136719 266.589844 C 13.695312 265.929688 13.320312 265.234375 13.019531 264.5 C 12.714844 263.765625 12.484375 263.011719 12.328125 262.234375 C 12.175781 261.453125 12.097656 260.667969 12.097656 259.875 L 12.097656 247.789062 L 362.902344 247.789062 L 362.902344 259.875 C 362.902344 260.667969 362.824219 261.453125 362.671875 262.234375 C 362.515625 263.011719 362.285156 263.765625 361.980469 264.5 C 361.679688 265.234375 361.304688 265.929688 360.863281 266.589844 C 360.421875 267.25 359.921875 267.859375 359.359375 268.421875 C 358.796875 268.980469 358.1875 269.484375 357.527344 269.925781 C 356.867188 270.363281 356.167969 270.738281 355.4375 271.042969 C 354.703125 271.34375 353.945312 271.574219 353.167969 271.730469 C 352.386719 271.882812 351.601562 271.960938 350.804688 271.960938 Z M 350.804688 271.960938 " fill-opacity="1" fill-rule="nonzero"/></g><path fill="#000000" d="M 42.339844 175.273438 L 54.433594 175.273438 L 54.433594 217.574219 L 42.339844 217.574219 Z M 42.339844 175.273438 " fill-opacity="1" fill-rule="nonzero"/><path fill="#000000" d="M 84.675781 175.273438 L 66.53125 175.273438 C 66.136719 175.273438 65.742188 175.3125 65.351562 175.390625 C 64.960938 175.46875 64.585938 175.582031 64.21875 175.734375 C 63.851562 175.886719 63.503906 176.070312 63.171875 176.292969 C 62.839844 176.511719 62.535156 176.761719 62.253906 177.042969 C 61.972656 177.324219 61.722656 177.628906 61.503906 177.960938 C 61.28125 178.289062 61.097656 178.636719 60.945312 179.003906 C 60.792969 179.371094 60.675781 179.75 60.601562 180.136719 C 60.523438 180.527344 60.484375 180.917969 60.484375 181.316406 L 60.484375 211.53125 C 60.484375 211.929688 60.523438 212.320312 60.601562 212.710938 C 60.675781 213.097656 60.792969 213.476562 60.945312 213.84375 C 61.097656 214.210938 61.28125 214.558594 61.503906 214.886719 C 61.722656 215.21875 61.972656 215.523438 62.253906 215.804688 C 62.535156 216.085938 62.839844 216.335938 63.171875 216.554688 C 63.503906 216.777344 63.851562 216.960938 64.21875 217.113281 C 64.585938 217.265625 64.960938 217.378906 65.351562 217.457031 C 65.742188 217.535156 66.136719 217.574219 66.53125 217.574219 L 84.675781 217.574219 C 85.074219 217.574219 85.46875 217.535156 85.855469 217.457031 C 86.246094 217.378906 86.625 217.265625 86.992188 217.113281 C 87.359375 216.960938 87.707031 216.777344 88.039062 216.554688 C 88.367188 216.335938 88.671875 216.085938 88.953125 215.804688 C 89.234375 215.523438 89.484375 215.21875 89.707031 214.886719 C 89.925781 214.558594 90.113281 214.210938 90.265625 213.84375 C 90.417969 213.476562 90.53125 213.097656 90.609375 212.710938 C 90.6875 212.320312 90.726562 211.929688 90.726562 211.53125 L 90.726562 181.316406 C 90.726562 180.917969 90.6875 180.527344 90.609375 180.136719 C 90.53125 179.75 90.417969 179.371094 90.265625 179.003906 C 90.113281 178.636719 89.925781 178.289062 89.707031 177.960938 C 89.484375 177.628906 89.234375 177.324219 88.953125 177.042969 C 88.671875 176.761719 88.367188 176.511719 88.039062 176.292969 C 87.707031 176.070312 87.359375 175.886719 86.992188 175.734375 C 86.625 175.582031 86.246094 175.46875 85.855469 175.390625 C 85.46875 175.3125 85.074219 175.273438 84.675781 175.273438 Z M 78.628906 205.488281 L 72.582031 205.488281 L 72.582031 187.359375 L 78.628906 187.359375 Z M 78.628906 205.488281 " fill-opacity="1" fill-rule="nonzero"/><path fill="#000000" d="M 120.96875 175.273438 L 102.824219 175.273438 C 102.425781 175.273438 102.03125 175.3125 101.644531 175.390625 C 101.253906 175.46875 100.875 175.582031 100.507812 175.734375 C 100.140625 175.886719 99.792969 176.070312 99.460938 176.292969 C 99.132812 176.511719 98.828125 176.761719 98.546875 177.042969 C 98.265625 177.324219 98.015625 177.628906 97.792969 177.960938 C 97.574219 178.289062 97.386719 178.636719 97.234375 179.003906 C 97.082031 179.371094 96.96875 179.75 96.890625 180.136719 C 96.8125 180.527344 96.773438 180.917969 96.773438 181.316406 L 96.773438 211.53125 C 96.773438 211.929688 96.8125 212.320312 96.890625 212.710938 C 96.96875 213.097656 97.082031 213.476562 97.234375 213.84375 C 97.386719 214.210938 97.574219 214.558594 97.792969 214.886719 C 98.015625 215.21875 98.265625 215.523438 98.546875 215.804688 C 98.828125 216.085938 99.132812 216.335938 99.460938 216.554688 C 99.792969 216.777344 100.140625 216.960938 100.507812 217.113281 C 100.875 217.265625 101.253906 217.378906 101.644531 217.457031 C 102.03125 217.535156 102.425781 217.574219 102.824219 217.574219 L 120.96875 217.574219 C 121.363281 217.574219 121.757812 217.535156 122.148438 217.457031 C 122.539062 217.378906 122.914062 217.265625 123.28125 217.113281 C 123.648438 216.960938 123.996094 216.777344 124.328125 216.554688 C 124.660156 216.335938 124.964844 216.085938 125.246094 215.804688 C 125.527344 215.523438 125.777344 215.21875 125.996094 214.886719 C 126.21875 214.558594 126.402344 214.210938 126.554688 213.84375 C 126.707031 213.476562 126.824219 213.097656 126.898438 212.710938 C 126.976562 212.320312 127.015625 211.929688 127.015625 211.53125 L 127.015625 181.316406 C 127.015625 180.917969 126.976562 180.527344 126.898438 180.136719 C 126.824219 179.75 126.707031 179.371094 126.554688 179.003906 C 126.402344 178.636719 126.21875 178.289062 125.996094 177.960938 C 125.777344 177.628906 125.527344 177.324219 125.246094 177.042969 C 124.964844 176.761719 124.660156 176.511719 124.328125 176.292969 C 123.996094 176.070312 123.648438 175.886719 123.28125 175.734375 C 122.914062 175.582031 122.539062 175.46875 122.148438 175.390625 C 121.757812 175.3125 121.363281 175.273438 120.96875 175.273438 Z M 114.917969 205.488281 L 108.871094 205.488281 L 108.871094 187.359375 L 114.917969 187.359375 Z M 114.917969 205.488281 " fill-opacity="1" fill-rule="nonzero"/><path fill="#000000" d="M 157.257812 175.273438 L 139.113281 175.273438 C 138.714844 175.273438 138.324219 175.3125 137.933594 175.390625 C 137.542969 175.46875 137.164062 175.582031 136.796875 175.734375 C 136.429688 175.886719 136.082031 176.070312 135.753906 176.292969 C 135.421875 176.511719 135.117188 176.761719 134.835938 177.042969 C 134.554688 177.324219 134.304688 177.628906 134.082031 177.960938 C 133.863281 178.289062 133.675781 178.636719 133.523438 179.003906 C 133.371094 179.371094 133.257812 179.75 133.179688 180.136719 C 133.101562 180.527344 133.066406 180.917969 133.066406 181.316406 L 133.066406 211.53125 C 133.066406 211.929688 133.101562 212.320312 133.179688 212.710938 C 133.257812 213.097656 133.371094 213.476562 133.523438 213.84375 C 133.675781 214.210938 133.863281 214.558594 134.082031 214.886719 C 134.304688 215.21875 134.554688 215.523438 134.835938 215.804688 C 135.117188 216.085938 135.421875 216.335938 135.753906 216.554688 C 136.082031 216.777344 136.429688 216.960938 136.796875 217.113281 C 137.164062 217.265625 137.542969 217.378906 137.933594 217.457031 C 138.324219 217.535156 138.714844 217.574219 139.113281 217.574219 L 157.257812 217.574219 C 157.65625 217.574219 158.046875 217.535156 158.4375 217.457031 C 158.828125 217.378906 159.207031 217.265625 159.574219 217.113281 C 159.941406 216.960938 160.289062 216.777344 160.617188 216.554688 C 160.949219 216.335938 161.253906 216.085938 161.535156 215.804688 C 161.816406 215.523438 162.066406 215.21875 162.285156 214.886719 C 162.507812 214.558594 162.695312 214.210938 162.847656 213.84375 C 162.996094 213.476562 163.113281 213.097656 163.191406 212.710938 C 163.269531 212.320312 163.304688 211.929688 163.304688 211.53125 L 163.304688 181.316406 C 163.304688 180.917969 163.269531 180.527344 163.191406 180.136719 C 163.113281 179.75 162.996094 179.371094 162.847656 179.003906 C 162.695312 178.636719 162.507812 178.289062 162.285156 177.960938 C 162.066406 177.628906 161.816406 177.324219 161.535156 177.042969 C 161.253906 176.761719 160.949219 176.511719 160.617188 176.292969 C 160.289062 176.070312 159.941406 175.886719 159.574219 175.734375 C 159.207031 175.582031 158.828125 175.46875 158.4375 175.390625 C 158.046875 175.3125 157.65625 175.273438 157.257812 175.273438 Z M 151.210938 205.488281 L 145.160156 205.488281 L 145.160156 187.359375 L 151.210938 187.359375 Z M 151.210938 205.488281 " fill-opacity="1" fill-rule="nonzero"/><g clip-path="url(#2a10fb8730)"><path fill="#ffffff" d="M 350.804688 356.675781 L 24.195312 356.675781 C 23.402344 356.675781 22.609375 356.714844 21.820312 356.792969 C 21.035156 356.867188 20.25 356.984375 19.472656 357.140625 C 18.695312 357.292969 17.929688 357.488281 17.171875 357.714844 C 16.414062 357.945312 15.667969 358.214844 14.933594 358.515625 C 14.203125 358.820312 13.488281 359.15625 12.789062 359.53125 C 12.089844 359.90625 11.410156 360.3125 10.753906 360.753906 C 10.09375 361.191406 9.457031 361.664062 8.84375 362.167969 C 8.234375 362.667969 7.644531 363.199219 7.085938 363.761719 C 6.527344 364.320312 5.996094 364.90625 5.492188 365.519531 C 4.988281 366.132812 4.515625 366.769531 4.078125 367.425781 C 3.636719 368.085938 3.230469 368.765625 2.855469 369.464844 C 2.484375 370.164062 2.144531 370.878906 1.839844 371.609375 C 1.539062 372.34375 1.273438 373.085938 1.042969 373.84375 C 0.8125 374.605469 0.621094 375.371094 0.464844 376.148438 C 0.308594 376.925781 0.195312 377.707031 0.117188 378.496094 C 0.0390625 379.285156 0 380.074219 0 380.867188 L 0 586.511719 C 0 587.304688 0.0390625 588.097656 0.117188 588.886719 C 0.195312 589.671875 0.308594 590.457031 0.464844 591.234375 C 0.621094 592.011719 0.8125 592.777344 1.042969 593.535156 C 1.273438 594.292969 1.539062 595.039062 1.839844 595.773438 C 2.144531 596.503906 2.484375 597.21875 2.855469 597.917969 C 3.230469 598.617188 3.636719 599.296875 4.078125 599.953125 C 4.515625 600.613281 4.988281 601.25 5.492188 601.863281 C 5.996094 602.472656 6.527344 603.0625 7.085938 603.621094 C 7.644531 604.179688 8.234375 604.710938 8.84375 605.214844 C 9.457031 605.71875 10.09375 606.191406 10.753906 606.628906 C 11.410156 607.070312 12.089844 607.476562 12.789062 607.851562 C 13.488281 608.222656 14.203125 608.5625 14.933594 608.867188 C 15.667969 609.167969 16.414062 609.433594 17.171875 609.664062 C 17.929688 609.894531 18.695312 610.085938 19.472656 610.242188 C 20.25 610.398438 21.035156 610.511719 21.820312 610.589844 C 22.609375 610.667969 23.402344 610.707031 24.195312 610.707031 L 144.074219 610.707031 L 140.039062 634.902344 L 139.113281 634.902344 C 138.320312 634.902344 137.53125 634.941406 136.742188 635.015625 C 135.953125 635.09375 135.171875 635.210938 134.394531 635.367188 C 133.617188 635.519531 132.847656 635.710938 132.089844 635.941406 C 131.332031 636.171875 130.585938 636.4375 129.855469 636.742188 C 129.121094 637.046875 128.40625 637.382812 127.707031 637.757812 C 127.007812 638.132812 126.332031 638.539062 125.671875 638.976562 C 125.011719 639.417969 124.378906 639.890625 123.765625 640.390625 C 123.152344 640.894531 122.566406 641.425781 122.003906 641.988281 C 121.445312 642.546875 120.914062 643.132812 120.410156 643.746094 C 119.910156 644.359375 119.4375 644.996094 118.996094 645.652344 C 118.554688 646.3125 118.148438 646.992188 117.777344 647.691406 C 117.402344 648.386719 117.0625 649.105469 116.761719 649.835938 C 116.457031 650.566406 116.191406 651.3125 115.960938 652.070312 C 115.730469 652.828125 115.539062 653.597656 115.382812 654.375 C 115.230469 655.152344 115.113281 655.933594 115.035156 656.722656 C 114.957031 657.511719 114.917969 658.300781 114.917969 659.09375 L 114.917969 665.144531 C 114.917969 665.539062 114.957031 665.933594 115.035156 666.324219 C 115.113281 666.710938 115.226562 667.089844 115.378906 667.457031 C 115.53125 667.824219 115.71875 668.171875 115.9375 668.503906 C 116.160156 668.832031 116.410156 669.136719 116.691406 669.417969 C 116.972656 669.699219 117.277344 669.949219 117.605469 670.171875 C 117.9375 670.390625 118.285156 670.578125 118.652344 670.730469 C 119.019531 670.882812 119.398438 670.996094 119.789062 671.074219 C 120.175781 671.152344 120.570312 671.191406 120.96875 671.191406 L 254.03125 671.191406 C 254.429688 671.191406 254.824219 671.152344 255.210938 671.074219 C 255.601562 670.996094 255.980469 670.882812 256.347656 670.730469 C 256.714844 670.578125 257.0625 670.390625 257.390625 670.171875 C 257.722656 669.949219 258.027344 669.699219 258.308594 669.417969 C 258.589844 669.136719 258.839844 668.832031 259.0625 668.503906 C 259.28125 668.171875 259.46875 667.824219 259.621094 667.457031 C 259.773438 667.089844 259.886719 666.710938 259.964844 666.324219 C 260.042969 665.933594 260.082031 665.539062 260.082031 665.144531 L 260.082031 659.09375 C 260.082031 658.300781 260.042969 657.511719 259.964844 656.722656 C 259.886719 655.933594 259.769531 655.152344 259.617188 654.375 C 259.460938 653.597656 259.269531 652.828125 259.039062 652.070312 C 258.808594 651.3125 258.542969 650.566406 258.238281 649.835938 C 257.9375 649.105469 257.597656 648.386719 257.222656 647.6875 C 256.851562 646.992188 256.445312 646.3125 256.003906 645.652344 C 255.5625 644.992188 255.089844 644.359375 254.589844 643.746094 C 254.085938 643.132812 253.554688 642.546875 252.996094 641.988281 C 252.433594 641.425781 251.847656 640.894531 251.234375 640.390625 C 250.621094 639.890625 249.988281 639.417969 249.328125 638.976562 C 248.667969 638.539062 247.992188 638.132812 247.292969 637.757812 C 246.59375 637.382812 245.878906 637.046875 245.144531 636.742188 C 244.414062 636.4375 243.667969 636.171875 242.910156 635.941406 C 242.152344 635.710938 241.382812 635.519531 240.605469 635.367188 C 239.828125 635.210938 239.046875 635.09375 238.257812 635.015625 C 237.46875 634.941406 236.679688 634.902344 235.886719 634.902344 L 234.960938 634.902344 L 230.925781 610.707031 L 350.804688 610.707031 C 351.597656 610.707031 352.390625 610.667969 353.179688 610.589844 C 353.964844 610.511719 354.75 610.398438 355.527344 610.242188 C 356.304688 610.085938 357.070312 609.894531 357.828125 609.664062 C 358.585938 609.433594 359.332031 609.167969 360.066406 608.867188 C 360.796875 608.5625 361.511719 608.222656 362.210938 607.851562 C 362.910156 607.476562 363.589844 607.070312 364.246094 606.628906 C 364.90625 606.191406 365.542969 605.71875 366.15625 605.214844 C 366.765625 604.710938 367.355469 604.179688 367.914062 603.621094 C 368.472656 603.0625 369.003906 602.472656 369.507812 601.863281 C 370.011719 601.25 370.480469 600.613281 370.921875 599.953125 C 371.363281 599.296875 371.769531 598.617188 372.144531 597.917969 C 372.515625 597.21875 372.855469 596.503906 373.160156 595.773438 C 373.460938 595.039062 373.726562 594.292969 373.957031 593.535156 C 374.1875 592.777344 374.378906 592.011719 374.535156 591.234375 C 374.691406 590.457031 374.804688 589.671875 374.882812 588.886719 C 374.960938 588.097656 375 587.304688 375 586.511719 L 375 380.867188 C 375 380.074219 374.960938 379.285156 374.882812 378.496094 C 374.804688 377.707031 374.691406 376.925781 374.535156 376.148438 C 374.378906 375.371094 374.1875 374.605469 373.957031 373.84375 C 373.726562 373.085938 373.460938 372.34375 373.160156 371.609375 C 372.855469 370.878906 372.515625 370.164062 372.144531 369.464844 C 371.769531 368.765625 371.363281 368.085938 370.921875 367.425781 C 370.480469 366.769531 370.011719 366.132812 369.507812 365.519531 C 369.003906 364.90625 368.472656 364.320312 367.914062 363.761719 C 367.355469 363.199219 366.765625 362.667969 366.15625 362.167969 C 365.542969 361.664062 364.90625 361.191406 364.246094 360.753906 C 363.589844 360.3125 362.910156 359.90625 362.210938 359.53125 C 361.511719 359.15625 360.796875 358.820312 360.066406 358.515625 C 359.332031 358.214844 358.585938 357.945312 357.828125 357.714844 C 357.070312 357.488281 356.304688 357.292969 355.527344 357.140625 C 354.75 356.984375 353.964844 356.867188 353.179688 356.792969 C 352.390625 356.714844 351.597656 356.675781 350.804688 356.675781 Z M 24.195312 368.773438 L 350.804688 368.773438 C 351.601562 368.773438 352.386719 368.847656 353.167969 369.003906 C 353.945312 369.160156 354.703125 369.386719 355.4375 369.691406 C 356.167969 369.996094 356.867188 370.367188 357.527344 370.808594 C 358.1875 371.25 358.796875 371.753906 359.359375 372.316406 C 359.921875 372.875 360.421875 373.488281 360.863281 374.148438 C 361.304688 374.808594 361.679688 375.503906 361.980469 376.238281 C 362.285156 376.972656 362.515625 377.730469 362.671875 378.507812 C 362.824219 379.289062 362.902344 380.074219 362.902344 380.867188 L 12.097656 380.867188 C 12.097656 380.074219 12.175781 379.289062 12.328125 378.507812 C 12.484375 377.730469 12.714844 376.972656 13.019531 376.238281 C 13.320312 375.503906 13.695312 374.808594 14.136719 374.148438 C 14.578125 373.488281 15.078125 372.875 15.640625 372.316406 C 16.203125 371.753906 16.8125 371.25 17.472656 370.808594 C 18.132812 370.367188 18.832031 369.996094 19.5625 369.691406 C 20.296875 369.386719 21.054688 369.160156 21.832031 369.003906 C 22.613281 368.847656 23.398438 368.773438 24.195312 368.773438 Z M 362.902344 392.964844 L 362.902344 562.320312 L 12.097656 562.320312 L 12.097656 392.964844 Z M 247.984375 659.09375 L 127.015625 659.09375 C 127.015625 658.300781 127.09375 657.511719 127.25 656.734375 C 127.402344 655.957031 127.632812 655.199219 127.9375 654.464844 C 128.242188 653.730469 128.613281 653.035156 129.054688 652.375 C 129.496094 651.714844 129.996094 651.101562 130.558594 650.539062 C 131.121094 649.980469 131.730469 649.476562 132.390625 649.035156 C 133.050781 648.59375 133.75 648.222656 134.484375 647.917969 C 135.21875 647.613281 135.972656 647.386719 136.753906 647.230469 C 137.53125 647.074219 138.320312 646.996094 139.113281 646.996094 L 235.886719 646.996094 C 236.679688 646.996094 237.46875 647.074219 238.246094 647.230469 C 239.027344 647.386719 239.78125 647.613281 240.515625 647.917969 C 241.25 648.222656 241.945312 648.59375 242.609375 649.035156 C 243.269531 649.476562 243.878906 649.980469 244.441406 650.539062 C 245.003906 651.101562 245.503906 651.714844 245.945312 652.375 C 246.386719 653.035156 246.757812 653.730469 247.0625 654.464844 C 247.367188 655.199219 247.597656 655.957031 247.75 656.734375 C 247.90625 657.511719 247.984375 658.300781 247.984375 659.09375 Z M 222.703125 634.902344 L 152.296875 634.902344 L 156.332031 610.707031 L 218.667969 610.707031 Z M 350.804688 598.609375 L 24.195312 598.609375 C 23.398438 598.609375 22.613281 598.53125 21.832031 598.378906 C 21.054688 598.222656 20.296875 597.992188 19.5625 597.691406 C 18.832031 597.386719 18.132812 597.011719 17.472656 596.570312 C 16.8125 596.128906 16.203125 595.628906 15.640625 595.066406 C 15.078125 594.503906 14.578125 593.894531 14.136719 593.234375 C 13.695312 592.574219 13.320312 591.875 13.019531 591.144531 C 12.714844 590.410156 12.484375 589.652344 12.328125 588.875 C 12.175781 588.09375 12.097656 587.308594 12.097656 586.511719 L 12.097656 574.417969 L 362.902344 574.417969 L 362.902344 586.511719 C 362.902344 587.308594 362.824219 588.09375 362.671875 588.875 C 362.515625 589.652344 362.285156 590.410156 361.980469 591.144531 C 361.679688 591.875 361.304688 592.574219 360.863281 593.234375 C 360.421875 593.894531 359.921875 594.503906 359.359375 595.066406 C 358.796875 595.628906 358.1875 596.128906 357.527344 596.570312 C 356.867188 597.011719 356.167969 597.386719 355.4375 597.691406 C 354.703125 597.992188 353.945312 598.222656 353.167969 598.378906 C 352.386719 598.53125 351.601562 598.609375 350.804688 598.609375 Z M 350.804688 598.609375 " fill-opacity="1" fill-rule="nonzero"/></g></svg>