<svg xmlns="http://www.w3.org/2000/svg" xmlns:xlink="http://www.w3.org/1999/xlink" width="500" zoomAndPan="magnify" viewBox="0 0 375 374.999991" height="500" preserveAspectRatio="xMidYMid meet" version="1.0"><path fill="#009845" d="M 17.746094 29.269531 L 357.1875 29.269531 C 358.851562 29.269531 360.183594 30.570312 360.183594 32.234375 L 360.183594 261.980469 C 360.183594 263.613281 358.851562 264.910156 357.1875 264.910156 L 17.746094 264.910156 C 16.113281 264.910156 14.78125 263.613281 14.78125 261.980469 L 14.78125 32.234375 C 14.78125 30.570312 16.113281 29.269531 17.746094 29.269531 Z M 7.425781 14.488281 C 3.328125 14.488281 0 17.785156 0 21.878906 L 0 272.367188 C 0 276.460938 3.328125 279.757812 7.390625 279.757812 C 7.425781 279.757812 7.425781 279.757812 7.425781 279.757812 L 149.980469 279.757812 C 154.074219 279.757812 157.402344 283.085938 157.402344 287.183594 L 157.402344 300.632812 C 157.402344 325.167969 137.496094 345.078125 112.960938 345.078125 L 109.464844 345.078125 L 109.464844 360.257812 L 265.535156 360.257812 L 265.535156 345.078125 L 262.039062 345.078125 C 237.503906 345.078125 217.597656 325.167969 217.597656 300.632812 L 217.597656 287.183594 C 217.597656 283.085938 220.925781 279.757812 225.019531 279.757812 L 367.609375 279.757812 C 371.671875 279.757812 375 276.460938 375 272.367188 L 375 21.878906 C 375 17.785156 371.671875 14.488281 367.609375 14.488281 L 7.425781 14.488281 " fill-opacity="1" fill-rule="nonzero"/><path fill="#009845" d="M 63.789062 210.910156 C 61.421875 210.945312 59.558594 212.875 59.59375 215.238281 C 59.625 217.535156 61.488281 219.398438 63.789062 219.433594 L 141.558594 219.433594 C 143.921875 219.398438 145.785156 217.46875 145.753906 215.140625 C 145.71875 212.808594 143.855469 210.945312 141.558594 210.910156 L 63.789062 210.910156 " fill-opacity="1" fill-rule="nonzero"/><path fill="#009845" d="M 63.789062 192.898438 C 61.421875 192.933594 59.558594 194.863281 59.59375 197.226562 C 59.625 199.523438 61.488281 201.390625 63.789062 201.421875 L 141.558594 201.421875 C 143.921875 201.390625 145.785156 199.457031 145.753906 197.128906 C 145.71875 194.796875 143.855469 192.933594 141.558594 192.898438 L 63.789062 192.898438 " fill-opacity="1" fill-rule="nonzero"/><path fill="#009845" d="M 106.933594 62.828125 L 106.933594 114.363281 L 151.542969 140.097656 C 164.394531 113.097656 152.976562 80.804688 125.976562 67.957031 C 119.984375 65.09375 113.523438 63.359375 106.933594 62.828125 " fill-opacity="1" fill-rule="nonzero"/><path fill="#009845" d="M 98.410156 62.828125 L 98.410156 119.257812 L 147.285156 147.488281 C 130.335938 172.125 96.644531 178.351562 72.011719 161.40625 C 47.375 144.460938 41.117188 110.769531 58.0625 86.132812 C 67.316406 72.683594 82.132812 64.125 98.410156 62.828125 " fill-opacity="1" fill-rule="nonzero"/><path fill="#009845" d="M 264.636719 130.042969 L 246.058594 100.613281 C 243.5625 96.621094 238.304688 95.453125 234.308594 97.953125 C 233.542969 98.417969 232.875 99.015625 232.3125 99.714844 L 208.339844 128.578125 L 201.75 123.121094 L 225.753906 94.257812 C 231.777344 87.03125 242.53125 86.03125 249.753906 92.058594 C 251.121094 93.191406 252.320312 94.554688 253.285156 96.054688 L 271.863281 125.484375 C 274.390625 129.480469 279.617188 130.675781 283.613281 128.148438 C 284.511719 127.582031 285.277344 126.882812 285.878906 126.050781 L 313.441406 89.230469 L 309.347656 86.167969 L 324.929688 80.972656 L 324.328125 97.417969 L 320.269531 94.355469 L 292.703125 131.144531 C 287.074219 138.699219 276.390625 140.230469 268.867188 134.605469 C 267.199219 133.339844 265.769531 131.808594 264.671875 130.042969 L 264.636719 130.042969 " fill-opacity="1" fill-rule="nonzero"/><path fill="#009845" d="M 305.386719 127.679688 L 321.632812 127.679688 L 321.632812 204.984375 L 305.386719 204.984375 L 305.386719 127.679688 " fill-opacity="1" fill-rule="nonzero"/><path fill="#009845" d="M 267.734375 204.984375 L 267.734375 161.007812 L 284.011719 161.007812 L 284.011719 204.984375 L 267.734375 204.984375 " fill-opacity="1" fill-rule="nonzero"/><path fill="#009845" d="M 230.082031 204.984375 L 230.082031 117.925781 L 246.359375 117.925781 L 246.359375 204.984375 L 230.082031 204.984375 " fill-opacity="1" fill-rule="nonzero"/><path fill="#009845" d="M 208.707031 204.984375 L 192.460938 204.984375 L 192.460938 142.460938 L 208.707031 142.460938 L 208.707031 204.984375 " fill-opacity="1" fill-rule="nonzero"/></svg>