<svg width="96" height="96" xmlns="http://www.w3.org/2000/svg" xmlns:xlink="http://www.w3.org/1999/xlink" xml:space="preserve" overflow="hidden"><g transform="translate(-688 -312)"><path d="M717 338C718.7 338 720 336.7 720 335L720 329C720 327.3 718.7 326 717 326 715.3 326 714 327.3 714 329L714 335C714 336.7 715.3 338 717 338Z"/><path d="M708 380 724 380 724 388 708 388 708 380ZM708 368 724 368 724 376 708 376 708 368ZM708 356 724 356 724 364 708 364 708 356ZM744 356 744 364 728 364 728 356 744 356ZM764 356 764 364 748 364 748 356 764 356ZM764 376 748 376 748 368 764 368 764 376ZM764 388 748 388 748 380 764 380 764 388ZM728 376 728 368 744 368 744 376 728 376ZM728 388 728 380 744 380 744 388 728 388ZM702 394 770 394 770 350 702 350 702 394Z"/><path d="M755 338C756.7 338 758 336.7 758 335L758 329C758 327.3 756.7 326 755 326 753.3 326 752 327.3 752 329L752 335C752 336.7 753.3 338 755 338Z"/><path d="M762 332 762 335C762 338.9 758.9 342 755 342 751.1 342 748 338.9 748 335L748 332 724 332 724 335C724 338.9 720.9 342 717 342 713.1 342 710 338.9 710 335L710 332 702 332 702 346 770 346 770 332 762 332Z"/></g></svg>