<svg width="96" height="96" xmlns="http://www.w3.org/2000/svg" xmlns:xlink="http://www.w3.org/1999/xlink" xml:space="preserve" overflow="hidden"><g transform="translate(-299 -312)"><path d="M381 395.6 361 376.6 381 357.6 381 395.6ZM316.2 398 336 379.3 337.4 378C342.8 372.9 351.3 372.9 356.7 378L358.1 379.3 377.8 398 316.2 398ZM313 357.5 333 376.5 313 395.5 313 357.5ZM327 332 367 332 367 365.3 358 373.9C351.5 368.9 342.5 368.9 336 373.9L327 365.3 327 332ZM373 334.7 373 326 359 326 347 316 335 326 321 326 321 334.8 307 348.1 307 404 387 404 387 348.1 373 334.7Z"/><path d="M347 354.3C345.2 354.3 343.8 352.8 343.8 351.1 343.8 349.3 345.3 347.9 347 347.9 348.8 347.9 350.2 349.3 350.2 351.1 350.2 352.9 348.8 354.3 347 354.3ZM347 364C349.3 364 351.5 363.4 353.5 362.4 354.3 361.9 354.6 360.9 354.2 360.1 353.7 359.3 352.7 359 351.9 359.4 350.4 360.2 348.7 360.6 347 360.6 341.7 360.6 337.3 356.2 337.4 350.9 337.4 345.6 341.8 341.2 347.1 341.2 352.4 341.2 356.8 345.5 356.8 350.9L356.8 354.1C355 354.1 353.6 352.7 353.6 350.9 353.6 347.7 351.4 345 348.3 344.4 345.2 343.8 342.1 345.5 341 348.4 339.9 351.3 341 354.7 343.7 356.3 346.4 357.9 349.9 357.4 352 355 353.2 356.4 355 357.2 356.9 357.2 358.7 357.2 360.1 355.8 360.1 354L360.1 350.8C360.1 343.6 354.3 337.8 347.1 337.8 339.9 337.8 334.1 343.6 334.1 350.8 334 358.1 339.8 363.9 347 364Z"/></g></svg>