<svg width="96" height="96" xmlns="http://www.w3.org/2000/svg" xmlns:xlink="http://www.w3.org/1999/xlink" xml:space="preserve" overflow="hidden"><g transform="translate(-454 -312)"><path d="M510.1 323C510.1 327.418 506.518 331 502.1 331 497.682 331 494.1 327.418 494.1 323 494.1 318.582 497.682 315 502.1 315 506.518 315 510.1 318.582 510.1 323Z" fill="#FF3399"/><path d="M523.9 363.8 516.7 339C516.5 338 515.9 337.2 515.1 336.8 512.7 335.2 509.9 334.2 506.7 333.4 505.1 333.2 503.7 333 502.1 333 500.5 333 499.1 333.2 497.5 333.4 494.3 334 491.5 335.2 489.1 336.8 488.3 337.4 487.7 338 487.5 339L480.1 363.8C479.5 366 480.7 368.2 482.9 368.8 483.3 369 483.7 369 484.1 369 485.9 369 487.5 367.8 487.9 366.2L494.1 345.2 494.1 352.2 486.7 377 492.1 377 492.1 405 500.1 405 500.1 377 504.1 377 504.1 405 512.1 405 512.1 377 517.5 377 510.1 352.2 510.1 345.2 516.3 366.2C516.9 368 518.5 369 520.1 369 520.5 369 520.9 369 521.3 368.8 523.3 368.2 524.5 366 523.9 363.8Z" fill="#FF3399"/></g></svg>