<svg width="96" height="96" xmlns="http://www.w3.org/2000/svg" xmlns:xlink="http://www.w3.org/1999/xlink" xml:space="preserve" overflow="hidden"><g transform="translate(-952 -312)"><path d="M969 344.5C964.3 348.1 960.5 351.8 958 354.7 955.4 357.7 955.4 362.2 958 365.3 960.5 368.2 964.3 371.9 969 375.5L969 344.5Z"/><path d="M1042 354.7C1039.5 351.8 1035.7 348.1 1031 344.5L1031 375.4C1035.7 371.8 1039.5 368.1 1042 365.2 1044.7 362.2 1044.7 357.8 1042 354.7Z"/><path d="M1000 332C991.2 332 982.4 335.7 975 340.4L975 379.7C982.4 384.4 991.2 388.1 1000 388.1 1008.8 388.1 1017.6 384.4 1025 379.7L1025 340.4C1017.6 335.7 1008.8 332 1000 332ZM1018 365C1018 366.1 1017.1 367 1016 367 1014.9 367 1014 366.1 1014 365L1014 362 1010 362 1010 365C1010 366.1 1009.1 367 1008 367 1006.9 367 1006 366.1 1006 365L1006 362 1002 362 1002 365C1002 366.1 1001.1 367 1000 367 998.9 367 998 366.1 998 365L998 362 994 362 994 365C994 366.1 993.1 367 992 367 990.9 367 990 366.1 990 365L990 362 986 362 986 365C986 366.1 985.1 367 984 367 982.9 367 982 366.1 982 365L982 355C982 353.9 982.9 353 984 353 985.1 353 986 353.9 986 355L986 358 990 358 990 355C990 353.9 990.9 353 992 353 993.1 353 994 353.9 994 355L994 358 998 358 998 355C998 353.9 998.9 353 1000 353 1001.1 353 1002 353.9 1002 355L1002 358 1006 358 1006 355C1006 353.9 1006.9 353 1008 353 1009.1 353 1010 353.9 1010 355L1010 358 1014 358 1014 355C1014 353.9 1014.9 353 1016 353 1017.1 353 1018 353.9 1018 355L1018 365Z"/></g></svg>