<svg xmlns="http://www.w3.org/2000/svg" xmlns:xlink="http://www.w3.org/1999/xlink" width="500" zoomAndPan="magnify" viewBox="0 0 375 374.999991" height="500" preserveAspectRatio="xMidYMid meet" version="1.0"><path fill="#ffffff" d="M 368.75 118.75 L 6.25 118.75 C 2.800781 118.75 0 121.550781 0 125 L 0 368.75 C 0 372.199219 2.800781 375 6.25 375 L 368.75 375 C 372.199219 375 375 372.199219 375 368.75 L 375 125 C 375 121.550781 372.199219 118.75 368.75 118.75 Z M 362.5 362.5 L 12.5 362.5 L 12.5 131.25 L 362.5 131.25 Z M 362.5 362.5 " fill-opacity="1" fill-rule="nonzero"/><path fill="#ffffff" d="M 28.457031 293.09375 L 37.5 297.613281 L 37.5 343.75 C 37.5 347.199219 40.300781 350 43.75 350 L 81.25 350 C 84.699219 350 87.5 347.199219 87.5 343.75 L 87.5 297.613281 L 93.75 294.488281 L 100 297.613281 L 100 343.75 C 100 347.199219 102.800781 350 106.25 350 L 143.75 350 C 147.199219 350 150 347.199219 150 343.75 L 150 297.613281 L 156.25 294.488281 L 162.5 297.613281 L 162.5 343.75 C 162.5 347.199219 165.300781 350 168.75 350 L 206.25 350 C 209.699219 350 212.5 347.199219 212.5 343.75 L 212.5 297.613281 L 218.75 294.488281 L 225 297.613281 L 225 343.75 C 225 347.199219 227.800781 350 231.25 350 L 268.75 350 C 272.199219 350 275 347.199219 275 343.75 L 275 297.613281 L 281.25 294.488281 L 287.5 297.613281 L 287.5 343.75 C 287.5 347.199219 290.300781 350 293.75 350 L 331.25 350 C 334.699219 350 337.5 347.199219 337.5 343.75 L 337.5 297.613281 L 346.542969 293.085938 C 348.664062 292.03125 350 289.867188 350 287.5 L 350 256.25 C 350 243.75 342.574219 233.019531 331.9375 228.023438 C 335.363281 223.742188 337.5 218.394531 337.5 212.5 C 337.5 198.710938 326.289062 187.5 312.5 187.5 C 298.710938 187.5 287.5 198.710938 287.5 212.5 C 287.5 218.394531 289.636719 223.742188 293.0625 228.023438 C 288.363281 230.230469 284.324219 233.570312 281.25 237.695312 C 278.175781 233.570312 274.144531 230.230469 269.4375 228.023438 C 272.863281 223.742188 275 218.394531 275 212.5 C 275 198.710938 263.789062 187.5 250 187.5 C 236.210938 187.5 225 198.710938 225 212.5 C 225 218.394531 227.136719 223.742188 230.5625 228.023438 C 225.863281 230.230469 221.824219 233.570312 218.75 237.695312 C 215.675781 233.570312 211.644531 230.230469 206.9375 228.023438 C 210.363281 223.742188 212.5 218.394531 212.5 212.5 C 212.5 198.710938 201.289062 187.5 187.5 187.5 C 173.710938 187.5 162.5 198.710938 162.5 212.5 C 162.5 218.394531 164.636719 223.742188 168.0625 228.023438 C 163.363281 230.230469 159.324219 233.570312 156.25 237.695312 C 153.175781 233.570312 149.144531 230.230469 144.4375 228.023438 C 147.863281 223.742188 150 218.394531 150 212.5 C 150 198.710938 138.789062 187.5 125 187.5 C 111.210938 187.5 100 198.710938 100 212.5 C 100 218.394531 102.136719 223.742188 105.5625 228.023438 C 100.863281 230.230469 96.824219 233.570312 93.75 237.695312 C 90.675781 233.570312 86.644531 230.230469 81.9375 228.023438 C 85.363281 223.742188 87.5 218.394531 87.5 212.5 C 87.5 198.710938 76.289062 187.5 62.5 187.5 C 48.710938 187.5 37.5 198.710938 37.5 212.5 C 37.5 218.394531 39.636719 223.742188 43.0625 228.023438 C 32.429688 233.019531 25 243.75 25 256.25 L 25 287.5 C 25 289.867188 26.335938 292.03125 28.457031 293.09375 Z M 312.5 200 C 319.394531 200 325 205.605469 325 212.5 C 325 219.394531 319.394531 225 312.5 225 C 305.605469 225 300 219.394531 300 212.5 C 300 205.605469 305.605469 200 312.5 200 Z M 306.25 237.5 L 318.75 237.5 C 329.085938 237.5 337.5 245.914062 337.5 256.25 L 337.5 283.636719 L 328.457031 288.164062 C 326.335938 289.21875 325 291.382812 325 293.75 L 325 337.5 L 300 337.5 L 300 293.75 C 300 291.382812 298.664062 289.21875 296.542969 288.15625 L 287.5 283.636719 L 287.5 256.25 C 287.5 245.914062 295.914062 237.5 306.25 237.5 Z M 250 200 C 256.894531 200 262.5 205.605469 262.5 212.5 C 262.5 219.394531 256.894531 225 250 225 C 243.105469 225 237.5 219.394531 237.5 212.5 C 237.5 205.605469 243.105469 200 250 200 Z M 243.75 237.5 L 256.25 237.5 C 266.585938 237.5 275 245.914062 275 256.25 L 275 283.636719 L 265.957031 288.164062 C 263.835938 289.21875 262.5 291.382812 262.5 293.75 L 262.5 337.5 L 237.5 337.5 L 237.5 293.75 C 237.5 291.382812 236.164062 289.21875 234.042969 288.15625 L 225 283.636719 L 225 256.25 C 225 245.914062 233.414062 237.5 243.75 237.5 Z M 187.5 200 C 194.394531 200 200 205.605469 200 212.5 C 200 219.394531 194.394531 225 187.5 225 C 180.605469 225 175 219.394531 175 212.5 C 175 205.605469 180.605469 200 187.5 200 Z M 181.25 237.5 L 193.75 237.5 C 204.085938 237.5 212.5 245.914062 212.5 256.25 L 212.5 283.636719 L 203.457031 288.164062 C 201.335938 289.21875 200 291.382812 200 293.75 L 200 337.5 L 175 337.5 L 175 293.75 C 175 291.382812 173.664062 289.21875 171.542969 288.15625 L 162.5 283.636719 L 162.5 256.25 C 162.5 245.914062 170.914062 237.5 181.25 237.5 Z M 125 200 C 131.894531 200 137.5 205.605469 137.5 212.5 C 137.5 219.394531 131.894531 225 125 225 C 118.105469 225 112.5 219.394531 112.5 212.5 C 112.5 205.605469 118.105469 200 125 200 Z M 118.75 237.5 L 131.25 237.5 C 141.585938 237.5 150 245.914062 150 256.25 L 150 283.636719 L 140.957031 288.164062 C 138.835938 289.21875 137.5 291.382812 137.5 293.75 L 137.5 337.5 L 112.5 337.5 L 112.5 293.75 C 112.5 291.382812 111.164062 289.21875 109.042969 288.15625 L 100 283.636719 L 100 256.25 C 100 245.914062 108.414062 237.5 118.75 237.5 Z M 62.5 200 C 69.394531 200 75 205.605469 75 212.5 C 75 219.394531 69.394531 225 62.5 225 C 55.605469 225 50 219.394531 50 212.5 C 50 205.605469 55.605469 200 62.5 200 Z M 37.5 256.25 C 37.5 245.914062 45.914062 237.5 56.25 237.5 L 68.75 237.5 C 79.085938 237.5 87.5 245.914062 87.5 256.25 L 87.5 283.636719 L 78.457031 288.164062 C 76.335938 289.21875 75 291.382812 75 293.75 L 75 337.5 L 50 337.5 L 50 293.75 C 50 291.382812 48.664062 289.21875 46.542969 288.15625 L 37.5 283.636719 Z M 37.5 256.25 " fill-opacity="1" fill-rule="nonzero"/><path fill="#ffffff" d="M 256.25 81.25 L 277.761719 81.25 C 279.976562 89.226562 281.25 97.582031 281.25 106.25 L 293.75 106.25 C 293.75 47.664062 246.085938 0 187.5 0 C 128.914062 0 81.25 47.664062 81.25 106.25 L 93.75 106.25 C 93.75 97.582031 95.023438 89.226562 97.238281 81.25 L 118.75 81.25 L 118.75 68.75 L 101.632812 68.75 C 106.960938 56.59375 114.824219 45.832031 124.511719 37.011719 L 138.257812 50.757812 L 147.09375 41.917969 L 134.3125 29.136719 C 147.824219 19.789062 163.898438 13.96875 181.25 12.820312 L 181.25 31.25 L 193.75 31.25 L 193.75 12.820312 C 210.445312 13.925781 225.960938 19.351562 239.144531 28.085938 L 227.898438 39.332031 L 236.738281 48.167969 L 249.125 35.78125 C 259.445312 44.8125 267.789062 56.03125 273.363281 68.75 L 256.25 68.75 Z M 256.25 81.25 " fill-opacity="1" fill-rule="nonzero"/><path fill="#ffffff" d="M 228.148438 57.074219 L 199.695312 73.324219 C 199.523438 73.179688 199.394531 73 199.21875 72.863281 C 195.304688 69.730469 190.386719 68.320312 185.4375 68.863281 C 180.457031 69.414062 175.992188 71.867188 172.863281 75.78125 C 169.738281 79.6875 168.3125 84.582031 168.867188 89.5625 C 169.929688 99.136719 178.074219 106.242188 187.492188 106.242188 C 188.179688 106.242188 188.875 106.207031 189.574219 106.125 C 199.855469 104.980469 207.28125 95.695312 206.136719 85.425781 C 206.085938 85 205.949219 84.601562 205.875 84.179688 L 234.351562 67.917969 Z M 192.382812 91.40625 C 191.335938 92.707031 189.851562 93.53125 188.195312 93.710938 C 184.71875 94.101562 181.667969 91.613281 181.292969 88.195312 C 181.105469 86.53125 181.582031 84.898438 182.625 83.601562 C 183.667969 82.300781 185.15625 81.480469 186.820312 81.292969 C 187.050781 81.261719 187.28125 81.25 187.519531 81.25 C 188.929688 81.25 190.289062 81.726562 191.414062 82.617188 C 192.710938 83.664062 193.53125 85.148438 193.71875 86.804688 C 193.898438 88.46875 193.425781 90.101562 192.382812 91.40625 Z M 192.382812 91.40625 " fill-opacity="1" fill-rule="nonzero"/><path fill="#ffffff" d="M 368.75 118.75 L 6.25 118.75 C 2.800781 118.75 0 121.550781 0 125 L 0 368.75 C 0 372.199219 2.800781 375 6.25 375 L 368.75 375 C 372.199219 375 375 372.199219 375 368.75 L 375 125 C 375 121.550781 372.199219 118.75 368.75 118.75 Z M 362.5 362.5 L 12.5 362.5 L 12.5 131.25 L 362.5 131.25 Z M 362.5 362.5 " fill-opacity="1" fill-rule="nonzero"/><path fill="#ffffff" d="M 28.457031 293.09375 L 37.5 297.613281 L 37.5 343.75 C 37.5 347.199219 40.300781 350 43.75 350 L 81.25 350 C 84.699219 350 87.5 347.199219 87.5 343.75 L 87.5 297.613281 L 93.75 294.488281 L 100 297.613281 L 100 343.75 C 100 347.199219 102.800781 350 106.25 350 L 143.75 350 C 147.199219 350 150 347.199219 150 343.75 L 150 297.613281 L 156.25 294.488281 L 162.5 297.613281 L 162.5 343.75 C 162.5 347.199219 165.300781 350 168.75 350 L 206.25 350 C 209.699219 350 212.5 347.199219 212.5 343.75 L 212.5 297.613281 L 218.75 294.488281 L 225 297.613281 L 225 343.75 C 225 347.199219 227.800781 350 231.25 350 L 268.75 350 C 272.199219 350 275 347.199219 275 343.75 L 275 297.613281 L 281.25 294.488281 L 287.5 297.613281 L 287.5 343.75 C 287.5 347.199219 290.300781 350 293.75 350 L 331.25 350 C 334.699219 350 337.5 347.199219 337.5 343.75 L 337.5 297.613281 L 346.542969 293.085938 C 348.664062 292.03125 350 289.867188 350 287.5 L 350 256.25 C 350 243.75 342.574219 233.019531 331.9375 228.023438 C 335.363281 223.742188 337.5 218.394531 337.5 212.5 C 337.5 198.710938 326.289062 187.5 312.5 187.5 C 298.710938 187.5 287.5 198.710938 287.5 212.5 C 287.5 218.394531 289.636719 223.742188 293.0625 228.023438 C 288.363281 230.230469 284.324219 233.570312 281.25 237.695312 C 278.175781 233.570312 274.144531 230.230469 269.4375 228.023438 C 272.863281 223.742188 275 218.394531 275 212.5 C 275 198.710938 263.789062 187.5 250 187.5 C 236.210938 187.5 225 198.710938 225 212.5 C 225 218.394531 227.136719 223.742188 230.5625 228.023438 C 225.863281 230.230469 221.824219 233.570312 218.75 237.695312 C 215.675781 233.570312 211.644531 230.230469 206.9375 228.023438 C 210.363281 223.742188 212.5 218.394531 212.5 212.5 C 212.5 198.710938 201.289062 187.5 187.5 187.5 C 173.710938 187.5 162.5 198.710938 162.5 212.5 C 162.5 218.394531 164.636719 223.742188 168.0625 228.023438 C 163.363281 230.230469 159.324219 233.570312 156.25 237.695312 C 153.175781 233.570312 149.144531 230.230469 144.4375 228.023438 C 147.863281 223.742188 150 218.394531 150 212.5 C 150 198.710938 138.789062 187.5 125 187.5 C 111.210938 187.5 100 198.710938 100 212.5 C 100 218.394531 102.136719 223.742188 105.5625 228.023438 C 100.863281 230.230469 96.824219 233.570312 93.75 237.695312 C 90.675781 233.570312 86.644531 230.230469 81.9375 228.023438 C 85.363281 223.742188 87.5 218.394531 87.5 212.5 C 87.5 198.710938 76.289062 187.5 62.5 187.5 C 48.710938 187.5 37.5 198.710938 37.5 212.5 C 37.5 218.394531 39.636719 223.742188 43.0625 228.023438 C 32.429688 233.019531 25 243.75 25 256.25 L 25 287.5 C 25 289.867188 26.335938 292.03125 28.457031 293.09375 Z M 312.5 200 C 319.394531 200 325 205.605469 325 212.5 C 325 219.394531 319.394531 225 312.5 225 C 305.605469 225 300 219.394531 300 212.5 C 300 205.605469 305.605469 200 312.5 200 Z M 306.25 237.5 L 318.75 237.5 C 329.085938 237.5 337.5 245.914062 337.5 256.25 L 337.5 283.636719 L 328.457031 288.164062 C 326.335938 289.21875 325 291.382812 325 293.75 L 325 337.5 L 300 337.5 L 300 293.75 C 300 291.382812 298.664062 289.21875 296.542969 288.15625 L 287.5 283.636719 L 287.5 256.25 C 287.5 245.914062 295.914062 237.5 306.25 237.5 Z M 250 200 C 256.894531 200 262.5 205.605469 262.5 212.5 C 262.5 219.394531 256.894531 225 250 225 C 243.105469 225 237.5 219.394531 237.5 212.5 C 237.5 205.605469 243.105469 200 250 200 Z M 243.75 237.5 L 256.25 237.5 C 266.585938 237.5 275 245.914062 275 256.25 L 275 283.636719 L 265.957031 288.164062 C 263.835938 289.21875 262.5 291.382812 262.5 293.75 L 262.5 337.5 L 237.5 337.5 L 237.5 293.75 C 237.5 291.382812 236.164062 289.21875 234.042969 288.15625 L 225 283.636719 L 225 256.25 C 225 245.914062 233.414062 237.5 243.75 237.5 Z M 187.5 200 C 194.394531 200 200 205.605469 200 212.5 C 200 219.394531 194.394531 225 187.5 225 C 180.605469 225 175 219.394531 175 212.5 C 175 205.605469 180.605469 200 187.5 200 Z M 181.25 237.5 L 193.75 237.5 C 204.085938 237.5 212.5 245.914062 212.5 256.25 L 212.5 283.636719 L 203.457031 288.164062 C 201.335938 289.21875 200 291.382812 200 293.75 L 200 337.5 L 175 337.5 L 175 293.75 C 175 291.382812 173.664062 289.21875 171.542969 288.15625 L 162.5 283.636719 L 162.5 256.25 C 162.5 245.914062 170.914062 237.5 181.25 237.5 Z M 125 200 C 131.894531 200 137.5 205.605469 137.5 212.5 C 137.5 219.394531 131.894531 225 125 225 C 118.105469 225 112.5 219.394531 112.5 212.5 C 112.5 205.605469 118.105469 200 125 200 Z M 118.75 237.5 L 131.25 237.5 C 141.585938 237.5 150 245.914062 150 256.25 L 150 283.636719 L 140.957031 288.164062 C 138.835938 289.21875 137.5 291.382812 137.5 293.75 L 137.5 337.5 L 112.5 337.5 L 112.5 293.75 C 112.5 291.382812 111.164062 289.21875 109.042969 288.15625 L 100 283.636719 L 100 256.25 C 100 245.914062 108.414062 237.5 118.75 237.5 Z M 62.5 200 C 69.394531 200 75 205.605469 75 212.5 C 75 219.394531 69.394531 225 62.5 225 C 55.605469 225 50 219.394531 50 212.5 C 50 205.605469 55.605469 200 62.5 200 Z M 37.5 256.25 C 37.5 245.914062 45.914062 237.5 56.25 237.5 L 68.75 237.5 C 79.085938 237.5 87.5 245.914062 87.5 256.25 L 87.5 283.636719 L 78.457031 288.164062 C 76.335938 289.21875 75 291.382812 75 293.75 L 75 337.5 L 50 337.5 L 50 293.75 C 50 291.382812 48.664062 289.21875 46.542969 288.15625 L 37.5 283.636719 Z M 37.5 256.25 " fill-opacity="1" fill-rule="nonzero"/><path fill="#ffffff" d="M 256.25 81.25 L 277.761719 81.25 C 279.976562 89.226562 281.25 97.582031 281.25 106.25 L 293.75 106.25 C 293.75 47.664062 246.085938 0 187.5 0 C 128.914062 0 81.25 47.664062 81.25 106.25 L 93.75 106.25 C 93.75 97.582031 95.023438 89.226562 97.238281 81.25 L 118.75 81.25 L 118.75 68.75 L 101.632812 68.75 C 106.960938 56.59375 114.824219 45.832031 124.511719 37.011719 L 138.257812 50.757812 L 147.09375 41.917969 L 134.3125 29.136719 C 147.824219 19.789062 163.898438 13.96875 181.25 12.820312 L 181.25 31.25 L 193.75 31.25 L 193.75 12.820312 C 210.445312 13.925781 225.960938 19.351562 239.144531 28.085938 L 227.898438 39.332031 L 236.738281 48.167969 L 249.125 35.78125 C 259.445312 44.8125 267.789062 56.03125 273.363281 68.75 L 256.25 68.75 Z M 256.25 81.25 " fill-opacity="1" fill-rule="nonzero"/><path fill="#ffffff" d="M 228.148438 57.074219 L 199.695312 73.324219 C 199.523438 73.179688 199.394531 73 199.21875 72.863281 C 195.304688 69.730469 190.386719 68.320312 185.4375 68.863281 C 180.457031 69.414062 175.992188 71.867188 172.863281 75.78125 C 169.738281 79.6875 168.3125 84.582031 168.867188 89.5625 C 169.929688 99.136719 178.074219 106.242188 187.492188 106.242188 C 188.179688 106.242188 188.875 106.207031 189.574219 106.125 C 199.855469 104.980469 207.28125 95.695312 206.136719 85.425781 C 206.085938 85 205.949219 84.601562 205.875 84.179688 L 234.351562 67.917969 Z M 192.382812 91.40625 C 191.335938 92.707031 189.851562 93.53125 188.195312 93.710938 C 184.71875 94.101562 181.667969 91.613281 181.292969 88.195312 C 181.105469 86.53125 181.582031 84.898438 182.625 83.601562 C 183.667969 82.300781 185.15625 81.480469 186.820312 81.292969 C 187.050781 81.261719 187.28125 81.25 187.519531 81.25 C 188.929688 81.25 190.289062 81.726562 191.414062 82.617188 C 192.710938 83.664062 193.53125 85.148438 193.71875 86.804688 C 193.898438 88.46875 193.425781 90.101562 192.382812 91.40625 Z M 192.382812 91.40625 " fill-opacity="1" fill-rule="nonzero"/></svg>