<svg width="96" height="96" xmlns="http://www.w3.org/2000/svg" xmlns:xlink="http://www.w3.org/1999/xlink" xml:space="preserve" overflow="hidden"><g transform="translate(-797 -312)"><path d="M826 327C826 330.866 822.866 334 819 334 815.134 334 812 330.866 812 327 812 323.134 815.134 320 819 320 822.866 320 826 323.134 826 327Z"/><path d="M837.85 364.13 832.29 343.08C832.101 342.446 831.757 341.869 831.29 341.4 829.376 339.406 827.014 337.898 824.4 337 822.684 336.313 820.848 335.974 819 336 817.162 335.99 815.336 336.294 813.6 336.9 810.971 337.772 808.599 339.284 806.7 341.3 806.254 341.823 805.914 342.427 805.7 343.08L800.15 364.13C799.732 365.732 800.689 367.369 802.29 367.79 802.538 367.857 802.793 367.891 803.05 367.89 804.429 367.913 805.646 366.993 806 365.66L811 346.56 811 400 817 400 817 369 821 369 821 400 827 400 827 346.56 832 365.66C832.358 367.012 833.602 367.937 835 367.89 835.257 367.891 835.512 367.857 835.76 367.79 837.341 367.347 838.272 365.716 837.85 364.13Z"/><path d="M878 327C878 330.866 874.866 334 871 334 867.134 334 864 330.866 864 327 864 323.134 867.134 320 871 320 874.866 320 878 323.134 878 327Z"/><path d="M889.85 364.13 884.29 343.08C884.091 342.45 883.748 341.875 883.29 341.4 881.376 339.406 879.014 337.898 876.4 337 874.684 336.313 872.848 335.974 871 336 869.162 335.99 867.336 336.294 865.6 336.9 862.971 337.772 860.599 339.284 858.7 341.3 858.254 341.823 857.914 342.427 857.7 343.08L852.15 364.13C851.732 365.732 852.689 367.369 854.29 367.79 854.538 367.857 854.793 367.891 855.05 367.89 856.429 367.913 857.646 366.993 858 365.66L863 346.56 863 352.68 856.76 376 863 376 863 400 869 400 869 376 873 376 873 400 879 400 879 376 884.16 376 879 356.71 879 346.56 884 365.66C884.358 367.012 885.602 367.937 887 367.89 887.257 367.891 887.512 367.857 887.76 367.79 889.341 367.347 890.272 365.716 889.85 364.13Z"/><path d="M845 402C843.895 402 843 401.105 843 400L843 320C843 318.895 843.895 318 845 318 846.105 318 847 318.895 847 320L847 400C847 401.105 846.105 402 845 402Z"/></g></svg>