<svg xmlns="http://www.w3.org/2000/svg" viewBox="0 0 100 100" width="200" height="200">
  
  <path d="M 85 50 A 35 35 0 0 1 50 85" fill="none" stroke="white" stroke-width="10" stroke-linecap="round"></path>
  
  
  <path d="M 50 15 A 35 35 0 0 1 85 50" fill="none" stroke="white" stroke-width="10" stroke-linecap="round"></path>
  
  
  <path d="M 50 15 A 35 35 0 0 0 30 22" fill="none" stroke="white" stroke-width="8" stroke-linecap="round" opacity="0.35"></path>
  
  <path d="M 25 30 A 35 35 0 0 0 18 45" fill="none" stroke="white" stroke-width="8" stroke-linecap="round" opacity="0.5"></path>
  
  <path d="M 16 52 A 35 35 0 0 0 20 68" fill="none" stroke="white" stroke-width="8" stroke-linecap="round" opacity="0.65"></path>
  
  <path d="M 25 75 A 35 35 0 0 0 40 85" fill="none" stroke="white" stroke-width="8" stroke-linecap="round" opacity="0.8"></path>
  
  
  <path d="M 35 52 L 45 62 L 68 38" fill="none" stroke="white" stroke-width="8" stroke-linecap="round" stroke-linejoin="round"></path>
</svg>
