<svg width="96" height="96" xmlns="http://www.w3.org/2000/svg" xmlns:xlink="http://www.w3.org/1999/xlink" xml:space="preserve" overflow="hidden"><g transform="translate(-453 -312)"><path d="M503 342 499 342C496.8 342 495 340.2 495 338L495 330C495 327.8 496.8 326 499 326L503 326C505.2 326 507 327.8 507 330L507 338C507 340.2 505.2 342 503 342Z"/><path d="M533 362 509 362 509 358 533 358 533 362ZM533 374 509 374 509 370 533 370 533 374ZM533 386 509 386 509 382 533 382 533 386ZM501 386 469 386 469 378C469 376.8 469.6 375.6 470.6 374.8 472.8 373.2 475.6 371.8 478.4 371 480.6 370.4 482.8 370 485 370 487.4 370 489.6 370.4 491.6 371 494.4 371.8 497.2 373 499.4 374.8 500.4 375.6 501 376.8 501 378L501 386ZM485 352C489.4 352 493 355.6 493 360 493 364.4 489.4 368 485 368 480.6 368 477 364.4 477 360 477 355.6 480.6 352 485 352ZM537 338 511 338C511 342.4 507.4 346 503 346L499 346C494.6 346 491 342.4 491 338L465 338C462.8 338 461 339.8 461 342L461 390C461 392.2 462.8 394 465 394L537 394C539.2 394 541 392.2 541 390L541 342C541 339.8 539.2 338 537 338Z"/></g></svg>