<svg xmlns="http://www.w3.org/2000/svg" xmlns:xlink="http://www.w3.org/1999/xlink" width="500" zoomAndPan="magnify" viewBox="0 0 375 374.999991" height="500" preserveAspectRatio="xMidYMid meet" version="1.0"><defs><clipPath id="a1438773b5"><path d="M 39.003906 358 L 336 358 L 336 369.796875 L 39.003906 369.796875 Z M 39.003906 358 " clip-rule="nonzero"/></clipPath><clipPath id="843d2fca16"><path d="M 240 5.296875 L 312 5.296875 L 312 205 L 240 205 Z M 240 5.296875 " clip-rule="nonzero"/></clipPath><clipPath id="8baa767893"><path d="M 218 193 L 304 193 L 304 369.796875 L 218 369.796875 Z M 218 193 " clip-rule="nonzero"/></clipPath><clipPath id="463f24b728"><path d="M 144 225 L 231 225 L 231 369.796875 L 144 369.796875 Z M 144 225 " clip-rule="nonzero"/></clipPath><clipPath id="6a01cf07d4"><path d="M 71 242 L 157 242 L 157 369.796875 L 71 369.796875 Z M 71 242 " clip-rule="nonzero"/></clipPath></defs><path fill="#0076b6" d="M 114.417969 253.925781 L 88.210938 253.925781 C 86.363281 253.925781 84.636719 253.035156 83.566406 251.53125 C 82.5 250.027344 82.226562 248.101562 82.828125 246.363281 L 115.761719 151.730469 C 116 129.214844 131.695312 97.921875 149.78125 84.1875 C 150.773438 83.4375 151.984375 83.027344 153.226562 83.027344 C 153.230469 83.027344 153.238281 83.027344 153.246094 83.027344 C 177.019531 83.117188 205.90625 83.117188 231.589844 83.117188 C 242.824219 83.117188 251.964844 92.253906 251.964844 103.488281 C 251.964844 114.722656 242.824219 123.859375 231.589844 123.859375 L 184.621094 123.859375 L 180.46875 144.085938 L 182.351562 144.085938 C 183.792969 144.085938 185.316406 144.023438 186.859375 143.957031 C 188.617188 143.882812 190.402344 143.8125 192.136719 143.8125 C 197.597656 143.8125 204.386719 144.484375 208.445312 149.730469 C 211.65625 153.875 212.261719 159.679688 210.292969 167.476562 L 199.722656 232.304688 C 199.273438 235.0625 196.894531 237.082031 194.097656 237.082031 L 168.585938 237.085938 C 166.929688 237.085938 165.351562 236.363281 164.269531 235.105469 C 163.1875 233.851562 162.707031 232.1875 162.953125 230.546875 L 170.578125 179.523438 L 153.03125 179.523438 L 119.566406 250.660156 C 118.628906 252.65625 116.621094 253.925781 114.417969 253.925781 Z M 96.21875 242.542969 L 110.800781 242.542969 L 144.261719 171.402344 C 145.199219 169.40625 147.203125 168.132812 149.410156 168.132812 L 177.183594 168.132812 C 178.839844 168.132812 180.414062 168.851562 181.496094 170.109375 C 182.578125 171.367188 183.058594 173.03125 182.8125 174.667969 L 175.191406 225.695312 L 189.261719 225.695312 L 199.09375 165.390625 C 199.121094 165.21875 199.15625 165.050781 199.199219 164.882812 C 200.414062 160.183594 200.125 157.574219 199.441406 156.699219 C 198.910156 156.011719 197.214844 155.195312 192.136719 155.195312 C 190.558594 155.195312 188.933594 155.261719 187.335938 155.332031 C 185.628906 155.402344 183.945312 155.46875 182.351562 155.46875 L 173.484375 155.46875 C 171.773438 155.46875 170.152344 154.703125 169.070312 153.375 C 167.988281 152.046875 167.5625 150.304688 167.90625 148.628906 L 174.398438 117.015625 C 174.945312 114.367188 177.273438 112.464844 179.976562 112.464844 L 231.585938 112.464844 C 236.542969 112.464844 240.574219 108.4375 240.574219 103.480469 C 240.574219 98.527344 236.542969 94.496094 231.585938 94.496094 C 206.605469 94.496094 178.597656 94.496094 155.203125 94.417969 C 140.394531 106.753906 126.953125 134.382812 127.148438 152.628906 C 127.152344 153.289062 127.046875 153.941406 126.832031 154.558594 Z M 96.21875 242.542969 " fill-opacity="1" fill-rule="evenodd"/><path fill="#0076b6" d="M 184.996094 76.402344 C 170.324219 76.402344 158.386719 64.46875 158.386719 49.800781 C 158.386719 35.125 170.324219 23.191406 184.996094 23.191406 C 199.667969 23.191406 211.601562 35.125 211.601562 49.800781 C 211.601562 64.46875 199.667969 76.402344 184.996094 76.402344 Z M 184.996094 34.578125 C 176.605469 34.578125 169.773438 41.40625 169.773438 49.796875 C 169.773438 58.191406 176.605469 65.015625 184.996094 65.015625 C 193.386719 65.015625 200.214844 58.191406 200.214844 49.796875 C 200.214844 41.40625 193.386719 34.578125 184.996094 34.578125 Z M 184.996094 34.578125 " fill-opacity="1" fill-rule="evenodd"/><g clip-path="url(#a1438773b5)"><path fill="#0076b6" d="M 330.054688 369.6875 L 44.945312 369.6875 C 41.800781 369.6875 39.25 367.136719 39.25 363.992188 C 39.25 360.847656 41.800781 358.296875 44.945312 358.296875 L 330.054688 358.296875 C 333.199219 358.296875 335.746094 360.847656 335.746094 363.992188 C 335.746094 367.136719 333.199219 369.6875 330.054688 369.6875 Z M 330.054688 369.6875 " fill-opacity="1" fill-rule="evenodd"/></g><g clip-path="url(#843d2fca16)"><path fill="#0076b6" d="M 246.269531 204.832031 C 243.125 204.832031 240.574219 202.285156 240.574219 199.140625 L 240.574219 10.996094 C 240.574219 7.851562 243.125 5.304688 246.269531 5.304688 C 249.414062 5.304688 251.964844 7.851562 251.964844 10.996094 L 251.964844 19.109375 L 306.046875 19.109375 C 308.1875 19.109375 310.148438 20.3125 311.121094 22.21875 C 312.09375 24.125 311.914062 26.421875 310.652344 28.152344 L 296.730469 47.300781 L 310.652344 66.445312 C 311.914062 68.175781 312.09375 70.46875 311.121094 72.375 C 310.148438 74.28125 308.191406 75.484375 306.046875 75.484375 L 251.960938 75.484375 L 251.960938 199.136719 C 251.960938 202.28125 249.414062 204.832031 246.269531 204.832031 Z M 251.964844 64.101562 L 294.867188 64.101562 L 285.085938 50.648438 C 283.636719 48.652344 283.636719 45.949219 285.085938 43.949219 L 294.867188 30.496094 L 251.964844 30.496094 Z M 251.964844 64.101562 " fill-opacity="1" fill-rule="evenodd"/></g><g clip-path="url(#8baa767893)"><path fill="#0076b6" d="M 297.933594 369.6875 L 224.308594 369.6875 C 221.164062 369.6875 218.617188 367.136719 218.617188 363.992188 L 218.617188 199.140625 C 218.617188 195.992188 221.164062 193.445312 224.308594 193.445312 L 297.933594 193.445312 C 301.078125 193.445312 303.625 195.992188 303.625 199.140625 L 303.625 363.996094 C 303.625 367.140625 301.078125 369.6875 297.929688 369.6875 Z M 230.003906 358.300781 L 292.238281 358.300781 L 292.238281 204.832031 L 230.003906 204.832031 Z M 230.003906 358.300781 " fill-opacity="1" fill-rule="evenodd"/></g><g clip-path="url(#463f24b728)"><path fill="#0076b6" d="M 224.308594 369.6875 L 150.6875 369.6875 C 147.542969 369.6875 144.996094 367.136719 144.996094 363.992188 L 144.996094 231.394531 C 144.996094 228.25 147.542969 225.703125 150.6875 225.703125 L 224.308594 225.703125 C 227.457031 225.703125 230.003906 228.25 230.003906 231.394531 L 230.003906 363.996094 C 230.003906 367.140625 227.457031 369.6875 224.308594 369.6875 Z M 156.382812 358.300781 L 218.617188 358.300781 L 218.617188 237.089844 L 156.382812 237.089844 Z M 156.382812 358.300781 " fill-opacity="1" fill-rule="evenodd"/></g><g clip-path="url(#6a01cf07d4)"><path fill="#0076b6" d="M 150.6875 369.6875 L 77.066406 369.6875 C 73.917969 369.6875 71.371094 367.136719 71.371094 363.992188 L 71.371094 248.234375 C 71.371094 245.085938 73.917969 242.539062 77.066406 242.539062 L 150.6875 242.539062 C 153.835938 242.539062 156.382812 245.085938 156.382812 248.234375 L 156.382812 363.992188 C 156.382812 367.140625 153.832031 369.6875 150.6875 369.6875 Z M 82.757812 358.300781 L 144.996094 358.300781 L 144.996094 253.929688 L 82.757812 253.929688 Z M 82.757812 358.300781 " fill-opacity="1" fill-rule="evenodd"/></g></svg>