<svg width="96" height="96" xmlns="http://www.w3.org/2000/svg" xmlns:xlink="http://www.w3.org/1999/xlink" xml:space="preserve" overflow="hidden"><g transform="translate(-533 -312)"><path d="M572.2 341.2C573 340.4 573.5 339.3 573.5 338.1 573.5 336.9 573 335.8 572.2 335L558.4 321.3C557.6 320.5 556.5 320 555.4 320 554.3 320 553.1 320.5 552.3 321.3L550.8 322.8 570.7 342.7 572.2 341.2Z"/><path d="M592.3 376.5C591.9 376.9 591.3 377.1 590.8 377.1 590.3 377.1 589.7 376.9 589.3 376.5L564.5 351.8C564.1 351.4 563.9 350.8 563.9 350.3 563.9 349.8 564.1 349.2 564.5 348.8L567.6 345.8 547.7 325.9C546.4 327.2 545.2 328.4 544.4 329.2 542.4 331.1 541.2 333.6 541.1 336.3 540.8 340.8 541.9 345.1 543.4 349.3 545 353 547.1 356.5 549.4 359.8 557.6 372.1 567.9 382.8 579.9 391.3 581.9 392.8 584 394.1 586.2 395.3 591.2 397.8 596.5 399.6 602.2 400 606 400.3 609.8 398.8 612.4 396L615.1 393.3 595.3 373.4 592.3 376.5Z"/><path d="M619.7 382.6 605.9 368.8C605.1 368 604 367.5 602.8 367.5 601.6 367.5 600.5 368 599.7 368.8L598.2 370.4 618.1 390.3 619.6 388.8C620.4 388 620.9 386.9 620.9 385.7 620.9 384.5 620.5 383.4 619.7 382.6Z"/></g></svg>