<svg xmlns="http://www.w3.org/2000/svg" xmlns:xlink="http://www.w3.org/1999/xlink" width="500" zoomAndPan="magnify" viewBox="0 0 375 374.999991" height="500" preserveAspectRatio="xMidYMid meet" version="1.0"><defs><clipPath id="24ed168cc5"><path d="M 0.703125 0 L 374.203125 0 L 374.203125 375 L 0.703125 375 Z M 0.703125 0 " clip-rule="nonzero"/></clipPath><clipPath id="7749e6444b"><path d="M 161.75 363.789062 L 311 363.789062 L 311 375 L 161.75 375 Z M 161.75 363.789062 " clip-rule="nonzero"/></clipPath></defs><g clip-path="url(#24ed168cc5)"><path fill="#0076b6" d="M 9.308594 110.527344 L 137.363281 110.527344 C 142.078125 110.527344 145.945312 114.917969 145.945312 120.277344 L 145.945312 144.5 C 145.945312 149.859375 142.078125 154.25 137.363281 154.25 L 9.308594 154.25 C 4.570312 154.25 0.703125 149.859375 0.703125 144.5 L 0.703125 120.277344 C 0.703125 114.917969 4.570312 110.527344 9.308594 110.527344 Z M 9.308594 331.21875 L 137.363281 331.21875 C 142.078125 331.21875 145.945312 335.609375 145.945312 340.972656 L 145.945312 365.191406 C 145.945312 370.554688 142.078125 374.945312 137.363281 374.945312 L 9.308594 374.945312 C 4.570312 374.945312 0.703125 370.554688 0.703125 365.191406 L 0.703125 340.972656 C 0.703125 335.609375 4.570312 331.21875 9.308594 331.21875 Z M 9.308594 276.046875 L 137.363281 276.046875 C 142.078125 276.046875 145.945312 280.4375 145.945312 285.800781 L 145.945312 310.019531 C 145.945312 315.382812 142.078125 319.773438 137.363281 319.773438 L 9.308594 319.773438 C 4.570312 319.773438 0.703125 315.382812 0.703125 310.019531 L 0.703125 285.800781 C 0.703125 280.4375 4.570312 276.046875 9.308594 276.046875 Z M 9.308594 220.875 L 137.363281 220.875 C 142.078125 220.875 145.945312 225.261719 145.945312 230.625 L 145.945312 254.84375 C 145.945312 260.207031 142.078125 264.597656 137.363281 264.597656 L 9.308594 264.597656 C 4.570312 264.597656 0.703125 260.207031 0.703125 254.84375 L 0.703125 230.625 C 0.703125 225.261719 4.570312 220.875 9.308594 220.875 Z M 9.308594 165.699219 L 137.363281 165.699219 C 142.078125 165.699219 145.945312 170.089844 145.945312 175.453125 L 145.945312 199.671875 C 145.945312 205.035156 142.078125 209.425781 137.363281 209.425781 L 9.308594 209.425781 C 4.570312 209.425781 0.703125 205.035156 0.703125 199.671875 L 0.703125 175.453125 C 0.703125 170.089844 4.570312 165.699219 9.308594 165.699219 Z M 53.78125 71.515625 L 53.78125 97.730469 L 92.867188 97.730469 L 92.867188 71.515625 L 121.976562 71.515625 L 73.335938 0.0546875 L 24.699219 71.515625 Z M 252.125 1.351562 L 182.710938 52.910156 L 256.144531 98.527344 L 255.09375 73.210938 C 273.203125 79.449219 289.417969 89.75 302.6875 102.992188 C 325.285156 125.617188 339.277344 156.84375 339.277344 191.367188 C 339.277344 225.863281 325.285156 257.117188 302.6875 279.714844 C 280.0625 302.335938 248.835938 316.304688 214.3125 316.304688 C 192.835938 316.304688 172.632812 310.890625 155 301.363281 L 155 339.976562 C 173.332031 347.308594 193.363281 351.347656 214.3125 351.347656 C 258.488281 351.347656 298.496094 333.441406 327.429688 304.480469 C 356.386719 275.523438 374.296875 235.539062 374.296875 191.367188 C 374.296875 147.191406 356.386719 107.183594 327.429688 78.226562 C 307.351562 58.144531 281.957031 43.40625 253.546875 36.222656 Z M 231.324219 135.445312 C 238.160156 137.316406 244.195312 140.980469 248.882812 146.445312 C 254.769531 153.277344 257.714844 162.109375 257.8125 171.039062 C 257.8125 171.886719 257.8125 172.734375 257.789062 173.582031 L 257.789062 173.632812 L 234.292969 172.734375 L 234.292969 172.484375 C 234.316406 172.085938 234.34375 171.710938 234.316406 171.3125 C 234.292969 167.917969 233.296875 164.378906 231.050781 161.734375 C 228.53125 158.839844 224.816406 157.691406 221.074219 157.519531 C 220.574219 157.492188 220.074219 157.46875 219.578125 157.492188 C 215.835938 157.519531 212.195312 158.589844 209.425781 161.234375 C 207.703125 162.855469 206.507812 164.976562 205.859375 167.246094 C 205.285156 169.292969 205.183594 171.535156 205.734375 173.605469 C 206.183594 175.277344 207.105469 176.773438 208.550781 177.746094 L 224.816406 186.703125 L 241.699219 195.65625 L 242.125 195.90625 C 249.082031 200.070312 253.949219 206.507812 256.066406 214.339844 C 257.738281 220.472656 257.589844 227.085938 255.867188 233.195312 C 254.097656 239.554688 250.628906 245.34375 245.867188 249.90625 C 241.726562 253.871094 236.761719 256.714844 231.324219 258.363281 L 231.324219 275.621094 L 207.753906 275.621094 L 207.753906 258.660156 C 200.917969 256.792969 194.882812 253.125 190.195312 247.664062 C 184.332031 240.828125 181.390625 231.996094 181.265625 223.070312 C 181.265625 222.269531 181.265625 221.496094 181.289062 220.722656 L 204.886719 219.824219 L 204.785156 221.621094 C 204.761719 221.996094 204.761719 222.394531 204.761719 222.769531 C 204.808594 226.1875 205.78125 229.726562 208.054688 232.347656 C 210.546875 235.265625 214.289062 236.414062 218.003906 236.585938 C 218.503906 236.613281 219.003906 236.613281 219.5 236.613281 C 223.242188 236.5625 226.910156 235.488281 229.652344 232.871094 C 231.375 231.226562 232.597656 229.128906 233.21875 226.835938 C 233.792969 224.816406 233.917969 222.570312 233.34375 220.5 C 232.894531 218.804688 231.972656 217.308594 230.5 216.332031 L 213.765625 207.480469 L 213.589844 207.378906 L 197.152344 198.324219 L 196.929688 198.152344 C 189.945312 194.035156 185.128906 187.550781 183.011719 179.769531 C 181.339844 173.605469 181.488281 167.023438 183.210938 160.910156 C 184.980469 154.550781 188.449219 148.765625 193.210938 144.199219 C 197.378906 140.234375 202.316406 137.390625 207.753906 135.742188 L 207.753906 118.484375 L 231.324219 118.484375 Z M 231.324219 135.445312 " fill-opacity="1" fill-rule="evenodd"/></g><g clip-path="url(#7749e6444b)"><path fill="#ffffff" d="M 165.191406 408 L 216.414062 408 C 218.300781 408 219.847656 409.753906 219.847656 411.898438 L 219.847656 421.589844 C 219.847656 423.734375 218.300781 425.488281 216.414062 425.488281 L 165.191406 425.488281 C 163.296875 425.488281 161.75 423.734375 161.75 421.589844 L 161.75 411.898438 C 161.75 409.753906 163.296875 408 165.191406 408 Z M 165.191406 496.277344 L 216.414062 496.277344 C 218.300781 496.277344 219.847656 498.03125 219.847656 500.179688 L 219.847656 509.867188 C 219.847656 512.011719 218.300781 513.765625 216.414062 513.765625 L 165.191406 513.765625 C 163.296875 513.765625 161.75 512.011719 161.75 509.867188 L 161.75 500.179688 C 161.75 498.03125 163.296875 496.277344 165.191406 496.277344 Z M 165.191406 474.207031 L 216.414062 474.207031 C 218.300781 474.207031 219.847656 475.964844 219.847656 478.109375 L 219.847656 487.796875 C 219.847656 489.941406 218.300781 491.699219 216.414062 491.699219 L 165.191406 491.699219 C 163.296875 491.699219 161.75 489.941406 161.75 487.796875 L 161.75 478.109375 C 161.75 475.964844 163.296875 474.207031 165.191406 474.207031 Z M 165.191406 452.136719 L 216.414062 452.136719 C 218.300781 452.136719 219.847656 453.894531 219.847656 456.039062 L 219.847656 465.726562 C 219.847656 467.871094 218.300781 469.628906 216.414062 469.628906 L 165.191406 469.628906 C 163.296875 469.628906 161.75 467.871094 161.75 465.726562 L 161.75 456.039062 C 161.75 453.894531 163.296875 452.136719 165.191406 452.136719 Z M 165.191406 430.070312 L 216.414062 430.070312 C 218.300781 430.070312 219.847656 431.824219 219.847656 433.96875 L 219.847656 443.65625 C 219.847656 445.800781 218.300781 447.558594 216.414062 447.558594 L 165.191406 447.558594 C 163.296875 447.558594 161.75 445.800781 161.75 443.65625 L 161.75 433.96875 C 161.75 431.824219 163.296875 430.070312 165.191406 430.070312 Z M 182.980469 392.394531 L 182.980469 402.882812 L 198.617188 402.882812 L 198.617188 392.394531 L 210.257812 392.394531 L 190.804688 363.808594 L 171.347656 392.394531 Z M 262.320312 364.328125 L 234.554688 384.953125 L 263.925781 403.199219 L 263.507812 393.074219 C 270.75 395.566406 277.234375 399.6875 282.542969 404.984375 C 291.582031 414.035156 297.179688 426.527344 297.179688 440.335938 C 297.179688 454.132812 291.582031 466.636719 282.542969 475.675781 C 273.496094 484.722656 261.003906 490.3125 247.195312 490.3125 C 238.605469 490.3125 230.523438 488.144531 223.46875 484.335938 L 223.46875 499.777344 C 230.800781 502.710938 238.8125 504.328125 247.195312 504.328125 C 264.863281 504.328125 280.867188 497.164062 292.441406 485.582031 C 304.023438 473.996094 311.1875 458.003906 311.1875 440.335938 C 311.1875 422.664062 304.023438 406.664062 292.441406 395.078125 C 284.410156 387.046875 274.253906 381.152344 262.886719 378.277344 Z M 254 417.964844 C 256.734375 418.714844 259.148438 420.179688 261.023438 422.367188 C 263.378906 425.101562 264.554688 428.632812 264.59375 432.203125 C 264.59375 432.542969 264.59375 432.882812 264.585938 433.222656 L 264.585938 433.242188 L 255.1875 432.882812 L 255.1875 432.78125 C 255.195312 432.621094 255.207031 432.472656 255.195312 432.3125 C 255.1875 430.957031 254.785156 429.539062 253.890625 428.480469 C 252.882812 427.324219 251.394531 426.867188 249.898438 426.796875 C 249.699219 426.785156 249.5 426.777344 249.300781 426.785156 C 247.804688 426.796875 246.347656 427.226562 245.238281 428.28125 C 244.550781 428.929688 244.070312 429.78125 243.8125 430.6875 C 243.582031 431.503906 243.542969 432.402344 243.761719 433.230469 C 243.941406 433.898438 244.3125 434.5 244.890625 434.886719 L 251.394531 438.46875 L 258.148438 442.050781 L 258.320312 442.152344 C 261.101562 443.816406 263.046875 446.390625 263.894531 449.523438 C 264.566406 451.976562 264.503906 454.621094 263.816406 457.066406 C 263.109375 459.609375 261.722656 461.925781 259.816406 463.75 C 258.160156 465.335938 256.175781 466.476562 254 467.132812 L 254 474.039062 L 244.570312 474.039062 L 244.570312 467.253906 C 241.835938 466.503906 239.421875 465.039062 237.546875 462.851562 C 235.203125 460.121094 234.023438 456.585938 233.976562 453.015625 C 233.976562 452.695312 233.976562 452.386719 233.984375 452.078125 L 243.421875 451.71875 L 243.382812 452.4375 C 243.375 452.585938 243.375 452.746094 243.375 452.894531 C 243.394531 454.261719 243.78125 455.679688 244.691406 456.726562 C 245.6875 457.894531 247.183594 458.355469 248.671875 458.421875 C 248.871094 458.433594 249.070312 458.433594 249.269531 458.433594 C 250.765625 458.414062 252.234375 457.984375 253.332031 456.9375 C 254.019531 456.277344 254.507812 455.441406 254.757812 454.523438 C 254.988281 453.714844 255.035156 452.816406 254.808594 451.988281 C 254.628906 451.308594 254.257812 450.710938 253.667969 450.320312 L 246.976562 446.78125 L 246.90625 446.742188 L 240.332031 443.117188 L 240.242188 443.050781 C 237.445312 441.402344 235.519531 438.808594 234.671875 435.695312 C 234.003906 433.230469 234.066406 430.597656 234.753906 428.152344 C 235.460938 425.609375 236.847656 423.292969 238.753906 421.46875 C 240.421875 419.882812 242.394531 418.746094 244.570312 418.085938 L 244.570312 411.183594 L 254 411.183594 Z M 254 417.964844 " fill-opacity="1" fill-rule="evenodd"/></g></svg>