<svg width="96" height="96" xmlns="http://www.w3.org/2000/svg" xmlns:xlink="http://www.w3.org/1999/xlink" xml:space="preserve" overflow="hidden"><g transform="translate(-380 -576)"><path d="M448.006 651 462.006 651 462.006 657 448.006 657Z" fill="#16EA76"/><path d="M448.006 641 462.006 641 462.006 647 448.006 647Z" fill="#16EA76"/><path d="M448.006 631 462.006 631 462.006 637 448.006 637Z" fill="#16EA76"/><path d="M448.006 621 462.006 621 462.006 627 448.006 627Z" fill="#16EA76"/><path d="M448.006 611 462.006 611 462.006 617 448.006 617Z" fill="#16EA76"/><path d="M448.006 601 462.006 601 462.006 607 448.006 607Z" fill="#16EA76"/><path d="M430.006 651 444.006 651 444.006 657 430.006 657Z" fill="#16EA76"/><path d="M430.006 641 444.006 641 444.006 647 430.006 647Z" fill="#16EA76"/><path d="M430.006 631 444.006 631 444.006 637 430.006 637Z" fill="#16EA76"/><path d="M412.005 651 426.005 651 426.005 657 412.005 657Z" fill="#16EA76"/><path d="M412.005 641 426.005 641 426.005 647 412.005 647Z" fill="#16EA76"/><path d="M412.005 631 426.005 631 426.005 637 412.005 637Z" fill="#16EA76"/><path d="M412.005 621 426.005 621 426.005 627 412.005 627Z" fill="#16EA76"/><path d="M412.005 611 426.005 611 426.005 617 412.005 617Z" fill="#16EA76"/><path d="M412.005 601 426.005 601 426.005 607 412.005 607Z" fill="#16EA76"/><path d="M412.005 591 426.005 591 426.005 597 412.005 597Z" fill="#16EA76"/><path d="M394.005 651 408.005 651 408.005 657 394.005 657Z" fill="#16EA76"/><path d="M394.005 641 408.005 641 408.005 647 394.005 647Z" fill="#16EA76"/><path d="M394.005 631 408.005 631 408.005 637 394.005 637Z" fill="#16EA76"/><path d="M394.005 621 408.005 621 408.005 627 394.005 627Z" fill="#16EA76"/><path d="M394.005 611 408.005 611 408.005 617 394.005 617Z" fill="#16EA76"/></g></svg>