<svg width="96" height="96" xmlns="http://www.w3.org/2000/svg" xmlns:xlink="http://www.w3.org/1999/xlink" xml:space="preserve" overflow="hidden"><g transform="translate(-710 -311)"><path d="M717.431 375 727.506 368.025 737.581 375 734.094 363.376 742.756 355.844 751.418 363.376 747.931 375 758.006 368.025 768.081 375 764.594 363.376 773.256 355.844 781.918 363.376 778.431 375 788.506 368.025 798.581 375 795.093 363.376 804.006 355.626 792.381 355.626 788.506 344 784.631 355.626 761.881 355.626 758.006 344 754.131 355.626 731.381 355.626 727.506 344 723.631 355.626 712.006 355.626 720.918 363.376ZM784.631 357.625 786.072 357.625 786.528 356.258 788.506 350.325 790.484 356.258 790.939 357.625 798.658 357.625 793.781 361.866 792.807 362.713 793.178 363.95 795.024 370.105 789.644 366.381 788.506 365.593 787.367 366.381 781.987 370.105 783.834 363.95 784.205 362.713 783.231 361.866 778.354 357.625Z" fill="#B0B7BC"/></g></svg>