<svg width="96" height="96" xmlns="http://www.w3.org/2000/svg" xmlns:xlink="http://www.w3.org/1999/xlink" xml:space="preserve" overflow="hidden"><g transform="translate(-380 -396)"><path d="M387.431 460 397.506 453.025 407.581 460 404.094 448.376 412.756 440.844 421.418 448.376 417.931 460 428.006 453.025 438.081 460 434.594 448.376 443.256 440.844 451.918 448.376 448.431 460 458.506 453.025 468.581 460 465.093 448.376 474.006 440.626 462.381 440.626 458.506 429 454.631 440.626 431.881 440.626 428.006 429 424.131 440.626 401.381 440.626 397.506 429 393.631 440.626 382.006 440.626 390.918 448.376ZM454.631 442.625 456.072 442.625 456.528 441.258 458.506 435.325 460.484 441.258 460.939 442.625 468.658 442.625 463.781 446.866 462.807 447.713 463.178 448.95 465.024 455.105 459.644 451.381 458.506 450.593 457.367 451.381 451.987 455.105 453.834 448.95 454.205 447.713 453.231 446.866 448.354 442.625Z" fill="#FFC000"/></g></svg>