<svg width="96" height="96" xmlns="http://www.w3.org/2000/svg" xmlns:xlink="http://www.w3.org/1999/xlink" xml:space="preserve" overflow="hidden"><g transform="translate(-380 -480)"><path d="M453 562 403 562 403 500 414 500 414 506 442 506 442 500 453 500ZM428 492C429.657 492 431 493.343 431 495 431 496.657 429.657 498 428 498 426.343 498 425 496.657 425 495 424.973 493.37 426.272 492.027 427.901 492 427.934 491.999 427.967 491.999 428 492ZM455 494 438 494 438 492C438 489.791 436.209 488 434 488L422 488C419.791 488 418 489.791 418 492L418 494 401 494C398.791 494 397 495.791 397 498L397 564C397 566.209 398.791 568 401 568L455 568C457.209 568 459 566.209 459 564L459 498C459 495.791 457.209 494 455 494Z" fill="#D9D9D9"/><path d="M421.061 537.061 418.939 534.939 416 537.879 413.061 534.939 410.939 537.061 413.879 540 410.939 542.939 413.061 545.061 416 542.121 418.939 545.061 421.061 542.939 418.121 540 421.061 537.061Z" fill="#D9D9D9"/><path d="M418.939 546.939 416 549.879 413.061 546.939 410.939 549.061 413.879 552 410.939 554.939 413.061 557.061 416 554.121 418.939 557.061 421.061 554.939 418.121 552 421.061 549.061 418.939 546.939Z" fill="#D9D9D9"/><path d="M430 538 447 538 447 542 430 542Z" fill="#D9D9D9"/><path d="M430 550 447 550 447 554 430 554Z" fill="#D9D9D9"/><path d="M430 514 447 514 447 518 430 518Z" fill="#D9D9D9"/><path d="M430 526 447 526 447 530 430 530Z" fill="#D9D9D9"/><path d="M409.707 515.8 411.8 513.707 414.4 516.307 421 509.707 423.093 511.8 414.4 520.493 409.707 515.8Z" fill="#D9D9D9"/><path d="M409.707 527.8 411.8 525.707 414.4 528.307 421 521.707 423.093 523.8 414.4 532.493 409.707 527.8Z" fill="#D9D9D9"/></g></svg>