<svg width="96" height="96" xmlns="http://www.w3.org/2000/svg" xmlns:xlink="http://www.w3.org/1999/xlink" xml:space="preserve" overflow="hidden"><g transform="translate(-364 -313)"><path d="M432.006 388 446.006 388 446.006 394 432.006 394Z" fill="#B0B7BC"/><path d="M432.006 378 446.006 378 446.006 384 432.006 384Z" fill="#B0B7BC"/><path d="M432.006 368 446.006 368 446.006 374 432.006 374Z" fill="#B0B7BC"/><path d="M432.006 358 446.006 358 446.006 364 432.006 364Z" fill="#B0B7BC"/><path d="M432.006 348 446.006 348 446.006 354 432.006 354Z" fill="#B0B7BC"/><path d="M432.006 338 446.006 338 446.006 344 432.006 344Z" fill="#B0B7BC"/><path d="M414.006 388 428.006 388 428.006 394 414.006 394Z" fill="#B0B7BC"/><path d="M414.006 378 428.006 378 428.006 384 414.006 384Z" fill="#B0B7BC"/><path d="M414.006 368 428.006 368 428.006 374 414.006 374Z" fill="#B0B7BC"/><path d="M396.005 388 410.005 388 410.005 394 396.005 394Z" fill="#B0B7BC"/><path d="M396.005 378 410.005 378 410.005 384 396.005 384Z" fill="#B0B7BC"/><path d="M396.005 368 410.005 368 410.005 374 396.005 374Z" fill="#B0B7BC"/><path d="M396.005 358 410.005 358 410.005 364 396.005 364Z" fill="#B0B7BC"/><path d="M396.005 348 410.005 348 410.005 354 396.005 354Z" fill="#B0B7BC"/><path d="M396.005 338 410.005 338 410.005 344 396.005 344Z" fill="#B0B7BC"/><path d="M396.005 328 410.005 328 410.005 334 396.005 334Z" fill="#B0B7BC"/><path d="M378.005 388 392.005 388 392.005 394 378.005 394Z" fill="#B0B7BC"/><path d="M378.005 378 392.005 378 392.005 384 378.005 384Z" fill="#B0B7BC"/><path d="M378.005 368 392.005 368 392.005 374 378.005 374Z" fill="#B0B7BC"/><path d="M378.005 358 392.005 358 392.005 364 378.005 364Z" fill="#B0B7BC"/><path d="M378.005 348 392.005 348 392.005 354 378.005 354Z" fill="#B0B7BC"/></g></svg>