<svg width="96" height="96" xmlns="http://www.w3.org/2000/svg" xmlns:xlink="http://www.w3.org/1999/xlink" xml:space="preserve" overflow="hidden"><g transform="translate(-481 -313)"><path d="M564 338C564 340.761 561.761 343 559 343 556.239 343 554 340.761 554 338 554 335.239 556.239 333 559 333 561.761 333 564 335.239 564 338Z" fill="#B0B7BC"/><path d="M504 338C504 340.761 501.761 343 499 343 496.239 343 494 340.761 494 338 494 335.239 496.239 333 499 333 501.761 333 504 335.239 504 338Z" fill="#B0B7BC"/><path d="M544 338C544 340.761 541.761 343 539 343 536.239 343 534 340.761 534 338 534 335.239 536.239 333 539 333 541.761 333 544 335.239 544 338Z" fill="#B0B7BC"/><path d="M524 338C524 340.761 521.761 343 519 343 516.239 343 514 340.761 514 338 514 335.239 516.239 333 519 333 521.761 333 524 335.239 524 338Z" fill="#B0B7BC"/><path d="M570.9 362.5 567.7 347.9C567.6 347.5 567.4 347.1 567 346.8 565.8 345.9 564.5 345.1 563 344.7 561.7 344.3 560.4 344 559 344 557.6 344 556.2 344.2 555 344.7 553.5 345.2 552.2 345.9 551 346.8 550.6 347.1 550.4 347.5 550.3 347.9L549 353.8 549 353.8 547.7 347.9C547.6 347.5 547.4 347.1 547 346.8 545.8 345.9 544.5 345.1 543 344.7 541.7 344.3 540.4 344 539 344 537.6 344 536.2 344.2 535 344.7 533.5 345.2 532.2 345.9 531 346.8 530.6 347.1 530.4 347.5 530.3 347.9L529 353.7 529 353.8 527.7 347.9C527.6 347.5 527.4 347.1 527 346.8 525.8 345.9 524.5 345.1 523 344.7 521.7 344.3 520.4 344 519 344 517.6 344 516.2 344.2 515 344.7 513.5 345.2 512.2 345.9 511 346.8 510.6 347.1 510.4 347.5 510.3 347.9L509 353.7 509 353.7 507.7 347.9C507.6 347.5 507.4 347.1 507 346.8 505.8 345.9 504.5 345.1 503 344.7 501.7 344.3 500.4 344 499 344 497.6 344 496.2 344.2 495 344.7 493.5 345.2 492.2 345.9 491 346.8 490.6 347.1 490.4 347.5 490.3 347.9L487.1 362.4C486.8 363.5 487.5 364.7 488.7 364.9 488.8 364.9 488.9 364.9 489 364.9 489.9 364.9 490.7 364.3 491 363.3L494 350 494 357.1 491 372 494 372 494 389 498 389 498 372 500 372 500 389 504 389 504 372 507 372 504 357.1 504 350 507 363.4C507.2 364.3 508 365 508.9 365L508.9 365C509.8 365 510.6 364.4 510.8 363.4L514 350 514 366 514 389 518 389 518 366 520 366 520 389 524 389 524 366 524 350 527 363.4C527.2 364.3 528 365 529 365 529 365 529 365 529 365L529 365C529.9 365 530.7 364.4 530.9 363.4L534 350 534 357.2 531 372 534 372 534 389 538 389 538 372 540 372 540 389 544 389 544 372 547 372 544 357 544 350 547 363.4C547.2 364.3 548 365 549 365 549 365 549 365 549 365L549 365C549 365 549 365 549 365 549.9 365 550.7 364.4 551 363.4L554 350 554 366 554 389 558 389 558 366 560 366 560 389 564 389 564 366 564 350 567 363.4C567.2 364.3 568 365 569 365 569.2 365 569.5 365 569.7 364.9 570.6 364.5 571.1 363.5 570.9 362.5Z" fill="#B0B7BC"/></g></svg>