<svg width="96" height="96" xmlns="http://www.w3.org/2000/svg" xmlns:xlink="http://www.w3.org/1999/xlink" xml:space="preserve" overflow="hidden"><g transform="translate(-380 -312)"><path d="M463 337C463 339.761 460.761 342 458 342 455.239 342 453 339.761 453 337 453 334.239 455.239 332 458 332 460.761 332 463 334.239 463 337Z" fill="#0076B6"/><path d="M403 337C403 339.761 400.761 342 398 342 395.239 342 393 339.761 393 337 393 334.239 395.239 332 398 332 400.761 332 403 334.239 403 337Z" fill="#0076B6"/><path d="M443 337C443 339.761 440.761 342 438 342 435.239 342 433 339.761 433 337 433 334.239 435.239 332 438 332 440.761 332 443 334.239 443 337Z" fill="#0076B6"/><path d="M423 337C423 339.761 420.761 342 418 342 415.239 342 413 339.761 413 337 413 334.239 415.239 332 418 332 420.761 332 423 334.239 423 337Z" fill="#0076B6"/><path d="M469.9 361.5 466.7 346.9C466.6 346.5 466.4 346.1 466 345.8 464.8 344.9 463.5 344.1 462 343.7 460.7 343.3 459.4 343 458 343 456.6 343 455.2 343.2 454 343.7 452.5 344.2 451.2 344.9 450 345.8 449.6 346.1 449.4 346.5 449.3 346.9L448 352.8 448 352.8 446.7 346.9C446.6 346.5 446.4 346.1 446 345.8 444.8 344.9 443.5 344.1 442 343.7 440.7 343.3 439.4 343 438 343 436.6 343 435.2 343.2 434 343.7 432.5 344.2 431.2 344.9 430 345.8 429.6 346.1 429.4 346.5 429.3 346.9L428 352.7 428 352.8 426.7 346.9C426.6 346.5 426.4 346.1 426 345.8 424.8 344.9 423.5 344.1 422 343.7 420.7 343.3 419.4 343 418 343 416.6 343 415.2 343.2 414 343.7 412.5 344.2 411.2 344.9 410 345.8 409.6 346.1 409.4 346.5 409.3 346.9L408 352.7 408 352.7 406.7 346.9C406.6 346.5 406.4 346.1 406 345.8 404.8 344.9 403.5 344.1 402 343.7 400.7 343.3 399.4 343 398 343 396.6 343 395.2 343.2 394 343.7 392.5 344.2 391.2 344.9 390 345.8 389.6 346.1 389.4 346.5 389.3 346.9L386.1 361.4C385.8 362.5 386.5 363.7 387.7 363.9 387.8 363.9 387.9 363.9 388 363.9 388.9 363.9 389.7 363.3 390 362.3L393 349 393 356.1 390 371 393 371 393 388 397 388 397 371 399 371 399 388 403 388 403 371 406 371 403 356.1 403 349 406 362.4C406.2 363.3 407 364 407.9 364L407.9 364C408.8 364 409.6 363.4 409.8 362.4L413 349 413 365 413 388 417 388 417 365 419 365 419 388 423 388 423 365 423 349 426 362.4C426.2 363.3 427 364 428 364 428 364 428 364 428 364L428 364C428.9 364 429.7 363.4 429.9 362.4L433 349 433 356.2 430 371 433 371 433 388 437 388 437 371 439 371 439 388 443 388 443 371 446 371 443 356 443 349 446 362.4C446.2 363.3 447 364 448 364 448 364 448 364 448 364L448 364C448 364 448 364 448 364 448.9 364 449.7 363.4 450 362.4L453 349 453 365 453 388 457 388 457 365 459 365 459 388 463 388 463 365 463 349 466 362.4C466.2 363.3 467 364 468 364 468.2 364 468.5 364 468.7 363.9 469.6 363.5 470.1 362.5 469.9 361.5Z" fill="#0076B6"/></g></svg>