<svg width="96" height="96" xmlns="http://www.w3.org/2000/svg" xmlns:xlink="http://www.w3.org/1999/xlink" xml:space="preserve" overflow="hidden"><g transform="translate(-592 -312)"><path d="M640 322C619 322 602 339 602 360 602 381 619 398 640 398 661 398 678 381 678 360 678 339 661 322 640 322ZM606 360C606 351.1 609.4 343.1 615 337 615.9 337.5 616.8 338.3 617 339L617 345.3C617 345.7 617.1 346.2 617.4 346.5L624 355 624.5 354.5C624.8 354.2 624.9 353.7 624.7 353.3L623.5 351.3C623 350.5 623.8 349.5 624.7 349.8 625 349.9 625.2 350.1 625.3 350.3L628.6 356.8C629 357.5 629.6 358.1 630.3 358.3L634.7 359.8C635 359.9 635.2 360.1 635.3 360.3L635.6 360.8C635.9 361.5 636.6 361.9 637.4 361.9L638.6 361.9C638.9 361.9 639.2 362.1 639.4 362.3L640.7 364.2C641 364.6 641.4 364.9 641.9 365L644 365.5C644.6 365.6 644.9 366.3 644.7 366.8 644.7 366.8 643.1 368.4 643.1 370.7 643.1 377.3 649.1 379.2 649.1 380.7 649.1 384.8 648.5 390.5 648.2 392.7 645.6 393.3 642.9 393.7 640.1 393.7 621.3 394 606 378.7 606 360ZM652.8 391.5C655 389.6 658.7 386.4 660 385 661.7 383.1 662 380 662 380 662 380 669 378.1 669 373 669 369.5 662 368 662 368 660.8 364.1 654.9 362 650 362 648.9 362 645 364 645 364L643 363 643 360C643 359.4 642.6 359 642 359L640 359 640 356C640 355.4 639.6 355 639 355L638 355 636.9 355.7C635.9 356.4 634.5 356 634 354.9 634 354.9 633 353.5 633 352.9 633 348.6 638 348.9 638 348.9L640.2 348.9C640.7 348.9 641.1 349.2 641.2 349.7L641.8 352.2C641.9 352.6 642.3 353 642.8 353L643.2 353C643.7 353 644.1 352.7 644.2 352.2L644.9 348.5C645 348.2 645.1 347.9 645.3 347.6L648.1 344.1C648.7 343.4 649.5 343 650.4 343L653 343C653.6 343 654 342.6 654 342L654 341 653.7 340.7C653.1 340.1 653.5 339 654.4 339L655 339C655.6 339 656 339.4 656 340 656 340.6 656.4 341 657 341L658 341 658.6 338.4C658.8 337.5 658.4 336.7 657.7 336.2L649.2 331.1C649.1 331 648.9 331 648.7 331L647 331C645.9 331 645 331.9 645 333L645 334C645 334.6 644.6 335 644 335L643 335 642 334 639 334C638.4 334 638 333.6 638 333L638 330.5C638 330.2 638.1 329.9 638.4 329.7L644.8 327 645.8 328.7C646 328.9 646.2 329 646.5 329L649 329C649.6 329 650 328.6 650 328L650 327.5C663.9 331.8 674 344.7 674 360 674 374.2 665.2 386.4 652.8 391.5Z"/><path d="M652.3 355.8 647.5 354.2C647.1 354.1 646.8 354.1 646.4 354.2L643 355C642.7 355.2 642.6 355.6 643 356L647.6 356C647.9 356 648.1 356 648.3 356.1L651.8 357.5C652.4 357.7 653 357.3 653 356.7 653 356.3 652.7 355.9 652.3 355.8Z"/></g></svg>